<?xml version="1.0" encoding="utf-8"?>
<!-- Generator: Adobe Illustrator 16.0.0, SVG Export Plug-In . SVG Version: 6.00 Build 0)  -->
<!DOCTYPE svg PUBLIC "-//W3C//DTD SVG 1.1//EN" "http://www.w3.org/Graphics/SVG/1.1/DTD/svg11.dtd">
<svg version="1.1" id="Layer_1" xmlns="http://www.w3.org/2000/svg" xmlns:xlink="http://www.w3.org/1999/xlink" x="0px" y="0px"
	 width="580.96px" height="139.05px" viewBox="0 0 580.96 139.05" enable-background="new 0 0 580.96 139.05" xml:space="preserve">
<g>
	<path fill-rule="evenodd" clip-rule="evenodd" fill="#CCC7B8" d="M280.67,21.453l0.011-0.011l0.366-0.11
		c13.305-4.079,27.012-2.401,38.4,3.634c11.299,5.99,20.335,16.25,24.481,29.367l0.007,0.021l0.107,0.371
		c4.094,13.303,2.406,26.996-3.633,38.391c-5.986,11.305-16.244,20.34-29.373,24.486h-0.01l-0.366,0.107
		c-13.307,4.092-27.014,2.412-38.405-3.621c-11.297-5.992-20.333-16.246-24.478-29.377l-0.006-0.01l-0.116-0.361
		c-4.086-13.312-2.399-27.018,3.636-38.411C257.284,34.635,267.535,25.589,280.67,21.453L280.67,21.453z M335.395,76.756
		l-2.549-6.46l-1.095-6.142l-1.416-2.871l-4.964,1.921l-3.742-0.568c0,0-1.795-3.676-1.739-4.363
		c0.058-0.677-1.522-1.518-1.522-1.518l-1.915-1.92l-0.81-3.058l0.825-7.659l1.075-1.659c0,0,1.209-0.371,1.817-0.556
		c0.599-0.186,0.37-2.237,0.37-2.237s-2.072-0.284-2.799-0.067c-0.719,0.229-2.617,0.95-3.635,1.529
		c-1.008,0.565,0.977,2.738,0.977,2.738l-1.079,3.372l-2.575,0.653l0.08-1.876l-3.033-1.7l-0.01-3.045l0.326-3.679l-2.302-2.335
		l0.355-3.143l-6.085,1.734l-2.008-1.365l0.578-2.431l1.381-0.515c-4.49-0.469-9.129-0.162-13.733,0.982l2.146,1.615
		c0,0-0.64,5.216-0.939,5.979c-0.3,0.743-2.407,0.338-2.407,0.338l-2.531,1.233l-1.102-4.876l-1.333,0.402l-1.985,1.277
		l-1.778,5.839l-0.215,2.313l-2.351-0.338l-2.929,0.37l-2.283,1.627l-1.111,1.526l1.102,2.314l1.48,1.789l1.598-1.683l-0.226-2.444
		l1.752-1.199l2.974-0.644l1.932,1.125l2.969,1.462c0,0,1.466,2.925,0.16,3.131l-3.526,0.558c0,0,2.317,2.674,0.965,3.143
		l-3.47,1.199l-1.535,4.038l1.49-0.927l-1.112,2.487l-1.021,1.919c0,0,0.866,2.817,1.051,3.43c0.187,0.62-0.985,0.709-1.724,0.935
		c-0.735,0.231-2.241-2.933-2.241-2.933l-1.129,1.56l-3.885,1.32l-1.097,3.428l0.427,2.682l1.955,1.135l0.226-3.031l2.473,0.469
		l-0.387,2.664l3.682,0.205l0.682,2.205l1.534,1.941l1.555,1.135l3.913,1.441c0.114-0.293,0.249-0.611,0.385-0.873
		c0.422-0.787-0.364-1.604,1.377-2.4c1.739-0.809,3.879-1.594,4.556-1.529c0.682,0.045,0.873,0.264,1.754,0.111
		c0.888-0.131,1.455-0.438,2.376-0.459c0.916-0.023,1.288-0.525,2.444-0.217c1.151,0.303,3.662,0.719,4.414,1.012
		c0.754,0.309,1.151,0.316,1.824,0.775c0.665,0.449,0.293,0.961,1.731,1.311c1.426,0.359,1.97,0.854,3.212,1.004
		c1.236,0.152,2.514,0.021,3.438,0c0.922-0.021,1.557,0.305,2.471,0.293c0.921-0.02,1.915,0.209,1.915,0.209l1.03,2.063
		c0,0-0.992,1.494-0.451,2.391c0.541,0.893,0.965,1.416,1.152,2.027c0.184,0.602,0.795,1.736-0.265,2.588
		c-1.057,0.861-1.146,1.016-1.675,1.451c-0.528,0.414-0.486,0.143-0.872,1.451c-0.394,1.311-0.978,2.412-0.978,2.412
		s-0.645,0.064-0.393,1.311c0.25,1.254,1.202,1.746,0.214,2.848c-0.984,1.104-0.593,1.506-1.452,2.172
		c-0.857,0.652-2.182,1.068-2.182,1.068s-0.301,0.742-0.557,1.615c-0.264,0.873,0.85,1.07-0.646,1.791
		c-1.499,0.717-2.813,0.74-2.813,0.74s0.182,0.58,0.311,1.365c1.799-0.297,3.594-0.707,5.385-1.254l0.037-0.014
		c10.608-3.264,18.887-10.508,23.697-19.588C333.279,84.732,334.65,80.816,335.395,76.756L335.395,76.756z M294.969,109.711
		c-0.637-0.59-1.298-1.188-1.298-1.188s0.169-3.754-0.094-4.605c-0.263-0.838-2.933-4.389-2.933-4.389l-4.018-0.152
		c0,0-0.901,0.076-0.965-0.564c-0.066-0.635-2.167-1.443-2.167-1.443s-0.491-1.178-0.714-1.898c-0.226-0.719-1.142-0.709-1.801-1.57
		c-0.66-0.854-0.747-0.688-1.441-1.672c-0.697-0.971-0.659-0.848-0.993-1.941c-0.337-1.08,1.802-3.59,1.577-4.32
		c-0.219-0.721-0.633-2.064-0.633-2.064s0.158-0.498,0.377-1.09l-3.797,0.83l-2.515-1.648l-2.594-1.889l-3.813-1.506l-2.234,0.133
		c0,0-1.564-0.611-2.13-1.127c-0.563-0.512-1.519-0.486-3.351-1.559l-2.64-7.267l-1.086,2.796c0.162,3.227,0.726,6.488,1.712,9.719
		l0.017,0.033c3.256,10.609,10.503,18.891,19.589,23.701C282.495,107.934,288.641,109.57,294.969,109.711z"/>
	<g>
		<path fill="#CCC7B8" d="M70.521,65.4C85.978,55,90.998,34.266,81.599,17.839C71.756,0.643,49.836-5.323,32.64,4.516
			c-17.2,9.843-23.162,31.763-13.323,48.962c9.401,16.426,29.82,22.601,46.617,14.546c0.19,0.321,0.38,0.645,0.572,0.971
			c1.887,3.178,3.837,6.701,5.35,10.215c0.216,0.504,0.427,1.004,0.632,1.502c0.611,1.488,1.229,3.014,1.846,4.566
			c0.423,1.068,0.871,2.139,1.354,3.201c0.534,1.182,1.108,2.354,1.736,3.514c0.228,0.418,0.457,0.836,0.689,1.256
			c1.798,3.234,3.722,6.455,5.673,9.604c2.559,4.137,5.167,8.154,7.597,11.975c0.882,1.389,1.715,2.764,2.498,4.111
			c3.83,6.588,6.072,12.961,8.076,17.279c1.605,3.459,4.958,3.045,4.958,3.045s1.288-0.154,2.33-0.75
			c1.088-0.623,1.934-1.689,1.934-1.689s2.055-2.68-0.114-5.814c-2.708-3.92-7.066-9.078-10.808-15.719
			c-0.765-1.361-1.528-2.771-2.276-4.234c-2.063-4.037-4.207-8.318-6.474-12.619c-1.728-3.277-3.532-6.568-5.409-9.758
			c-0.244-0.412-0.486-0.824-0.732-1.23c-0.682-1.129-1.405-2.217-2.15-3.277c-0.672-0.955-1.366-1.883-2.072-2.787
			c-1.025-1.318-2.031-2.623-3.005-3.906c-0.325-0.428-0.647-0.863-0.973-1.305c-2.264-3.088-4.312-6.554-6.097-9.788
			C70.884,66.053,70.702,65.725,70.521,65.4z M23.89,50.863c-8.398-14.677-3.312-33.379,11.366-41.774
			C49.929,0.691,68.63,5.781,77.027,20.453c8.397,14.676,3.31,33.378-11.364,41.773C50.989,70.622,32.286,65.535,23.89,50.863z"/>
		<path fill="#CCC7B8" d="M12.238,35.623c0-4.273,0.708-8.384,2.017-12.214c-8.46,4.33-14.256,13.127-14.256,23.283
			c0,29.12,26.147,68.05,26.147,68.05s13.743-18.713,21.3-41.377C27.776,72.016,12.238,55.638,12.238,35.623z"/>
		<g>
			<path fill="#CCC7B8" d="M31.125,27.81c0.792,1.091,1.577,2.422,1.562,3.776c0.154,0.191,0.271,0.411,0.354,0.648
				c0.313,0.358,0.536,0.783,0.571,1.275c0.017,0.223-0.007,0.426-0.062,0.609c0.096,0.132,0.164,0.275,0.189,0.438
				c1.336,0.923,2.645,1.887,4.041,2.719c1.257,0.747,2.943,1.758,4.541,1.835c-0.48-2.449-1.386-4.789-1.827-7.252
				c-0.048-0.259,0.601-0.417,0.646-0.172c0.45,2.508,1.387,4.895,1.858,7.398c0.084-0.013,0.165-0.023,0.248-0.041
				c1.814-0.393,3.417-1.681,4.799-2.857c0.97-0.828,1.9-1.7,2.81-2.59c-0.861-0.084-1.735-0.058-2.593-0.201
				c-2.942-0.502-3.752-2.793-4.409-5.213c-1.342,0.569-2.673,1.062-4.118,1.287c-0.442,0.066-0.274-0.383,0.065-0.438
				c1.342-0.204,2.579-0.683,3.822-1.216c0.042-0.017,0.084-0.026,0.125-0.029c-0.314-1.183-0.617-2.374-1.132-3.386
				c-0.181,0.04-0.362,0.072-0.544,0.099c-2.284,0.313-4.517-0.107-6.778-0.375c-0.017,0.054-0.036,0.108-0.055,0.164
				c-0.171,0.48-0.414,0.895-0.705,1.262c0.138-0.084,0.341-0.122,0.441-0.043c2.033,1.589,4.271,3.334,5.325,5.759
				c0.032,0.077-0.059,0.176-0.116,0.207c-1.862,1.057-3.604,2.309-5.465,3.363c-0.238,0.136-0.797-0.022-0.417-0.238
				c1.049-0.593,2.057-1.247,3.07-1.897c0.559-0.364,1.12-0.728,1.696-1.063c0.663-0.387,0.419-0.671,0.031-1.244
				c-1.226-1.806-2.929-3.213-4.632-4.544c-0.059-0.047-0.076-0.098-0.067-0.144C33.553,26.671,32.34,27.267,31.125,27.81z"/>
			<path fill="#CCC7B8" d="M26.641,50.846c-0.004-0.012-0.004-0.022-0.004-0.036c-0.005,0.005-0.012,0.005-0.019,0.008
				C26.625,50.826,26.632,50.837,26.641,50.846z"/>
			<path fill="#CCC7B8" d="M51.293,22.467c-0.633-0.238-1.18-0.63-1.672-1.091c-1.349,0.209-2.589,1.051-3.748,1.709
				c-0.369,0.211-0.752,0.41-1.142,0.59c0.679,1.513,0.928,3.174,1.438,4.747c0.263,0.816,0.596,1.91,1.387,2.379
				c0.068,0.038,0.135,0.07,0.199,0.104c0.068-0.05,0.166-0.101,0.263-0.114c1.56-0.229,3.128-0.886,4.624-1.485
				c-1.729-2.038-2.852-4.493-3.95-6.905c-0.12-0.266,0.519-0.452,0.646-0.174c1.09,2.393,2.206,4.816,3.924,6.83
				c0.096-0.036,0.191-0.071,0.283-0.108c1.215-0.463,2.427-0.937,3.632-1.424c-1.165-1.772-2.514-3.416-4.015-4.909
				C52.575,22.746,51.95,22.716,51.293,22.467z"/>
			<path fill="#CCC7B8" d="M53.517,29.319c0.662,1.098,1.289,2.206,1.708,3.419c0.023,0.063,0.008,0.124-0.033,0.174
				c0.215,0.135,0.428,0.28,0.64,0.436c1.777,1.317,3.374,2.894,5.311,3.979c0.135,0.076,0.243,0.17,0.327,0.269
				c-0.802-3.554-2.223-6.875-4.142-9.842c-1.285,0.515-2.574,1.021-3.869,1.506C53.481,29.274,53.503,29.293,53.517,29.319z"/>
			<path fill="#CCC7B8" d="M53.308,45.946c0.028-0.081,0.056-0.168,0.077-0.257c0.315-1.289-0.61-2.139-1.848-2.287
				c-0.487-0.061-0.808-0.366-0.959-0.734c-0.157,0.155-0.371,0.263-0.633,0.301c-0.12,0.134-0.453,0.215-0.587,0.089
				c-2.389,0.588-1.451,4.053,0.87,4.407c1.073,0.165,2.368-0.263,2.933-1.222c-0.017-0.029-0.038-0.059-0.052-0.088
				C53.068,46.081,53.169,45.997,53.308,45.946z"/>
			<path fill="#CCC7B8" d="M36.532,22.072c1.947,0.295,3.97,0.608,5.838,0.089c1.085-0.305,2.078-0.838,3.063-1.378
				c-2.147-1.144-4.237-2.416-6.563-3.168c-0.223-0.073,0.361-0.331,0.526-0.277c2.319,0.753,4.408,2.021,6.554,3.164
				c0.674-0.365,1.353-0.717,2.065-0.975c-0.29-0.372-0.308-0.793-0.179-1.147c-2.275-1.431-4.75-2.568-7.376-3.368
				c-0.72,1.253-1.595,2.413-2.364,3.634C37.452,19.674,36.664,20.833,36.532,22.072z"/>
			<path fill="#CCC7B8" d="M60.016,39.253c-0.671-0.374-1.294-0.813-1.898-1.277c0.29,2.276,0.799,4.518,1.456,6.721
				c0.493-0.021,0.983-0.003,1.433,0.021c0.404,0.023,0.808,0.057,1.212,0.1c0-0.148,0.002-0.295,0.002-0.441
				c0-2.013-0.195-3.981-0.565-5.887C61.492,39.139,60.779,39.681,60.016,39.253z"/>
			<path fill="#CCC7B8" d="M54.238,56.529c-1.001-1.468-3.063-2.179-4.887-2.544c-0.152-0.028-0.306-0.056-0.46-0.087
				c-0.641,1.493-1.166,3.031-1.688,4.568c0.061,0.021,0.119,0.049,0.18,0.07c0.062,0.021,0.069,0.059,0.043,0.095
				C49.724,58.01,51.947,57.153,54.238,56.529z"/>
			<path fill="#CCC7B8" d="M33.367,49.839c1.492,0.982,3.046,1.866,4.7,2.551c0.655-0.857,1.326-1.704,1.9-2.621
				c-1.979-1.546-3.34-3.984-4.125-6.372c-0.005,0.005-0.011,0.008-0.014,0.012c-0.985,0.897-2.141,1.924-3.545,1.967
				c-0.386,0.012-0.767-0.013-1.15-0.021c-0.211-0.005-0.781,0.106-0.642-0.027c-0.486,0.468-0.82,1.058-1.039,1.694
				c1.201,0.92,2.422,1.827,3.683,2.668c0-0.002-0.002-0.004-0.002-0.007v-3.993c0-0.225,0.649-0.361,0.649-0.077v3.994
				C33.782,49.738,33.553,49.839,33.367,49.839z"/>
			<path fill="#CCC7B8" d="M38.834,55.205c-0.629,1.025-1.1,2.096-1.188,3.297c0.597,0.582,0.966,1.34,1.092,2.195
				c0.032,0.207,0.022,0.405-0.024,0.595c1.917,0.879,3.947,1.551,6.064,1.989c0.657-1.5,1.193-3.045,1.722-4.595
				C43.877,57.679,41.432,56.27,38.834,55.205z"/>
			<path fill="#CCC7B8" d="M25.846,37.542c-0.849,0.33-1.721,0.602-2.603,0.774c-0.448,0.084-0.813-0.073-1.057-0.339
				c0.357,3.9,1.496,7.573,3.263,10.857c0.046-0.021,0.093-0.039,0.144-0.058c0.396-0.128,0.789-0.194,1.166-0.19
				c0.104-0.709,0.267-1.404,0.503-2.059c0.416-1.153,1.055-2.604,2.227-3.161C28.182,41.482,27.004,39.519,25.846,37.542z"/>
			<path fill="#CCC7B8" d="M56.636,45.67c0.605-0.56,1.413-0.814,2.256-0.918c-0.712-2.407-1.246-4.859-1.51-7.355
				c-0.218-0.177-0.435-0.357-0.651-0.534c-1.418,1.396-2.416,3.054-3.514,4.775c1.704,0.768,2.875,2.363,2.367,4.466
				c-0.116,0.471-0.298,0.903-0.537,1.29c0.106,0.077,0.212,0.152,0.321,0.226C55.691,46.878,56.087,46.176,56.636,45.67z"/>
			<path fill="#CCC7B8" d="M58.106,47.364c-0.769,0.942-1.176,2.298-1.564,3.432c-0.071,0.206-0.14,0.408-0.207,0.614
				c0.015-0.003,0.031-0.003,0.04-0.003c1.814,0.036,3.652,0.494,5.412,1.037c0.191-1.808,0.319-3.612,0.384-5.41
				c-0.179-0.017-0.36-0.032-0.539-0.046C60.762,46.929,58.721,46.606,58.106,47.364z"/>
			<path fill="#CCC7B8" d="M22.649,36.163c1.458-0.282,2.892-0.84,4.212-1.509c0.084-0.042,0.172-0.087,0.261-0.132
				c-0.032-0.536,0.083-1.091,0.326-1.586c-1.688-0.509-2.934-1.843-4.555-2.501c-0.215-0.087,0.372-0.331,0.527-0.268
				c1.517,0.614,2.715,1.829,4.243,2.395c0.006-0.014,0.013-0.027,0.023-0.037c0.643-0.926,1.638-1.635,2.719-1.641
				c-0.32-1.034-1.379-2.212-1.853-2.772c-1.097-1.299-2.316-2.486-3.451-3.748c-0.958-1.068,0.613-2.652,1.578-1.58
				c0.988,1.101,2.035,2.139,3.011,3.244c1.307-0.533,3.392-1.267,3.507-2.79c0.217-2.842-1.399-5.453-1.486-8.282
				c-0.044-1.442,2.188-1.439,2.232,0c0.067,2.236,1.354,4.634,1.558,6.967c0.135,0.018,0.27,0.038,0.406,0.058
				c0.184-1.208,0.952-2.366,1.584-3.358c0.789-1.231,1.667-2.41,2.394-3.68c0.015-0.028,0.042-0.051,0.08-0.075
				c-2.53-0.72-5.193-1.128-7.943-1.169c-6.095,5.229-9.96,12.986-9.96,21.648c0,0.372,0.011,0.742,0.024,1.113
				C22.216,36.317,22.401,36.213,22.649,36.163z"/>
			<path fill="#CCC7B8" d="M34.158,58.139c0.39-0.205,0.833-0.356,1.283-0.413c0.148-1.138,0.54-2.244,1.18-3.284
				c0.354-0.582,0.751-1.133,1.159-1.67c-0.063,0.003-0.118,0.003-0.16-0.014c-3.042-1.256-5.742-3.168-8.348-5.15
				c-0.186,0.674-0.315,1.354-0.371,2.044c0.165,0.225,0.302,0.489,0.405,0.788c0.393,1.147,0.336,2.557-0.026,3.705
				c-0.014,0.04-0.027,0.078-0.043,0.114c1.369,1.547,2.903,2.941,4.574,4.159C33.896,58.312,34.011,58.218,34.158,58.139z"/>
			<path fill="#CCC7B8" d="M59.723,58.128c0.154-0.318,0.385-0.614,0.697-0.863c0.234-0.187,0.507-0.3,0.778-0.313
				c0.214-1.369,0.396-2.736,0.544-4.106c-1.773-0.565-3.651-1.082-5.496-1.166c-0.242,0.749-0.471,1.499-0.688,2.257
				c-0.039,0.131-0.092,0.246-0.159,0.344c0.97,0.947,1.594,2.16,1.679,3.703C57.902,58.122,58.854,58.207,59.723,58.128z"/>
			<path fill="#CCC7B8" d="M56.423,36.611c-0.648-0.535-1.305-1.061-2.002-1.537c-0.375-0.257-0.762-0.501-1.157-0.717
				c-1.479,1.473-2.984,2.914-4.626,4.208c-0.464,0.366-0.957,0.744-1.472,1.094c0.442,0.441,0.847,0.914,1.251,1.389
				c0.448-0.16,0.931-0.263,1.44-0.299c0.513-0.037,0.84,0.225,0.987,0.582c0.17-0.132,0.404-0.196,0.694-0.162
				c0.42,0.05,0.827,0.146,1.216,0.281c0.611-1.009,1.201-2.035,1.907-2.972C55.186,37.78,55.777,37.167,56.423,36.611z"/>
			<path fill="#CCC7B8" d="M60.42,60.943c-0.229-0.182-0.416-0.394-0.561-0.618c-1.432,0.123-2.95-0.067-4.203-0.354
				c-0.455-0.105-0.854-0.603-0.818-1.077c0.061-0.806-0.1-1.484-0.413-2.062c-2.446,0.662-4.805,1.592-7.256,2.227
				c-0.069,0.017-0.125,0.02-0.172,0.012c-0.498,1.461-1.012,2.915-1.633,4.327c1.696,0.312,3.442,0.477,5.228,0.477
				c3.384,0,6.631-0.593,9.643-1.673c0.084-0.402,0.167-0.806,0.247-1.213C60.463,60.974,60.443,60.959,60.42,60.943z"/>
			<path fill="#CCC7B8" d="M52.898,29.475c-1.549,0.588-3.176,1.299-4.816,1.569c0.61,0.215,1.254,0.232,1.924,0.266
				c1.616,0.081,3.049,0.44,4.403,1.149c-0.398-1.001-0.931-1.932-1.486-2.857C52.898,29.558,52.892,29.515,52.898,29.475z"/>
			<path fill="#CCC7B8" d="M55.158,48.122c-0.145-0.092-0.286-0.185-0.426-0.281c-1.12,1.405-3.025,2.096-4.875,1.813
				c-1.755-0.268-3.244-1.521-3.86-3.146h-6.122c0.599,0.793,1.307,1.48,2.135,1.965c0.544,0.316,0.681,0.985,0.401,1.526
				c-0.276,0.53-0.598,1.039-0.942,1.535c3.422-0.45,8.603-0.345,12.048,1.426c0.345-1.188,0.712-2.374,1.151-3.534
				C54.822,49.018,54.98,48.571,55.158,48.122z"/>
			<path fill="#CCC7B8" d="M47.817,41.308c-0.379-0.449-0.761-0.893-1.172-1.305c-1.026,0.642-2.134,1.149-3.315,1.267
				c-1.551,0.159-3.04-0.194-4.466-0.813c-0.425,0.374-0.828,0.77-1.226,1.169c0.017,0.049,0.036,0.099,0.05,0.152
				c0.374,1.415,0.985,2.961,1.869,4.276c0.01,0,0.02-0.001,0.028-0.001h6.267c-0.092-0.335-0.149-0.682-0.162-1.039
				C45.632,43.291,46.493,41.998,47.817,41.308z"/>
			<path fill="#CCC7B8" d="M30.265,37.039c-0.709,0.075-1.432-0.141-2.065-0.57c-0.566,0.291-1.15,0.57-1.741,0.822
				c1.167,1.995,2.357,3.976,3.679,5.876c0.765-0.114,1.664,0.194,2.373-0.065c0.651-0.24,1.244-0.807,1.74-1.269
				c0.855-0.805,1.657-1.674,2.512-2.482c-1.46-0.888-2.853-1.945-4.182-2.882c-0.441,0.367-0.96,0.617-1.568,0.651
				C30.758,37.134,30.508,37.102,30.265,37.039z"/>
			<path fill="#CCC7B8" d="M48.289,53.821c0.004-0.004,0.01-0.013,0.013-0.021c-2.427-0.374-5.01-0.391-7.397,0.075
				c-0.401,0.073-0.735-0.045-0.975-0.257c-0.292,0.395-0.577,0.782-0.839,1.183c2.575,1.026,4.987,2.415,7.559,3.446
				C47.157,56.759,47.668,55.27,48.289,53.821z"/>
		</g>
	</g>
	<g>
		<path fill="#CCC7B8" d="M507.681,90.313c2.428-1.639,4.663-3.521,7.075-5.225c1.16-0.818,2.357-1.586,3.556-2.354
			c-2.779-1.371-5.551-2.807-8.313-4.303c-0.273,0.123-0.556,0.223-0.845,0.311c-1.286,3.529-2.455,7.146-2.837,10.855
			C506.848,89.746,507.31,89.988,507.681,90.313z"/>
		<path fill="#CCC7B8" d="M533.674,92.531c-0.642-0.99-1.051-2.145-1.137-3.389c-3.973-1.615-7.924-3.375-11.857-5.258
			c-1.213,0.801-2.433,1.602-3.632,2.449c-2.735,1.93-5.282,4.078-8.049,5.93C517.181,91.41,525.488,92.869,533.674,92.531z"/>
		<path fill="#CCC7B8" d="M508.775,94.629c-0.436,1.443-1.628,2.627-3.589,2.627c-0.962,0-1.729-0.295-2.325-0.756
			c-0.631,0.697-1.291,1.363-1.966,2.016c7.063,8.461,17.153,14.314,28.611,15.879c2.003-6.586,3.726-13.117,5.157-19.611
			C526.064,95.199,517.347,93.563,508.775,94.629z"/>
		<path fill="#CCC7B8" d="M501.553,94.484c-0.504-1.912,0.295-4.225,2.404-4.873c0.344-3.613,1.396-7.135,2.614-10.58
			c-1.705-0.117-3.239-0.826-4.407-1.924c-3.458,1.051-6.979,2.045-10.535,2.975c1.459,6.113,4.162,11.746,7.822,16.615
			C500.187,95.99,500.898,95.264,501.553,94.484z"/>
		<path fill="#CCC7B8" d="M490.48,66.713c-0.067,0.92-0.088,1.859-0.088,2.813c0,1.376,0.064,2.745,0.176,4.081
			c2.525-0.658,5.021-1.357,7.494-2.092C495.523,69.974,492.996,68.355,490.48,66.713z"/>
		<path fill="#CCC7B8" d="M507.215,46.364c-1.658-0.565-3.079-1.713-4.69-2.546c-1.016-0.523-2.038-1.011-3.066-1.479
			c-3.782,5.029-6.542,10.87-7.971,17.219c3.632,2.429,7.263,4.759,10.907,6.979c1.259-1.095,2.889-1.748,4.67-1.748
			c0.113,0,0.224,0.011,0.335,0.017c-0.106-5.334-0.398-10.667,0.624-15.896C507.478,48.193,507.21,47.277,507.215,46.364z"/>
		<path fill="#CCC7B8" d="M537.264,24.273c-0.526-0.021-1.053-0.032-1.586-0.032c-8.299,0-16.064,2.247-22.75,6.144
			c-0.332,4.16-0.171,8.353-0.104,12.542c0.335,0.179,0.639,0.391,0.888,0.652c3.085-2.295,6.111-4.723,9.919-5.691
			c4.075-1.039,8.199-2.154,12.367-2.866c0.273-1.253,1.093-2.365,2.459-2.781C538.127,29.574,537.735,26.918,537.264,24.273z"/>
		<path fill="#CCC7B8" d="M510.495,31.904c-3.556,2.387-6.763,5.253-9.508,8.522c0.36,0.173,0.725,0.335,1.08,0.519
			c1.733,0.895,3.755,2.599,5.772,3.2c0.535-0.854,1.41-1.494,2.634-1.635C510.417,38.966,510.317,35.426,510.495,31.904z"/>
		<path fill="#CCC7B8" d="M537.634,51.214c0.529-0.787,1.202-1.466,1.992-1.983c-0.045-3.137-0.182-6.258-0.41-9.366
			c-1.67-0.168-2.698-1.254-3.11-2.562c-4.402,0.65-9.021,1.717-12.961,3.193c-3.168,1.188-5.745,3.254-8.42,5.235
			c0.001,0.005,0.001,0.009,0.002,0.014C522.583,46.354,530.277,48.381,537.634,51.214z"/>
		<path fill="#CCC7B8" d="M536.661,53.328c-7.128-2.738-14.612-4.682-22.221-5.253c-0.524,1.258-1.673,2.228-3.449,2.228
			c-0.29,0-0.563-0.029-0.82-0.078c-0.837,4.969-0.511,10.038-0.415,15.091c0.883,0.357,1.678,0.886,2.344,1.551
			c4.473-1.662,8.84-3.444,13.086-5.37c3.852-1.74,7.604-3.602,11.258-5.591c-0.022-0.222-0.033-0.46-0.033-0.701
			C536.41,54.555,536.5,53.927,536.661,53.328z"/>
		<path fill="#CCC7B8" d="M556.165,42.028c-2.788-1.623-5.788-3.816-8.947-4.579c-0.552-0.135-1.104-0.214-1.659-0.275
			c0.33,3.777,0.531,7.569,0.601,11.378c0.503,0.197,0.974,0.46,1.421,0.764c3.261-2.115,6.43-4.35,9.511-6.696
			C556.781,42.424,556.485,42.215,556.165,42.028z"/>
		<path fill="#CCC7B8" d="M554.568,28.364c-3.318-1.527-6.851-2.669-10.543-3.357c0.41,2.472,0.738,4.956,1.029,7.446
			C548.109,30.83,551.314,29.549,554.568,28.364z"/>
		<path fill="#CCC7B8" d="M557.446,29.817c-4.142,1.472-8.242,2.996-12.077,5.134c1.72,0.144,3.43,0.377,5.125,1.226
			c2.885,1.442,5.892,3.018,8.57,4.888c2.24-1.766,4.448-3.574,6.59-5.469C563.149,33.379,560.396,31.441,557.446,29.817z"/>
		<path fill="#CCC7B8" d="M525.1,77.832c4.672-4.246,8.38-9.358,11.679-14.717c-2.914,1.514-5.882,2.956-8.9,4.333
			c-4.476,2.024-9.062,3.903-13.765,5.634l-0.025,0.152c3.422,1.836,6.855,3.572,10.304,5.205
			C524.629,78.238,524.869,78.041,525.1,77.832z"/>
		<path fill="#CCC7B8" d="M526.759,79.492c-0.008,0.008-0.017,0.014-0.024,0.02c2.779,1.275,5.566,2.502,8.362,3.635
			c0.612-0.504,1.294-0.898,2.034-1.182c0.876-5.426,1.543-10.83,1.971-16.191c0.053-0.718,0.104-1.438,0.152-2.158
			C535.793,69.425,531.847,75.188,526.759,79.492z"/>
		<path fill="#CCC7B8" d="M563.73,55.42c0.368-1.295,1.333-2.393,2.911-2.642c-1.206-2.175-2.657-4.159-4.354-5.927
			c-3.743,2.909-7.614,5.653-11.611,8.221v0.132c0,0.139-0.008,0.275-0.016,0.411C554.949,54.947,559.348,55.285,563.73,55.42z"/>
		<path fill="#CCC7B8" d="M555.803,86.98c-2.449-5.303-4.275-11.045-6.129-16.552c-0.982-2.921-1.905-5.909-3.101-8.761
			c-0.217,0.103-0.438,0.194-0.667,0.275c-0.088,1.445-0.186,2.891-0.295,4.333c-0.428,5.45-1.093,10.929-1.98,16.444
			c1.575,1.061,2.712,2.744,3.053,4.693c2.93,0.969,5.873,1.846,8.826,2.646C555.238,89.043,555.338,87.916,555.803,86.98z"/>
		<path fill="#CCC7B8" d="M563.699,57.764c-4.582-0.15-9.183-0.533-13.646,0.351c-0.344,0.768-0.826,1.458-1.404,2.056
			c3.762,7.934,5.473,17.17,8.954,25.111c0.447-0.182,0.958-0.287,1.538-0.287c0.073,0,0.139,0.012,0.209,0.014
			c0.244-0.703,0.551-1.396,0.876-2.09c1.567-3.348,2.046-6.645,2.519-10.279c0.566-4.364,1.321-8.697,2.019-13.04
			C564.234,59.104,563.881,58.46,563.699,57.764z"/>
		<path fill="#CCC7B8" d="M577.916,78.865c-1.711,1.15-3.721,1.947-5.506,3.08c-3.258,2.066-6.071,4.85-9.521,6.553
			c0.104,1.137-0.212,2.32-0.972,3.16c3.955,0.902,7.932,1.662,11.932,2.254c2.813-4.406,4.888-9.324,6.049-14.588
			c-0.033,0-0.064,0.004-0.098,0.004C579.062,79.328,578.438,79.152,577.916,78.865z"/>
		<path fill="#CCC7B8" d="M570.501,80.379c1.792-1.137,4.052-1.963,5.873-3.223c-0.528-1.211-0.468-2.701,0.183-3.85
			c-0.898-1.845-1.613-3.782-2.551-5.664c-1.34-2.69-2.672-5.375-4.184-7.968c-0.612,0.533-1.439,0.872-2.485,0.872
			c-0.12,0-0.233-0.009-0.347-0.017c-0.719,4.607-1.477,9.208-2.108,13.833c-0.358,2.621-0.722,5.158-1.678,7.641
			c-0.499,1.293-1.222,2.504-1.659,3.797c0.188,0.154,0.348,0.332,0.498,0.52C565.117,84.777,567.586,82.229,570.501,80.379z"/>
		<path fill="#CCC7B8" d="M570.219,40.259c-1.991,1.773-4.031,3.488-6.108,5.152c2.237,2.361,4.05,5.005,5.497,8.012
			c1.165,0.858,1.652,2.379,1.469,3.795c1.841,2.977,3.412,6.1,4.957,9.24c0.85,1.727,1.5,3.562,2.313,5.306
			c0.428-0.164,0.91-0.258,1.455-0.258c0.402,0,0.768,0.053,1.105,0.145c0.033-0.703,0.055-1.411,0.055-2.124
			C580.961,58.365,576.912,48.147,570.219,40.259z"/>
		<path fill="#CCC7B8" d="M544.758,93.627c-0.287,0.297-0.607,0.559-0.942,0.801c3.273,5.744,6.567,11.395,11.04,16.129
			c5.533-2.592,10.458-6.266,14.498-10.758C561.069,98.375,552.877,96.309,544.758,93.627z"/>
		<path fill="#CCC7B8" d="M541.705,95.461c-0.176,0.053-0.345,0.117-0.525,0.156c-1.399,6.357-3.063,12.762-4.99,19.191
			c5.807-0.066,11.346-1.225,16.428-3.277C548.275,106.758,544.982,101.189,541.705,95.461z"/>
	</g>
</g>
</svg>
