<?xml version="1.0" encoding="utf-8"?>
<!-- Generator: Adobe Illustrator 16.0.0, SVG Export Plug-In . SVG Version: 6.00 Build 0)  -->
<!DOCTYPE svg PUBLIC "-//W3C//DTD SVG 1.1//EN" "http://www.w3.org/Graphics/SVG/1.1/DTD/svg11.dtd">
<svg version="1.1" id="Layer_1" xmlns="http://www.w3.org/2000/svg" xmlns:xlink="http://www.w3.org/1999/xlink" x="0px" y="0px"
	 width="100px" height="50px" viewBox="0 0 100 50" enable-background="new 0 0 100 50" xml:space="preserve">
<g>
	<path fill="#76C26C" d="M97.727,36.87c0,6.001-4.885,10.866-10.908,10.866H63.182c-6.025,0-10.908-4.865-10.908-10.866V13.13
		c0-6.001,4.883-10.866,10.908-10.866h23.637c6.023,0,10.908,4.865,10.908,10.866V36.87z"/>
	<path fill="#CBC6B7" d="M36.818,50H13.182C5.914,50,0,44.11,0,36.87V13.13C0,5.89,5.914,0,13.182,0h23.637
		C44.087,0,50,5.89,50,13.13v23.74C50,44.11,44.087,50,36.818,50z M13.182,4.527c-4.762,0-8.636,3.859-8.636,8.603v23.74
		c0,4.743,3.874,8.603,8.636,8.603h23.637c4.762,0,8.636-3.859,8.636-8.603V13.13c0-4.744-3.874-8.603-8.636-8.603H13.182z"/>
	<path fill="#393135" d="M86.818,50H63.182C55.912,50,50,44.11,50,36.87V13.13C50,5.89,55.912,0,63.182,0h23.637
		C94.086,0,100,5.89,100,13.13v23.74C100,44.11,94.086,50,86.818,50z M63.182,4.527c-4.762,0-8.637,3.859-8.637,8.603v23.74
		c0,4.743,3.875,8.603,8.637,8.603h23.637c4.762,0,8.635-3.859,8.635-8.603V13.13c0-4.744-3.873-8.603-8.635-8.603H63.182z"/>
	<path fill="#393135" d="M90.52,17.897l-2.824-2.826c-0.389-0.388-0.859-0.581-1.414-0.581c-0.553,0-1.025,0.193-1.412,0.581
		L71.24,28.722l-6.107-6.129c-0.389-0.388-0.859-0.582-1.414-0.582c-0.553,0-1.025,0.194-1.412,0.582l-2.826,2.825
		c-0.387,0.388-0.582,0.858-0.582,1.413c0,0.554,0.195,1.025,0.582,1.412l7.521,7.521l2.826,2.825
		c0.387,0.388,0.857,0.582,1.412,0.582c0.553,0,1.025-0.194,1.412-0.582l2.826-2.825L90.52,20.723
		c0.389-0.388,0.582-0.858,0.582-1.413C91.102,18.756,90.908,18.285,90.52,17.897z"/>
</g>
</svg>
