<?xml version="1.0" encoding="utf-8"?>
<!-- Generator: Adobe Illustrator 16.0.0, SVG Export Plug-In . SVG Version: 6.00 Build 0)  -->
<!DOCTYPE svg PUBLIC "-//W3C//DTD SVG 1.1//EN" "http://www.w3.org/Graphics/SVG/1.1/DTD/svg11.dtd">
<svg version="1.1" id="Layer_1" xmlns="http://www.w3.org/2000/svg" xmlns:xlink="http://www.w3.org/1999/xlink" x="0px" y="0px"
	 width="45px" height="45px" viewBox="0 0 45 45" enable-background="new 0 0 45 45" xml:space="preserve">
<path fill-rule="evenodd" clip-rule="evenodd" fill="#EAEAEA" d="M38.688,10.359H6.9c-1.307,0-2.365,1.23-2.365,2.748v19.179
	c0,1.518,1.059,2.748,2.365,2.748h31.788c1.308,0,2.366-1.23,2.366-2.748V13.107C41.055,11.59,39.996,10.359,38.688,10.359z
	 M37.352,30.652c-2.479-1.716-4.956-3.431-7.435-5.146c-0.548-0.379-1.096-0.758-1.643-1.138c-0.118-0.081-0.236-0.163-0.354-0.244
	c0.201,0.14-0.95,1.05-1.082,1.166c-1.298,1.145-2.608,2.269-3.919,3.394c-0.064,0.055-0.186,0.055-0.249,0
	c-1.413-1.211-2.832-2.413-4.222-3.66c-0.214-0.191-0.793-0.891-0.862-0.843c-0.143,0.099-0.285,0.197-0.427,0.296
	c-0.544,0.376-1.088,0.753-1.632,1.129c-2.431,1.682-4.86,3.364-7.29,5.046c-0.235,0.163-0.521-0.244-0.299-0.449
	c2.677-2.476,5.354-4.951,8.03-7.427c-2.765-2.542-5.497-5.161-8.03-8.016c-0.206-0.231,0.056-0.601,0.299-0.449
	c3.013,1.875,5.907,4.022,8.745,6.23c1.605,1.25,3.201,2.519,4.769,3.833c0.349,0.293,0.698,0.586,1.047,0.879
	c0.018-0.018,0.039-0.039,0.068-0.063c0.197-0.165,0.394-0.33,0.591-0.494c4.449-3.728,9.055-7.367,13.894-10.385
	c0.243-0.151,0.505,0.218,0.299,0.449c-2.536,2.851-5.267,5.47-8.031,8.016c2.677,2.476,5.354,4.951,8.031,7.427
	C37.873,30.408,37.587,30.815,37.352,30.652z"/>
</svg>
