<?xml version="1.0" encoding="utf-8"?>
<!-- Generator: Adobe Illustrator 18.1.0, SVG Export Plug-In . SVG Version: 6.00 Build 0)  -->
<svg version="1.1" id="Layer_1" xmlns="http://www.w3.org/2000/svg" xmlns:xlink="http://www.w3.org/1999/xlink" x="0px" y="0px"
	 viewBox="16 -16.8 100 100" enable-background="new 16 -16.8 100 100" xml:space="preserve">
<g>
	<g>
		<path fill="none" d="M113.6,75.9c0,2.9-2.3,5.2-5.2,5.2H23.7c-2.9,0-5.2-2.3-5.2-5.2V-8.9c0-2.9,2.3-5.2,5.2-5.2h84.8
			c2.9,0,5.2,2.3,5.2,5.2C113.6-8.9,113.6,75.9,113.6,75.9z"/>
	</g>
	<g>
		<g>
			<g>
				<g opacity="0.8">
					<path fill="#CBE3B1" d="M44.2-5.6c0,0.7,0,1.3,0,1.9c0.1,0.6,0.2,1.2,0.4,1.8c0.2,0.9,0.2,1.8,0.1,2.8
						c-0.1,0.9-0.2,1.9-0.1,2.9c0,1,0.2,1.9,0.3,2.9c-0.1,2,0,4.1,0.4,6.3c0,0.2-0.1,0.9,0.6,0.9c-0.1,2.2-0.3,4.3,0.3,6.4
						c0.2,0.9-0.3,1.8-0.2,2.7c0.2,0.7,0.1,1.4,0,2.1c-0.1,0.7-0.3,1.4-0.3,2.1c0.1,0.2,0.5,0.6,0.4,0.8c-0.4,1-0.4,1.9-0.2,2.8
						c0.2,0.9,0.4,1.8,0.5,2.8c0,0.4,0,0.7,0,1c0,0.3-0.1,0.6-0.2,1c0.3,0.1,0.2,0.2,0.3,0.4c0,0.1-0.2,0.4-0.3,0.8
						c-0.2,0.3-0.5,0.8-0.8,1.2c-0.6,0.8-1.2,1.6-1.4,1.7c-0.1,0.1,0.3-1.4,0.7-2.8c0.3-1.4,0.5-2.9,0.3-2.8c-0.1,0.1-0.4,1-0.6,2
						c-0.1,0.2-0.1,0.5-0.2,0.7c-0.1,0.2-0.2,0.5-0.2,0.6c-0.1,0.4-0.3,0.7-0.3,0.8c0-0.4,0.1-0.8,0.1-1.2c0-0.4,0-0.8,0-1.1
						c0-0.7,0-1.3,0-1.9c-0.1-1.1-0.3-2-0.4-2.6c-0.3-1.2-0.4-1.6-0.5-1.3c0,0.2,0.1,1,0.1,2c0,0.5,0.1,1,0.2,1.6l0,0.4
						c0,0.1,0,0.3,0,0.4c0,0.3,0,0.5,0,0.8c-0.2,0.6,0.1,1.6-0.3,2.8c0-0.4-0.1-1-0.3-1.5c-0.2-0.5-0.4-1-0.4-1.2
						c-0.1-0.8-0.2-1.2-0.3-1.6c-0.1-0.4-0.1-0.8,0-1.7c0.1-0.4,0.1-0.8,0.1-1.3c0-0.5-0.1-1-0.2-1.5c-0.2-1-0.5-2-0.6-2.6
						c0.3,0.3,0.7,0.9,1.1,1.5c0.3,0.6,0.6,1.3,0.5,1.8c0.4-1.1,0.1-1.7-0.4-2.3c-0.5-0.6-0.9-1.3-0.9-2.4c0-0.2-0.1-0.5-0.2-0.7
						c0.1-0.3,0.1-0.5,0.2-0.8c0-0.9-0.2-1.8-0.4-2.7c-0.1-0.4-0.2-0.9-0.3-1.3c-0.1-0.4-0.1-0.9-0.2-1.3c0,0.2-0.3,0.3-0.3,0.4
						c-0.2,0.8-0.1,1.5,0.1,2.3c0.2,0.7,0.4,1.5,0.4,2.3c-0.1,0.3,0.5,0.8,0.5,1.1c0,0.3,0,0.7-0.1,1c-0.1,0.3-0.3,0.6-0.4,1
						c-0.1-0.3-0.2-0.7-0.2-1c-0.1-0.3-0.1-0.7-0.2-1c-0.1-0.7-0.1-1.4-0.2-2.1c-0.1-0.3-0.5-0.6-0.7-0.8c0,0.6,0.1,1.3,0.1,1.9
						c0.1,0.6,0.2,1.2,0.4,1.8c0.2,0.6,0.4,1.2,0.5,1.8c0.1,0.6,0.3,1.2,0.3,1.7c0,0.5-0.1,1-0.4,1.4c0,0,0.1,0.1,0.1,0.2
						c0,0-0.1,0.1-0.1,0.1c0,0.3-0.1,0.7-0.4,1c0,0,0-0.1,0-0.1c0-0.1,0-0.2,0.1-0.3c0-0.2,0.1-0.4,0.1-0.4
						c-0.5-1.1-0.5-2.3-0.6-3.6c0-0.6,0-1.2-0.1-1.9c-0.1-0.6-0.1-1.2-0.3-1.8c-0.2-0.5,0.3-1.4,0.1-2c-0.5-1.6-0.6-3.3-0.4-4.9
						c0.5-5.8,0.6-11.7,1.8-17.5c0-0.1-0.1-0.3-0.1-0.4c-0.1,0.1-0.1,0.1-0.2,0.2c0.1-0.1,0.1-0.2,0.2-0.4c-0.1-0.7-0.2-1.5,0.2-2.2
						c0.2-0.3,0.1,0.5,0.4,0.7c0-0.2,0.1-0.3,0.1-0.3s0.2,0,0.3,0.1C41.7-3.8,41.9-3.9,42-4c0.2,1.6,0.5,3.2,0.8,4.8
						C43.2,0.6,43,0.1,43-0.1c-0.2-0.5-0.4-1.1-0.3-1.5c-0.1-0.7-0.1-1.4,0-2c0.1-0.7,0.3-1.4,0.4-2c0.1-0.2,0.2-0.5,0.4-0.7
						C43.8-6.7,44.3-6.1,44.2-5.6z M41,14.5c0.1-0.5,0.4-0.9,0.5-1.3c0-0.2,0-0.3,0-0.5c0-0.2,0-0.4-0.1-0.6
						c0.1-0.9,0.2-1.7,0.3-2.6c-0.5,0.9-0.9,1.8-0.8,2.8c-0.4-2.8,0.7-5.2,1.2-7.7c0-0.8,0-1.6-0.1-2.4c-0.1-0.6-0.2-1.1-0.4-1.6
						c-0.6,6.9-1.9,13.7-1.8,20.6c0.1-0.6,0.3-1.1,0.4-1.7c0.1-0.6,0.2-1.1,0.3-1.7C40.6,16.7,40.8,15.6,41,14.5z M41.6,15.3
						c0.1,0.9,0.2,1.8,0.3,2.7c0.2,2.4,0.3,5,1.4,6.6c-0.3-1.1-0.5-2.1-0.8-3.2c-0.1-0.5-0.3-1.1-0.4-1.7C42.2,19.1,42,18.5,42,18
						c0.2,2.2,0.2,0.6-0.2-2.3C41.7,15.6,41.6,15.5,41.6,15.3z"/>
					<path fill="#CBE3B1" d="M39.8,2c0.4-1,0.6-2,1-3c-0.4,0.4-0.8,0.7-1.2,1.2c-0.3,0.6-0.5,1.3-0.5,1.9c-0.1,0.7-0.1,1.3-0.2,2
						c-0.9,3.7-0.8,7.5-0.5,11.4c0,0.2,0,0.6,0.2,0.9C38.8,11.5,38.7,6.8,39.8,2z"/>
					<path fill="#CBE3B1" d="M38.4,22.6c0.2,0.7,0.3,1.4,0.3,2.1c0.3-0.6,0.4-1.4,0.4-2.1c-0.1-0.9-0.3-1.9-0.4-2.8
						C38.5,20.6,38.4,21.6,38.4,22.6z"/>
					<path fill="#CBE3B1" d="M38.6,16.4c0,0.2,0,0.4,0,0.6c-0.1,0.9,0,1.8,0.1,2.8c0.2-1,0.4-2,0.6-3C39,16.7,38.8,16.6,38.6,16.4z"
						/>
				</g>
			</g>
			<g>
				<g opacity="0.8">
					<path fill="#CBE3B1" d="M44.2-5.6c0,0.7,0,1.3,0,1.9c0.1,0.6,0.2,1.2,0.4,1.8c0.2,0.9,0.2,1.8,0.1,2.8
						c-0.1,0.9-0.2,1.9-0.1,2.9c0,1,0.2,1.9,0.3,2.9c-0.1,2,0,4.1,0.4,6.3c0,0.2-0.1,0.9,0.6,0.9c-0.1,2.2-0.3,4.3,0.3,6.4
						c0.2,0.9-0.3,1.8-0.2,2.7c0.2,0.7,0.1,1.4,0,2.1c-0.1,0.7-0.3,1.4-0.3,2.1c0.1,0.2,0.5,0.6,0.4,0.8c-0.4,1-0.4,1.9-0.2,2.8
						c0.2,0.9,0.4,1.8,0.5,2.8c0,0.4,0,0.7,0,1c0,0.3-0.1,0.6-0.2,1c0.3,0.1,0.2,0.2,0.3,0.4c0,0.1-0.2,0.4-0.3,0.8
						c-0.2,0.3-0.5,0.8-0.8,1.2c-0.6,0.8-1.2,1.6-1.4,1.7c-0.1,0.1,0.3-1.4,0.7-2.8c0.3-1.4,0.5-2.9,0.3-2.8c-0.1,0.1-0.4,1-0.6,2
						c-0.1,0.2-0.1,0.5-0.2,0.7c-0.1,0.2-0.2,0.5-0.2,0.6c-0.1,0.4-0.3,0.7-0.3,0.8c0-0.4,0.1-0.8,0.1-1.2c0-0.4,0-0.8,0-1.1
						c0-0.7,0-1.3,0-1.9c-0.1-1.1-0.3-2-0.4-2.6c-0.3-1.2-0.4-1.6-0.5-1.3c0,0.2,0.1,1,0.1,2c0,0.5,0.1,1,0.2,1.6l0,0.4
						c0,0.1,0,0.3,0,0.4c0,0.3,0,0.5,0,0.8c-0.2,0.6,0.1,1.6-0.3,2.8c0-0.4-0.1-1-0.3-1.5c-0.2-0.5-0.4-1-0.4-1.2
						c-0.1-0.8-0.2-1.2-0.3-1.6c-0.1-0.4-0.1-0.8,0-1.7c0.1-0.4,0.1-0.8,0.1-1.3c0-0.5-0.1-1-0.2-1.5c-0.2-1-0.5-2-0.6-2.6
						c0.3,0.3,0.7,0.9,1.1,1.5c0.3,0.6,0.6,1.3,0.5,1.8c0.4-1.1,0.1-1.7-0.4-2.3c-0.5-0.6-0.9-1.3-0.9-2.4c0-0.2-0.1-0.5-0.2-0.7
						c0.1-0.3,0.1-0.5,0.2-0.8c0-0.9-0.2-1.8-0.4-2.7c-0.1-0.4-0.2-0.9-0.3-1.3c-0.1-0.4-0.1-0.9-0.2-1.3c0,0.2-0.3,0.3-0.3,0.4
						c-0.2,0.8-0.1,1.5,0.1,2.3c0.2,0.7,0.4,1.5,0.4,2.3c-0.1,0.3,0.5,0.8,0.5,1.1c0,0.3,0,0.7-0.1,1c-0.1,0.3-0.3,0.6-0.4,1
						c-0.1-0.3-0.2-0.7-0.2-1c-0.1-0.3-0.1-0.7-0.2-1c-0.1-0.7-0.1-1.4-0.2-2.1c-0.1-0.3-0.5-0.6-0.7-0.8c0,0.6,0.1,1.3,0.1,1.9
						c0.1,0.6,0.2,1.2,0.4,1.8c0.2,0.6,0.4,1.2,0.5,1.8c0.1,0.6,0.3,1.2,0.3,1.7c0,0.5-0.1,1-0.4,1.4c0,0,0.1,0.1,0.1,0.2
						c0,0-0.1,0.1-0.1,0.1c0,0.3-0.1,0.7-0.4,1c0,0,0-0.1,0-0.1c0-0.1,0-0.2,0.1-0.3c0-0.2,0.1-0.4,0.1-0.4
						c-0.5-1.1-0.5-2.3-0.6-3.6c0-0.6,0-1.2-0.1-1.9c-0.1-0.6-0.1-1.2-0.3-1.8c-0.2-0.5,0.3-1.4,0.1-2c-0.5-1.6-0.6-3.3-0.4-4.9
						c0.5-5.8,0.6-11.7,1.8-17.5c0-0.1-0.1-0.3-0.1-0.4c-0.1,0.1-0.1,0.1-0.2,0.2c0.1-0.1,0.1-0.2,0.2-0.4c-0.1-0.7-0.2-1.5,0.2-2.2
						c0.2-0.3,0.1,0.5,0.4,0.7c0-0.2,0.1-0.3,0.1-0.3s0.2,0,0.3,0.1C41.7-3.8,41.9-3.9,42-4c0.2,1.6,0.5,3.2,0.8,4.8
						C43.2,0.6,43,0.1,43-0.1c-0.2-0.5-0.4-1.1-0.3-1.5c-0.1-0.7-0.1-1.4,0-2c0.1-0.7,0.3-1.4,0.4-2c0.1-0.2,0.2-0.5,0.4-0.7
						C43.8-6.7,44.3-6.1,44.2-5.6z M41,14.5c0.1-0.5,0.4-0.9,0.5-1.3c0-0.2,0-0.3,0-0.5c0-0.2,0-0.4-0.1-0.6
						c0.1-0.9,0.2-1.7,0.3-2.6c-0.5,0.9-0.9,1.8-0.8,2.8c-0.4-2.8,0.7-5.2,1.2-7.7c0-0.8,0-1.6-0.1-2.4c-0.1-0.6-0.2-1.1-0.4-1.6
						c-0.6,6.9-1.9,13.7-1.8,20.6c0.1-0.6,0.3-1.1,0.4-1.7c0.1-0.6,0.2-1.1,0.3-1.7C40.6,16.7,40.8,15.6,41,14.5z M41.6,15.3
						c0.1,0.9,0.2,1.8,0.3,2.7c0.2,2.4,0.3,5,1.4,6.6c-0.3-1.1-0.5-2.1-0.8-3.2c-0.1-0.5-0.3-1.1-0.4-1.7C42.2,19.1,42,18.5,42,18
						c0.2,2.2,0.2,0.6-0.2-2.3C41.7,15.6,41.6,15.5,41.6,15.3z"/>
					<path fill="#CBE3B1" d="M39.8,2c0.4-1,0.6-2,1-3c-0.4,0.4-0.8,0.7-1.2,1.2c-0.3,0.6-0.5,1.3-0.5,1.9c-0.1,0.7-0.1,1.3-0.2,2
						c-0.9,3.7-0.8,7.5-0.5,11.4c0,0.2,0,0.6,0.2,0.9C38.8,11.5,38.7,6.8,39.8,2z"/>
					<path fill="#CBE3B1" d="M38.4,22.6c0.2,0.7,0.3,1.4,0.3,2.1c0.3-0.6,0.4-1.4,0.4-2.1c-0.1-0.9-0.3-1.9-0.4-2.8
						C38.5,20.6,38.4,21.6,38.4,22.6z"/>
					<path fill="#CBE3B1" d="M38.6,16.4c0,0.2,0,0.4,0,0.6c-0.1,0.9,0,1.8,0.1,2.8c0.2-1,0.4-2,0.6-3C39,16.7,38.8,16.6,38.6,16.4z"
						/>
				</g>
			</g>
			<g>
				<g opacity="0.8">
					<path fill="#E34673" d="M50.2-7c-0.4,1.6-0.5,2.9-0.5,4.3c-0.1,2.1-1,4.3-1.4,6.6c-0.3,1.2-0.3,2.2-0.4,3.3
						c-0.6,2.3-1,4.8-1.1,7.3c-0.1,0.3-0.3,1.1,0.4,0.8c-0.1,0.6-0.2,1.2-0.3,1.9c-0.1,0.6-0.2,1.2-0.2,1.8
						c-0.1,1.2-0.1,2.3,0.1,3.4c0,0.5-0.1,1-0.1,1.5c-0.1,0.5-0.2,1-0.1,1.5c0.4,1.4-0.2,3.2,0.1,4.6c0.1,0.2,0.5,0.5,0.5,0.7
						c-0.3,2.2,1,3.7,1.7,5.4c0.1,0.4,0.3,0.6,0.4,0.9c0.1,0.3,0.2,0.6,0.3,0.9c0.3,0,0.3,0.1,0.4,0.3c0.2,0.5,0.2,3.6-0.1,4
						c-0.1,0.2-1.9-5.5-2.2-5.3c-0.1,0.2,1.1,3.8,1.1,4.1c-0.9-1.5-1.6-2.8-2.1-3.8c-0.5-1.1-0.9-1.8-1.1-2.4
						c-0.6-1.2-0.8-1.5-0.8-1.2c0,0.2,0.3,1,0.7,1.9c0.2,0.5,0.4,1,0.6,1.5c0.2,0.5,0.5,1,0.8,1.5c0.1,0.7,0.8,1.4,1.2,2.7
						c-0.4-0.7-1.9-1.8-2-2.1c-0.4-0.7-0.8-1-1-1.3c-0.2-0.3-0.4-0.7-0.5-1.7c-0.2-1.6-1.6-4.1-1.9-5.4c0.3,0.3,0.7,0.8,1.1,1.3
						c0.4,0.5,0.8,1.1,0.8,1.7c0.1-1.2-0.4-1.8-0.8-2.3c-0.4-0.5-1-1.1-1-2.3c0-0.2-0.1-0.5-0.2-0.7c0-0.3,0.1-0.6,0.1-0.9
						c0-0.5-0.1-1-0.2-1.5c-0.1-0.5-0.1-0.9-0.2-1.4c-0.1-0.9-0.2-1.9-0.2-2.9c0,0.2-0.3,0.4-0.3,0.6c-0.3,1-0.2,1.8-0.1,2.6
						c0.1,0.8,0.2,1.6,0.3,2.5c-0.1,0.4,0.5,0.7,0.5,1.1c0.1,0.7-0.1,1.5-0.2,2.3c-0.5-1.3-0.6-2.9-0.8-4.4
						c-0.1-0.3-0.4-0.6-0.6-0.8c0,0.7,0,1.4,0.1,2.1c0.2,1.2,0.7,2.5,1.1,3.7c0.2,0.6,0.3,1.2,0.5,1.8c0.1,0.6,0.1,1.1,0,1.6
						c0,0,0.1,0.1,0.1,0.2c0,0,0,0.1-0.1,0.1c0.1,0.3,0.1,0.7,0,1.2l-0.1-0.9c-0.4-0.5-0.6-1.1-0.8-1.7c-0.1-0.1-0.1-0.3-0.1-0.5
						c0-0.2-0.1-0.3-0.1-0.5c-0.1-0.3-0.1-0.7-0.1-1c-0.2-1.3-0.3-2.7-0.6-4c-0.2-0.5,0.3-1.7,0.1-2.3c-0.4-1.7-0.3-3.6,0.1-5.5
						c1.2-6.9,3-13.9,5.5-21c0-0.1,0-0.3,0-0.4c-0.1,0.1-0.1,0.2-0.2,0.3c0.1-0.2,0.2-0.3,0.2-0.5c0.1-0.8,0.3-1.7,0.7-2.6
						c0.3-0.4-0.1,0.6,0.2,0.8c0.1-0.2,0.1-0.4,0.1-0.4s0.1,0,0.3,0c0-0.1,0.1-0.3,0.2-0.4c-0.2,1.8-0.4,3.6-0.5,5.5
						c0.4-0.3,0.4-0.8,0.5-1.1c0-0.6-0.1-1.2,0.1-1.8c0.1-1.5,0.9-3.3,1.3-4.9c0.1-0.3,0.3-0.6,0.5-0.9C50-8.2,50.4-7.6,50.2-7z
						 M42.8,17.3c0.2-0.6,0.4-1.1,0.7-1.7c0-0.2,0.1-0.4,0.1-0.6c0.1-0.2,0-0.5,0-0.7c0.1-0.5,0.3-1,0.4-1.5c0.1-0.5,0.3-1,0.4-1.5
						c-0.3,0.6-0.6,1.1-0.8,1.7c-0.2,0.6-0.4,1.2-0.5,1.8c0-0.8,0.1-1.5,0.3-2.3c0.2-0.8,0.4-1.6,0.7-2.3c0.6-1.6,1.2-3.1,1.7-4.7
						c0.2-0.9,0.4-1.8,0.5-2.8c0.1-0.6,0.1-1.3,0.1-1.9c-0.3,1-0.6,2.1-0.9,3.1c-0.3,1-0.6,2.1-0.9,3.1c-0.6,2.1-1.2,4.1-1.8,6.2
						c-0.5,2-1,4.1-1.3,6.1c-0.3,2-0.5,4-0.6,6c0.3-1.4,0.6-2.7,0.8-4c0.1-0.7,0.2-1.3,0.4-2C42.4,18.7,42.6,18,42.8,17.3z
						 M43.1,18.1c0,0.5-0.1,1-0.1,1.5c0,0.5,0,1,0,1.5c0,1.3,0,2.7,0.1,4c0,0.3,0.1,0.6,0.1,0.9c0.1,0.3,0.1,0.5,0.2,0.8
						c0.2,0.5,0.4,0.9,0.7,1.3c-0.6-2.1-0.9-4.5-1.1-6.9c0,1.2,0,1.4,0,0.8c0-0.3,0-0.7,0-1.3c0-0.6,0-1.3,0-2.1
						C43.1,18.5,43.1,18.3,43.1,18.1z"/>
					<path fill="#E34673" d="M44.6,3c0.6-1.3,1.1-2.5,1.6-3.8c-0.5,0.6-0.9,1.1-1.3,1.7c-0.9,1.6-1.1,3.2-1.7,4.7
						c-0.4,1.1-0.8,2.3-1.1,3.4c-0.3,1.1-0.6,2.3-0.9,3.4c-0.3,1.1-0.4,2.2-0.6,3.3c-0.1,1.1-0.3,2.2-0.3,3.3c-0.1,0.2-0.1,0.7,0,1
						C41.3,14.3,42.3,8.9,44.6,3z"/>
					<path fill="#E34673" d="M39.8,27.2c0.2,0.7,0.4,1.5,0.4,2.2c0.2-0.8,0.2-1.7,0.2-2.5c-0.1-1-0.2-2.1-0.2-3.1
						C40,25,39.8,26.1,39.8,27.2z"/>
					<path fill="#E34673" d="M40.4,20.1c0,0.2-0.1,0.5-0.1,0.7c-0.1,1.1-0.2,2.1-0.1,3.1c0.2-1.2,0.5-2.4,0.8-3.6
						C40.7,20.4,40.5,20.3,40.4,20.1z"/>
				</g>
			</g>
			<g>
				<g opacity="0.8">
					<path fill="#FFF274" d="M89.5,7.5c-0.4,0.4-0.6,0.7-0.7,1.1c-0.3,0.6-1.1,1-1.6,1.6c-0.3,0.3-0.5,0.6-0.6,0.9
						c-0.7,0.5-1.2,1.2-1.6,1.9c-0.1,0.1-0.3,0.3,0.1,0.4c-0.7,0.6-1.4,1.2-1.6,1.9c-0.1,0.3-0.7,0.5-0.8,0.8
						c-0.1,0.5-0.9,0.8-1.1,1.3c0,0.1,0.2,0.3,0.1,0.3c-0.9,0.4-0.6,1.2-0.8,2c-0.1,0.3-0.2,0.5-0.4,0.7c0.2,0.1,0.1,0.1,0.1,0.2
						c-0.1,0.2-1.4,0.8-1.7,0.8c-0.1,0,1.3-1.8,1-1.9c-0.2,0-1,1.1-1.1,1.2c0.2-0.6,0.3-1.1,0.4-1.6c0.1-0.4,0.1-0.7,0.1-1
						c0-0.5,0-0.6-0.1-0.5c-0.1,0.1-0.1,0.3-0.2,0.7c0,0.2-0.1,0.4-0.1,0.6c0,0.2-0.1,0.4-0.1,0.6c-0.2,0.2-0.1,0.6-0.4,1
						c0-0.3-0.3-1.1-0.2-1.2c0.1-0.6-0.2-0.6,0.2-1.2c0.2-0.2,0.3-0.6,0.3-0.9c0-0.2,0.1-0.4,0.1-0.5c0-0.2,0-0.3,0.1-0.4
						c0.2,0.3,0.7,1.1,0.3,1.4c0.4-0.2,0.4-0.5,0.2-0.8c-0.2-0.3-0.3-0.6-0.1-0.9c0-0.1,0-0.2,0-0.3c0.1-0.1,0.2-0.1,0.3-0.2
						c0.4-0.5,0.3-1.2,0.8-1.7c0,0.1-0.3,0-0.3,0.1C79.7,14,80,14.6,79.5,15c-0.1,0.1,0.1,0.3,0.1,0.4c-0.1,0.2-0.5,0.3-0.7,0.5
						c0-0.5,0.3-0.9,0.5-1.3c0-0.1-0.1-0.3-0.2-0.4c-0.1,0.2-0.3,0.4-0.4,0.6c-0.2,0.3-0.1,0.8-0.2,1.3c0,0.4-0.2,0.8-0.7,0.9
						c0,0,0,0,0,0.1c0,0-0.1,0-0.1,0c-0.1,0.1-0.2,0.2-0.4,0.2l0.2-0.2c-0.1-0.5,0.1-0.8,0.3-1.2c0.2-0.4,0.5-0.7,0.6-1.1
						c0-0.2,0.6-0.3,0.5-0.5c0-0.6,0.4-1,1-1.4c1.9-1.5,3.9-3.2,6.2-4.6c0,0,0-0.1,0.1-0.1c-0.1,0-0.1,0-0.2,0
						c0.1,0,0.1-0.1,0.2-0.1c0.1-0.2,0.3-0.4,0.7-0.6c0.2,0-0.1,0.2,0.1,0.3c0.1,0,0.1-0.1,0.1-0.1s0.1,0,0.2,0.1c0-0.1,0.1,0,0.2,0
						c-0.3,0.5-0.5,1-0.8,1.5c0.3,0,0.3-0.1,0.4-0.2c0-0.2,0.1-0.4,0.2-0.5c0.2-0.4,0.9-0.7,1.3-1.1c0.1,0,0.3-0.1,0.4-0.1
						C89.5,7.1,89.7,7.4,89.5,7.5z M81.8,12.6c0.2-0.1,0.5-0.2,0.7-0.3c0,0,0.1-0.1,0.1-0.1c0.1-0.1,0.1-0.1,0.1-0.2
						c0.3-0.2,0.6-0.4,1-0.7c-0.6,0.2-1.1,0.3-1.4,0.6c0.6-0.8,2-1.3,3-2c0.2-0.2,0.4-0.4,0.6-0.7c0.1-0.2,0.2-0.4,0.2-0.5
						c-1.2,0.9-2.5,1.8-3.8,2.7c-0.6,0.4-1.2,0.9-1.8,1.4c-0.6,0.5-1,0.9-1.4,1.4C80.2,13.7,80.9,13.2,81.8,12.6z M82,12.9
						c-0.2,0.3-0.4,0.5-0.5,0.8c-0.3,0.4-0.5,0.7-0.7,1.1c-0.2,0.4-0.2,0.7-0.1,1.1c0.1-0.4,0.2-0.7,0.3-1.1
						c0.1-0.4,0.2-0.7,0.4-1.1c-0.5,0.6-0.1,0.2,0.5-0.7C81.9,13,81.9,13,82,12.9z"/>
					<path fill="#FFF274" d="M84.7,8.9c0.5-0.2,1-0.5,1.5-0.7c-0.4,0-0.7,0.1-1.1,0.1c-0.8,0.2-1,0.7-1.6,1
						c-0.8,0.4-1.5,0.9-2.1,1.5c-0.6,0.5-1.1,1.1-1.5,1.6c-0.1,0-0.2,0.2-0.2,0.3c0.7-0.7,1.4-1.3,2.2-2C82.8,10,83.7,9.4,84.7,8.9z
						"/>
					<path fill="#FFF274" d="M78.1,14.3C78,14.6,78,14.8,77.8,15c0.3-0.1,0.5-0.3,0.7-0.5c0.2-0.3,0.3-0.6,0.4-0.9
						C78.6,13.8,78.3,14.1,78.1,14.3z"/>
					<path fill="#FFF274" d="M79.8,12.7c-0.1,0.1-0.1,0.1-0.2,0.2c-0.3,0.2-0.5,0.5-0.6,0.8c0.4-0.2,0.8-0.5,1.2-0.7
						C79.9,12.8,79.8,12.7,79.8,12.7z"/>
				</g>
			</g>
			<g>
				<g opacity="0.8">
					<path fill="#F99D41" d="M47.2,54c-0.1-0.4-0.3-0.7-0.5-1c-0.4-0.4,0-1.2-0.1-1.8c0-0.3-0.1-0.5-0.2-0.8c0.1-0.7,0.2-1.2,0-1.8
						c0-0.1,0.1-0.3-0.4-0.1c0.1-0.3,0.2-0.6,0.2-0.9c0-0.3,0-0.6-0.2-0.8c-0.1-0.2,0.3-0.5,0.2-0.7c-0.3-0.4,0.3-0.7,0.1-1.1
						c-0.1,0-0.4-0.2-0.4-0.2c0.5-0.5-0.4-1-0.9-1.5c-0.1-0.2-0.3-0.4-0.2-0.6c-0.3-0.1-0.2-0.1-0.3-0.2c0-0.2,0.7-0.8,1-0.7
						c0.2,0,0.3,1.5,0.6,1.6c0.2,0,0-0.9,0.1-1c0.4,0.5,0.7,0.9,1,1.2c0.3,0.3,0.5,0.5,0.7,0.7c0.4,0.3,0.5,0.4,0.5,0.3
						c0,0-0.1-0.2-0.3-0.4c-0.2-0.2-0.5-0.5-0.8-0.8c0.1-0.1-0.4-0.4-0.4-0.7c0.2,0.2,1.2,0.8,1.2,0.9c0.4,0.4,0.8,0.4,0.8,0.8
						c0,0.3,0.8,0.8,1.1,1.1c-0.5-0.1-1.6-0.5-1.5-0.7c-0.3,0.2,0.1,0.4,0.5,0.5c0.4,0.1,0.8,0.2,0.8,0.5c0,0,0.1,0.1,0.2,0.1
						c-0.1,0.1-0.1,0.1-0.2,0.2c0,0.4,0.6,0.6,0.5,0.9c0,0,0.3-0.1,0.3-0.1c0.4-0.3-0.3-0.5-0.2-0.8c0.1-0.1-0.4-0.1-0.4-0.2
						c0-0.1,0.2-0.2,0.4-0.3c0.4,0.2,0.4,0.5,0.5,0.7c0.1,0,0.4,0.1,0.5,0.1c0-0.1,0-0.2,0-0.3c-0.1-0.2-0.5-0.4-0.8-0.6
						c-0.3-0.2-0.5-0.4-0.1-0.5c0,0,0,0-0.1,0c0,0,0,0,0.1,0c0-0.1,0-0.1,0.2-0.1l0,0.1c0.5,0.2,0.6,0.4,0.7,0.6
						c0.1,0.2,0.1,0.4,0.3,0.5c0.2,0.1-0.3,0.2-0.1,0.3c0.4,0.2,0.3,0.5,0,0.8c-0.8,1.2-1.4,2.7-2.1,4.7c0,0,0.1,0.1,0.1,0.1
						c0,0,0.1-0.1,0.1-0.1c0,0.1-0.1,0.1-0.1,0.2c0.1,0.1,0.1,0.3,0,0.7c-0.1,0.2-0.1-0.1-0.3,0c0,0.1,0,0.1,0,0.1s-0.1,0.1-0.2,0.1
						c0.1,0,0,0.1-0.1,0.2c-0.2-0.4-0.5-0.7-0.7-1.1c-0.3,0.2-0.2,0.3-0.2,0.4c0.1,0.1,0.3,0.2,0.3,0.3c0.3,0.3,0,0.9,0,1.3
						c0,0.1-0.1,0.2-0.2,0.4C47.6,54.1,47.2,54.2,47.2,54z M49.6,47.4c-0.1,0.1-0.3,0.3-0.5,0.4c0,0,0,0.1,0,0.1
						c0,0.1,0,0.1,0.1,0.1c-0.1,0.2-0.3,0.5-0.4,0.7c0.4-0.3,0.7-0.6,0.8-0.9c0,0.3-0.2,0.6-0.4,1c-0.3,0.4-0.6,0.9-0.8,1.3
						c0,0.2,0,0.4,0,0.6c0,0.1,0.2,0.2,0.3,0.3c0.1-0.5,0.3-1.1,0.5-1.6c0.2-0.5,0.5-1,0.7-1.5c0.3-0.4,0.5-0.9,0.7-1.2
						c0.2-0.4,0.4-0.7,0.4-1C50.4,46.4,50.1,46.8,49.6,47.4z M49.2,47.3c0-0.2,0-0.4-0.1-0.5c0-0.5-0.1-1-1-1.3
						c0.4,0.4,0.8,0.8,1,1.3C49.1,46.3,49,46.7,49.2,47.3C49.2,47.3,49.2,47.3,49.2,47.3z"/>
					<path fill="#F99D41" d="M49.8,50.2c-0.3,0.4-0.5,0.8-0.7,1.2c0.3-0.3,0.5-0.5,0.8-0.7c0.5-0.6,0.4-0.8,0.6-1.2
						c0.8-1.2,1.1-1.9,1.1-2.6c0,0,0.1-0.1-0.1-0.1c-0.2,0.4-0.5,0.9-0.7,1.5c-0.1,0.3-0.3,0.6-0.5,0.9C50.2,49.4,50,49.8,49.8,50.2
						z"/>
					<path fill="#F99D41" d="M52,45.7c-0.1-0.1-0.2-0.2-0.2-0.3c-0.3,0.1-0.3,0.2-0.3,0.3c0.1,0.1,0.2,0.3,0.2,0.4
						C51.9,45.9,52.1,45.8,52,45.7z"/>
					<path fill="#F99D41" d="M51.6,46.7c0,0,0-0.1,0.1-0.1c0.1-0.2,0.1-0.3,0.1-0.4c-0.2,0.2-0.5,0.4-0.7,0.6
						C51.3,46.6,51.5,46.6,51.6,46.7z"/>
				</g>
			</g>
			<g>
				<g opacity="0.8">
					<path fill="#52A6DC" d="M77.3,5.9c-0.1,0.3-0.1,0.5,0.1,0.5c0.1,0.2-0.4,1-0.5,1.4c-0.1,0.3-0.1,0.4-0.1,0.6
						c-0.3,0.6-0.4,1.2-0.3,1.6c0,0.1-0.1,0.4,0.3-0.2c-0.2,0.7-0.4,1.4-0.1,1.5c0.1,0.1-0.3,0.7-0.2,0.8c0.3,0.1-0.2,0.9,0,1.1
						c0.1,0,0.4-0.2,0.4-0.1c-0.2,0.5-0.1,0.6,0.2,0.6c0.2,0,0.6,0.2,0.8,0.4c0.1,0.2,0.3,0.3,0.3,0.6c0.2-0.1,0.2,0,0.3,0
						c0,0.2-0.5,1.3-0.8,1.4c-0.1,0-0.2-0.3-0.3-0.7c0-0.1-0.1-0.2-0.1-0.2c0-0.1-0.1-0.2-0.1-0.2c-0.1-0.1-0.2-0.2-0.2-0.1
						c-0.1,0.1,0,0.3,0,0.6c0,0.2,0.1,0.5,0.1,0.5c-0.2-0.1-0.4-0.3-0.5-0.4c-0.2-0.1-0.3-0.2-0.5-0.2c-0.3-0.1-0.5-0.1-0.7-0.1
						c-0.3,0-0.5,0.1-0.5,0.1c0,0.1,0.5,0.1,1.1,0.3c0,0.2,0.4,0.2,0.5,0.4c-0.2-0.1-1.1,0-1.2,0c-0.4,0-0.8,0.2-0.8,0
						c0-0.1-0.2-0.1-0.4,0c-0.2,0-0.4,0.2-0.5,0.2c0.4-0.3,1.3-0.9,1.3-0.7c0.2-0.4-0.1-0.2-0.4,0c-0.3,0.2-0.7,0.5-0.7,0.3
						c0,0-0.1,0-0.2,0c0-0.1,0.1-0.2,0.1-0.3c0-0.3-0.5-0.1-0.4-0.6c0,0-0.2,0.3-0.2,0.4c-0.4,0.7,0.2,0.3,0.2,0.7
						c-0.1,0.1,0.3-0.2,0.3-0.2c0.1,0.1-0.2,0.4-0.3,0.6c-0.4,0.2-0.3-0.1-0.4-0.2c0,0-0.3,0.2-0.4,0.3c0,0.1,0,0.2,0,0.3
						c0.1,0.1,0.4-0.1,0.7-0.2c0.2-0.1,0.4-0.1,0.1,0.3c0,0,0,0,0.1-0.1c0,0,0,0-0.1,0.1c0,0,0,0.1-0.2,0.2l0-0.1
						c-0.4,0.3-0.5,0.3-0.6,0.3c-0.1-0.1-0.1-0.3-0.3-0.2c-0.1,0.1,0.3-0.5,0.1-0.4c-0.3,0-0.3-0.3,0-0.9c0.6-2,1.4-4.2,2.6-6.6
						c0,0,0,0,0,0c-0.1,0.1-0.1,0.1-0.1,0.2c0-0.1,0.1-0.1,0.1-0.2c0-0.1,0-0.3,0.3-0.7c0.2-0.2,0,0.1,0.2-0.1
						c0-0.1,0.1-0.1,0.1-0.1s0.1-0.1,0.2-0.2c-0.1,0,0.1-0.1,0.2-0.2c0.1,0.2,0.2,0.4,0.2,0.7C76.2,8,76.1,8,76.2,8
						c-0.1,0-0.2,0-0.1-0.2c-0.1-0.1,0.4-0.8,0.5-1.2c0.1-0.1,0.2-0.2,0.3-0.4C77,6,77.4,5.8,77.3,5.9z M73.6,13.7
						c0.1-0.2,0.3-0.5,0.4-0.8c0,0,0-0.1,0-0.2c0-0.1,0-0.1,0-0.1c0.1-0.3,0.3-0.7,0.4-1c-0.4,0.6-0.7,1.2-0.8,1.5
						c-0.1-0.5,0.9-2.1,1.5-3.2c0.1-0.2,0.1-0.4,0.1-0.6c0-0.1-0.1-0.1-0.1-0.2c-0.5,1.1-1.1,2.6-1.7,4c-0.3,0.7-0.5,1.3-0.7,1.9
						c-0.2,0.6-0.3,1-0.3,1.4C72.9,15.4,73.2,14.7,73.6,13.7z M73.9,13.5c0,0.2,0,0.4,0.1,0.5c0,0.2,0,0.5,0.1,0.6
						c0.1,0.1,0.3,0.1,0.7-0.2c-0.3,0-0.7-0.1-0.8-0.4C74,14.4,74.1,14.1,73.9,13.5C74,13.6,73.9,13.6,73.9,13.5z"/>
					<path fill="#52A6DC" d="M73.9,10.7c0.3-0.5,0.6-1,0.9-1.6c-0.3,0.4-0.6,0.8-0.9,1.1c-0.5,0.8-0.5,1.1-0.8,1.7
						c-0.4,0.9-0.7,1.7-0.9,2.3c-0.2,0.6-0.3,1.2-0.3,1.6c0,0.1-0.1,0.2,0,0.1c0.2-0.8,0.4-1.5,0.7-2.4
						C72.9,12.8,73.3,11.9,73.9,10.7z"/>
					<path fill="#52A6DC" d="M71.6,17.6c0.1,0,0.2,0,0.2,0c0.2-0.3,0.3-0.5,0.3-0.6c-0.1,0-0.1-0.2-0.2-0.3
						C71.7,17.2,71.6,17.5,71.6,17.6z"/>
					<path fill="#52A6DC" d="M72,16c0,0.1,0,0.1-0.1,0.2c-0.1,0.3-0.1,0.5,0,0.6c0.2-0.4,0.4-0.8,0.5-1.2C72.2,15.9,72,16,72,16z"/>
				</g>
			</g>
			<g>
				<g>
					<path fill="#94C93D" d="M68.3,57.6c-0.1,0,0,0,0.2,0.2c0.1,0.1,0.3,0.2,0.4,0.3c0.1,0,0.2,0.1,0.3,0.1
						C68.9,58,68.6,57.8,68.3,57.6z"/>
					<path fill="#94C93D" d="M90.7,75.2c-0.1-0.3-0.3-0.5-0.5-0.8c-1.2-0.8-2.2-2.2-3.7-2.7c-0.4-0.4-1-0.5-1.6-0.6
						c-0.2-0.2-0.7-0.3-0.7-0.8c1.6,0.7,3.3,1.3,4.9,2c0-0.2,0-0.4-0.2-0.4c0.1-0.2,0.2-0.3,0.2-0.3s-0.1-0.1-0.3-0.2
						c0.4-0.2,1.1,0.4,0.9,0c-0.5-0.7-1.2-1.1-2-1.4l-0.3-0.4c0,0.1,0,0.2,0.1,0.3c-0.1,0-0.3-0.1-0.4-0.1c-0.1-0.1-0.2-0.2-0.3-0.3
						c-0.1-0.7-0.2-1.3-0.5-1.9c-0.8-1.4-2.2-2-3.2-3.1c-2.9-3.2-6.3-5.7-9.9-8c-0.2-0.2-0.5-0.4-0.9-0.5c4.2,3.5,8.4,6.5,12.2,10.6
						c0.7,0.9,1.5,1.8,2.2,2.8c-4.7-4.5-9.7-8.4-14.5-12.7c-0.2-0.1-0.3-0.3-0.5-0.4c0.2-0.2,0.3-0.2,0.5-0.2
						c-0.2-0.1-0.3-0.3-0.5-0.4c-0.8-0.7-1.6-1.3-2.5-1.8c0.3,0.4,0.6,0.7,0.9,1.1c0,0-0.1-0.1-0.1-0.1c-0.4-0.3-0.8-0.5-1.2-0.7
						c-0.4-0.2-0.8-0.4-1.2-0.5c-0.6-0.2-1.1-1.3-1.7-1.5c-0.6-0.3-1.2-0.7-1.7-1.1l-0.8-0.6c-0.3-0.2-0.5-0.4-0.8-0.7
						c-0.5-0.4-1.1-0.8-1.6-1.2c-0.5-0.4-1.1-0.7-1.7-0.9l-0.6-0.8c0.1,0.5,0.4,0.9,0.7,1.1c0,0,0,0.1,0,0.2c0.1,0,0.2,0,0.2,0
						c0.2,0.6,0.5,1.1,1,1.5c0.5,0.4,1,0.7,1.6,1c0.3,0.1,0.6,0.3,0.9,0.4c0.3,0.1,0.6,0.2,1,0.4c0.6,0.2,1.2,0.5,1.8,0.9
						c0.6,0.4,1.2,0.8,1.7,1.2c-0.3,0.1-0.8,0.2-1.1,0.1c-0.3-0.2-0.7-0.4-1-0.6c-0.3-0.2-0.6-0.5-1-0.7c-0.6-0.4-1.3-0.8-2-1
						c0.4,0.7,0.8,1.4,1.4,1.9c0.3,0.2,1,0,1.2,0.3c1.4,1.2,3.1,1.3,4.3,2.8c0.1,0.1,0,0.6,0.2,0.6c-1.6-1.2-3.4-1.7-5.1-2.9
						c-0.2-0.3-0.4-0.5-0.6-0.8c-0.3-0.1-0.6-0.2-0.7-0.3c-0.5-0.4-0.9-0.6-1.3-0.7c-0.4-0.1-0.8-0.1-1.2-0.1
						c-0.8,0-1.6-0.1-2.2-1.3c0.7,1,2.8,0.9,3.7,0.8c-0.3-0.2-0.7-0.4-1.2-0.6c-0.4-0.2-1-0.4-1.4-0.7c-0.5-0.3-1-0.6-1.4-0.9
						c-0.4-0.3-0.8-0.6-1.1-1c-0.7-0.9-1-1.2-1.4-1.4c-0.2-0.1-0.4-0.2-0.6-0.3c-0.2-0.1-0.5-0.3-0.8-0.6c-0.3-0.3-2-0.8-2.6-1.5
						c0.2,0.4,0.4,0.7,0.6,1c0.2,0.3,0.4,0.4,0.6,0.6c0.4,0.4,0.7,0.7,0.9,1c0.2,0.2,0.5,0.4,0.7,0.6c0.2,0.2,0.5,0.4,0.7,0.6
						c0.5,0.4,1,0.8,1.4,1.1c0.9,0.7,1.6,1.1,1.8,1.3c0.2,0.2-0.2,0.1-1.4-0.5c-0.3-0.1-0.6-0.4-1-0.7c-0.4-0.3-0.8-0.6-1.3-1
						c-0.1-0.1-0.3-0.2-0.4-0.3c-0.1-0.1-0.3-0.2-0.4-0.4c-0.3-0.3-0.5-0.5-0.8-0.8c-0.3-0.3-0.6-0.6-0.9-0.9
						c-0.3-0.3-0.6-0.8-0.9-1.2c0,0.6,2.6,4.3,2.6,4.6c-0.1,0.3-1.1-1.1-2.2-2.6c-0.9-1.6-1.8-3.3-1.8-3.1c-0.1,0.4,0.2,1.6,0.5,2.9
						c0.3,1.3,0.8,2.4,1,2.7c0.2,0.1,0.3,0.3,0.5,0.1c0.2,0.4,0.5,0.7,0.7,1c0.2,0.3,0.5,0.5,0.8,0.8c0.8,0.6,1.7,1.2,2.6,1.6
						c0.4,0.3,0.9,0.6,1.2,0.9c0.2,0.2,0.4,0.4,0.5,0.6c0.2,0.2,0.3,0.5,0.5,0.7c0.1,0.2,0.7,0.1,0.9,0.1c1.2,1,2.1,2.7,3.5,3.4
						c0.9,0.5,1.4,1.7,2.2,2.1c1.1,0.4,2.1,1,3,1.8c0.9,0.7,1.9,1.5,2.8,2.3c0.3-0.8,0.9-0.2,1.1-0.1c2.2,1.1,4.2,2.4,5.9,3.8
						c1,0.5,1.9,0.9,2.8,1.5c1.9,1.1,3.3,2.7,5.3,3.4c1.3,0.4,2.5,0.9,3.8,1.7C90,75.8,90.9,75.5,90.7,75.2z M71.4,59.6
						c-1.1-0.6-1.9-1.1-2.4-1.5c-0.5-0.2-0.9-0.5-1.4-0.7c-0.5-0.3-1.1-0.5-1.6-0.8c-0.6-0.3-1.1-0.5-1.6-0.8
						c-0.5-0.3-1.1-0.5-1.6-0.8c1,0,2,0.5,3.2,1.1c0.6,0.3,1.1,0.7,1.7,1.1c0.3,0.2,0.5,0.3,0.8,0.5c0.1,0,0.4,0.2,0.9,0.6
						c0.8,0.5,1.7,1,2.5,1.5C71.6,59.6,71.4,59.5,71.4,59.6z M81.1,67.3c-2.1-2.2-3.7-4.8-6.3-6.3c1,0.7,1.6,1.7,2.1,2.7
						c-0.7-0.7-1.4-1.3-2.1-2c-0.2,0-0.5-0.1-0.6-0.3c-0.1-0.1-0.3-0.2-0.4-0.3c-0.3-0.5-0.6-1-0.9-1.5c-0.9-1-1.8-1.9-2.7-2.9
						c-0.9-1-1.8-1.9-2.6-3c3.1,2.4,5.9,5.1,8.8,7.7c2.9,2.7,5.7,5.4,8.8,7.7c-0.6-0.2-1.2-0.3-1.8-0.6
						C82.6,68.2,81.8,67.8,81.1,67.3z"/>
					<path fill="#94C93D" d="M65.2,50.3c0.3,0.8,1,1.4,1.6,1.9c0.9,0.5,1.8,1.1,2.7,1.6c-0.7-0.8-1.4-1.7-2.3-2.3
						C66.4,51.2,65.8,50.8,65.2,50.3z"/>
				</g>
				<g>
					<path fill="#94C93D" d="M68.3,57.6c-0.1,0,0,0,0.2,0.2c0.1,0.1,0.3,0.2,0.4,0.3c0.1,0,0.2,0.1,0.3,0.1
						C68.9,58,68.6,57.8,68.3,57.6z"/>
					<path fill="#94C93D" d="M90.7,75.2c-0.1-0.3-0.3-0.5-0.5-0.8c-1.2-0.8-2.2-2.2-3.7-2.7c-0.4-0.4-1-0.5-1.6-0.6
						c-0.2-0.2-0.7-0.3-0.7-0.8c1.6,0.7,3.3,1.3,4.9,2c0-0.2,0-0.4-0.2-0.4c0.1-0.2,0.2-0.3,0.2-0.3s-0.1-0.1-0.3-0.2
						c0.4-0.2,1.1,0.4,0.9,0c-0.5-0.7-1.2-1.1-2-1.4l-0.3-0.4c0,0.1,0,0.2,0.1,0.3c-0.1,0-0.3-0.1-0.4-0.1c-0.1-0.1-0.2-0.2-0.3-0.3
						c-0.1-0.7-0.2-1.3-0.5-1.9c-0.8-1.4-2.2-2-3.2-3.1c-2.9-3.2-6.3-5.7-9.9-8c-0.2-0.2-0.5-0.4-0.9-0.5c4.2,3.5,8.4,6.5,12.2,10.6
						c0.7,0.9,1.5,1.8,2.2,2.8c-4.7-4.5-9.7-8.4-14.5-12.7c-0.2-0.1-0.3-0.3-0.5-0.4c0.2-0.2,0.3-0.2,0.5-0.2
						c-0.2-0.1-0.3-0.3-0.5-0.4c-0.8-0.7-1.6-1.3-2.5-1.8c0.3,0.4,0.6,0.7,0.9,1.1c0,0-0.1-0.1-0.1-0.1c-0.4-0.3-0.8-0.5-1.2-0.7
						c-0.4-0.2-0.8-0.4-1.2-0.5c-0.6-0.2-1.1-1.3-1.7-1.5c-0.6-0.3-1.2-0.7-1.7-1.1l-0.8-0.6c-0.3-0.2-0.5-0.4-0.8-0.7
						c-0.5-0.4-1.1-0.8-1.6-1.2c-0.5-0.4-1.1-0.7-1.7-0.9l-0.6-0.8c0.1,0.5,0.4,0.9,0.7,1.1c0,0,0,0.1,0,0.2c0.1,0,0.2,0,0.2,0
						c0.2,0.6,0.5,1.1,1,1.5c0.5,0.4,1,0.7,1.6,1c0.3,0.1,0.6,0.3,0.9,0.4c0.3,0.1,0.6,0.2,1,0.4c0.6,0.2,1.2,0.5,1.8,0.9
						c0.6,0.4,1.2,0.8,1.7,1.2c-0.3,0.1-0.8,0.2-1.1,0.1c-0.3-0.2-0.7-0.4-1-0.6c-0.3-0.2-0.6-0.5-1-0.7c-0.6-0.4-1.3-0.8-2-1
						c0.4,0.7,0.8,1.4,1.4,1.9c0.3,0.2,1,0,1.2,0.3c1.4,1.2,3.1,1.3,4.3,2.8c0.1,0.1,0,0.6,0.2,0.6c-1.6-1.2-3.4-1.7-5.1-2.9
						c-0.2-0.3-0.4-0.5-0.6-0.8c-0.3-0.1-0.6-0.2-0.7-0.3c-0.5-0.4-0.9-0.6-1.3-0.7c-0.4-0.1-0.8-0.1-1.2-0.1
						c-0.8,0-1.6-0.1-2.2-1.3c0.7,1,2.8,0.9,3.7,0.8c-0.3-0.2-0.7-0.4-1.2-0.6c-0.4-0.2-1-0.4-1.4-0.7c-0.5-0.3-1-0.6-1.4-0.9
						c-0.4-0.3-0.8-0.6-1.1-1c-0.7-0.9-1-1.2-1.4-1.4c-0.2-0.1-0.4-0.2-0.6-0.3c-0.2-0.1-0.5-0.3-0.8-0.6c-0.3-0.3-2-0.8-2.6-1.5
						c0.2,0.4,0.4,0.7,0.6,1c0.2,0.3,0.4,0.4,0.6,0.6c0.4,0.4,0.7,0.7,0.9,1c0.2,0.2,0.5,0.4,0.7,0.6c0.2,0.2,0.5,0.4,0.7,0.6
						c0.5,0.4,1,0.8,1.4,1.1c0.9,0.7,1.6,1.1,1.8,1.3c0.2,0.2-0.2,0.1-1.4-0.5c-0.3-0.1-0.6-0.4-1-0.7c-0.4-0.3-0.8-0.6-1.3-1
						c-0.1-0.1-0.3-0.2-0.4-0.3c-0.1-0.1-0.3-0.2-0.4-0.4c-0.3-0.3-0.5-0.5-0.8-0.8c-0.3-0.3-0.6-0.6-0.9-0.9
						c-0.3-0.3-0.6-0.8-0.9-1.2c0,0.6,2.6,4.3,2.6,4.6c-0.1,0.3-1.1-1.1-2.2-2.6c-0.9-1.6-1.8-3.3-1.8-3.1c-0.1,0.4,0.2,1.6,0.5,2.9
						c0.3,1.3,0.8,2.4,1,2.7c0.2,0.1,0.3,0.3,0.5,0.1c0.2,0.4,0.5,0.7,0.7,1c0.2,0.3,0.5,0.5,0.8,0.8c0.8,0.6,1.7,1.2,2.6,1.6
						c0.4,0.3,0.9,0.6,1.2,0.9c0.2,0.2,0.4,0.4,0.5,0.6c0.2,0.2,0.3,0.5,0.5,0.7c0.1,0.2,0.7,0.1,0.9,0.1c1.2,1,2.1,2.7,3.5,3.4
						c0.9,0.5,1.4,1.7,2.2,2.1c1.1,0.4,2.1,1,3,1.8c0.9,0.7,1.9,1.5,2.8,2.3c0.3-0.8,0.9-0.2,1.1-0.1c2.2,1.1,4.2,2.4,5.9,3.8
						c1,0.5,1.9,0.9,2.8,1.5c1.9,1.1,3.3,2.7,5.3,3.4c1.3,0.4,2.5,0.9,3.8,1.7C90,75.8,90.9,75.5,90.7,75.2z M71.4,59.6
						c-1.1-0.6-1.9-1.1-2.4-1.5c-0.5-0.2-0.9-0.5-1.4-0.7c-0.5-0.3-1.1-0.5-1.6-0.8c-0.6-0.3-1.1-0.5-1.6-0.8
						c-0.5-0.3-1.1-0.5-1.6-0.8c1,0,2,0.5,3.2,1.1c0.6,0.3,1.1,0.7,1.7,1.1c0.3,0.2,0.5,0.3,0.8,0.5c0.1,0,0.4,0.2,0.9,0.6
						c0.8,0.5,1.7,1,2.5,1.5C71.6,59.6,71.4,59.5,71.4,59.6z M81.1,67.3c-2.1-2.2-3.7-4.8-6.3-6.3c1,0.7,1.6,1.7,2.1,2.7
						c-0.7-0.7-1.4-1.3-2.1-2c-0.2,0-0.5-0.1-0.6-0.3c-0.1-0.1-0.3-0.2-0.4-0.3c-0.3-0.5-0.6-1-0.9-1.5c-0.9-1-1.8-1.9-2.7-2.9
						c-0.9-1-1.8-1.9-2.6-3c3.1,2.4,5.9,5.1,8.8,7.7c2.9,2.7,5.7,5.4,8.8,7.7c-0.6-0.2-1.2-0.3-1.8-0.6
						C82.6,68.2,81.8,67.8,81.1,67.3z"/>
					<path fill="#94C93D" d="M65.2,50.3c0.3,0.8,1,1.4,1.6,1.9c0.9,0.5,1.8,1.1,2.7,1.6c-0.7-0.8-1.4-1.7-2.3-2.3
						C66.4,51.2,65.8,50.8,65.2,50.3z"/>
				</g>
				<g>
					<path fill="#F99D41" d="M67.9,57.7C67.1,57,67.2,57.1,67.9,57.7c0.1,0.2,0.2,0.2,0.3,0.3C68.1,57.9,68,57.8,67.9,57.7z"/>
					<path fill="#F99D41" d="M86.6,79.4c-0.1-0.3-0.3-0.6-0.5-0.8c-1.1-1-2-2.5-3.3-3.3c-0.4-0.4-0.9-0.7-1.4-1
						c-0.2-0.2-0.6-0.5-0.6-0.9c1.4,1.2,2.8,2.1,4.3,3.1c0-0.1,0-0.3-0.2-0.4c0.1-0.1,0.2-0.2,0.2-0.2s-0.1-0.1-0.2-0.3
						c0.3-0.1,0.9,0.6,0.8,0.3C85.2,75,84.7,74.5,84,74l-0.2-0.4c0,0.1,0,0.2,0.1,0.3c-0.1-0.1-0.2-0.2-0.4-0.2
						c-0.1-0.1-0.2-0.3-0.3-0.4c-0.1-0.6-0.2-1.2-0.4-1.8C82,70,80.9,69,80,67.7c-2.4-3.8-5.3-7.1-8.4-10.2
						c-0.1-0.2-0.5-0.5-0.8-0.7c1.8,2.1,3.6,4.3,5.4,6.4c0.9,1.1,1.7,2.2,2.5,3.3c0.8,1.1,1.7,2.3,2.4,3.5c0.6,1,1.2,2,1.8,3
						c-4-5.3-8-10.5-12.2-15.7c-0.1-0.2-0.3-0.3-0.4-0.5c0.1-0.1,0.3-0.1,0.4,0c-0.1-0.2-0.3-0.3-0.4-0.5c-0.7-0.8-1.5-1.5-2.2-2.2
						c0.3,0.4,0.6,0.8,0.9,1.2c-0.7-0.7-1.5-1.3-2.3-1.7c-0.5-0.3-1.1-1.4-1.6-1.6c-2.3-1.3-4.3-3.7-6.9-4.2l-0.8-0.6
						c0.2,0.4,0.5,0.7,0.8,0.9c0,0,0,0.1,0.1,0.1c0.1,0,0.2,0,0.2,0c1.1,1.7,4.3,2.5,6.3,4c0.6,0.4,1.1,0.9,1.6,1.4
						c-0.3,0-0.7,0-1-0.1c-1.2-0.9-2.5-2-3.8-2.6c0.5,0.6,0.9,1.3,1.5,1.7c0.3,0.2,0.9,0.1,1.2,0.4c0.7,0.6,1.4,1.1,2.1,1.5
						c0.7,0.5,1.3,1,1.8,1.8c0.1,0.2,0,0.5,0.2,0.6c-0.7-0.7-1.5-1.3-2.3-1.9c-0.8-0.6-1.6-1.1-2.4-1.7c-0.2-0.3-0.4-0.5-0.6-0.7
						c-0.3-0.1-0.5-0.2-0.7-0.3c-1.9-1.7-3-0.2-4.7-2.1c0.4,0.4,1.1,0.6,1.8,0.7c0.7,0.1,1.4,0.2,1.8,0.2c-1.2-0.8-4-1.6-5.3-2.7
						c-0.8-0.6-1.2-0.8-1.6-0.9c-0.4-0.1-0.8-0.1-1.7-0.3c-0.4-0.2-2.2-0.1-3-0.2c1.2,0.7,2.2,0.7,2.8,1.1c0.5,0.2,1.1,0.3,1.7,0.5
						c0.5,0.2,1.1,0.5,1.6,0.7c1,0.4,1.7,0.8,1.9,1c0.2,0.1-0.2,0.1-1.4-0.4c-0.6-0.2-1.5-0.6-2.6-1c-1.2-0.4-2.6-0.8-4.3-1.4
						c0.3,0.3,3.7,2.1,3.7,2.3c-0.1,0.3-5.4-2.7-5.4-2.5c0.1,0.5,2.4,2.7,2.9,3c0.2,0,0.4,0.1,0.5-0.1c0.6,0.4,1.2,0.5,1.9,0.9
						c1.8,0.8,3.8,0.9,5.2,2.7c0.1,0.1,0.6,0.1,0.8,0.2c1.2,0.9,2.1,2.4,3.4,3.2c0.8,0.5,1.3,1.7,2.1,2.2c1.9,1.2,3.4,3.1,5,5
						c0.3-0.6,0.8,0.1,0.9,0.3c1.8,1.6,3.5,3.4,4.9,5.2c0.8,0.7,1.6,1.4,2.3,2.2c0.8,0.8,1.5,1.7,2.2,2.5c0.7,0.8,1.4,1.6,2.3,2.2
						c1.2,0.7,2.2,1.5,3.3,2.5C86,79.8,86.8,79.8,86.6,79.4z M70,59.7c-0.9-0.8-1.7-1.5-2.1-1.9c-1.9-1.5-3.8-2.8-5.7-3.8
						c0.9,0.1,1.9,0.6,2.9,1.4c0.9,0.7,1.8,1.5,2.7,2.4c0.1,0.1,0.2,0.2,0.3,0.3c0.8,0.6,1.5,1.3,2.2,2C70.2,59.8,70.1,59.7,70,59.7
						z M78.3,69.6c-0.9-1.3-1.6-2.7-2.5-4C75,64.3,74.1,63.1,73,62c0.8,0.9,1.3,2,1.8,3.1c-0.6-0.8-1.2-1.6-1.8-2.5
						c-0.2-0.1-0.4-0.3-0.5-0.4c-0.1-0.1-0.2-0.3-0.4-0.4c-0.3-0.5-0.5-1.1-0.8-1.6c-1.5-2.3-3.2-4.2-4.8-6.5
						c5.7,5.4,9.9,12.8,15.1,18.9c-0.5-0.3-1-0.7-1.5-1.1C79.5,70.9,78.9,70.3,78.3,69.6z"/>
					<path fill="#F99D41" d="M64.1,50.4c0.4,0.7,1.1,1.3,1.7,1.8c0.8,0.6,1.7,1.3,2.5,2c-0.7-0.9-1.4-1.8-2.2-2.5
						C65.3,51.3,64.6,50.9,64.1,50.4z"/>
				</g>
				<g>
					<g opacity="0.8">
						<path fill="#52A6DC" d="M81.1,4.2c0.2-0.1,0.3-0.3,0.4-0.5c0.1-0.3,0.6-0.3,0.9-0.5c0.2-0.1,0.3-0.2,0.4-0.3
							c0.4-0.1,0.7-0.3,0.9-0.6c0,0,0.2-0.1-0.1-0.2C84,2,84.3,1.8,84.4,1.5c0.1-0.1,0.3-0.1,0.4-0.3c0-0.2,0.4-0.3,0.5-0.5
							c0,0-0.1-0.2-0.1-0.2c0.4-0.1,0.2-0.6,0.2-1c0-0.1,0-0.2,0.1-0.3c-0.1-0.1-0.1-0.1-0.1-0.1c0-0.1,0.6-0.3,0.8-0.2
							c0.1,0-0.4,0.8-0.3,0.9c0.1,0,0.3-0.5,0.4-0.5c0,2.7,0.2,1.6,0.2,0.7c0.1-0.1,0-0.3,0.1-0.5c0,0.2,0.3,0.6,0.3,0.7
							c0,0.3,0.2,0.4,0,0.7c-0.2,0.2-0.1,0.8-0.1,1c-0.1-0.2-0.4-0.7-0.3-0.8c-0.4,0.1,0.3,0.7,0,1c0,0,0,0.1,0,0.1c0,0-0.1,0-0.2,0
							c-0.2,0.2-0.2,0.6-0.4,0.8c0,0,0.1,0,0.2,0c0.4-0.1,0.2-0.4,0.4-0.6c0.1,0-0.1-0.2,0-0.3C86.6,2,86.7,2,86.9,2
							c0,0.3-0.1,0.5-0.2,0.7c0,0.1,0.1,0.2,0.1,0.3c0.1-0.1,0.1-0.2,0.2-0.3c0.2-0.3-0.1-1.1,0.4-1.1c0,0,0,0,0-0.1c0,0,0,0,0,0
							c0,0,0.1-0.1,0.2-0.1l-0.1,0.1c0.2,0.6-0.3,0.8-0.4,1.2c0,0.1-0.3,0.1-0.3,0.2c0,0.3-0.2,0.5-0.6,0.6C85.2,4,84,4.4,82.8,4.6
							c0,0,0,0,0,0.1c0,0,0.1,0,0.1,0c0,0-0.1,0-0.1,0c-0.1,0.1-0.2,0.2-0.4,0.2c-0.1,0,0-0.1,0-0.2c0,0-0.1,0-0.1,0s-0.1,0-0.1-0.1
							c0,0-0.1,0-0.1,0c0.2-0.2,0.3-0.4,0.5-0.6c-0.2-0.1-0.2,0-0.2,0c0,0.1,0,0.2-0.1,0.2c-0.1,0.2-0.5,0.2-0.7,0.3
							c-0.1,0-0.1,0-0.2,0C81.1,4.5,81,4.3,81.1,4.2z M85.3,3.3c-0.1,0-0.3,0-0.4,0c0,0-0.1,0-0.1,0c0,0-0.1,0-0.1,0.1
							c-0.2,0-0.4,0.1-0.5,0.1c0.3,0,0.6,0.1,0.7,0c-0.3,0.3-1.1,0.3-1.7,0.3C83.2,3.9,83.1,4,83,4.1c-0.1,0.1-0.1,0.2-0.1,0.2
							c0.6-0.2,1.4-0.4,2.1-0.6c0.7-0.2,1.3-0.4,1.8-0.9C86.2,3,85.8,3.2,85.3,3.3z M85.3,3.1c0.1-0.1,0.2-0.2,0.3-0.3
							c0.3-0.3,0.6-0.6,0.4-1.1c-0.1,0.4-0.2,0.8-0.4,1.1C85.8,2.5,85.6,2.6,85.3,3.1C85.3,3,85.3,3,85.3,3.1z"/>
						<path fill="#52A6DC" d="M83.7,4.6c-0.3,0-0.5,0-0.8,0c0.2,0.1,0.4,0.1,0.6,0.2c0.4,0.1,0.6-0.1,0.9-0.1c0.9-0.1,1.5-0.4,2-0.9
							c0,0,0.1-0.1,0.1-0.1C85.6,4.1,84.8,4.5,83.7,4.6z"/>
						<path fill="#52A6DC" d="M87.3,3c0-0.1,0-0.3,0.1-0.3c-0.2,0-0.3,0.1-0.4,0.2C87,3,86.9,3.2,86.8,3.3C87,3.2,87.2,3.2,87.3,3z"
							/>
						<path fill="#52A6DC" d="M86.4,3.7C86.4,3.6,86.5,3.6,86.4,3.7c0.2-0.1,0.4-0.2,0.4-0.4c-0.2,0.1-0.4,0.1-0.6,0.2
							C86.3,3.5,86.4,3.6,86.4,3.7z"/>
					</g>
				</g>
				<g>
					<g opacity="0.8">
						<path fill="#FFF274" d="M58.3,48.1c-0.1-0.1-0.1-0.2-0.2-0.3c-0.1-0.1-0.2-0.1-0.3-0.2c-0.3-0.1-0.4-0.6-0.7-0.9
							c-0.1-0.2-0.3-0.2-0.5-0.3c-0.1-0.2-0.3-0.3-0.5-0.5c-0.2-0.1-0.4-0.2-0.6-0.3c0,0-0.2-0.2-0.2,0.1c-0.2-0.2-0.4-0.3-0.6-0.4
							c-0.2-0.1-0.4-0.2-0.7-0.1c-0.2,0-0.3-0.3-0.5-0.3c-0.3,0.1-0.6-0.3-0.9-0.3c0,0-0.2,0.2-0.2,0.2c-0.4-0.3-0.8,0.1-1.2,0.3
							c-0.2,0-0.3,0.1-0.4,0.1c0,0.1-0.1,0.1-0.1,0.2c-0.1,0-0.7-0.3-0.8-0.5c0,0,0.3-0.1,0.6-0.1c0.3,0,0.6-0.1,0.6-0.2
							c0-0.1-0.8,0-0.9,0c0.8-0.4,1.3-0.6,1.6-0.8c0.3-0.2,0.4-0.2,0.3-0.2c-0.1,0-0.7,0.2-1.2,0.5c-0.1,0-0.4,0.2-0.6,0.2
							c0.2-0.1,0.5-0.6,0.6-0.6c0.4-0.2,0.3-0.4,0.8-0.4c0.4,0,1-0.3,1.3-0.4c-0.2,0.2-0.6,0.7-0.8,0.6c0.5,0.3,0.6-0.6,1.2-0.5
							c0.1,0,0.1,0,0.2-0.1c0.1,0,0.1,0.1,0.2,0.1c0.4,0.1,0.9-0.1,1.3,0.1c0,0,0-0.2-0.1-0.2c-0.3-0.3-0.7-0.1-1.1-0.2
							c-0.1,0-0.2,0.2-0.3,0.1c-0.2,0-0.3-0.2-0.4-0.3c0.3-0.2,0.7-0.1,1-0.1c0.1,0,0.2-0.1,0.2-0.2c-0.2,0-0.3-0.1-0.5-0.1
							c-0.6,0-1.3,0.6-1.7,0.2c0,0,0,0-0.1,0c0,0,0,0,0,0c-0.1,0-0.2,0-0.2-0.1l0.2,0c0.6-0.4,1.2-0.1,1.8-0.2
							c0.1-0.1,0.3,0.2,0.5,0.2c0.2,0,0.4,0,0.6,0c0.2,0.1,0.4,0.2,0.6,0.3c0.7,0.5,1.3,1,1.8,1.5c0.5,0.6,1,1.2,1.3,1.9
							c0,0,0.1,0,0.1,0c0,0,0-0.1,0-0.1c0,0,0,0.1,0,0.1c0.1,0.1,0.2,0.2,0.3,0.4c0,0.1-0.1-0.1-0.2,0c0,0,0,0.1,0,0.1
							s0,0.1-0.1,0.1c0,0,0,0.1,0,0.1c-0.3-0.2-0.5-0.3-0.8-0.5c-0.1,0.2,0,0.2,0.1,0.2c0.1,0,0.2,0,0.3,0.1
							c0.1,0.1,0.2,0.2,0.3,0.3c0.1,0.2,0.1,0.3,0.2,0.4c0,0.1,0,0.1,0,0.2c0,0.1-0.1,0.1-0.1,0.1C58.4,48.2,58.3,48.2,58.3,48.1z
							 M55.6,43.9c0.1,0.1,0.2,0.3,0.2,0.4c0,0,0.1,0,0.1,0.1c0,0,0.1,0,0.1,0c0.2,0.2,0.3,0.3,0.5,0.5c-0.1-0.3-0.2-0.6-0.5-0.7
							c0.2,0.1,0.3,0.2,0.4,0.3c0.1,0.1,0.2,0.3,0.3,0.4c0.2,0.3,0.3,0.7,0.5,1c0.1,0.1,0.3,0.2,0.4,0.4c0.1,0.1,0.2,0.1,0.3,0.1
							c-0.5-0.7-1-1.5-1.6-2.1c-0.6-0.7-1.4-1.2-2.3-1.5C54.7,43.1,55.2,43.4,55.6,43.9z M55.4,44c-0.2-0.1-0.4-0.1-0.6-0.2
							c-0.3-0.1-0.6-0.2-0.8-0.2c-0.3,0-0.5,0.1-0.7,0.3c0.5-0.1,1-0.2,1.6-0.1C54.3,43.7,54.6,43.8,55.4,44
							C55.3,44,55.4,44,55.4,44z"/>
						<path fill="#FFF274" d="M58.2,45.4c0.1,0.3,0.2,0.6,0.3,0.9c0-0.2,0.1-0.4,0.1-0.6c0-0.2-0.1-0.4-0.2-0.5
							c-0.1-0.1-0.2-0.3-0.3-0.4c-0.5-1-1.4-1.6-2.3-2c0,0-0.1-0.1-0.2-0.1c0.6,0.3,1.1,0.7,1.6,1.1C57.5,44.3,57.9,44.8,58.2,45.4z
							"/>
						<path fill="#FFF274" d="M54,42c-0.2,0-0.4,0.1-0.5,0c0.1,0.2,0.3,0.2,0.5,0.3c0.2,0,0.5,0,0.7,0.1C54.4,42.2,54.2,42.1,54,42z
							"/>
						<path fill="#FFF274" d="M55.5,42.7c0,0-0.1-0.1-0.1-0.1c-0.2-0.1-0.4-0.2-0.7-0.2c0.2,0.2,0.4,0.4,0.7,0.6
							C55.3,42.8,55.4,42.7,55.5,42.7z"/>
					</g>
				</g>
				<g>
					<g opacity="0.8">
						<path fill="#FFF274" d="M42.3,41.3c-0.1-0.1-0.1-0.1-0.1,0c0,0.1-0.2-0.3-0.3-0.3c-0.1-0.1-0.1-0.1-0.1-0.1
							c-0.1-0.2-0.3-0.3-0.3-0.3c0,0-0.1-0.1,0,0.2c-0.1-0.2-0.3-0.3-0.3-0.2c0,0-0.1-0.2-0.2-0.1c0,0.1-0.2-0.2-0.2-0.1
							c0,0,0.1,0.2,0,0.2c-0.2-0.3-0.1,0.2-0.1,0.4c0,0.1,0,0.1,0,0.1c0,0.1,0,0.1,0,0.2c0,0-0.2-0.3-0.3-0.4c0-0.1,0.1-0.2,0.1-0.4
							c0-0.1-0.1,0.1-0.1,0c-0.1-1.6-0.1-1.1-0.1-0.5c0,0,0,0.2,0,0.2c0-0.1-0.1-0.6-0.1-0.6c0-0.2-0.1-0.4,0-0.4c0.1,0,0-0.4,0-0.5
							c0.1,0.2,0.2,0.7,0.1,0.7c0.2,0.2-0.1-0.6,0-0.6c0,0,0,0,0-0.1c0,0,0,0.1,0.1,0.1c0.1,0,0-0.2,0.1-0.2c0,0-0.1-0.1-0.1-0.1
							c-0.1-0.2-0.1,0.1-0.2,0c0,0,0,0.2,0,0.2c0,0-0.1-0.1-0.1-0.2c0-0.2,0-0.2,0.1-0.2c0,0,0-0.2-0.1-0.3c0,0,0,0-0.1,0
							c-0.1,0.1,0.1,0.8-0.1,0.4c0,0,0,0,0,0c0,0,0,0,0,0c0,0,0,0-0.1-0.1l0,0c-0.1-0.5,0.1-0.3,0.1-0.5c0-0.1,0.1,0.2,0.1,0.1
							c0-0.2,0.1-0.1,0.2,0.1c0.4,0.5,0.8,1,1.3,1.8c0,0,0,0,0,0c0,0,0-0.1,0-0.1c0,0,0,0.1,0,0.1c0,0,0.1,0,0.1,0.2
							c0,0.1,0,0,0,0.1c0,0,0,0,0,0s0,0.1,0,0.1c0,0,0,0,0,0.1c-0.1,0-0.1,0.1-0.2,0.1c0.1,0.2,0.1,0.1,0.1,0.2c0,0,0-0.1,0,0
							c0,0,0.2,0.2,0.3,0.3c0,0,0.1,0.1,0.1,0.2C42.3,41.1,42.3,41.3,42.3,41.3z M40.7,38.8c0,0.1,0.1,0.2,0.2,0.3c0,0,0,0,0,0
							c0,0,0,0,0,0c0.1,0.1,0.1,0.2,0.2,0.3c-0.1-0.2-0.2-0.5-0.3-0.5c0.1,0,0.4,0.6,0.6,1c0,0.1,0.1,0.1,0.1,0.1c0,0,0,0,0-0.1
							c-0.5-0.6-1.1-1.8-1.4-1.9C40.4,38.4,40.5,38.5,40.7,38.8z M40.7,39C40.7,39,40.7,39,40.7,39c-0.2,0-0.3-0.1-0.2,0.4
							C40.5,39.2,40.6,39.1,40.7,39C40.5,39,40.6,39,40.7,39C40.7,39,40.7,39,40.7,39z"/>
						<path fill="#FFF274" d="M41.3,39.2c0.1,0.2,0.2,0.4,0.3,0.6C41.5,39.6,41.5,39.4,41.3,39.2c-0.1-0.3-0.1-0.3-0.2-0.5
							c-0.3-0.6-0.6-0.9-0.7-0.9c0,0,0,0,0,0C40.6,38.2,40.9,38.5,41.3,39.2z"/>
						<path fill="#FFF274" d="M39.9,37.5c0,0.1,0,0.1,0,0.1c0.1,0.1,0.1,0.2,0.1,0.2c0,0,0-0.1,0.1-0.1C40,37.6,40,37.5,39.9,37.5z"
							/>
						<path fill="#FFF274" d="M40.3,37.8C40.3,37.8,40.3,37.8,40.3,37.8c-0.1-0.1-0.1-0.1-0.2-0.1c0.1,0.1,0.2,0.2,0.2,0.4
							C40.3,37.9,40.3,37.9,40.3,37.8z"/>
					</g>
				</g>
				<g>
					<g opacity="0.8">
						<path fill="#E34673" d="M61.4-3.2c-0.1,0-0.2,0.1-0.1,0.2c0,0.1-0.4,0.1-0.5,0.2c-0.1,0-0.1,0.1-0.2,0.2
							c-0.2,0.1-0.5,0.2-0.5,0.4c0,0-0.1,0,0.2,0.1C60-2,59.7-1.9,59.9-1.7c0,0.1-0.2,0.1-0.2,0.2c0.1,0.1-0.2,0.2-0.2,0.3
							c0,0,0.2,0.1,0.2,0.1c-0.3,0.1,0.1,0.3,0.3,0.5c0,0.1,0.1,0.1,0.1,0.2c0.1,0,0.1,0,0.2,0c0,0-0.3,0.3-0.5,0.3
							c-0.1,0-0.1-0.5-0.3-0.5c-0.1,0,0,0.3,0,0.4c-0.4-0.3-0.6-0.5-0.8-0.7C58.4-1,58.3-1,58.3-1c0,0,0.2,0.3,0.5,0.5
							c0,0.1,0.2,0.2,0.2,0.3c-0.1-0.1-0.6-0.2-0.6-0.3C58.2-0.7,58-0.6,58-0.8c0-0.1-0.3-0.5-0.4-0.6c0.2,0.1,0.7,0.3,0.6,0.4
							c0.3-0.2-0.6-0.3-0.5-0.5c0,0,0-0.1-0.1-0.1c0,0,0.1,0,0.1-0.1c0.1-0.2-0.1-0.4,0-0.6c0,0-0.1,0-0.2,0c-0.3,0.1,0,0.3-0.1,0.5
							c0,0,0.2,0.1,0.2,0.1c0,0.1-0.2,0.1-0.2,0.2c-0.2-0.2-0.1-0.3-0.1-0.5c0,0-0.2-0.1-0.2-0.1c0,0.1-0.1,0.1-0.1,0.2
							c0,0.3,0.7,0.7,0.2,0.8c0,0,0,0,0,0c0,0,0,0,0,0c0,0,0,0.1-0.1,0.1l0-0.1c-0.5-0.3-0.2-0.6-0.3-0.9c-0.1-0.1,0.2-0.1,0.1-0.2
							c-0.1-0.2,0-0.4,0.2-0.5c0.7-0.5,1.6-0.9,2.6-1c0,0,0,0,0,0c0,0-0.1,0-0.1,0c0,0,0.1,0,0.1,0c0-0.1,0.1-0.1,0.3-0.1
							c0.1,0,0,0,0.1,0.1c0,0,0,0,0,0s0.1,0,0.1,0.1c0,0,0.1,0,0.1,0c-0.1,0.1-0.1,0.2-0.2,0.4c0.2,0.1,0.2,0,0.2,0
							c0-0.1,0-0.1,0-0.1c0-0.1,0.4-0.1,0.5-0.1c0.1,0,0.1,0,0.2,0C61.3-3.4,61.5-3.2,61.4-3.2z M58.2-2.6c0.1,0,0.2,0,0.3,0
							c0,0,0,0,0.1,0c0,0,0,0,0-0.1c0.1-0.1,0.3-0.1,0.4-0.1c-0.3,0-0.5,0-0.6,0.1C58.5-3,59.2-3,59.7-3.1c0.1,0,0.2-0.1,0.2-0.1
							c0,0,0-0.1,0-0.1c-0.2,0.1-0.5,0.1-0.8,0.2c-0.3,0.1-0.5,0.2-0.8,0.3c-0.5,0.2-1,0.5-1.2,0.8c0.2-0.1,0.3-0.2,0.5-0.3
							C57.9-2.4,58-2.5,58.2-2.6z M58.4-2.5c-0.1,0.1-0.1,0.2-0.1,0.3c-0.1,0.2-0.2,0.5,0.2,0.7c-0.1-0.2-0.2-0.5-0.2-0.7
							C58.2-2,58.3-2.1,58.4-2.5C58.4-2.4,58.4-2.4,58.4-2.5z"/>
						<path fill="#E34673" d="M59.1-3.6c0.2,0,0.5,0,0.7,0c-0.2-0.1-0.4-0.1-0.6-0.1c-0.4,0-0.4,0.1-0.7,0.1
							c-0.4,0.1-0.7,0.2-0.9,0.3c-0.2,0.1-0.4,0.3-0.5,0.5c0,0-0.1,0.1,0,0.1c0.3-0.2,0.5-0.4,0.8-0.6c0.2-0.1,0.3-0.2,0.5-0.2
							C58.7-3.5,58.9-3.6,59.1-3.6z"/>
						<path fill="#E34673" d="M56.6-2c0,0.1,0.1,0.2,0.1,0.3c0.2,0,0.2-0.1,0.2-0.2c0-0.1,0-0.2,0-0.3C56.7-2.2,56.6-2.2,56.6-2z"/>
						<path fill="#E34673" d="M57.1-2.7C57.1-2.6,57.1-2.6,57.1-2.7c-0.2,0.1-0.2,0.2-0.2,0.3c0.2-0.1,0.3-0.2,0.5-0.2
							C57.2-2.6,57.1-2.6,57.1-2.7z"/>
					</g>
				</g>
				<g>
					<path fill="#F99D41" d="M67.9,57.7C67.1,57,67.2,57.1,67.9,57.7c0.1,0.2,0.2,0.2,0.3,0.3C68.1,57.9,68,57.8,67.9,57.7z"/>
					<path fill="#F99D41" d="M86.6,79.4c-0.1-0.3-0.3-0.6-0.5-0.8c-1.1-1-2-2.5-3.3-3.3c-0.4-0.4-0.9-0.7-1.4-1
						c-0.2-0.2-0.6-0.5-0.6-0.9c1.4,1.2,2.8,2.1,4.3,3.1c0-0.1,0-0.3-0.2-0.4c0.1-0.1,0.2-0.2,0.2-0.2s-0.1-0.1-0.2-0.3
						c0.3-0.1,0.9,0.6,0.8,0.3C85.2,75,84.7,74.5,84,74l-0.2-0.4c0,0.1,0,0.2,0.1,0.3c-0.1-0.1-0.2-0.2-0.4-0.2
						c-0.1-0.1-0.2-0.3-0.3-0.4c-0.1-0.6-0.2-1.2-0.4-1.8C82,70,80.9,69,80,67.7c-2.4-3.8-5.3-7.1-8.4-10.2
						c-0.1-0.2-0.5-0.5-0.8-0.7c1.8,2.1,3.6,4.3,5.4,6.4c0.9,1.1,1.7,2.2,2.5,3.3c0.8,1.1,1.7,2.3,2.4,3.5c0.6,1,1.2,2,1.8,3
						c-4-5.3-8-10.5-12.2-15.7c-0.1-0.2-0.3-0.3-0.4-0.5c0.1-0.1,0.3-0.1,0.4,0c-0.1-0.2-0.3-0.3-0.4-0.5c-0.7-0.8-1.5-1.5-2.2-2.2
						c0.3,0.4,0.6,0.8,0.9,1.2c-0.7-0.7-1.5-1.3-2.3-1.7c-0.5-0.3-1.1-1.4-1.6-1.6c-2.3-1.3-4.3-3.7-6.9-4.2l-0.8-0.6
						c0.2,0.4,0.5,0.7,0.8,0.9c0,0,0,0.1,0.1,0.1c0.1,0,0.2,0,0.2,0c1.1,1.7,4.3,2.5,6.3,4c0.6,0.4,1.1,0.9,1.6,1.4
						c-0.3,0-0.7,0-1-0.1c-1.2-0.9-2.5-2-3.8-2.6c0.5,0.6,0.9,1.3,1.5,1.7c0.3,0.2,0.9,0.1,1.2,0.4c0.7,0.6,1.4,1.1,2.1,1.5
						c0.7,0.5,1.3,1,1.8,1.8c0.1,0.2,0,0.5,0.2,0.6c-0.7-0.7-1.5-1.3-2.3-1.9c-0.8-0.6-1.6-1.1-2.4-1.7c-0.2-0.3-0.4-0.5-0.6-0.7
						c-0.3-0.1-0.5-0.2-0.7-0.3c-1.9-1.7-3-0.2-4.7-2.1c0.4,0.4,1.1,0.6,1.8,0.7c0.7,0.1,1.4,0.2,1.8,0.2c-1.2-0.8-4-1.6-5.3-2.7
						c-0.8-0.6-1.2-0.8-1.6-0.9c-0.4-0.1-0.8-0.1-1.7-0.3c-0.4-0.2-2.2-0.1-3-0.2c1.2,0.7,2.2,0.7,2.8,1.1c0.5,0.2,1.1,0.3,1.7,0.5
						c0.5,0.2,1.1,0.5,1.6,0.7c1,0.4,1.7,0.8,1.9,1c0.2,0.1-0.2,0.1-1.4-0.4c-0.6-0.2-1.5-0.6-2.6-1c-1.2-0.4-2.6-0.8-4.3-1.4
						c0.3,0.3,3.7,2.1,3.7,2.3c-0.1,0.3-5.4-2.7-5.4-2.5c0.1,0.5,2.4,2.7,2.9,3c0.2,0,0.4,0.1,0.5-0.1c0.6,0.4,1.2,0.5,1.9,0.9
						c1.8,0.8,3.8,0.9,5.2,2.7c0.1,0.1,0.6,0.1,0.8,0.2c1.2,0.9,2.1,2.4,3.4,3.2c0.8,0.5,1.3,1.7,2.1,2.2c1.9,1.2,3.4,3.1,5,5
						c0.3-0.6,0.8,0.1,0.9,0.3c1.8,1.6,3.5,3.4,4.9,5.2c0.8,0.7,1.6,1.4,2.3,2.2c0.8,0.8,1.5,1.7,2.2,2.5c0.7,0.8,1.4,1.6,2.3,2.2
						c1.2,0.7,2.2,1.5,3.3,2.5C86,79.8,86.8,79.8,86.6,79.4z M70,59.7c-0.9-0.8-1.7-1.5-2.1-1.9c-1.9-1.5-3.8-2.8-5.7-3.8
						c0.9,0.1,1.9,0.6,2.9,1.4c0.9,0.7,1.8,1.5,2.7,2.4c0.1,0.1,0.2,0.2,0.3,0.3c0.8,0.6,1.5,1.3,2.2,2C70.2,59.8,70.1,59.7,70,59.7
						z M78.3,69.6c-0.9-1.3-1.6-2.7-2.5-4C75,64.3,74.1,63.1,73,62c0.8,0.9,1.3,2,1.8,3.1c-0.6-0.8-1.2-1.6-1.8-2.5
						c-0.2-0.1-0.4-0.3-0.5-0.4c-0.1-0.1-0.2-0.3-0.4-0.4c-0.3-0.5-0.5-1.1-0.8-1.6c-1.5-2.3-3.2-4.2-4.8-6.5
						c5.7,5.4,9.9,12.8,15.1,18.9c-0.5-0.3-1-0.7-1.5-1.1C79.5,70.9,78.9,70.3,78.3,69.6z"/>
					<path fill="#F99D41" d="M64.1,50.4c0.4,0.7,1.1,1.3,1.7,1.8c0.8,0.6,1.7,1.3,2.5,2c-0.7-0.9-1.4-1.8-2.2-2.5
						C65.3,51.3,64.6,50.9,64.1,50.4z"/>
				</g>
			</g>
			<g>
				<g>
					<path fill="#52A6DC" d="M64.4,25.3c0.1-0.1,0.2-0.1,0.3-0.2C63.2,26.1,63.3,26,64.4,25.3z"/>
					<path fill="#52A6DC" d="M49.9,44.2c-0.8,1.7-1.7,3.4-1.6,3.4c0.2,0,0.9-0.7,1.6-1.5c0.3-0.4,0.7-0.8,0.9-1.1
						c0.3-0.3,0.5-0.6,0.6-0.7c0.1-0.3,0.2-0.4,0.1-0.7c0.3-0.4,0.5-0.7,0.6-1.1c0.2-0.4,0.4-0.8,0.6-1.1c0.6-1,1-2.2,1.7-3.3
						c0.6-1,1.4-1.9,2.4-2.5c0.2-0.1,0.3-0.7,0.5-1c0.6-0.6,1.3-1.1,2.1-1.6c0.8-0.5,1.5-0.9,2.1-1.6c0.4-0.4,0.9-0.6,1.4-0.9
						c0.5-0.2,1-0.5,1.5-0.9c1.9-1.8,4.4-3,6.9-4.2c-0.5-0.5,0.4-0.8,0.7-0.9c2.3-1.6,4.8-2.8,7.1-3.9c1-0.7,2-1.3,3.1-1.9
						c0.6-0.3,1.1-0.6,1.7-0.9c0.5-0.3,1.1-0.6,1.6-0.8c1.1-0.6,2.1-1.1,3-2c0.6-0.6,1.1-1.1,1.7-1.6c0.6-0.5,1.2-1.1,1.9-1.6
						c0.5-0.3,0.8-1.2,0.4-1.1c-0.3,0.1-0.6,0.2-0.9,0.3c-0.7,0.5-1.4,1-2.2,1.4c-0.8,0.4-1.5,0.9-2.2,1.5c-0.6,0.3-1,0.8-1.5,1.3
						c-0.3,0.1-0.7,0.6-1.1,0.4c0.8-0.6,1.6-1.2,2.4-1.9c0.4-0.3,0.8-0.7,1.2-1c0.4-0.3,0.8-0.7,1.1-1c-0.1,0-0.3-0.1-0.4,0.1
						c-0.1-0.1-0.1-0.3-0.1-0.3s-0.2,0.1-0.4,0.2c0.1-0.4,0.9-0.9,0.5-0.9c-0.9,0.4-1.7,0.9-2.3,1.5c-0.2,0.1-0.3,0.1-0.5,0.2
						c0.1,0,0.2,0,0.3,0c-0.1,0.1-0.2,0.2-0.4,0.4c-0.2,0.1-0.3,0.2-0.5,0.2c-0.6,0-1.2-0.1-1.8,0c-0.8,0.2-1.6,0.5-2.4,0.9
						c-0.8,0.4-1.5,0.7-2.3,1c-4.6,1.6-9,3.6-13.3,6.2c-0.2,0.1-0.7,0.4-1,0.7c5.7-2.9,11.1-5.3,17-7.5c1.2-0.4,2.3-0.8,3.5-1.2
						c-6.5,3-13.4,5.7-20,8.8c-0.2,0.1-0.4,0.2-0.7,0.3c0-0.2,0-0.3,0.2-0.5c-0.2,0.1-0.4,0.2-0.7,0.3c-1,0.5-2,1.2-3,1.9
						c0.5-0.2,1-0.4,1.5-0.6c-0.9,0.6-1.8,1.3-2.5,2.1c-0.5,0.5-1.7,0.8-2.2,1.4c-0.5,0.6-1.1,1.1-1.7,1.7c-0.6,0.5-1.2,1.1-1.8,1.7
						c-1.2,1.1-2.2,2.4-2.8,3.8c0,0-0.2,0.2-0.4,0.4c-0.1,0.1-0.2,0.2-0.3,0.3c-0.1,0.1-0.1,0.1-0.1,0.1c0.4-0.2,0.8-0.5,1.1-0.8
						c0,0,0.1,0,0.1,0c0.1-0.1,0.1-0.2,0.1-0.3c0.5-0.2,1-0.6,1.4-1.1c0.2-0.3,0.5-0.5,0.7-0.8c0.2-0.3,0.5-0.6,0.7-0.9
						c0.5-0.6,1-1.3,1.5-2c0.5-0.6,1-1.2,1.6-1.7c0.6-0.5,1.3-1,2-1.5c-0.1,0.3-0.3,0.8-0.5,1.1c-0.7,0.6-1.4,1.2-2.1,1.8
						c-0.3,0.3-0.7,0.6-1,0.9c-0.3,0.3-0.6,0.7-0.8,1c0.4-0.2,0.7-0.4,1.1-0.6c0.4-0.2,0.7-0.4,1.1-0.7c0.3-0.3,0.5-1,0.8-1.2
						c0.9-0.6,1.6-1.3,2.3-2c0.7-0.6,1.4-1.2,2.4-1.6c0.2-0.1,0.5,0.1,0.7,0c-0.5,0.3-1,0.6-1.4,1c-0.4,0.3-0.9,0.7-1.3,1.1
						c-0.8,0.7-1.7,1.5-2.6,2.3c-0.3,0.2-0.6,0.3-0.9,0.5c-0.2,0.3-0.4,0.5-0.6,0.7c-1.1,0.9-1.4,1.8-1.8,2.7
						c-0.4,0.8-0.7,1.7-1.8,2.5c0.5-0.4,0.9-1.2,1.2-2c0.4-0.8,0.6-1.6,0.8-2.1c-0.5,0.7-1.3,1.7-2.1,2.8c-0.4,0.6-0.8,1.1-1.1,1.6
						c-0.2,0.2-0.4,0.5-0.5,0.8c-0.2,0.2-0.3,0.5-0.5,0.7c-0.8,0.9-1.1,1.4-1.3,1.9c-0.2,0.5-0.3,1.1-0.7,2.1
						c-0.1,0.2-0.3,0.9-0.5,1.7c-0.2,0.8-0.3,1.7-0.5,2.2c0.7-1.5,1.1-2.8,1.6-3.5c0.1-0.3,0.3-0.7,0.4-1c0.1-0.2,0.2-0.3,0.2-0.5
						l0.3-0.5c0.4-0.6,0.7-1.3,1-1.8c0.6-1.2,1.3-1.9,1.5-2.2c0.2-0.2,0,0.2-0.8,1.7c-0.4,0.7-0.9,1.8-1.6,3.1
						c-0.3,0.7-0.7,1.5-1.1,2.4c-0.2,0.4-0.4,0.9-0.6,1.4c-0.2,0.5-0.4,1.1-0.6,1.6c0.1-0.1,0.3-0.4,0.5-0.9
						c0.1-0.2,0.3-0.5,0.4-0.8c0.2-0.3,0.3-0.5,0.5-0.8c0.7-1.1,1.4-2.1,1.5-2.1C51.8,41,50.9,42.6,49.9,44.2z M62,24.9
						c-0.7,0.3-1.3,0.6-2,0.9c7.4-5.1,16.5-7.1,24.3-11.2c-0.5,0.5-1,1-1.6,1.4c-0.9,0.5-1.7,1-2.6,1.5c-3.2,1.2-6.5,1.7-9.5,3.6
						c1.2-0.6,2.5-0.9,3.7-1c-1,0.4-2.1,0.8-3.1,1.2c-0.2,0.2-0.4,0.4-0.7,0.4c-0.2,0.1-0.4,0.2-0.6,0.3c-0.6,0.1-1.2,0.2-1.8,0.4
						c-1.4,0.5-2.8,1.1-4.1,1.7C63.3,24.3,62.7,24.6,62,24.9z M64.6,25.1c0.9-0.7,1.8-1.3,2.8-1.9c-0.2,0.1-0.3,0.2-0.4,0.3
						c-1.1,0.8-2.1,1.4-2.7,1.8c-0.5,0.4-1,0.7-1.4,1.1c-0.5,0.5-1.1,0.9-1.6,1.4c-1,0.9-2,2-2.9,2.9C59.4,28.8,62,26.8,64.6,25.1z"
						/>
					<path fill="#52A6DC" d="M55.9,27.7c0.8-0.3,1.7-0.9,2.4-1.4c0.9-0.8,1.9-1.6,2.8-2.3c-1.1,0.5-2.2,1.1-3.3,1.8
						C57.2,26.5,56.6,27.2,55.9,27.7z"/>
				</g>
				<g>
					<path fill="#FFF274" d="M81.7,17.4c-0.2,0.1-0.4,0.3-0.6,0.4c-0.4,0.5-0.8,1-1.3,1.5c-0.5,0.5-1,0.9-1.3,1.5
						c-0.3,0.3-0.6,0.8-0.9,1.3c-0.2,0.1-0.4,0.6-0.7,0.5c0.2-0.3,0.5-0.6,0.7-0.9c0.2-0.3,0.5-0.6,0.7-1c0.4-0.7,0.9-1.4,1.3-2
						c-0.1,0-0.2,0-0.3,0.1c-0.1-0.1-0.1-0.2-0.1-0.2s-0.1,0.1-0.2,0.2c0-0.3,0.5-0.9,0.2-0.8c-0.3,0.2-0.6,0.4-0.8,0.7
						c-0.2,0.3-0.4,0.6-0.6,0.9l-0.3,0.2c0.1,0,0.1,0,0.2,0c-0.1,0.1-0.1,0.2-0.2,0.3c-0.1,0.1-0.2,0.2-0.3,0.2
						c-0.5,0-0.9,0-1.3,0.1c-0.6,0.2-1.1,0.6-1.6,0.9c-0.5,0.4-1,0.7-1.5,1c-3.1,1.6-6.1,3.6-9.1,5.6c-0.2,0.1-0.5,0.3-0.7,0.5
						c4.1-2.1,7.7-4.5,11.6-6.8c0.8-0.4,1.6-0.9,2.3-1.3c-2,1.5-4.1,3-6.3,4.3c-0.6,0.4-1.2,0.7-1.8,1L68,26.3l-0.9,0.5
						c-0.6,0.3-1.2,0.7-1.8,1l-1.9,0.9c-0.2,0.1-0.3,0.2-0.5,0.2c0-0.1,0-0.3,0.1-0.4c-0.2,0.1-0.3,0.2-0.5,0.3
						c-0.8,0.4-1.5,0.8-2.2,1.3c0.4-0.1,0.8-0.3,1.1-0.4c0,0-0.1,0-0.1,0.1c-0.3,0.2-0.6,0.4-0.9,0.7c-0.3,0.2-0.6,0.5-0.9,0.7
						c-0.4,0.4-1.3,0.5-1.7,0.8c-0.9,0.7-1.9,1.3-3,1.9c-0.5,0.3-1,0.6-1.5,0.9c-0.5,0.3-0.9,0.7-1.3,1.1L51.3,36
						c0.4,0,0.7-0.1,1-0.2c0,0,0.1,0,0.1,0c0.1-0.1,0.1-0.1,0.1-0.1c0.5,0,0.9-0.1,1.4-0.4c0.4-0.2,0.9-0.6,1.3-0.9
						c0.9-0.7,1.7-1.6,2.6-2.2c0.5-0.3,1-0.6,1.5-0.9c-0.1,0.2-0.2,0.6-0.4,0.8c-0.5,0.4-1.1,0.7-1.7,1.1c-0.6,0.4-1.1,0.8-1.5,1.2
						c0.6-0.1,1.3-0.2,1.8-0.6c0.3-0.2,0.4-0.7,0.7-0.8c0.7-0.3,1.2-0.8,1.8-1.3c0.3-0.2,0.6-0.4,0.9-0.6c0.3-0.2,0.6-0.3,1-0.5
						c0.1-0.1,0.4,0.1,0.5,0c-0.8,0.4-1.4,1-2,1.5c-0.7,0.5-1.3,1-2.1,1.5c-0.3,0.1-0.5,0.1-0.8,0.2c-0.2,0.2-0.3,0.4-0.5,0.5
						c-0.5,0.2-0.8,0.5-1.1,0.8c-0.2,0.3-0.4,0.6-0.6,0.9c-0.3,0.6-0.7,1.1-1.8,1.3c1-0.3,1.7-1.8,2-2.5c-0.5,0.4-1.2,1-2,1.6
						c-0.8,0.6-1.6,1.2-2.3,1.4c-0.8,0.3-1.2,0.5-1.4,0.8c-0.1,0.1-0.3,0.3-0.4,0.4c-0.2,0.2-0.4,0.3-0.7,0.5
						c-0.3,0.2-1.2,1.4-1.8,1.8c0.3-0.1,0.6-0.2,0.8-0.3c0.2-0.1,0.4-0.2,0.6-0.4c0.4-0.2,0.7-0.4,1-0.5c0.2-0.1,0.4-0.3,0.6-0.4
						c0.2-0.1,0.4-0.3,0.6-0.5c0.4-0.3,0.9-0.6,1.2-0.8c0.8-0.5,1.4-0.9,1.6-1c0.2-0.1,0,0.2-0.9,0.9c-0.9,0.7-2.5,2-5.4,3.5
						c0.4,0,3.7-1.3,3.9-1.2c0.1,0.1-1.1,0.7-2.4,1.2c-1.3,0.5-2.7,0.9-2.5,1c0.4,0.2,3.5,0,4-0.2c0.1-0.1,0.3-0.2,0.2-0.4
						c0.7-0.2,1.1-0.5,1.7-0.8c1.5-1,2.5-2.4,4.5-2.8c0.2,0,0.3-0.5,0.5-0.6c1.2-0.6,2.6-0.9,3.7-1.7c0.7-0.5,1.7-0.6,2.3-1.1
						c0.8-0.6,1.6-1.2,2.5-1.7c0.9-0.5,1.8-1,2.7-1.4c-0.2-0.2-0.1-0.4,0-0.5c0.1-0.1,0.3-0.2,0.4-0.3c1.6-1.4,3.3-2.5,4.9-3.6
						c0.3-0.3,0.7-0.6,1-1c0.2-0.2,0.3-0.3,0.5-0.5c0.2-0.2,0.3-0.3,0.5-0.5c0.3-0.3,0.7-0.6,1.1-0.9c0.2-0.1,0.4-0.3,0.5-0.4
						c0.2-0.1,0.3-0.3,0.5-0.4c0.3-0.3,0.7-0.6,1-0.9c0.2-0.2,0.3-0.3,0.4-0.5c0.1-0.2,0.3-0.4,0.4-0.6c0.3-0.6,0.6-1.1,1-1.6
						c0.3-0.5,0.7-1.1,1.1-1.6C82,18.1,82,17.3,81.7,17.4z M64.9,30.1c-0.3,0.2-0.5,0.4-0.8,0.6c-0.3,0.2-0.5,0.3-0.7,0.4
						c-0.2,0.1-0.4,0.2-0.5,0.3c-0.4,0.3-0.7,0.5-1.1,0.8c-0.4,0.3-0.8,0.6-1.2,1c-0.4,0.3-0.8,0.7-1.2,1c-0.4,0.3-0.8,0.6-1.2,0.9
						c0.4-0.7,1.2-1.3,2-2c0.4-0.3,0.9-0.6,1.4-0.9c0.2-0.2,0.5-0.3,0.7-0.5c0.1-0.1,0.3-0.2,0.7-0.5c0.3-0.2,0.7-0.5,1-0.7
						c0.3-0.2,0.7-0.5,1-0.7C65,29.9,64.9,30,64.9,30.1z M75.5,23.1c-0.5,0.5-1.1,1-1.6,1.5c-2.2,1.2-4.5,1.8-6.6,3.4
						c0.4-0.3,0.9-0.5,1.3-0.6c0.4-0.1,0.9-0.2,1.3-0.3c-0.4,0.2-0.7,0.4-1.1,0.6c-0.4,0.2-0.7,0.3-1.1,0.5
						c-0.1,0.2-0.3,0.3-0.4,0.4c-0.1,0.1-0.3,0.1-0.4,0.2c-0.4,0.1-0.9,0.2-1.3,0.3c-1,0.4-2,0.8-3,1.2c-0.5,0.2-1,0.4-1.5,0.6
						c-0.5,0.2-1,0.3-1.6,0.5c2.9-1.6,5.9-2.9,8.8-4.4c2.9-1.5,5.7-3.1,8.2-5.2C76.2,22.2,75.9,22.7,75.5,23.1z"/>
					<path fill="#FFF274" d="M62.4,31.7c-0.1,0.1-0.1,0.1,0.1-0.1c0.1-0.1,0.2-0.1,0.4-0.3c0.1,0,0.1-0.1,0.2-0.1
						C62.9,31.4,62.6,31.6,62.4,31.7z"/>
					<path fill="#FFF274" d="M56.2,32.2c0.7-0.1,1.4-0.4,1.9-0.7c0.7-0.5,1.4-1,2.2-1.5c-0.9,0.3-1.7,0.6-2.5,1.1
						C57.2,31.5,56.7,31.9,56.2,32.2z"/>
				</g>
				<g>
					<g opacity="0.8">
						<path fill="#E34673" d="M55.9,32c-0.3,0.4-0.4,0.7-0.4,1.2c-0.1,0.6-0.9,1-1.3,1.5c-0.2,0.3-0.4,0.5-0.5,0.8
							c-0.6,0.5-1.1,1-1.4,1.7c-0.1,0-0.3,0.2,0.2,0.4c-0.3,0.3-0.6,0.5-0.9,0.8c-0.3,0.3-0.4,0.5-0.5,0.9c-0.1,0.3-0.6,0.3-0.7,0.6
							c-0.1,0.5-0.8,0.6-1,1c0,0.1,0.2,0.4,0.2,0.4c-0.8,0.2-0.4,1.2-0.4,1.9c-0.1,0.3-0.1,0.5-0.2,0.7c0.2,0.2,0.1,0.2,0.2,0.3
							c-0.1,0.2-1.2,0.5-1.5,0.3c-0.2-0.1,0.9-1.7,0.7-1.8c-0.2-0.1-0.7,1-0.9,1c0.1-0.7,0.1-1.2,0.1-1.7c0-0.4,0-0.8-0.1-1
							c-0.1-0.5-0.1-0.7-0.2-0.6c0,0-0.1,0.3-0.1,0.7c0,0.4,0,0.8,0,1.2c-0.2,0.1,0,0.6-0.2,1c0-0.3-0.5-1.3-0.5-1.4
							c0-0.6-0.4-0.8,0-1.2c0.3-0.4,0.1-1.4,0.1-1.8c0.3,0.4,0.9,1.4,0.7,1.6c0.4-0.1,0.3-0.4,0-0.8c-0.2-0.4-0.5-0.7-0.2-1
							c0-0.1,0-0.1,0-0.3c0.1,0,0.2-0.1,0.3-0.1c0.3-0.5,0.1-1.1,0.5-1.5c0,0-0.3-0.1-0.3,0c-0.7,0.2-0.3,0.8-0.6,1.1
							c-0.1,0,0.2,0.4,0.2,0.4c-0.1,0.2-0.4,0.2-0.6,0.3c-0.2-0.5,0.2-0.8,0.3-1.2c0-0.1-0.2-0.3-0.3-0.5c-0.1,0.1-0.2,0.3-0.3,0.4
							c-0.1,0.3,0.1,0.8,0.1,1.2c0.1,0.4,0,0.8-0.5,0.7c0,0,0,0,0,0.1c0,0,0,0-0.1,0c0,0.1-0.1,0.1-0.3,0.1l0.2-0.2
							c-0.4-1,0.3-1.4,0.3-2.1c-0.1-0.2,0.5-0.2,0.4-0.4c-0.1-0.5,0.3-0.8,0.8-1.1c1.7-1,3.5-2.2,5.6-3.4c0,0,0-0.1,0-0.1
							c-0.1,0-0.1,0-0.2,0c0.1,0,0.1,0,0.2-0.1c0-0.2,0.2-0.4,0.6-0.5c0.2,0,0,0.2,0.2,0.3c0.1,0,0.1-0.1,0.1-0.1s0.1,0,0.2,0.1
							c0-0.1,0.1,0,0.2,0c-0.1,0.5-0.2,1-0.4,1.5c0.4,0,0.3-0.1,0.4-0.2c0-0.2-0.1-0.4,0.1-0.5c0-0.4,0.8-0.7,1.1-1.1
							c0.1,0,0.3-0.1,0.4-0.1C55.7,31.5,56,31.8,55.9,32z M48.7,36.1c0.2,0,0.5-0.1,0.7-0.1c0,0,0.1-0.1,0.1-0.1
							c0.1,0,0.1-0.1,0.1-0.2c0.3-0.2,0.6-0.3,0.9-0.5c-0.6,0.1-1.1,0.1-1.3,0.4c0.2-0.4,0.6-0.6,1.2-0.8c0.5-0.2,1.2-0.4,1.7-0.6
							c0.2-0.2,0.4-0.4,0.5-0.6c0.1-0.2,0.1-0.3,0.1-0.5c-0.5,0.4-1.1,0.8-1.7,1.1c-0.6,0.3-1.2,0.7-1.8,1c-1.2,0.6-2.2,1.2-2.8,1.9
							c0.4-0.1,0.8-0.3,1.2-0.4C47.9,36.5,48.3,36.3,48.7,36.1z M48.9,36.5c-0.2,0.2-0.3,0.5-0.4,0.7c-0.4,0.6-0.8,1.2-0.3,2
							c0.1-0.7,0.1-1.4,0.3-2c-0.2,0.3-0.2,0.3-0.1,0.2c0.1-0.1,0.3-0.4,0.5-0.8C48.9,36.6,48.9,36.5,48.9,36.5z"/>
						<path fill="#E34673" d="M51,33c0.5-0.2,1-0.3,1.5-0.5c-0.4,0-0.8,0-1.1,0c-0.8,0.1-1,0.5-1.5,0.7c-0.8,0.3-1.4,0.6-1.9,1
							c-0.5,0.4-0.9,0.8-1.2,1.2c-0.1,0-0.2,0.1-0.1,0.2c0.6-0.4,1.2-0.9,1.9-1.4c0.3-0.2,0.7-0.5,1.1-0.7C50,33.4,50.5,33.2,51,33z
							"/>
						<path fill="#E34673" d="M45.1,36.8c0,0.2,0,0.4-0.1,0.5c0.3,0,0.5-0.1,0.6-0.3c0.1-0.2,0.1-0.5,0.3-0.7
							C45.6,36.5,45.3,36.6,45.1,36.8z"/>
						<path fill="#E34673" d="M46.6,35.7c0,0-0.1,0.1-0.1,0.1c-0.2,0.2-0.4,0.3-0.5,0.6c0.3-0.1,0.8-0.2,1.1-0.4
							C46.7,35.9,46.6,35.8,46.6,35.7z"/>
					</g>
				</g>
				<g>
					<g opacity="0.8">
						<path fill="#CBE3B1" d="M42.7,31.8c0.2,0.3,0.4,0.5,0.7,0.5c0.4,0.1,0.4,1,0.7,1.4c0.1,0.2,0.2,0.4,0.4,0.5
							c0.1,0.6,0.3,1.1,0.7,1.3c0,0.1,0,0.3,0.4-0.3c0.2,0.6,0.3,1.2,0.8,1.1c0.2,0,0.1,0.6,0.2,0.6c0.3-0.1,0.2,0.7,0.5,0.7
							c0.1-0.1,0.3-0.3,0.3-0.3c0,0.8,0.8,0,1.3-0.3c0.2,0,0.3-0.1,0.4-0.1c0.1-0.3,0.1-0.2,0.2-0.3c0.1,0,0.2,0.9,0.1,1.3
							c-0.1,0.2-1.1-0.1-1.2,0.2c-0.1,0.2,0.6,0.3,0.6,0.4c-1.9,1-2.5,1.3-2.5,1.4c0.1,0.1,0.8-0.2,1.4-0.6c0.1,0.1,0.5-0.3,0.7-0.2
							c-0.2,0.2-1,1-1.1,1c-0.5,0.3-0.7,0.7-1,0.5c-0.3-0.2-1.2,0.4-1.5,0.4c0.4-0.4,1.2-1.3,1.3-1.1c-0.1-0.7-1.1,1-1.4,0.6
							c0,0-0.1,0-0.2,0.1c0-0.1,0-0.2,0-0.3c-0.3-0.2-0.8,0-1-0.3c0,0-0.1,0.3-0.1,0.4c0,0.7,0.6,0.2,0.8,0.5c0,0.1,0.3-0.3,0.4-0.3
							c0.1,0,0.1,0.4,0.1,0.6c-0.4,0.3-0.6,0-0.9-0.1c-0.1,0-0.3,0.3-0.4,0.4c0.1,0.1,0.2,0.2,0.3,0.2c0.5,0.1,1.7-0.9,1.6,0
							c0,0,0,0,0.1-0.1c0,0,0,0.1,0,0.1c0.1,0,0.1,0.1,0.1,0.3l-0.1-0.1c-1,0.7-1.1,0-1.8,0.1c-0.2,0.1-0.1-0.5-0.2-0.4
							c-0.4,0.1-0.7-0.2-0.7-0.7c-0.2-0.8-0.3-1.7-0.4-2.7c-0.1-1-0.2-2-0.2-3.1c0,0-0.1,0-0.1,0c0,0.1,0,0.1-0.1,0.2
							c0-0.1,0-0.1,0-0.2c-0.1-0.1-0.2-0.2-0.2-0.6c0.1-0.2,0.1,0,0.3-0.2c0-0.1,0-0.1,0-0.1s0.1-0.1,0.1-0.3c-0.1,0,0-0.1,0-0.2
							c0.3,0.2,0.6,0.3,0.9,0.5c0.2-0.4,0-0.4,0-0.4c-0.1,0-0.3,0.1-0.3-0.1c-0.3-0.1-0.2-0.8-0.4-1.2c0-0.1,0-0.3,0-0.4
							C42.3,32,42.7,31.6,42.7,31.8z M43.3,39.3c0-0.2,0.1-0.5,0.1-0.8c0,0,0-0.1,0-0.1c0-0.1,0-0.1-0.1,0c0-0.3,0-0.6-0.1-0.9
							c-0.1,0.6-0.3,1.1-0.2,1.4c-0.4-0.4-0.1-1.9-0.1-3c-0.1-0.2-0.2-0.4-0.3-0.5c-0.1-0.1-0.2-0.1-0.3-0.1
							c0.2,1.1,0.2,2.4,0.3,3.6c0.1,1.2,0.2,2.2,0.7,2.8C43.4,40.8,43.3,40.2,43.3,39.3z M43.7,39c0.1,0.2,0.3,0.3,0.4,0.3
							c0.3,0.4,0.7,0.7,1.5,0c-0.5,0.1-1.1,0.2-1.5,0C44.4,39.7,44.2,39.3,43.7,39C43.7,39,43.7,39,43.7,39z"/>
						<path fill="#CBE3B1" d="M41.8,37c0.1-0.5,0.1-1,0.1-1.5c-0.1,0.4-0.3,0.8-0.4,1.2c-0.2,0.8,0,1,0,1.6
							c-0.1,1.6,0.2,2.6,0.6,3.2c0,0.1,0,0.2,0.2,0.1C42,40.3,41.7,39.1,41.8,37z"/>
						<path fill="#CBE3B1" d="M43,43c0.2,0,0.4-0.1,0.5,0c0.1-0.3-0.1-0.5-0.2-0.6c-0.2-0.1-0.4-0.1-0.5-0.2
							C42.8,42.5,42.9,42.8,43,43z"/>
						<path fill="#CBE3B1" d="M42.4,41.6c0,0,0,0.1,0,0.1c0.1,0.2,0.2,0.4,0.4,0.5c0-0.4,0-0.8-0.1-1.1
							C42.6,41.4,42.5,41.5,42.4,41.6z"/>
					</g>
				</g>
				<g>
					<g opacity="0.8">
						<path fill="#F99D41" d="M50.3,41.5c0.3,0.2,0.7,0.2,1.1,0.2c0.6,0,0.9,0.5,1.5,0.7c0.3,0.1,0.6,0.1,0.9,0.2
							c0.3,0.2,0.6,0.3,0.9,0.4c0.3,0.1,0.7,0.1,1.1,0.1c0.1,0,0.3,0.2,0.4-0.3c0.7,0.3,1.3,0.5,2.1,0.2c0.2,0,0.3,0,0.4,0.1
							c0.1,0.1,0.3,0.1,0.5,0.1c0.5-0.2,1,0.2,1.5,0c0.1-0.1,0.2-0.3,0.3-0.3c0.7,0.3,1.4-0.5,2-0.9c0.3-0.1,0.5-0.3,0.7-0.3
							c0-0.2,0.1-0.2,0.1-0.3c0.2,0,1.2,0.2,1.3,0.4c0.1,0.1-2,0.7-2,0.9c0,0.1,1.4-0.4,1.5-0.3c-0.6,0.4-1.1,0.8-1.5,1.1
							c-0.4,0.3-0.7,0.5-1,0.7c-0.5,0.3-0.6,0.5-0.5,0.5c0.1,0,0.4-0.2,0.8-0.4c0.2-0.1,0.4-0.2,0.6-0.4c0.2-0.1,0.4-0.3,0.6-0.4
							c0.2,0,0.6-0.4,1-0.6c-0.3,0.2-0.8,1.1-1,1.2c-0.6,0.5-0.5,0.7-1.3,0.8c-0.6,0.1-1.7,0.9-2.2,1.1c0.3-0.4,1-1.3,1.4-1.3
							c-0.4-0.1-0.7,0.2-0.9,0.5c-0.3,0.3-0.6,0.7-1,0.7c-0.1,0-0.2,0.1-0.3,0.2c-0.1,0-0.2-0.1-0.3-0.1c-0.7,0.1-1.4,0.5-2.1,0.4
							c0.1,0,0.1,0.2,0.1,0.2c0.6,0.3,1.2-0.2,1.8-0.2c0.1,0,0.3-0.3,0.5-0.3c0.3-0.1,0.5,0.1,0.7,0.2c-0.5,0.4-1.1,0.4-1.7,0.5
							c-0.1,0.1-0.3,0.3-0.4,0.4c0.3,0,0.5,0,0.8-0.1c0.5-0.1,1-0.5,1.5-0.8c0.5-0.3,1-0.5,1.3-0.2c0,0,0,0,0.1-0.1c0,0,0,0,0,0
							c0.1,0,0.3,0,0.4,0.1l-0.3,0c-0.5,0.4-1,0.6-1.5,0.8c-0.5,0.1-1,0.2-1.5,0.4c-0.2,0.1-0.6-0.2-0.8,0c-0.7,0.3-1.4,0.3-2,0
							c-2.1-0.7-4-1.7-5.4-3.2c0,0-0.1,0-0.1,0c0,0,0,0.1,0,0.1c0,0,0-0.1-0.1-0.1c-0.3,0-0.5-0.1-0.6-0.4c0-0.2,0.2,0,0.3-0.2
							c0,0-0.1-0.1-0.1-0.1s0.1-0.1,0.1-0.2c-0.1,0,0-0.1,0-0.2c0.5,0.1,1,0.1,1.6,0.1c0.1-0.3-0.1-0.2-0.2-0.3
							c-0.2,0.1-0.4,0.1-0.5,0c-0.5,0-0.7-0.5-1-0.7c0-0.1-0.1-0.2-0.1-0.3C49.8,41.7,50.2,41.4,50.3,41.5z M55.6,46
							c-0.1-0.1-0.3-0.3-0.4-0.5c-0.1,0-0.1,0-0.2-0.1c-0.1,0-0.1,0-0.2,0c-0.3-0.2-0.5-0.3-0.8-0.5c0.2,0.4,0.4,0.7,0.8,0.8
							c-0.3,0-0.5-0.1-0.7-0.2c-0.2-0.1-0.4-0.3-0.6-0.4c-0.3-0.3-0.6-0.8-1-1.1c-0.2-0.1-0.5-0.2-0.7-0.3c-0.2,0-0.4,0-0.6,0
							c0.5,0.3,0.9,0.7,1.4,1c0.5,0.3,1,0.7,1.5,1c0.6,0.3,1.1,0.6,1.8,0.8c0.6,0.2,1.3,0.3,2,0.3c-0.4-0.2-0.8-0.4-1.2-0.5
							C56.3,46.4,55.9,46.2,55.6,46z M56,45.7c0.3,0,0.7,0,1,0c0.4,0,0.9,0,1.4-0.1c0.5-0.1,0.9-0.3,1.2-0.7
							c-0.4,0.2-0.8,0.4-1.3,0.5c-0.4,0.1-0.9,0.2-1.3,0.3c0.8,0,0.2-0.1-0.9,0C56.1,45.7,56,45.7,56,45.7z"/>
						<path fill="#F99D41" d="M51.2,45.2c-0.2-0.4-0.5-0.7-0.6-1c0,0.3,0,0.6,0,0.9c0.2,0.6,0.7,0.6,1,1c0.5,0.5,1.1,0.9,1.7,1.2
							c0.7,0.3,1.4,0.4,2.1,0.4c0.1,0,0.2,0.1,0.4,0C54.1,47.1,52.4,46.6,51.2,45.2z"/>
						<path fill="#F99D41" d="M58.3,47.9c0.3-0.1,0.6-0.2,0.9-0.3c-0.2-0.2-0.6-0.2-0.8-0.2c-0.4,0.1-0.8,0.2-1.2,0.2
							C57.6,47.8,57.9,47.9,58.3,47.9z"/>
						<path fill="#F99D41" d="M55.9,47.6c0.1,0,0.1,0,0.2,0c0.3,0.1,0.7,0.1,1.1,0c-0.4-0.2-0.7-0.4-1.1-0.5
							C56.1,47.4,56,47.5,55.9,47.6z"/>
					</g>
				</g>
				<g>
					<path fill="#52A6DC" d="M64.4,25.3c0.1-0.1,0.2-0.1,0.3-0.2C63.2,26.1,63.3,26,64.4,25.3z"/>
					<path fill="#52A6DC" d="M49.9,44.2c-0.8,1.7-1.7,3.4-1.6,3.4c0.2,0,0.9-0.7,1.6-1.5c0.3-0.4,0.7-0.8,0.9-1.1
						c0.3-0.3,0.5-0.6,0.6-0.7c0.1-0.3,0.2-0.4,0.1-0.7c0.3-0.4,0.5-0.7,0.6-1.1c0.2-0.4,0.4-0.8,0.6-1.1c0.6-1,1-2.2,1.7-3.3
						c0.6-1,1.4-1.9,2.4-2.5c0.2-0.1,0.3-0.7,0.5-1c0.6-0.6,1.3-1.1,2.1-1.6c0.8-0.5,1.5-0.9,2.1-1.6c0.4-0.4,0.9-0.6,1.4-0.9
						c0.5-0.2,1-0.5,1.5-0.9c1.9-1.8,4.4-3,6.9-4.2c-0.5-0.5,0.4-0.8,0.7-0.9c2.3-1.6,4.8-2.8,7.1-3.9c1-0.7,2-1.3,3.1-1.9
						c0.6-0.3,1.1-0.6,1.7-0.9c0.5-0.3,1.1-0.6,1.6-0.8c1.1-0.6,2.1-1.1,3-2c0.6-0.6,1.1-1.1,1.7-1.6c0.6-0.5,1.2-1.1,1.9-1.6
						c0.5-0.3,0.8-1.2,0.4-1.1c-0.3,0.1-0.6,0.2-0.9,0.3c-0.7,0.5-1.4,1-2.2,1.4c-0.8,0.4-1.5,0.9-2.2,1.5c-0.6,0.3-1,0.8-1.5,1.3
						c-0.3,0.1-0.7,0.6-1.1,0.4c0.8-0.6,1.6-1.2,2.4-1.9c0.4-0.3,0.8-0.7,1.2-1c0.4-0.3,0.8-0.7,1.1-1c-0.1,0-0.3-0.1-0.4,0.1
						c-0.1-0.1-0.1-0.3-0.1-0.3s-0.2,0.1-0.4,0.2c0.1-0.4,0.9-0.9,0.5-0.9c-0.9,0.4-1.7,0.9-2.3,1.5c-0.2,0.1-0.3,0.1-0.5,0.2
						c0.1,0,0.2,0,0.3,0c-0.1,0.1-0.2,0.2-0.4,0.4c-0.2,0.1-0.3,0.2-0.5,0.2c-0.6,0-1.2-0.1-1.8,0c-0.8,0.2-1.6,0.5-2.4,0.9
						c-0.8,0.4-1.5,0.7-2.3,1c-4.6,1.6-9,3.6-13.3,6.2c-0.2,0.1-0.7,0.4-1,0.7c5.7-2.9,11.1-5.3,17-7.5c1.2-0.4,2.3-0.8,3.5-1.2
						c-6.5,3-13.4,5.7-20,8.8c-0.2,0.1-0.4,0.2-0.7,0.3c0-0.2,0-0.3,0.2-0.5c-0.2,0.1-0.4,0.2-0.7,0.3c-1,0.5-2,1.2-3,1.9
						c0.5-0.2,1-0.4,1.5-0.6c-0.9,0.6-1.8,1.3-2.5,2.1c-0.5,0.5-1.7,0.8-2.2,1.4c-0.5,0.6-1.1,1.1-1.7,1.7c-0.6,0.5-1.2,1.1-1.8,1.7
						c-1.2,1.1-2.2,2.4-2.8,3.8c0,0-0.2,0.2-0.4,0.4c-0.1,0.1-0.2,0.2-0.3,0.3c-0.1,0.1-0.1,0.1-0.1,0.1c0.4-0.2,0.8-0.5,1.1-0.8
						c0,0,0.1,0,0.1,0c0.1-0.1,0.1-0.2,0.1-0.3c0.5-0.2,1-0.6,1.4-1.1c0.2-0.3,0.5-0.5,0.7-0.8c0.2-0.3,0.5-0.6,0.7-0.9
						c0.5-0.6,1-1.3,1.5-2c0.5-0.6,1-1.2,1.6-1.7c0.6-0.5,1.3-1,2-1.5c-0.1,0.3-0.3,0.8-0.5,1.1c-0.7,0.6-1.4,1.2-2.1,1.8
						c-0.3,0.3-0.7,0.6-1,0.9c-0.3,0.3-0.6,0.7-0.8,1c0.4-0.2,0.7-0.4,1.1-0.6c0.4-0.2,0.7-0.4,1.1-0.7c0.3-0.3,0.5-1,0.8-1.2
						c0.9-0.6,1.6-1.3,2.3-2c0.7-0.6,1.4-1.2,2.4-1.6c0.2-0.1,0.5,0.1,0.7,0c-0.5,0.3-1,0.6-1.4,1c-0.4,0.3-0.9,0.7-1.3,1.1
						c-0.8,0.7-1.7,1.5-2.6,2.3c-0.3,0.2-0.6,0.3-0.9,0.5c-0.2,0.3-0.4,0.5-0.6,0.7c-1.1,0.9-1.4,1.8-1.8,2.7
						c-0.4,0.8-0.7,1.7-1.8,2.5c0.5-0.4,0.9-1.2,1.2-2c0.4-0.8,0.6-1.6,0.8-2.1c-0.5,0.7-1.3,1.7-2.1,2.8c-0.4,0.6-0.8,1.1-1.1,1.6
						c-0.2,0.2-0.4,0.5-0.5,0.8c-0.2,0.2-0.3,0.5-0.5,0.7c-0.8,0.9-1.1,1.4-1.3,1.9c-0.2,0.5-0.3,1.1-0.7,2.1
						c-0.1,0.2-0.3,0.9-0.5,1.7c-0.2,0.8-0.3,1.7-0.5,2.2c0.7-1.5,1.1-2.8,1.6-3.5c0.1-0.3,0.3-0.7,0.4-1c0.1-0.2,0.2-0.3,0.2-0.5
						l0.3-0.5c0.4-0.6,0.7-1.3,1-1.8c0.6-1.2,1.3-1.9,1.5-2.2c0.2-0.2,0,0.2-0.8,1.7c-0.4,0.7-0.9,1.8-1.6,3.1
						c-0.3,0.7-0.7,1.5-1.1,2.4c-0.2,0.4-0.4,0.9-0.6,1.4c-0.2,0.5-0.4,1.1-0.6,1.6c0.1-0.1,0.3-0.4,0.5-0.9
						c0.1-0.2,0.3-0.5,0.4-0.8c0.2-0.3,0.3-0.5,0.5-0.8c0.7-1.1,1.4-2.1,1.5-2.1C51.8,41,50.9,42.6,49.9,44.2z M62,24.9
						c-0.7,0.3-1.3,0.6-2,0.9c7.4-5.1,16.5-7.1,24.3-11.2c-0.5,0.5-1,1-1.6,1.4c-0.9,0.5-1.7,1-2.6,1.5c-3.2,1.2-6.5,1.7-9.5,3.6
						c1.2-0.6,2.5-0.9,3.7-1c-1,0.4-2.1,0.8-3.1,1.2c-0.2,0.2-0.4,0.4-0.7,0.4c-0.2,0.1-0.4,0.2-0.6,0.3c-0.6,0.1-1.2,0.2-1.8,0.4
						c-1.4,0.5-2.8,1.1-4.1,1.7C63.3,24.3,62.7,24.6,62,24.9z M64.6,25.1c0.9-0.7,1.8-1.3,2.8-1.9c-0.2,0.1-0.3,0.2-0.4,0.3
						c-1.1,0.8-2.1,1.4-2.7,1.8c-0.5,0.4-1,0.7-1.4,1.1c-0.5,0.5-1.1,0.9-1.6,1.4c-1,0.9-2,2-2.9,2.9C59.4,28.8,62,26.8,64.6,25.1z"
						/>
					<path fill="#52A6DC" d="M55.9,27.7c0.8-0.3,1.7-0.9,2.4-1.4c0.9-0.8,1.9-1.6,2.8-2.3c-1.1,0.5-2.2,1.1-3.3,1.8
						C57.2,26.5,56.6,27.2,55.9,27.7z"/>
				</g>
				<g>
					<path fill="#FFF274" d="M81.7,17.4c-0.2,0.1-0.4,0.3-0.6,0.4c-0.4,0.5-0.8,1-1.3,1.5c-0.5,0.5-1,0.9-1.3,1.5
						c-0.3,0.3-0.6,0.8-0.9,1.3c-0.2,0.1-0.4,0.6-0.7,0.5c0.2-0.3,0.5-0.6,0.7-0.9c0.2-0.3,0.5-0.6,0.7-1c0.4-0.7,0.9-1.4,1.3-2
						c-0.1,0-0.2,0-0.3,0.1c-0.1-0.1-0.1-0.2-0.1-0.2s-0.1,0.1-0.2,0.2c0-0.3,0.5-0.9,0.2-0.8c-0.3,0.2-0.6,0.4-0.8,0.7
						c-0.2,0.3-0.4,0.6-0.6,0.9l-0.3,0.2c0.1,0,0.1,0,0.2,0c-0.1,0.1-0.1,0.2-0.2,0.3c-0.1,0.1-0.2,0.2-0.3,0.2
						c-0.5,0-0.9,0-1.3,0.1c-0.6,0.2-1.1,0.6-1.6,0.9c-0.5,0.4-1,0.7-1.5,1c-3.1,1.6-6.1,3.6-9.1,5.6c-0.2,0.1-0.5,0.3-0.7,0.5
						c4.1-2.1,7.7-4.5,11.6-6.8c0.8-0.4,1.6-0.9,2.3-1.3c-2,1.5-4.1,3-6.3,4.3c-0.6,0.4-1.2,0.7-1.8,1L68,26.3l-0.9,0.5
						c-0.6,0.3-1.2,0.7-1.8,1l-1.9,0.9c-0.2,0.1-0.3,0.2-0.5,0.2c0-0.1,0-0.3,0.1-0.4c-0.2,0.1-0.3,0.2-0.5,0.3
						c-0.8,0.4-1.5,0.8-2.2,1.3c0.4-0.1,0.8-0.3,1.1-0.4c0,0-0.1,0-0.1,0.1c-0.3,0.2-0.6,0.4-0.9,0.7c-0.3,0.2-0.6,0.5-0.9,0.7
						c-0.4,0.4-1.3,0.5-1.7,0.8c-0.9,0.7-1.9,1.3-3,1.9c-0.5,0.3-1,0.6-1.5,0.9c-0.5,0.3-0.9,0.7-1.3,1.1L51.3,36
						c0.4,0,0.7-0.1,1-0.2c0,0,0.1,0,0.1,0c0.1-0.1,0.1-0.1,0.1-0.1c0.5,0,0.9-0.1,1.4-0.4c0.4-0.2,0.9-0.6,1.3-0.9
						c0.9-0.7,1.7-1.6,2.6-2.2c0.5-0.3,1-0.6,1.5-0.9c-0.1,0.2-0.2,0.6-0.4,0.8c-0.5,0.4-1.1,0.7-1.7,1.1c-0.6,0.4-1.1,0.8-1.5,1.2
						c0.6-0.1,1.3-0.2,1.8-0.6c0.3-0.2,0.4-0.7,0.7-0.8c0.7-0.3,1.2-0.8,1.8-1.3c0.3-0.2,0.6-0.4,0.9-0.6c0.3-0.2,0.6-0.3,1-0.5
						c0.1-0.1,0.4,0.1,0.5,0c-0.8,0.4-1.4,1-2,1.5c-0.7,0.5-1.3,1-2.1,1.5c-0.3,0.1-0.5,0.1-0.8,0.2c-0.2,0.2-0.3,0.4-0.5,0.5
						c-0.5,0.2-0.8,0.5-1.1,0.8c-0.2,0.3-0.4,0.6-0.6,0.9c-0.3,0.6-0.7,1.1-1.8,1.3c1-0.3,1.7-1.8,2-2.5c-0.5,0.4-1.2,1-2,1.6
						c-0.8,0.6-1.6,1.2-2.3,1.4c-0.8,0.3-1.2,0.5-1.4,0.8c-0.1,0.1-0.3,0.3-0.4,0.4c-0.2,0.2-0.4,0.3-0.7,0.5
						c-0.3,0.2-1.2,1.4-1.8,1.8c0.3-0.1,0.6-0.2,0.8-0.3c0.2-0.1,0.4-0.2,0.6-0.4c0.4-0.2,0.7-0.4,1-0.5c0.2-0.1,0.4-0.3,0.6-0.4
						c0.2-0.1,0.4-0.3,0.6-0.5c0.4-0.3,0.9-0.6,1.2-0.8c0.8-0.5,1.4-0.9,1.6-1c0.2-0.1,0,0.2-0.9,0.9c-0.9,0.7-2.5,2-5.4,3.5
						c0.4,0,3.7-1.3,3.9-1.2c0.1,0.1-1.1,0.7-2.4,1.2c-1.3,0.5-2.7,0.9-2.5,1c0.4,0.2,3.5,0,4-0.2c0.1-0.1,0.3-0.2,0.2-0.4
						c0.7-0.2,1.1-0.5,1.7-0.8c1.5-1,2.5-2.4,4.5-2.8c0.2,0,0.3-0.5,0.5-0.6c1.2-0.6,2.6-0.9,3.7-1.7c0.7-0.5,1.7-0.6,2.3-1.1
						c0.8-0.6,1.6-1.2,2.5-1.7c0.9-0.5,1.8-1,2.7-1.4c-0.2-0.2-0.1-0.4,0-0.5c0.1-0.1,0.3-0.2,0.4-0.3c1.6-1.4,3.3-2.5,4.9-3.6
						c0.3-0.3,0.7-0.6,1-1c0.2-0.2,0.3-0.3,0.5-0.5c0.2-0.2,0.3-0.3,0.5-0.5c0.3-0.3,0.7-0.6,1.1-0.9c0.2-0.1,0.4-0.3,0.5-0.4
						c0.2-0.1,0.3-0.3,0.5-0.4c0.3-0.3,0.7-0.6,1-0.9c0.2-0.2,0.3-0.3,0.4-0.5c0.1-0.2,0.3-0.4,0.4-0.6c0.3-0.6,0.6-1.1,1-1.6
						c0.3-0.5,0.7-1.1,1.1-1.6C82,18.1,82,17.3,81.7,17.4z M64.9,30.1c-0.3,0.2-0.5,0.4-0.8,0.6c-0.3,0.2-0.5,0.3-0.7,0.4
						c-0.2,0.1-0.4,0.2-0.5,0.3c-0.4,0.3-0.7,0.5-1.1,0.8c-0.4,0.3-0.8,0.6-1.2,1c-0.4,0.3-0.8,0.7-1.2,1c-0.4,0.3-0.8,0.6-1.2,0.9
						c0.4-0.7,1.2-1.3,2-2c0.4-0.3,0.9-0.6,1.4-0.9c0.2-0.2,0.5-0.3,0.7-0.5c0.1-0.1,0.3-0.2,0.7-0.5c0.3-0.2,0.7-0.5,1-0.7
						c0.3-0.2,0.7-0.5,1-0.7C65,29.9,64.9,30,64.9,30.1z M75.5,23.1c-0.5,0.5-1.1,1-1.6,1.5c-2.2,1.2-4.5,1.8-6.6,3.4
						c0.4-0.3,0.9-0.5,1.3-0.6c0.4-0.1,0.9-0.2,1.3-0.3c-0.4,0.2-0.7,0.4-1.1,0.6c-0.4,0.2-0.7,0.3-1.1,0.5
						c-0.1,0.2-0.3,0.3-0.4,0.4c-0.1,0.1-0.3,0.1-0.4,0.2c-0.4,0.1-0.9,0.2-1.3,0.3c-1,0.4-2,0.8-3,1.2c-0.5,0.2-1,0.4-1.5,0.6
						c-0.5,0.2-1,0.3-1.6,0.5c2.9-1.6,5.9-2.9,8.8-4.4c2.9-1.5,5.7-3.1,8.2-5.2C76.2,22.2,75.9,22.7,75.5,23.1z"/>
					<path fill="#FFF274" d="M62.4,31.7c-0.1,0.1-0.1,0.1,0.1-0.1c0.1-0.1,0.2-0.1,0.4-0.3c0.1,0,0.1-0.1,0.2-0.1
						C62.9,31.4,62.6,31.6,62.4,31.7z"/>
					<path fill="#FFF274" d="M56.2,32.2c0.7-0.1,1.4-0.4,1.9-0.7c0.7-0.5,1.4-1,2.2-1.5c-0.9,0.3-1.7,0.6-2.5,1.1
						C57.2,31.5,56.7,31.9,56.2,32.2z"/>
				</g>
			</g>
			<g>
				<g opacity="0.8">
					<path fill="#E34673" d="M50.2-7c-0.4,1.6-0.5,2.9-0.5,4.3c-0.1,2.1-1,4.3-1.4,6.6c-0.3,1.2-0.3,2.2-0.4,3.3
						c-0.6,2.3-1,4.8-1.1,7.3c-0.1,0.3-0.3,1.1,0.4,0.8c-0.1,0.6-0.2,1.2-0.3,1.9c-0.1,0.6-0.2,1.2-0.2,1.8
						c-0.1,1.2-0.1,2.3,0.1,3.4c0,0.5-0.1,1-0.1,1.5c-0.1,0.5-0.2,1-0.1,1.5c0.4,1.4-0.2,3.2,0.1,4.6c0.1,0.2,0.5,0.5,0.5,0.7
						c-0.3,2.2,1,3.7,1.7,5.4c0.1,0.4,0.3,0.6,0.4,0.9c0.1,0.3,0.2,0.6,0.3,0.9c0.3,0,0.3,0.1,0.4,0.3c0.2,0.5,0.2,3.6-0.1,4
						c-0.1,0.2-1.9-5.5-2.2-5.3c-0.1,0.2,1.1,3.8,1.1,4.1c-0.9-1.5-1.6-2.8-2.1-3.8c-0.5-1.1-0.9-1.8-1.1-2.4
						c-0.6-1.2-0.8-1.5-0.8-1.2c0,0.2,0.3,1,0.7,1.9c0.2,0.5,0.4,1,0.6,1.5c0.2,0.5,0.5,1,0.8,1.5c0.1,0.7,0.8,1.4,1.2,2.7
						c-0.4-0.7-1.9-1.8-2-2.1c-0.4-0.7-0.8-1-1-1.3c-0.2-0.3-0.4-0.7-0.5-1.7c-0.2-1.6-1.6-4.1-1.9-5.4c0.3,0.3,0.7,0.8,1.1,1.3
						c0.4,0.5,0.8,1.1,0.8,1.7c0.1-1.2-0.4-1.8-0.8-2.3c-0.4-0.5-1-1.1-1-2.3c0-0.2-0.1-0.5-0.2-0.7c0-0.3,0.1-0.6,0.1-0.9
						c0-0.5-0.1-1-0.2-1.5c-0.1-0.5-0.1-0.9-0.2-1.4c-0.1-0.9-0.2-1.9-0.2-2.9c0,0.2-0.3,0.4-0.3,0.6c-0.3,1-0.2,1.8-0.1,2.6
						c0.1,0.8,0.2,1.6,0.3,2.5c-0.1,0.4,0.5,0.7,0.5,1.1c0.1,0.7-0.1,1.5-0.2,2.3c-0.5-1.3-0.6-2.9-0.8-4.4
						c-0.1-0.3-0.4-0.6-0.6-0.8c0,0.7,0,1.4,0.1,2.1c0.2,1.2,0.7,2.5,1.1,3.7c0.2,0.6,0.3,1.2,0.5,1.8c0.1,0.6,0.1,1.1,0,1.6
						c0,0,0.1,0.1,0.1,0.2c0,0,0,0.1-0.1,0.1c0.1,0.3,0.1,0.7,0,1.2l-0.1-0.9c-0.4-0.5-0.6-1.1-0.8-1.7c-0.1-0.1-0.1-0.3-0.1-0.5
						c0-0.2-0.1-0.3-0.1-0.5c-0.1-0.3-0.1-0.7-0.1-1c-0.2-1.3-0.3-2.7-0.6-4c-0.2-0.5,0.3-1.7,0.1-2.3c-0.4-1.7-0.3-3.6,0.1-5.5
						c1.2-6.9,3-13.9,5.5-21c0-0.1,0-0.3,0-0.4c-0.1,0.1-0.1,0.2-0.2,0.3c0.1-0.2,0.2-0.3,0.2-0.5c0.1-0.8,0.3-1.7,0.7-2.6
						c0.3-0.4-0.1,0.6,0.2,0.8c0.1-0.2,0.1-0.4,0.1-0.4s0.1,0,0.3,0c0-0.1,0.1-0.3,0.2-0.4c-0.2,1.8-0.4,3.6-0.5,5.5
						c0.4-0.3,0.4-0.8,0.5-1.1c0-0.6-0.1-1.2,0.1-1.8c0.1-1.5,0.9-3.3,1.3-4.9c0.1-0.3,0.3-0.6,0.5-0.9C50-8.2,50.4-7.6,50.2-7z
						 M42.8,17.3c0.2-0.6,0.4-1.1,0.7-1.7c0-0.2,0.1-0.4,0.1-0.6c0.1-0.2,0-0.5,0-0.7c0.1-0.5,0.3-1,0.4-1.5c0.1-0.5,0.3-1,0.4-1.5
						c-0.3,0.6-0.6,1.1-0.8,1.7c-0.2,0.6-0.4,1.2-0.5,1.8c0-0.8,0.1-1.5,0.3-2.3c0.2-0.8,0.4-1.6,0.7-2.3c0.6-1.6,1.2-3.1,1.7-4.7
						c0.2-0.9,0.4-1.8,0.5-2.8c0.1-0.6,0.1-1.3,0.1-1.9c-0.3,1-0.6,2.1-0.9,3.1c-0.3,1-0.6,2.1-0.9,3.1c-0.6,2.1-1.2,4.1-1.8,6.2
						c-0.5,2-1,4.1-1.3,6.1c-0.3,2-0.5,4-0.6,6c0.3-1.4,0.6-2.7,0.8-4c0.1-0.7,0.2-1.3,0.4-2C42.4,18.7,42.6,18,42.8,17.3z
						 M43.1,18.1c0,0.5-0.1,1-0.1,1.5c0,0.5,0,1,0,1.5c0,1.3,0,2.7,0.1,4c0,0.3,0.1,0.6,0.1,0.9c0.1,0.3,0.1,0.5,0.2,0.8
						c0.2,0.5,0.4,0.9,0.7,1.3c-0.6-2.1-0.9-4.5-1.1-6.9c0,1.2,0,1.4,0,0.8c0-0.3,0-0.7,0-1.3c0-0.6,0-1.3,0-2.1
						C43.1,18.5,43.1,18.3,43.1,18.1z"/>
					<path fill="#E34673" d="M44.6,3c0.6-1.3,1.1-2.5,1.6-3.8c-0.5,0.6-0.9,1.1-1.3,1.7c-0.9,1.6-1.1,3.2-1.7,4.7
						c-0.4,1.1-0.8,2.3-1.1,3.4c-0.3,1.1-0.6,2.3-0.9,3.4c-0.3,1.1-0.4,2.2-0.6,3.3c-0.1,1.1-0.3,2.2-0.3,3.3c-0.1,0.2-0.1,0.7,0,1
						C41.3,14.3,42.3,8.9,44.6,3z"/>
					<path fill="#E34673" d="M39.8,27.2c0.2,0.7,0.4,1.5,0.4,2.2c0.2-0.8,0.2-1.7,0.2-2.5c-0.1-1-0.2-2.1-0.2-3.1
						C40,25,39.8,26.1,39.8,27.2z"/>
					<path fill="#E34673" d="M40.4,20.1c0,0.2-0.1,0.5-0.1,0.7c-0.1,1.1-0.2,2.1-0.1,3.1c0.2-1.2,0.5-2.4,0.8-3.6
						C40.7,20.4,40.5,20.3,40.4,20.1z"/>
				</g>
			</g>
			<g>
				<g opacity="0.8">
					<path fill="#52A6DC" d="M77.3,5.9c-0.1,0.3-0.1,0.5,0.1,0.5c0.1,0.2-0.4,1-0.5,1.4c-0.1,0.3-0.1,0.4-0.1,0.6
						c-0.3,0.6-0.4,1.2-0.3,1.6c0,0.1-0.1,0.4,0.3-0.2c-0.2,0.7-0.4,1.4-0.1,1.5c0.1,0.1-0.3,0.7-0.2,0.8c0.3,0.1-0.2,0.9,0,1.1
						c0.1,0,0.4-0.2,0.4-0.1c-0.2,0.5-0.1,0.6,0.2,0.6c0.2,0,0.6,0.2,0.8,0.4c0.1,0.2,0.3,0.3,0.3,0.6c0.2-0.1,0.2,0,0.3,0
						c0,0.2-0.5,1.3-0.8,1.4c-0.1,0-0.2-0.3-0.3-0.7c0-0.1-0.1-0.2-0.1-0.2c0-0.1-0.1-0.2-0.1-0.2c-0.1-0.1-0.2-0.2-0.2-0.1
						c-0.1,0.1,0,0.3,0,0.6c0,0.2,0.1,0.5,0.1,0.5c-0.2-0.1-0.4-0.3-0.5-0.4c-0.2-0.1-0.3-0.2-0.5-0.2c-0.3-0.1-0.5-0.1-0.7-0.1
						c-0.3,0-0.5,0.1-0.5,0.1c0,0.1,0.5,0.1,1.1,0.3c0,0.2,0.4,0.2,0.5,0.4c-0.2-0.1-1.1,0-1.2,0c-0.4,0-0.8,0.2-0.8,0
						c0-0.1-0.2-0.1-0.4,0c-0.2,0-0.4,0.2-0.5,0.2c0.4-0.3,1.3-0.9,1.3-0.7c0.2-0.4-0.1-0.2-0.4,0c-0.3,0.2-0.7,0.5-0.7,0.3
						c0,0-0.1,0-0.2,0c0-0.1,0.1-0.2,0.1-0.3c0-0.3-0.5-0.1-0.4-0.6c0,0-0.2,0.3-0.2,0.4c-0.4,0.7,0.2,0.3,0.2,0.7
						c-0.1,0.1,0.3-0.2,0.3-0.2c0.1,0.1-0.2,0.4-0.3,0.6c-0.4,0.2-0.3-0.1-0.4-0.2c0,0-0.3,0.2-0.4,0.3c0,0.1,0,0.2,0,0.3
						c0.1,0.1,0.4-0.1,0.7-0.2c0.2-0.1,0.4-0.1,0.1,0.3c0,0,0,0,0.1-0.1c0,0,0,0-0.1,0.1c0,0,0,0.1-0.2,0.2l0-0.1
						c-0.4,0.3-0.5,0.3-0.6,0.3c-0.1-0.1-0.1-0.3-0.3-0.2c-0.1,0.1,0.3-0.5,0.1-0.4c-0.3,0-0.3-0.3,0-0.9c0.6-2,1.4-4.2,2.6-6.6
						c0,0,0,0,0,0c-0.1,0.1-0.1,0.1-0.1,0.2c0-0.1,0.1-0.1,0.1-0.2c0-0.1,0-0.3,0.3-0.7c0.2-0.2,0,0.1,0.2-0.1
						c0-0.1,0.1-0.1,0.1-0.1s0.1-0.1,0.2-0.2c-0.1,0,0.1-0.1,0.2-0.2c0.1,0.2,0.2,0.4,0.2,0.7C76.2,8,76.1,8,76.2,8
						c-0.1,0-0.2,0-0.1-0.2c-0.1-0.1,0.4-0.8,0.5-1.2c0.1-0.1,0.2-0.2,0.3-0.4C77,6,77.4,5.8,77.3,5.9z M73.6,13.7
						c0.1-0.2,0.3-0.5,0.4-0.8c0,0,0-0.1,0-0.2c0-0.1,0-0.1,0-0.1c0.1-0.3,0.3-0.7,0.4-1c-0.4,0.6-0.7,1.2-0.8,1.5
						c-0.1-0.5,0.9-2.1,1.5-3.2c0.1-0.2,0.1-0.4,0.1-0.6c0-0.1-0.1-0.1-0.1-0.2c-0.5,1.1-1.1,2.6-1.7,4c-0.3,0.7-0.5,1.3-0.7,1.9
						c-0.2,0.6-0.3,1-0.3,1.4C72.9,15.4,73.2,14.7,73.6,13.7z M73.9,13.5c0,0.2,0,0.4,0.1,0.5c0,0.2,0,0.5,0.1,0.6
						c0.1,0.1,0.3,0.1,0.7-0.2c-0.3,0-0.7-0.1-0.8-0.4C74,14.4,74.1,14.1,73.9,13.5C74,13.6,73.9,13.6,73.9,13.5z"/>
					<path fill="#52A6DC" d="M73.9,10.7c0.3-0.5,0.6-1,0.9-1.6c-0.3,0.4-0.6,0.8-0.9,1.1c-0.5,0.8-0.5,1.1-0.8,1.7
						c-0.4,0.9-0.7,1.7-0.9,2.3c-0.2,0.6-0.3,1.2-0.3,1.6c0,0.1-0.1,0.2,0,0.1c0.2-0.8,0.4-1.5,0.7-2.4
						C72.9,12.8,73.3,11.9,73.9,10.7z"/>
					<path fill="#52A6DC" d="M71.6,17.6c0.1,0,0.2,0,0.2,0c0.2-0.3,0.3-0.5,0.3-0.6c-0.1,0-0.1-0.2-0.2-0.3
						C71.7,17.2,71.6,17.5,71.6,17.6z"/>
					<path fill="#52A6DC" d="M72,16c0,0.1,0,0.1-0.1,0.2c-0.1,0.3-0.1,0.5,0,0.6c0.2-0.4,0.4-0.8,0.5-1.2C72.2,15.9,72,16,72,16z"/>
				</g>
			</g>
		</g>
		<g>
			<g>
				<defs>
					<path id="SVGID_1_" d="M113.6,75.9c0,2.9-2.3,5.2-5.2,5.2H23.7c-2.9,0-5.2-2.3-5.2-5.2V-8.9c0-2.9,2.3-5.2,5.2-5.2h84.8
						c2.9,0,5.2,2.3,5.2,5.2C113.6-8.9,113.6,75.9,113.6,75.9z"/>
				</defs>
				<clipPath id="SVGID_2_">
					<use xlink:href="#SVGID_1_"  overflow="visible"/>
				</clipPath>
				<g clip-path="url(#SVGID_2_)">
					<path fill="#CBE3B1" d="M27.1-3.9c-0.2-0.4,0.3-0.4,0.3-0.7C27.7-4.5,28-4.4,28-3.8C27.6-3.7,27.3-3.8,27.1-3.9z"/>
					<path fill="#CBE3B1" d="M33.6,8.3C36.6,8.3,32.9,11.3,33.6,8.3L33.6,8.3z"/>
					<path fill="#CBE3B1" d="M36.7,33c1.7,0.1,2.1,1.8,3.6,2.2C39.3,36.3,36.7,34.2,36.7,33z"/>
					<path fill="#CBE3B1" d="M33.8-9.4c0.1-0.3,0.2-0.4,0.3-0.7c0.7-0.1,1.1,0.1,1.1,0.8C34.8-9,34.1-9.1,33.8-9.4z"/>
					<path fill="#CBE3B1" d="M41.2-12.3c0.4,0.6,0.6,1.1,0.5,1.8c-0.5,0.2-0.5,0.2-1,0.1C40.5-11.2,39.7-12.5,41.2-12.3z"/>
					<path fill="#CBE3B1" d="M40.3-19.1c0.2,0,0.4,0,0.7-0.1c0.4,0.4,0.3,1.2-0.4,1.2C40.2-18.2,40.1-18.6,40.3-19.1z"/>
					<path fill="#CBE3B1" d="M43,4.1c0,0.7,0.5,1.1,0,1.5C42.2,5.7,42.3,4.2,43,4.1z"/>
					<path fill="#E34673" d="M45.7-1.6c0.3,0,0.5,0,0.8-0.1c0.2,0.3,0.3,0.6,0.4,1C46.3,0.3,44.8-0.7,45.7-1.6z"/>
					<path fill="#E34673" d="M49.3,3C50.8,3.3,48.7,4.4,49.3,3L49.3,3z"/>
					<path fill="#E34673" d="M52.8,4.2c-0.1,1.7-0.8,3.3-0.9,5.2c-0.6,0.1-0.8-0.1-1.2-0.2C51.1,7.4,51.3,5.2,52.8,4.2z"/>
					<path fill="#E34673" d="M52.2-1.1c-0.1-0.7-0.2-1.4,0.2-1.7c0.7,0.3,0.3,0.8,0.5,1.6C52.6-1.1,52.4-1.1,52.2-1.1z"/>
					<path fill="#E34673" d="M56.6-23.3c0.4,0.6,0,0.9,0.2,1.7C55.2-21.1,55.2-23.5,56.6-23.3z"/>
					<path fill="#FFF274" d="M65.4,30.7c1.2-0.9,1.7-2.1,2.9-2.4c3.5-0.7,3.7,4.7,0.7,4.6C67.4,32.9,67.1,30.9,65.4,30.7z"/>
					<path fill="#F99D41" d="M73.9,66.6c0.1,0.4,0,0.7-0.4,0.7C73.2,66.9,73.2,66.6,73.9,66.6z"/>
					<path fill="#F99D41" d="M74.8,67.6c-0.2-0.7,1-0.6,1.1-0.2C76.1,67.9,74.9,68.1,74.8,67.6z"/>
					<path fill="#FFF274" d="M71.9,35.2c0.6-0.2,1.1,0.3,0.7,0.8C72.1,36,71.9,35.8,71.9,35.2z"/>
					<path fill="#94C93D" d="M75.6,52.8c1.6-0.1,2.3,0.7,3.3,1.3c-0.9,0.8-2.2-0.8-3.5-0.2C74.9,53.5,75.5,53.2,75.6,52.8z"/>
					<path fill="#94C93D" d="M76.8,56.4c0,0.2,0,0.4,0.1,0.7C76.2,57.2,76.1,56.3,76.8,56.4z"/>
					<path fill="#F99D41" d="M78.4,60.6c0.8-0.6,1.6,0.4,1.1,1.3C78.5,62.2,78,61.3,78.4,60.6z"/>
					
						<linearGradient id="SVGID_3_" gradientUnits="userSpaceOnUse" x1="2375.2168" y1="871.2771" x2="2401.3403" y2="739.0757" gradientTransform="matrix(0.6471 0.7624 0.7624 -0.6471 -2065.2168 -1229.4008)">
						<stop  offset="0" style="stop-color:#010101"/>
						<stop  offset="0.6404" style="stop-color:#F8991D"/>
						<stop  offset="0.6937" style="stop-color:#F89D1E"/>
						<stop  offset="0.7671" style="stop-color:#F7A922"/>
						<stop  offset="0.8523" style="stop-color:#F7BD2B"/>
						<stop  offset="0.9455" style="stop-color:#F7D939"/>
						<stop  offset="1" style="stop-color:#F7ED43"/>
					</linearGradient>
					<path fill="url(#SVGID_3_)" d="M81.5,84.9c0.2-0.2,0.7-0.2,1.1-0.3c0.1,0.4,0.4,1,0.1,1.3C82,86,81.6,85.6,81.5,84.9z"/>
					<path fill="#52A6DC" d="M73.4,6.5c1.5-1.3,4.3,0,4.5,2c-0.2,0-0.1,0.2-0.1,0.3C76,9.9,73.5,8.8,73.4,6.5z"/>
					<path fill="#94C93D" d="M81.2,57.4C76.7,58.8,81.3,53.2,81.2,57.4L81.2,57.4z"/>
					<path fill="#F99D41" d="M80.4,61.3c0.7,0,0.8,0.6,0.6,1.1c-0.2,0-0.3,0-0.5,0C80.3,62.2,80.2,61.5,80.4,61.3z"/>
					<path fill="#FFF274" d="M76.8,25.3c-0.2-0.7,0.4-0.7,0.6-1c0.3,0.1,0.4,0.2,0.7,0.3C78.2,25.3,77.3,25.7,76.8,25.3z"/>
					<path fill="#52A6DC" d="M73.6-19.7c0.2,1.4-0.5,2.1-0.5,3.4C72-16.9,72.6-19.4,73.6-19.7z"/>
					<path fill="#FFF274" d="M78.8,36.7c-0.1-2.4,2-0.6,3.3-0.4C81.4,37.2,80,36.3,78.8,36.7z"/>
					<path fill="#F99D41" d="M83.8,74.1c0-0.2,0-0.4-0.1-0.7c0.3-0.1,0.4,0.1,0.7,0.1C84.5,74,84.2,74.1,83.8,74.1z"/>
					<path fill="#94C93D" d="M83.4,57.7c0.1,0.4,0.4,0.8,0.1,1.2C82.3,59.3,82.1,57.6,83.4,57.7z"/>
					<path fill="#52A6DC" d="M76.6,1.5c-0.1-0.5,0.3-0.6,0.8-0.6C77.6,1.6,76.9,1.8,76.6,1.5z"/>
					<path fill="#F99D41" d="M83.3,63.6c0.6,0.1,1.3-0.1,1.2,0.7C83.9,64.4,83.5,64.2,83.3,63.6z"/>
					<path fill="#94C93D" d="M87.4,58.3c0-0.3,0.9-0.6,1.1-0.3C88.8,58.6,87.6,58.4,87.4,58.3z"/>
					<path fill="#94C93D" d="M89.2,64.3c0-0.2,0-0.4-0.1-0.7C89.7,63.4,90,64.5,89.2,64.3z"/>
					<path fill="#FFF274" d="M86.2,25c0.4-0.5,1.7-0.8,2.3-0.3C88.8,26.1,86.2,26.9,86.2,25z"/>
					<path fill="#94C93D" d="M92.3,66.6c0.2,0.3,0.5,0.5,0.5,1.1C91.5,68.8,90.4,66.4,92.3,66.6z"/>
					<path fill="#FFF274" d="M87.6,33.5c0.8-0.2,0.9,0.3,1.2,0.6c0.9,0,1.8-0.6,2.5,0c0.1,0.9-1.1,0.7-1.9,0.8
						c0.3,0.7,1.1,1.4,0.6,2.1C88.8,36.4,88,35.2,87.6,33.5z"/>
					<path fill="#FFF274" d="M89.7,23.4c0.3-0.8,1.6-1.4,2.7-1C91.9,22.9,90.8,23.8,89.7,23.4z"/>
					<path fill="#F99D41" d="M93.6,58.5c0.2-0.7,0.3-1.4,1.4-1.3C95.2,58.1,94.1,58.6,93.6,58.5z"/>
					<path fill="#F99D41" d="M96.1,58.8c0,0.5-0.2,0.7-0.8,0.7C94.8,58.9,95.6,58.4,96.1,58.8z"/>
					<path fill="#F99D41" d="M97.3,70.9c0.9-0.1,1.3,0.4,1.5,1.2C98.1,72.5,96.9,71.7,97.3,70.9z"/>
					<path fill="#52A6DC" d="M91.2,4.6c0.3,0.1,0.4,0.2,0.7,0.3c0.1,0.6,0,1.1-0.5,1.2C90.5,6,90.7,4.7,91.2,4.6z"/>
					<path fill="#94C93D" d="M99.8,65c0.4-0.5,1.2-0.7,1.9-1C101.9,65.1,100.6,65.4,99.8,65z"/>
					<path fill="#94C93D" d="M101.6,68.1c0.2-0.3,1.2-0.3,1.5-0.1C103.6,69.3,101.4,69.4,101.6,68.1z"/>
					<path fill="#94C93D" d="M107.8,58.8c1-0.4,0.8,1.4,0.7,1.8C107.4,60.5,107.9,59.7,107.8,58.8z"/>
					<path fill="#52A6DC" d="M102.5-3.1c0.4,0.4,0.2,1-0.4,1C101.7-2.4,101.7-3.3,102.5-3.1z"/>
					<path fill="#FFF274" d="M112.3,23.9c0.7,1.1-0.4,1.8-0.9,2.4C109.7,25.8,111,23.9,112.3,23.9z"/>
				</g>
			</g>
		</g>
	</g>
</g>
</svg>
