<?xml version="1.0" encoding="utf-8"?>
<!-- Generator: Adobe Illustrator 18.1.0, SVG Export Plug-In . SVG Version: 6.00 Build 0)  -->
<svg version="1.1" id="Layer_1" xmlns="http://www.w3.org/2000/svg" xmlns:xlink="http://www.w3.org/1999/xlink" x="0px" y="0px"
	 viewBox="0 0 300 100" enable-background="new 0 0 300 100" xml:space="preserve">
<g>
	<g>
		<g>
			<g>
				<g opacity="0.8">
					<path fill="#CBE3B1" d="M51.5,14.4c0,0.6,0,1.2,0,1.7c0.1,0.6,0.2,1.1,0.3,1.7c0.2,0.9,0.2,1.7,0.1,2.5
						c-0.1,0.8-0.2,1.7-0.1,2.6c0,0.9,0.2,1.7,0.3,2.6c-0.1,1.8,0,3.8,0.4,5.8c0,0.2-0.1,0.9,0.6,0.8c-0.1,2-0.3,3.9,0.3,5.8
						c0.1,0.8-0.3,1.6-0.2,2.4c0.2,0.7,0.1,1.3,0,1.9c-0.1,0.6-0.3,1.3-0.3,1.9c0.1,0.2,0.5,0.6,0.4,0.7c-0.4,0.9-0.4,1.7-0.2,2.6
						c0.1,0.8,0.4,1.7,0.4,2.5c0,0.3,0,0.6,0,0.9c0,0.3-0.1,0.6-0.2,0.9c0.3,0.1,0.2,0.2,0.3,0.4c0,0.1-0.1,0.4-0.3,0.7
						c-0.2,0.3-0.4,0.7-0.7,1.1c-0.5,0.7-1.1,1.4-1.3,1.5c-0.1,0.1,0.3-1.2,0.7-2.6c0.2-1.3,0.5-2.6,0.3-2.6
						c-0.1,0.1-0.3,0.9-0.5,1.8c-0.1,0.2-0.1,0.4-0.2,0.7c-0.1,0.2-0.1,0.4-0.2,0.6c-0.1,0.4-0.2,0.6-0.3,0.7c0-0.4,0.1-0.8,0.1-1.1
						c0-0.4,0-0.7,0-1c0-0.6,0-1.2,0-1.7c-0.1-1-0.2-1.8-0.3-2.4c-0.2-1.1-0.4-1.4-0.4-1.2c0,0.2,0.1,0.9,0.1,1.8
						c0,0.4,0.1,0.9,0.1,1.4l0,0.4c0,0.1,0,0.3,0,0.4c0,0.2,0,0.5,0,0.7c-0.2,0.6,0.1,1.4-0.3,2.6c0-0.3-0.1-0.9-0.3-1.4
						c-0.2-0.5-0.4-0.9-0.3-1.1c-0.1-0.8-0.2-1.1-0.3-1.4c-0.1-0.3-0.1-0.7,0-1.6c0.1-0.3,0.1-0.8,0.1-1.2c0-0.4-0.1-0.9-0.2-1.4
						c-0.1-0.9-0.5-1.8-0.5-2.4c0.3,0.3,0.7,0.8,1,1.4c0.3,0.6,0.5,1.1,0.4,1.6c0.4-1,0.1-1.6-0.3-2.1c-0.4-0.6-0.9-1.2-0.8-2.2
						c0-0.2-0.1-0.4-0.2-0.7c0.1-0.2,0.1-0.4,0.2-0.7c0-0.8-0.2-1.6-0.4-2.4c-0.1-0.4-0.2-0.8-0.2-1.2c-0.1-0.4-0.1-0.8-0.1-1.2
						c0,0.1-0.3,0.2-0.3,0.4c-0.2,0.7-0.1,1.4,0.1,2.1c0.2,0.7,0.4,1.4,0.3,2.1c-0.1,0.3,0.5,0.7,0.5,1c0,0.3,0,0.6-0.1,0.9
						c-0.1,0.3-0.2,0.6-0.3,0.9c-0.1-0.3-0.2-0.6-0.2-0.9c-0.1-0.3-0.1-0.6-0.2-1c-0.1-0.6-0.1-1.3-0.2-1.9
						c-0.1-0.3-0.5-0.6-0.7-0.8c0,0.6,0.1,1.2,0.1,1.7c0.1,0.5,0.2,1.1,0.4,1.6c0.2,0.6,0.3,1.1,0.5,1.7c0.1,0.6,0.3,1.1,0.2,1.6
						c0,0.5-0.1,0.9-0.4,1.3c0,0,0,0.1,0.1,0.2c0,0-0.1,0.1-0.1,0.1c0,0.3-0.1,0.6-0.3,0.9c0,0,0,0,0-0.1c0-0.1,0-0.2,0.1-0.3
						c0-0.2,0.1-0.4,0.1-0.4c-0.5-1-0.5-2.1-0.5-3.2c0-0.6,0-1.1-0.1-1.7c-0.1-0.6-0.1-1.1-0.3-1.7c-0.2-0.5,0.3-1.3,0.1-1.8
						c-0.5-1.4-0.6-3-0.4-4.4c0.4-5.3,0.5-10.7,1.7-15.9c0-0.1-0.1-0.2-0.1-0.4c-0.1,0.1-0.1,0.1-0.2,0.2c0-0.1,0.1-0.2,0.1-0.3
						c-0.1-0.7-0.1-1.3,0.2-2c0.2-0.3,0.1,0.5,0.3,0.7c0-0.1,0.1-0.3,0.1-0.3s0.2,0,0.3,0c-0.1-0.1,0.1-0.2,0.2-0.3
						c0.2,1.4,0.5,2.9,0.7,4.3c0.4-0.2,0.2-0.6,0.2-0.8c-0.2-0.5-0.4-1-0.3-1.4c-0.1-0.6-0.1-1.2,0-1.9c0.1-0.6,0.3-1.2,0.3-1.8
						c0.1-0.2,0.2-0.4,0.3-0.6C51.1,13.4,51.6,13.9,51.5,14.4z M48.6,32.7c0.1-0.4,0.3-0.8,0.5-1.2c0-0.1,0-0.3,0-0.4
						c0-0.2,0-0.4-0.1-0.6c0.1-0.8,0.2-1.6,0.3-2.3c-0.4,0.8-0.8,1.6-0.8,2.6c-0.4-2.5,0.6-4.7,1.1-7.1c0-0.7,0-1.4-0.1-2.1
						c-0.1-0.5-0.2-1-0.4-1.5c-0.6,6.3-1.8,12.5-1.6,18.8c0.1-0.5,0.2-1,0.4-1.5c0.1-0.5,0.2-1,0.3-1.5
						C48.2,34.7,48.4,33.7,48.6,32.7z M49.1,33.4c0.1,0.8,0.2,1.6,0.3,2.4c0.2,2.2,0.3,4.6,1.3,6c-0.2-1-0.4-1.9-0.7-2.9
						c-0.1-0.5-0.2-1-0.3-1.5c-0.1-0.5-0.2-1-0.3-1.5c0.1,2,0.2,0.5-0.2-2.1C49.2,33.7,49.2,33.6,49.1,33.4z"/>
					<path fill="#CBE3B1" d="M47.5,21.4c0.3-0.9,0.6-1.9,0.9-2.8c-0.4,0.4-0.8,0.7-1.1,1.1c-0.3,0.6-0.4,1.1-0.5,1.7
						c-0.1,0.6-0.1,1.2-0.2,1.8c-0.8,3.4-0.7,6.8-0.4,10.3c0,0.2,0,0.6,0.2,0.8C46.6,29.9,46.4,25.7,47.5,21.4z"/>
					<path fill="#CBE3B1" d="M46.2,40c0.2,0.6,0.3,1.3,0.3,1.9c0.3-0.6,0.3-1.3,0.3-1.9c-0.1-0.9-0.3-1.7-0.4-2.6
						C46.3,38.3,46.2,39.1,46.2,40z"/>
					<path fill="#CBE3B1" d="M46.4,34.4c0,0.2,0,0.4,0,0.5c-0.1,0.8,0,1.7,0.1,2.5c0.2-0.9,0.4-1.8,0.5-2.7
						C46.7,34.7,46.5,34.6,46.4,34.4z"/>
				</g>
			</g>
			<g>
				<g opacity="0.8">
					<path fill="#AED07F" d="M51.5,14.4c0,0.6,0,1.2,0,1.7c0.1,0.6,0.2,1.1,0.3,1.7c0.2,0.9,0.2,1.7,0.1,2.5
						c-0.1,0.8-0.2,1.7-0.1,2.6c0,0.9,0.2,1.7,0.3,2.6c-0.1,1.8,0,3.8,0.4,5.8c0,0.2-0.1,0.9,0.6,0.8c-0.1,2-0.3,3.9,0.3,5.8
						c0.1,0.8-0.3,1.6-0.2,2.4c0.2,0.7,0.1,1.3,0,1.9c-0.1,0.6-0.3,1.3-0.3,1.9c0.1,0.2,0.5,0.6,0.4,0.7c-0.4,0.9-0.4,1.7-0.2,2.6
						c0.1,0.8,0.4,1.7,0.4,2.5c0,0.3,0,0.6,0,0.9c0,0.3-0.1,0.6-0.2,0.9c0.3,0.1,0.2,0.2,0.3,0.4c0,0.1-0.1,0.4-0.3,0.7
						c-0.2,0.3-0.4,0.7-0.7,1.1c-0.5,0.7-1.1,1.4-1.3,1.5c-0.1,0.1,0.3-1.2,0.7-2.6c0.2-1.3,0.5-2.6,0.3-2.6
						c-0.1,0.1-0.3,0.9-0.5,1.8c-0.1,0.2-0.1,0.4-0.2,0.7c-0.1,0.2-0.1,0.4-0.2,0.6c-0.1,0.4-0.2,0.6-0.3,0.7c0-0.4,0.1-0.8,0.1-1.1
						c0-0.4,0-0.7,0-1c0-0.6,0-1.2,0-1.7c-0.1-1-0.2-1.8-0.3-2.4c-0.2-1.1-0.4-1.4-0.4-1.2c0,0.2,0.1,0.9,0.1,1.8
						c0,0.4,0.1,0.9,0.1,1.4l0,0.4c0,0.1,0,0.3,0,0.4c0,0.2,0,0.5,0,0.7c-0.2,0.6,0.1,1.4-0.3,2.6c0-0.3-0.1-0.9-0.3-1.4
						c-0.2-0.5-0.4-0.9-0.3-1.1c-0.1-0.8-0.2-1.1-0.3-1.4c-0.1-0.3-0.1-0.7,0-1.6c0.1-0.3,0.1-0.8,0.1-1.2c0-0.4-0.1-0.9-0.2-1.4
						c-0.1-0.9-0.5-1.8-0.5-2.4c0.3,0.3,0.7,0.8,1,1.4c0.3,0.6,0.5,1.1,0.4,1.6c0.4-1,0.1-1.6-0.3-2.1c-0.4-0.6-0.9-1.2-0.8-2.2
						c0-0.2-0.1-0.4-0.2-0.7c0.1-0.2,0.1-0.4,0.2-0.7c0-0.8-0.2-1.6-0.4-2.4c-0.1-0.4-0.2-0.8-0.2-1.2c-0.1-0.4-0.1-0.8-0.1-1.2
						c0,0.1-0.3,0.2-0.3,0.4c-0.2,0.7-0.1,1.4,0.1,2.1c0.2,0.7,0.4,1.4,0.3,2.1c-0.1,0.3,0.5,0.7,0.5,1c0,0.3,0,0.6-0.1,0.9
						c-0.1,0.3-0.2,0.6-0.3,0.9c-0.1-0.3-0.2-0.6-0.2-0.9c-0.1-0.3-0.1-0.6-0.2-1c-0.1-0.6-0.1-1.3-0.2-1.9
						c-0.1-0.3-0.5-0.6-0.7-0.8c0,0.6,0.1,1.2,0.1,1.7c0.1,0.5,0.2,1.1,0.4,1.6c0.2,0.6,0.3,1.1,0.5,1.7c0.1,0.6,0.3,1.1,0.2,1.6
						c0,0.5-0.1,0.9-0.4,1.3c0,0,0,0.1,0.1,0.2c0,0-0.1,0.1-0.1,0.1c0,0.3-0.1,0.6-0.3,0.9c0,0,0,0,0-0.1c0-0.1,0-0.2,0.1-0.3
						c0-0.2,0.1-0.4,0.1-0.4c-0.5-1-0.5-2.1-0.5-3.2c0-0.6,0-1.1-0.1-1.7c-0.1-0.6-0.1-1.1-0.3-1.7c-0.2-0.5,0.3-1.3,0.1-1.8
						c-0.5-1.4-0.6-3-0.4-4.4c0.4-5.3,0.5-10.7,1.7-15.9c0-0.1-0.1-0.2-0.1-0.4c-0.1,0.1-0.1,0.1-0.2,0.2c0-0.1,0.1-0.2,0.1-0.3
						c-0.1-0.7-0.1-1.3,0.2-2c0.2-0.3,0.1,0.5,0.3,0.7c0-0.1,0.1-0.3,0.1-0.3s0.2,0,0.3,0c-0.1-0.1,0.1-0.2,0.2-0.3
						c0.2,1.4,0.5,2.9,0.7,4.3c0.4-0.2,0.2-0.6,0.2-0.8c-0.2-0.5-0.4-1-0.3-1.4c-0.1-0.6-0.1-1.2,0-1.9c0.1-0.6,0.3-1.2,0.3-1.8
						c0.1-0.2,0.2-0.4,0.3-0.6C51.1,13.4,51.6,13.9,51.5,14.4z M48.6,32.7c0.1-0.4,0.3-0.8,0.5-1.2c0-0.1,0-0.3,0-0.4
						c0-0.2,0-0.4-0.1-0.6c0.1-0.8,0.2-1.6,0.3-2.3c-0.4,0.8-0.8,1.6-0.8,2.6c-0.4-2.5,0.6-4.7,1.1-7.1c0-0.7,0-1.4-0.1-2.1
						c-0.1-0.5-0.2-1-0.4-1.5c-0.6,6.3-1.8,12.5-1.6,18.8c0.1-0.5,0.2-1,0.4-1.5c0.1-0.5,0.2-1,0.3-1.5
						C48.2,34.7,48.4,33.7,48.6,32.7z M49.1,33.4c0.1,0.8,0.2,1.6,0.3,2.4c0.2,2.2,0.3,4.6,1.3,6c-0.2-1-0.4-1.9-0.7-2.9
						c-0.1-0.5-0.2-1-0.3-1.5c-0.1-0.5-0.2-1-0.3-1.5c0.1,2,0.2,0.5-0.2-2.1C49.2,33.7,49.2,33.6,49.1,33.4z"/>
					<path fill="#AED07F" d="M47.5,21.4c0.3-0.9,0.6-1.9,0.9-2.8c-0.4,0.4-0.8,0.7-1.1,1.1c-0.3,0.6-0.4,1.1-0.5,1.7
						c-0.1,0.6-0.1,1.2-0.2,1.8c-0.8,3.4-0.7,6.8-0.4,10.3c0,0.2,0,0.6,0.2,0.8C46.6,29.9,46.4,25.7,47.5,21.4z"/>
					<path fill="#AED07F" d="M46.2,40c0.2,0.6,0.3,1.3,0.3,1.9c0.3-0.6,0.3-1.3,0.3-1.9c-0.1-0.9-0.3-1.7-0.4-2.6
						C46.3,38.3,46.2,39.1,46.2,40z"/>
					<path fill="#AED07F" d="M46.4,34.4c0,0.2,0,0.4,0,0.5c-0.1,0.8,0,1.7,0.1,2.5c0.2-0.9,0.4-1.8,0.5-2.7
						C46.7,34.7,46.5,34.6,46.4,34.4z"/>
				</g>
			</g>
			<g>
				<g opacity="0.8">
					<path fill="#E34673" d="M56.9,13.1c-0.3,1.4-0.5,2.7-0.5,3.9c-0.1,2-0.9,3.9-1.3,6c-0.2,1.1-0.3,2-0.4,3c-0.5,2.1-1,4.4-1,6.6
						c-0.1,0.3-0.2,1,0.3,0.8c-0.1,0.6-0.2,1.1-0.3,1.7c-0.1,0.6-0.2,1.1-0.2,1.7c-0.1,1.1-0.1,2.1,0.1,3.1c0,0.4,0,0.9-0.1,1.4
						c-0.1,0.5-0.2,1-0.1,1.4c0.3,1.3-0.1,2.9,0.1,4.2c0.1,0.2,0.4,0.5,0.4,0.6c-0.3,2,0.9,3.4,1.6,4.9c0.1,0.3,0.2,0.6,0.4,0.8
						c0.1,0.3,0.2,0.5,0.3,0.8c0.3,0,0.3,0.1,0.4,0.3c0.1,0.5,0.2,3.3-0.1,3.7c-0.1,0.2-1.7-5-2-4.8c-0.1,0.2,1,3.4,1,3.7
						c-0.8-1.4-1.4-2.6-2-3.5c-0.4-1-0.8-1.7-1-2.2c-0.5-1.1-0.7-1.3-0.7-1.1c0,0.2,0.3,0.9,0.6,1.8c0.2,0.4,0.4,0.9,0.6,1.4
						c0.2,0.5,0.5,0.9,0.7,1.4c0.1,0.6,0.8,1.3,1.1,2.4c-0.4-0.6-1.7-1.6-1.8-1.9c-0.4-0.7-0.7-0.9-0.9-1.2
						c-0.2-0.3-0.3-0.7-0.5-1.6c-0.2-1.5-1.5-3.7-1.7-5c0.3,0.3,0.7,0.7,1,1.2c0.4,0.5,0.7,1,0.7,1.5c0.1-1.1-0.3-1.6-0.7-2.1
						c-0.4-0.5-0.9-1-0.9-2.1c0-0.2-0.1-0.4-0.2-0.7c0-0.3,0.1-0.5,0.1-0.8c0-0.5-0.1-0.9-0.1-1.3c-0.1-0.4-0.1-0.9-0.2-1.3
						c-0.1-0.9-0.2-1.7-0.1-2.7c0,0.2-0.3,0.3-0.3,0.5c-0.2,0.9-0.2,1.6-0.1,2.3c0.1,0.7,0.2,1.4,0.3,2.3c0,0.3,0.4,0.6,0.5,1
						c0.1,0.7-0.1,1.4-0.2,2.1c-0.5-1.1-0.6-2.7-0.7-4c-0.1-0.3-0.4-0.5-0.5-0.7c0,0.7,0,1.3,0.1,1.9c0.2,1.1,0.7,2.3,1,3.4
						c0.2,0.6,0.3,1.1,0.4,1.6c0.1,0.5,0.1,1,0,1.5c0,0,0.1,0.1,0.1,0.2c0,0,0,0.1,0,0.1c0.1,0.3,0.1,0.7,0,1.1l-0.1-0.9
						c-0.3-0.5-0.6-1-0.8-1.5c0-0.1-0.1-0.3-0.1-0.4c0-0.1-0.1-0.3-0.1-0.4c-0.1-0.3-0.1-0.6-0.1-0.9c-0.2-1.2-0.2-2.5-0.5-3.6
						c-0.2-0.5,0.3-1.6,0.1-2.1c-0.3-1.5-0.3-3.3,0.1-5c1.1-6.3,2.8-12.7,5-19.1c0-0.1,0-0.3,0-0.4c-0.1,0.1-0.1,0.2-0.2,0.2
						c0.1-0.1,0.1-0.3,0.2-0.4c0.1-0.8,0.2-1.5,0.6-2.4c0.2-0.4,0,0.5,0.1,0.7c0.1-0.2,0.1-0.4,0.1-0.4s0.1,0,0.2,0
						c0-0.1,0.1-0.2,0.2-0.4c-0.2,1.7-0.3,3.3-0.5,5c0.4-0.3,0.3-0.8,0.4-1c0-0.5-0.1-1.1,0.1-1.6c0.1-1.4,0.9-3,1.2-4.4
						c0.1-0.3,0.3-0.6,0.4-0.8C56.8,12.1,57.1,12.6,56.9,13.1z M50.2,35.3c0.2-0.5,0.4-1,0.6-1.5c0-0.2,0.1-0.3,0.1-0.5
						c0-0.2,0-0.4,0-0.6c0.1-0.5,0.2-0.9,0.3-1.4c0.1-0.5,0.3-0.9,0.4-1.4c-0.3,0.5-0.5,1-0.8,1.6c-0.2,0.5-0.4,1.1-0.4,1.6
						c0-0.7,0.1-1.4,0.3-2.1c0.2-0.7,0.4-1.4,0.7-2.1c0.5-1.4,1.1-2.8,1.6-4.3c0.2-0.8,0.4-1.7,0.5-2.5c0.1-0.6,0.1-1.1,0.1-1.7
						c-0.3,0.9-0.5,1.9-0.8,2.8c-0.3,0.9-0.6,1.9-0.8,2.8c-0.5,1.9-1.1,3.8-1.6,5.6c-0.4,1.9-0.9,3.7-1.2,5.6
						c-0.3,1.8-0.4,3.6-0.5,5.4c0.3-1.2,0.5-2.4,0.7-3.6c0.1-0.6,0.2-1.2,0.4-1.8C49.8,36.5,50,35.9,50.2,35.3z M50.5,36
						c0,0.5-0.1,0.9-0.1,1.4c0,0.4,0,0.9,0,1.3c0,1.2,0,2.5,0.1,3.6c0,0.3,0.1,0.6,0.1,0.8c0.1,0.3,0.1,0.5,0.2,0.7
						c0.2,0.5,0.3,0.8,0.6,1.2c-0.6-1.9-0.8-4.1-1-6.3c0,1.1,0,1.2,0,0.7c0-0.2,0-0.6,0-1.2c0-0.5,0-1.2,0-1.9
						C50.5,36.3,50.5,36.2,50.5,36z"/>
					<path fill="#E34673" d="M51.9,22.2c0.5-1.2,1-2.3,1.5-3.5c-0.4,0.5-0.8,1-1.2,1.5c-0.8,1.5-1,2.9-1.5,4.3c-0.4,1-0.7,2.1-1,3.1
						c-0.3,1-0.5,2.1-0.8,3.1c-0.2,1-0.4,2-0.5,3c-0.1,1-0.2,2-0.3,3c0,0.2-0.1,0.7,0,0.9C48.9,32.6,49.8,27.6,51.9,22.2z"/>
					<path fill="#E34673" d="M47.5,44.3c0.2,0.7,0.3,1.3,0.4,2c0.2-0.7,0.2-1.6,0.2-2.2c-0.1-0.9-0.2-1.9-0.2-2.8
						C47.7,42.3,47.5,43.3,47.5,44.3z"/>
					<path fill="#E34673" d="M48.1,37.8c0,0.2-0.1,0.4-0.1,0.6c-0.1,1-0.1,1.9-0.1,2.9c0.2-1.1,0.5-2.2,0.7-3.2
						C48.3,38.1,48.1,38,48.1,37.8z"/>
				</g>
			</g>
			<g>
				<g opacity="0.8">
					<path fill="#FFF274" d="M92.8,26.3c-0.3,0.3-0.5,0.7-0.6,1c-0.2,0.5-1,0.9-1.4,1.4c-0.2,0.3-0.4,0.5-0.6,0.8
						c-0.6,0.5-1.1,1.1-1.5,1.7c-0.1,0.1-0.3,0.2,0.1,0.3c-0.6,0.6-1.3,1.1-1.4,1.8c-0.1,0.3-0.6,0.4-0.7,0.7
						c-0.1,0.5-0.8,0.7-1,1.1c0,0.1,0.2,0.3,0.1,0.3c-0.8,0.4-0.5,1.1-0.7,1.8c-0.1,0.2-0.1,0.4-0.3,0.6c0.2,0.1,0.1,0.1,0.1,0.2
						c-0.1,0.2-1.3,0.7-1.5,0.7c-0.1,0,1.2-1.7,1-1.7c-0.1,0-0.9,1-1,1.1c0.2-0.6,0.3-1,0.4-1.4c0.1-0.4,0.1-0.7,0.1-0.9
						c0-0.4,0-0.6-0.1-0.5c-0.1,0.1-0.1,0.3-0.2,0.6c0,0.2-0.1,0.3-0.1,0.5c0,0.2-0.1,0.4-0.1,0.5c-0.2,0.2-0.1,0.5-0.4,0.9
						c0-0.3-0.2-1-0.2-1.1c0.1-0.6-0.2-0.6,0.2-1.1c0.2-0.2,0.2-0.5,0.3-0.9c0-0.2,0-0.3,0.1-0.5c0-0.1,0-0.3,0.1-0.4
						c0.2,0.3,0.6,1,0.3,1.2c0.4-0.2,0.3-0.5,0.2-0.7c-0.1-0.3-0.3-0.5-0.1-0.8c0-0.1,0-0.1,0-0.2c0.1-0.1,0.2-0.1,0.3-0.2
						c0.4-0.5,0.3-1.1,0.7-1.5c0,0-0.2,0-0.3,0c-0.6,0.3-0.4,0.9-0.8,1.3c-0.1,0.1,0.1,0.3,0.1,0.4c-0.1,0.2-0.4,0.3-0.6,0.4
						c0-0.4,0.3-0.8,0.5-1.2c0-0.1-0.1-0.3-0.2-0.4c-0.1,0.2-0.3,0.3-0.4,0.5c-0.1,0.3-0.1,0.8-0.2,1.2c0,0.4-0.2,0.7-0.6,0.8
						c0,0,0,0,0,0.1c0,0,0,0-0.1,0c-0.1,0.1-0.2,0.2-0.3,0.2L82,35c-0.1-0.4,0.1-0.8,0.3-1.1c0.2-0.3,0.4-0.7,0.5-1
						c0-0.2,0.5-0.3,0.5-0.5c0-0.5,0.4-0.9,0.9-1.3c1.7-1.4,3.5-2.9,5.7-4.2c0,0,0-0.1,0-0.1c-0.1,0-0.1,0-0.2,0
						c0.1,0,0.1,0,0.2-0.1c0.1-0.2,0.3-0.4,0.6-0.5c0.2,0-0.1,0.1,0.1,0.3c0.1,0,0.1-0.1,0.1-0.1s0.1,0,0.2,0.1c0,0,0.1,0,0.2,0
						c-0.2,0.5-0.5,0.9-0.7,1.4c0.3,0,0.3-0.1,0.4-0.2c0-0.2,0-0.3,0.2-0.5c0.2-0.4,0.8-0.7,1.2-1c0.1,0,0.2-0.1,0.4-0.1
						C92.7,26,92.9,26.2,92.8,26.3z M85.7,31c0.2-0.1,0.4-0.2,0.7-0.3c0,0,0.1-0.1,0.1-0.1c0.1,0,0.1-0.1,0.1-0.2
						c0.3-0.2,0.6-0.4,0.9-0.6c-0.5,0.1-1,0.3-1.2,0.6c0.5-0.8,1.8-1.2,2.8-1.8c0.2-0.2,0.4-0.4,0.6-0.6c0.1-0.2,0.2-0.3,0.2-0.5
						c-1.1,0.8-2.3,1.6-3.4,2.5c-0.6,0.4-1.1,0.8-1.6,1.2c-0.5,0.4-1,0.8-1.3,1.3C84.2,32,84.9,31.5,85.7,31z M85.9,31.3
						c-0.2,0.2-0.4,0.5-0.5,0.8c-0.2,0.3-0.5,0.7-0.6,1c-0.2,0.3-0.2,0.7,0,1c0.1-0.3,0.2-0.7,0.3-1c0.1-0.3,0.2-0.7,0.4-1
						c-0.4,0.6-0.1,0.2,0.4-0.6C85.8,31.4,85.8,31.3,85.9,31.3z"/>
					<path fill="#FFF274" d="M88.4,27.6c0.5-0.2,0.9-0.4,1.4-0.6c-0.3,0-0.7,0-1,0.1c-0.7,0.2-0.9,0.6-1.5,0.9
						c-0.7,0.4-1.4,0.8-1.9,1.3c-0.5,0.5-1,1-1.4,1.5c-0.1,0-0.2,0.2-0.1,0.3c0.7-0.6,1.3-1.2,2-1.8C86.6,28.6,87.4,28.1,88.4,27.6z
						"/>
					<path fill="#FFF274" d="M82.4,32.6c0,0.2-0.1,0.4-0.2,0.6c0.3-0.1,0.5-0.3,0.6-0.5c0.1-0.3,0.2-0.5,0.4-0.8
						C82.8,32.1,82.6,32.3,82.4,32.6z"/>
					<path fill="#FFF274" d="M83.9,31c-0.1,0-0.1,0.1-0.2,0.1c-0.3,0.2-0.4,0.5-0.6,0.7c0.3-0.2,0.7-0.4,1.1-0.6
						C84,31.2,83.9,31.1,83.9,31z"/>
				</g>
			</g>
			<g>
				<g opacity="0.8">
					<path fill="#F99D41" d="M54.2,68.7c-0.1-0.4-0.2-0.7-0.5-0.9c-0.4-0.4,0-1.1-0.1-1.6c0-0.3-0.1-0.5-0.2-0.7
						c0.1-0.6,0.1-1.1,0-1.7c0-0.1,0.1-0.3-0.4-0.1c0.1-0.3,0.2-0.6,0.2-0.8c0-0.3,0-0.5-0.2-0.7c-0.1-0.2,0.3-0.5,0.2-0.6
						c-0.3-0.3,0.2-0.7,0.1-1c-0.1,0-0.4-0.1-0.4-0.2c0.5-0.4-0.4-0.9-0.8-1.4c-0.1-0.2-0.2-0.4-0.2-0.5c-0.2-0.1-0.2-0.1-0.3-0.2
						c0-0.1,0.6-0.7,0.9-0.7c0.2,0,0.3,1.4,0.6,1.4c0.2,0,0-0.9,0-0.9c0.3,0.5,0.6,0.8,0.9,1.1c0.3,0.3,0.5,0.5,0.6,0.6
						c0.3,0.3,0.5,0.3,0.5,0.3c0,0-0.1-0.2-0.3-0.4c-0.2-0.2-0.5-0.5-0.7-0.7c0.1-0.1-0.4-0.4-0.4-0.7c0.2,0.2,1.1,0.7,1.1,0.8
						c0.4,0.4,0.7,0.4,0.7,0.7c0,0.3,0.8,0.8,1,1c-0.4-0.1-1.4-0.4-1.3-0.6c-0.2,0.2,0.1,0.3,0.4,0.4c0.4,0.1,0.7,0.2,0.7,0.4
						c0,0,0.1,0.1,0.2,0.1c0,0-0.1,0.1-0.1,0.1c0,0.3,0.5,0.5,0.4,0.9c0,0,0.2-0.1,0.3-0.1c0.4-0.3-0.2-0.5-0.2-0.7
						c0.1-0.1-0.3-0.1-0.4-0.2c0-0.1,0.2-0.2,0.3-0.3c0.4,0.2,0.3,0.4,0.5,0.6c0,0,0.3,0.1,0.5,0.1c0-0.1,0-0.2,0-0.3
						c-0.1-0.1-0.5-0.3-0.7-0.5c-0.3-0.2-0.4-0.4-0.1-0.5c0,0,0,0-0.1,0c0,0,0,0,0.1,0c0,0,0-0.1,0.2-0.1l0,0.1
						c0.4,0.2,0.6,0.4,0.6,0.5c0.1,0.2,0.1,0.3,0.3,0.5c0.1,0.1-0.3,0.2-0.1,0.3c0.3,0.2,0.3,0.4,0,0.7c-0.7,1.1-1.3,2.4-1.9,4.3
						c0,0,0,0,0.1,0.1c0,0,0.1-0.1,0.1-0.1c0,0-0.1,0.1-0.1,0.1c0.1,0.1,0.1,0.3,0,0.6c-0.1,0.2-0.1-0.1-0.3,0c0,0.1,0,0.1,0,0.1
						s-0.1,0.1-0.2,0.1c0.1,0,0,0.1-0.1,0.1c-0.2-0.3-0.5-0.6-0.6-1c-0.3,0.2-0.1,0.3-0.2,0.3c0.1,0.1,0.3,0.2,0.2,0.3
						c0.2,0.3,0,0.8,0,1.2c0,0.1-0.1,0.2-0.2,0.3C54.6,68.8,54.2,68.8,54.2,68.7z M56.4,62.7c-0.1,0.1-0.3,0.2-0.5,0.4
						c0,0,0,0.1,0,0.1c0,0,0,0.1,0.1,0.1c-0.1,0.2-0.2,0.4-0.4,0.6c0.4-0.3,0.7-0.6,0.7-0.8c0,0.3-0.1,0.6-0.4,0.9
						c-0.2,0.4-0.6,0.8-0.8,1.2c0,0.2,0,0.4,0,0.6c0,0.1,0.1,0.2,0.2,0.3c0.1-0.5,0.2-1,0.4-1.5c0.2-0.5,0.5-0.9,0.7-1.3
						c0.2-0.4,0.5-0.8,0.7-1.1c0.2-0.3,0.3-0.6,0.4-0.9C57.1,61.7,56.9,62.1,56.4,62.7z M56.1,62.6c0-0.2,0-0.3-0.1-0.5
						c0-0.5-0.1-0.9-0.9-1.2c0.3,0.4,0.7,0.8,0.9,1.2C56,61.7,55.9,62,56.1,62.6C56.1,62.5,56.1,62.6,56.1,62.6z"/>
					<path fill="#F99D41" d="M56.6,65.2c-0.2,0.3-0.4,0.7-0.6,1.1c0.3-0.2,0.5-0.5,0.7-0.7c0.4-0.5,0.3-0.8,0.6-1.1
						c0.7-1.1,1-1.8,1-2.4c0,0,0.1-0.1-0.1-0.1c-0.2,0.4-0.4,0.9-0.7,1.4c-0.1,0.3-0.3,0.5-0.4,0.8C56.9,64.5,56.8,64.8,56.6,65.2z"
						/>
					<path fill="#F99D41" d="M58.6,61.1c-0.1-0.1-0.2-0.2-0.2-0.2c-0.2,0.1-0.3,0.2-0.3,0.3c0.1,0.1,0.2,0.2,0.2,0.4
						C58.5,61.3,58.6,61.2,58.6,61.1z"/>
					<path fill="#F99D41" d="M58.2,62C58.2,62,58.2,61.9,58.2,62c0.1-0.2,0.2-0.4,0.1-0.5c-0.2,0.2-0.4,0.3-0.6,0.5
						C58,62,58.1,62,58.2,62z"/>
				</g>
			</g>
			<g>
				<g opacity="0.8">
					<path fill="#52A6DC" d="M81.6,24.9c-0.1,0.3-0.1,0.4,0.1,0.5c0.1,0.1-0.4,0.9-0.4,1.3c-0.1,0.2-0.1,0.4-0.1,0.5
						c-0.2,0.6-0.4,1.1-0.3,1.4c0,0.1-0.1,0.3,0.3-0.2c-0.2,0.6-0.4,1.3-0.1,1.4c0.1,0.1-0.2,0.6-0.1,0.7c0.2,0.1-0.2,0.8,0,1
						c0.1,0,0.3-0.2,0.3-0.1c-0.2,0.4-0.1,0.5,0.1,0.6c0.2,0,0.5,0.1,0.7,0.3c0.1,0.2,0.3,0.3,0.3,0.5c0.2-0.1,0.2,0,0.3,0
						c0,0.2-0.5,1.1-0.8,1.3c-0.1,0-0.2-0.3-0.3-0.6c0-0.1-0.1-0.2-0.1-0.2c0-0.1-0.1-0.2-0.1-0.2c-0.1-0.1-0.1-0.2-0.2-0.1
						c-0.1,0.1,0,0.3,0,0.5c0,0.2,0.1,0.4,0,0.5c-0.2-0.1-0.3-0.2-0.5-0.3c-0.2-0.1-0.3-0.2-0.4-0.2c-0.3-0.1-0.4-0.1-0.6-0.1
						c-0.3,0-0.4,0.1-0.4,0.1c0,0.1,0.5,0.1,1,0.2c0,0.1,0.4,0.1,0.4,0.4c-0.2-0.1-1,0-1.1,0c-0.4,0-0.7,0.2-0.7,0
						c0-0.1-0.2-0.1-0.4,0c-0.2,0-0.4,0.1-0.5,0.1c0.4-0.3,1.2-0.9,1.2-0.6c0.2-0.3-0.1-0.2-0.4,0c-0.3,0.2-0.6,0.4-0.6,0.3
						c0,0-0.1,0-0.1,0c0-0.1,0.1-0.2,0.1-0.3c0-0.3-0.4-0.1-0.4-0.5c0,0-0.2,0.3-0.2,0.3C77.4,34,78,33.7,77.9,34
						c0,0.1,0.3-0.2,0.3-0.2c0,0.1-0.2,0.4-0.3,0.6c-0.3,0.1-0.3-0.1-0.4-0.2c0,0-0.3,0.2-0.4,0.3c0,0.1,0,0.2,0,0.2
						c0.1,0.1,0.4-0.1,0.6-0.2c0.2-0.1,0.3-0.1,0,0.2c0,0,0,0,0.1,0c0,0,0,0,0,0c0,0,0,0.1-0.2,0.2l0-0.1c-0.4,0.2-0.5,0.3-0.5,0.2
						c-0.1-0.1-0.1-0.2-0.3-0.2c-0.1,0.1,0.2-0.4,0.1-0.4c-0.3,0-0.3-0.3,0-0.8c0.6-1.8,1.2-3.9,2.4-6c0,0,0,0,0,0
						c0,0.1-0.1,0.1-0.1,0.2c0-0.1,0.1-0.1,0.1-0.2c0-0.1,0-0.3,0.2-0.6c0.2-0.2,0,0.1,0.2-0.1c0-0.1,0.1-0.1,0.1-0.1
						s0.1-0.1,0.2-0.2c0,0,0.1-0.1,0.1-0.2c0.1,0.2,0.1,0.4,0.2,0.6c0.3-0.3,0.2-0.3,0.2-0.4c-0.1,0-0.2,0-0.1-0.2
						c-0.1-0.1,0.3-0.8,0.4-1.1c0.1-0.1,0.2-0.2,0.3-0.4C81.4,25,81.7,24.7,81.6,24.9z M78.3,32c0.1-0.2,0.3-0.5,0.4-0.7
						c0,0,0-0.1,0-0.1c0-0.1,0-0.1,0-0.1c0.1-0.3,0.3-0.6,0.4-0.9c-0.4,0.6-0.6,1.1-0.7,1.4c0-0.5,0.8-1.9,1.3-3
						c0.1-0.2,0.1-0.4,0.1-0.5c0-0.1-0.1-0.1-0.1-0.2c-0.4,1-1,2.4-1.5,3.6c-0.2,0.6-0.5,1.2-0.6,1.7c-0.2,0.5-0.3,0.9-0.3,1.3
						C77.6,33.6,77.9,32.9,78.3,32z M78.6,31.8c0,0.2,0,0.3,0.1,0.4c0,0.2,0,0.4,0.1,0.5c0.1,0.1,0.3,0.1,0.6-0.2
						c-0.3,0-0.6-0.1-0.8-0.4C78.6,32.6,78.7,32.3,78.6,31.8C78.6,31.9,78.6,31.8,78.6,31.8z"/>
					<path fill="#52A6DC" d="M78.5,29.3c0.3-0.5,0.5-0.9,0.8-1.4c-0.3,0.4-0.6,0.7-0.8,1c-0.5,0.7-0.5,1-0.7,1.5
						c-0.4,0.8-0.7,1.5-0.9,2.1c-0.2,0.6-0.3,1.1-0.3,1.5c0,0.1,0,0.2,0,0.1c0.2-0.7,0.4-1.4,0.6-2.2C77.6,31.1,78,30.3,78.5,29.3z"
						/>
					<path fill="#52A6DC" d="M76.4,35.5c0.1,0,0.2,0,0.2,0c0.2-0.3,0.2-0.4,0.2-0.5c-0.1,0-0.1-0.1-0.2-0.3
						C76.5,35.1,76.4,35.4,76.4,35.5z"/>
					<path fill="#52A6DC" d="M76.8,34.1c0,0.1,0,0.1,0,0.2c-0.1,0.2-0.1,0.4,0,0.5c0.1-0.3,0.3-0.7,0.5-1.1
						C76.9,34,76.8,34.1,76.8,34.1z"/>
				</g>
			</g>
			<g>
				<g>
					<path fill="#94C93D" d="M73.4,72c-0.1,0,0,0,0.2,0.1c0.1,0.1,0.2,0.2,0.4,0.3c0.1,0,0.2,0.1,0.2,0.1C74,72.3,73.7,72.1,73.4,72
						z"/>
					<path fill="#94C93D" d="M93.9,87.9c-0.1-0.3-0.3-0.5-0.4-0.7c-1.1-0.7-2-2-3.3-2.4c-0.4-0.3-0.9-0.4-1.5-0.5
						c-0.2-0.1-0.7-0.3-0.6-0.7c1.5,0.6,3,1.2,4.5,1.8c0-0.1,0-0.4-0.2-0.3c0.1-0.1,0.2-0.3,0.2-0.3s-0.1-0.1-0.3-0.2
						c0.3-0.2,1,0.4,0.8,0c-0.5-0.7-1.1-1-1.8-1.3l-0.2-0.3c0,0.1,0,0.2,0.1,0.3c-0.1,0-0.3-0.1-0.4-0.1c-0.1-0.1-0.2-0.2-0.3-0.3
						c-0.1-0.6-0.2-1.2-0.5-1.7c-0.7-1.3-2-1.9-2.9-2.9c-2.6-2.9-5.8-5.2-9-7.2c-0.1-0.1-0.5-0.4-0.8-0.4c3.8,3.2,7.7,5.9,11.1,9.6
						c0.7,0.9,1.4,1.7,2,2.5c-4.2-4.1-8.9-7.6-13.2-11.6c-0.1-0.1-0.3-0.3-0.4-0.4c0.1-0.1,0.3-0.2,0.5-0.2
						c-0.2-0.1-0.3-0.3-0.5-0.4c-0.7-0.6-1.5-1.2-2.3-1.6c0.3,0.3,0.6,0.7,0.9,1c0,0-0.1-0.1-0.1-0.1c-0.3-0.2-0.7-0.4-1.1-0.6
						c-0.4-0.2-0.7-0.4-1.1-0.5c-0.5-0.1-1-1.2-1.5-1.4c-0.5-0.3-1.1-0.6-1.6-1l-0.8-0.5c-0.2-0.2-0.5-0.4-0.7-0.6
						c-0.5-0.4-1-0.8-1.5-1.1c-0.5-0.3-1-0.6-1.6-0.8l-0.6-0.7c0.1,0.5,0.4,0.8,0.6,1c0,0,0,0.1,0,0.1c0.1,0,0.1,0,0.2,0
						c0.2,0.5,0.5,1,0.9,1.3c0.4,0.3,0.9,0.6,1.5,0.9c0.3,0.1,0.6,0.3,0.8,0.4c0.3,0.1,0.6,0.2,0.9,0.3c0.6,0.2,1.1,0.5,1.6,0.8
						c0.5,0.4,1.1,0.7,1.6,1.1c-0.3,0.1-0.8,0.2-1,0.1c-0.3-0.2-0.6-0.3-0.9-0.6c-0.3-0.2-0.6-0.4-0.9-0.6c-0.6-0.4-1.2-0.7-1.8-0.9
						c0.4,0.6,0.7,1.3,1.3,1.7c0.3,0.2,0.9,0,1.1,0.3c1.3,1.1,2.8,1.1,3.9,2.5c0.1,0.1,0,0.5,0.2,0.6c-1.5-1.1-3.1-1.5-4.7-2.7
						c-0.2-0.3-0.4-0.5-0.5-0.7c-0.3-0.1-0.5-0.1-0.7-0.3c-0.4-0.4-0.8-0.6-1.2-0.7C67.3,67,66.9,67,66.6,67c-0.7,0-1.4-0.1-2-1.2
						c0.6,0.9,2.5,0.8,3.4,0.8c-0.3-0.2-0.6-0.4-1.1-0.6c-0.4-0.2-0.9-0.4-1.3-0.7c-0.4-0.3-0.9-0.5-1.3-0.8c-0.4-0.3-0.8-0.6-1-0.9
						c-0.6-0.8-0.9-1.1-1.3-1.3c-0.2-0.1-0.4-0.1-0.6-0.3c-0.2-0.1-0.5-0.3-0.8-0.6c-0.2-0.3-1.8-0.7-2.3-1.4
						c0.2,0.3,0.3,0.6,0.5,0.9c0.2,0.2,0.4,0.4,0.6,0.6c0.4,0.3,0.7,0.6,0.8,1c0.2,0.2,0.4,0.4,0.6,0.6c0.2,0.2,0.5,0.3,0.7,0.5
						c0.4,0.3,0.9,0.7,1.3,1c0.8,0.6,1.5,1,1.6,1.2c0.2,0.2-0.2,0.1-1.3-0.5c-0.3-0.1-0.6-0.4-0.9-0.6c-0.4-0.3-0.8-0.5-1.2-0.9
						c-0.1-0.1-0.2-0.2-0.4-0.3c-0.1-0.1-0.2-0.2-0.4-0.3c-0.2-0.2-0.5-0.5-0.8-0.7c-0.3-0.3-0.5-0.5-0.8-0.8
						c-0.3-0.3-0.5-0.7-0.8-1.1c0,0.6,2.4,3.9,2.4,4.2c-0.1,0.3-1-1-2-2.3c-0.9-1.4-1.6-3-1.7-2.8c-0.1,0.3,0.2,1.5,0.5,2.6
						c0.3,1.2,0.7,2.2,0.9,2.4c0.2,0.1,0.3,0.3,0.5,0.1c0.2,0.4,0.4,0.6,0.6,0.9c0.2,0.3,0.5,0.4,0.8,0.7c0.8,0.6,1.6,1.1,2.4,1.5
						c0.4,0.2,0.8,0.5,1.1,0.9c0.2,0.2,0.3,0.4,0.5,0.6c0.2,0.2,0.3,0.4,0.5,0.7c0.1,0.2,0.6,0.1,0.8,0.1c1.1,0.9,1.9,2.4,3.2,3.1
						c0.8,0.4,1.2,1.5,2,1.9c1,0.4,1.9,0.9,2.7,1.6c0.9,0.6,1.7,1.4,2.5,2.1c0.3-0.7,0.8-0.2,1-0.1c2,1,3.8,2.2,5.4,3.5
						c0.9,0.4,1.7,0.8,2.6,1.4c1.8,1,3,2.5,4.8,3.1c1.2,0.3,2.3,0.8,3.4,1.5C93.2,88.5,94,88.3,93.9,87.9z M76.2,73.7
						c-1-0.5-1.7-1-2.2-1.4c-0.4-0.2-0.8-0.4-1.3-0.6c-0.5-0.2-1-0.5-1.5-0.7c-0.5-0.2-1-0.5-1.5-0.7c-0.5-0.2-1-0.5-1.4-0.7
						c0.9,0,1.9,0.4,2.9,1c0.5,0.3,1,0.6,1.5,1c0.2,0.1,0.5,0.3,0.7,0.5c0.1,0,0.3,0.2,0.8,0.5c0.8,0.4,1.6,0.9,2.3,1.4
						C76.4,73.8,76.3,73.7,76.2,73.7z M85.1,80.8c-1.9-2-3.3-4.4-5.8-5.7c0.9,0.6,1.4,1.5,1.9,2.5c-0.7-0.6-1.3-1.2-1.9-1.9
						c-0.2,0-0.4-0.1-0.6-0.3c-0.1-0.1-0.3-0.2-0.4-0.3c-0.3-0.5-0.5-0.9-0.8-1.3c-0.8-0.9-1.6-1.7-2.4-2.6
						c-0.8-0.9-1.6-1.7-2.3-2.7c2.8,2.2,5.4,4.6,8,7.1c2.6,2.4,5.2,4.9,8,7c-0.5-0.1-1.1-0.3-1.6-0.5C86.4,81.7,85.8,81.2,85.1,80.8
						z"/>
					<path fill="#94C93D" d="M70.6,65.3c0.3,0.7,0.9,1.3,1.5,1.7c0.8,0.5,1.6,1,2.4,1.5c-0.6-0.8-1.3-1.5-2.1-2.1
						C71.7,66.1,71.1,65.8,70.6,65.3z"/>
				</g>
				<g>
					<path fill="#94C93D" d="M73.4,72c-0.1,0,0,0,0.2,0.1c0.1,0.1,0.2,0.2,0.4,0.3c0.1,0,0.2,0.1,0.2,0.1C74,72.3,73.7,72.1,73.4,72
						z"/>
					<path fill="#94C93D" d="M93.9,87.9c-0.1-0.3-0.3-0.5-0.4-0.7c-1.1-0.7-2-2-3.3-2.4c-0.4-0.3-0.9-0.4-1.5-0.5
						c-0.2-0.1-0.7-0.3-0.6-0.7c1.5,0.6,3,1.2,4.5,1.8c0-0.1,0-0.4-0.2-0.3c0.1-0.1,0.2-0.3,0.2-0.3s-0.1-0.1-0.3-0.2
						c0.3-0.2,1,0.4,0.8,0c-0.5-0.7-1.1-1-1.8-1.3l-0.2-0.3c0,0.1,0,0.2,0.1,0.3c-0.1,0-0.3-0.1-0.4-0.1c-0.1-0.1-0.2-0.2-0.3-0.3
						c-0.1-0.6-0.2-1.2-0.5-1.7c-0.7-1.3-2-1.9-2.9-2.9c-2.6-2.9-5.8-5.2-9-7.2c-0.1-0.1-0.5-0.4-0.8-0.4c3.8,3.2,7.7,5.9,11.1,9.6
						c0.7,0.9,1.4,1.7,2,2.5c-4.2-4.1-8.9-7.6-13.2-11.6c-0.1-0.1-0.3-0.3-0.4-0.4c0.1-0.1,0.3-0.2,0.5-0.2
						c-0.2-0.1-0.3-0.3-0.5-0.4c-0.7-0.6-1.5-1.2-2.3-1.6c0.3,0.3,0.6,0.7,0.9,1c0,0-0.1-0.1-0.1-0.1c-0.3-0.2-0.7-0.4-1.1-0.6
						c-0.4-0.2-0.7-0.4-1.1-0.5c-0.5-0.1-1-1.2-1.5-1.4c-0.5-0.3-1.1-0.6-1.6-1l-0.8-0.5c-0.2-0.2-0.5-0.4-0.7-0.6
						c-0.5-0.4-1-0.8-1.5-1.1c-0.5-0.3-1-0.6-1.6-0.8l-0.6-0.7c0.1,0.5,0.4,0.8,0.6,1c0,0,0,0.1,0,0.1c0.1,0,0.1,0,0.2,0
						c0.2,0.5,0.5,1,0.9,1.3c0.4,0.3,0.9,0.6,1.5,0.9c0.3,0.1,0.6,0.3,0.8,0.4c0.3,0.1,0.6,0.2,0.9,0.3c0.6,0.2,1.1,0.5,1.6,0.8
						c0.5,0.4,1.1,0.7,1.6,1.1c-0.3,0.1-0.8,0.2-1,0.1c-0.3-0.2-0.6-0.3-0.9-0.6c-0.3-0.2-0.6-0.4-0.9-0.6c-0.6-0.4-1.2-0.7-1.8-0.9
						c0.4,0.6,0.7,1.3,1.3,1.7c0.3,0.2,0.9,0,1.1,0.3c1.3,1.1,2.8,1.1,3.9,2.5c0.1,0.1,0,0.5,0.2,0.6c-1.5-1.1-3.1-1.5-4.7-2.7
						c-0.2-0.3-0.4-0.5-0.5-0.7c-0.3-0.1-0.5-0.1-0.7-0.3c-0.4-0.4-0.8-0.6-1.2-0.7C67.3,67,66.9,67,66.6,67c-0.7,0-1.4-0.1-2-1.2
						c0.6,0.9,2.5,0.8,3.4,0.8c-0.3-0.2-0.6-0.4-1.1-0.6c-0.4-0.2-0.9-0.4-1.3-0.7c-0.4-0.3-0.9-0.5-1.3-0.8c-0.4-0.3-0.8-0.6-1-0.9
						c-0.6-0.8-0.9-1.1-1.3-1.3c-0.2-0.1-0.4-0.1-0.6-0.3c-0.2-0.1-0.5-0.3-0.8-0.6c-0.2-0.3-1.8-0.7-2.3-1.4
						c0.2,0.3,0.3,0.6,0.5,0.9c0.2,0.2,0.4,0.4,0.6,0.6c0.4,0.3,0.7,0.6,0.8,1c0.2,0.2,0.4,0.4,0.6,0.6c0.2,0.2,0.5,0.3,0.7,0.5
						c0.4,0.3,0.9,0.7,1.3,1c0.8,0.6,1.5,1,1.6,1.2c0.2,0.2-0.2,0.1-1.3-0.5c-0.3-0.1-0.6-0.4-0.9-0.6c-0.4-0.3-0.8-0.5-1.2-0.9
						c-0.1-0.1-0.2-0.2-0.4-0.3c-0.1-0.1-0.2-0.2-0.4-0.3c-0.2-0.2-0.5-0.5-0.8-0.7c-0.3-0.3-0.5-0.5-0.8-0.8
						c-0.3-0.3-0.5-0.7-0.8-1.1c0,0.6,2.4,3.9,2.4,4.2c-0.1,0.3-1-1-2-2.3c-0.9-1.4-1.6-3-1.7-2.8c-0.1,0.3,0.2,1.5,0.5,2.6
						c0.3,1.2,0.7,2.2,0.9,2.4c0.2,0.1,0.3,0.3,0.5,0.1c0.2,0.4,0.4,0.6,0.6,0.9c0.2,0.3,0.5,0.4,0.8,0.7c0.8,0.6,1.6,1.1,2.4,1.5
						c0.4,0.2,0.8,0.5,1.1,0.9c0.2,0.2,0.3,0.4,0.5,0.6c0.2,0.2,0.3,0.4,0.5,0.7c0.1,0.2,0.6,0.1,0.8,0.1c1.1,0.9,1.9,2.4,3.2,3.1
						c0.8,0.4,1.2,1.5,2,1.9c1,0.4,1.9,0.9,2.7,1.6c0.9,0.6,1.7,1.4,2.5,2.1c0.3-0.7,0.8-0.2,1-0.1c2,1,3.8,2.2,5.4,3.5
						c0.9,0.4,1.7,0.8,2.6,1.4c1.8,1,3,2.5,4.8,3.1c1.2,0.3,2.3,0.8,3.4,1.5C93.2,88.5,94,88.3,93.9,87.9z M76.2,73.7
						c-1-0.5-1.7-1-2.2-1.4c-0.4-0.2-0.8-0.4-1.3-0.6c-0.5-0.2-1-0.5-1.5-0.7c-0.5-0.2-1-0.5-1.5-0.7c-0.5-0.2-1-0.5-1.4-0.7
						c0.9,0,1.9,0.4,2.9,1c0.5,0.3,1,0.6,1.5,1c0.2,0.1,0.5,0.3,0.7,0.5c0.1,0,0.3,0.2,0.8,0.5c0.8,0.4,1.6,0.9,2.3,1.4
						C76.4,73.8,76.3,73.7,76.2,73.7z M85.1,80.8c-1.9-2-3.3-4.4-5.8-5.7c0.9,0.6,1.4,1.5,1.9,2.5c-0.7-0.6-1.3-1.2-1.9-1.9
						c-0.2,0-0.4-0.1-0.6-0.3c-0.1-0.1-0.3-0.2-0.4-0.3c-0.3-0.5-0.5-0.9-0.8-1.3c-0.8-0.9-1.6-1.7-2.4-2.6
						c-0.8-0.9-1.6-1.7-2.3-2.7c2.8,2.2,5.4,4.6,8,7.1c2.6,2.4,5.2,4.9,8,7c-0.5-0.1-1.1-0.3-1.6-0.5C86.4,81.7,85.8,81.2,85.1,80.8
						z"/>
					<path fill="#94C93D" d="M70.6,65.3c0.3,0.7,0.9,1.3,1.5,1.7c0.8,0.5,1.6,1,2.4,1.5c-0.6-0.8-1.3-1.5-2.1-2.1
						C71.7,66.1,71.1,65.8,70.6,65.3z"/>
				</g>
				<g>
					<path fill="#F99D41" d="M73,72C72.3,71.4,72.4,71.5,73,72c0.1,0.1,0.2,0.2,0.3,0.3C73.2,72.2,73.1,72.1,73,72z"/>
					<path fill="#F99D41" d="M90.1,91.8c-0.1-0.3-0.3-0.5-0.4-0.7c-1-0.9-1.8-2.3-3-3c-0.3-0.4-0.8-0.6-1.3-0.9
						c-0.2-0.2-0.6-0.4-0.5-0.9c1.2,1.1,2.6,1.9,3.9,2.9c0-0.1,0-0.3-0.1-0.3c0.1-0.1,0.2-0.2,0.2-0.2s-0.1-0.1-0.2-0.3
						c0.3-0.1,0.9,0.6,0.7,0.2c-0.4-0.7-1-1.2-1.6-1.6l-0.2-0.4c0,0.1,0,0.2,0.1,0.3c-0.1-0.1-0.2-0.1-0.3-0.2
						c-0.1-0.1-0.2-0.2-0.3-0.4c-0.1-0.5-0.2-1.1-0.4-1.6c-0.6-1.4-1.7-2.3-2.4-3.4c-2.2-3.4-4.8-6.5-7.6-9.3
						c-0.1-0.2-0.4-0.5-0.7-0.6c1.7,2,3.3,3.9,4.9,5.8c0.8,1,1.6,2,2.3,3c0.7,1,1.5,2.1,2.2,3.2c0.5,0.9,1.1,1.9,1.7,2.8
						c-3.6-4.8-7.3-9.6-11.1-14.3c-0.1-0.2-0.3-0.3-0.4-0.5c0.1-0.1,0.3-0.1,0.4,0c-0.1-0.2-0.3-0.3-0.4-0.5c-0.6-0.7-1.3-1.4-2-2
						c0.3,0.4,0.5,0.7,0.8,1.1c-0.6-0.6-1.3-1.2-2.1-1.6c-0.5-0.2-1-1.3-1.5-1.5c-2.1-1.2-3.9-3.4-6.3-3.8l-0.7-0.6
						c0.2,0.4,0.5,0.6,0.8,0.8c0,0,0,0.1,0,0.1c0.1,0,0.1,0,0.2,0c1,1.6,3.9,2.3,5.8,3.6c0.5,0.4,1,0.8,1.5,1.3
						c-0.2,0-0.7,0-0.9-0.1c-1.1-0.8-2.3-1.8-3.5-2.3c0.4,0.5,0.8,1.2,1.3,1.6c0.3,0.2,0.8,0.1,1,0.4c0.6,0.6,1.3,1,1.9,1.4
						c0.6,0.4,1.2,0.9,1.7,1.6c0.1,0.1,0,0.5,0.2,0.6c-0.7-0.7-1.4-1.2-2.1-1.7c-0.7-0.5-1.4-1-2.2-1.6c-0.2-0.3-0.4-0.5-0.5-0.7
						c-0.3-0.1-0.5-0.2-0.6-0.3c-1.7-1.5-2.8-0.2-4.3-1.9c0.4,0.3,1,0.5,1.6,0.6c0.6,0.1,1.2,0.2,1.6,0.2c-1.1-0.7-3.6-1.5-4.9-2.4
						c-0.8-0.6-1.1-0.7-1.5-0.8c-0.4-0.1-0.8-0.1-1.6-0.3c-0.3-0.1-2-0.1-2.7-0.2c1.1,0.6,2,0.7,2.6,1c0.5,0.1,1,0.3,1.5,0.5
						c0.5,0.2,1,0.4,1.4,0.6c0.9,0.4,1.6,0.7,1.7,0.9c0.2,0.1-0.2,0.1-1.3-0.4c-0.6-0.2-1.3-0.5-2.4-0.9c-1-0.3-2.3-0.7-3.9-1.3
						c0.2,0.2,3.4,1.9,3.4,2.1c-0.1,0.3-5-2.5-4.9-2.2c0.1,0.4,2.2,2.5,2.6,2.7c0.2,0,0.3,0.1,0.5-0.1c0.5,0.4,1.1,0.5,1.7,0.8
						c1.6,0.7,3.5,0.9,4.7,2.5c0.1,0.1,0.6,0.1,0.8,0.2c1.1,0.8,1.9,2.2,3.1,2.9c0.7,0.5,1.2,1.5,1.9,2c1.7,1.1,3.1,2.8,4.6,4.6
						c0.2-0.6,0.7,0,0.8,0.3c1.7,1.5,3.2,3.1,4.5,4.8c0.7,0.7,1.4,1.3,2.1,2c0.7,0.7,1.4,1.5,2,2.3c0.6,0.7,1.3,1.5,2.1,2
						c1.1,0.6,2,1.3,3,2.3C89.6,92.2,90.3,92.1,90.1,91.8z M75,73.9c-0.8-0.7-1.5-1.4-1.9-1.8c-1.7-1.4-3.4-2.5-5.2-3.5
						c0.8,0.1,1.7,0.6,2.7,1.3c0.8,0.6,1.7,1.4,2.5,2.1c0.1,0.1,0.2,0.2,0.3,0.3c0.7,0.6,1.4,1.2,2,1.8C75.2,74,75.1,73.9,75,73.9z
						 M82.5,82.9c-0.8-1.2-1.5-2.4-2.2-3.6c-0.8-1.2-1.6-2.3-2.6-3.3c0.7,0.8,1.2,1.8,1.6,2.8c-0.5-0.8-1.1-1.5-1.6-2.3
						c-0.2-0.1-0.4-0.2-0.5-0.4c-0.1-0.1-0.2-0.3-0.3-0.4c-0.2-0.5-0.5-1-0.7-1.4c-1.4-2.1-2.9-3.9-4.3-5.9
						c5.2,4.9,9,11.7,13.7,17.2c-0.5-0.3-0.9-0.6-1.3-1C83.6,84.1,83.1,83.5,82.5,82.9z"/>
					<path fill="#F99D41" d="M69.6,65.4c0.4,0.6,1,1.2,1.5,1.7c0.8,0.6,1.5,1.2,2.2,1.8c-0.6-0.8-1.3-1.6-2-2.3
						C70.7,66.2,70.1,65.8,69.6,65.4z"/>
				</g>
				<g>
					<g opacity="0.8">
						<path fill="#52A6DC" d="M85.1,23.4c0.2-0.1,0.3-0.2,0.4-0.4c0.1-0.2,0.5-0.3,0.8-0.4c0.1-0.1,0.2-0.2,0.3-0.3
							c0.3-0.1,0.6-0.3,0.8-0.6c0,0,0.2-0.1-0.1-0.2c0.3-0.2,0.7-0.3,0.7-0.6c0.1-0.1,0.3-0.1,0.4-0.2c0-0.2,0.4-0.2,0.5-0.4
							c0,0-0.1-0.2-0.1-0.2c0.4-0.1,0.2-0.5,0.2-0.9c0-0.1,0-0.2,0.1-0.3c-0.1-0.1-0.1-0.1-0.1-0.1c0-0.1,0.5-0.2,0.7-0.2
							c0.1,0-0.4,0.8-0.2,0.8c0.1,0,0.3-0.5,0.4-0.5c0,2.5,0.2,1.4,0.1,0.6c0.1-0.1,0-0.3,0.1-0.5c0,0.2,0.3,0.6,0.2,0.6
							c0,0.3,0.2,0.4,0,0.6c-0.1,0.2-0.1,0.7-0.1,0.9c-0.1-0.2-0.4-0.7-0.2-0.8c-0.4,0.1,0.3,0.6,0,0.9c0,0,0,0.1,0,0.1
							c0,0-0.1,0-0.1,0c-0.2,0.2-0.2,0.5-0.4,0.7c0,0,0.1,0,0.2,0c0.3-0.1,0.2-0.4,0.4-0.6c0.1,0-0.1-0.2,0-0.2
							c0-0.1,0.2-0.1,0.3-0.1c0,0.3-0.1,0.4-0.2,0.6c0,0,0.1,0.2,0.1,0.2c0.1-0.1,0.1-0.1,0.2-0.2c0.1-0.3-0.1-1,0.3-1c0,0,0,0,0,0
							c0,0,0,0,0,0c0,0,0.1-0.1,0.2-0.1l-0.1,0.1c0.2,0.5-0.3,0.7-0.3,1.1c0,0.1-0.3,0.1-0.3,0.2c0,0.3-0.2,0.4-0.5,0.5
							c-1,0.4-2,0.8-3.1,1c0,0,0,0,0,0.1c0,0,0.1,0,0.1,0c0,0-0.1,0-0.1,0c-0.1,0.1-0.2,0.2-0.3,0.1c-0.1,0,0-0.1,0-0.2
							c0,0-0.1,0-0.1,0s0,0-0.1-0.1c0,0-0.1,0-0.1,0c0.1-0.2,0.3-0.4,0.4-0.6c-0.1-0.1-0.2,0-0.2,0c0,0.1,0,0.2-0.1,0.2
							c-0.1,0.2-0.4,0.2-0.6,0.3c-0.1,0-0.1,0-0.2,0C85.1,23.6,85,23.4,85.1,23.4z M88.9,22.5c-0.1,0-0.2,0-0.4,0c0,0,0,0-0.1,0
							c0,0-0.1,0-0.1,0.1c-0.2,0-0.3,0.1-0.5,0.1c0.3,0,0.5,0.1,0.7,0c-0.3,0.3-1,0.2-1.5,0.3c-0.1,0.1-0.2,0.1-0.3,0.2
							c-0.1,0.1-0.1,0.1-0.1,0.2c0.6-0.2,1.3-0.3,1.9-0.5c0.6-0.2,1.2-0.4,1.6-0.8C89.7,22.2,89.4,22.4,88.9,22.5z M88.9,22.3
							c0.1-0.1,0.2-0.2,0.3-0.3c0.3-0.3,0.5-0.6,0.3-1c-0.1,0.3-0.1,0.7-0.3,1C89.4,21.7,89.2,21.9,88.9,22.3
							C88.9,22.2,88.9,22.3,88.9,22.3z"/>
						<path fill="#52A6DC" d="M87.4,23.7c-0.3,0-0.5,0-0.7,0c0.2,0.1,0.4,0.1,0.5,0.2c0.4,0.1,0.5-0.1,0.8-0.1
							c0.8-0.1,1.4-0.4,1.8-0.8c0,0,0.1,0,0.1-0.1C89.2,23.2,88.5,23.6,87.4,23.7z"/>
						<path fill="#52A6DC" d="M90.8,22.3c0-0.1,0-0.2,0.1-0.3c-0.2,0-0.3,0.1-0.3,0.2c-0.1,0.1-0.1,0.3-0.2,0.4
							C90.5,22.4,90.7,22.4,90.8,22.3z"/>
						<path fill="#52A6DC" d="M89.9,22.8C89.9,22.8,90,22.8,89.9,22.8c0.2-0.1,0.3-0.2,0.4-0.3c-0.2,0.1-0.4,0.1-0.6,0.1
							C89.9,22.7,89.9,22.8,89.9,22.8z"/>
					</g>
				</g>
				<g>
					<g opacity="0.8">
						<path fill="#FFF274" d="M64.3,63.3c-0.1-0.1-0.1-0.2-0.2-0.2C64,63,63.9,63,63.8,63c-0.3-0.1-0.4-0.6-0.7-0.8
							c-0.1-0.1-0.3-0.2-0.4-0.3c-0.1-0.2-0.3-0.3-0.4-0.4c-0.2-0.1-0.4-0.2-0.6-0.3c0,0-0.1-0.1-0.2,0.1c-0.2-0.1-0.4-0.3-0.5-0.4
							c-0.2-0.1-0.4-0.2-0.6-0.1c-0.2,0-0.3-0.3-0.5-0.3c-0.3,0.1-0.5-0.3-0.8-0.3c0,0-0.1,0.2-0.2,0.2c-0.4-0.3-0.8,0.1-1.1,0.3
							c-0.1,0-0.3,0.1-0.4,0.1c0,0.1,0,0.1-0.1,0.1c-0.1,0-0.7-0.3-0.7-0.5c0,0,0.3-0.1,0.6-0.1c0.3,0,0.6-0.1,0.6-0.1
							c0-0.1-0.8,0-0.8,0c0.7-0.3,1.2-0.6,1.4-0.7c0.3-0.1,0.3-0.2,0.3-0.2c-0.1,0-0.7,0.2-1.1,0.4c-0.1,0-0.3,0.2-0.6,0.2
							c0.2-0.1,0.5-0.5,0.6-0.6c0.4-0.2,0.3-0.4,0.7-0.3c0.3,0,0.9-0.3,1.2-0.3c-0.2,0.2-0.6,0.6-0.8,0.6c0.4,0.3,0.6-0.5,1.1-0.4
							c0,0,0.1,0,0.2-0.1c0.1,0,0.1,0.1,0.2,0.1c0.4,0.1,0.8-0.1,1.2,0.1c0,0,0-0.1-0.1-0.2c-0.3-0.3-0.7-0.1-1-0.2
							c-0.1,0-0.2,0.1-0.3,0.1c-0.2,0-0.3-0.2-0.4-0.2c0.3-0.1,0.6-0.1,0.9,0c0.1,0,0.2-0.1,0.2-0.2c-0.1,0-0.3-0.1-0.4-0.1
							c-0.5,0-1.2,0.5-1.5,0.2c0,0,0,0,0,0c0,0,0,0,0,0c-0.1,0-0.2,0-0.2-0.1l0.2,0c0.5-0.4,1.1-0.1,1.7-0.2c0.1,0,0.3,0.2,0.4,0.2
							c0.2,0,0.4,0,0.6,0c0.2,0.1,0.4,0.2,0.5,0.3c0.6,0.4,1.2,0.9,1.6,1.4c0.5,0.5,0.9,1.1,1.1,1.8c0,0,0,0,0.1,0c0,0,0-0.1,0-0.1
							c0,0,0,0.1,0,0.1c0.1,0.1,0.2,0.2,0.2,0.4c0,0.1-0.1-0.1-0.2,0c0,0,0,0.1,0,0.1s0,0-0.1,0.1c0,0,0,0.1,0,0.1
							c-0.2-0.2-0.5-0.3-0.8-0.5c0,0.2,0,0.2,0.1,0.2c0.1,0,0.2,0,0.2,0.1c0.1,0.1,0.2,0.2,0.2,0.3c0.1,0.1,0.1,0.3,0.2,0.4
							c0,0.1,0,0.1,0,0.2c0,0.1-0.1,0.1-0.1,0.1C64.4,63.4,64.3,63.4,64.3,63.3z M61.9,59.5c0.1,0.1,0.1,0.2,0.2,0.4
							c0,0,0.1,0,0.1,0.1c0,0,0.1,0,0.1,0c0.1,0.2,0.3,0.3,0.4,0.5c-0.1-0.3-0.2-0.5-0.4-0.7c0.1,0.1,0.3,0.1,0.4,0.2
							c0.1,0.1,0.2,0.2,0.3,0.4c0.2,0.3,0.3,0.6,0.5,0.9c0.1,0.1,0.2,0.2,0.4,0.3c0.1,0.1,0.2,0.1,0.3,0.1c-0.4-0.6-0.9-1.3-1.5-1.9
							c-0.6-0.6-1.3-1.1-2.1-1.3C61.1,58.7,61.5,59,61.9,59.5z M61.7,59.6c-0.2-0.1-0.4-0.1-0.6-0.2c-0.2-0.1-0.5-0.1-0.8-0.2
							c-0.2,0-0.5,0.1-0.7,0.2c0.5-0.1,0.9-0.1,1.4-0.1C60.7,59.3,61,59.4,61.7,59.6C61.6,59.6,61.6,59.6,61.7,59.6z"/>
						<path fill="#FFF274" d="M64.2,60.9c0.1,0.3,0.2,0.5,0.3,0.8c0-0.2,0.1-0.4,0.1-0.6c0-0.2-0.1-0.4-0.2-0.5
							c-0.1-0.1-0.2-0.2-0.3-0.4c-0.5-0.9-1.3-1.5-2.1-1.8c0,0-0.1-0.1-0.2,0c0.5,0.3,1,0.6,1.4,1C63.6,59.8,64,60.3,64.2,60.9z"/>
						<path fill="#FFF274" d="M60.4,57.8c-0.2,0-0.3,0-0.5,0c0.1,0.2,0.3,0.2,0.5,0.2c0.2,0,0.4,0,0.7,0.1
							C60.8,58,60.6,57.8,60.4,57.8z"/>
						<path fill="#FFF274" d="M61.7,58.4c0,0-0.1,0-0.1-0.1c-0.2-0.1-0.4-0.2-0.6-0.2c0.2,0.2,0.4,0.3,0.6,0.5
							C61.6,58.5,61.7,58.4,61.7,58.4z"/>
					</g>
				</g>
				<g>
					<g opacity="0.8">
						<path fill="#FFF274" d="M49.8,57.1c-0.1-0.1-0.1-0.1-0.1,0c0,0.1-0.2-0.2-0.3-0.3c-0.1-0.1-0.1-0.1-0.1-0.1
							c-0.1-0.2-0.2-0.3-0.3-0.3c0,0-0.1-0.1,0,0.2c-0.1-0.1-0.3-0.3-0.3-0.2c0,0-0.1-0.2-0.1-0.1c0,0.1-0.1-0.2-0.2-0.1
							c0,0,0,0.2,0,0.2c-0.2-0.2-0.1,0.2,0,0.4c0,0.1,0,0.1,0,0.1c0,0.1,0,0.1,0,0.1c0,0-0.2-0.2-0.3-0.4c0-0.1,0.1-0.2,0.1-0.3
							c0-0.1-0.1,0.1-0.1,0c-0.1-1.5-0.1-1-0.1-0.5c0,0,0,0.2,0,0.2c0-0.1-0.1-0.5-0.1-0.6c0-0.2-0.1-0.4,0-0.4c0.1,0,0-0.4,0-0.5
							c0.1,0.2,0.2,0.7,0.1,0.6c0.1,0.2-0.1-0.6,0-0.5c0,0,0,0,0-0.1c0,0,0,0,0.1,0.1c0.1,0,0-0.2,0.1-0.1c0,0-0.1-0.1-0.1-0.1
							c-0.1-0.2-0.1,0.1-0.1,0c0,0,0,0.2,0,0.2c0,0-0.1-0.1-0.1-0.2c0-0.2,0-0.2,0.1-0.2c0,0,0-0.2-0.1-0.2c0,0,0,0-0.1,0
							c0,0.1,0.1,0.7-0.1,0.4c0,0,0,0,0,0c0,0,0,0,0,0c0,0,0,0-0.1-0.1l0,0c-0.1-0.4,0.1-0.2,0.1-0.4c0-0.1,0.1,0.1,0.1,0.1
							c0-0.1,0.1-0.1,0.2,0.1c0.4,0.4,0.7,0.9,1.2,1.7c0,0,0,0,0,0c0,0,0-0.1,0-0.1c0,0,0,0,0,0.1c0,0,0.1,0,0.1,0.2
							c0,0.1,0,0,0,0.1c0,0,0,0,0,0s0,0.1,0,0.1c0,0,0,0,0,0.1c0,0-0.1,0-0.1,0.1c0.1,0.2,0.1,0.1,0.1,0.1c0,0,0-0.1,0,0
							c0,0,0.2,0.2,0.2,0.3c0,0,0,0.1,0.1,0.2C49.7,56.9,49.8,57.1,49.8,57.1z M48.3,54.9c0,0.1,0.1,0.2,0.1,0.3c0,0,0,0,0,0
							c0,0,0,0,0,0c0.1,0.1,0.1,0.2,0.2,0.3c-0.1-0.2-0.2-0.4-0.3-0.5c0.1,0,0.4,0.6,0.6,0.9c0,0,0.1,0.1,0.1,0.1c0,0,0,0,0-0.1
							c-0.4-0.6-1-1.6-1.3-1.7C48,54.4,48.1,54.6,48.3,54.9z M48.3,55C48.3,55,48.3,55,48.3,55c-0.2,0-0.3-0.1-0.2,0.3
							C48.2,55.2,48.2,55.1,48.3,55C48.2,55,48.2,55.1,48.3,55C48.3,55,48.3,55,48.3,55z"/>
						<path fill="#FFF274" d="M48.8,55.2c0.1,0.2,0.2,0.3,0.3,0.5C49,55.6,49,55.4,48.8,55.2c-0.1-0.2-0.1-0.2-0.2-0.4
							c-0.3-0.5-0.5-0.8-0.7-0.8c0,0,0,0,0,0C48.2,54.3,48.4,54.5,48.8,55.2z"/>
						<path fill="#FFF274" d="M47.6,53.7C47.6,53.7,47.6,53.8,47.6,53.7c0,0.2,0.1,0.2,0.1,0.2c0,0,0-0.1,0.1-0.1
							C47.7,53.8,47.6,53.7,47.6,53.7z"/>
						<path fill="#FFF274" d="M47.9,54C47.9,53.9,47.9,53.9,47.9,54c-0.1-0.1-0.1-0.1-0.1-0.1c0.1,0.1,0.1,0.2,0.2,0.3
							C47.9,54.1,47.9,54,47.9,54z"/>
					</g>
				</g>
				<g>
					<g opacity="0.8">
						<path fill="#E34673" d="M67.2,16.5c-0.1,0-0.2,0.1-0.1,0.2c0,0.1-0.3,0.1-0.5,0.2c-0.1,0-0.1,0.1-0.2,0.2
							c-0.2,0.1-0.4,0.2-0.5,0.4c0,0-0.1,0,0.2,0.1c-0.2,0.1-0.5,0.2-0.3,0.4c0,0.1-0.2,0.1-0.2,0.2c0.1,0.1-0.2,0.2-0.2,0.3
							c0,0,0.2,0.1,0.2,0.1c-0.3,0.1,0.1,0.3,0.3,0.5c0,0.1,0.1,0.1,0.1,0.2c0.1,0,0.1,0,0.1,0c0,0-0.3,0.2-0.5,0.3
							c-0.1,0-0.1-0.4-0.3-0.4c-0.1,0,0,0.3,0,0.3c-0.3-0.3-0.6-0.5-0.7-0.6c-0.1-0.1-0.2-0.2-0.2-0.1c0,0,0.2,0.3,0.4,0.5
							c0,0.1,0.2,0.1,0.2,0.2c-0.1-0.1-0.5-0.2-0.6-0.2c-0.2-0.2-0.4-0.1-0.3-0.3c0-0.1-0.3-0.4-0.4-0.6c0.2,0.1,0.7,0.3,0.6,0.4
							c0.3-0.2-0.5-0.3-0.4-0.5c0,0,0,0-0.1-0.1c0,0,0.1,0,0.1-0.1c0.1-0.2-0.1-0.4,0-0.5c0,0-0.1,0-0.2,0c-0.3,0.1,0,0.3-0.1,0.4
							c0,0,0.2,0.1,0.1,0.1c0,0.1-0.1,0.1-0.2,0.2c-0.2-0.1-0.1-0.3-0.1-0.4c0,0-0.1-0.1-0.2-0.1c0,0.1,0,0.1-0.1,0.2
							c0,0.2,0.6,0.6,0.2,0.7c0,0,0,0,0,0c0,0,0,0,0,0c0,0,0,0.1-0.1,0.1l0-0.1c-0.4-0.3-0.1-0.5-0.3-0.8c-0.1-0.1,0.2-0.1,0.1-0.2
							c-0.1-0.2,0-0.3,0.2-0.5c0.7-0.4,1.4-0.8,2.3-0.9c0,0,0,0,0,0c0,0-0.1,0-0.1,0c0,0,0.1,0,0.1,0c0-0.1,0.1-0.1,0.2-0.1
							c0.1,0,0,0,0.1,0.1c0,0,0,0,0,0s0.1,0,0.1,0.1c0,0,0,0,0.1,0c0,0.1-0.1,0.2-0.1,0.3c0.2,0.1,0.1,0,0.2,0c0,0,0-0.1,0-0.1
							c0-0.1,0.3-0.1,0.4-0.1c0.1,0,0.1,0,0.2,0C67.1,16.4,67.2,16.5,67.2,16.5z M64.2,17.1c0.1,0,0.2,0,0.3,0c0,0,0,0,0,0
							c0,0,0,0,0-0.1c0.1,0,0.2-0.1,0.4-0.1c-0.3,0-0.5,0-0.6,0.1c0.1-0.2,0.8-0.3,1.2-0.3c0.1,0,0.1-0.1,0.2-0.1c0,0,0-0.1,0-0.1
							c-0.2,0.1-0.4,0.1-0.7,0.2c-0.2,0.1-0.5,0.1-0.7,0.2c-0.5,0.2-0.9,0.4-1.1,0.8c0.2-0.1,0.3-0.2,0.5-0.2
							C63.9,17.3,64.1,17.2,64.2,17.1z M64.4,17.3c-0.1,0.1-0.1,0.1-0.1,0.2c-0.1,0.2-0.2,0.4,0.2,0.6c-0.1-0.2-0.2-0.4-0.2-0.6
							C64.2,17.7,64.3,17.5,64.4,17.3C64.4,17.3,64.4,17.3,64.4,17.3z"/>
						<path fill="#E34673" d="M65.1,16.2c0.2,0,0.4,0,0.6,0c-0.2,0-0.4-0.1-0.5-0.1c-0.3,0-0.4,0.1-0.6,0.1
							c-0.3,0.1-0.6,0.2-0.8,0.3c-0.2,0.1-0.4,0.3-0.5,0.5c0,0-0.1,0.1,0,0.1c0.2-0.2,0.5-0.4,0.8-0.5c0.1-0.1,0.3-0.1,0.5-0.2
							C64.7,16.3,64.9,16.2,65.1,16.2z"/>
						<path fill="#E34673" d="M62.8,17.6c0,0.1,0.1,0.2,0,0.2c0.1,0,0.2-0.1,0.2-0.2c0-0.1,0-0.2,0-0.3
							C62.9,17.5,62.8,17.5,62.8,17.6z"/>
						<path fill="#E34673" d="M63.2,17.1C63.2,17.1,63.2,17.1,63.2,17.1c-0.1,0.1-0.2,0.2-0.2,0.3c0.1-0.1,0.3-0.1,0.4-0.2
							C63.3,17.1,63.3,17.1,63.2,17.1z"/>
					</g>
				</g>
				<g>
					<path fill="#F99D41" d="M73,72C72.3,71.4,72.4,71.5,73,72c0.1,0.1,0.2,0.2,0.3,0.3C73.2,72.2,73.1,72.1,73,72z"/>
					<path fill="#F99D41" d="M90.1,91.8c-0.1-0.3-0.3-0.5-0.4-0.7c-1-0.9-1.8-2.3-3-3c-0.3-0.4-0.8-0.6-1.3-0.9
						c-0.2-0.2-0.6-0.4-0.5-0.9c1.2,1.1,2.6,1.9,3.9,2.9c0-0.1,0-0.3-0.1-0.3c0.1-0.1,0.2-0.2,0.2-0.2s-0.1-0.1-0.2-0.3
						c0.3-0.1,0.9,0.6,0.7,0.2c-0.4-0.7-1-1.2-1.6-1.6l-0.2-0.4c0,0.1,0,0.2,0.1,0.3c-0.1-0.1-0.2-0.1-0.3-0.2
						c-0.1-0.1-0.2-0.2-0.3-0.4c-0.1-0.5-0.2-1.1-0.4-1.6c-0.6-1.4-1.7-2.3-2.4-3.4c-2.2-3.4-4.8-6.5-7.6-9.3
						c-0.1-0.2-0.4-0.5-0.7-0.6c1.7,2,3.3,3.9,4.9,5.8c0.8,1,1.6,2,2.3,3c0.7,1,1.5,2.1,2.2,3.2c0.5,0.9,1.1,1.9,1.7,2.8
						c-3.6-4.8-7.3-9.6-11.1-14.3c-0.1-0.2-0.3-0.3-0.4-0.5c0.1-0.1,0.3-0.1,0.4,0c-0.1-0.2-0.3-0.3-0.4-0.5c-0.6-0.7-1.3-1.4-2-2
						c0.3,0.4,0.5,0.7,0.8,1.1c-0.6-0.6-1.3-1.2-2.1-1.6c-0.5-0.2-1-1.3-1.5-1.5c-2.1-1.2-3.9-3.4-6.3-3.8l-0.7-0.6
						c0.2,0.4,0.5,0.6,0.8,0.8c0,0,0,0.1,0,0.1c0.1,0,0.1,0,0.2,0c1,1.6,3.9,2.3,5.8,3.6c0.5,0.4,1,0.8,1.5,1.3
						c-0.2,0-0.7,0-0.9-0.1c-1.1-0.8-2.3-1.8-3.5-2.3c0.4,0.5,0.8,1.2,1.3,1.6c0.3,0.2,0.8,0.1,1,0.4c0.6,0.6,1.3,1,1.9,1.4
						c0.6,0.4,1.2,0.9,1.7,1.6c0.1,0.1,0,0.5,0.2,0.6c-0.7-0.7-1.4-1.2-2.1-1.7c-0.7-0.5-1.4-1-2.2-1.6c-0.2-0.3-0.4-0.5-0.5-0.7
						c-0.3-0.1-0.5-0.2-0.6-0.3c-1.7-1.5-2.8-0.2-4.3-1.9c0.4,0.3,1,0.5,1.6,0.6c0.6,0.1,1.2,0.2,1.6,0.2c-1.1-0.7-3.6-1.5-4.9-2.4
						c-0.8-0.6-1.1-0.7-1.5-0.8c-0.4-0.1-0.8-0.1-1.6-0.3c-0.3-0.1-2-0.1-2.7-0.2c1.1,0.6,2,0.7,2.6,1c0.5,0.1,1,0.3,1.5,0.5
						c0.5,0.2,1,0.4,1.4,0.6c0.9,0.4,1.6,0.7,1.7,0.9c0.2,0.1-0.2,0.1-1.3-0.4c-0.6-0.2-1.3-0.5-2.4-0.9c-1-0.3-2.3-0.7-3.9-1.3
						c0.2,0.2,3.4,1.9,3.4,2.1c-0.1,0.3-5-2.5-4.9-2.2c0.1,0.4,2.2,2.5,2.6,2.7c0.2,0,0.3,0.1,0.5-0.1c0.5,0.4,1.1,0.5,1.7,0.8
						c1.6,0.7,3.5,0.9,4.7,2.5c0.1,0.1,0.6,0.1,0.8,0.2c1.1,0.8,1.9,2.2,3.1,2.9c0.7,0.5,1.2,1.5,1.9,2c1.7,1.1,3.1,2.8,4.6,4.6
						c0.2-0.6,0.7,0,0.8,0.3c1.7,1.5,3.2,3.1,4.5,4.8c0.7,0.7,1.4,1.3,2.1,2c0.7,0.7,1.4,1.5,2,2.3c0.6,0.7,1.3,1.5,2.1,2
						c1.1,0.6,2,1.3,3,2.3C89.6,92.2,90.3,92.1,90.1,91.8z M75,73.9c-0.8-0.7-1.5-1.4-1.9-1.8c-1.7-1.4-3.4-2.5-5.2-3.5
						c0.8,0.1,1.7,0.6,2.7,1.3c0.8,0.6,1.7,1.4,2.5,2.1c0.1,0.1,0.2,0.2,0.3,0.3c0.7,0.6,1.4,1.2,2,1.8C75.2,74,75.1,73.9,75,73.9z
						 M82.5,82.9c-0.8-1.2-1.5-2.4-2.2-3.6c-0.8-1.2-1.6-2.3-2.6-3.3c0.7,0.8,1.2,1.8,1.6,2.8c-0.5-0.8-1.1-1.5-1.6-2.3
						c-0.2-0.1-0.4-0.2-0.5-0.4c-0.1-0.1-0.2-0.3-0.3-0.4c-0.2-0.5-0.5-1-0.7-1.4c-1.4-2.1-2.9-3.9-4.3-5.9
						c5.2,4.9,9,11.7,13.7,17.2c-0.5-0.3-0.9-0.6-1.3-1C83.6,84.1,83.1,83.5,82.5,82.9z"/>
					<path fill="#F99D41" d="M69.6,65.4c0.4,0.6,1,1.2,1.5,1.7c0.8,0.6,1.5,1.2,2.2,1.8c-0.6-0.8-1.3-1.6-2-2.3
						C70.7,66.2,70.1,65.8,69.6,65.4z"/>
				</g>
			</g>
			<g>
				<g>
					<path fill="#52A6DC" d="M69.9,42.6c0.1-0.1,0.2-0.1,0.2-0.2C68.8,43.2,68.9,43.2,69.9,42.6z"/>
					<path fill="#52A6DC" d="M56.7,59.8c-0.8,1.6-1.5,3.1-1.4,3.1c0.2,0,0.8-0.7,1.4-1.4c0.3-0.4,0.6-0.7,0.9-1
						c0.3-0.3,0.5-0.5,0.6-0.7c0.1-0.3,0.2-0.4,0.1-0.6c0.2-0.3,0.4-0.6,0.6-1c0.2-0.3,0.3-0.7,0.6-1c0.5-0.9,1-2,1.5-3
						c0.6-0.9,1.2-1.8,2.2-2.3c0.2-0.1,0.3-0.7,0.4-0.9c0.6-0.6,1.2-1,1.9-1.5c0.7-0.4,1.4-0.9,1.9-1.5c0.4-0.4,0.8-0.6,1.3-0.8
						c0.5-0.2,0.9-0.5,1.3-0.8c1.7-1.7,4-2.7,6.2-3.8c-0.4-0.4,0.3-0.7,0.6-0.9c2.1-1.4,4.4-2.6,6.5-3.5c0.9-0.6,1.9-1.2,2.9-1.8
						c0.5-0.3,1-0.6,1.5-0.8c0.5-0.3,1-0.5,1.5-0.8c1-0.5,1.9-1,2.7-1.8c0.5-0.5,1-1,1.6-1.5c0.5-0.5,1.1-1,1.7-1.5
						c0.5-0.3,0.7-1.1,0.4-1c-0.3,0.1-0.6,0.2-0.8,0.3c-0.6,0.5-1.3,0.9-2,1.3c-0.7,0.4-1.4,0.8-2,1.4c-0.5,0.3-0.9,0.7-1.4,1.2
						c-0.2,0.1-0.6,0.5-1,0.4c0.7-0.6,1.5-1.1,2.2-1.8c0.4-0.3,0.7-0.6,1-0.9c0.3-0.3,0.7-0.6,1-0.9c-0.1,0-0.3-0.1-0.4,0.1
						c-0.1-0.1-0.1-0.3-0.1-0.3s-0.2,0.1-0.3,0.2c0.1-0.3,0.9-0.9,0.5-0.8c-0.8,0.3-1.5,0.8-2.1,1.4c-0.1,0-0.3,0.1-0.4,0.1
						c0.1,0,0.2,0,0.3,0c-0.1,0.1-0.2,0.2-0.3,0.3c-0.2,0.1-0.3,0.1-0.5,0.2c-0.5,0-1.1-0.1-1.6,0c-0.8,0.2-1.5,0.5-2.1,0.8
						c-0.7,0.3-1.4,0.7-2.1,0.9c-4.2,1.4-8.2,3.3-12.1,5.7c-0.2,0.1-0.6,0.3-0.9,0.6c5.2-2.6,10.1-4.8,15.5-6.8
						c1.1-0.3,2.1-0.7,3.2-1.1c-5.9,2.8-12.2,5.2-18.2,8.1c-0.2,0.1-0.4,0.2-0.6,0.3c0-0.2,0-0.3,0.2-0.5c-0.2,0.1-0.4,0.2-0.6,0.3
						c-0.9,0.5-1.9,1.1-2.7,1.7c0.5-0.2,0.9-0.4,1.4-0.6c-0.8,0.5-1.6,1.2-2.3,1.9c-0.4,0.5-1.6,0.7-2,1.3c-0.5,0.5-1,1-1.6,1.5
						c-0.6,0.5-1.1,1-1.6,1.5c-1.1,1-2,2.2-2.6,3.5c0,0-0.2,0.2-0.4,0.4c-0.1,0.1-0.2,0.2-0.2,0.3c-0.1,0.1-0.1,0.1-0.1,0.1
						c0.4-0.2,0.7-0.5,1-0.8c0,0,0.1,0,0.1,0c0-0.1,0.1-0.2,0.1-0.2c0.5-0.2,0.9-0.6,1.3-1c0.2-0.2,0.4-0.5,0.7-0.8
						c0.2-0.3,0.4-0.5,0.7-0.8c0.5-0.6,0.9-1.2,1.4-1.8c0.5-0.6,1-1.1,1.4-1.6c0.6-0.5,1.2-0.9,1.8-1.4c-0.1,0.3-0.2,0.8-0.5,1
						c-0.6,0.5-1.3,1.1-1.9,1.6c-0.3,0.3-0.6,0.6-0.9,0.9c-0.3,0.3-0.5,0.6-0.7,1c0.3-0.2,0.7-0.4,1-0.5c0.3-0.2,0.7-0.4,1-0.6
						c0.3-0.3,0.4-0.9,0.8-1.1c0.8-0.6,1.4-1.2,2.1-1.8c0.6-0.6,1.3-1.1,2.2-1.4c0.2-0.1,0.5,0.1,0.6,0c-0.5,0.3-0.9,0.6-1.3,0.9
						c-0.4,0.3-0.8,0.7-1.2,1c-0.8,0.7-1.5,1.4-2.4,2.1c-0.3,0.2-0.6,0.3-0.8,0.4c-0.2,0.3-0.4,0.5-0.5,0.7c-1,0.8-1.3,1.7-1.6,2.4
						c-0.3,0.8-0.6,1.5-1.7,2.3c0.4-0.4,0.8-1.1,1.1-1.8c0.3-0.7,0.6-1.4,0.7-1.9c-0.5,0.6-1.2,1.5-1.9,2.6c-0.3,0.5-0.7,1-1,1.5
						c-0.2,0.2-0.3,0.5-0.5,0.7c-0.2,0.2-0.3,0.4-0.5,0.6c-0.7,0.8-1,1.3-1.1,1.7c-0.2,0.5-0.3,1-0.7,1.9c-0.1,0.2-0.3,0.8-0.4,1.5
						c-0.2,0.7-0.3,1.6-0.4,2c0.7-1.4,1-2.6,1.5-3.2c0.1-0.3,0.3-0.6,0.4-0.9c0.1-0.2,0.1-0.3,0.2-0.5l0.2-0.4
						c0.3-0.6,0.7-1.2,0.9-1.7c0.6-1.1,1.2-1.8,1.3-2c0.2-0.2,0,0.2-0.8,1.5c-0.4,0.7-0.8,1.6-1.5,2.8c-0.3,0.6-0.6,1.4-1,2.2
						c-0.2,0.4-0.4,0.8-0.6,1.3c-0.2,0.5-0.3,1-0.5,1.5c0.1-0.1,0.2-0.4,0.5-0.8c0.1-0.2,0.2-0.4,0.4-0.7c0.1-0.2,0.3-0.5,0.5-0.7
						c0.6-1,1.2-1.9,1.3-1.9C58.4,56.8,57.6,58.3,56.7,59.8z M67.7,42.2c-0.6,0.3-1.2,0.6-1.8,0.8c6.7-4.6,15-6.5,22.1-10.2
						c-0.5,0.4-0.9,0.9-1.5,1.2c-0.8,0.5-1.6,1-2.4,1.4c-2.9,1.1-6,1.6-8.7,3.3c1.1-0.6,2.2-0.8,3.4-0.9c-0.9,0.4-1.9,0.7-2.8,1.1
						c-0.2,0.2-0.4,0.3-0.6,0.4c-0.2,0.1-0.3,0.2-0.5,0.2c-0.6,0.1-1.1,0.2-1.7,0.4c-1.3,0.5-2.5,1-3.7,1.5
						C68.9,41.6,68.3,41.9,67.7,42.2z M70.1,42.4c0.8-0.6,1.7-1.2,2.6-1.7c-0.2,0.1-0.3,0.2-0.3,0.3c-1,0.7-1.9,1.3-2.5,1.6
						c-0.4,0.3-0.9,0.7-1.3,1c-0.5,0.4-1,0.8-1.4,1.3c-1,0.8-1.8,1.8-2.6,2.7C65.3,45.7,67.7,43.9,70.1,42.4z"/>
					<path fill="#52A6DC" d="M62.1,44.7c0.7-0.2,1.5-0.8,2.2-1.3c0.8-0.7,1.7-1.4,2.6-2.1c-1,0.5-2,1-3,1.7
						C63.3,43.6,62.8,44.3,62.1,44.7z"/>
				</g>
				<g>
					<path fill="#FFF274" d="M85.7,35.3c-0.2,0.1-0.4,0.2-0.5,0.4c-0.4,0.5-0.8,0.9-1.2,1.4c-0.4,0.4-0.9,0.9-1.2,1.4
						c-0.3,0.3-0.6,0.7-0.8,1.2c-0.2,0.1-0.4,0.5-0.7,0.4c0.2-0.3,0.4-0.6,0.7-0.9c0.2-0.3,0.4-0.6,0.6-0.9c0.4-0.6,0.8-1.2,1.2-1.9
						c-0.1,0-0.2,0-0.3,0.1c-0.1-0.1-0.1-0.2-0.1-0.2s-0.1,0.1-0.2,0.2c0-0.3,0.5-0.8,0.2-0.7c-0.3,0.2-0.5,0.4-0.7,0.6
						c-0.2,0.2-0.4,0.5-0.6,0.8l-0.3,0.2c0.1,0,0.1,0,0.2,0c-0.1,0.1-0.1,0.2-0.2,0.3c-0.1,0.1-0.2,0.1-0.3,0.2
						c-0.4,0-0.8,0-1.2,0.1c-0.5,0.2-1,0.5-1.4,0.9c-0.5,0.3-0.9,0.7-1.4,0.9c-2.8,1.5-5.5,3.2-8.3,5.1c-0.2,0.1-0.5,0.2-0.6,0.5
						c3.7-1.9,7-4.1,10.6-6.2c0.7-0.4,1.4-0.8,2.1-1.2c-1.8,1.4-3.7,2.7-5.7,3.9c-0.5,0.3-1.1,0.6-1.6,1l-0.8,0.5l-0.8,0.4
						c-0.6,0.3-1.1,0.6-1.7,0.9L69,45.6c-0.1,0.1-0.3,0.1-0.4,0.2c0-0.1,0-0.3,0.1-0.4c-0.1,0.1-0.3,0.2-0.4,0.2
						c-0.7,0.3-1.4,0.8-2,1.2c0.3-0.1,0.7-0.2,1-0.4c0,0-0.1,0-0.1,0.1c-0.3,0.2-0.6,0.4-0.9,0.6c-0.3,0.2-0.5,0.4-0.8,0.7
						c-0.3,0.3-1.2,0.4-1.6,0.8c-0.8,0.6-1.8,1.2-2.7,1.7c-0.5,0.3-0.9,0.5-1.3,0.8c-0.4,0.3-0.8,0.6-1.2,1L58,52.3
						c0.4,0,0.7-0.1,0.9-0.2c0,0,0.1,0,0.1,0c0.1-0.1,0.1-0.1,0.1-0.1c0.4,0,0.8-0.1,1.2-0.3c0.4-0.2,0.8-0.5,1.2-0.9
						c0.8-0.6,1.6-1.5,2.4-2c0.5-0.3,0.9-0.6,1.4-0.8c-0.1,0.2-0.2,0.6-0.4,0.8c-0.5,0.4-1,0.7-1.5,1c-0.5,0.3-1,0.7-1.4,1.1
						c0.6-0.1,1.2-0.2,1.7-0.5c0.3-0.1,0.4-0.7,0.6-0.7c0.7-0.3,1.1-0.8,1.6-1.2c0.2-0.2,0.5-0.4,0.8-0.6c0.3-0.2,0.6-0.3,0.9-0.4
						c0.1-0.1,0.4,0.1,0.5,0c-0.7,0.4-1.3,0.9-1.9,1.3c-0.6,0.5-1.2,1-1.9,1.3c-0.3,0.1-0.5,0.1-0.7,0.2c-0.2,0.2-0.3,0.3-0.5,0.4
						c-0.4,0.2-0.7,0.5-1,0.7c-0.2,0.3-0.4,0.5-0.5,0.8c-0.3,0.5-0.6,1-1.6,1.2c0.9-0.3,1.6-1.7,1.9-2.3c-0.5,0.3-1.1,0.9-1.8,1.4
						c-0.7,0.5-1.4,1.1-2.1,1.3c-0.8,0.3-1.1,0.5-1.3,0.7c-0.1,0.1-0.2,0.2-0.4,0.4c-0.2,0.1-0.4,0.3-0.6,0.5
						c-0.3,0.1-1.1,1.3-1.7,1.6c0.3-0.1,0.5-0.2,0.7-0.3c0.2-0.1,0.4-0.2,0.6-0.3c0.3-0.2,0.6-0.4,0.9-0.5c0.2-0.1,0.4-0.3,0.6-0.4
						c0.2-0.1,0.4-0.3,0.6-0.4c0.4-0.3,0.8-0.5,1.1-0.8c0.7-0.5,1.2-0.9,1.4-0.9c0.2-0.1,0,0.1-0.8,0.8c-0.8,0.7-2.3,1.8-4.9,3.2
						c0.4,0,3.3-1.2,3.5-1.1c0.1,0.1-1,0.6-2.2,1.1c-1.2,0.4-2.4,0.8-2.3,0.9c0.4,0.2,3.2,0,3.6-0.2c0.1-0.1,0.3-0.1,0.2-0.4
						c0.6-0.2,1-0.4,1.5-0.8c1.3-0.9,2.3-2.2,4.1-2.5c0.1,0,0.3-0.4,0.4-0.6c1.1-0.6,2.4-0.8,3.4-1.5c0.6-0.4,1.5-0.5,2.1-1
						c0.7-0.6,1.4-1.1,2.2-1.5c0.8-0.4,1.6-0.9,2.5-1.3c-0.2-0.2-0.1-0.4,0-0.5c0.1-0.1,0.3-0.2,0.4-0.3c1.5-1.2,3-2.3,4.4-3.3
						c0.3-0.3,0.6-0.6,0.9-0.9c0.2-0.1,0.3-0.3,0.5-0.4c0.2-0.1,0.3-0.3,0.5-0.4c0.3-0.3,0.6-0.6,1-0.8c0.2-0.1,0.3-0.3,0.5-0.4
						c0.2-0.1,0.3-0.3,0.5-0.4c0.3-0.3,0.6-0.5,0.9-0.8c0.1-0.2,0.3-0.3,0.4-0.5c0.1-0.2,0.2-0.4,0.4-0.5c0.3-0.5,0.6-1,0.9-1.5
						c0.3-0.5,0.6-1,1-1.5C85.9,36,85.9,35.2,85.7,35.3z M70.3,46.9c-0.3,0.2-0.5,0.4-0.7,0.5c-0.2,0.1-0.4,0.3-0.6,0.4
						c-0.2,0.1-0.3,0.2-0.5,0.3c-0.3,0.2-0.7,0.5-1,0.8c-0.4,0.3-0.8,0.6-1.1,0.9c-0.4,0.3-0.7,0.6-1.1,0.9
						c-0.4,0.3-0.7,0.6-1.1,0.9c0.4-0.7,1.1-1.2,1.8-1.8c0.4-0.3,0.8-0.6,1.3-0.8c0.2-0.1,0.4-0.3,0.7-0.4c0.1-0.1,0.3-0.2,0.6-0.4
						c0.3-0.2,0.6-0.4,0.9-0.7c0.3-0.2,0.6-0.4,0.9-0.7C70.5,46.8,70.4,46.8,70.3,46.9z M80,40.5c-0.5,0.5-1,1-1.5,1.4
						c-2,1.1-4.1,1.6-6,3.1c0.4-0.2,0.8-0.4,1.2-0.5c0.4-0.1,0.8-0.2,1.2-0.3c-0.3,0.2-0.6,0.4-1,0.5c-0.3,0.2-0.7,0.3-1,0.5
						c-0.1,0.2-0.2,0.3-0.4,0.4c-0.1,0.1-0.2,0.1-0.4,0.2c-0.4,0.1-0.8,0.2-1.2,0.3c-0.9,0.4-1.8,0.8-2.8,1.1
						c-0.5,0.2-0.9,0.4-1.4,0.5c-0.5,0.2-0.9,0.3-1.4,0.5c2.6-1.4,5.3-2.7,8-4c2.6-1.4,5.2-2.8,7.5-4.8C80.6,39.7,80.4,40.1,80,40.5
						z"/>
					<path fill="#FFF274" d="M68.1,48.4c-0.1,0.1-0.1,0.1,0.1-0.1c0.1-0.1,0.2-0.1,0.4-0.2c0.1,0,0.1-0.1,0.2-0.1
						C68.5,48.1,68.3,48.2,68.1,48.4z"/>
					<path fill="#FFF274" d="M62.4,48.8c0.6-0.1,1.3-0.4,1.8-0.6c0.7-0.5,1.3-0.9,2-1.4c-0.8,0.3-1.6,0.6-2.3,1
						C63.4,48.2,62.9,48.6,62.4,48.8z"/>
				</g>
				<g>
					<g opacity="0.8">
						<path fill="#E34673" d="M62.1,48.6c-0.3,0.3-0.4,0.7-0.4,1.1c-0.1,0.6-0.8,0.9-1.2,1.4c-0.2,0.2-0.3,0.5-0.5,0.8
							c-0.6,0.4-1,0.9-1.3,1.5c-0.1,0-0.3,0.2,0.2,0.4c-0.3,0.2-0.6,0.4-0.8,0.7c-0.2,0.2-0.4,0.5-0.4,0.8c-0.1,0.3-0.6,0.3-0.7,0.6
							c-0.1,0.5-0.7,0.5-0.9,0.9c0,0.1,0.2,0.4,0.2,0.4c-0.8,0.2-0.4,1.1-0.4,1.8c0,0.2-0.1,0.4-0.2,0.6c0.2,0.2,0.1,0.2,0.1,0.3
							c-0.1,0.1-1.1,0.5-1.4,0.3c-0.1-0.1,0.8-1.5,0.6-1.7c-0.1-0.1-0.7,0.9-0.8,0.9c0-0.6,0.1-1.1,0.1-1.5c0-0.4,0-0.7-0.1-0.9
							c-0.1-0.5-0.1-0.6-0.2-0.6c0,0-0.1,0.3-0.1,0.6c0,0.3,0,0.7,0,1.1c-0.2,0.1,0,0.6-0.2,0.9c0-0.3-0.4-1.2-0.4-1.3
							c0-0.6-0.3-0.7,0-1.1c0.3-0.3,0.1-1.3,0.1-1.7c0.3,0.4,0.8,1.2,0.6,1.4c0.4-0.1,0.2-0.4,0-0.7c-0.2-0.3-0.4-0.7-0.2-0.9
							c0,0,0-0.1,0-0.2c0.1,0,0.2-0.1,0.3-0.1c0.3-0.4,0.1-1,0.5-1.3c0,0-0.3-0.1-0.3,0c-0.6,0.1-0.2,0.7-0.5,1
							c-0.1,0,0.2,0.3,0.1,0.4c-0.1,0.2-0.4,0.2-0.6,0.2c-0.1-0.5,0.1-0.7,0.2-1.1c0-0.1-0.2-0.3-0.3-0.4c-0.1,0.1-0.2,0.3-0.2,0.4
							c-0.1,0.3,0,0.7,0.1,1.1c0,0.4,0,0.7-0.4,0.7c0,0,0,0,0,0.1c0,0,0,0-0.1,0c0,0.1-0.1,0.1-0.3,0.1l0.2-0.1
							c-0.4-0.9,0.3-1.2,0.3-1.9c-0.1-0.2,0.4-0.2,0.4-0.3c-0.1-0.5,0.2-0.8,0.7-1c1.6-0.9,3.1-2,5.1-3.1c0,0,0-0.1,0-0.1
							c-0.1,0-0.1,0-0.2,0c0.1,0,0.1,0,0.2-0.1c0-0.2,0.2-0.4,0.5-0.5c0.2,0,0,0.1,0.1,0.3c0,0,0.1-0.1,0.1-0.1s0.1,0,0.2,0.1
							c0,0,0.1,0,0.2,0c-0.1,0.4-0.2,0.9-0.4,1.4c0.3,0,0.3-0.1,0.4-0.2c0-0.2-0.1-0.3,0.1-0.4c0-0.4,0.7-0.6,1-1
							c0.1,0,0.2-0.1,0.4-0.1C62,48.2,62.3,48.5,62.1,48.6z M55.6,52.4c0.2,0,0.4-0.1,0.7-0.1c0,0,0.1-0.1,0.1-0.1
							c0.1,0,0.1-0.1,0.1-0.2c0.3-0.1,0.5-0.3,0.8-0.4c-0.5,0-1,0.1-1.2,0.3c0.2-0.3,0.6-0.5,1.1-0.7c0.5-0.2,1.1-0.3,1.5-0.6
							c0.2-0.2,0.3-0.4,0.4-0.6c0.1-0.1,0.1-0.3,0.1-0.5c-0.5,0.4-1,0.7-1.5,1c-0.5,0.3-1.1,0.6-1.6,0.9c-1.1,0.6-2,1.1-2.6,1.7
							c0.4-0.1,0.7-0.2,1.1-0.4C54.9,52.7,55.2,52.5,55.6,52.4z M55.8,52.7c-0.2,0.2-0.3,0.4-0.4,0.6c-0.4,0.5-0.8,1.1-0.3,1.9
							c0.1-0.6,0.1-1.3,0.3-1.9c-0.2,0.2-0.2,0.3-0.1,0.2c0.1-0.1,0.3-0.3,0.4-0.7C55.8,52.8,55.8,52.8,55.8,52.7z"/>
						<path fill="#E34673" d="M57.7,49.6c0.5-0.1,0.9-0.3,1.3-0.5c-0.4,0-0.7,0-1,0c-0.7,0.1-0.9,0.5-1.4,0.7
							c-0.7,0.3-1.3,0.6-1.8,0.9c-0.5,0.3-0.8,0.7-1.1,1.1c-0.1,0-0.1,0.1-0.1,0.2c0.6-0.4,1.1-0.8,1.8-1.2c0.3-0.2,0.7-0.4,1-0.6
							C56.8,50,57.2,49.8,57.7,49.6z"/>
						<path fill="#E34673" d="M52.3,53c0,0.2,0,0.4-0.1,0.5c0.3,0,0.5-0.1,0.6-0.3c0.1-0.2,0.1-0.4,0.2-0.6
							C52.7,52.7,52.5,52.8,52.3,53z"/>
						<path fill="#E34673" d="M53.6,52c0,0-0.1,0.1-0.1,0.1c-0.2,0.1-0.4,0.3-0.5,0.5c0.3-0.1,0.7-0.2,1-0.3
							C53.8,52.2,53.7,52.1,53.6,52z"/>
					</g>
				</g>
				<g>
					<g opacity="0.8">
						<path fill="#CBE3B1" d="M50.1,48.4c0.2,0.3,0.4,0.4,0.6,0.4c0.4,0.1,0.4,0.9,0.6,1.3c0.1,0.2,0.2,0.3,0.4,0.5
							c0.1,0.6,0.3,1,0.6,1.2c0,0.1,0,0.3,0.3-0.3c0.1,0.5,0.2,1.1,0.7,1c0.2,0,0,0.5,0.2,0.6c0.3-0.1,0.2,0.6,0.5,0.7
							c0.1-0.1,0.3-0.3,0.3-0.3c0,0.7,0.7,0,1.2-0.3c0.2,0,0.3-0.1,0.4-0.1C56,53,56,53.1,56.1,53c0.1,0,0.2,0.8,0.1,1.2
							c-0.1,0.2-1-0.1-1.1,0.1c-0.1,0.2,0.6,0.3,0.6,0.4c-1.7,0.9-2.3,1.2-2.2,1.3c0.1,0.1,0.7-0.2,1.3-0.5c0.1,0.1,0.4-0.2,0.6-0.2
							c-0.2,0.2-0.9,0.9-1,0.9c-0.5,0.3-0.6,0.6-0.9,0.4c-0.2-0.2-1.1,0.3-1.4,0.4c0.3-0.4,1.1-1.1,1.2-1c-0.1-0.7-1,0.9-1.3,0.6
							c0,0-0.1,0-0.2,0.1c0-0.1,0-0.2,0-0.2c-0.3-0.2-0.7,0-0.9-0.3c0,0-0.1,0.3-0.1,0.3c0,0.6,0.5,0.2,0.7,0.4
							c0,0.1,0.3-0.3,0.4-0.2c0.1,0,0.1,0.4,0.1,0.6c-0.4,0.2-0.6,0-0.8-0.1c-0.1,0-0.3,0.3-0.4,0.4c0.1,0.1,0.2,0.2,0.3,0.2
							c0.4,0.1,1.5-0.9,1.4,0c0,0,0,0,0.1-0.1c0,0,0,0.1,0,0.1c0.1,0,0.1,0.1,0.1,0.3l-0.1-0.1c-0.9,0.7-1,0-1.6,0.1
							c-0.2,0.1,0-0.5-0.2-0.4c-0.4,0.1-0.6-0.2-0.7-0.6c-0.1-0.8-0.3-1.6-0.4-2.4c-0.1-0.9-0.2-1.8-0.2-2.8c0,0-0.1,0-0.1,0
							c0,0.1,0,0.1-0.1,0.2c0-0.1,0-0.1,0-0.2c-0.1-0.1-0.2-0.2-0.2-0.6c0-0.2,0.1,0,0.2-0.2c0-0.1,0-0.1,0-0.1s0.1-0.1,0.1-0.2
							c0,0,0-0.1,0-0.2c0.3,0.1,0.6,0.2,0.8,0.4c0.1-0.3,0-0.3,0-0.4c-0.1,0-0.3,0-0.3-0.1c-0.3-0.1-0.2-0.8-0.4-1.1
							c0-0.1,0-0.3,0-0.4C49.8,48.6,50.1,48.3,50.1,48.4z M50.7,55.3c0-0.2,0.1-0.4,0.1-0.7c0,0,0-0.1,0-0.1c0-0.1,0-0.1-0.1,0
							c0-0.3,0-0.6,0-0.8c-0.1,0.5-0.2,1-0.1,1.3c-0.4-0.3-0.1-1.7-0.1-2.7c-0.1-0.2-0.1-0.3-0.2-0.5c-0.1-0.1-0.2-0.1-0.3-0.1
							c0.2,1,0.2,2.2,0.3,3.3c0.1,1.1,0.2,2,0.7,2.6C50.8,56.7,50.7,56.1,50.7,55.3z M51,55c0.1,0.1,0.2,0.2,0.4,0.3
							c0.3,0.3,0.7,0.6,1.3,0c-0.5,0.1-1,0.2-1.3,0C51.6,55.6,51.5,55.3,51,55C51,55,51,55,51,55z"/>
						<path fill="#CBE3B1" d="M49.3,53.2c0.1-0.5,0.1-0.9,0.1-1.4c-0.1,0.4-0.2,0.8-0.3,1.1c-0.1,0.8,0,0.9,0,1.4
							c-0.1,1.5,0.1,2.4,0.6,3c0,0.1,0,0.1,0.1,0.1C49.5,56.2,49.2,55.1,49.3,53.2z"/>
						<path fill="#CBE3B1" d="M50.4,58.6c0.2,0,0.3-0.1,0.4,0c0-0.3-0.1-0.5-0.1-0.5c-0.2,0-0.3-0.1-0.5-0.2
							C50.2,58.2,50.3,58.5,50.4,58.6z"/>
						<path fill="#CBE3B1" d="M49.8,57.4c0,0,0,0.1,0,0.1c0.1,0.2,0.2,0.4,0.3,0.4c0-0.3,0-0.7-0.1-1C50,57.2,49.9,57.3,49.8,57.4z"
							/>
					</g>
				</g>
				<g>
					<g opacity="0.8">
						<path fill="#F99D41" d="M57,57.3c0.3,0.2,0.6,0.2,1,0.2c0.6,0,0.9,0.5,1.4,0.7c0.3,0.1,0.5,0.1,0.8,0.2
							c0.2,0.1,0.5,0.3,0.8,0.4c0.3,0.1,0.6,0.1,1,0.1c0.1,0,0.3,0.1,0.3-0.3c0.6,0.2,1.2,0.5,1.9,0.2c0.1,0,0.3,0,0.4,0.1
							c0.1,0.1,0.3,0.1,0.4,0.1c0.5-0.2,0.9,0.1,1.4,0c0.1-0.1,0.2-0.3,0.3-0.3c0.6,0.3,1.2-0.5,1.8-0.9c0.2-0.1,0.4-0.3,0.6-0.3
							c0-0.2,0.1-0.2,0.1-0.2c0.2,0,1.1,0.2,1.2,0.4c0.1,0.1-1.9,0.7-1.8,0.9c0,0.1,1.3-0.3,1.4-0.3c-0.6,0.4-1,0.7-1.4,1
							c-0.4,0.3-0.7,0.5-0.9,0.6c-0.4,0.3-0.6,0.4-0.5,0.4c0.1,0,0.4-0.1,0.7-0.3c0.2-0.1,0.4-0.2,0.6-0.3c0.2-0.1,0.4-0.3,0.6-0.4
							c0.2,0,0.5-0.4,1-0.5c-0.2,0.2-0.8,1-0.9,1c-0.6,0.4-0.5,0.7-1.2,0.8c-0.5,0.1-1.5,0.8-2,1c0.3-0.4,0.9-1.2,1.2-1.2
							c-0.4-0.1-0.6,0.2-0.8,0.4c-0.2,0.3-0.5,0.6-0.9,0.6c-0.1,0-0.2,0.1-0.3,0.1c-0.1,0-0.2-0.1-0.3-0.1c-0.7,0.1-1.3,0.4-1.9,0.4
							c0.1,0,0.1,0.2,0.1,0.2c0.5,0.3,1.1-0.2,1.7-0.2c0.1,0,0.3-0.3,0.4-0.3c0.3-0.1,0.4,0.1,0.7,0.2c-0.5,0.3-1,0.4-1.6,0.5
							c-0.1,0-0.3,0.3-0.4,0.4c0.2,0,0.5,0,0.7-0.1c0.4-0.1,0.9-0.4,1.4-0.7c0.5-0.2,0.9-0.4,1.2-0.2c0,0,0,0,0.1-0.1c0,0,0,0,0,0
							c0.1,0,0.3,0,0.4,0.1l-0.3,0c-0.4,0.4-0.9,0.6-1.4,0.7c-0.5,0.1-0.9,0.1-1.4,0.3c-0.2,0.1-0.5-0.2-0.7,0
							c-0.6,0.3-1.2,0.2-1.8,0c-1.9-0.6-3.7-1.6-4.9-2.9c0,0-0.1,0-0.1,0c0,0,0,0.1,0,0.1c0,0,0-0.1-0.1-0.1c-0.2,0-0.4-0.1-0.5-0.4
							c0-0.2,0.2,0,0.3-0.1c0,0-0.1-0.1-0.1-0.1s0.1-0.1,0.1-0.2c-0.1,0,0-0.1,0-0.1c0.5,0,1,0.1,1.4,0.1c0.1-0.3-0.1-0.2-0.2-0.3
							c-0.2,0.1-0.4,0.1-0.5,0c-0.4,0-0.6-0.5-0.9-0.6c0-0.1-0.1-0.2-0.1-0.3C56.6,57.5,56.9,57.2,57,57.3z M61.8,61.4
							c-0.1-0.1-0.2-0.3-0.3-0.4c0,0-0.1,0-0.1,0c-0.1,0-0.1,0-0.2,0c-0.2-0.1-0.5-0.3-0.7-0.4c0.2,0.4,0.4,0.7,0.7,0.8
							c-0.2,0-0.4-0.1-0.6-0.2c-0.2-0.1-0.4-0.2-0.5-0.4c-0.3-0.3-0.6-0.7-0.9-1c-0.2-0.1-0.4-0.2-0.7-0.2c-0.2,0-0.4,0-0.5,0
							c0.4,0.3,0.8,0.6,1.3,0.9c0.4,0.3,0.9,0.7,1.4,0.9c0.5,0.3,1,0.5,1.6,0.7c0.6,0.2,1.2,0.3,1.8,0.3c-0.4-0.2-0.7-0.3-1.1-0.5
							C62.5,61.7,62.2,61.6,61.8,61.4z M62.2,61.1c0.3,0,0.6,0,0.9,0c0.4,0,0.8,0,1.3-0.1c0.4-0.1,0.8-0.3,1.1-0.6
							c-0.4,0.2-0.8,0.3-1.2,0.5c-0.4,0.1-0.8,0.2-1.2,0.3c0.7,0,0.2,0-0.8,0C62.3,61.1,62.2,61.1,62.2,61.1z"/>
						<path fill="#F99D41" d="M57.9,60.7c-0.2-0.3-0.4-0.6-0.6-0.9c0,0.3,0,0.6,0,0.8c0.2,0.5,0.6,0.6,0.9,0.9
							c0.4,0.5,1,0.8,1.6,1.1c0.6,0.2,1.3,0.3,2,0.4c0.1,0,0.2,0.1,0.3,0C60.5,62.4,58.9,61.9,57.9,60.7z"/>
						<path fill="#F99D41" d="M64.4,63.1c0.3-0.1,0.6-0.2,0.8-0.2c-0.2-0.2-0.5-0.2-0.8-0.1c-0.4,0.1-0.7,0.2-1.1,0.2
							C63.6,63,64,63.2,64.4,63.1z"/>
						<path fill="#F99D41" d="M62.1,62.8c0.1,0,0.1,0,0.2,0c0.3,0.1,0.7,0.1,1,0c-0.3-0.1-0.7-0.3-1-0.5
							C62.3,62.7,62.2,62.8,62.1,62.8z"/>
					</g>
				</g>
				<g>
					<path fill="#52A6DC" d="M69.9,42.6c0.1-0.1,0.2-0.1,0.2-0.2C68.8,43.2,68.9,43.2,69.9,42.6z"/>
					<path fill="#52A6DC" d="M56.7,59.8c-0.8,1.6-1.5,3.1-1.4,3.1c0.2,0,0.8-0.7,1.4-1.4c0.3-0.4,0.6-0.7,0.9-1
						c0.3-0.3,0.5-0.5,0.6-0.7c0.1-0.3,0.2-0.4,0.1-0.6c0.2-0.3,0.4-0.6,0.6-1c0.2-0.3,0.3-0.7,0.6-1c0.5-0.9,1-2,1.5-3
						c0.6-0.9,1.2-1.8,2.2-2.3c0.2-0.1,0.3-0.7,0.4-0.9c0.6-0.6,1.2-1,1.9-1.5c0.7-0.4,1.4-0.9,1.9-1.5c0.4-0.4,0.8-0.6,1.3-0.8
						c0.5-0.2,0.9-0.5,1.3-0.8c1.7-1.7,4-2.7,6.2-3.8c-0.4-0.4,0.3-0.7,0.6-0.9c2.1-1.4,4.4-2.6,6.5-3.5c0.9-0.6,1.9-1.2,2.9-1.8
						c0.5-0.3,1-0.6,1.5-0.8c0.5-0.3,1-0.5,1.5-0.8c1-0.5,1.9-1,2.7-1.8c0.5-0.5,1-1,1.6-1.5c0.5-0.5,1.1-1,1.7-1.5
						c0.5-0.3,0.7-1.1,0.4-1c-0.3,0.1-0.6,0.2-0.8,0.3c-0.6,0.5-1.3,0.9-2,1.3c-0.7,0.4-1.4,0.8-2,1.4c-0.5,0.3-0.9,0.7-1.4,1.2
						c-0.2,0.1-0.6,0.5-1,0.4c0.7-0.6,1.5-1.1,2.2-1.8c0.4-0.3,0.7-0.6,1-0.9c0.3-0.3,0.7-0.6,1-0.9c-0.1,0-0.3-0.1-0.4,0.1
						c-0.1-0.1-0.1-0.3-0.1-0.3s-0.2,0.1-0.3,0.2c0.1-0.3,0.9-0.9,0.5-0.8c-0.8,0.3-1.5,0.8-2.1,1.4c-0.1,0-0.3,0.1-0.4,0.1
						c0.1,0,0.2,0,0.3,0c-0.1,0.1-0.2,0.2-0.3,0.3c-0.2,0.1-0.3,0.1-0.5,0.2c-0.5,0-1.1-0.1-1.6,0c-0.8,0.2-1.5,0.5-2.1,0.8
						c-0.7,0.3-1.4,0.7-2.1,0.9c-4.2,1.4-8.2,3.3-12.1,5.7c-0.2,0.1-0.6,0.3-0.9,0.6c5.2-2.6,10.1-4.8,15.5-6.8
						c1.1-0.3,2.1-0.7,3.2-1.1c-5.9,2.8-12.2,5.2-18.2,8.1c-0.2,0.1-0.4,0.2-0.6,0.3c0-0.2,0-0.3,0.2-0.5c-0.2,0.1-0.4,0.2-0.6,0.3
						c-0.9,0.5-1.9,1.1-2.7,1.7c0.5-0.2,0.9-0.4,1.4-0.6c-0.8,0.5-1.6,1.2-2.3,1.9c-0.4,0.5-1.6,0.7-2,1.3c-0.5,0.5-1,1-1.6,1.5
						c-0.6,0.5-1.1,1-1.6,1.5c-1.1,1-2,2.2-2.6,3.5c0,0-0.2,0.2-0.4,0.4c-0.1,0.1-0.2,0.2-0.2,0.3c-0.1,0.1-0.1,0.1-0.1,0.1
						c0.4-0.2,0.7-0.5,1-0.8c0,0,0.1,0,0.1,0c0-0.1,0.1-0.2,0.1-0.2c0.5-0.2,0.9-0.6,1.3-1c0.2-0.2,0.4-0.5,0.7-0.8
						c0.2-0.3,0.4-0.5,0.7-0.8c0.5-0.6,0.9-1.2,1.4-1.8c0.5-0.6,1-1.1,1.4-1.6c0.6-0.5,1.2-0.9,1.8-1.4c-0.1,0.3-0.2,0.8-0.5,1
						c-0.6,0.5-1.3,1.1-1.9,1.6c-0.3,0.3-0.6,0.6-0.9,0.9c-0.3,0.3-0.5,0.6-0.7,1c0.3-0.2,0.7-0.4,1-0.5c0.3-0.2,0.7-0.4,1-0.6
						c0.3-0.3,0.4-0.9,0.8-1.1c0.8-0.6,1.4-1.2,2.1-1.8c0.6-0.6,1.3-1.1,2.2-1.4c0.2-0.1,0.5,0.1,0.6,0c-0.5,0.3-0.9,0.6-1.3,0.9
						c-0.4,0.3-0.8,0.7-1.2,1c-0.8,0.7-1.5,1.4-2.4,2.1c-0.3,0.2-0.6,0.3-0.8,0.4c-0.2,0.3-0.4,0.5-0.5,0.7c-1,0.8-1.3,1.7-1.6,2.4
						c-0.3,0.8-0.6,1.5-1.7,2.3c0.4-0.4,0.8-1.1,1.1-1.8c0.3-0.7,0.6-1.4,0.7-1.9c-0.5,0.6-1.2,1.5-1.9,2.6c-0.3,0.5-0.7,1-1,1.5
						c-0.2,0.2-0.3,0.5-0.5,0.7c-0.2,0.2-0.3,0.4-0.5,0.6c-0.7,0.8-1,1.3-1.1,1.7c-0.2,0.5-0.3,1-0.7,1.9c-0.1,0.2-0.3,0.8-0.4,1.5
						c-0.2,0.7-0.3,1.6-0.4,2c0.7-1.4,1-2.6,1.5-3.2c0.1-0.3,0.3-0.6,0.4-0.9c0.1-0.2,0.1-0.3,0.2-0.5l0.2-0.4
						c0.3-0.6,0.7-1.2,0.9-1.7c0.6-1.1,1.2-1.8,1.3-2c0.2-0.2,0,0.2-0.8,1.5c-0.4,0.7-0.8,1.6-1.5,2.8c-0.3,0.6-0.6,1.4-1,2.2
						c-0.2,0.4-0.4,0.8-0.6,1.3c-0.2,0.5-0.3,1-0.5,1.5c0.1-0.1,0.2-0.4,0.5-0.8c0.1-0.2,0.2-0.4,0.4-0.7c0.1-0.2,0.3-0.5,0.5-0.7
						c0.6-1,1.2-1.9,1.3-1.9C58.4,56.8,57.6,58.3,56.7,59.8z M67.7,42.2c-0.6,0.3-1.2,0.6-1.8,0.8c6.7-4.6,15-6.5,22.1-10.2
						c-0.5,0.4-0.9,0.9-1.5,1.2c-0.8,0.5-1.6,1-2.4,1.4c-2.9,1.1-6,1.6-8.7,3.3c1.1-0.6,2.2-0.8,3.4-0.9c-0.9,0.4-1.9,0.7-2.8,1.1
						c-0.2,0.2-0.4,0.3-0.6,0.4c-0.2,0.1-0.3,0.2-0.5,0.2c-0.6,0.1-1.1,0.2-1.7,0.4c-1.3,0.5-2.5,1-3.7,1.5
						C68.9,41.6,68.3,41.9,67.7,42.2z M70.1,42.4c0.8-0.6,1.7-1.2,2.6-1.7c-0.2,0.1-0.3,0.2-0.3,0.3c-1,0.7-1.9,1.3-2.5,1.6
						c-0.4,0.3-0.9,0.7-1.3,1c-0.5,0.4-1,0.8-1.4,1.3c-1,0.8-1.8,1.8-2.6,2.7C65.3,45.7,67.7,43.9,70.1,42.4z"/>
					<path fill="#52A6DC" d="M62.1,44.7c0.7-0.2,1.5-0.8,2.2-1.3c0.8-0.7,1.7-1.4,2.6-2.1c-1,0.5-2,1-3,1.7
						C63.3,43.6,62.8,44.3,62.1,44.7z"/>
				</g>
				<g>
					<path fill="#FFF274" d="M85.7,35.3c-0.2,0.1-0.4,0.2-0.5,0.4c-0.4,0.5-0.8,0.9-1.2,1.4c-0.4,0.4-0.9,0.9-1.2,1.4
						c-0.3,0.3-0.6,0.7-0.8,1.2c-0.2,0.1-0.4,0.5-0.7,0.4c0.2-0.3,0.4-0.6,0.7-0.9c0.2-0.3,0.4-0.6,0.6-0.9c0.4-0.6,0.8-1.2,1.2-1.9
						c-0.1,0-0.2,0-0.3,0.1c-0.1-0.1-0.1-0.2-0.1-0.2s-0.1,0.1-0.2,0.2c0-0.3,0.5-0.8,0.2-0.7c-0.3,0.2-0.5,0.4-0.7,0.6
						c-0.2,0.2-0.4,0.5-0.6,0.8l-0.3,0.2c0.1,0,0.1,0,0.2,0c-0.1,0.1-0.1,0.2-0.2,0.3c-0.1,0.1-0.2,0.1-0.3,0.2
						c-0.4,0-0.8,0-1.2,0.1c-0.5,0.2-1,0.5-1.4,0.9c-0.5,0.3-0.9,0.7-1.4,0.9c-2.8,1.5-5.5,3.2-8.3,5.1c-0.2,0.1-0.5,0.2-0.6,0.5
						c3.7-1.9,7-4.1,10.6-6.2c0.7-0.4,1.4-0.8,2.1-1.2c-1.8,1.4-3.7,2.7-5.7,3.9c-0.5,0.3-1.1,0.6-1.6,1l-0.8,0.5l-0.8,0.4
						c-0.6,0.3-1.1,0.6-1.7,0.9L69,45.6c-0.1,0.1-0.3,0.1-0.4,0.2c0-0.1,0-0.3,0.1-0.4c-0.1,0.1-0.3,0.2-0.4,0.2
						c-0.7,0.3-1.4,0.8-2,1.2c0.3-0.1,0.7-0.2,1-0.4c0,0-0.1,0-0.1,0.1c-0.3,0.2-0.6,0.4-0.9,0.6c-0.3,0.2-0.5,0.4-0.8,0.7
						c-0.3,0.3-1.2,0.4-1.6,0.8c-0.8,0.6-1.8,1.2-2.7,1.7c-0.5,0.3-0.9,0.5-1.3,0.8c-0.4,0.3-0.8,0.6-1.2,1L58,52.3
						c0.4,0,0.7-0.1,0.9-0.2c0,0,0.1,0,0.1,0c0.1-0.1,0.1-0.1,0.1-0.1c0.4,0,0.8-0.1,1.2-0.3c0.4-0.2,0.8-0.5,1.2-0.9
						c0.8-0.6,1.6-1.5,2.4-2c0.5-0.3,0.9-0.6,1.4-0.8c-0.1,0.2-0.2,0.6-0.4,0.8c-0.5,0.4-1,0.7-1.5,1c-0.5,0.3-1,0.7-1.4,1.1
						c0.6-0.1,1.2-0.2,1.7-0.5c0.3-0.1,0.4-0.7,0.6-0.7c0.7-0.3,1.1-0.8,1.6-1.2c0.2-0.2,0.5-0.4,0.8-0.6c0.3-0.2,0.6-0.3,0.9-0.4
						c0.1-0.1,0.4,0.1,0.5,0c-0.7,0.4-1.3,0.9-1.9,1.3c-0.6,0.5-1.2,1-1.9,1.3c-0.3,0.1-0.5,0.1-0.7,0.2c-0.2,0.2-0.3,0.3-0.5,0.4
						c-0.4,0.2-0.7,0.5-1,0.7c-0.2,0.3-0.4,0.5-0.5,0.8c-0.3,0.5-0.6,1-1.6,1.2c0.9-0.3,1.6-1.7,1.9-2.3c-0.5,0.3-1.1,0.9-1.8,1.4
						c-0.7,0.5-1.4,1.1-2.1,1.3c-0.8,0.3-1.1,0.5-1.3,0.7c-0.1,0.1-0.2,0.2-0.4,0.4c-0.2,0.1-0.4,0.3-0.6,0.5
						c-0.3,0.1-1.1,1.3-1.7,1.6c0.3-0.1,0.5-0.2,0.7-0.3c0.2-0.1,0.4-0.2,0.6-0.3c0.3-0.2,0.6-0.4,0.9-0.5c0.2-0.1,0.4-0.3,0.6-0.4
						c0.2-0.1,0.4-0.3,0.6-0.4c0.4-0.3,0.8-0.5,1.1-0.8c0.7-0.5,1.2-0.9,1.4-0.9c0.2-0.1,0,0.1-0.8,0.8c-0.8,0.7-2.3,1.8-4.9,3.2
						c0.4,0,3.3-1.2,3.5-1.1c0.1,0.1-1,0.6-2.2,1.1c-1.2,0.4-2.4,0.8-2.3,0.9c0.4,0.2,3.2,0,3.6-0.2c0.1-0.1,0.3-0.1,0.2-0.4
						c0.6-0.2,1-0.4,1.5-0.8c1.3-0.9,2.3-2.2,4.1-2.5c0.1,0,0.3-0.4,0.4-0.6c1.1-0.6,2.4-0.8,3.4-1.5c0.6-0.4,1.5-0.5,2.1-1
						c0.7-0.6,1.4-1.1,2.2-1.5c0.8-0.4,1.6-0.9,2.5-1.3c-0.2-0.2-0.1-0.4,0-0.5c0.1-0.1,0.3-0.2,0.4-0.3c1.5-1.2,3-2.3,4.4-3.3
						c0.3-0.3,0.6-0.6,0.9-0.9c0.2-0.1,0.3-0.3,0.5-0.4c0.2-0.1,0.3-0.3,0.5-0.4c0.3-0.3,0.6-0.6,1-0.8c0.2-0.1,0.3-0.3,0.5-0.4
						c0.2-0.1,0.3-0.3,0.5-0.4c0.3-0.3,0.6-0.5,0.9-0.8c0.1-0.2,0.3-0.3,0.4-0.5c0.1-0.2,0.2-0.4,0.4-0.5c0.3-0.5,0.6-1,0.9-1.5
						c0.3-0.5,0.6-1,1-1.5C85.9,36,85.9,35.2,85.7,35.3z M70.3,46.9c-0.3,0.2-0.5,0.4-0.7,0.5c-0.2,0.1-0.4,0.3-0.6,0.4
						c-0.2,0.1-0.3,0.2-0.5,0.3c-0.3,0.2-0.7,0.5-1,0.8c-0.4,0.3-0.8,0.6-1.1,0.9c-0.4,0.3-0.7,0.6-1.1,0.9
						c-0.4,0.3-0.7,0.6-1.1,0.9c0.4-0.7,1.1-1.2,1.8-1.8c0.4-0.3,0.8-0.6,1.3-0.8c0.2-0.1,0.4-0.3,0.7-0.4c0.1-0.1,0.3-0.2,0.6-0.4
						c0.3-0.2,0.6-0.4,0.9-0.7c0.3-0.2,0.6-0.4,0.9-0.7C70.5,46.8,70.4,46.8,70.3,46.9z M80,40.5c-0.5,0.5-1,1-1.5,1.4
						c-2,1.1-4.1,1.6-6,3.1c0.4-0.2,0.8-0.4,1.2-0.5c0.4-0.1,0.8-0.2,1.2-0.3c-0.3,0.2-0.6,0.4-1,0.5c-0.3,0.2-0.7,0.3-1,0.5
						c-0.1,0.2-0.2,0.3-0.4,0.4c-0.1,0.1-0.2,0.1-0.4,0.2c-0.4,0.1-0.8,0.2-1.2,0.3c-0.9,0.4-1.8,0.8-2.8,1.1
						c-0.5,0.2-0.9,0.4-1.4,0.5c-0.5,0.2-0.9,0.3-1.4,0.5c2.6-1.4,5.3-2.7,8-4c2.6-1.4,5.2-2.8,7.5-4.8C80.6,39.7,80.4,40.1,80,40.5
						z"/>
					<path fill="#FFF274" d="M68.1,48.4c-0.1,0.1-0.1,0.1,0.1-0.1c0.1-0.1,0.2-0.1,0.4-0.2c0.1,0,0.1-0.1,0.2-0.1
						C68.5,48.1,68.3,48.2,68.1,48.4z"/>
					<path fill="#FFF274" d="M62.4,48.8c0.6-0.1,1.3-0.4,1.8-0.6c0.7-0.5,1.3-0.9,2-1.4c-0.8,0.3-1.6,0.6-2.3,1
						C63.4,48.2,62.9,48.6,62.4,48.8z"/>
				</g>
			</g>
			<g>
				<g opacity="0.8">
					<path fill="#E34673" d="M56.9,13.1c-0.3,1.4-0.5,2.7-0.5,3.9c-0.1,2-0.9,3.9-1.3,6c-0.2,1.1-0.3,2-0.4,3c-0.5,2.1-1,4.4-1,6.6
						c-0.1,0.3-0.2,1,0.3,0.8c-0.1,0.6-0.2,1.1-0.3,1.7c-0.1,0.6-0.2,1.1-0.2,1.7c-0.1,1.1-0.1,2.1,0.1,3.1c0,0.4,0,0.9-0.1,1.4
						c-0.1,0.5-0.2,1-0.1,1.4c0.3,1.3-0.1,2.9,0.1,4.2c0.1,0.2,0.4,0.5,0.4,0.6c-0.3,2,0.9,3.4,1.6,4.9c0.1,0.3,0.2,0.6,0.4,0.8
						c0.1,0.3,0.2,0.5,0.3,0.8c0.3,0,0.3,0.1,0.4,0.3c0.1,0.5,0.2,3.3-0.1,3.7c-0.1,0.2-1.7-5-2-4.8c-0.1,0.2,1,3.4,1,3.7
						c-0.8-1.4-1.4-2.6-2-3.5c-0.4-1-0.8-1.7-1-2.2c-0.5-1.1-0.7-1.3-0.7-1.1c0,0.2,0.3,0.9,0.6,1.8c0.2,0.4,0.4,0.9,0.6,1.4
						c0.2,0.5,0.5,0.9,0.7,1.4c0.1,0.6,0.8,1.3,1.1,2.4c-0.4-0.6-1.7-1.6-1.8-1.9c-0.4-0.7-0.7-0.9-0.9-1.2
						c-0.2-0.3-0.3-0.7-0.5-1.6c-0.2-1.5-1.5-3.7-1.7-5c0.3,0.3,0.7,0.7,1,1.2c0.4,0.5,0.7,1,0.7,1.5c0.1-1.1-0.3-1.6-0.7-2.1
						c-0.4-0.5-0.9-1-0.9-2.1c0-0.2-0.1-0.4-0.2-0.7c0-0.3,0.1-0.5,0.1-0.8c0-0.5-0.1-0.9-0.1-1.3c-0.1-0.4-0.1-0.9-0.2-1.3
						c-0.1-0.9-0.2-1.7-0.1-2.7c0,0.2-0.3,0.3-0.3,0.5c-0.2,0.9-0.2,1.6-0.1,2.3c0.1,0.7,0.2,1.4,0.3,2.3c0,0.3,0.4,0.6,0.5,1
						c0.1,0.7-0.1,1.4-0.2,2.1c-0.5-1.1-0.6-2.7-0.7-4c-0.1-0.3-0.4-0.5-0.5-0.7c0,0.7,0,1.3,0.1,1.9c0.2,1.1,0.7,2.3,1,3.4
						c0.2,0.6,0.3,1.1,0.4,1.6c0.1,0.5,0.1,1,0,1.5c0,0,0.1,0.1,0.1,0.2c0,0,0,0.1,0,0.1c0.1,0.3,0.1,0.7,0,1.1l-0.1-0.9
						c-0.3-0.5-0.6-1-0.8-1.5c0-0.1-0.1-0.3-0.1-0.4c0-0.1-0.1-0.3-0.1-0.4c-0.1-0.3-0.1-0.6-0.1-0.9c-0.2-1.2-0.2-2.5-0.5-3.6
						c-0.2-0.5,0.3-1.6,0.1-2.1c-0.3-1.5-0.3-3.3,0.1-5c1.1-6.3,2.8-12.7,5-19.1c0-0.1,0-0.3,0-0.4c-0.1,0.1-0.1,0.2-0.2,0.2
						c0.1-0.1,0.1-0.3,0.2-0.4c0.1-0.8,0.2-1.5,0.6-2.4c0.2-0.4,0,0.5,0.1,0.7c0.1-0.2,0.1-0.4,0.1-0.4s0.1,0,0.2,0
						c0-0.1,0.1-0.2,0.2-0.4c-0.2,1.7-0.3,3.3-0.5,5c0.4-0.3,0.3-0.8,0.4-1c0-0.5-0.1-1.1,0.1-1.6c0.1-1.4,0.9-3,1.2-4.4
						c0.1-0.3,0.3-0.6,0.4-0.8C56.8,12.1,57.1,12.6,56.9,13.1z M50.2,35.3c0.2-0.5,0.4-1,0.6-1.5c0-0.2,0.1-0.3,0.1-0.5
						c0-0.2,0-0.4,0-0.6c0.1-0.5,0.2-0.9,0.3-1.4c0.1-0.5,0.3-0.9,0.4-1.4c-0.3,0.5-0.5,1-0.8,1.6c-0.2,0.5-0.4,1.1-0.4,1.6
						c0-0.7,0.1-1.4,0.3-2.1c0.2-0.7,0.4-1.4,0.7-2.1c0.5-1.4,1.1-2.8,1.6-4.3c0.2-0.8,0.4-1.7,0.5-2.5c0.1-0.6,0.1-1.1,0.1-1.7
						c-0.3,0.9-0.5,1.9-0.8,2.8c-0.3,0.9-0.6,1.9-0.8,2.8c-0.5,1.9-1.1,3.8-1.6,5.6c-0.4,1.9-0.9,3.7-1.2,5.6
						c-0.3,1.8-0.4,3.6-0.5,5.4c0.3-1.2,0.5-2.4,0.7-3.6c0.1-0.6,0.2-1.2,0.4-1.8C49.8,36.5,50,35.9,50.2,35.3z M50.5,36
						c0,0.5-0.1,0.9-0.1,1.4c0,0.4,0,0.9,0,1.3c0,1.2,0,2.5,0.1,3.6c0,0.3,0.1,0.6,0.1,0.8c0.1,0.3,0.1,0.5,0.2,0.7
						c0.2,0.5,0.3,0.8,0.6,1.2c-0.6-1.9-0.8-4.1-1-6.3c0,1.1,0,1.2,0,0.7c0-0.2,0-0.6,0-1.2c0-0.5,0-1.2,0-1.9
						C50.5,36.3,50.5,36.2,50.5,36z"/>
					<path fill="#E34673" d="M51.9,22.2c0.5-1.2,1-2.3,1.5-3.5c-0.4,0.5-0.8,1-1.2,1.5c-0.8,1.5-1,2.9-1.5,4.3c-0.4,1-0.7,2.1-1,3.1
						c-0.3,1-0.5,2.1-0.8,3.1c-0.2,1-0.4,2-0.5,3c-0.1,1-0.2,2-0.3,3c0,0.2-0.1,0.7,0,0.9C48.9,32.6,49.8,27.6,51.9,22.2z"/>
					<path fill="#E34673" d="M47.5,44.3c0.2,0.7,0.3,1.3,0.4,2c0.2-0.7,0.2-1.6,0.2-2.2c-0.1-0.9-0.2-1.9-0.2-2.8
						C47.7,42.3,47.5,43.3,47.5,44.3z"/>
					<path fill="#E34673" d="M48.1,37.8c0,0.2-0.1,0.4-0.1,0.6c-0.1,1-0.1,1.9-0.1,2.9c0.2-1.1,0.5-2.2,0.7-3.2
						C48.3,38.1,48.1,38,48.1,37.8z"/>
				</g>
			</g>
			<g>
				<g opacity="0.8">
					<path fill="#52A6DC" d="M81.6,24.9c-0.1,0.3-0.1,0.4,0.1,0.5c0.1,0.1-0.4,0.9-0.4,1.3c-0.1,0.2-0.1,0.4-0.1,0.5
						c-0.2,0.6-0.4,1.1-0.3,1.4c0,0.1-0.1,0.3,0.3-0.2c-0.2,0.6-0.4,1.3-0.1,1.4c0.1,0.1-0.2,0.6-0.1,0.7c0.2,0.1-0.2,0.8,0,1
						c0.1,0,0.3-0.2,0.3-0.1c-0.2,0.4-0.1,0.5,0.1,0.6c0.2,0,0.5,0.1,0.7,0.3c0.1,0.2,0.3,0.3,0.3,0.5c0.2-0.1,0.2,0,0.3,0
						c0,0.2-0.5,1.1-0.8,1.3c-0.1,0-0.2-0.3-0.3-0.6c0-0.1-0.1-0.2-0.1-0.2c0-0.1-0.1-0.2-0.1-0.2c-0.1-0.1-0.1-0.2-0.2-0.1
						c-0.1,0.1,0,0.3,0,0.5c0,0.2,0.1,0.4,0,0.5c-0.2-0.1-0.3-0.2-0.5-0.3c-0.2-0.1-0.3-0.2-0.4-0.2c-0.3-0.1-0.4-0.1-0.6-0.1
						c-0.3,0-0.4,0.1-0.4,0.1c0,0.1,0.5,0.1,1,0.2c0,0.1,0.4,0.1,0.4,0.4c-0.2-0.1-1,0-1.1,0c-0.4,0-0.7,0.2-0.7,0
						c0-0.1-0.2-0.1-0.4,0c-0.2,0-0.4,0.1-0.5,0.1c0.4-0.3,1.2-0.9,1.2-0.6c0.2-0.3-0.1-0.2-0.4,0c-0.3,0.2-0.6,0.4-0.6,0.3
						c0,0-0.1,0-0.1,0c0-0.1,0.1-0.2,0.1-0.3c0-0.3-0.4-0.1-0.4-0.5c0,0-0.2,0.3-0.2,0.3C77.4,34,78,33.7,77.9,34
						c0,0.1,0.3-0.2,0.3-0.2c0,0.1-0.2,0.4-0.3,0.6c-0.3,0.1-0.3-0.1-0.4-0.2c0,0-0.3,0.2-0.4,0.3c0,0.1,0,0.2,0,0.2
						c0.1,0.1,0.4-0.1,0.6-0.2c0.2-0.1,0.3-0.1,0,0.2c0,0,0,0,0.1,0c0,0,0,0,0,0c0,0,0,0.1-0.2,0.2l0-0.1c-0.4,0.2-0.5,0.3-0.5,0.2
						c-0.1-0.1-0.1-0.2-0.3-0.2c-0.1,0.1,0.2-0.4,0.1-0.4c-0.3,0-0.3-0.3,0-0.8c0.6-1.8,1.2-3.9,2.4-6c0,0,0,0,0,0
						c0,0.1-0.1,0.1-0.1,0.2c0-0.1,0.1-0.1,0.1-0.2c0-0.1,0-0.3,0.2-0.6c0.2-0.2,0,0.1,0.2-0.1c0-0.1,0.1-0.1,0.1-0.1
						s0.1-0.1,0.2-0.2c0,0,0.1-0.1,0.1-0.2c0.1,0.2,0.1,0.4,0.2,0.6c0.3-0.3,0.2-0.3,0.2-0.4c-0.1,0-0.2,0-0.1-0.2
						c-0.1-0.1,0.3-0.8,0.4-1.1c0.1-0.1,0.2-0.2,0.3-0.4C81.4,25,81.7,24.7,81.6,24.9z M78.3,32c0.1-0.2,0.3-0.5,0.4-0.7
						c0,0,0-0.1,0-0.1c0-0.1,0-0.1,0-0.1c0.1-0.3,0.3-0.6,0.4-0.9c-0.4,0.6-0.6,1.1-0.7,1.4c0-0.5,0.8-1.9,1.3-3
						c0.1-0.2,0.1-0.4,0.1-0.5c0-0.1-0.1-0.1-0.1-0.2c-0.4,1-1,2.4-1.5,3.6c-0.2,0.6-0.5,1.2-0.6,1.7c-0.2,0.5-0.3,0.9-0.3,1.3
						C77.6,33.6,77.9,32.9,78.3,32z M78.6,31.8c0,0.2,0,0.3,0.1,0.4c0,0.2,0,0.4,0.1,0.5c0.1,0.1,0.3,0.1,0.6-0.2
						c-0.3,0-0.6-0.1-0.8-0.4C78.6,32.6,78.7,32.3,78.6,31.8C78.6,31.9,78.6,31.8,78.6,31.8z"/>
					<path fill="#52A6DC" d="M78.5,29.3c0.3-0.5,0.5-0.9,0.8-1.4c-0.3,0.4-0.6,0.7-0.8,1c-0.5,0.7-0.5,1-0.7,1.5
						c-0.4,0.8-0.7,1.5-0.9,2.1c-0.2,0.6-0.3,1.1-0.3,1.5c0,0.1,0,0.2,0,0.1c0.2-0.7,0.4-1.4,0.6-2.2C77.6,31.1,78,30.3,78.5,29.3z"
						/>
					<path fill="#52A6DC" d="M76.4,35.5c0.1,0,0.2,0,0.2,0c0.2-0.3,0.2-0.4,0.2-0.5c-0.1,0-0.1-0.1-0.2-0.3
						C76.5,35.1,76.4,35.4,76.4,35.5z"/>
					<path fill="#52A6DC" d="M76.8,34.1c0,0.1,0,0.1,0,0.2c-0.1,0.2-0.1,0.4,0,0.5c0.1-0.3,0.3-0.7,0.5-1.1
						C76.9,34,76.8,34.1,76.8,34.1z"/>
				</g>
			</g>
		</g>
		<g>
			<defs>
				<path id="SVGID_1_" d="M114.7,88.6c0,2.6-2.1,4.7-4.7,4.7H32.8c-2.6,0-4.7-2.1-4.7-4.7V11.4c0-2.6,2.1-4.7,4.7-4.7H110
					c2.6,0,4.7,2.1,4.7,4.7V88.6z"/>
			</defs>
			<clipPath id="SVGID_2_">
				<use xlink:href="#SVGID_1_"  overflow="visible"/>
			</clipPath>
			<g clip-path="url(#SVGID_2_)">
				<path fill-rule="evenodd" clip-rule="evenodd" fill="#CBE3B1" d="M35.9,15.9c-0.2-0.4,0.3-0.3,0.2-0.6c0.3,0.1,0.6,0.2,0.5,0.7
					C36.3,16.1,36.1,16,35.9,15.9z"/>
				<path fill-rule="evenodd" clip-rule="evenodd" fill="#CBE3B1" d="M41.8,27.1C44.6,27.1,41.2,29.8,41.8,27.1L41.8,27.1z"/>
				<path fill-rule="evenodd" clip-rule="evenodd" fill="#CBE3B1" d="M44.6,49.5c1.5,0.1,1.9,1.7,3.2,2C47,52.6,44.7,50.6,44.6,49.5
					z"/>
				<path fill-rule="evenodd" clip-rule="evenodd" fill="#CBE3B1" d="M42,10.9c0.1-0.2,0.2-0.4,0.2-0.6c0.6-0.1,1,0.1,1,0.7
					C43,11.3,42.3,11.2,42,10.9z"/>
				<path fill-rule="evenodd" clip-rule="evenodd" fill="#CBE3B1" d="M48.7,8.3c0.4,0.5,0.6,1,0.5,1.6c-0.4,0.2-0.4,0.2-0.9,0.1
					C48.1,9.3,47.4,8.1,48.7,8.3z"/>
				<path fill-rule="evenodd" clip-rule="evenodd" fill="#CBE3B1" d="M47.9,2.1c0.2,0,0.4,0,0.6,0c0.4,0.3,0.2,1.1-0.3,1.1
					C47.8,2.9,47.8,2.6,47.9,2.1z"/>
				<path fill-rule="evenodd" clip-rule="evenodd" fill="#CBE3B1" d="M50.4,23.3c0,0.6,0.5,1,0,1.4C49.6,24.7,49.7,23.3,50.4,23.3z"
					/>
				<path fill-rule="evenodd" clip-rule="evenodd" fill="#E34673" d="M52.8,18.1c0.2,0,0.5,0,0.8-0.1c0.1,0.3,0.3,0.5,0.4,0.9
					C53.4,19.8,52,18.9,52.8,18.1z"/>
				<path fill-rule="evenodd" clip-rule="evenodd" fill="#E34673" d="M56.1,22.2C57.5,22.5,55.6,23.5,56.1,22.2L56.1,22.2z"/>
				<path fill-rule="evenodd" clip-rule="evenodd" fill="#E34673" d="M59.3,23.4c-0.1,1.5-0.7,3-0.9,4.8c-0.5,0.1-0.7-0.1-1.1-0.2
					C57.8,26.2,57.9,24.3,59.3,23.4z"/>
				<path fill-rule="evenodd" clip-rule="evenodd" fill="#E34673" d="M58.8,18.5c-0.1-0.6-0.2-1.3,0.1-1.5c0.7,0.2,0.3,0.7,0.5,1.5
					C59.2,18.5,59,18.5,58.8,18.5z"/>
				<path fill-rule="evenodd" clip-rule="evenodd" fill="#E34673" d="M62.8-1.7c0.4,0.5,0,0.8,0.2,1.5C61.5,0.3,61.5-1.9,62.8-1.7z"
					/>
				<path fill-rule="evenodd" clip-rule="evenodd" fill="#FFF274" d="M70.8,47.4c1.1-0.8,1.5-1.9,2.6-2.2c3.2-0.7,3.4,4.3,0.6,4.2
					C72.6,49.5,72.4,47.6,70.8,47.4z"/>
				<path fill-rule="evenodd" clip-rule="evenodd" fill="#F99D41" d="M78.5,80.2c0.1,0.4,0,0.7-0.4,0.6
					C77.9,80.4,77.9,80.2,78.5,80.2z"/>
				<path fill-rule="evenodd" clip-rule="evenodd" fill="#F99D41" d="M79.4,81c-0.2-0.7,0.9-0.6,1-0.2C80.5,81.3,79.5,81.5,79.4,81z
					"/>
				<path fill-rule="evenodd" clip-rule="evenodd" fill="#FFF274" d="M76.7,51.6c0.6-0.1,1,0.3,0.7,0.7
					C76.9,52.3,76.7,52.1,76.7,51.6z"/>
				<path fill-rule="evenodd" clip-rule="evenodd" fill="#94C93D" d="M80,67.6c1.4-0.1,2.1,0.6,3,1.1c-0.8,0.7-2-0.7-3.2-0.2
					C79.5,68.2,80,67.9,80,67.6z"/>
				<path fill-rule="evenodd" clip-rule="evenodd" fill="#94C93D" d="M81.1,70.9c0,0.2,0,0.4,0.1,0.6C80.6,71.6,80.6,70.8,81.1,70.9
					z"/>
				<path fill-rule="evenodd" clip-rule="evenodd" fill="#F99D41" d="M82.6,74.7c0.7-0.6,1.5,0.4,1,1.1
					C82.8,76.2,82.3,75.3,82.6,74.7z"/>
				
					<linearGradient id="SVGID_3_" gradientUnits="userSpaceOnUse" x1="2412.4165" y1="-740.7013" x2="2436.1963" y2="-620.361" gradientTransform="matrix(0.6471 0.7624 -0.7624 0.6471 -1990.672 -1324.2964)">
					<stop  offset="0" style="stop-color:#010101"/>
					<stop  offset="0.6404" style="stop-color:#F8991D"/>
					<stop  offset="0.6937" style="stop-color:#F89D1E"/>
					<stop  offset="0.7671" style="stop-color:#F7A922"/>
					<stop  offset="0.8523" style="stop-color:#F7BD2B"/>
					<stop  offset="0.9455" style="stop-color:#F7D939"/>
					<stop  offset="1" style="stop-color:#F7ED43"/>
				</linearGradient>
				<path fill-rule="evenodd" clip-rule="evenodd" fill="url(#SVGID_3_)" d="M85.4,96.9c0.2-0.2,0.6-0.2,1-0.2
					c0.1,0.3,0.4,0.9,0.1,1.2C85.9,97.8,85.6,97.5,85.4,96.9z"/>
				<path fill-rule="evenodd" clip-rule="evenodd" fill="#52A6DC" d="M78.1,25.5c1.4-1.2,3.9,0,4.1,1.8c-0.1,0-0.1,0.2-0.1,0.3
					C80.5,28.5,78.2,27.5,78.1,25.5z"/>
				<path fill-rule="evenodd" clip-rule="evenodd" fill="#94C93D" d="M85.2,71.8C81.1,73.1,85.2,68,85.2,71.8L85.2,71.8z"/>
				<path fill-rule="evenodd" clip-rule="evenodd" fill="#F99D41" d="M84.5,75.3c0.6,0,0.7,0.6,0.6,1c-0.1,0-0.3,0-0.4,0
					C84.4,76.2,84.3,75.5,84.5,75.3z"/>
				<path fill-rule="evenodd" clip-rule="evenodd" fill="#FFF274" d="M81.2,42.6c-0.2-0.6,0.3-0.6,0.5-0.9c0.2,0.1,0.4,0.2,0.6,0.3
					C82.4,42.5,81.7,42.9,81.2,42.6z"/>
				<path fill-rule="evenodd" clip-rule="evenodd" fill="#52A6DC" d="M78.3,1.6c0.2,1.3-0.4,1.9-0.4,3.1C76.8,4.1,77.4,1.8,78.3,1.6
					z"/>
				<path fill-rule="evenodd" clip-rule="evenodd" fill="#FFF274" d="M83,52.9c-0.1-2.2,1.8-0.6,3-0.4C85.4,53.4,84,52.5,83,52.9z"
					/>
				<path fill-rule="evenodd" clip-rule="evenodd" fill="#F99D41" d="M87.6,87c0-0.2,0-0.4-0.1-0.6c0.3-0.1,0.4,0.1,0.6,0.1
					C88.2,86.9,88,87,87.6,87z"/>
				<path fill-rule="evenodd" clip-rule="evenodd" fill="#94C93D" d="M87.2,72.1c0.1,0.3,0.4,0.7,0.1,1.1
					C86.2,73.5,86,71.9,87.2,72.1z"/>
				<path fill-rule="evenodd" clip-rule="evenodd" fill="#52A6DC" d="M81,20.8c-0.1-0.5,0.3-0.5,0.7-0.5
					C81.9,20.9,81.3,21.1,81,20.8z"/>
				<path fill-rule="evenodd" clip-rule="evenodd" fill="#F99D41" d="M87.1,77.4c0.5,0.1,1.2,0,1.1,0.7C87.6,78.2,87.2,78,87.1,77.4
					z"/>
				<path fill-rule="evenodd" clip-rule="evenodd" fill="#94C93D" d="M90.9,72.6c0-0.3,0.8-0.6,1-0.2C92.1,72.9,91,72.7,90.9,72.6z"
					/>
				<path fill-rule="evenodd" clip-rule="evenodd" fill="#94C93D" d="M92.5,78.1c0-0.2,0-0.4-0.1-0.6C92.9,77.3,93.2,78.3,92.5,78.1
					z"/>
				<path fill-rule="evenodd" clip-rule="evenodd" fill="#FFF274" d="M89.7,42.2c0.4-0.5,1.5-0.8,2.1-0.3
					C92.1,43.3,89.8,44,89.7,42.2z"/>
				<path fill-rule="evenodd" clip-rule="evenodd" fill="#94C93D" d="M95.3,80.1c0.2,0.3,0.4,0.5,0.4,1C94.6,82.2,93.5,80,95.3,80.1
					z"/>
				<path fill-rule="evenodd" clip-rule="evenodd" fill="#FFF274" d="M91,50c0.7-0.2,0.8,0.3,1.1,0.5c0.9,0,1.7-0.6,2.3,0
					c0.1,0.8-1,0.7-1.7,0.7c0.3,0.6,1,1.3,0.5,1.9C92.1,52.6,91.4,51.6,91,50z"/>
				<path fill-rule="evenodd" clip-rule="evenodd" fill="#FFF274" d="M92.9,40.8c0.3-0.7,1.5-1.3,2.5-0.9
					C94.9,40.4,94,41.2,92.9,40.8z"/>
				<path fill-rule="evenodd" clip-rule="evenodd" fill="#F99D41" d="M96.5,72.8c0.2-0.6,0.3-1.2,1.2-1.2
					C97.9,72.4,96.9,72.9,96.5,72.8z"/>
				<path fill-rule="evenodd" clip-rule="evenodd" fill="#F99D41" d="M98.8,73c0,0.4-0.2,0.7-0.7,0.7C97.6,73.1,98.3,72.7,98.8,73z"
					/>
				<path fill-rule="evenodd" clip-rule="evenodd" fill="#F99D41" d="M99.8,84.1c0.8-0.1,1.2,0.4,1.3,1.1
					C100.6,85.5,99.5,84.8,99.8,84.1z"/>
				<path fill-rule="evenodd" clip-rule="evenodd" fill="#52A6DC" d="M94.3,23.6c0.2,0.1,0.4,0.2,0.6,0.3c0.1,0.6,0,1-0.5,1.1
					C93.7,25,93.8,23.8,94.3,23.6z"/>
				<path fill-rule="evenodd" clip-rule="evenodd" fill="#94C93D" d="M102.1,78.7c0.4-0.5,1.1-0.6,1.7-0.9
					C104.1,78.8,102.8,79,102.1,78.7z"/>
				<path fill-rule="evenodd" clip-rule="evenodd" fill="#94C93D" d="M103.8,81.5c0.2-0.2,1.1-0.3,1.4-0.1
					C105.6,82.6,103.6,82.7,103.8,81.5z"/>
				<path fill-rule="evenodd" clip-rule="evenodd" fill="#94C93D" d="M109.4,73c0.9-0.3,0.8,1.2,0.6,1.6
					C109.1,74.6,109.5,73.8,109.4,73z"/>
				<path fill-rule="evenodd" clip-rule="evenodd" fill="#52A6DC" d="M104.6,16.6c0.4,0.3,0.2,0.9-0.4,0.9
					C103.9,17.3,103.9,16.5,104.6,16.6z"/>
				<path fill-rule="evenodd" clip-rule="evenodd" fill="#FFF274" d="M113.5,41.2c0.6,1-0.4,1.7-0.8,2.2
					C111.1,43,112.3,41.2,113.5,41.2z"/>
			</g>
		</g>
	</g>
	<g>
		<path fill="#F99D41" d="M121.5,54.5c0,6-4.1,10.9-10.9,10.9c-6.8,0-10.9-4.9-10.9-10.9c0-6,4.2-10.9,10.8-10.9
			C117.2,43.6,121.5,48.5,121.5,54.5z M104.9,54.5c0,3.2,1.9,6.1,5.7,6.1c3.8,0,5.7-3,5.7-6.1c0-3.1-2.2-6.2-5.7-6.2
			C106.8,48.3,104.9,51.3,104.9,54.5z"/>
		<path fill="#EAD963" d="M130.2,35.3v29.6H125V35.3H130.2z"/>
		<path fill="#52A6DC" d="M155.5,54.5c0,6-4.1,10.9-10.9,10.9c-6.8,0-10.9-4.9-10.9-10.9c0-6,4.2-10.9,10.8-10.9
			C151.2,43.6,155.5,48.5,155.5,54.5z M138.9,54.5c0,3.2,1.9,6.1,5.7,6.1c3.8,0,5.7-3,5.7-6.1c0-3.1-2.2-6.2-5.7-6.2
			C140.9,48.3,138.9,51.3,138.9,54.5z"/>
		<path fill="#E34673" d="M164.3,44v10.9c0,3.2,1.7,5.6,5,5.6c3.2,0,5.3-2.7,5.3-5.9V44h5.1v20.9h-4.6l-0.3-2.8
			c-2.2,2.1-4.2,3.1-7.1,3.1c-5,0-8.6-3.8-8.6-10.3V44H164.3z"/>
		<path fill="#52A6DC" d="M189.2,44l0.4,2.4c1.6-2.6,3.8-3,5.9-3c2.2,0,4.2,0.8,5.4,2l-2.3,4.5c-1.1-0.9-2-1.4-3.7-1.4
			c-2.7,0-5.2,1.4-5.2,5.3v11h-5.2V44H189.2z"/>
		<path fill="#F99D41" d="M208.8,62.2c0,4-6.1,4-6.1,0C202.7,58.2,208.8,58.2,208.8,62.2z"/>
		<path fill="#E34673" d="M227,64.9V53.7c0-2.8-1.4-5.3-4.3-5.3c-2.8,0-4.5,2.5-4.5,5.3v11.2h-5.2V43.9h4.8l0.4,2.5
			c1.1-2.1,3.5-2.9,5.5-2.9c2.5,0,5,1,6.2,3.9c1.9-3,4.3-3.8,7-3.8c5.9,0,8.9,3.6,8.9,9.9v11.3h-5.2V53.6c0-2.8-1.1-5.1-3.9-5.1
			c-2.8,0-4.5,2.4-4.5,5.2v11.2H227z"/>
		<path fill="#AED07F" d="M255.5,56.3c0.3,2.6,2.6,4.5,6.2,4.5c1.9,0,4.4-0.7,5.6-2l3.3,3.3c-2.2,2.3-5.8,3.4-9,3.4
			c-7.2,0-11.5-4.5-11.5-11.2c0-6.4,4.3-10.9,11.1-10.9c7,0,11.4,4.3,10.6,12.9H255.5z M266.9,52c-0.3-2.7-2.5-4.1-5.4-4.1
			c-2.8,0-5.1,1.4-5.9,4.1H266.9z"/>
	</g>
</g>
</svg>
