<?xml version="1.0" encoding="utf-8"?>
<!-- Generator: Adobe Illustrator 16.0.0, SVG Export Plug-In . SVG Version: 6.00 Build 0)  -->
<!DOCTYPE svg PUBLIC "-//W3C//DTD SVG 1.1//EN" "http://www.w3.org/Graphics/SVG/1.1/DTD/svg11.dtd">
<svg version="1.1" id="Layer_1" xmlns="http://www.w3.org/2000/svg" xmlns:xlink="http://www.w3.org/1999/xlink" x="0px" y="0px"
	 width="600px" height="200px" viewBox="0 0 600 200" enable-background="new 0 0 600 200" xml:space="preserve">
<g>
	<g>
		<g>
			<g opacity="0.8">
				<path fill="#CBE3B1" d="M35.4,37.002c-0.031,1.172-0.026,2.287,0.011,3.377c0.053,1.093,0.145,2.163,0.265,3.245
					c0.136,1.679,0.126,3.296,0.075,4.938c-0.056,1.64-0.122,3.313-0.07,5.104c0.017,1.776,0.122,3.418,0.238,5.146
					c-0.083,3.508-0.016,7.36,0.296,11.321c-0.014,0.429-0.071,1.695,0.459,1.535c-0.058,3.878-0.2,7.64,0.245,11.365
					c0.116,1.571-0.233,3.223-0.151,4.795c0.122,1.278,0.056,2.55-0.023,3.813c-0.095,1.264-0.234,2.521-0.201,3.772
					c0.081,0.348,0.363,1.105,0.326,1.397c-0.312,1.724-0.304,3.384-0.164,5.034c0.112,1.648,0.281,3.289,0.352,4.945
					c0.012,0.648-0.001,1.225-0.021,1.793c-0.021,0.568-0.056,1.13-0.135,1.746c0.225,0.138,0.156,0.431,0.2,0.791
					c-0.022,0.236-0.112,0.734-0.24,1.355c-0.139,0.621-0.349,1.362-0.551,2.086c-0.411,1.449-0.852,2.822-1.041,3.031
					c-0.094,0.104,0.228-2.451,0.534-5.006c0.198-2.567,0.37-5.135,0.226-5.057c-0.09,0.111-0.264,1.802-0.433,3.537
					c-0.042,0.436-0.084,0.871-0.125,1.287c-0.048,0.414-0.112,0.807-0.161,1.154c-0.102,0.695-0.183,1.211-0.223,1.353
					c0.031-0.769,0.061-1.505,0.089-2.205c0.015-0.7-0.003-1.368-0.003-1.999c-0.013-1.26-0.024-2.389-0.035-3.396
					c-0.103-2.013-0.19-3.528-0.263-4.637c-0.195-2.217-0.322-2.807-0.338-2.411c-0.032,0.396,0.07,1.785,0.101,3.536
					c0.034,0.879,0.071,1.85,0.108,2.832l0.035,0.74c0.003,0.246,0.006,0.492,0.009,0.736c0.01,0.489,0.02,0.973,0.029,1.439
					c-0.179,1.143,0.096,2.832-0.251,5.063c-0.011-0.679-0.094-1.715-0.237-2.662c-0.146-0.947-0.28-1.801-0.27-2.119
					c-0.039-1.479-0.141-2.108-0.214-2.787c-0.082-0.68-0.108-1.402,0.026-3.063c0.045-0.683,0.092-1.487,0.043-2.351
					c-0.037-0.864-0.098-1.783-0.166-2.688c-0.113-1.808-0.358-3.565-0.432-4.729c0.209,0.604,0.542,1.618,0.811,2.709
					c0.25,1.089,0.407,2.254,0.332,3.148c0.308-1.941,0.071-3.057-0.269-4.185c-0.33-1.129-0.682-2.268-0.635-4.291
					c-0.013-0.377-0.077-0.813-0.17-1.284c0.046-0.452,0.09-0.879,0.144-1.414c-0.003-1.667-0.164-3.229-0.306-4.782
					c-0.07-0.778-0.135-1.553-0.185-2.338c-0.061-0.786-0.104-1.584-0.114-2.406c0.033,0.281-0.229,0.476-0.248,0.765
					c-0.145,1.427-0.065,2.728,0.06,4.05c0.123,1.322,0.317,2.665,0.275,4.158c-0.06,0.574,0.361,1.36,0.373,1.967
					c0.025,0.615-0.021,1.198-0.089,1.769c-0.083,0.57-0.187,1.13-0.261,1.704c-0.084-0.57-0.139-1.165-0.181-1.775
					c-0.055-0.611-0.092-1.238-0.121-1.871c-0.064-1.265-0.069-2.552-0.157-3.782c-0.06-0.511-0.358-1.116-0.521-1.507
					c0.029,1.135,0.059,2.274,0.088,3.419c0.054,0.997,0.176,2.07,0.321,3.165c0.149,1.096,0.262,2.209,0.379,3.292
					c0.102,1.082,0.215,2.135,0.186,3.089c-0.017,0.957-0.105,1.821-0.309,2.533c0.018,0.086,0.036,0.171,0.071,0.345
					c-0.03,0.042-0.049,0.1-0.063,0.166c-0.011,0.559-0.05,1.228-0.272,1.817c0,0,0.009-0.096,0.023-0.238
					c0.016-0.143,0.035-0.335,0.045-0.527c0.025-0.385,0.05-0.769,0.05-0.769c-0.365-2.024-0.368-4.164-0.425-6.362
					c-0.021-1.098,0.005-2.204-0.041-3.312c-0.042-1.108-0.1-2.214-0.206-3.302c-0.138-0.96,0.234-2.585,0.065-3.551
					c-0.376-2.84-0.452-5.824-0.279-8.723c0.332-10.45,0.402-20.989,1.317-31.27c-0.021-0.237-0.043-0.474-0.064-0.707
					c-0.048,0.107-0.096,0.211-0.143,0.314c0.038-0.225,0.077-0.45,0.115-0.674c-0.085-1.306-0.109-2.597,0.147-3.882
					c0.169-0.53,0.047,0.919,0.278,1.308c0.021-0.291,0.041-0.581,0.041-0.581s0.121,0.048,0.242,0.097
					c-0.064-0.219,0.075-0.356,0.155-0.517c0.153,2.826,0.369,5.666,0.564,8.531c0.298-0.353,0.178-1.195,0.198-1.6
					c-0.146-0.943-0.279-1.883-0.221-2.753c-0.107-1.199-0.058-2.43,0.026-3.649c0.102-1.218,0.233-2.423,0.261-3.58
					c0.078-0.431,0.165-0.858,0.276-1.273C35.056,35.078,35.468,36.146,35.4,37.002z M33.069,72.925
					c0.099-0.804,0.256-1.589,0.393-2.407c0.002-0.285,0.005-0.567,0.007-0.853c0.014-0.354-0.025-0.729-0.099-1.115
					c0.079-1.528,0.157-3.049,0.236-4.576c-0.341,1.551-0.628,3.158-0.61,5.07c-0.295-4.921,0.489-9.242,0.863-13.84
					c0.001-1.381-0.023-2.777-0.086-4.201c-0.06-1.002-0.168-1.977-0.292-2.939c-0.447,12.283-1.393,24.503-1.292,36.862
					c0.105-1.005,0.197-2.002,0.283-2.997c0.066-0.997,0.132-1.989,0.198-2.982C32.807,76.96,32.908,74.965,33.069,72.925z
					 M33.507,74.368c0.062,1.615,0.141,3.208,0.247,4.778c0.162,4.288,0.218,8.948,1.047,11.707
					c-0.19-1.888-0.336-3.806-0.545-5.755c-0.095-0.976-0.183-1.959-0.26-2.951c-0.08-0.991-0.174-1.992-0.242-3.001
					c0.118,3.847,0.12,1.065-0.168-4.095C33.548,74.935,33.528,74.681,33.507,74.368z"/>
				<path fill="#CBE3B1" d="M32.214,50.689c0.269-1.811,0.467-3.639,0.751-5.439c-0.322,0.7-0.608,1.319-0.839,2.135
					c-0.241,1.097-0.328,2.255-0.385,3.424c-0.048,1.168-0.064,2.349-0.173,3.495c-0.638,6.59-0.593,13.396-0.331,20.294
					c-0.018,0.343-0.013,1.096,0.122,1.653C31.479,67.524,31.363,59.222,32.214,50.689z"/>
				<path fill="#CBE3B1" d="M31.215,87.337c0.121,1.247,0.243,2.495,0.244,3.69c0.239-1.09,0.267-2.576,0.265-3.773
					c-0.1-1.682-0.222-3.368-0.287-5.032C31.285,83.898,31.192,85.59,31.215,87.337z"/>
				<path fill="#CBE3B1" d="M31.358,76.252c-0.002,0.349-0.009,0.696-0.019,1.048c-0.043,1.612,0.016,3.259,0.099,4.922
					c0.141-1.77,0.309-3.528,0.426-5.312C31.605,76.931,31.454,76.642,31.358,76.252z"/>
			</g>
		</g>
		<g>
			<g opacity="0.8">
				<path fill="#E34673" d="M48.882,38.171c-0.749,2.341-1.29,4.486-1.729,6.714c-0.763,3.438-2.064,6.389-3.103,9.955
					c-0.551,1.759-0.935,3.41-1.345,5.151c-1.13,3.437-2.26,7.25-3.01,11.268c-0.135,0.422-0.533,1.662,0.025,1.645
					c-0.274,0.956-0.547,1.905-0.818,2.849c-0.268,0.945-0.533,1.886-0.737,2.833c-0.43,1.889-0.78,3.779-0.964,5.692
					c-0.105,0.798-0.34,1.592-0.574,2.389c-0.237,0.795-0.472,1.592-0.543,2.396c-0.173,2.62-1.081,5.095-1.365,7.648
					c0.033,0.364,0.209,1.162,0.133,1.453c-0.935,3.444-0.385,6.792-0.376,10.12c-0.029,0.652-0.007,1.233,0.004,1.805
					c0.007,0.572,0,1.137-0.049,1.757c0.23,0.129,0.177,0.425,0.238,0.782c-0.044,0.939-0.949,6.158-1.286,6.635
					c-0.168,0.238,0.326-10.383,0.043-10.225c-0.169,0.229-0.372,6.914-0.479,7.506c-0.166-3.145-0.302-5.71-0.411-7.775
					c-0.03-2.068-0.063-3.64-0.094-4.792c-0.064-2.306-0.127-2.932-0.178-2.52c-0.051,0.411-0.089,1.856-0.101,3.679
					c-0.006,0.911-0.005,1.917,0.004,2.934c-0.012,1.016,0.09,2.052,0.146,3.014c-0.118,1.188,0.193,2.906,0.088,5.21
					c-0.131-1.376-0.823-4.222-0.831-4.888c-0.098-1.537-0.261-2.199-0.321-2.906c-0.057-0.707-0.055-1.466,0.142-3.201
					c0.328-2.84,0.069-7.827,0.303-10.271c0.122,0.659,0.311,1.753,0.425,2.91c0.131,1.16,0.231,2.387,0.083,3.312
					c0.444-1.997,0.272-3.175,0.125-4.378c-0.166-1.204-0.372-2.44-0.017-4.537c0.049-0.393,0.058-0.854,0.044-1.357
					c0.12-0.46,0.234-0.895,0.377-1.44c0.137-0.863,0.212-1.708,0.33-2.532c0.104-0.826,0.205-1.639,0.307-2.448
					c0.2-1.621,0.413-3.234,0.777-4.916c-0.033,0.295-0.333,0.433-0.419,0.724c-0.482,1.421-0.686,2.78-0.848,4.165
					c-0.155,1.387-0.309,2.793-0.564,4.343c-0.154,0.586,0.13,1.474,0.042,2.104c-0.153,1.284-0.571,2.386-0.879,3.565
					c0-2.426,0.444-5.237,0.773-7.812c0.052-0.537-0.109-1.219-0.183-1.656c-0.226,1.178-0.452,2.36-0.595,3.565
					c-0.228,2.106-0.232,4.569-0.318,6.864c-0.033,1.15-0.129,2.251-0.21,3.262c-0.088,1.009-0.24,1.913-0.496,2.652
					c0.011,0.093,0.022,0.185,0.045,0.37c-0.033,0.043-0.057,0.104-0.076,0.172c-0.046,0.59-0.154,1.291-0.39,1.913l0.215-1.623
					c-0.105-1.083-0.125-2.199-0.093-3.334c0.011-0.284,0.022-0.569,0.033-0.856c0.026-0.285,0.052-0.57,0.078-0.856
					c0.058-0.573,0.124-1.149,0.195-1.728c0.284-2.316,0.64-4.668,0.796-6.986c-0.006-1.041,0.74-2.644,0.781-3.675
					c0.244-3.014,0.858-6.109,1.757-9.019c3.031-10.544,6.528-20.85,10.53-30.765c0.053-0.241,0.105-0.482,0.157-0.72
					c-0.08,0.091-0.157,0.18-0.234,0.269c0.106-0.211,0.212-0.424,0.317-0.634c0.314-1.323,0.709-2.602,1.32-3.814
					c0.314-0.48-0.218,0.934-0.122,1.385c0.107-0.283,0.214-0.567,0.214-0.567s0.102,0.084,0.204,0.167
					c0.003-0.237,0.176-0.334,0.299-0.471c-0.704,2.861-1.388,5.747-2.074,8.644c0.392-0.258,0.536-1.13,0.679-1.526
					c0.151-0.977,0.312-1.951,0.635-2.8c0.534-2.449,1.714-4.831,2.446-7.137c0.2-0.411,0.409-0.815,0.639-1.202
					C49.114,36.142,49.2,37.327,48.882,38.171z M35.905,73.203c0.313-0.782,0.672-1.53,1.035-2.31
					c0.081-0.284,0.162-0.566,0.243-0.851c0.111-0.35,0.177-0.735,0.213-1.142c0.251-0.751,0.5-1.501,0.751-2.25
					c0.265-0.746,0.53-1.491,0.796-2.238c-0.396,0.719-0.791,1.456-1.139,2.256c-0.34,0.802-0.648,1.663-0.905,2.624
					c0.276-1.251,0.582-2.451,0.974-3.601c0.387-1.15,0.811-2.263,1.252-3.358c0.885-2.19,1.825-4.312,2.707-6.527
					c0.436-1.363,0.851-2.749,1.238-4.174c0.255-1.008,0.447-2.008,0.625-2.999c-0.523,1.502-1.06,3-1.605,4.494
					c-0.542,1.494-1.111,2.982-1.632,4.48c-1.063,2.994-2.153,5.985-3.196,9.002c-0.993,3.028-1.959,6.08-2.858,9.17
					c-0.87,3.097-1.588,6.252-2.241,9.452c0.645-2.032,1.229-4.033,1.817-6.032c0.301-0.997,0.572-2,0.907-2.995
					C35.215,75.207,35.552,74.208,35.905,73.203z M35.94,74.768c-0.189,0.818-0.378,1.632-0.536,2.447
					c-0.149,0.817-0.288,1.63-0.416,2.44c-0.43,2.19-0.869,4.484-1.164,6.602c-0.071,0.53-0.143,1.047-0.187,1.551
					c-0.038,0.505-0.066,0.995-0.08,1.464c-0.028,0.938-0.004,1.796,0.091,2.537c0.209-3.938,0.685-7.991,1.338-12.154
					c-0.385,1.966-0.423,2.243-0.245,1.365c0.086-0.439,0.228-1.167,0.413-2.114c0.179-0.949,0.391-2.118,0.675-3.432
					C35.826,75.348,35.875,75.087,35.94,74.768z"/>
				<path fill="#E34673" d="M41.684,50.844c0.811-1.708,1.561-3.458,2.383-5.156c-0.521,0.597-0.985,1.122-1.455,1.86
					c-1.132,2.026-1.752,4.472-2.68,6.669c-0.682,1.576-1.277,3.192-1.864,4.83c-0.583,1.638-1.138,3.3-1.666,4.985
					c-0.543,1.681-1.004,3.397-1.448,5.131c-0.446,1.734-0.868,3.486-1.271,5.254c-0.109,0.342-0.309,1.108-0.331,1.708
					C35.775,67.278,38.184,59.004,41.684,50.844z"/>
				<path fill="#E34673" d="M30.7,87.544c-0.09,1.335-0.18,2.667-0.379,3.927c0.419-1.111,0.695-2.664,0.895-3.92
					c0.241-1.769,0.511-3.534,0.805-5.273C31.512,83.981,31.025,85.714,30.7,87.544z"/>
				<path fill="#E34673" d="M33.353,76.126c-0.101,0.352-0.189,0.707-0.28,1.066c-0.417,1.646-0.755,3.351-1.052,5.085
					c0.541-1.796,1.125-3.559,1.653-5.355C33.417,76.879,33.335,76.545,33.353,76.126z"/>
			</g>
		</g>
		<g>
			<g opacity="0.8">
				<path fill="#FFF274" d="M67.637,7.68c-0.394,0.516-0.623,1.038-0.746,1.615c-0.267,0.867-1.148,1.443-1.682,2.287
					c-0.292,0.405-0.49,0.831-0.69,1.269c-0.699,0.774-1.327,1.68-1.743,2.724c-0.092,0.093-0.363,0.366,0.155,0.534
					c-0.704,0.887-1.506,1.711-1.661,2.793c-0.116,0.435-0.716,0.677-0.861,1.102c-0.145,0.739-0.958,1.142-1.199,1.808
					c0.034,0.127,0.188,0.446,0.113,0.502c-0.963,0.606-0.639,1.808-0.8,2.824c-0.124,0.363-0.173,0.676-0.393,0.965
					c0.183,0.154,0.105,0.208,0.118,0.339c-0.145,0.244-1.477,1.186-1.799,1.114c-0.159-0.035,1.38-2.626,1.114-2.719
					c-0.168-0.025-1.031,1.641-1.184,1.742c0.194-0.925,0.333-1.666,0.434-2.258c0.088-0.6,0.108-1.071,0.132-1.408
					c0.037-0.681,0.002-0.879-0.059-0.789c-0.061,0.091-0.149,0.476-0.233,0.984c-0.042,0.254-0.082,0.541-0.118,0.836
					c-0.052,0.285-0.1,0.58-0.136,0.864c-0.217,0.244-0.124,0.853-0.448,1.403c0.035-0.44-0.272-1.538-0.219-1.705
					c0.109-0.886-0.23-0.936,0.239-1.718c0.195-0.319,0.292-0.848,0.355-1.368c0.028-0.26,0.055-0.518,0.08-0.751
					c0.021-0.235,0.033-0.452,0.064-0.612c0.253,0.488,0.696,1.59,0.368,1.98c0.472-0.356,0.375-0.755,0.223-1.175
					c-0.16-0.428-0.362-0.873-0.068-1.34c0.04-0.094,0.041-0.225,0.021-0.376c0.104-0.086,0.202-0.168,0.324-0.271
					c0.441-0.793,0.373-1.699,0.871-2.458c-0.016,0.078-0.287,0.018-0.35,0.075c-0.745,0.516-0.442,1.364-0.914,2.034
					c-0.132,0.108,0.141,0.473,0.068,0.621c-0.122,0.312-0.486,0.466-0.748,0.681c-0.042-0.706,0.343-1.319,0.566-1.943
					c0.027-0.137-0.159-0.403-0.25-0.56c-0.14,0.277-0.292,0.535-0.414,0.816c-0.171,0.505-0.134,1.203-0.181,1.833
					c-0.038,0.633-0.222,1.15-0.715,1.32c0.007,0.03,0.014,0.06,0.028,0.12c-0.031-0.003-0.054,0.001-0.072,0.011
					c-0.061,0.137-0.179,0.276-0.405,0.333l0.242-0.335c-0.125-0.68,0.081-1.196,0.295-1.746c0.219-0.544,0.504-1.071,0.604-1.662
					c-0.008-0.284,0.593-0.48,0.572-0.781c0.051-0.818,0.473-1.505,1.109-2.087c2.024-2.234,4.125-4.612,6.636-6.655
					c0.017-0.063,0.034-0.126,0.055-0.188c-0.062,0.006-0.122,0.012-0.183,0.018c0.071-0.036,0.143-0.074,0.215-0.112
					c0.126-0.337,0.334-0.636,0.748-0.843c0.23-0.059-0.085,0.238,0.06,0.416c0.063-0.06,0.127-0.119,0.127-0.119
					s0.103,0.058,0.208,0.117c-0.027-0.076,0.121-0.054,0.218-0.061c-0.285,0.722-0.571,1.447-0.86,2.176
					c0.334,0.032,0.365-0.208,0.451-0.293c0.026-0.271,0.054-0.541,0.246-0.716c0.187-0.631,0.979-1.038,1.363-1.551
					c0.133-0.069,0.274-0.133,0.437-0.184C67.596,7.095,67.821,7.512,67.637,7.68z M59.4,15.013c0.227-0.146,0.5-0.268,0.772-0.4
					c0.051-0.065,0.102-0.128,0.157-0.192c0.075-0.075,0.104-0.175,0.104-0.292c0.343-0.318,0.687-0.638,1.029-0.956
					c-0.591,0.229-1.144,0.485-1.46,0.927c0.593-1.227,2.092-1.927,3.252-2.843c0.244-0.315,0.466-0.643,0.658-0.991
					c0.118-0.252,0.177-0.52,0.226-0.788c-1.237,1.329-2.682,2.603-4.022,3.897c-0.675,0.642-1.32,1.291-1.898,1.964
					c-0.595,0.656-1.119,1.335-1.537,2.066C57.637,16.641,58.424,15.833,59.4,15.013z M59.562,15.515
					c-0.217,0.395-0.417,0.784-0.569,1.191c-0.284,0.521-0.57,1.067-0.732,1.612c-0.183,0.533-0.245,1.064-0.055,1.58
					c0.096-0.534,0.21-1.063,0.332-1.597c0.114-0.54,0.257-1.074,0.456-1.595c-0.51,0.934-0.078,0.288,0.526-1.003
					C59.503,15.661,59.528,15.595,59.562,15.515z"/>
				<path fill="#FFF274" d="M62.525,9.609c0.551-0.32,1.047-0.667,1.605-0.978C63.723,8.673,63.349,8.706,63,8.809
					c-0.814,0.328-1.103,0.943-1.708,1.392c-0.875,0.641-1.61,1.345-2.243,2.107c-0.633,0.756-1.166,1.542-1.614,2.381
					c-0.074,0.071-0.192,0.246-0.167,0.418c0.773-0.968,1.524-1.915,2.362-2.847C60.465,11.328,61.39,10.435,62.525,9.609z"/>
				<path fill="#FFF274" d="M55.442,17.544c-0.056,0.335-0.113,0.672-0.271,0.945c0.361-0.145,0.585-0.475,0.744-0.75
					c0.164-0.411,0.29-0.858,0.472-1.265C56.005,16.796,55.681,17.154,55.442,17.544z"/>
				<path fill="#FFF274" d="M57.268,15.106c-0.063,0.075-0.126,0.149-0.19,0.225c-0.295,0.345-0.512,0.732-0.689,1.143
					c0.398-0.343,0.842-0.667,1.234-1.024C57.381,15.353,57.288,15.229,57.268,15.106z"/>
			</g>
		</g>
		<g>
			<g opacity="0.8">
				<path fill="#F99D41" d="M21.232,69.716c-0.181,0.31-0.208,0.582-0.118,0.875c0.067,0.457-0.642,0.792-0.883,1.202
					c-0.151,0.202-0.223,0.395-0.305,0.6c-0.478,0.352-0.807,0.731-0.969,1.179c-0.065,0.035-0.256,0.131,0.267,0.278
					c-0.239,0.173-0.48,0.33-0.657,0.503c-0.189,0.17-0.302,0.359-0.263,0.618c-0.024,0.197-0.505,0.188-0.533,0.374
					c0.022,0.352-0.614,0.347-0.689,0.624c0.052,0.075,0.254,0.298,0.206,0.31c-0.681,0.045-0.173,0.809-0.138,1.372
					c-0.014,0.191-0.011,0.364-0.133,0.47c0.173,0.164,0.119,0.169,0.151,0.258c-0.081,0.11-0.972,0.21-1.222,0.024
					c-0.121-0.091,0.618-1.119,0.38-1.266c-0.138-0.076-0.494,0.613-0.596,0.617c-0.016-0.5-0.057-0.886-0.11-1.195
					c-0.068-0.32-0.136-0.556-0.194-0.73c-0.119-0.348-0.196-0.458-0.225-0.433c-0.029,0.026-0.013,0.191,0.03,0.433
					c0.048,0.243,0.11,0.555,0.172,0.86c-0.116,0.059,0.081,0.458-0.063,0.665c-0.051-0.261-0.517-1.029-0.517-1.098
					c-0.11-0.456-0.417-0.628-0.213-0.849c0.174-0.193-0.189-0.908-0.265-1.158c0.327,0.289,0.991,1.001,0.798,1.087
					c0.313-0.018,0.133-0.261-0.106-0.52c-0.233-0.258-0.513-0.524-0.375-0.642c0.011-0.029-0.019-0.087-0.073-0.159
					c0.068-0.008,0.133-0.015,0.214-0.024c0.171-0.237-0.108-0.628,0.151-0.815c0.005,0.028-0.255-0.058-0.298-0.05
					c-0.535,0.024-0.065,0.432-0.284,0.602c-0.087,0.006,0.242,0.243,0.216,0.288c-0.03,0.1-0.305,0.056-0.473,0.063
					c-0.218-0.327-0.031-0.449-0.017-0.656c-0.019-0.053-0.249-0.209-0.37-0.295c-0.061,0.064-0.096,0.142-0.131,0.213
					c-0.014,0.148,0.201,0.447,0.318,0.71c0.125,0.265,0.131,0.469-0.233,0.357c0.013,0.016,0.026,0.033,0.053,0.066
					c-0.025-0.014-0.043-0.02-0.056-0.022c-0.013,0.042-0.072,0.063-0.238,0.001l0.107-0.064c-0.269-0.358-0.272-0.522-0.236-0.683
					c0.041-0.152,0.146-0.277,0.075-0.478c-0.083-0.109,0.364-0.031,0.277-0.149c-0.174-0.304,0.036-0.423,0.438-0.517
					c1.269-0.397,2.602-1.079,4.295-2.064c-0.008-0.027-0.014-0.053-0.016-0.079c-0.056,0.007-0.11,0.015-0.164,0.022
					c0.052-0.02,0.106-0.041,0.16-0.062c-0.003-0.144,0.082-0.277,0.392-0.41c0.193-0.052,0.006,0.104,0.206,0.157
					c0.038-0.031,0.075-0.063,0.075-0.063s0.118,0.011,0.237,0.022c-0.052-0.028,0.093-0.038,0.181-0.053
					c-0.024,0.333,0.021,0.673-0.063,1.005c0.327-0.005,0.284-0.113,0.339-0.156c-0.052-0.121-0.123-0.238-0.008-0.334
					c-0.052-0.289,0.541-0.566,0.714-0.861c0.099-0.053,0.207-0.106,0.34-0.16C20.98,69.467,21.345,69.597,21.232,69.716z
					 M15.674,72.842c0.172-0.02,0.395-0.025,0.616-0.04c0.031-0.019,0.063-0.038,0.098-0.056c0.051-0.02,0.054-0.058,0.024-0.104
					c0.244-0.082,0.474-0.177,0.707-0.279c-0.496,0.041-0.928,0.082-1.118,0.209c0.127-0.198,0.462-0.332,0.908-0.462
					c0.435-0.131,0.975-0.264,1.38-0.452c0.134-0.131,0.244-0.272,0.319-0.423c0.035-0.108,0.01-0.222-0.027-0.333
					c-0.382,0.302-0.811,0.573-1.269,0.805c-0.472,0.231-0.952,0.425-1.396,0.597c-0.458,0.168-0.897,0.305-1.245,0.447
					c-0.348,0.144-0.664,0.261-0.837,0.436C14.492,73.152,14.988,73.003,15.674,72.842z M15.949,73.074
					c-0.105,0.123-0.165,0.256-0.214,0.392c-0.269,0.323-0.486,0.655,0.065,1.242c-0.054-0.442-0.181-0.893-0.065-1.242
					c-0.244,0.28,0.014,0.115,0.222-0.323C15.933,73.124,15.939,73.101,15.949,73.074z"/>
				<path fill="#F99D41" d="M17.097,71.005c0.417-0.127,0.792-0.279,1.209-0.44c-0.365,0.045-0.709,0.078-1.009,0.13
					c-0.668,0.151-0.749,0.369-1.177,0.518c-1.264,0.407-1.952,0.744-2.336,1.143c-0.048,0.01-0.11,0.045-0.035,0.115
					c0.427-0.186,0.898-0.386,1.401-0.636c0.259-0.122,0.546-0.249,0.875-0.383C16.341,71.313,16.689,71.166,17.097,71.005z"/>
				<path fill="#F99D41" d="M12.803,72.891c0.048,0.108,0.09,0.217,0.031,0.272c0.266,0.062,0.373,0.004,0.432-0.056
					c0.007-0.126,0.016-0.248,0.064-0.351C13.081,72.776,12.878,72.803,12.803,72.891z"/>
				<path fill="#F99D41" d="M13.75,72.471c-0.034,0.015-0.068,0.028-0.104,0.043c-0.173,0.057-0.266,0.139-0.314,0.242
					c0.261-0.021,0.583-0.03,0.837-0.082C13.923,72.587,13.803,72.52,13.75,72.471z"/>
			</g>
		</g>
		<g>
			<g opacity="0.8">
				<path fill="#52A6DC" d="M30.229,20.999c-0.107,0.16-0.081,0.245,0.053,0.273c0.131,0.082-0.371,0.496-0.456,0.733
					c-0.071,0.131-0.068,0.216-0.059,0.3c-0.259,0.327-0.39,0.632-0.293,0.802c-0.034,0.045-0.133,0.179,0.328-0.11
					c-0.205,0.336-0.43,0.734-0.097,0.76c0.091,0.039-0.249,0.354-0.152,0.41c0.239,0.046-0.178,0.441-0.047,0.547
					c0.083-0.018,0.36-0.099,0.337-0.064c-0.193,0.235-0.078,0.296,0.147,0.328c0.223,0.013,0.56,0.079,0.779,0.178
					c0.13,0.096,0.286,0.166,0.297,0.299c0.234-0.044,0.209-0.001,0.293,0.008c0.028,0.091-0.499,0.636-0.804,0.699
					c-0.076,0.02-0.169-0.164-0.281-0.333c-0.027-0.042-0.055-0.084-0.085-0.122c-0.035-0.043-0.075-0.084-0.111-0.116
					c-0.074-0.064-0.147-0.096-0.211-0.072c-0.074,0.03-0.016,0.162,0.029,0.284c0.036,0.115,0.081,0.232,0.047,0.259
					c-0.184-0.076-0.351-0.134-0.503-0.179c-0.164-0.052-0.315-0.087-0.448-0.111c-0.269-0.047-0.467-0.053-0.626-0.047
					c-0.32,0.016-0.444,0.05-0.445,0.069c0.008,0.042,0.486,0.03,1.035,0.131c-0.019,0.076,0.381,0.08,0.434,0.218
					c-0.224-0.055-1.071-0.021-1.129-0.025c-0.417-0.025-0.731,0.11-0.721,0c0.01-0.042-0.194-0.053-0.396-0.024
					c-0.208,0.022-0.418,0.083-0.516,0.081c0.39-0.167,1.261-0.479,1.213-0.355c0.183-0.182-0.097-0.11-0.407,0.001
					c-0.306,0.113-0.663,0.246-0.647,0.14c-0.012-0.012-0.069-0.001-0.151,0.021c0.04-0.045,0.077-0.087,0.123-0.14
					c-0.032-0.142-0.445-0.073-0.394-0.293c0.021,0.004-0.208,0.153-0.231,0.185c-0.339,0.365,0.227,0.177,0.175,0.34
					c-0.051,0.057,0.314-0.115,0.326-0.092c0.046,0.035-0.161,0.203-0.264,0.312c-0.346,0.083-0.322-0.047-0.427-0.099
					c-0.042,0.004-0.288,0.12-0.424,0.177c0.007,0.064,0.007,0.098,0.037,0.133c0.089,0.031,0.422-0.057,0.666-0.089
					c0.222-0.059,0.359-0.051,0.048,0.127c0.019-0.006,0.039-0.013,0.079-0.026c-0.025,0.013-0.041,0.021-0.051,0.027
					c0.019,0.006-0.006,0.036-0.158,0.113l0.03-0.049c-0.413,0.133-0.515,0.155-0.558,0.137c-0.07-0.051-0.083-0.138-0.262-0.124
					c-0.129,0.034,0.239-0.239,0.1-0.22c-0.303,0.021-0.272-0.164-0.038-0.472c0.613-1.028,1.302-2.149,2.487-3.344
					c-0.013-0.005-0.025-0.013-0.033-0.021c-0.047,0.03-0.092,0.06-0.137,0.089c0.039-0.033,0.081-0.068,0.124-0.103
					c-0.039-0.052,0.002-0.145,0.245-0.338c0.158-0.109,0.03,0.034,0.217-0.042c0.026-0.028,0.052-0.057,0.052-0.057
					s0.106-0.052,0.213-0.104c-0.053,0.015,0.074-0.057,0.148-0.103c0.055,0.116,0.149,0.212,0.184,0.341
					c0.277-0.169,0.21-0.175,0.245-0.215c-0.081-0.004-0.163-0.008-0.084-0.094c-0.108-0.066,0.354-0.431,0.455-0.59
					c0.079-0.06,0.165-0.124,0.274-0.197C29.959,21.043,30.31,20.921,30.229,20.999z M26.685,24.968
					c0.113-0.119,0.271-0.264,0.426-0.407c0.013-0.025,0.027-0.05,0.042-0.078c0.027-0.038,0.009-0.05-0.038-0.046
					c0.134-0.171,0.272-0.348,0.407-0.521c-0.368,0.312-0.683,0.6-0.747,0.757c-0.05-0.275,0.845-1.078,1.396-1.647
					c0.066-0.116,0.112-0.22,0.125-0.307c-0.007-0.052-0.061-0.074-0.127-0.091c-0.455,0.582-1.086,1.317-1.599,2.008
					c-0.257,0.342-0.484,0.678-0.651,0.969c-0.172,0.283-0.282,0.524-0.291,0.706C26.037,25.835,26.267,25.48,26.685,24.968z
					 M27.007,24.861c-0.011,0.106,0.012,0.184,0.066,0.245c0.005,0.124,0.021,0.248,0.125,0.304c0.1,0.052,0.293,0.04,0.668-0.092
					c-0.332-0.025-0.651-0.054-0.794-0.211c0.01,0.222,0.06,0.027-0.023-0.229C27.022,24.887,27.014,24.876,27.007,24.861z"/>
				<path fill="#52A6DC" d="M26.953,23.447c0.305-0.277,0.564-0.523,0.883-0.793c-0.306,0.202-0.59,0.39-0.824,0.565
					c-0.515,0.41-0.494,0.549-0.786,0.855c-0.427,0.446-0.714,0.839-0.896,1.169c-0.184,0.325-0.262,0.594-0.263,0.82
					c-0.026,0.04-0.049,0.097,0.044,0.071c0.192-0.384,0.369-0.778,0.645-1.204C26.028,24.49,26.395,24.01,26.953,23.447z"/>
				<path fill="#52A6DC" d="M24.754,26.935c0.1-0.013,0.202-0.023,0.198,0.023c0.212-0.159,0.239-0.235,0.242-0.283
					c-0.056-0.022-0.138-0.081-0.174-0.15C24.87,26.706,24.767,26.877,24.754,26.935z"/>
				<path fill="#52A6DC" d="M25.111,26.133c-0.017,0.029-0.032,0.059-0.049,0.089c-0.078,0.138-0.08,0.231-0.042,0.302
					c0.157-0.193,0.355-0.413,0.5-0.603C25.299,26.057,25.177,26.115,25.111,26.133z"/>
			</g>
		</g>
		<g>
			<g>
				<g opacity="0.8">
					<path fill="#94C93D" d="M109.407,190.492c-1.943-1.377-3.779-2.494-5.732-3.531c-2.984-1.686-5.332-3.807-8.344-5.83
						c-1.478-1.023-2.88-1.918-4.363-2.85c-2.822-2.148-5.988-4.404-9.374-6.551c-0.337-0.275-1.329-1.078-1.519-0.557
						c-1.54-1.211-3.052-2.403-4.581-3.541c-1.516-1.161-3.072-2.227-4.699-3.191c-1.329-0.869-2.418-2.191-3.743-3.061
						c-2.175-1.406-3.9-3.329-5.896-4.875c-0.325-0.154-1.098-0.406-1.306-0.618c-0.298-0.325-0.605-0.63-0.922-0.919
						c-0.314-0.292-0.625-0.582-0.951-0.852c-0.646-0.543-1.322-1.035-2.014-1.502c-1.402-0.908-2.772-1.85-4.119-2.849
						c-0.506-0.417-0.981-0.757-1.411-1.144c-0.429-0.385-0.843-0.777-1.272-1.238c-0.25,0.084-0.435-0.16-0.744-0.361
						c-0.331-0.348-1.351-1.549-2.173-2.854c-0.849-1.276-1.617-2.523-1.654-2.806c-0.011-0.146,1.718,1.819,3.514,3.71
						c1.868,1.819,3.749,3.616,3.803,3.425c-0.099-0.234-4.842-4.882-5.103-5.46c0.576,0.53,1.104,1.052,1.642,1.514
						c0.546,0.45,1.064,0.88,1.558,1.286c0.492,0.404,0.958,0.786,1.399,1.149c0.222,0.18,0.432,0.358,0.646,0.522
						c0.217,0.16,0.428,0.314,0.632,0.465c0.817,0.598,1.536,1.123,2.164,1.581c0.629,0.454,1.156,0.85,1.634,1.146
						c1.881,1.223,2.408,1.509,2.112,1.242c-0.291-0.275-1.439-1.072-2.857-2.125c-0.707-0.532-1.485-1.119-2.275-1.715
						c-0.4-0.297-0.803-0.592-1.2-0.885c-0.385-0.309-0.765-0.612-1.132-0.906c-0.388-0.436-0.943-0.88-1.603-1.418
						c-0.328-0.273-0.692-0.558-1.054-0.896c-0.353-0.347-0.722-0.73-1.098-1.156c1.005,0.936,3.549,2.279,4.018,2.703
						c0.582,0.464,1.012,0.773,1.366,1.018c0.364,0.232,0.659,0.395,0.948,0.58c0.581,0.367,1.16,0.807,2.368,1.965
						c0.485,0.486,1.135,0.978,1.834,1.493c0.7,0.513,1.458,1.043,2.209,1.558c0.739,0.527,1.528,0.979,2.214,1.424
						c0.694,0.437,1.313,0.832,1.797,1.163c-1.197-0.433-4.054-1.454-5.336-2.738c1.318,1.479,2.394,1.935,3.479,2.385
						c0.545,0.224,1.099,0.441,1.71,0.767c0.605,0.333,1.288,0.75,2.086,1.381c0.306,0.225,0.691,0.443,1.121,0.661
						c0.33,0.316,0.641,0.615,1.032,0.989c2.691,2.006,5.315,3.383,7.974,5.345c-0.245-0.146-0.241-0.473-0.46-0.664
						c-2.1-1.968-4.381-2.905-6.759-4.747c-0.418-0.402-1.297-0.557-1.786-0.923c-1-0.729-1.742-1.574-2.55-2.408
						c0.996,0.581,2.055,1.256,3.086,1.999c0.515,0.373,1.035,0.749,1.551,1.123c0.515,0.375,1.044,0.727,1.558,1.071
						c0.442,0.267,1.105,0.403,1.515,0.515c-0.914-0.686-1.849-1.349-2.784-2.019c-0.821-0.575-1.745-1.142-2.7-1.704
						c-0.479-0.279-0.964-0.563-1.446-0.844c-0.472-0.297-0.942-0.591-1.405-0.881c-0.92-0.588-1.8-1.176-2.562-1.764
						c-0.757-0.594-1.365-1.221-1.8-1.822c-0.079-0.04-0.156-0.08-0.314-0.16c-0.014-0.051-0.047-0.103-0.09-0.154
						c-0.434-0.354-0.919-0.818-1.266-1.341l1.14,1.043c0.906,0.491,1.774,1.073,2.643,1.694c0.888,0.6,1.763,1.251,2.635,1.924
						c0.434,0.338,0.87,0.677,1.307,1.018l1.35,0.984c0.902,0.652,1.813,1.291,2.737,1.881c0.864,0.463,1.925,1.76,2.795,2.22
						c0.626,0.356,1.236,0.747,1.852,1.14c0.617,0.393,1.226,0.803,1.823,1.231c1.197,0.855,2.342,1.788,3.466,2.718
						c8.169,6.605,16.64,12.932,24.665,19.561c0.208,0.117,0.418,0.234,0.625,0.351c-0.062-0.102-0.122-0.2-0.182-0.298l0.497,0.479
						c1.139,0.669,2.219,1.396,3.16,2.323c0.352,0.435-0.8-0.475-1.252-0.506c0.232,0.182,0.464,0.361,0.464,0.361
						s-0.107,0.074-0.217,0.147c0.22,0.069,0.258,0.261,0.349,0.418c-2.455-1.474-4.952-2.913-7.434-4.419
						c0.121,0.447,0.889,0.838,1.214,1.088c0.862,0.43,1.723,0.859,2.418,1.401c2.131,1.188,3.995,2.979,5.912,4.332
						c0.32,0.307,0.633,0.62,0.923,0.946C111.224,191.285,110.095,191.031,109.407,190.492z M81.236,167.53
						c0.582,0.571,1.125,1.163,1.701,1.767c0.228,0.172,0.455,0.346,0.683,0.52c0.276,0.223,0.603,0.418,0.958,0.592
						c1.181,0.987,2.362,1.963,3.558,2.934c-1.055-1.199-2.184-2.39-3.732-3.531c4.138,2.729,7.179,5.922,10.725,8.938
						c1.134,0.81,2.295,1.606,3.502,2.391c0.859,0.535,1.731,1.005,2.599,1.462c-4.952-3.729-9.74-7.638-14.53-11.533
						c-4.785-3.908-9.563-7.803-14.529-11.546c1.458,1.416,2.971,2.718,4.48,4.032C78.149,164.886,79.704,166.154,81.236,167.53z
						 M79.815,167.004c-1.329-0.937-2.666-1.824-3.981-2.707c-0.877-0.627-1.775-1.268-2.672-1.887
						c-0.888-0.634-1.767-1.26-2.628-1.827c-1.732-1.124-3.325-2.112-4.678-2.636c0.801,0.516,1.61,1.035,2.425,1.56
						c0.824,0.512,1.655,1.028,2.493,1.549c0.83,0.53,1.667,1.065,2.512,1.604c0.85,0.53,1.699,1.075,2.548,1.637
						c-1.575-1.127-1.803-1.27-1.103-0.761c0.705,0.501,2.313,1.688,4.488,3.115C79.336,166.691,79.551,166.83,79.815,167.004z"/>
					<path fill="#94C93D" d="M99.79,180.051c1.339,1.261,2.732,2.483,4.065,3.75c-0.4-0.662-0.745-1.26-1.288-1.918
						c-1.537-1.658-3.614-2.955-5.362-4.469c-5.012-4.371-10.519-8.396-16.206-12.361c-0.263-0.222-0.869-0.674-1.396-0.905
						C86.519,169.537,93.274,174.4,99.79,180.051z"/>
					<path fill="#94C93D" d="M70.843,157.277c-1.082-0.652-2.126-1.344-3.078-2.078c0.721,0.857,1.862,1.818,2.833,2.529
						c1.409,0.943,2.805,1.9,4.182,2.854C73.527,159.449,72.259,158.316,70.843,157.277z"/>
					<path fill="#94C93D" d="M79.604,164.147c-0.276-0.214-0.553-0.428-0.833-0.645c-1.262-1.015-2.603-1.981-3.989-2.921
						c1.337,1.18,2.623,2.404,3.987,3.571C78.908,163.936,79.234,163.986,79.604,164.147z"/>
				</g>
			</g>
			<g>
				<g opacity="0.8">
					<path fill="#F99D41" d="M102.671,192.168c-1.721-1.512-3.35-2.763-5.097-3.953c-1.344-0.944-2.462-2.029-3.579-3.148
						c-1.119-1.118-2.23-2.275-3.506-3.422c-1.252-1.153-2.427-2.184-3.672-3.264c-2.308-2.414-4.947-4.944-7.812-7.362
						c-0.275-0.299-1.086-1.18-1.35-0.69c-2.562-2.613-5.025-5.166-7.908-7.193c-1.178-0.89-2.062-2.244-3.258-3.108
						c-1.991-1.349-3.484-3.257-5.362-4.669c-0.307-0.139-1.032-0.354-1.224-0.553c-2.239-2.381-5.154-3.48-7.785-5.018
						c-1.014-0.634-1.862-1.023-2.779-1.696c-0.221,0.136-0.425-0.049-0.738-0.163c-0.714-0.479-4.335-3.695-4.535-4.207
						c-0.099-0.255,7.977,5.145,8.001,4.829c-0.093-0.253-5.233-3.559-5.642-3.927c2.557,1.33,4.642,2.416,6.321,3.288
						c1.654,0.928,2.908,1.63,3.827,2.146c1.851,1.017,2.376,1.254,2.079,1.02c-0.297-0.234-1.417-0.939-2.846-1.796
						c-0.715-0.43-1.508-0.896-2.314-1.361c-0.803-0.471-1.665-0.877-2.45-1.277c-0.872-0.658-2.382-1.198-4.136-2.367
						c1.147,0.531,3.743,1.275,4.27,1.582c1.261,0.633,1.857,0.818,2.456,1.082c0.587,0.28,1.184,0.634,2.448,1.608
						c2.064,1.604,6.132,3.699,7.955,5.003c-0.585-0.197-1.551-0.537-2.528-0.969c-0.995-0.411-2.005-0.908-2.658-1.461
						c2.686,2.6,4.037,1.673,7,4.188c0.285,0.221,0.646,0.439,1.052,0.657c0.302,0.313,0.587,0.608,0.946,0.98
						c1.242,1.003,2.45,1.888,3.64,2.783c1.193,0.894,2.373,1.794,3.53,2.854c-0.218-0.159-0.176-0.478-0.364-0.681
						c-0.889-1.046-1.869-1.824-2.892-2.58c-1.024-0.756-2.082-1.495-3.172-2.431c-0.384-0.399-1.234-0.563-1.688-0.926
						c-0.938-0.719-1.594-1.577-2.368-2.38c1.926,1.105,3.91,2.781,5.793,4.219c0.402,0.283,1.03,0.449,1.417,0.58
						c-0.822-0.719-1.658-1.428-2.534-2.107c-3.11-2.309-7.75-4.531-9.58-6.73c-0.079-0.033-0.156-0.066-0.315-0.134
						c-0.016-0.048-0.051-0.097-0.096-0.144c-0.441-0.314-0.937-0.732-1.304-1.223l1.167,0.939c3.677,1.619,6.848,4.803,10.36,7.173
						c0.822,0.478,1.726,1.817,2.526,2.313c2.286,1.542,4.425,3.461,6.309,5.499c6.934,7.198,13.694,14.405,20.365,21.646
						c0.185,0.131,0.37,0.262,0.552,0.393c-0.044-0.104-0.088-0.205-0.132-0.305l0.411,0.508c1.002,0.744,1.933,1.547,2.721,2.525
						c0.283,0.453-0.71-0.523-1.136-0.594c0.199,0.195,0.397,0.393,0.397,0.393s-0.113,0.063-0.227,0.125
						c0.202,0.086,0.215,0.277,0.283,0.438c-2.16-1.652-4.4-3.237-6.499-5.001c0.044,0.449,0.714,0.914,0.984,1.195
						c0.746,0.52,1.516,1.014,2.115,1.598c1.886,1.345,3.45,3.254,5.142,4.736c0.273,0.328,0.538,0.662,0.78,1.008
						C104.326,193.089,103.273,192.763,102.671,192.168z M79.312,166.904c0.476,0.605,0.902,1.236,1.354,1.885
						c0.189,0.193,0.378,0.384,0.568,0.576c0.228,0.248,0.508,0.471,0.819,0.676c0.97,1.078,1.937,2.151,2.907,3.229
						c-0.802-1.279-1.68-2.558-2.979-3.827c1.757,1.546,3.223,3.172,4.603,4.838c1.383,1.662,2.667,3.376,4.103,5.033
						c0.948,0.908,1.926,1.809,2.949,2.699c0.732,0.613,1.486,1.167,2.238,1.706c-8.299-8.27-15.341-17.461-24.304-25.32
						C74.149,161.312,76.776,163.953,79.312,166.904z M78.028,166.262c-1.13-1.035-2.285-2.02-3.45-2.962
						c-1.532-1.344-3.142-2.743-4.685-3.938c-1.54-1.201-3.055-2.15-4.324-2.672c3,2,6.018,4.189,9.009,6.61
						c-2.755-2.411-0.799-0.624,2.932,2.564C77.615,165.914,77.801,166.068,78.028,166.262z"/>
					<path fill="#F99D41" d="M94.915,181.079c1.071,1.364,2.185,2.721,3.271,4.08c-0.295-0.67-0.517-1.304-0.931-2.001
						c-1.192-1.78-2.954-3.258-4.367-4.912c-4.021-4.798-8.545-9.362-13.446-13.775c-0.221-0.242-0.739-0.74-1.212-1.016
						c2.951,2.939,5.808,5.822,8.583,8.705c1.387,1.447,2.751,2.906,4.093,4.398C92.249,178.048,93.601,179.527,94.915,181.079z"/>
					<path fill="#F99D41" d="M70.477,156.119c-1.01-0.686-2.018-1.371-2.911-2.116c0.661,0.866,1.748,1.81,2.638,2.553
						c1.29,0.994,2.558,2.009,3.795,3.032C72.9,158.396,71.77,157.214,70.477,156.119z"/>
					<path fill="#F99D41" d="M78.23,163.455c-0.236-0.234-0.473-0.469-0.713-0.707c-1.1-1.089-2.287-2.135-3.518-3.16
						c1.156,1.261,2.264,2.545,3.429,3.797C77.592,163.184,77.899,163.263,78.23,163.455z"/>
				</g>
			</g>
			<g>
				<g opacity="0.8">
					<path fill="#52A6DC" d="M112.378,157.026c-0.331-0.249-0.663-0.339-1.032-0.316c-0.551-0.044-0.886-0.771-1.408-1.089
						c-0.251-0.188-0.5-0.285-0.767-0.38c-0.464-0.501-1.013-0.903-1.637-1.052c-0.057-0.066-0.223-0.263-0.317,0.273
						c-0.53-0.484-1.057-0.985-1.705-0.844c-0.262,0.004-0.431-0.492-0.694-0.488c-0.445,0.1-0.732-0.531-1.146-0.547
						c-0.071,0.068-0.249,0.322-0.288,0.277c-0.438-0.652-1.119,0.09-1.707,0.328c-0.222,0.051-0.405,0.146-0.595,0.082
						c-0.064,0.229-0.104,0.184-0.176,0.253c-0.149-0.019-0.854-0.772-0.87-1.091c-0.007-0.16,1.677,0.053,1.703-0.221
						c-0.007-0.158-1.086-0.187-1.165-0.276c4.443-1.904,2.418-1.496,1.03-0.763c-0.176-0.084-0.52,0.264-0.885,0.221
						c0.255-0.164,0.858-0.916,0.97-0.94c0.55-0.284,0.544-0.632,1.077-0.481c0.437,0.123,1.342-0.424,1.755-0.51
						c-0.282,0.373-0.928,1.184-1.197,1.029c0.532,0.605,0.942-0.965,1.574-0.704c0.063,0.009,0.144-0.03,0.238-0.095
						c0.062,0.07,0.12,0.136,0.193,0.219c0.533,0.149,1.086-0.133,1.586,0.131c-0.049,0.006-0.022-0.268-0.062-0.312
						c-0.361-0.563-0.869-0.075-1.33-0.296c-0.078-0.09-0.29,0.278-0.388,0.258c-0.205-0.02-0.33-0.313-0.487-0.492
						c0.44-0.259,0.863-0.085,1.278-0.068c0.091-0.02,0.247-0.266,0.341-0.395c-0.18-0.066-0.363-0.117-0.551-0.148
						c-0.68-0.012-1.774,0.996-2.101,0.197c-0.018,0.016-0.036,0.033-0.073,0.068c-0.001-0.029-0.007-0.049-0.016-0.063
						c-0.094-0.006-0.196-0.063-0.261-0.251l0.243,0.101c0.83-0.705,1.494-0.109,2.274-0.281c0.185-0.094,0.355,0.403,0.54,0.311
						c0.521-0.17,0.983,0.051,1.378,0.499c1.482,1.412,2.911,2.944,4.161,4.868c0.04,0,0.08,0.002,0.118,0.006
						c-0.003-0.057-0.007-0.113-0.011-0.169c0.023,0.058,0.046,0.117,0.07,0.177c0.211,0.038,0.398,0.162,0.528,0.504
						c0.038,0.204-0.149-0.023-0.261,0.158c0.037,0.046,0.074,0.092,0.074,0.092s-0.037,0.113-0.074,0.226
						c0.048-0.043,0.034,0.103,0.038,0.192c-0.449-0.107-0.911-0.172-1.36-0.305c-0.022,0.326,0.125,0.303,0.178,0.365
						c0.167-0.034,0.334-0.068,0.445,0.068c0.398,0.023,0.657,0.678,0.984,0.919c0.044,0.109,0.086,0.228,0.12,0.37
						C112.749,156.846,112.487,157.162,112.378,157.026z M107.83,150.82c0.095,0.184,0.175,0.419,0.261,0.649
						c0.041,0.034,0.081,0.068,0.121,0.106c0.048,0.055,0.11,0.06,0.182,0.033c0.197,0.254,0.397,0.514,0.595,0.77
						c-0.14-0.52-0.304-0.986-0.582-1.189c0.774,0.281,1.199,1.582,1.75,2.488c0.194,0.162,0.394,0.301,0.608,0.408
						c0.154,0.056,0.319,0.053,0.486,0.039c-0.815-0.882-1.58-1.993-2.393-2.994c-0.813-1.008-1.669-1.877-2.635-2.277
						C106.754,149.572,107.304,150.066,107.83,150.82z M107.523,151.091c-0.247-0.116-0.5-0.189-0.757-0.228
						c-0.667-0.258-1.406-0.498-2.011,0.178c0.665-0.148,1.35-0.273,2.011-0.178c-0.6-0.23-0.18,0.002,0.641,0.232
						C107.433,151.071,107.473,151.078,107.523,151.091z"/>
					<path fill="#52A6DC" d="M111.184,152.613c0.193,0.455,0.403,0.852,0.591,1.315c-0.022-0.38-0.04-0.729-0.1-1.04
						c-0.196-0.705-0.575-0.845-0.848-1.324c-0.781-1.393-1.761-2.221-2.845-2.709c-0.046-0.053-0.159-0.127-0.27-0.055
						C108.986,149.824,110.182,150.818,111.184,152.613z"/>
					<path fill="#52A6DC" d="M106.051,147.729c-0.225,0.049-0.449,0.098-0.64,0.033c0.125,0.295,0.356,0.404,0.547,0.469
						c0.284,0.018,0.568,0.037,0.84,0.097C106.571,148.054,106.331,147.823,106.051,147.729z"/>
					<path fill="#52A6DC" d="M107.713,148.801c-0.051-0.039-0.101-0.079-0.152-0.121c-0.234-0.188-0.492-0.291-0.763-0.353
						c0.239,0.289,0.465,0.624,0.708,0.901C107.559,148.974,107.636,148.852,107.713,148.801z"/>
				</g>
			</g>
			<g>
				<g opacity="0.8">
					<path fill="#FFF274" d="M85.625,185.247c-0.116-0.19-0.249-0.349-0.398-0.478c-0.161-0.117-0.338-0.204-0.53-0.268
						c-0.548-0.255-0.737-1.08-1.295-1.557c-0.25-0.275-0.551-0.416-0.852-0.587c-0.246-0.317-0.553-0.579-0.878-0.827
						c-0.333-0.234-0.709-0.412-1.105-0.535c-0.074-0.072-0.293-0.287-0.406,0.246c-0.343-0.27-0.687-0.552-1.062-0.736
						c-0.368-0.194-0.76-0.302-1.18-0.23c-0.338-0.004-0.619-0.507-0.969-0.492c-0.571,0.101-1.055-0.51-1.614-0.5
						c-0.083,0.072-0.273,0.341-0.334,0.301c-0.712-0.615-1.482,0.205-2.197,0.523c-0.284,0.086-0.503,0.208-0.769,0.175
						c-0.03,0.236-0.093,0.198-0.17,0.278c-0.197-0.002-1.322-0.602-1.43-0.914c-0.026-0.078,0.536-0.143,1.104-0.223
						c0.565-0.072,1.136-0.154,1.122-0.291c-0.047-0.16-1.507-0.01-1.637-0.076c1.37-0.677,2.269-1.09,2.792-1.358
						c0.524-0.272,0.672-0.376,0.58-0.396c-0.185-0.033-1.313,0.346-2.167,0.825c-0.262-0.057-0.644,0.343-1.15,0.37
						c0.3-0.212,0.937-1.055,1.087-1.094c0.691-0.367,0.602-0.717,1.384-0.633c0.636,0.061,1.8-0.568,2.384-0.671
						c-0.339,0.382-1.082,1.252-1.489,1.123c0.864,0.552,1.128-1.05,2.09-0.815c0.091,0.006,0.202-0.037,0.325-0.103
						c0.101,0.069,0.196,0.138,0.315,0.22c0.786,0.143,1.551-0.119,2.31,0.191c-0.07,0.001-0.061-0.276-0.123-0.327
						c-0.599-0.593-1.284-0.134-1.984-0.345c-0.129-0.092-0.374,0.281-0.519,0.261c-0.298-0.017-0.53-0.3-0.794-0.475
						c0.59-0.288,1.242-0.112,1.854-0.093c0.13-0.021,0.323-0.266,0.445-0.393c-0.278-0.08-0.558-0.123-0.844-0.157
						c-1.028-0.026-2.396,1.069-3.036,0.304c-0.022,0.019-0.044,0.037-0.089,0.076c-0.009-0.029-0.022-0.048-0.037-0.061
						c-0.138,0.001-0.296-0.041-0.435-0.22l0.373,0.069c1.048-0.781,2.155-0.237,3.283-0.4c0.262-0.094,0.595,0.405,0.856,0.324
						c0.377-0.07,0.75-0.048,1.107,0.063c0.358,0.117,0.7,0.313,1.015,0.564c1.166,0.813,2.258,1.721,3.202,2.747
						c0.94,1.036,1.721,2.202,2.242,3.456c0.048,0.02,0.095,0.042,0.139,0.066c0.011-0.059,0.021-0.117,0.031-0.174
						c0.013,0.068,0.026,0.141,0.038,0.211c0.239,0.15,0.445,0.354,0.478,0.77c-0.024,0.224-0.158-0.111-0.346,0.014
						c0.031,0.061,0.058,0.127,0.058,0.127s-0.076,0.09-0.153,0.18c0.066-0.016,0.005,0.119-0.021,0.209
						c-0.471-0.326-0.972-0.607-1.475-0.908c-0.097,0.316,0.078,0.35,0.123,0.433c0.203,0.028,0.405,0.063,0.489,0.254
						c0.218,0.103,0.354,0.343,0.464,0.6c0.098,0.271,0.17,0.558,0.295,0.751c0.006,0.125,0.004,0.256-0.017,0.402
						c-0.01,0.115-0.133,0.193-0.239,0.242C85.761,185.334,85.652,185.336,85.625,185.247z M80.864,177.615
						c0.146,0.2,0.271,0.449,0.399,0.695c0.058,0.037,0.115,0.082,0.171,0.129c0.066,0.064,0.153,0.081,0.253,0.067
						c0.282,0.302,0.558,0.587,0.817,0.905c-0.171-0.574-0.41-1.065-0.807-1.334c0.275,0.109,0.52,0.281,0.74,0.489
						c0.219,0.217,0.41,0.48,0.586,0.755c0.358,0.54,0.623,1.202,0.928,1.731c0.222,0.235,0.451,0.448,0.701,0.629
						c0.188,0.106,0.379,0.187,0.587,0.239c-0.806-1.227-1.74-2.612-2.901-3.813c-1.154-1.199-2.524-2.207-4.024-2.647
						C79.207,176.215,80.072,176.766,80.864,177.615z M80.444,177.852c-0.355-0.159-0.724-0.245-1.092-0.313
						c-0.485-0.166-1.003-0.292-1.491-0.318c-0.489-0.006-0.95,0.107-1.315,0.453c0.901-0.164,1.857-0.288,2.806-0.135
						c-0.876-0.281-0.251-0.022,0.927,0.3C80.314,177.817,80.373,177.83,80.444,177.852z"/>
					<path fill="#FFF274" d="M85.435,180.364c0.181,0.551,0.368,1.051,0.493,1.593c0.063-0.389,0.115-0.743,0.099-1.085
						c-0.058-0.399-0.209-0.69-0.389-0.944c-0.183-0.248-0.385-0.473-0.547-0.777c-0.94-1.743-2.47-2.887-4.133-3.521
						c-0.075-0.065-0.252-0.159-0.414-0.098c1.005,0.605,1.952,1.232,2.792,2.016C84.18,178.307,84.909,179.252,85.435,180.364z"/>
					<path fill="#FFF274" d="M77.876,174.316c-0.333,0.05-0.662,0.098-0.962,0.033c0.245,0.295,0.609,0.41,0.907,0.476
						c0.428,0.013,0.861,0.057,1.281,0.132C78.721,174.668,78.315,174.409,77.876,174.316z"/>
					<path fill="#FFF274" d="M80.544,175.531c-0.081-0.046-0.161-0.092-0.243-0.141c-0.373-0.219-0.782-0.362-1.2-0.434
						c0.403,0.301,0.783,0.68,1.172,0.987C80.329,175.69,80.431,175.574,80.544,175.531z"/>
				</g>
			</g>
			<g>
				<g opacity="0.8">
					<path fill="#FFF274" d="M58.203,141.264c-0.082-0.172-0.155-0.186-0.231-0.082c-0.117,0.078-0.223-0.557-0.347-0.752
						c-0.061-0.127-0.118-0.168-0.177-0.201c-0.121-0.387-0.252-0.658-0.389-0.664c-0.015-0.053-0.058-0.207-0.054,0.338
						c-0.132-0.352-0.26-0.752-0.388-0.479c-0.054,0.058-0.11-0.396-0.163-0.339c-0.087,0.186-0.173-0.377-0.259-0.309
						c-0.012,0.082-0.038,0.365-0.048,0.33c-0.118-0.553-0.227,0.311-0.337,0.662c-0.044,0.094-0.078,0.223-0.12,0.197
						c-0.003,0.236-0.014,0.201-0.025,0.284c-0.032,0.011-0.209-0.587-0.225-0.896c-0.008-0.154,0.348-0.282,0.341-0.556
						c-0.008-0.154-0.23,0.033-0.25-0.039c0.833-2.75,0.434-1.947,0.18-0.953c-0.04-0.047-0.096,0.364-0.173,0.393
						c0.046-0.211,0.139-1.067,0.161-1.113c0.101-0.389,0.085-0.729,0.201-0.687c0.095,0.032,0.257-0.683,0.338-0.849
						c-0.042,0.42-0.14,1.344-0.203,1.246c0.135,0.486,0.153-1.135,0.293-1.004c0.013-0.004,0.028-0.059,0.045-0.141
						c0.015,0.057,0.03,0.109,0.048,0.177c0.116,0.04,0.217-0.347,0.33-0.188c-0.009,0.017-0.016-0.258-0.025-0.294
						c-0.098-0.479-0.181,0.1-0.285-0.023c-0.02-0.073-0.047,0.33-0.068,0.328c-0.043,0.023-0.081-0.24-0.121-0.385
						c0.08-0.341,0.173-0.254,0.259-0.321c0.017-0.038,0.039-0.31,0.053-0.455c-0.039-0.028-0.079-0.042-0.119-0.034
						c-0.139,0.123-0.321,1.33-0.421,0.611c-0.003,0.02-0.006,0.041-0.012,0.081c-0.002-0.028-0.004-0.046-0.006-0.058
						c-0.02,0.014-0.043-0.022-0.064-0.195l0.054,0.052c0.141-0.856,0.301-0.405,0.454-0.729c0.034-0.13,0.089,0.323,0.123,0.195
						c0.099-0.269,0.203-0.146,0.303,0.215c0.36,1.06,0.718,2.231,1.069,3.835c0.009-0.01,0.017-0.018,0.024-0.02
						c-0.003-0.056-0.006-0.109-0.01-0.164c0.007,0.051,0.016,0.104,0.023,0.158c0.045-0.01,0.09,0.069,0.134,0.374
						c0.018,0.19-0.032,0.011-0.045,0.212c0.01,0.036,0.02,0.073,0.02,0.073s-0.002,0.118-0.004,0.237
						c0.008-0.055,0.013,0.091,0.018,0.178c-0.099-0.005-0.197,0.033-0.296,0.004c0.011,0.322,0.041,0.268,0.054,0.316
						c0.033-0.07,0.066-0.14,0.096-0.031c0.083-0.064,0.169,0.516,0.25,0.678c0.013,0.098,0.026,0.205,0.043,0.335
						C58.271,141.004,58.233,141.371,58.203,141.264z M56.973,136.213c0.027,0.159,0.054,0.37,0.082,0.576
						c0.009,0.023,0.019,0.049,0.029,0.078c0.012,0.043,0.024,0.033,0.039-0.009c0.05,0.202,0.104,0.414,0.156,0.619
						c-0.052-0.476-0.106-0.896-0.172-1.032c0.169,0.104,0.315,1.279,0.472,2.041c0.047,0.115,0.095,0.207,0.145,0.264
						c0.035,0.02,0.068-0.019,0.102-0.069c-0.421-1.359-0.834-3.66-1.264-4.068C56.7,135.208,56.833,135.59,56.973,136.213z
						 M56.922,136.545c-0.056-0.064-0.111-0.085-0.165-0.071c-0.147-0.12-0.309-0.208-0.404,0.575
						c0.13-0.279,0.265-0.537,0.404-0.575c-0.132-0.107-0.037,0.036,0.141,0.1C56.903,136.543,56.911,136.543,56.922,136.545z"/>
					<path fill="#FFF274" d="M57.738,137.221c0.064,0.402,0.119,0.744,0.185,1.153c-0.023-0.365-0.043-0.703-0.071-0.993
						c-0.074-0.645-0.158-0.696-0.236-1.104c-0.223-1.186-0.457-1.777-0.695-2.014c-0.012-0.044-0.038-0.094-0.058,0
						C57.164,134.992,57.448,135.689,57.738,137.221z"/>
					<path fill="#FFF274" d="M56.478,133.543c-0.044,0.093-0.087,0.186-0.129,0.16c0.038,0.264,0.089,0.324,0.131,0.351
						c0.059-0.038,0.118-0.077,0.176-0.071C56.598,133.758,56.539,133.581,56.478,133.543z"/>
					<path fill="#FFF274" d="M56.862,134.264c-0.012-0.029-0.023-0.058-0.036-0.088c-0.056-0.139-0.113-0.189-0.171-0.193
						c0.058,0.235,0.128,0.516,0.183,0.74C56.839,134.463,56.849,134.329,56.862,134.264z"/>
				</g>
			</g>
			<g>
				<g opacity="0.8">
					<path fill="#E34673" d="M52.513,166.354c0.162-0.164,0.171-0.315,0.063-0.461c-0.074-0.22,0.512-0.501,0.68-0.801
						c0.108-0.151,0.146-0.282,0.148-0.423c0.327-0.33,0.55-0.698,0.479-1.023c0.042-0.046,0.168-0.184-0.359-0.052
						c0.266-0.382,0.584-0.806,0.223-1.033c-0.092-0.109,0.301-0.377,0.207-0.491c-0.236-0.152,0.212-0.534,0.077-0.724
						c-0.088-0.001-0.376,0.036-0.352-0.001c0.423-0.481-0.504-0.424-0.922-0.529c-0.126-0.063-0.274-0.084-0.294-0.183
						c-0.221,0.089-0.197,0.054-0.285,0.063c-0.039-0.057,0.325-0.688,0.583-0.869c0.125-0.088,0.624,0.653,0.861,0.542
						c0.142-0.088-0.278-0.522-0.232-0.6c0.854,0.182,1.418,0.35,1.773,0.432c0.355,0.086,0.496,0.096,0.489,0.055
						c-0.014-0.078-0.606-0.348-1.197-0.458c-0.002-0.116-0.44-0.084-0.553-0.253c0.24,0.014,1.127-0.113,1.198-0.072
						c0.473,0.103,0.763-0.066,0.855,0.26c0.079,0.261,0.916,0.455,1.153,0.638c-0.442,0.017-1.4,0.069-1.372-0.126
						c-0.322,0.527,1.212,0.018,1.234,0.465c0.017,0.035,0.084,0.061,0.179,0.081c-0.04,0.063-0.076,0.122-0.122,0.195
						c0.06,0.341,0.52,0.525,0.466,0.899c-0.024-0.023,0.234-0.115,0.26-0.153c0.375-0.421-0.255-0.507-0.229-0.845
						c0.051-0.081-0.355-0.037-0.376-0.097c-0.065-0.114,0.146-0.307,0.24-0.472c0.406,0.117,0.422,0.424,0.558,0.661
						c0.052,0.042,0.331,0.026,0.483,0.026c-0.009-0.129-0.033-0.254-0.077-0.375c-0.26-0.399-1.581-0.506-1.02-1.047
						c-0.022-0.001-0.045-0.002-0.09-0.005c0.024-0.015,0.039-0.026,0.047-0.038c-0.036-0.051-0.029-0.131,0.104-0.256l0.017,0.174
						c0.962,0.104,0.712,0.752,1.171,1.111c0.155,0.066-0.226,0.375-0.072,0.439c0.351,0.227,0.332,0.59,0.052,0.99
						c-0.732,1.363-1.744,2.666-3.276,3.668c0.01,0.021,0.018,0.041,0.022,0.063c0.055-0.012,0.109-0.025,0.162-0.037
						c-0.049,0.022-0.102,0.045-0.155,0.068c0.014,0.115-0.061,0.233-0.361,0.352c-0.189,0.051-0.014-0.078-0.216-0.105
						c-0.036,0.025-0.071,0.052-0.071,0.052s-0.118-0.001-0.237-0.001c0.054,0.016-0.09,0.031-0.177,0.047
						c-0.01-0.23-0.037-0.454-0.041-0.692c-0.319,0.056-0.255,0.118-0.301,0.155c0.077,0.068,0.146,0.139,0.041,0.215
						c0.071,0.189-0.5,0.406-0.655,0.574c-0.096,0.033-0.2,0.064-0.33,0.094C52.778,166.494,52.408,166.409,52.513,166.354z
						 M57.093,162.667c-0.135,0.114-0.322,0.237-0.504,0.36c-0.017,0.032-0.035,0.064-0.056,0.098
						c-0.034,0.043-0.016,0.076,0.034,0.105c-0.171,0.189-0.353,0.373-0.529,0.553c0.441-0.229,0.828-0.467,0.922-0.684
						c-0.012,0.518-1.077,1.139-1.79,1.633c-0.101,0.136-0.178,0.268-0.219,0.396c-0.011,0.088,0.037,0.17,0.098,0.249
						c0.308-0.294,0.673-0.614,1.049-0.959c0.363-0.344,0.728-0.71,1.064-1.094c0.655-0.759,1.159-1.585,1.147-2.298
						c-0.223,0.299-0.395,0.568-0.578,0.836C57.543,162.132,57.348,162.395,57.093,162.667z M56.736,162.6
						c0.025-0.172,0.007-0.334-0.044-0.482c-0.008-0.44-0.056-0.938-0.889-0.941c0.381,0.258,0.735,0.563,0.889,0.941
						c-0.011-0.398-0.053-0.096,0.001,0.424C56.724,162.545,56.731,162.568,56.736,162.6z"/>
					<path fill="#E34673" d="M56.475,165.01c-0.384,0.211-0.693,0.408-1.102,0.594c0.361-0.085,0.701-0.166,0.979-0.266
						c0.619-0.26,0.643-0.508,1.021-0.787c0.559-0.408,0.928-0.828,1.183-1.252c0.261-0.427,0.376-0.846,0.396-1.249
						c0.033-0.048,0.061-0.143-0.044-0.181c-0.234,0.563-0.474,1.094-0.852,1.621c-0.187,0.262-0.392,0.517-0.653,0.771
						C57.137,164.518,56.833,164.768,56.475,165.01z"/>
					<path fill="#E34673" d="M59.252,160.453c-0.131-0.111-0.262-0.221-0.285-0.357c-0.206,0.201-0.215,0.381-0.2,0.52
						c0.092,0.172,0.185,0.344,0.234,0.527C59.161,160.899,59.275,160.659,59.252,160.453z"/>
					<path fill="#E34673" d="M58.906,161.869c0.019-0.046,0.038-0.09,0.057-0.138c0.094-0.214,0.089-0.406,0.039-0.589
						c-0.167,0.256-0.387,0.52-0.559,0.766C58.694,161.842,58.832,161.841,58.906,161.869z"/>
				</g>
			</g>
		</g>
		<g>
			<g>
				<g opacity="0.8">
					<path fill="#52A6DC" d="M122.485,63.084c-1.217,0.935-2.349,1.848-3.438,2.769c-1.104,0.898-2.174,1.785-3.235,2.718
						c-1.665,1.429-3.397,2.584-5.164,3.735c-0.885,0.572-1.777,1.148-2.688,1.736c-0.914,0.579-1.843,1.179-2.786,1.826
						c-1.885,1.266-3.595,2.464-5.392,3.735c-3.801,2.31-7.907,4.916-11.969,7.843c-0.469,0.272-1.843,1.076-1.401,1.429
						c-4.13,2.563-8.171,5.02-11.733,8.07c-0.763,0.619-1.62,1.15-2.478,1.681c-0.859,0.53-1.718,1.062-2.464,1.703
						c-1.191,1.069-2.488,1.982-3.79,2.879c-1.29,0.912-2.558,1.837-3.737,2.864c-0.28,0.343-0.813,1.161-1.115,1.366
						c-1.8,1.203-3.28,2.656-4.672,4.149c-1.364,1.522-2.574,3.147-3.908,4.661c-0.547,0.575-0.981,1.13-1.43,1.657
						c-0.448,0.528-0.9,1.04-1.43,1.577c0.078,0.263-0.198,0.499-0.433,0.865c-0.196,0.209-0.645,0.628-1.218,1.142
						c-0.555,0.53-1.222,1.168-1.877,1.794c-1.323,1.242-2.638,2.414-2.949,2.537c-0.156,0.061,1.852-2.361,3.857-4.81
						c2.114-2.354,4.243-4.719,4.067-4.737c-0.157,0.053-1.605,1.583-3.083,3.158c-0.37,0.394-0.741,0.79-1.095,1.168
						c-0.343,0.386-0.654,0.764-0.938,1.092c-0.564,0.66-0.987,1.146-1.12,1.271c0.557-0.774,1.088-1.514,1.594-2.22
						c0.517-0.697,1.045-1.331,1.528-1.951c0.978-1.236,1.853-2.344,2.633-3.33c1.637-1.923,2.877-3.379,3.786-4.446
						c1.854-2.107,2.351-2.683,1.96-2.356c-0.375,0.338-1.65,1.555-3.109,3.238c-0.732,0.836-1.541,1.756-2.361,2.689l-0.606,0.707
						c-0.193,0.246-0.384,0.488-0.575,0.73c-0.378,0.487-0.75,0.966-1.111,1.43c-1.034,1.026-2.202,2.763-3.982,4.936
						c0.474-0.693,1.078-1.854,1.695-2.867c0.621-1.008,1.188-1.93,1.45-2.236c1.15-1.48,1.557-2.192,2.073-2.888
						c0.526-0.685,1.14-1.379,2.694-2.845c0.318-0.301,0.657-0.639,1.011-1.002c0.35-0.365,0.72-0.752,1.114-1.139
						c0.778-0.783,1.592-1.634,2.392-2.48c1.581-1.715,3.189-3.304,4.279-4.338c-0.462,0.663-1.24,1.754-2.125,2.853
						c-0.871,1.116-1.825,2.265-2.711,2.985c2.013-1.473,2.865-2.632,3.765-3.791c0.891-1.168,1.763-2.416,3.814-4.011
						c0.375-0.304,0.779-0.696,1.201-1.138c0.486-0.315,0.946-0.614,1.523-0.988c1.673-1.329,3.214-2.604,4.754-3.871
						c0.77-0.634,1.539-1.266,2.333-1.885c0.8-0.61,1.622-1.213,2.487-1.805c-0.28,0.228-0.626,0.145-0.943,0.334
						c-1.599,0.876-2.917,1.914-4.224,3.005c-1.305,1.095-2.622,2.21-4.15,3.372c-0.622,0.401-1.17,1.354-1.779,1.837
						c-0.611,0.502-1.231,0.92-1.855,1.314c-0.614,0.409-1.231,0.794-1.844,1.215c0.51-0.538,1.06-1.082,1.642-1.617
						c0.591-0.522,1.208-1.045,1.837-1.565c1.262-1.034,2.551-2.086,3.791-3.073c0.499-0.429,0.963-1.126,1.281-1.552
						c-1.179,0.868-2.361,1.74-3.509,2.68c-0.992,0.83-2.019,1.775-3.053,2.751c-1.038,0.971-2.04,2.035-3.045,3.013
						c-0.499,0.494-0.995,0.977-1.482,1.434c-0.491,0.457-0.966,0.898-1.42,1.32c-0.915,0.836-1.791,1.539-2.607,2.029
						c-0.069,0.09-0.137,0.176-0.276,0.357c-0.062,0.015-0.13,0.053-0.202,0.103c-0.528,0.499-1.214,1.032-1.89,1.464
						c0,0,0.093-0.086,0.231-0.213c0.139-0.127,0.323-0.298,0.517-0.457c0.382-0.325,0.765-0.65,0.765-0.65
						c1.661-2.056,3.673-4.035,5.862-5.869c1.088-0.926,2.177-1.879,3.293-2.784c1.113-0.909,2.214-1.829,3.271-2.774
						c0.894-0.898,2.828-1.788,3.742-2.652c2.752-2.47,5.92-4.639,9.099-6.532c11.359-6.99,22.792-13.492,33.913-20.358
						c0.23-0.196,0.461-0.392,0.689-0.586c-0.138,0.041-0.271,0.079-0.404,0.118c0.253-0.137,0.506-0.275,0.757-0.413
						c1.281-1.069,2.627-2.008,4.044-2.854c0.626-0.292-0.881,0.785-1.151,1.259c0.313-0.202,0.613-0.419,0.613-0.419
						s0.023,0.136,0.046,0.273c0.182-0.227,0.402-0.225,0.61-0.29c-0.684,0.602-1.397,1.166-2.102,1.745
						c-0.706,0.577-1.412,1.155-2.119,1.734c-1.405,1.172-2.859,2.28-4.316,3.396c0.53-0.001,1.354-0.713,1.792-0.991
						c0.923-0.792,1.824-1.613,2.753-2.233c1.179-1.003,2.486-1.89,3.793-2.764c1.288-0.901,2.587-1.774,3.779-2.692
						c0.485-0.289,0.973-0.569,1.466-0.821C124.219,61.242,123.411,62.435,122.485,63.084z M83.25,86.615
						c0.908-0.465,1.822-0.87,2.77-1.296c0.307-0.189,0.611-0.377,0.917-0.567c0.386-0.225,0.768-0.512,1.145-0.834
						c1.675-0.955,3.344-1.905,5.019-2.859c-1.832,0.737-3.694,1.564-5.736,2.867c5.128-3.568,10.15-5.737,15.243-8.561
						c1.466-0.954,2.938-1.943,4.419-2.984c1.026-0.759,1.985-1.562,2.93-2.356c-13.097,8.478-26.978,14.993-39.888,24.393
						c1.113-0.664,2.208-1.331,3.294-1.999c1.093-0.654,2.181-1.306,3.269-1.958C78.8,89.147,80.99,87.874,83.25,86.615z
						 M81.935,87.981c-1.697,1.146-3.341,2.332-4.936,3.539c-4.457,3.124-9.212,6.733-11.46,9.554
						c1.792-1.596,3.6-3.252,5.524-4.827c0.956-0.796,1.924-1.594,2.909-2.389c0.987-0.791,2.002-1.561,3.027-2.337
						c-3.986,2.835-1.078,0.821,4.248-3.003C81.351,88.405,81.612,88.214,81.935,87.981z"/>
					<path fill="#52A6DC" d="M106.542,70.826c2.02-1.068,4.052-2.188,6.075-3.275c-0.89,0.265-1.709,0.446-2.681,0.842
						c-1.274,0.582-2.524,1.332-3.768,2.115c-1.256,0.769-2.514,1.563-3.778,2.257c-7.28,3.962-14.598,8.419-21.868,13.423
						c-0.376,0.221-1.183,0.745-1.712,1.245C88.227,81.45,97.138,76.062,106.542,70.826z"/>
					<path fill="#52A6DC" d="M66.981,95.441c-1.219,1.09-2.433,2.178-3.667,3.129c1.272-0.678,2.818-1.832,4.049-2.78
						c1.7-1.366,3.415-2.714,5.127-4.021C70.647,92.903,68.797,94.079,66.981,95.441z"/>
					<path fill="#52A6DC" d="M78.81,87.433c-0.375,0.24-0.75,0.479-1.13,0.721c-1.737,1.12-3.471,2.334-5.19,3.617
						c1.956-1.173,3.926-2.271,5.878-3.447C78.211,88.117,78.44,87.783,78.81,87.433z"/>
				</g>
			</g>
			<g>
				<g opacity="0.8">
					<path fill="#FFF274" d="M102.994,77.4c-0.761,0.886-1.445,1.756-2.108,2.608c-0.684,0.833-1.326,1.668-1.956,2.535
						c-0.252,0.33-0.51,0.649-0.772,0.959c-0.269,0.304-0.549,0.592-0.829,0.877c-0.562,0.57-1.139,1.117-1.725,1.66
						c-0.293,0.271-0.588,0.542-0.885,0.816c-0.304,0.265-0.609,0.533-0.918,0.802c-0.617,0.54-1.239,1.099-1.861,1.697
						c-0.311,0.295-0.615,0.584-0.917,0.869c-0.303,0.283-0.602,0.562-0.9,0.84c-0.593,0.559-1.174,1.123-1.769,1.702
						c-2.628,2.1-5.472,4.408-8.282,6.924c-0.168,0.117-0.498,0.348-0.73,0.589c-0.238,0.236-0.378,0.486-0.156,0.654
						c-1.507,1.06-2.976,2.117-4.423,3.17c-1.457,1.043-2.822,2.167-4.132,3.36c-1.138,0.956-2.626,1.562-3.771,2.507
						c-1.829,1.588-4.049,2.573-5.949,3.967c-0.22,0.256-0.637,0.898-0.882,1.027c-2.983,1.4-5.002,3.773-7.449,5.705
						c-0.971,0.738-1.718,1.322-2.736,1.891c0.03,0.258-0.229,0.369-0.474,0.607c-0.735,0.505-5.368,2.338-5.899,2.275
						c-0.137-0.02,1.962-1.225,4.028-2.482c2.04-1.299,4.07-2.613,3.914-2.702c-0.255,0.007-5.475,3.302-6.025,3.46
						c4.718-3.396,7.461-5.776,9.054-7.142c1.564-1.403,1.953-1.814,1.637-1.614c-0.321,0.194-1.33,1.029-2.624,2.061
						c-0.649,0.512-1.364,1.082-2.084,1.668c-0.36,0.295-0.721,0.592-1.079,0.885c-0.362,0.287-0.719,0.568-1.064,0.842
						c-0.482,0.255-1.003,0.668-1.632,1.156c-0.315,0.24-0.653,0.508-1.033,0.771c-0.383,0.258-0.802,0.521-1.263,0.783
						c1.023-0.768,2.776-2.82,3.265-3.16c0.546-0.435,0.92-0.764,1.219-1.039c0.29-0.286,0.513-0.506,0.743-0.733
						c0.467-0.446,1.002-0.87,2.343-1.691c1.105-0.665,2.452-1.811,3.761-2.909c1.305-1.108,2.511-2.268,3.363-2.962
						c-0.686,0.995-2.333,3.322-3.811,4.159c1.672-0.809,2.36-1.655,3.036-2.535c0.338-0.439,0.673-0.891,1.123-1.361
						c0.451-0.469,1.013-0.964,1.792-1.512c0.282-0.216,0.581-0.506,0.888-0.837c0.374-0.208,0.728-0.405,1.171-0.651
						c1.282-0.906,2.367-1.912,3.483-2.863c1.119-0.948,2.205-1.922,3.446-2.841c-0.195,0.181-0.498,0.077-0.729,0.22
						c-0.589,0.328-1.115,0.691-1.61,1.08c-0.502,0.377-0.976,0.774-1.445,1.188c-0.943,0.816-1.856,1.707-3.021,2.496
						c-0.475,0.262-0.835,1.033-1.294,1.372c-0.921,0.705-1.888,1.128-2.861,1.624c0.786-0.748,1.671-1.52,2.614-2.248
						c0.937-0.737,1.922-1.444,2.806-2.195c0.355-0.326,0.646-0.897,0.849-1.242c-0.861,0.631-1.701,1.297-2.562,1.942
						c-1.477,1.159-2.993,2.759-4.543,4.101c-0.768,0.682-1.526,1.324-2.255,1.857c-0.737,0.521-1.454,0.92-2.117,1.15
						c-0.056,0.062-0.111,0.124-0.223,0.248c-0.05-0.002-0.106,0.014-0.164,0.04c-0.431,0.304-0.975,0.624-1.543,0.798l1.237-0.766
						c0.669-0.705,1.41-1.36,2.196-1.984c0.772-0.647,1.588-1.267,2.424-1.878c1.683-1.201,3.372-2.473,4.929-3.817
						c0.652-0.643,2.108-1.23,2.752-1.89c0.486-0.466,0.993-0.917,1.517-1.353c0.517-0.444,1.044-0.881,1.587-1.299
						c1.079-0.847,2.239-1.598,3.366-2.353l3.026-2.082c1.005-0.7,1.988-1.427,2.987-2.137l1.496-1.07l1.467-1.103
						c0.976-0.738,1.974-1.456,2.941-2.206c3.892-2.98,7.683-6.078,11.416-9.288c0.137-0.181,0.274-0.361,0.409-0.539
						c-0.104,0.042-0.207,0.082-0.308,0.123l0.519-0.395c0.387-0.49,0.788-0.961,1.218-1.406c0.428-0.445,0.894-0.855,1.37-1.263
						c0.447-0.288-0.509,0.725-0.605,1.135c0.204-0.194,0.405-0.388,0.405-0.388s0.061,0.113,0.122,0.227
						c0.094-0.197,0.278-0.215,0.439-0.283c-0.837,1.083-1.704,2.144-2.557,3.224c-0.421,0.544-0.87,1.064-1.323,1.582
						c-0.453,0.517-0.907,1.035-1.361,1.553c0.449-0.024,0.944-0.681,1.236-0.941c0.545-0.74,1.098-1.464,1.696-2.058
						c0.705-0.929,1.547-1.773,2.409-2.596c0.839-0.844,1.676-1.69,2.418-2.555c0.328-0.282,0.662-0.557,1.01-0.81
						C103.908,75.708,103.593,76.774,102.994,77.4z M76.055,98.765c0.667-0.37,1.361-0.678,2.052-1.039
						c0.214-0.16,0.427-0.319,0.642-0.479c0.273-0.19,0.53-0.435,0.773-0.714c0.597-0.403,1.193-0.807,1.789-1.209
						c0.596-0.404,1.173-0.83,1.762-1.247c-0.683,0.319-1.351,0.669-2.046,1.056c-0.695,0.387-1.395,0.834-2.104,1.386
						c3.513-3.006,7.133-4.969,10.708-7.532c0.973-0.878,1.941-1.789,2.904-2.746c0.675-0.676,1.242-1.426,1.814-2.154
						c-4.342,3.938-9.013,7.365-13.727,10.678c-4.723,3.307-9.519,6.47-14.216,9.895c0.83-0.463,1.654-0.924,2.458-1.406
						c0.798-0.493,1.592-0.984,2.387-1.476C72.854,100.806,74.412,99.77,76.055,98.765z M75.226,99.918
						c-0.595,0.471-1.179,0.948-1.754,1.429c-0.587,0.467-1.164,0.938-1.73,1.414c-0.794,0.621-1.606,1.256-2.41,1.883
						c-0.812,0.618-1.604,1.242-2.346,1.859c-1.471,1.254-2.787,2.414-3.599,3.514c0.674-0.584,1.354-1.174,2.041-1.769
						c0.687-0.591,1.361-1.214,2.057-1.819c0.693-0.607,1.397-1.215,2.112-1.818c0.702-0.621,1.416-1.238,2.145-1.85
						c-1.432,1.107-1.62,1.275-0.977,0.784c0.32-0.247,0.849-0.657,1.538-1.19c0.342-0.27,0.725-0.572,1.141-0.898
						c0.406-0.34,0.846-0.707,1.312-1.095C74.821,100.267,75.002,100.109,75.226,99.918z"/>
					<path fill="#FFF274" d="M91.684,84.912c1.418-0.979,2.779-2.061,4.205-3.071c-0.701,0.252-1.329,0.459-2.04,0.838
						c-0.914,0.551-1.729,1.265-2.575,1.967c-0.847,0.701-1.679,1.43-2.546,2.066c-5.038,3.604-9.999,7.489-15.038,11.518
						c-0.268,0.176-0.832,0.597-1.171,1.013C79.184,94.516,85.218,89.743,91.684,84.912z"/>
					<path fill="#FFF274" d="M63.997,105.188c-0.879,0.786-1.772,1.556-2.688,2.209c0.975-0.401,2.139-1.178,3.048-1.842
						c1.222-1.006,2.447-2.012,3.68-2.973C66.667,103.374,65.311,104.205,63.997,105.188z"/>
					<path fill="#FFF274" d="M72.519,99.243c-0.264,0.189-0.525,0.382-0.801,0.564c-1.25,0.848-2.472,1.789-3.681,2.775
						c1.421-0.865,2.863-1.683,4.289-2.567C72.157,99.82,72.281,99.534,72.519,99.243z"/>
				</g>
			</g>
			<g>
				<g opacity="0.8">
					<path fill="#E34673" d="M99.857,100.921c-0.378,0.211-0.609,0.483-0.753,0.838c-0.279,0.502-1.126,0.5-1.654,0.833
						c-0.291,0.146-0.49,0.331-0.718,0.523c-0.696,0.175-1.295,0.472-1.783,0.927c-0.089,0.014-0.347,0.051,0.049,0.424
						c-0.355,0.104-0.713,0.189-1.012,0.328c-0.31,0.131-0.568,0.308-0.715,0.617c-0.165,0.215-0.659,0.048-0.822,0.258
						c-0.226,0.406-0.901,0.213-1.186,0.512c0.003,0.1,0.069,0.406,0.008,0.406c-0.783-0.129-0.744,0.861-1.039,1.473
						c-0.134,0.203-0.227,0.386-0.424,0.471c0.1,0.215,0.038,0.208,0.025,0.311c-0.144,0.091-1.214-0.007-1.415-0.248
						c-0.099-0.121,1.37-1.071,1.198-1.29c-0.112-0.114-0.961,0.565-1.082,0.549c0.281-0.546,0.487-0.985,0.641-1.347
						c0.142-0.377,0.237-0.666,0.301-0.883c0.125-0.436,0.126-0.586,0.071-0.561c-0.056,0.025-0.172,0.229-0.306,0.521
						c-0.133,0.291-0.282,0.679-0.42,1.026c-0.183,0.045-0.212,0.53-0.517,0.731c0.095-0.294,0.049-1.245,0.107-1.331
						c0.202-0.549-0.04-0.807,0.399-1.043c0.368-0.199,0.547-1.159,0.699-1.506c0.118,0.441,0.309,1.455,0.015,1.517
						c0.388,0.044,0.369-0.288,0.308-0.659c-0.057-0.368-0.147-0.768,0.126-0.892c0.041-0.036,0.059-0.118,0.063-0.224
						c0.087,0.005,0.169,0.01,0.272,0.016c0.41-0.272,0.469-0.858,0.936-1.045c-0.021,0.039-0.223-0.146-0.278-0.147
						c-0.623-0.099-0.497,0.569-0.908,0.749c-0.11-0.008,0.049,0.375-0.022,0.428c-0.128,0.126-0.415,0.012-0.63-0.006
						c0.05-0.475,0.412-0.611,0.631-0.896c0.031-0.076-0.078-0.342-0.131-0.489c-0.138,0.08-0.262,0.179-0.381,0.28
						c-0.179,0.211-0.228,0.664-0.338,1.033c-0.104,0.374-0.282,0.637-0.653,0.443c0.001,0.023,0.002,0.049,0.005,0.096
						c-0.021-0.021-0.038-0.031-0.052-0.035c-0.058,0.053-0.158,0.074-0.321-0.023l0.208-0.074c-0.002-0.99,0.729-1.028,1.015-1.633
						c0.021-0.182,0.473,0.02,0.494-0.167c0.118-0.472,0.514-0.61,1.046-0.646c1.8-0.219,3.706-0.649,5.981-0.915
						c0.016-0.035,0.033-0.069,0.054-0.101c-0.054-0.021-0.106-0.042-0.158-0.063c0.061,0.004,0.125,0.009,0.188,0.014
						c0.12-0.171,0.308-0.283,0.675-0.259c0.202,0.051-0.083,0.124,0.037,0.298c0.058-0.015,0.116-0.03,0.116-0.03
						s0.087,0.079,0.176,0.159c-0.02-0.061,0.108,0.011,0.192,0.044c-0.292,0.36-0.531,0.757-0.863,1.098
						c0.285,0.163,0.333,0.02,0.414,0c0.044-0.166,0.082-0.333,0.255-0.377c0.19-0.351,0.899-0.319,1.268-0.527
						c0.121,0.002,0.25,0.01,0.396,0.034C99.849,100.508,100.035,100.87,99.857,100.921z M92.303,101.943
						c0.195,0.031,0.426,0.1,0.66,0.16c0.048-0.014,0.096-0.027,0.147-0.037c0.069-0.008,0.104-0.054,0.117-0.125
						c0.31-0.02,0.615-0.053,0.927-0.084c-0.511-0.154-0.967-0.257-1.272-0.155c0.302-0.222,0.758-0.269,1.292-0.249
						c0.529,0.014,1.136,0.086,1.653,0.051c0.229-0.094,0.443-0.207,0.633-0.348c0.12-0.109,0.192-0.257,0.252-0.408
						c-0.579,0.162-1.194,0.276-1.811,0.368c-0.631,0.081-1.264,0.134-1.861,0.196c-1.216,0.106-2.297,0.216-3.084,0.605
						c0.401,0.045,0.773,0.046,1.155,0.045C91.495,101.961,91.867,101.928,92.303,101.943z M92.376,102.336
						c-0.222,0.121-0.399,0.285-0.573,0.443c-0.572,0.332-1.127,0.724-0.998,1.582c0.305-0.554,0.558-1.166,0.998-1.582
						c-0.254,0.148-0.278,0.182-0.161,0.121c0.118-0.061,0.382-0.214,0.679-0.471C92.313,102.396,92.34,102.368,92.376,102.336z"/>
					<path fill="#E34673" d="M95.33,100.127c0.483,0.043,0.94,0.045,1.429,0.075c-0.353-0.143-0.67-0.279-0.977-0.366
						c-0.715-0.149-0.993,0.101-1.523,0.101c-0.761,0.001-1.429,0.051-1.993,0.188c-0.56,0.146-1.054,0.321-1.477,0.573
						c-0.063,0.002-0.171,0.039-0.164,0.161c0.68-0.16,1.371-0.314,2.115-0.471c0.375-0.074,0.776-0.128,1.205-0.173
						C94.368,100.164,94.826,100.133,95.33,100.127z"/>
					<path fill="#E34673" d="M89.031,101.307c-0.067,0.178-0.145,0.344-0.286,0.42c0.274,0.121,0.476,0.056,0.616-0.029
						c0.148-0.182,0.295-0.361,0.469-0.504C89.512,101.172,89.229,101.183,89.031,101.307z"/>
					<path fill="#E34673" d="M90.625,100.858c-0.054,0.013-0.108,0.025-0.163,0.038c-0.254,0.053-0.46,0.151-0.632,0.297
						c0.332,0.018,0.711,0.084,1.041,0.068C90.693,101.072,90.63,100.945,90.625,100.858z"/>
				</g>
			</g>
			<g>
				<g opacity="0.8">
					<path fill="#CBE3B1" d="M127.561,78.501c-0.292-0.054-0.491,0.02-0.646,0.205c-0.279,0.213-0.82-0.239-1.212-0.276
						c-0.212-0.042-0.354-0.034-0.514-0.003c-0.439-0.238-0.858-0.36-1.188-0.233c-0.055-0.035-0.216-0.135-0.002,0.365
						c-0.454-0.194-0.897-0.445-1.09-0.074c-0.102,0.103-0.403-0.264-0.506-0.161c-0.13,0.254-0.545-0.184-0.718-0.041
						c0.005,0.087,0.055,0.373,0.018,0.349c-0.482-0.395-0.375,0.51-0.461,0.933c-0.053,0.127-0.069,0.276-0.167,0.292
						c0.093,0.219,0.057,0.195,0.067,0.281c-0.059,0.037-0.688-0.334-0.864-0.594c-0.088-0.129,0.625-0.591,0.5-0.834
						c-0.083-0.132-0.493,0.259-0.567,0.213c0.325-1.655,0.432-2.239,0.349-2.222c-0.073,0.013-0.28,0.6-0.356,1.181
						c-0.112-0.002-0.063,0.427-0.222,0.531c0.007-0.235-0.147-1.106-0.114-1.173c0.073-0.459-0.103-0.751,0.191-0.84
						c0.238-0.072,0.354-0.91,0.482-1.136c0.061,0.43,0.186,1.374,0.002,1.353c0.507,0.304-0.078-1.197,0.309-1.216
						c0.029-0.017,0.045-0.082,0.052-0.174c0.06,0.037,0.115,0.072,0.184,0.115c0.291-0.074,0.387-0.531,0.719-0.495
						c-0.018,0.024-0.134-0.223-0.172-0.247c-0.415-0.348-0.397,0.269-0.692,0.255c-0.076-0.047,0.012,0.352-0.039,0.371
						c-0.093,0.063-0.284-0.144-0.436-0.238c0.059-0.392,0.317-0.404,0.498-0.55c0.029-0.052-0.023-0.324-0.044-0.473
						c-0.106,0.013-0.208,0.039-0.301,0.085c-0.297,0.258-0.251,1.527-0.792,0.99c0,0.022,0.001,0.045,0.002,0.089
						c-0.015-0.024-0.027-0.039-0.037-0.046c-0.044,0.034-0.117,0.028-0.24-0.105l0.156-0.015c0.031-0.961,0.579-0.681,0.828-1.137
						c0.033-0.152,0.34,0.212,0.374,0.061c0.137-0.347,0.441-0.338,0.808-0.097c0.609,0.324,1.234,0.672,1.891,1.082
						c0.66,0.415,1.325,0.863,2.089,1.399c0.016-0.017,0.033-0.032,0.05-0.044c-0.032-0.046-0.063-0.091-0.094-0.136
						c0.039,0.038,0.08,0.078,0.121,0.118c0.105-0.058,0.245-0.034,0.484,0.192c0.127,0.151-0.073,0.045-0.02,0.242
						c0.04,0.021,0.081,0.043,0.081,0.043s0.045,0.108,0.093,0.218c-0.004-0.057,0.07,0.068,0.122,0.141
						c-0.248,0.106-0.478,0.253-0.738,0.338c0.16,0.282,0.212,0.197,0.268,0.227c0.054-0.102,0.107-0.203,0.228-0.138
						c0.182-0.154,0.65,0.27,0.932,0.321c0.082,0.069,0.167,0.147,0.263,0.247C127.62,78.188,127.691,78.562,127.561,78.501z
						 M122.537,75.171c0.123,0.121,0.264,0.292,0.406,0.457c0.032,0.012,0.063,0.026,0.098,0.043
						c0.044,0.028,0.071,0.008,0.087-0.044c0.197,0.14,0.401,0.283,0.602,0.424c-0.304-0.39-0.59-0.727-0.795-0.791
						c0.434-0.064,1.223,0.883,1.891,1.434c0.159,0.057,0.312,0.087,0.453,0.084c0.093-0.019,0.159-0.091,0.22-0.174
						c-0.79-0.38-1.622-1.036-2.415-1.573c-0.787-0.539-1.521-0.972-2.127-0.946C121.517,74.5,121.985,74.722,122.537,75.171z
						 M122.542,75.526c-0.153-0.007-0.291,0.025-0.415,0.091c-0.395,0.031-0.814,0.106-0.74,0.921
						c0.201-0.382,0.423-0.752,0.74-0.921c-0.356,0.029-0.071,0.068,0.37-0.043C122.497,75.543,122.517,75.535,122.542,75.526z"/>
					<path fill="#CBE3B1" d="M124.701,75.361c0.302,0.304,0.588,0.549,0.906,0.855c-0.208-0.306-0.397-0.592-0.58-0.827
						c-0.436-0.511-0.643-0.473-0.976-0.77c-0.974-0.877-1.734-1.211-2.366-1.208c-0.042-0.029-0.121-0.051-0.131,0.053
						C122.511,73.855,123.438,74.255,124.701,75.361z"/>
					<path fill="#CBE3B1" d="M120.352,73.176c-0.072,0.129-0.143,0.26-0.254,0.276c0.193,0.207,0.342,0.212,0.454,0.194
						c0.128-0.094,0.256-0.188,0.399-0.24C120.725,73.258,120.514,73.151,120.352,73.176z"/>
					<path fill="#CBE3B1" d="M121.555,73.464c-0.039-0.015-0.077-0.031-0.118-0.046c-0.187-0.074-0.344-0.063-0.486-0.011
						c0.236,0.157,0.489,0.361,0.72,0.506C121.574,73.673,121.549,73.538,121.555,73.464z"/>
				</g>
			</g>
			<g>
				<g opacity="0.8">
					<path fill="#F99D41" d="M115.402,52.604c-0.41,0.189-0.687,0.461-0.879,0.815c-0.355,0.492-1.167,0.525-1.75,0.907
						c-0.317,0.166-0.513,0.4-0.733,0.635c-0.345,0.146-0.681,0.327-0.987,0.546c-0.303,0.222-0.549,0.504-0.758,0.816
						c-0.087,0.04-0.347,0.159,0.126,0.428c-0.702,0.406-1.375,0.857-1.493,1.604c-0.047,0.143-0.209,0.229-0.373,0.316
						c-0.155,0.091-0.311,0.186-0.351,0.334c-0.048,0.522-0.766,0.711-0.919,1.178c0.042,0.094,0.246,0.346,0.191,0.382
						c-0.763,0.393-0.214,1.306-0.123,1.995c0.005,0.263,0.063,0.484-0.04,0.692c0.216,0.103,0.162,0.142,0.218,0.231
						c-0.048,0.164-0.944,0.883-1.27,0.875c-0.163-0.003,0.4-1.933,0.134-2.003c-0.16-0.011-0.417,1.25-0.522,1.332
						c-0.126-0.682-0.23-1.242-0.314-1.696c-0.078-0.458-0.138-0.809-0.183-1.071c-0.099-0.526-0.167-0.69-0.207-0.618
						c-0.041,0.071-0.052,0.377-0.031,0.77c0.011,0.197,0.028,0.415,0.057,0.638c0.037,0.227,0.083,0.458,0.136,0.675
						c-0.124,0.202,0.151,0.651,0.028,1.077c-0.111-0.314-0.731-1.121-0.729-1.261c-0.156-0.7-0.518-0.745-0.206-1.369
						c0.258-0.505-0.04-1.709,0.042-2.23c0.256,0.412,0.875,1.334,0.643,1.631c0.38-0.272,0.207-0.594,0.001-0.946
						c-0.196-0.346-0.427-0.723-0.178-1.083c0.031-0.074,0.023-0.181-0.006-0.308c0.092-0.061,0.18-0.119,0.29-0.191
						c0.332-0.621,0.314-1.342,0.793-1.879c-0.016,0.061-0.271-0.042-0.333-0.005c-0.714,0.303-0.481,1.025-0.858,1.548
						c-0.119,0.079,0.166,0.413,0.108,0.527c-0.096,0.246-0.435,0.341-0.674,0.503c-0.092-0.589,0.245-1.081,0.421-1.591
						c0.013-0.118-0.163-0.363-0.248-0.507c-0.152,0.204-0.263,0.429-0.372,0.658c-0.139,0.426-0.063,1.027-0.063,1.545
						c-0.003,0.518-0.041,0.971-0.499,1.115c0.011,0.024,0.023,0.051,0.047,0.101c-0.03-0.002-0.051,0.002-0.068,0.011
						c-0.035,0.117-0.124,0.236-0.334,0.292l0.178-0.291c-0.219-0.569-0.142-1.057,0.041-1.509c0.182-0.454,0.428-0.886,0.497-1.395
						c-0.018-0.252,0.534-0.367,0.531-0.61c0.071-0.68,0.509-1.208,1.129-1.573c2.094-1.411,4.369-2.503,6.888-2.939
						c0.025-0.04,0.051-0.079,0.081-0.115c-0.055-0.022-0.108-0.043-0.162-0.065c0.068,0.003,0.137,0.007,0.207,0.01
						c0.168-0.194,0.401-0.325,0.792-0.295c0.208,0.057-0.115,0.138-0.021,0.332c0.065-0.016,0.129-0.031,0.129-0.031
						s0.078,0.088,0.159,0.177c-0.01-0.067,0.112,0.014,0.196,0.052c-0.372,0.391-0.725,0.8-1.083,1.21
						c0.286,0.161,0.344,0.002,0.431-0.024c0.058-0.186,0.124-0.368,0.319-0.411c0.265-0.375,1.009-0.32,1.415-0.516
						c0.124,0.011,0.252,0.029,0.396,0.065C115.462,52.163,115.581,52.57,115.402,52.604z M107.188,54.962
						c0.224-0.057,0.49-0.08,0.753-0.108c0.051-0.036,0.104-0.071,0.159-0.105c0.075-0.038,0.11-0.107,0.118-0.199
						c0.341-0.148,0.67-0.298,1.026-0.422c-0.578-0.03-1.09,0.02-1.423,0.277c0.16-0.202,0.372-0.359,0.614-0.484
						c0.252-0.119,0.539-0.202,0.836-0.27c0.597-0.135,1.242-0.2,1.807-0.324c0.263-0.136,0.508-0.287,0.727-0.465
						c0.141-0.137,0.232-0.308,0.314-0.487c-0.629,0.244-1.351,0.435-2.034,0.687c-0.686,0.249-1.417,0.493-2.101,0.801
						c-0.673,0.313-1.338,0.662-1.943,1.071c-0.577,0.424-1.099,0.904-1.522,1.452c0.479-0.245,0.902-0.5,1.325-0.747
						C106.264,55.391,106.685,55.151,107.188,54.962z M107.304,55.395c-0.24,0.247-0.407,0.535-0.559,0.825
						c-0.271,0.358-0.545,0.743-0.7,1.145c-0.134,0.413-0.149,0.839,0.078,1.266c0.046-0.407,0.094-0.827,0.189-1.234
						c0.105-0.402,0.243-0.799,0.433-1.176c-0.484,0.647-0.08,0.208,0.507-0.689C107.24,55.493,107.268,55.448,107.304,55.395z"/>
					<path fill="#F99D41" d="M110.68,51.823c0.541-0.022,1.029-0.082,1.563-0.076c-0.362-0.143-0.69-0.271-1.014-0.337
						c-0.768-0.083-1.131,0.273-1.75,0.384c-0.89,0.164-1.654,0.49-2.358,0.894c-0.689,0.415-1.254,0.951-1.773,1.533
						c-0.078,0.041-0.212,0.157-0.19,0.315C106.789,53.271,108.381,52.165,110.68,51.823z"/>
					<path fill="#F99D41" d="M103.329,56.364c-0.042,0.298-0.083,0.592-0.225,0.823c0.345-0.105,0.545-0.375,0.686-0.604
						c0.124-0.359,0.286-0.703,0.47-1.028C103.885,55.776,103.529,56.022,103.329,56.364z"/>
					<path fill="#F99D41" d="M105.157,54.536c-0.063,0.052-0.125,0.104-0.19,0.157c-0.295,0.242-0.52,0.54-0.707,0.862
						c0.399-0.232,0.835-0.427,1.217-0.653C105.253,54.772,105.17,54.646,105.157,54.536z"/>
				</g>
			</g>
		</g>
	</g>
	<g>
		<path fill="#A09F9E" d="M190.598,130.828c0,18.293-10.245,34.756-29.513,34.756c-19.389,0-29.512-17.438-29.512-35.609
			c0-18.172,10.123-35.61,29.512-35.61C180.477,94.365,190.598,112.658,190.598,130.828z M141.086,129.121
			c0,12.439,5.976,28.049,19.999,28.049c13.903,0,20.123-12.805,20.123-25.609c0-12.318-6.342-28.414-20.123-28.414
			C147.062,103.146,141.086,116.316,141.086,129.121z"/>
		<path fill="#A09F9E" d="M203.519,73.511c0-3.048,1.464-4.634,4.391-4.634c3.049,0,4.634,1.585,4.634,4.634v86.219
			c0,3.049-1.464,4.512-4.513,4.512s-4.512-1.463-4.512-4.512V73.511z"/>
		<path fill="#A09F9E" d="M287.538,130.828c0,18.293-10.243,34.756-29.512,34.756c-19.391,0-29.512-17.438-29.512-35.609
			c0-18.172,10.121-35.61,29.512-35.61S287.538,112.658,287.538,130.828z M238.026,129.121c0,12.439,5.976,28.049,20,28.049
			c13.902,0,20.122-12.805,20.122-25.609c0-12.318-6.342-28.414-20.122-28.414C244.002,103.146,238.026,116.316,238.026,129.121z"/>
		<path fill="#A09F9E" d="M309.604,134.731c0,18.78,7.439,22.194,15.488,22.194c9.268,0,19.145-9.391,19.145-26.463V99.975
			c0-2.927,0.977-4.756,4.147-4.756c2.927,0,4.39,1.585,4.39,4.756v61.951c0,2.682-1.463,4.025-4.39,4.025
			c-3.049,0-4.634-1.344-4.634-4.146v-8.172c-5.244,8.658-12.561,12.684-19.757,12.684c-11.95,0-23.414-7.562-23.414-27.683v-38.171
			c0-3.049,1.464-4.513,4.391-4.513c3.048,0,4.513,1.463,4.513,4.513L309.604,134.731z"/>
		<path fill="#A09F9E" d="M364.963,100.34c0-3.17,1.464-4.756,4.392-4.756c3.049,0,4.512,1.585,4.512,4.756v5.853
			c4.512-8.048,13.049-11.829,21.341-11.829c6.464,0,8.901,2.928,8.901,5.61c0,2.439-1.949,4.755-4.755,4.755
			c-3.292,0-4.146-0.853-8.292-0.853c-7.928,0-17.195,8.292-17.195,17.683v38.292c0,2.927-1.463,4.39-4.512,4.39
			c-2.928,0-4.392-1.463-4.392-4.39V100.34z"/>
	</g>
	<g>
		<path fill="#A09F9E" d="M426.425,100.852c0-3.567,1.478-5.414,4.553-5.414c2.955,0,4.554,1.722,4.554,5.045v4.8
			c3.321-6.522,10.583-10.953,17.843-10.953c8.122,0,15.504,5.168,18.581,12.92c3.937-7.752,12.428-12.92,21.657-12.92
			c12.551,0,23.011,8.86,23.011,21.779v44.053c0,2.955-1.478,4.432-4.554,4.432s-4.676-1.477-4.676-4.432v-40.113
			c0-8.859-5.291-16.242-14.274-16.242c-10.46,0-17.228,8.98-17.228,19.318v37.037c0,3.076-1.477,4.553-4.429,4.553
			c-3.077,0-4.554-1.477-4.554-4.553v-40.113c0-8.983-5.413-15.998-14.396-15.998c-10.459,0-17.104,8.736-17.104,19.074v37.037
			c0,3.076-1.476,4.553-4.431,4.553c-3.075,0-4.553-1.477-4.553-4.553V100.852z"/>
		<path fill="#A09F9E" d="M588.105,124.971c0,6.645-1.108,9.968-6.891,9.968h-41.591c0,11.074,11.073,22.271,22.025,22.271
			c6.891,0,11.197-1.354,16.735-6.275c1.6-1.477,3.568-2.214,5.291-2.214c2.339,0,4.061,1.354,4.061,4.184
			c0,0.985-0.246,1.847-0.861,2.46c-5.784,7.262-14.273,10.953-25.226,10.953c-20.303,0-31.747-16.49-31.747-35.932
			c0-18.09,10.582-36.178,29.778-36.178C577.893,94.207,588.105,107.005,588.105,124.971z M578.999,126.078
			c0-12.551-7.26-22.765-18.949-22.765c-11.813,0-20.304,10.459-20.304,22.765H578.999z"/>
	</g>
	<rect x="393.645" y="149.644" fill="#A09F9E" width="16.494" height="16.493"/>
</g>
</svg>
