<?xml version="1.0" encoding="utf-8"?>
<!-- Generator: Adobe Illustrator 18.1.0, SVG Export Plug-In . SVG Version: 6.00 Build 0)  -->
<svg version="1.1" id="Layer_1" xmlns="http://www.w3.org/2000/svg" xmlns:xlink="http://www.w3.org/1999/xlink" x="0px" y="0px"
	 viewBox="0 0 50 50" enable-background="new 0 0 50 50" xml:space="preserve">
<g>
	<path fill="#878473" d="M33.9,1.6C24-2.2,12.5,0.8,5.7,8.9C-9.1,26.7,6.9,53.7,29.6,49.6C41.5,47.5,49.7,36.9,50,25
		C49.7,14.7,43.7,5.4,33.9,1.6z M24.9,45.8C13.6,45.8,4.1,36.3,4.2,25c0-11.3,9.4-20.8,20.8-20.8c11.5,0,20.5,9.4,20.8,20.8
		C45.4,36.3,36.5,45.7,24.9,45.8z"/>
	<path fill="#878473" d="M35.8,22.9c-2.9,0-5.8,0-8.8,0c0-2.9,0-5.8,0-8.8c0-2.8-4.3-2.8-4.3,0c0,2.9,0,5.8,0,8.8
		c-2.9,0-5.8,0-8.8,0c-2.8,0-2.8,4.3,0,4.3c2.9,0,5.8,0,8.8,0c0,2.9,0,5.8,0,8.8c0,2.8,4.3,2.8,4.3,0c0-2.9,0-5.8,0-8.8
		c2.9,0,5.8,0,8.8,0C38.6,27.2,38.6,22.9,35.8,22.9z"/>
</g>
</svg>
