<?xml version="1.0" encoding="utf-8"?>
<!-- Generator: Adobe Illustrator 16.0.0, SVG Export Plug-In . SVG Version: 6.00 Build 0)  -->
<!DOCTYPE svg PUBLIC "-//W3C//DTD SVG 1.1//EN" "http://www.w3.org/Graphics/SVG/1.1/DTD/svg11.dtd">
<svg version="1.1" id="Layer_1" xmlns="http://www.w3.org/2000/svg" xmlns:xlink="http://www.w3.org/1999/xlink" x="0px" y="0px"
	 width="45px" height="45px" viewBox="0 0 45 45" enable-background="new 0 0 45 45" xml:space="preserve">
<g>
	<path fill="#EAEAEA" d="M17.414,16.091c0-0.938-0.063-1.911,0.108-2.839c0.444-2.394,2.641-3.943,4.978-4.029
		c2.244-0.082,4.164,1.543,4.861,3.587c0.32,0.941,0.224,2.023,0.224,3.005c0,1.412,0,2.825,0,4.237h2.561c0-1.775,0-3.551,0-5.325
		c0-4.433-3.166-7.899-7.646-8.064c-4.371-0.16-7.646,3.781-7.646,7.919c0,1.823,0,3.646,0,5.471h2.56
		C17.414,18.731,17.414,17.411,17.414,16.091z"/>
	<path fill-rule="evenodd" clip-rule="evenodd" fill="#EAEAEA" d="M33.718,21.48H11.281c-0.596,0-1.078,0.425-1.078,0.948v13.232
		c0,0.524,0.482,0.948,1.078,0.948h22.437c0.596,0,1.078-0.424,1.078-0.948V22.429C34.796,21.905,34.313,21.48,33.718,21.48z
		 M23.241,28.568l0.198,5.144h-1.878l0.197-5.144c-0.828-0.303-1.422-1.094-1.422-2.026c0-1.196,0.969-2.164,2.164-2.164
		c1.192,0,2.162,0.968,2.162,2.164C24.663,27.475,24.069,28.266,23.241,28.568z"/>
</g>
</svg>
