<?xml version="1.0" encoding="utf-8"?>
<!-- Generator: Adobe Illustrator 18.1.0, SVG Export Plug-In . SVG Version: 6.00 Build 0)  -->
<svg version="1.1" xmlns="http://www.w3.org/2000/svg" xmlns:xlink="http://www.w3.org/1999/xlink" x="0px" y="0px"
	 viewBox="0 0 66.2 66.2" enable-background="new 0 0 66.2 66.2" xml:space="preserve">
<g id="Layer_1" display="none">
	<g display="inline">
		<circle fill="#79C57F" cx="33.1" cy="33.1" r="33.1"/>
		<path fill="none" stroke="#FFFFFF" stroke-width="2" stroke-miterlimit="10" d="M50,22.2h-9.7v-2.4c0-1.3-1.1-2.4-2.4-2.4h-9.7
			c-1.3,0-2.4,1.1-2.4,2.4v2.4h-9.7c-1.3,0-2.4,1.1-2.4,2.4v21.8c0,1.3,1.1,2.4,2.4,2.4H50c1.3,0,2.4-1.1,2.4-2.4V24.6
			C52.5,23.3,51.4,22.2,50,22.2z M28.2,19.7C28.2,19.7,28.2,19.7,28.2,19.7l9.7,0c0,0,0,0,0,0v2.4h-9.7V19.7z M50,31.9h-4.8v3.6
			c0,0.7-0.5,1.2-1.2,1.2h-2.4c-0.7,0-1.2-0.5-1.2-1.2v-3.6H25.8v3.6c0,0.7-0.5,1.2-1.2,1.2h-2.4c-0.7,0-1.2-0.5-1.2-1.2v-3.6h-4.8
			v-2.4H50V31.9z"/>
	</g>
</g>
<g id="Layer_2" display="none">
	<g display="inline">
		<circle fill="#7891C1" cx="33.1" cy="33.1" r="33.1"/>
		<g>
			<path fill="none" stroke="#FFFFFF" stroke-width="2" stroke-miterlimit="10" d="M33.1,8C19.1,8,7.7,19.4,7.7,33.4
				c0,6.1,2.2,11.7,5.7,16.1c0.6-4.4,5-8.2,11.2-10c2.3,2.1,5.2,3.4,8.4,3.4c3.1,0,6-1.2,8.2-3.2c6.3,1.9,10.6,5.9,10.7,10.5
				c4-4.5,6.4-10.3,6.4-16.8C58.4,19.4,47.1,8,33.1,8z M33.1,39.9c-1.6,0-3.1-0.4-4.5-1.2c-3.3-1.9-5.5-5.7-5.5-10
				c0-6.2,4.5-11.3,10-11.3s10,5,10,11.3c0,4.5-2.3,8.3-5.7,10.1C36.1,39.4,34.6,39.9,33.1,39.9z"/>
		</g>
	</g>
</g>
<g id="Layer_3" display="none">
	<g display="inline">
		<circle fill="#F29562" cx="33.1" cy="33.1" r="33.1"/>
		<g>
			<path fill="none" stroke="#FFFFFF" stroke-width="2" stroke-miterlimit="10" d="M32.7,34.3v16.3c0,1.8-1.5,3.3-3.3,3.3h0
				c-1.8,0-3.3-1.5-3.3-3.3V34.3"/>
			<path fill="none" stroke="#FFFFFF" stroke-width="2" stroke-miterlimit="10" d="M26.1,17.6v-2.1c0-1.8,1.5-3.3,3.3-3.3h0
				c1.8,0,3.3,1.5,3.3,3.3v2.1"/>
			<path fill="none" stroke="#FFFFFF" stroke-width="2" stroke-miterlimit="10" d="M40.7,17.6H16.7c-0.7,0-1.3,0.8-1.3,1.9v12.9
				c0,1,0.6,1.9,1.3,1.9h23.9c0.2,0,0.4-0.1,0.6-0.2l8.8-6.5c0.9-0.7,0.9-2.7,0-3.4l-8.8-6.5C41.1,17.7,40.9,17.6,40.7,17.6z"/>
		</g>
	</g>
</g>
<g id="Layer_4" display="none">
	<g display="inline">
		<circle fill="#6BCCF4" cx="33.1" cy="33.1" r="33.1"/>
		<g>
			<path fill="none" stroke="#FFFFFF" stroke-width="2" stroke-miterlimit="10" d="M53.3,31.5L33.9,14.6c-0.5-0.4-1.2-0.4-1.7,0
				l-6.9,6v-2.4c0-1.4-1.2-2.6-2.6-2.6s-2.6,1.2-2.6,2.6v6.9l-7.3,6.3c-0.5,0.5-0.6,1.3-0.1,1.8c0.5,0.5,1.3,0.6,1.8,0.1l18.6-16.1
				l18.6,16.1c0.2,0.2,0.5,0.3,0.8,0.3c0.4,0,0.7-0.2,1-0.4C53.9,32.7,53.9,31.9,53.3,31.5z"/>
			<path fill="none" stroke="#FFFFFF" stroke-width="2" stroke-miterlimit="10" d="M34.7,24c-0.5-0.4-1.1-0.6-1.6-0.6
				c-0.6,0-1.2,0.2-1.6,0.6L18.5,34.6c-0.6,0.5-0.9,1.2-0.9,2v12.7c0,1.4,1.2,2.6,2.6,2.6h7.8V38.9h10.3v12.9H46
				c1.4,0,2.6-1.2,2.6-2.6V36.6c0-0.8-0.3-1.5-0.9-2L34.7,24z"/>
		</g>
	</g>
</g>
<g id="Layer_5">
	<g>
		<circle fill="#F3E573" cx="33.1" cy="33.1" r="33.1"/>
		<g>
			<path fill="none" stroke="#FFFFFF" stroke-width="2" stroke-miterlimit="10" d="M56.3,19.7H9.8c-0.4,0-0.8,0.2-1.1,0.5
				c-0.3,0.3-0.5,0.7-0.5,1.1v23.5c0,0.4,0.2,0.8,0.5,1.1c0.3,0.3,0.7,0.5,1.1,0.5h46.5c0.4,0,0.8-0.2,1.1-0.5
				c0.3-0.3,0.5-0.7,0.5-1.1V21.3c0-0.4-0.2-0.8-0.5-1.1C57.1,19.9,56.7,19.7,56.3,19.7z M54.7,37c-1.7,0-3.2,0.6-4.4,1.8
				c-1.2,1.2-1.8,2.7-1.8,4.4H17.7c0-1.7-0.6-3.2-1.8-4.4c-1.2-1.2-2.7-1.8-4.4-1.8v-7.9c1.7,0,3.2-0.6,4.4-1.8
				c1.2-1.2,1.8-2.7,1.8-4.4h30.8c0,1.7,0.6,3.2,1.8,4.4c1.2,1.2,2.7,1.8,4.4,1.8L54.7,37L54.7,37z"/>
			<path fill="none" stroke="#FFFFFF" stroke-width="2" stroke-miterlimit="10" d="M34.3,31v-3.3c0.4,0.3,0.6,0.7,0.7,1.2
				c0,0.1,0.2,0.2,0.3,0.2l2.6-0.3c0.1,0,0.1,0,0.2-0.1c0-0.1,0.1-0.1,0-0.2c-0.2-1.1-0.6-1.9-1.3-2.6c-0.6-0.6-1.5-1-2.5-1.1V24
				c0-0.1-0.1-0.3-0.3-0.3h-1.5c-0.1,0-0.3,0.1-0.3,0.3v0.8c-1.1,0.2-2,0.6-2.7,1.4c-0.7,0.8-1.1,1.8-1.1,3c0,1.2,0.3,2.1,1,3
				c0.6,0.8,1.6,1.4,2.9,1.8v3.6c-0.2-0.1-0.4-0.3-0.5-0.5c-0.3-0.4-0.5-0.8-0.6-1.3c0-0.1-0.1-0.2-0.3-0.2l-2.7,0.3
				c-0.1,0-0.1,0-0.2,0.1c0,0.1-0.1,0.1-0.1,0.2c0.2,1.4,0.7,2.5,1.5,3.2c0.7,0.7,1.7,1.2,2.8,1.4v1.6c0,0.1,0.1,0.3,0.3,0.3H34
				c0.1,0,0.3-0.1,0.3-0.3v-1.7c1.3-0.2,2.3-0.8,3-1.6c0.8-0.9,1.2-2,1.2-3.3c0-1.2-0.3-2.1-0.9-2.9C36.9,32,35.9,31.5,34.3,31z
				 M35.5,36c0,0.4-0.1,0.8-0.4,1.2c-0.2,0.3-0.5,0.4-0.8,0.5v-3.3c0.4,0.1,0.7,0.3,0.9,0.6C35.4,35.3,35.5,35.6,35.5,36z M31.5,29
				c0-0.3,0.1-0.6,0.3-0.9c0.1-0.2,0.3-0.3,0.5-0.4v2.7c-0.2-0.1-0.4-0.3-0.5-0.5C31.6,29.6,31.5,29.3,31.5,29z"/>
		</g>
	</g>
</g>
</svg>
