<?xml version="1.0" encoding="utf-8"?>
<!-- Generator: Adobe Illustrator 18.1.0, SVG Export Plug-In . SVG Version: 6.00 Build 0)  -->
<svg version="1.1" id="Layer_1" xmlns="http://www.w3.org/2000/svg" xmlns:xlink="http://www.w3.org/1999/xlink" x="0px" y="0px"
	 viewBox="0 0 78 27" enable-background="new 0 0 78 27" xml:space="preserve">
<g>
	<path fill="#FFFFFF" d="M9,0.3v2.9c2.6,0.1,5.5,1.1,6.8,3.5l-1.4,0.8c-1.1-2.1-3.9-2.8-6.1-2.8c-2.4,0-6.3,1-6.2,4
		c0.1,2.6,2.8,3.2,6.2,3.8c3.9,0.8,8,1.5,8,5.8c0,3.8-4.1,5.3-7.4,5.5v2.8H7.7v-2.8c-3-0.1-6.3-1.3-7.7-4l1.4-0.7
		c1.2,2.4,4.5,3.2,6.9,3.2c2.5,0,6.5-0.9,6.5-4c0-3.1-3.3-3.7-6.7-4.4c-3.7-0.7-7.4-1.4-7.5-5.2C0.5,5,4.5,3.4,7.7,3.2V0.3H9z"/>
	<path fill="#FFFFFF" d="M29.5,0.3v2.9c2.6,0.1,5.5,1.1,6.8,3.5L35,7.5c-1.1-2.1-3.9-2.8-6.1-2.8c-2.4,0-6.3,1-6.2,4
		c0.1,2.6,2.8,3.2,6.2,3.8c3.9,0.8,8,1.5,8,5.8c0,3.8-4.1,5.3-7.4,5.5v2.8h-1.3v-2.8c-3-0.1-6.3-1.3-7.7-4l1.4-0.7
		c1.2,2.4,4.5,3.2,6.9,3.2c2.5,0,6.5-0.9,6.5-4c0-3.1-3.3-3.7-6.7-4.4c-3.7-0.7-7.4-1.4-7.5-5.2C21,5,25,3.4,28.2,3.2V0.3H29.5z"/>
	<path fill="#FFFFFF" d="M50.1,0.3v2.9c2.6,0.1,5.5,1.1,6.8,3.5l-1.4,0.8c-1.1-2.1-3.9-2.8-6.1-2.8c-2.4,0-6.3,1-6.2,4
		c0.1,2.6,2.8,3.2,6.2,3.8c3.9,0.8,8,1.5,8,5.8c0,3.8-4.1,5.3-7.4,5.5v2.8h-1.3v-2.8c-3-0.1-6.3-1.3-7.7-4l1.4-0.7
		c1.2,2.4,4.5,3.2,6.9,3.2c2.5,0,6.5-0.9,6.5-4c0-3.1-3.3-3.7-6.7-4.4c-3.7-0.7-7.4-1.4-7.5-5.2c-0.1-3.8,3.8-5.3,7.1-5.5V0.3H50.1z
		"/>
	<path fill="#FFFFFF" d="M70.6,0.3v2.9c2.6,0.1,5.5,1.1,6.8,3.5L76,7.5c-1.1-2.1-3.9-2.8-6.1-2.8c-2.4,0-6.3,1-6.2,4
		c0.1,2.6,2.8,3.2,6.2,3.8c3.9,0.8,8,1.5,8,5.8c0,3.8-4.1,5.3-7.4,5.5v2.8h-1.3v-2.8c-3-0.1-6.3-1.3-7.7-4l1.4-0.7
		c1.2,2.4,4.5,3.2,6.9,3.2c2.5,0,6.5-0.9,6.5-4c0-3.1-3.3-3.7-6.7-4.4c-3.7-0.7-7.4-1.4-7.5-5.2C62.1,5,66,3.4,69.3,3.2V0.3H70.6z"
		/>
</g>
</svg>
