<?xml version="1.0" encoding="utf-8"?>
<!-- Generator: Adobe Illustrator 18.1.0, SVG Export Plug-In . SVG Version: 6.00 Build 0)  -->
<svg version="1.1" id="Layer_1" xmlns="http://www.w3.org/2000/svg" xmlns:xlink="http://www.w3.org/1999/xlink" x="0px" y="0px"
	 viewBox="0 0 50 50" enable-background="new 0 0 50 50" xml:space="preserve">
<path fill="#FFFFFF" d="M6.2,15.4h3.3c0-3.3,3.3-6,6-6V6.1C10.6,6.1,6.2,10.5,6.2,15.4z"/>
<path fill="#FFFFFF" d="M30.8,26.9c2.2-2.7,3.3-6.6,3.3-9.9c0-9.3-7.7-17-17-17c-9.3,0-17,7.7-17,17s7.7,17,17,17
	c3.8,0,7.7-1.1,10.4-3.3l0.5,0.5l18.6,18.6l3.3-3.3L31.4,28L30.8,26.9z M17.2,30.7c-7.7,0-14.2-6-14.2-14.2c0-7.7,6-14.2,14.2-14.2
	c7.7,0,14.2,6,14.2,14.2C30.8,24.7,24.8,30.7,17.2,30.7z"/>
</svg>
