<?xml version="1.0" encoding="utf-8"?>
<!-- Generator: Adobe Illustrator 18.1.0, SVG Export Plug-In . SVG Version: 6.00 Build 0)  -->
<svg version="1.1" id="Layer_1" xmlns="http://www.w3.org/2000/svg" xmlns:xlink="http://www.w3.org/1999/xlink" x="0px" y="0px"
	 viewBox="-216 343 16 16" enable-background="new -216 343 16 16" xml:space="preserve">
<path d="M-211.4,349.3h0.6c0-0.6,0.6-1.1,1.1-1.1v-0.6C-210.6,347.6-211.4,348.4-211.4,349.3z"/>
<path d="M-206.9,351.4c0.4-0.5,0.6-1.2,0.6-1.8c0-1.7-1.4-3.1-3.1-3.1c-1.7,0-3.1,1.4-3.1,3.1c0,1.7,1.4,3.1,3.1,3.1
	c0.7,0,1.4-0.2,1.9-0.6l0.1,0.1l3.4,3.4l0.6-0.6l-3.4-3.4L-206.9,351.4z M-209.4,352.1c-1.4,0-2.6-1.1-2.6-2.6
	c0-1.4,1.1-2.6,2.6-2.6c1.4,0,2.6,1.1,2.6,2.6C-206.9,351-208,352.1-209.4,352.1z"/>
</svg>
