<?xml version="1.0" encoding="utf-8"?>
<!-- Generator: Adobe Illustrator 18.1.0, SVG Export Plug-In . SVG Version: 6.00 Build 0)  -->
<svg version="1.1" id="Layer_1" xmlns="http://www.w3.org/2000/svg" xmlns:xlink="http://www.w3.org/1999/xlink" x="0px" y="0px"
	 viewBox="0 0 208 173" enable-background="new 0 0 208 173" xml:space="preserve">
<g>
	<g>
		<defs>
			<rect id="SVGID_1_" x="35.9" y="0.1" width="136.3" height="136.3"/>
		</defs>
		<clipPath id="SVGID_2_">
			<use xlink:href="#SVGID_1_"  overflow="visible"/>
		</clipPath>
		<g clip-path="url(#SVGID_2_)">
			<defs>
				<path id="SVGID_3_" d="M63.1,0.1c-7.5,0-14.3,3.1-19.2,8c-4.9,4.9-8,11.8-8,19.2v4.8v70.5v6.5c0,7.5,3.1,14.3,8,19.2
					c4.9,4.9,11.8,8,19.3,8H70h67.6h7.4c7.5,0,14.3-3.1,19.3-8c4.9-4.9,8-11.8,8-19.2V27.4c0-7.5-3.1-14.3-8-19.3
					c-4.9-4.9-11.8-8-19.2-8H63.1z"/>
			</defs>
			<clipPath id="SVGID_4_">
				<use xlink:href="#SVGID_3_"  overflow="visible"/>
			</clipPath>
			<g clip-path="url(#SVGID_4_)">
				<g>
					<defs>
						<rect id="SVGID_5_" x="35.8" y="0" width="136.3" height="136.3"/>
					</defs>
					<clipPath id="SVGID_6_">
						<use xlink:href="#SVGID_5_"  overflow="visible"/>
					</clipPath>
					<g clip-path="url(#SVGID_6_)">
						<defs>
							<rect id="SVGID_7_" x="35.8" y="0" width="136.3" height="136.3"/>
						</defs>
						<clipPath id="SVGID_8_">
							<use xlink:href="#SVGID_7_"  overflow="visible"/>
						</clipPath>
						<g clip-path="url(#SVGID_8_)">
							
								<image overflow="visible" width="284" height="284" xlink:href="DD88488B.jpg"  transform="matrix(0.48 0 0 0.48 35.7808 2.742004e-002)">
							</image>
						</g>
					</g>
				</g>
			</g>
		</g>
		<g clip-path="url(#SVGID_2_)">
			<defs>
				<rect id="SVGID_9_" x="35.9" y="0.1" width="136.3" height="136.3"/>
			</defs>
			<clipPath id="SVGID_10_">
				<use xlink:href="#SVGID_9_"  overflow="visible"/>
			</clipPath>
			<path clip-path="url(#SVGID_10_)" fill="#CA6C38" d="M75.4,68.3c0-5.9-4.8-10.6-10.6-10.6c-5.9,0-10.6,4.8-10.6,10.6
				s4.8,10.6,10.6,10.6C70.7,78.9,75.4,74.1,75.4,68.3"/>
			<path clip-path="url(#SVGID_10_)" fill="#CA6C38" d="M153.8,68.3c0-5.9-4.8-10.6-10.6-10.6c-5.9,0-10.6,4.8-10.6,10.6
				s4.8,10.6,10.6,10.6C149.1,78.9,153.8,74.1,153.8,68.3"/>
			<path clip-path="url(#SVGID_10_)" fill="#FFFFFF" d="M104,117.2c-23.1,0-32-12.2-32-18.4c0-1.7,1.4-3.1,3.1-3.1H133
				c1.7,0,3.1,1.4,3.1,3.1C136,105.1,127.1,117.2,104,117.2"/>
			<g opacity="0.7" clip-path="url(#SVGID_10_)">
				<g>
					<defs>
						<rect id="SVGID_11_" x="40.5" y="4.7" width="127.1" height="63.5"/>
					</defs>
					<clipPath id="SVGID_12_">
						<use xlink:href="#SVGID_11_"  overflow="visible"/>
					</clipPath>
					<g clip-path="url(#SVGID_12_)">
						<defs>
							<path id="SVGID_13_" d="M167.5,68.3V27.4c0-12.5-10.2-22.7-22.7-22.7H63.1c-12.5,0-22.7,10.2-22.7,22.7v40.9H167.5z"/>
						</defs>
						<clipPath id="SVGID_14_">
							<use xlink:href="#SVGID_13_"  overflow="visible"/>
						</clipPath>
						<defs>
							<filter id="Adobe_OpacityMaskFilter" filterUnits="userSpaceOnUse" x="40.5" y="4.7" width="127.1" height="63.5">
								<feColorMatrix  type="matrix" values="1 0 0 0 0  0 1 0 0 0  0 0 1 0 0  0 0 0 1 0"/>
							</filter>
						</defs>
						<mask maskUnits="userSpaceOnUse" x="40.5" y="4.7" width="127.1" height="63.5" id="SVGID_15_">
							<g filter="url(#Adobe_OpacityMaskFilter)">
								
									<linearGradient id="SVGID_16_" gradientUnits="userSpaceOnUse" x1="-1176.7985" y1="812.1001" x2="-1176.4919" y2="812.1001" gradientTransform="matrix(0 207.2222 207.2222 0 -168181.1719 243863.5)">
									<stop  offset="0" style="stop-color:#FFFFFF"/>
									<stop  offset="0.1702" style="stop-color:#C6C6C6"/>
									<stop  offset="0.3969" style="stop-color:#808080"/>
									<stop  offset="0.6015" style="stop-color:#494949"/>
									<stop  offset="0.7765" style="stop-color:#212121"/>
									<stop  offset="0.9151" style="stop-color:#090909"/>
									<stop  offset="1" style="stop-color:#000000"/>
								</linearGradient>
								<rect x="40.5" y="4.7" clip-path="url(#SVGID_14_)" fill="url(#SVGID_16_)" width="127.1" height="63.5"/>
							</g>
						</mask>
						
							<linearGradient id="SVGID_17_" gradientUnits="userSpaceOnUse" x1="-1176.7985" y1="812.1001" x2="-1176.4919" y2="812.1001" gradientTransform="matrix(0 207.2222 207.2222 0 -168181.1719 243863.5)">
							<stop  offset="0" style="stop-color:#FFFFFF"/>
							<stop  offset="1" style="stop-color:#FFFFFF"/>
						</linearGradient>
						
							<rect x="40.5" y="4.7" clip-path="url(#SVGID_14_)" mask="url(#SVGID_15_)" fill="url(#SVGID_17_)" width="127.1" height="63.5"/>
					</g>
				</g>
			</g>
		</g>
	</g>
	<g>
		<ellipse opacity="0.35" fill="#FFFFFF" cx="104" cy="157" rx="103.7" ry="15.9"/>
		<ellipse opacity="0.3627" fill="#FDFDFE" cx="104" cy="157" rx="102.1" ry="15.6"/>
		<ellipse opacity="0.3755" fill="#FBFBFC" cx="104" cy="157" rx="100.5" ry="15.3"/>
		<ellipse opacity="0.3882" fill="#F9FAFB" cx="104.1" cy="157" rx="99" ry="15"/>
		<ellipse opacity="0.401" fill="#F7F8FA" cx="104.1" cy="157" rx="97.4" ry="14.7"/>
		<ellipse opacity="0.4137" fill="#F6F7F9" cx="104.1" cy="157" rx="95.9" ry="14.4"/>
		<ellipse opacity="0.4265" fill="#F4F6F8" cx="104.1" cy="157" rx="94.3" ry="14.1"/>
		<ellipse opacity="0.4392" fill="#F3F5F7" cx="104.1" cy="157" rx="92.8" ry="13.8"/>
		<ellipse opacity="0.452" fill="#F2F4F6" cx="104.2" cy="157" rx="91.2" ry="13.5"/>
		<ellipse opacity="0.4647" fill="#F0F2F5" cx="104.2" cy="157" rx="89.7" ry="13.2"/>
		<ellipse opacity="0.4775" fill="#EFF1F4" cx="104.2" cy="157" rx="88.1" ry="12.9"/>
		<ellipse opacity="0.4902" fill="#EEF0F3" cx="104.2" cy="157" rx="86.6" ry="12.6"/>
		<ellipse opacity="0.5029" fill="#ECEFF2" cx="104.2" cy="157" rx="85" ry="12.3"/>
		<ellipse opacity="0.5157" fill="#EBEEF2" cx="104.3" cy="157" rx="83.5" ry="12"/>
		<ellipse opacity="0.5284" fill="#EAEDF1" cx="104.3" cy="157" rx="81.9" ry="11.7"/>
		<ellipse opacity="0.5412" fill="#E9ECF0" cx="104.3" cy="157" rx="80.4" ry="11.4"/>
		<ellipse opacity="0.5539" fill="#E7EBEF" cx="104.3" cy="157" rx="78.8" ry="11.1"/>
		<ellipse opacity="0.5667" fill="#E6EAEF" cx="104.3" cy="157" rx="77.3" ry="10.8"/>
		<ellipse opacity="0.5794" fill="#E5E9EE" cx="104.4" cy="157" rx="75.7" ry="10.5"/>
		<ellipse opacity="0.5922" fill="#E4E9ED" cx="104.4" cy="157" rx="74.1" ry="10.2"/>
		<ellipse opacity="0.6049" fill="#E2E8ED" cx="104.4" cy="157" rx="72.6" ry="9.9"/>
		<ellipse opacity="0.6176" fill="#E1E7EC" cx="104.4" cy="157" rx="71" ry="9.6"/>
		<ellipse opacity="0.6304" fill="#E0E6EB" cx="104.4" cy="157" rx="69.5" ry="9.3"/>
		<ellipse opacity="0.6431" fill="#DFE5EA" cx="104.5" cy="157" rx="67.9" ry="9.1"/>
		<ellipse opacity="0.6559" fill="#DDE4EA" cx="104.5" cy="157" rx="66.4" ry="8.8"/>
		<ellipse opacity="0.6686" fill="#DCE3E9" cx="104.5" cy="157" rx="64.8" ry="8.5"/>
		<ellipse opacity="0.6814" fill="#DBE2E8" cx="104.5" cy="157" rx="63.3" ry="8.2"/>
		<ellipse opacity="0.6941" fill="#DAE1E8" cx="104.5" cy="157" rx="61.7" ry="7.9"/>
		<ellipse opacity="0.7069" fill="#D8E0E7" cx="104.6" cy="157" rx="60.2" ry="7.6"/>
		<ellipse opacity="0.7196" fill="#D7DFE6" cx="104.6" cy="157" rx="58.6" ry="7.3"/>
		<ellipse opacity="0.7324" fill="#D6DEE6" cx="104.6" cy="157" rx="57.1" ry="7"/>
		<ellipse opacity="0.7451" fill="#D5DEE5" cx="104.6" cy="157" rx="55.5" ry="6.7"/>
		<ellipse opacity="0.7578" fill="#D4DDE5" cx="104.6" cy="157" rx="54" ry="6.4"/>
		<ellipse opacity="0.7706" fill="#D2DCE4" cx="104.7" cy="157" rx="52.4" ry="6.1"/>
		<ellipse opacity="0.7833" fill="#D1DBE3" cx="104.7" cy="157" rx="50.8" ry="5.8"/>
		<ellipse opacity="0.7961" fill="#D0DAE3" cx="104.7" cy="157" rx="49.3" ry="5.5"/>
		<ellipse opacity="0.8088" fill="#CFD9E2" cx="104.7" cy="157" rx="47.7" ry="5.2"/>
		<ellipse opacity="0.8216" fill="#CED8E1" cx="104.7" cy="157" rx="46.2" ry="4.9"/>
		<ellipse opacity="0.8343" fill="#CCD7E1" cx="104.8" cy="157" rx="44.6" ry="4.6"/>
		<ellipse opacity="0.8471" fill="#CBD7E0" cx="104.8" cy="157" rx="43.1" ry="4.3"/>
		<ellipse opacity="0.8598" fill="#CAD6DF" cx="104.8" cy="157" rx="41.5" ry="4"/>
		<ellipse opacity="0.8725" fill="#C9D5DF" cx="104.8" cy="157" rx="40" ry="3.7"/>
		<ellipse opacity="0.8853" fill="#C8D4DE" cx="104.8" cy="157" rx="38.4" ry="3.4"/>
		<ellipse opacity="0.898" fill="#C6D3DD" cx="104.9" cy="157" rx="36.9" ry="3.1"/>
		<ellipse opacity="0.9108" fill="#C5D2DD" cx="104.9" cy="157" rx="35.3" ry="2.8"/>
		<ellipse opacity="0.9235" fill="#C4D1DC" cx="104.9" cy="157" rx="33.8" ry="2.5"/>
		<ellipse opacity="0.9363" fill="#C3D1DC" cx="104.9" cy="157" rx="32.2" ry="2.2"/>
		<ellipse opacity="0.949" fill="#C2D0DB" cx="105" cy="157" rx="30.7" ry="1.9"/>
		<ellipse opacity="0.9618" fill="#C1CFDA" cx="105" cy="157" rx="29.1" ry="1.6"/>
		<ellipse opacity="0.9745" fill="#BFCEDA" cx="105" cy="157" rx="27.6" ry="1.3"/>
		<ellipse opacity="0.9873" fill="#BECDD9" cx="105" cy="157" rx="26" ry="1"/>
		<ellipse fill="#BDCCD9" cx="105" cy="157" rx="24.4" ry="0.7"/>
	</g>
</g>
</svg>
