<?xml version="1.0" encoding="utf-8"?>
<!-- Generator: Adobe Illustrator 16.0.0, SVG Export Plug-In . SVG Version: 6.00 Build 0)  -->
<!DOCTYPE svg PUBLIC "-//W3C//DTD SVG 1.1//EN" "http://www.w3.org/Graphics/SVG/1.1/DTD/svg11.dtd">
<svg version="1.1" id="Layer_1" xmlns="http://www.w3.org/2000/svg" xmlns:xlink="http://www.w3.org/1999/xlink" x="0px" y="0px"
	 width="273px" height="273px" viewBox="0 0 273 273" enable-background="new 0 0 273 273" xml:space="preserve">
<g>
	<g opacity="0.4">
		<g>
			<path fill="#BCBCBC" d="M269.923,143.83l2.867,0.153c-0.002,0,0.044-0.465,0.051-1.167c0.019-0.701,0.042-1.636,0.065-2.569
				c0.046-1.869,0.094-3.738,0.094-3.738h-2.868c0,0-0.047,1.83-0.095,3.659c-0.021,0.917-0.044,1.832-0.061,2.52
				C269.968,143.374,269.923,143.83,269.923,143.83z"/>
			<path fill="#BCBCBC" d="M268.868,154.682l2.843,0.388c0,0,0.236-1.856,0.472-3.711c0.138-0.926,0.18-1.86,0.239-2.561
				c0.053-0.698,0.089-1.164,0.089-1.164l-2.859-0.231c0,0-0.036,0.458-0.087,1.143c-0.057,0.684-0.098,1.598-0.234,2.504
				C269.1,152.866,268.868,154.682,268.868,154.682z"/>
			<path fill="#BCBCBC" d="M266.963,165.414l2.801,0.618c0,0,0.105-0.455,0.262-1.139c0.176-0.68,0.335-1.602,0.495-2.522
				c0.33-1.841,0.659-3.683,0.659-3.683l-2.833-0.461c0,0-0.32,1.801-0.644,3.604c-0.157,0.9-0.312,1.804-0.483,2.469
				C267.063,164.969,266.963,165.414,266.963,165.414z"/>
			<path fill="#BCBCBC" d="M264.204,175.964l2.743,0.846c0,0,0.511-1.798,1.021-3.598c0.256-0.898,0.511-1.8,0.702-2.474
				c0.162-0.683,0.27-1.137,0.27-1.137l-2.785-0.694c0,0-0.105,0.445-0.262,1.113c-0.188,0.662-0.438,1.541-0.688,2.423
				C264.706,174.202,264.204,175.964,264.204,175.964z"/>
			<path fill="#BCBCBC" d="M260.537,186.229l2.663,1.069c0,0,0.687-1.74,1.372-3.481c0.636-1.758,1.218-3.536,1.216-3.536
				l-2.716-0.919c0,0-0.569,1.74-1.191,3.462C261.21,184.526,260.537,186.229,260.537,186.229z"/>
			<path fill="#BCBCBC" d="M256.072,196.176l2.566,1.282c0,0,0.214-0.415,0.531-1.04c0.338-0.617,0.709-1.475,1.096-2.325
				c0.771-1.703,1.541-3.41,1.541-3.41l-2.635-1.139c0,0-0.753,1.668-1.508,3.336c-0.378,0.835-0.74,1.676-1.068,2.277
				C256.28,195.77,256.072,196.176,256.072,196.176z"/>
			<path fill="#BCBCBC" d="M250.832,205.733l2.453,1.489c0,0,0.932-1.621,1.863-3.242c0.467-0.811,0.931-1.62,1.282-2.229
				c0.336-0.615,0.539-1.035,0.539-1.035l-2.531-1.353c0,0-0.199,0.411-0.527,1.015c-0.344,0.594-0.799,1.388-1.255,2.182
				C251.744,204.146,250.832,205.733,250.832,205.733z"/>
		</g>
		<g>
			<path fill="#BCBCBC" d="M244.774,214.803l2.322,1.683c0,0,1.085-1.522,2.168-3.048c0.559-0.75,1.027-1.563,1.417-2.146
				c0.378-0.589,0.63-0.984,0.63-0.984l-2.413-1.555c0,0-0.245,0.387-0.615,0.966c-0.383,0.57-0.839,1.365-1.387,2.101
				C245.837,213.311,244.774,214.803,244.774,214.803z"/>
			<path fill="#BCBCBC" d="M238.024,223.363l2.18,1.867c0,0,0.306-0.353,0.768-0.884c0.464-0.524,1.068-1.237,1.635-1.981
				c1.157-1.47,2.311-2.942,2.311-2.942l-2.278-1.744c0,0-1.13,1.439-2.262,2.88c-0.553,0.729-1.146,1.427-1.603,1.94
				C238.324,223.018,238.024,223.363,238.024,223.363z"/>
			<path fill="#BCBCBC" d="M230.622,231.368l2.023,2.037c0,0,0.348-0.314,0.822-0.828c0.483-0.508,1.129-1.185,1.775-1.862
				c0.646-0.677,1.29-1.353,1.774-1.86c0.489-0.5,0.792-0.859,0.792-0.859l-2.129-1.924c0,0-0.296,0.352-0.774,0.842
				c-0.475,0.496-1.106,1.159-1.737,1.822c-0.633,0.662-1.266,1.325-1.738,1.822C230.965,231.063,230.622,231.368,230.622,231.368z"
				/>
			<path fill="#BCBCBC" d="M222.569,238.719l1.852,2.195c0,0,1.411-1.226,2.824-2.45c0.354-0.306,0.707-0.611,1.039-0.898
				c0.315-0.303,0.611-0.584,0.864-0.826c0.509-0.482,0.847-0.807,0.847-0.807l-1.966-2.09c0,0-0.331,0.316-0.828,0.789
				c-0.248,0.237-0.538,0.514-0.848,0.81c-0.324,0.28-0.673,0.581-1.018,0.882C223.954,237.521,222.569,238.719,222.569,238.719z"/>
			<path fill="#BCBCBC" d="M213.951,245.393l1.665,2.338c0,0,0.38-0.272,0.951-0.679c0.565-0.416,1.352-0.925,2.079-1.512
				c1.47-1.157,2.94-2.313,2.94-2.313l-1.79-2.241c0,0-1.438,1.131-2.879,2.261c-0.711,0.576-1.483,1.074-2.035,1.483
				C214.323,245.128,213.951,245.393,213.951,245.393z"/>
			<path fill="#BCBCBC" d="M204.832,251.369l1.468,2.465c0,0,0.405-0.234,1.014-0.585c0.59-0.378,1.378-0.883,2.162-1.387
				c1.575-1.01,3.15-2.019,3.15-2.019l-1.604-2.38c0,0-1.538,0.987-3.081,1.975c-0.771,0.493-1.541,0.987-2.117,1.357
				C205.228,251.141,204.832,251.369,204.832,251.369z"/>
			<path fill="#BCBCBC" d="M195.251,256.567l1.265,2.577c0,0,1.664-0.853,3.328-1.705c1.68-0.82,3.286-1.781,3.286-1.781
				l-1.403-2.505c0,0-1.571,0.942-3.216,1.745C196.882,255.734,195.251,256.567,195.251,256.567z"/>
		</g>
		<g>
			<path fill="#BCBCBC" d="M185.267,260.944l1.049,2.671c0,0,1.738-0.688,3.476-1.38c1.705-0.771,3.407-1.541,3.407-1.541
				l-1.194-2.609c0,0-1.666,0.756-3.335,1.509C186.967,260.27,185.267,260.944,185.267,260.944z"/>
			<path fill="#BCBCBC" d="M174.971,264.519l0.825,2.747c0,0,0.447-0.126,1.122-0.318c0.673-0.208,1.553-0.52,2.439-0.815
				c1.771-0.601,3.543-1.2,3.543-1.2l-0.976-2.698c0,0-1.733,0.586-3.467,1.174c-0.867,0.289-1.732,0.595-2.388,0.798
				C175.412,264.394,174.971,264.519,174.971,264.519z"/>
			<path fill="#BCBCBC" d="M164.413,267.226l0.595,2.808c0,0,1.824-0.42,3.645-0.841c1.832-0.387,3.624-0.926,3.624-0.926
				l-0.751-2.77c0,0-1.753,0.528-3.546,0.905C166.196,266.813,164.413,267.226,164.413,267.226z"/>
			<path fill="#BCBCBC" d="M153.662,269.033l0.365,2.847c0,0,0.464-0.061,1.16-0.148c0.692-0.1,1.626-0.183,2.545-0.348
				c1.841-0.328,3.681-0.657,3.681-0.657l-0.52-2.82c0,0-1.802,0.32-3.604,0.643c-0.899,0.16-1.813,0.243-2.492,0.339
				C154.117,268.975,153.662,269.033,153.662,269.033z"/>
			<path fill="#BCBCBC" d="M142.805,270.008l0.134,2.868c0,0,0.469,0.004,1.167-0.061c0.698-0.052,1.629-0.124,2.563-0.193
				c1.863-0.144,3.728-0.285,3.728-0.285l-0.289-2.854c0,0-1.825,0.138-3.649,0.277c-0.913,0.069-1.825,0.14-2.511,0.19
				C143.262,270.014,142.805,270.009,142.805,270.008z"/>
			<path fill="#BCBCBC" d="M131.9,270.052l-0.096,2.868c0,0,1.868,0.047,3.737,0.093c0.934,0.045,1.868-0.002,2.57-0.016
				c0.7-0.018,1.169-0.029,1.169-0.029l-0.059-2.868c0,0-0.457,0.011-1.143,0.028c-0.687,0.013-1.604,0.06-2.518,0.017
				C133.73,270.099,131.9,270.052,131.9,270.052z"/>
			<path fill="#BCBCBC" d="M121.032,269.25l-0.329,2.85c0,0,1.851,0.273,3.719,0.377c1.864,0.142,3.728,0.283,3.728,0.283
				l0.173-2.864c0,0-1.826-0.139-3.65-0.277C122.842,269.518,121.032,269.25,121.032,269.25z"/>
		</g>
		<g>
			<path fill="#BCBCBC" d="M110.257,267.577l-0.561,2.814c0,0,1.841,0.329,3.682,0.656c0.921,0.161,1.839,0.34,2.533,0.441
				c0.695,0.09,1.159,0.149,1.159,0.149l0.405-2.842c0,0-0.454-0.057-1.135-0.143c-0.679-0.102-1.577-0.277-2.479-0.433
				C112.059,267.897,110.257,267.577,110.257,267.577z"/>
			<path fill="#BCBCBC" d="M99.669,264.987l-0.789,2.759c0,0,1.8,0.508,3.599,1.016c1.823,0.422,3.644,0.843,3.644,0.843
				l0.637-2.799c0,0-1.784-0.412-3.567-0.824C101.431,265.484,99.669,264.987,99.669,264.987z"/>
			<path fill="#BCBCBC" d="M89.319,261.573l-1.013,2.685c0,0,0.436,0.173,1.088,0.429c0.658,0.241,1.547,0.53,2.433,0.833
				c1.771,0.599,3.542,1.199,3.542,1.199l0.863-2.737c0,0-1.733-0.586-3.466-1.174c-0.866-0.296-1.737-0.577-2.382-0.814
				C89.745,261.74,89.319,261.573,89.319,261.573z"/>
			<path fill="#BCBCBC" d="M79.283,257.315l-1.23,2.592c0,0,1.704,0.771,3.407,1.542c1.69,0.803,3.439,1.466,3.439,1.467
				l1.085-2.657c0-0.001-1.712-0.649-3.366-1.437C80.951,258.069,79.283,257.315,79.283,257.315z"/>
			<path fill="#BCBCBC" d="M69.646,252.223l-1.438,2.484c0,0,1.621,0.931,3.243,1.862c1.664,0.854,3.328,1.706,3.328,1.706
				l1.3-2.561c0,0-1.63-0.832-3.259-1.667C71.233,253.137,69.646,252.223,69.646,252.223z"/>
			<path fill="#BCBCBC" d="M60.438,246.387l-1.636,2.356c0,0,1.51,1.104,3.104,2.087c1.574,1.008,3.148,2.019,3.148,2.019
				l1.503-2.444c0,0-1.541-0.989-3.082-1.977C61.915,247.468,60.438,246.387,60.438,246.387z"/>
			<path fill="#BCBCBC" d="M51.728,239.832l-1.822,2.218c0,0,1.47,1.154,2.94,2.312c0.736,0.576,1.472,1.152,2.022,1.585
				c0.572,0.406,0.953,0.679,0.953,0.679l1.698-2.315c0,0-0.373-0.266-0.933-0.662c-0.541-0.424-1.26-0.988-1.98-1.553
				C53.167,240.963,51.728,239.832,51.728,239.832z"/>
		</g>
		<g>
			<path fill="#BCBCBC" d="M43.608,232.552l-1.995,2.063c0,0,1.354,1.289,2.707,2.58c0.672,0.649,1.403,1.234,1.925,1.702
				c0.53,0.46,0.884,0.767,0.884,0.767l1.879-2.168c0,0-0.346-0.3-0.864-0.75c-0.512-0.459-1.229-1.029-1.886-1.668
				C44.934,233.816,43.608,232.552,43.608,232.552z"/>
			<path fill="#BCBCBC" d="M36.088,224.658l-2.155,1.895c0,0,0.307,0.354,0.765,0.885c0.449,0.538,1.08,1.229,1.734,1.896
				c1.289,1.354,2.58,2.707,2.58,2.707l2.049-2.008c0,0-1.263-1.324-2.526-2.65c-0.641-0.653-1.259-1.33-1.696-1.857
				C36.388,225.005,36.088,224.658,36.088,224.658z"/>
			<path fill="#BCBCBC" d="M29.211,216.199l-2.302,1.714c0,0,0.269,0.383,0.708,0.93c0.434,0.551,1.012,1.285,1.588,2.021
				c0.578,0.735,1.156,1.471,1.589,2.021c0.426,0.558,0.744,0.903,0.744,0.9l2.205-1.836c0,0-0.312-0.334-0.727-0.883
				c-0.424-0.538-0.99-1.258-1.555-1.979c-0.566-0.72-1.132-1.439-1.556-1.98C29.474,216.575,29.211,216.199,29.211,216.199z"/>
			<path fill="#BCBCBC" d="M23.083,207.181l-2.434,1.521c0,0,1.009,1.574,2.018,3.147c0.491,0.796,1.032,1.56,1.443,2.127
				c0.406,0.571,0.677,0.952,0.677,0.952l2.348-1.649c0,0-0.266-0.374-0.664-0.933c-0.403-0.556-0.932-1.304-1.412-2.082
				C24.071,208.722,23.083,207.181,23.083,207.181z"/>
			<path fill="#BCBCBC" d="M17.701,197.7l-2.55,1.316c0,0,0.214,0.416,0.533,1.041c0.328,0.62,0.725,1.468,1.208,2.269
				c0.933,1.621,1.864,3.244,1.864,3.244l2.473-1.454c0,0-0.911-1.588-1.825-3.176c-0.474-0.782-0.862-1.614-1.182-2.222
				C17.91,198.108,17.701,197.7,17.701,197.7z"/>
			<path fill="#BCBCBC" d="M13.082,187.825l-2.648,1.101c0,0,0.154,0.442,0.446,1.082c0.289,0.638,0.674,1.49,1.059,2.343
				c0.772,1.702,1.544,3.407,1.544,3.407l2.583-1.248c0,0-0.755-1.668-1.51-3.335c-0.377-0.835-0.753-1.668-1.037-2.293
				C13.233,188.259,13.082,187.825,13.082,187.825z"/>
			<path fill="#BCBCBC" d="M9.322,177.593l-2.73,0.883c0,0,0.6,1.771,1.198,3.541c0.292,0.89,0.602,1.771,0.874,2.418
				c0.256,0.653,0.428,1.088,0.428,1.088l2.678-1.031c0,0-0.167-0.425-0.419-1.063c-0.267-0.632-0.57-1.495-0.855-2.366
				C9.908,179.327,9.322,177.593,9.322,177.593z"/>
		</g>
		<g>
			<path fill="#BCBCBC" d="M6.416,167.084l-2.794,0.655c0,0,0.105,0.456,0.263,1.139c0.169,0.681,0.339,1.601,0.616,2.495
				c0.511,1.799,1.021,3.6,1.021,3.6l2.754-0.807c0,0-0.5-1.761-1-3.523c-0.271-0.875-0.437-1.777-0.603-2.443
				C6.519,167.53,6.416,167.084,6.416,167.084z"/>
			<path fill="#BCBCBC" d="M4.34,156.383l-2.838,0.422c0,0,0.047,0.466,0.181,1.155c0.124,0.689,0.288,1.61,0.452,2.531
				c0.164,0.92,0.329,1.841,0.452,2.532c0.122,0.689,0.213,1.15,0.213,1.15l2.81-0.58c0,0-0.089-0.449-0.208-1.124
				c-0.121-0.676-0.281-1.578-0.442-2.479c-0.161-0.901-0.322-1.804-0.442-2.479C4.385,156.838,4.34,156.383,4.34,156.383z"/>
			<path fill="#BCBCBC" d="M3.199,145.539l-2.863,0.191c0,0,0.142,1.865,0.284,3.729c0.052,0.934,0.187,1.859,0.273,2.556
				c0.088,0.695,0.147,1.16,0.147,1.16l2.848-0.348c0,0-0.058-0.453-0.145-1.135c-0.084-0.682-0.217-1.588-0.268-2.502
				C3.337,147.364,3.199,145.539,3.199,145.539z"/>
			<path fill="#BCBCBC" d="M2.908,134.639L0.04,134.6c0,0-0.088,1.868-0.002,3.738c0.047,1.868,0.094,3.737,0.094,3.737l2.868-0.116
				c0,0-0.046-1.83-0.093-3.659C2.821,136.468,2.908,134.639,2.908,134.639z"/>
			<path fill="#BCBCBC" d="M3.482,123.75l-2.856-0.271c0,0-0.142,1.865-0.283,3.73c-0.065,0.932-0.156,1.864-0.18,2.564
				c-0.018,0.701-0.031,1.168-0.031,1.168l2.868,0.115c0,0,0.011-0.458,0.028-1.144c0.024-0.687,0.114-1.598,0.177-2.511
				C3.343,125.575,3.482,123.75,3.482,123.75z"/>
			<path fill="#BCBCBC" d="M4.973,112.948l-2.825-0.503c0,0-0.082,0.46-0.205,1.151c-0.114,0.691-0.308,1.607-0.432,2.534
				c-0.235,1.855-0.472,3.71-0.472,3.71l2.848,0.347c0,0,0.23-1.815,0.461-3.632c0.12-0.908,0.311-1.804,0.423-2.481
				C4.893,113.398,4.973,112.948,4.973,112.948z"/>
			<path fill="#BCBCBC" d="M7.296,102.299l-2.774-0.733c0,0-0.144,0.447-0.304,1.128c-0.158,0.684-0.368,1.595-0.578,2.506
				c-0.42,1.822-0.84,3.644-0.84,3.644l2.81,0.579c0,0,0.411-1.783,0.823-3.567c0.206-0.892,0.411-1.784,0.565-2.453
				C7.157,102.735,7.296,102.299,7.296,102.299z"/>
		</g>
		<g>
			<path fill="#BCBCBC" d="M10.52,91.882l-2.705-0.958c0,0-0.599,1.772-1.198,3.543c-0.308,0.884-0.599,1.772-0.775,2.452
				c-0.191,0.675-0.319,1.124-0.319,1.124l2.754,0.807c0,0,0.125-0.439,0.313-1.101c0.172-0.665,0.456-1.535,0.758-2.399
				C9.933,93.616,10.52,91.882,10.52,91.882z"/>
			<path fill="#BCBCBC" d="M14.589,81.768l-2.617-1.176c0,0-0.193,0.427-0.481,1.065c-0.275,0.645-0.705,1.479-1.028,2.357
				c-0.686,1.739-1.372,3.479-1.372,3.479l2.677,1.031c0,0,0.672-1.703,1.343-3.407c0.315-0.86,0.737-1.675,1.006-2.307
				C14.4,82.187,14.589,81.768,14.589,81.768z"/>
			<path fill="#BCBCBC" d="M19.443,72.009l-2.512-1.387c0,0-0.243,0.4-0.572,1.02c-0.319,0.624-0.746,1.456-1.172,2.289
				c-0.853,1.665-1.705,3.329-1.705,3.329l2.583,1.247c0,0,0.835-1.629,1.669-3.259c0.418-0.815,0.834-1.63,1.147-2.241
				C19.205,72.4,19.443,72.009,19.443,72.009z"/>
			<path fill="#BCBCBC" d="M25.1,62.687L22.71,61.1c0,0-1.009,1.574-2.018,3.148c-0.504,0.788-1.019,1.568-1.353,2.185
				c-0.35,0.608-0.583,1.014-0.583,1.014l2.473,1.454c0,0,0.229-0.397,0.571-0.993c0.327-0.604,0.831-1.368,1.325-2.139
				C24.113,64.228,25.1,62.687,25.1,62.687z"/>
			<path fill="#BCBCBC" d="M31.508,53.866l-2.254-1.776c0,0-1.15,1.474-2.3,2.949c-1.084,1.524-2.167,3.048-2.167,3.048l2.348,1.651
				c0,0,1.06-1.492,2.121-2.985C30.381,55.311,31.508,53.866,31.508,53.866z"/>
			<path fill="#BCBCBC" d="M38.588,45.576l-2.101-1.953c0,0-0.323,0.338-0.807,0.846c-0.482,0.509-1.079,1.23-1.695,1.932
				c-1.224,1.414-2.448,2.828-2.448,2.828l2.205,1.835c0,0,1.199-1.384,2.397-2.768c0.604-0.687,1.188-1.394,1.66-1.892
				C38.273,45.908,38.588,45.576,38.588,45.576z"/>
			<path fill="#BCBCBC" d="M46.313,37.884l-1.937-2.117c0,0-1.354,1.291-2.706,2.58c-0.673,0.648-1.36,1.283-1.853,1.782
				c-0.484,0.508-0.807,0.846-0.807,0.846l2.049,2.009c0,0,0.316-0.332,0.79-0.829c0.482-0.489,1.155-1.109,1.814-1.745
				C44.989,39.147,46.313,37.884,46.313,37.884z"/>
		</g>
		<g>
			<path fill="#BCBCBC" d="M54.667,30.874l-1.759-2.268c0,0-1.469,1.156-2.94,2.312c-1.437,1.196-2.838,2.434-2.838,2.434
				l1.879,2.168c0,0,1.372-1.212,2.778-2.384C53.227,32.005,54.667,30.874,54.667,30.874z"/>
			<path fill="#BCBCBC" d="M63.541,24.545l-1.568-2.403c0,0-0.394,0.252-0.984,0.631c-0.6,0.365-1.363,0.905-2.122,1.451
				c-1.523,1.084-3.047,2.169-3.047,2.169l1.697,2.312c0,0,1.492-1.061,2.984-2.122c0.744-0.535,1.49-1.064,2.077-1.421
				C63.157,24.792,63.541,24.545,63.541,24.545z"/>
			<path fill="#BCBCBC" d="M72.887,18.933l-1.367-2.522c0,0-1.623,0.93-3.245,1.86c-0.811,0.467-1.621,0.932-2.229,1.282
				c-0.609,0.347-0.993,0.614-0.993,0.614l1.503,2.445c0,0,0.376-0.263,0.973-0.603c0.595-0.342,1.389-0.798,2.182-1.254
				C71.3,19.844,72.887,18.933,72.887,18.933z"/>
			<path fill="#BCBCBC" d="M82.689,14.16l-1.156-2.626c0,0-1.704,0.771-3.408,1.541c-0.86,0.367-1.679,0.819-2.306,1.132
				c-0.625,0.32-1.041,0.533-1.041,0.533l1.3,2.559c0,0,0.407-0.208,1.018-0.521c0.614-0.308,1.416-0.751,2.258-1.11
				C81.022,14.915,82.689,14.16,82.689,14.16z"/>
			<path fill="#BCBCBC" d="M92.837,10.184L91.9,7.471c0,0-0.443,0.15-1.107,0.375c-0.668,0.215-1.55,0.524-2.414,0.882
				c-1.74,0.687-3.479,1.373-3.479,1.373l1.085,2.656c0,0,1.703-0.671,3.406-1.344c0.846-0.351,1.709-0.653,2.363-0.864
				C92.403,10.33,92.837,10.184,92.837,10.184z"/>
			<path fill="#BCBCBC" d="M103.269,7.017l-0.711-2.781c0,0-0.452,0.117-1.126,0.311c-0.674,0.191-1.574,0.447-2.474,0.702
				c-0.899,0.256-1.798,0.511-2.473,0.703c-0.678,0.181-1.116,0.346-1.116,0.346l0.863,2.736c0,0,0.43-0.162,1.093-0.339
				c0.661-0.188,1.541-0.437,2.421-0.687c0.88-0.25,1.76-0.501,2.42-0.688C102.826,7.13,103.269,7.017,103.269,7.017z"/>
			<path fill="#BCBCBC" d="M113.936,4.782l-0.481-2.829c0,0-1.841,0.329-3.681,0.658c-0.924,0.144-1.828,0.392-2.513,0.539
				c-0.684,0.157-1.139,0.263-1.139,0.263l0.636,2.797c0,0,0.446-0.103,1.115-0.257c0.67-0.144,1.555-0.388,2.459-0.527
				C112.134,5.104,113.936,4.782,113.936,4.782z"/>
		</g>
		<g>
			<path fill="#BCBCBC" d="M124.749,3.393L124.5,0.533c0,0-0.466,0.036-1.165,0.089c-0.701,0.035-1.627,0.168-2.555,0.284
				c-1.855,0.236-3.71,0.471-3.71,0.471l0.405,2.841c0,0,1.816-0.23,3.632-0.461c0.909-0.113,1.814-0.245,2.501-0.278
				C124.292,3.427,124.749,3.393,124.749,3.393z"/>
			<path fill="#BCBCBC" d="M135.639,2.869L135.621,0c0,0-1.868,0.047-3.737,0.094c-0.934,0.026-1.87,0.053-2.57,0.073
				c-0.698,0.054-1.165,0.088-1.165,0.088l0.173,2.865c0,0,0.457-0.035,1.142-0.087c0.686-0.02,1.601-0.045,2.516-0.071
				C133.809,2.916,135.639,2.869,135.639,2.869z"/>
			<path fill="#BCBCBC" d="M146.533,3.262l0.213-2.86c0,0-0.467-0.036-1.165-0.09c-0.7-0.042-1.629-0.148-2.564-0.168
				c-1.87-0.048-3.737-0.095-3.737-0.095l-0.059,2.869c0,0,1.831,0.046,3.659,0.093c0.918,0.019,1.827,0.125,2.512,0.166
				C146.076,3.228,146.533,3.262,146.533,3.262z"/>
			<path fill="#BCBCBC" d="M157.368,4.48l0.444-2.835c0,0-0.458-0.097-1.156-0.174c-0.695-0.089-1.623-0.207-2.549-0.324
				c-1.855-0.234-3.712-0.469-3.712-0.469l-0.289,2.856c0,0,1.818,0.229,3.634,0.459c0.907,0.115,1.815,0.229,2.496,0.316
				C156.919,4.386,157.368,4.48,157.368,4.48z"/>
			<path fill="#BCBCBC" d="M168.055,6.631l0.674-2.79c0,0-1.82-0.421-3.646-0.841c-0.905-0.228-1.828-0.386-2.52-0.507
				c-0.688-0.123-1.15-0.206-1.15-0.206l-0.52,2.822c0,0,0.451,0.081,1.126,0.201c0.675,0.119,1.578,0.272,2.467,0.496
				C166.27,6.219,168.055,6.631,168.055,6.631z"/>
			<path fill="#BCBCBC" d="M178.531,9.634l0.902-2.724c0,0-0.442-0.15-1.105-0.374c-0.661-0.235-1.552-0.525-2.453-0.765
				c-1.802-0.511-3.599-1.022-3.599-1.022l-0.751,2.77c0,0,1.76,0.5,3.521,1c0.886,0.234,1.756,0.518,2.402,0.748
				C178.098,9.488,178.531,9.634,178.531,9.634z"/>
			<path fill="#BCBCBC" d="M188.737,13.453l1.124-2.641c0,0-0.428-0.188-1.083-0.44c-0.65-0.257-1.521-0.6-2.391-0.944
				c-0.87-0.343-1.739-0.685-2.393-0.942c-0.646-0.268-1.095-0.402-1.095-0.402l-0.976,2.698c0,0,0.439,0.132,1.073,0.395
				c0.638,0.252,1.49,0.588,2.341,0.924c0.851,0.335,1.702,0.671,2.34,0.923C188.321,13.269,188.737,13.454,188.737,13.453z"/>
		</g>
		<g>
			<path fill="#BCBCBC" d="M198.578,18.152l1.336-2.541c0,0-1.665-0.852-3.33-1.705c-0.823-0.443-1.682-0.814-2.322-1.104
				c-0.638-0.29-1.063-0.481-1.063-0.481l-1.194,2.609c0,0,0.419,0.188,1.044,0.471c0.623,0.284,1.466,0.646,2.272,1.081
				C196.949,17.317,198.578,18.152,198.578,18.152z"/>
			<path fill="#BCBCBC" d="M208.009,23.62l1.536-2.422c0,0-0.394-0.252-0.982-0.631c-0.591-0.378-1.371-0.894-2.191-1.345
				c-1.621-0.932-3.241-1.865-3.241-1.865l-1.405,2.504c0,0,1.588,0.913,3.175,1.825c0.804,0.44,1.566,0.946,2.146,1.316
				C207.622,23.373,208.009,23.62,208.009,23.62z"/>
			<path fill="#BCBCBC" d="M216.977,29.814l1.729-2.289c0,0-0.092-0.073-0.251-0.199c-0.158-0.13-0.393-0.306-0.68-0.505
				c-0.573-0.407-1.335-0.948-2.095-1.49c-0.763-0.542-1.525-1.083-2.097-1.49c-0.569-0.41-0.961-0.668-0.958-0.668l-1.604,2.381
				c0,0,0.384,0.253,0.94,0.654c0.559,0.397,1.307,0.929,2.051,1.459c0.747,0.53,1.491,1.061,2.052,1.458
				c0.282,0.196,0.511,0.367,0.664,0.495C216.888,29.744,216.977,29.814,216.977,29.814z"/>
			<path fill="#BCBCBC" d="M225.396,36.745l1.909-2.143c0,0-1.413-1.223-2.826-2.448c-0.7-0.618-1.411-1.223-1.974-1.644
				c-0.552-0.434-0.918-0.723-0.918-0.723l-1.79,2.243c0,0,0.358,0.283,0.899,0.707c0.55,0.412,1.246,1.004,1.932,1.61
				C224.014,35.546,225.396,36.745,225.396,36.745z"/>
			<path fill="#BCBCBC" d="M233.221,44.336l2.077-1.98c0,0-0.324-0.339-0.808-0.846c-0.489-0.501-1.113-1.2-1.787-1.846
				c-1.354-1.291-2.708-2.582-2.708-2.582l-1.966,2.091c0,0,1.324,1.263,2.651,2.527c0.66,0.633,1.271,1.317,1.75,1.807
				C232.905,44.005,233.221,44.336,233.221,44.336z"/>
			<path fill="#BCBCBC" d="M240.428,52.52l2.229-1.805c0,0-0.29-0.368-0.723-0.919c-0.458-0.532-1.067-1.24-1.677-1.949
				c-1.224-1.413-2.448-2.827-2.448-2.827l-2.129,1.924c0,0,1.197,1.384,2.396,2.767c0.599,0.694,1.195,1.388,1.642,1.908
				C240.144,52.159,240.428,52.52,240.428,52.52z"/>
			<path fill="#BCBCBC" d="M246.939,61.26l2.371-1.618c0,0-1.084-1.523-2.166-3.047c-0.551-0.757-1.069-1.535-1.506-2.084
				c-0.434-0.552-0.722-0.919-0.722-0.919l-2.278,1.745c0,0,0.284,0.36,0.708,0.899c0.426,0.538,0.935,1.299,1.472,2.041
				C245.878,59.768,246.939,61.26,246.939,61.26z"/>
		</g>
		<g>
			<path fill="#BCBCBC" d="M252.694,70.523l2.493-1.42c0,0-0.932-1.621-1.863-3.242c-1.007-1.577-2.013-3.153-2.013-3.153
				l-2.413,1.553c0,0,0.985,1.544,1.97,3.088C251.782,68.935,252.694,70.523,252.694,70.523z"/>
			<path fill="#BCBCBC" d="M257.697,80.208l2.603-1.21c0,0-0.739-1.72-1.624-3.369c-0.853-1.665-1.706-3.329-1.706-3.329
				l-2.531,1.351c0,0,0.837,1.63,1.671,3.26C256.978,78.523,257.697,80.208,257.697,80.208z"/>
			<path fill="#BCBCBC" d="M261.907,90.263l2.693-0.992c0,0-0.687-1.741-1.37-3.48c-0.344-0.87-0.688-1.74-0.945-2.393
				c-0.287-0.64-0.479-1.066-0.479-1.066l-2.635,1.14c0,0,0.189,0.418,0.471,1.044c0.254,0.639,0.588,1.49,0.924,2.342
				C261.237,88.56,261.907,90.263,261.907,90.263z"/>
			<path fill="#BCBCBC" d="M265.228,100.649l2.762-0.77c0,0-0.51-1.798-1.021-3.597c-0.563-1.783-1.179-3.549-1.181-3.549
				l-2.716,0.92c0,0,0.604,1.729,1.154,3.473C264.728,98.887,265.228,100.649,265.228,100.649z"/>
			<path fill="#BCBCBC" d="M267.718,111.26l2.817-0.539c0,0-0.299-1.847-0.755-3.662c-0.42-1.823-0.84-3.646-0.84-3.646
				l-2.785,0.694c0,0,0.411,1.784,0.822,3.567C267.427,109.452,267.718,111.261,267.718,111.26z"/>
			<path fill="#BCBCBC" d="M269.34,122.044l2.854-0.307c0,0-0.236-1.855-0.473-3.711c-0.122-0.926-0.225-1.856-0.336-2.549
				c-0.122-0.69-0.205-1.15-0.205-1.15l-2.833,0.463c0,0,0.082,0.45,0.202,1.126c0.111,0.677,0.208,1.588,0.328,2.495
				C269.109,120.229,269.34,122.044,269.34,122.044z"/>
			<path fill="#BCBCBC" d="M270.039,132.923l2.869-0.076c0,0-0.028-1.869-0.113-3.737c-0.142-1.865-0.284-3.729-0.284-3.729
				l-2.859,0.231c0,0,0.14,1.826,0.277,3.651C270.012,131.091,270.039,132.923,270.039,132.923z"/>
		</g>
	</g>
	<g opacity="0.4">
		<g>
			<path fill="#99999A" d="M134.939,101.904V101.9c-0.012,0-0.022,0-0.035,0.003c-0.014,0-0.025-0.003-0.038-0.003v0.003
				c-15.36,0.189-27.804,12.735-27.804,28.142c0,15.408,12.444,27.949,27.804,28.138v0.003c0.013,0,0.024,0,0.038-0.003
				c0.013,0,0.023,0.003,0.035,0.003v-0.003c15.36-0.186,27.805-12.729,27.805-28.138
				C162.744,114.642,150.303,102.096,134.939,101.904z"/>
			<path fill="#99999A" d="M167.915,153.692c0.812-1.176,1.358-2.423,1.596-3.61c0.253-1.256,0.188-2.433-0.146-3.442l-0.005-0.007
				c-0.008-0.02-0.012-0.045-0.017-0.065c-0.02-0.036-0.036-0.079-0.043-0.12l-0.003-0.015c-0.438-1.241-0.489-2.773-0.157-4.354
				l-0.011-0.007c0.063-0.267,0.124-0.532,0.214-0.804c0.24-0.722,0.545-1.391,0.901-1.999c1.347-1.897,5.223-3.536,5.223-9.462
				c0-6.203-5-7.885-5.942-10.582c-0.022-0.062-0.053-0.094-0.075-0.149c-0.051-0.131-0.104-0.255-0.146-0.389
				c-0.599-1.892-0.651-3.768-0.155-5.249l0.036-0.103c0.322-0.957,0.403-2.103,0.195-3.322h-0.004v-0.007
				c-0.026-0.154-0.061-0.307-0.095-0.465l-0.008-0.052c-0.031-0.141-0.068-0.283-0.107-0.423l-0.037-0.107
				c-0.032-0.121-0.072-0.245-0.118-0.364l-0.057-0.159l-0.116-0.298l-0.092-0.231l-0.09-0.189c-0.051-0.11-0.098-0.216-0.152-0.323
				l-0.026-0.049c-0.249-0.478-0.528-0.949-0.865-1.399l-0.058-0.083l-0.034-0.042c-0.902-1.225-1.98-2.178-3.098-2.798
				c-1.113-0.629-2.26-0.929-3.313-0.921h-0.009c-0.03,0-0.049,0-0.071-0.001c-0.04,0.001-0.082,0.005-0.13,0.001h-0.018
				c-1.309,0.036-2.788-0.393-4.186-1.202l-0.01,0.013c-0.23-0.141-0.464-0.292-0.691-0.458c-1.598-1.178-2.733-2.671-3.199-4.158
				l-0.036-0.107c-0.297-0.964-0.905-1.935-1.789-2.799l-0.004-0.003c-0.113-0.11-0.231-0.222-0.354-0.323l-0.04-0.038
				c-0.112-0.092-0.224-0.189-0.339-0.279l-0.088-0.068l-0.309-0.229l-0.14-0.095l-0.269-0.176l-0.211-0.127l-0.187-0.105
				c-0.105-0.063-0.21-0.115-0.312-0.171l-0.054-0.025c-0.474-0.242-0.982-0.454-1.518-0.629l-0.097-0.029l-0.055-0.02
				c-1.451-0.455-2.883-0.589-4.153-0.44c-1.272,0.151-2.378,0.579-3.22,1.214l-0.015,0.004c-0.018,0.017-0.037,0.027-0.059,0.039
				c-0.026,0.036-0.062,0.058-0.102,0.079l-0.012,0.009c-1.038,0.807-2.484,1.323-4.095,1.496v0.014
				c-0.146,0.015-0.292,0.019-0.439,0.021c-0.151-0.001-0.299-0.001-0.442-0.021v-0.014c-1.612-0.173-3.055-0.689-4.096-1.496
				l-0.009-0.009c-0.038-0.024-0.076-0.046-0.104-0.08c-0.021-0.013-0.042-0.025-0.059-0.042l-0.011-0.003
				c-0.844-0.634-1.951-1.062-3.221-1.214c-1.272-0.147-2.7-0.014-4.154,0.44l-0.055,0.021l-0.096,0.032
				c-0.536,0.175-1.045,0.387-1.519,0.629l-0.053,0.025c-0.104,0.056-0.206,0.108-0.31,0.171l-0.187,0.105l-0.206,0.127
				l-0.271,0.176l-0.14,0.095l-0.308,0.225l-0.091,0.068c-0.116,0.091-0.226,0.183-0.336,0.274l-0.041,0.041
				c-0.122,0.103-0.241,0.213-0.354,0.323l-0.004,0.003c-0.883,0.865-1.492,1.835-1.789,2.799l-0.035,0.111
				c-0.462,1.486-1.6,2.982-3.197,4.157c-0.23,0.169-0.465,0.32-0.695,0.46l-0.01-0.013c-1.399,0.809-2.877,1.238-4.185,1.202
				h-0.018c-0.047,0.003-0.09,0-0.131-0.001c-0.023,0.001-0.041,0.001-0.07,0.001h-0.008c-1.056-0.008-2.199,0.292-3.314,0.921
				c-1.116,0.62-2.196,1.573-3.098,2.798l-0.034,0.042l-0.058,0.083c-0.334,0.447-0.616,0.922-0.864,1.399l-0.027,0.049
				c-0.052,0.107-0.101,0.213-0.148,0.323l-0.089,0.189l-0.097,0.231l-0.116,0.298l-0.052,0.159c-0.047,0.12-0.087,0.244-0.12,0.364
				l-0.032,0.107c-0.042,0.14-0.081,0.282-0.113,0.423l-0.009,0.052c-0.038,0.158-0.072,0.314-0.098,0.465v0.007l0,0
				c-0.21,1.222-0.128,2.365,0.194,3.325l0.038,0.102c0.494,1.481,0.442,3.357-0.157,5.25c-0.041,0.131-0.093,0.255-0.146,0.386
				c-0.026,0.055-0.056,0.09-0.075,0.149c-0.942,2.697-5.941,4.379-5.941,10.582c0,5.926,3.875,7.564,5.223,9.462
				c0.354,0.608,0.66,1.277,0.901,1.999c0.086,0.271,0.154,0.537,0.215,0.804l-0.014,0.007c0.334,1.581,0.286,3.113-0.155,4.354
				l-0.004,0.015c-0.006,0.041-0.023,0.084-0.042,0.12c-0.006,0.024-0.011,0.048-0.017,0.065l-0.007,0.007
				c-0.333,1.01-0.398,2.187-0.145,3.442c0.235,1.188,0.781,2.435,1.594,3.61l-10.961,20.534h11.688l5.937,9.007l10.103-16.638
				c0.08,0.08,0.134,0.178,0.22,0.256c0.942,0.861,2.181,1.595,3.63,2.069c0.535,0.174,1.07,0.299,1.6,0.384l0.051,0.01
				c0.122,0.017,0.238,0.029,0.353,0.043l0.221,0.027l0.244,0.022l0.316,0.019h0.17h0.387h0.104
				c0.148-0.008,0.296-0.014,0.436-0.027l0.053-0.003c0.166-0.016,0.322-0.04,0.483-0.062h0.002c1.225-0.18,2.287-0.611,3.092-1.216
				l0.088-0.063c1.196-0.889,2.906-1.414,4.794-1.473c1.888,0.059,3.594,0.584,4.791,1.473l0.09,0.063
				c0.803,0.604,1.866,1.039,3.09,1.216h0.003c0.161,0.021,0.318,0.046,0.484,0.062l0.052,0.003c0.143,0.014,0.29,0.02,0.437,0.027
				h0.104h0.387h0.174l0.313-0.019l0.246-0.022l0.219-0.027c0.114-0.014,0.231-0.026,0.352-0.043l0.056-0.01
				c0.528-0.085,1.063-0.21,1.597-0.384c1.448-0.475,2.688-1.208,3.632-2.069c0.083-0.078,0.14-0.176,0.218-0.256l10.106,16.638
				l5.936-9.002h11.688L167.915,153.692z M163.818,138.642c-0.326,1.107-0.709,2.192-1.168,3.26
				c-1.532,3.629-3.73,6.891-6.526,9.685c-2.794,2.799-6.049,4.995-9.678,6.528c-3.661,1.544-7.538,2.339-11.539,2.381
				c-4.003-0.042-7.883-0.837-11.541-2.381c-3.63-1.536-6.887-3.729-9.678-6.528c-2.799-2.794-4.998-6.056-6.527-9.685
				c-0.454-1.064-0.838-2.152-1.167-3.26c-0.363-1.33-1.228-4.878-1.228-8.596c0-4.712,1.228-8.598,1.228-8.598
				c0.326-1.103,0.71-2.192,1.167-3.267c1.532-3.625,3.729-6.88,6.527-9.68c2.792-2.792,6.048-4.992,9.678-6.526
				c3.66-1.548,7.537-2.339,11.541-2.379c4.001,0.04,7.88,0.832,11.539,2.379c3.629,1.534,6.884,3.734,9.678,6.526
				c2.796,2.799,4.996,6.055,6.526,9.68c0.454,1.073,0.838,2.164,1.168,3.267c0,0,1.226,3.886,1.226,8.598
				C165.044,133.764,164.181,137.312,163.818,138.642z"/>
		</g>
		<g>
			<circle fill="#FFFFFF" cx="167.323" cy="135.841" r="22.341"/>
			<polygon fill="#99999A" points="183.935,131.123 172.04,131.123 172.04,119.226 162.604,119.226 162.604,131.123 
				150.712,131.123 150.712,140.559 162.604,140.559 162.604,152.456 172.04,152.456 172.04,140.559 183.935,140.559 			"/>
		</g>
	</g>
</g>
</svg>
