<?xml version="1.0" encoding="utf-8"?>
<!-- Generator: Adobe Illustrator 16.0.0, SVG Export Plug-In . SVG Version: 6.00 Build 0)  -->
<!DOCTYPE svg PUBLIC "-//W3C//DTD SVG 1.1//EN" "http://www.w3.org/Graphics/SVG/1.1/DTD/svg11.dtd">
<svg version="1.1" id="Layer_1" xmlns="http://www.w3.org/2000/svg" xmlns:xlink="http://www.w3.org/1999/xlink" x="0px" y="0px"
	 width="273px" height="273px" viewBox="0 0 273 273" enable-background="new 0 0 273 273" xml:space="preserve">
<g>
	<circle fill="#E64C3C" cx="136.5" cy="136.499" r="136.642"/>
	<g>
		<g>
			<g>
				<path fill="#452231" d="M201.191,148.058c4.905,2.363,7.714,2.615,13.07,2.014c-7.422-4.459-11.565-14.393-12.501-22.74
					c-0.425-3.801,0.422-7.6,0.793-11.414c0.29-2.994,1.183-5.434,1.202-9.752L173.7,86.942c-0.043,0.178-0.069,0.357-0.105,0.533
					c-0.036-0.176-0.063-0.355-0.106-0.533l-28.572,19.338c-0.088,3.941,0.229,6.473,0.518,9.467
					c0.369,3.818,0.419,7.783-0.007,11.584c-0.933,8.348-5.078,18.281-12.501,22.74c5.359,0.602,8.165,0.35,13.072-2.014
					c-0.131,4.896-1.482,9.723-3.759,14.137c-1.351,2.615-9.851,10.807-9.128,12.529c0.717,1.705,6.533,3.307,7.967,3.73
					c2.382,0.703,4.983,1.008,7.344,1.9c2.156,0.816,4.203,2.301,6.527,2.682c2.549,0.418,4.988-0.582,7.494-0.76
					c2.013-0.143,4.085,0,6.107,0c0.213,0,0.424,0.01,0.637,0.016c-0.615,0.402-1.337,0.684-2.213,0.797
					c2.224,0.076,4.416-0.195,6.62-0.445c2.202,0.25,4.396,0.521,6.622,0.445c-0.879-0.113-1.604-0.395-2.216-0.797
					c0.213-0.006,0.424-0.016,0.637-0.016c2.021,0,4.094-0.143,6.109,0c2.505,0.178,4.942,1.178,7.491,0.76
					c2.326-0.381,4.371-1.865,6.529-2.682c2.359-0.893,4.961-1.197,7.343-1.9c1.433-0.424,7.249-2.025,7.968-3.73
					c0.722-1.723-7.779-9.914-9.129-12.529C202.672,157.78,201.32,152.954,201.191,148.058z M173.271,149.522
					c0.083-0.73,0.193-1.463,0.323-2.195c0.129,0.732,0.239,1.465,0.322,2.195c0.719,6.322,0.53,12.852-0.322,19.133
					C172.743,162.374,172.553,155.845,173.271,149.522z"/>
				<path fill="#FEC565" d="M199.479,116.958c-0.104,0-0.202,0.035-0.308,0.045c-1.836-16.004-12.53-28.305-25.491-28.305
					c-12.985,0-23.699,12.348-25.504,28.398c-2.097,0.631-3.675,3.354-3.675,6.619c0,3.563,1.889,6.453,4.275,6.707
					c1.707,8.242,5.824,15.207,11.313,19.609v7.777h25.8l-0.04-7.854c6.2-4.305,10.913-10.656,12.75-19.615
					c0.286,0.082,0.579,0.131,0.88,0.131c2.544,0,4.607-3.023,4.607-6.756S202.023,116.958,199.479,116.958z"/>
				<path fill="#FFFFFC" d="M193.913,155.044c0,0-0.975-7.381-5.044-5.078c-7.432,4.205-13.775,5.951-15.323,6.244
					c-1.547-0.293-7.367-1.568-14.8-5.773c-4.069-2.303-4.069,4.607-4.069,4.607l19.618,24.072L193.913,155.044z"/>
				<polygon fill="#455A72" points="228.41,178.179 193.913,155.044 174.295,178.388 154.677,155.044 120.183,178.179 
					120.205,205.593 228.56,205.593 				"/>
				<path fill="#452231" d="M148.385,99.263c-4.203,3.756-1.133,11.041,2.499,13.834c4.541,3.49,11.213,3.455,16.717,3.186
					c6.095-0.301,12.888-0.861,18.293,2.07c2.036,1.104,4.034,2.688,5.91,4.037c1.628,1.17,2.985,3.447,4.726,4.164
					c0.92-1.137,1.166-2.307,1.658-3.646c0.498-1.363,0.832-2.979,1.281-4.385c1.053-3.295,1.053-7.027,0.911-10.498
					c-0.241-5.961-3.072-12.682-6.776-17.332c-2.144-2.691-5.606-5.063-8.792-6.271c-2.229-0.846-7.412-2.791-9.466-0.74
					L148.385,99.263z"/>
				<path fill="#455A72" d="M174.295,64.722l-52.436,19.189v4.596l22.975,6.217v13.916c0,0,9.139-2.615,29.461-3.904
					c19.793,1.186,29.461,3.904,29.461,3.904V94.724l22.975-6.217v-4.596L174.295,64.722z"/>
			</g>
			<g opacity="0.28">
				<path fill="#452231" d="M174.414,183.021c2.202,0.252,3.682,0.027,5.907-0.047c-0.876-0.113-1.602-0.398-2.214-0.799
					c0.212-0.006,0.424-0.018,0.636-0.018c2.022,0,4.094-0.143,6.108,0.002c2.508,0.178,4.944,1.178,7.494,0.76
					c2.323-0.379,4.371-1.865,6.528-2.68c2.358-0.895,4.961-1.197,7.342-1.902c1.434-0.426,7.251-2.025,7.966-3.73
					c0.724-1.721-7.777-9.914-9.125-12.527c-2.277-4.416-3.631-9.24-3.761-14.139c4.907,2.365,7.716,2.613,13.073,2.016
					c-7.423-4.461-11.566-14.393-12.503-22.744c-0.424-3.799,0.423-7.596,0.793-11.414c0.291-2.994,1.184-5.432,1.202-9.748
					l-29.874-19.107c-0.041,0.178,0.005,0.34-0.03,0.518"/>
				<path fill="#FEC565" d="M173.705,157.69h12.291l-0.04-7.85c6.199-4.307,10.913-10.656,12.75-19.615
					c0.286,0.08,0.579,0.129,0.881,0.129c2.544,0,4.605-3.023,4.605-6.756c0-3.734-2.062-6.758-4.605-6.758
					c-0.104,0-0.204,0.037-0.309,0.047c-1.835-16.006-12.064-28.189-25.026-28.189"/>
				<path fill="#FFFFFC" d="M174.4,178.999l19.618-24.072c0,0-0.974-7.379-5.044-5.078c-7.432,4.205-13.774,5.949-15.322,6.246
					L174.4,178.999z"/>
				<polygon fill="#393E5C" points="174.477,205.476 228.667,205.476 228.515,178.063 194.019,154.927 174.4,178.271 				"/>
				<path fill="#452231" d="M173.801,115.862c6.096-0.297,6.793-0.559,12.199,2.373c2.033,1.104,4.034,2.688,5.91,4.037
					c1.626,1.172,2.986,3.447,4.725,4.164c0.92-1.135,1.168-2.307,1.658-3.646c0.499-1.363,0.834-2.979,1.284-4.383
					c1.052-3.297,1.05-7.029,0.91-10.502c-0.245-5.959-3.073-12.68-6.778-17.33c-2.144-2.693-5.605-5.061-8.793-6.271
					c-2.228-0.848-8.565-1.012-10.621,1.037L173.801,115.862z"/>
				<path fill="#393E5C" d="M173.705,104.897c19.793,1.186,30.01,3.623,30.01,3.623V94.606l22.973-6.217v-4.596l-52.393-19.072"/>
			</g>
		</g>
		<g>
			<g>
				<path fill="#C05949" d="M139.168,105.493c0-18.846-15.271-34.119-34.117-34.119c-18.844,0-34.119,15.273-34.119,34.119
					c0,18.842,15.275,34.117,34.119,34.117C123.896,139.61,139.168,124.335,139.168,105.493z"/>
				<path fill="#FEC565" d="M133.308,106.017c-0.115,0-0.228,0.041-0.345,0.053c-2.061-17.959-14.061-31.758-28.604-31.758
					c-14.568,0-26.591,13.852-28.613,31.861c-2.354,0.709-4.125,3.766-4.125,7.426c0,4,2.119,7.24,4.799,7.525
					c1.914,9.25,6.532,17.064,12.69,22.004v8.725h28.949l-0.044-8.809c6.955-4.832,12.243-11.957,14.305-22.01
					c0.32,0.09,0.651,0.146,0.987,0.146c2.856,0,5.17-3.395,5.17-7.582S136.164,106.017,133.308,106.017z"/>
				<path fill="#FFFFFC" d="M127.062,148.751c0,0-1.091-8.279-5.659-5.697c-8.34,4.717-15.455,6.676-17.192,7.006
					c-1.735-0.33-8.269-1.762-16.606-6.479c-4.566-2.584-4.566,5.17-4.566,5.17l22.014,27.01L127.062,148.751z"/>
				<polygon fill="#454544" points="165.766,174.71 127.062,148.751 105.051,174.944 83.037,148.751 44.333,174.71 44.358,205.47 
					165.938,205.47 				"/>
				<path fill="#C05949" d="M77.179,93.505c-0.792,2.604-4.29,12.516-0.821,14.129c3.807,1.773,11.545-7.078,13.9-9.191
					c0.104,1.625-0.429,3.627,0.859,4.797c1.566,1.428,3.833,0.086,5.338-0.793c4.053-2.367,6.885-5.262,9.935-8.756
					c-0.473,3.281,1.346,5.977,4.79,5.072c4.658-1.221,8.439-5.967,11.756-9.102c-0.269,4.479,4.586,4.465,7.342,1.854
					c1.014-0.961,2.48-3.555,2.62-4.867c0.503-4.734-6.716-8.301-10.189-10.396c-5.013-3.021-8.905-4.873-14.862-4.877
					c-7.676-0.008-15.192,1.441-20.755,6.967c-0.994,0.988-4.205,3.65-2.67,4.545L77.179,93.505z"/>
				<path fill="#454544" d="M105.051,47.407L46.217,68.94v5.154l25.777,6.975v15.613c0,0,10.256-2.934,33.057-4.381
					c22.209,1.33,33.057,4.381,33.057,4.381V81.069l25.775-6.975V68.94L105.051,47.407z"/>
			</g>
			<g opacity="0.28">
				<path fill="#C05949" d="M105.906,139.61c18.844,0,32.76-15.275,32.76-34.117c0-18.846-15.272-34.119-34.117-34.119
					L105.906,139.61z"/>
				<path fill="#FEC565" d="M105.051,151.853h13.009l-0.044-8.809c6.955-4.832,12.243-11.957,14.305-22.01
					c0.32,0.09,0.651,0.146,0.987,0.146c2.856,0,5.17-3.395,5.17-7.582s-2.313-7.582-5.17-7.582c-0.115,0-0.228,0.041-0.345,0.053
					c-2.061-17.959-14.061-31.758-28.604-31.758L105.051,151.853z"/>
				<path fill="#FFFFFC" d="M105.051,175.761l22.011-27.01c0,0-1.091-8.279-5.659-5.697c-8.34,4.717-15.455,6.676-17.192,7.006
					L105.051,175.761z"/>
				<polygon fill="#454544" points="105.051,205.47 165.938,205.47 165.766,174.71 127.062,148.751 105.051,174.944 				"/>
				<path fill="#C05949" d="M122.04,76.251c-5.01-3.021-8.905-4.873-14.862-4.877c-0.936,0-1.867,0.021-2.797,0.066v23.752
					c0.447-0.488,0.89-0.986,1.34-1.502c-0.473,3.281,1.344,5.977,4.791,5.072c4.657-1.221,8.438-5.967,11.756-9.102
					c-0.271,4.479,4.584,4.465,7.341,1.854c1.013-0.961,2.48-3.555,2.618-4.867C132.729,81.913,125.514,78.347,122.04,76.251z"/>
				<path fill="#454544" d="M104.381,92.302c22.208,1.33,33.057,4.381,33.057,4.381V81.069l25.777-6.975V68.94l-58.834-21.533
					V92.302z"/>
			</g>
		</g>
		<path fill="#FFFFFF" d="M153.303,90.454c0.608-0.115,1.068-0.646,1.068-1.287c0-0.725-0.586-1.313-1.311-1.313h-0.225V63.927
			c0-0.998-0.807-1.807-1.805-1.807c-0.996,0-1.807,0.809-1.807,1.807v23.928h-0.014c-0.724,0-1.311,0.588-1.311,1.313
			c0,0.574,0.37,1.057,0.884,1.234c-1.79,3.822-2.924,6.668-2.442,7.09c3.396,2.979,5.983,2.979,9.379,0
			C156.2,97.069,155.089,94.269,153.303,90.454z"/>
		<path fill="#FFFFFF" d="M221.333,107.909c0.608-0.115,1.069-0.645,1.069-1.287c0-0.723-0.587-1.313-1.313-1.313h-0.223V81.382
			c0-0.996-0.808-1.805-1.806-1.805c-0.996,0-1.806,0.809-1.806,1.805v23.928h-0.014c-0.724,0-1.312,0.59-1.312,1.313
			c0,0.574,0.371,1.057,0.884,1.234c-1.789,3.824-2.924,6.67-2.441,7.09c3.396,2.979,5.983,2.979,9.377,0
			C224.231,114.526,223.12,111.726,221.333,107.909z"/>
	</g>
</g>
</svg>
