<?xml version="1.0" encoding="utf-8"?>
<!-- Generator: Adobe Illustrator 16.0.0, SVG Export Plug-In . SVG Version: 6.00 Build 0)  -->
<!DOCTYPE svg PUBLIC "-//W3C//DTD SVG 1.1//EN" "http://www.w3.org/Graphics/SVG/1.1/DTD/svg11.dtd">
<svg version="1.1" id="Layer_1" xmlns="http://www.w3.org/2000/svg" xmlns:xlink="http://www.w3.org/1999/xlink" x="0px" y="0px"
	 width="273px" height="273px" viewBox="0 0 273 273" enable-background="new 0 0 273 273" xml:space="preserve">
<g>
	<circle fill="#78C1AD" cx="136.5" cy="136.5" r="136.642"/>
	<g>
		<g>
			<g>
				<path fill="#7ED1E4" d="M132.01,112.859c9.027,25.436-5.197,52.855,3.85,78.352c1.249,3.519,7.601,1.28,8.41-1.521
					c3.556-12.323-0.897-25.748-2.297-38.088c-1.652-14.551-2.031-31.687,3.322-45.519c-2.718,0.265-5.435,0.53-8.152,0.795
					c2.982,26.876-3.033,53.938,1.283,80.743c0.584,3.626,7.783,1.14,8.41-1.521c6.162-26.178-3.725-54.467,10.645-78.821
					c-2.718,0.265-5.435,0.53-8.152,0.795c2.316,26.314-8.088,51.998-4.486,78.352c0.457,3.339,8.267,1.472,8.41-1.521
					c1.148-24.047-5.291-50.624,6.795-72.84c-2.718,0.265-5.435,0.53-8.152,0.795c2.928,26.216-4.953,52.03-4.521,78.225
					c0.064,3.904,7.01,2.563,8.186-0.073c8.843-19.84,0.3-45.487,15.519-62.704c-2.545,0.034-5.09,0.067-7.636,0.101
					c2.325,25.348-11.27,49.02-12.861,74.043c2.814-0.267,5.629-0.532,8.443-0.799c-0.349-10.428,0.369-20.91,2.383-31.152
					c1.951-9.917,5.782-23.108,15.697-27.879c-1.988-0.352-3.977-0.703-5.964-1.055c2.193,10.055-4.974,20.773-8.563,29.757
					c-5.09,12.735-8.34,26.118-13.662,38.773c2.729-0.024,5.457-0.049,8.186-0.073c0.974-17.031,10.16-33.101,21.03-45.826
					c-2.47-0.449-4.94-0.898-7.41-1.348c-6.767,16.727-16.226,32.144-25.013,47.848c2.729-0.024,5.457-0.049,8.186-0.073
					c1.943-5.704,4.786-10.993,8.08-16.022c-2.729,0.024-5.457,0.049-8.186,0.073c-2.303,8.784-8.404,16.155-13.98,23.099
					c-3.177,3.957,3.883,4.285,6.156,2.672c5.432-3.856,10.561-8.063,14.852-13.187c2.86-3.417-2.89-4.515-5.225-3.198
					c-8.893,5.011-15.381,13.669-25.016,17.344c1.184,1.451,2.369,2.902,3.553,4.354c8.244-3.586,17.729-3.507,26.385-5.676
					c7.282-1.824,12.238-5.832,17.033-11.376c5.025-5.81,9.427-12.24,13.271-18.881c3.146-5.436,6.838-12.197,6.688-18.677
					c-0.055-2.397-3.036-2.809-4.908-2.168c-11.194,3.834-19.438,14.672-26.269,23.781c-6.818,9.094-14.809,19.792-17.582,31.04
					c-0.908,3.688,7.13,2.469,8.186-0.073c11.656-28.072,38.278-47.102,49.937-75.183c-2.728,0.025-5.456,0.049-8.184,0.074
					c-4.424,13-9.294,25.855-13.366,38.974c-3.409,10.979-5.901,23.378-14.083,31.976c2.545-0.033,5.09-0.067,7.635-0.101
					c-1.634-13.583,9.099-30.102,19.046-38.495c-2.31-0.417-4.619-0.834-6.929-1.251c-1.838,12.606-11.764,22.346-14.75,34.69
					c-0.844,3.484,5.604,2.21,6.929,1.251c10.95-7.931,19.761-18.802,27.321-29.899c7.137-10.474,14.755-23.657,14.598-36.75
					c-2.813,0.268-5.628,0.533-8.441,0.801c0.197,9.859-4.579,19.588-9.263,27.989c-4.838,8.677-11.223,18.109-20.008,23.192
					c2.299,0.176,4.598,0.353,6.896,0.528c-0.332-7.021,4.273-13.719,6.39-20.217c2.896-8.89,4.488-18.196,5.183-27.503
					c0.322-4.304-7.487-2.123-8.441,0.799c-0.977,2.989-2.029,5.937-3.501,8.722c-0.363,0.688-0.771,1.298-1.299,1.865
					c1.084-1.166,4.192-0.115,3.134-0.795c-2.312-1.485-3.823-5.523-5.172-7.801c-3.954-6.681-9.428-12.345-17.848-9.747
					c-3.918,1.208-4.805,5.809,0.237,5.34c8.223-0.766,0.579,26.817-1.587,30.395c2.728-0.024,5.456-0.049,8.184-0.073
					c0-4.386,0-8.771,0-13.156c-2.803,0.507-5.605,1.015-8.408,1.521c0.679,5.718,2.457,12.121,0.225,17.689
					c2.41-0.646,4.821-1.292,7.231-1.938c-6.457-4.299-7.325-13.77-7.388-20.858c-2.803,0.507-5.605,1.015-8.409,1.521
					c1.854,8.484,2.583,17.136,3.851,25.715c0.456,3.091,6.444,1.428,7.635-0.101c1.712-2.195,3.759-4.162,5.006-6.677
					c2.008-4.045-6.453-3.621-7.926-0.652c-0.988,1.991-2.616,3.544-3.975,5.286c2.545-0.033,5.09-0.067,7.635-0.101
					c-1.267-8.58-1.996-17.23-3.85-25.715c-0.716-3.28-8.435-1.52-8.409,1.521c0.078,8.86,1.295,19.264,9.293,24.589
					c1.924,1.281,6.318,0.339,7.231-1.938c2.693-6.713,1.049-13.651,0.225-20.586c-0.391-3.292-8.408-1.514-8.408,1.521
					c0,4.386,0,8.771,0,13.156c0,4.138,6.798,2.217,8.184-0.073c5.258-8.68,12.341-38.248-5.438-36.594
					c0.079,1.78,0.158,3.561,0.237,5.34c5.589-1.723,10.682,12.356,13.591,15.613c2.829,3.168,6.962,2.815,10.39,0.835
					c4.581-2.646,6.286-10.073,7.771-14.624c-2.813,0.267-5.628,0.532-8.441,0.799c-0.7,9.365-2.429,18.526-5.184,27.504
					c-2.248,7.326-6.698,13.728-6.322,21.661c0.141,2.98,5.694,1.223,6.896,0.528c9.507-5.502,16.361-15.399,21.837-24.655
					c5.267-8.902,10.673-20.025,10.459-30.628c-0.081-4.078-8.481-2.55-8.441,0.801c0.146,12.318-6.785,24.138-13.304,34.129
					c-6.854,10.503-15.364,21.014-25.59,28.419c2.31,0.417,4.619,0.834,6.929,1.251c2.99-12.355,12.894-21.954,14.75-34.69
					c0.494-3.39-5.453-2.495-6.929-1.251c-11.798,9.956-23.951,27.862-22.005,44.04c0.391,3.247,6.401,1.196,7.635-0.101
					c8.019-8.426,11.228-19.997,14.448-30.875c4.29-14.489,9.684-28.617,14.548-42.918c1.159-3.404-7.08-2.586-8.184,0.074
					c-11.656,28.073-38.278,47.103-49.938,75.183c2.729-0.024,5.457-0.049,8.186-0.073c2.291-9.294,8.939-18.202,14.36-25.883
					c3.547-5.025,7.435-9.821,11.638-14.313c2.909-3.107,6.62-7.267,10.784-8.692c-1.636-0.723-3.272-1.445-4.908-2.168
					c0.131,5.731-2.897,11.254-5.563,16.139c-3.604,6.607-8,12.831-12.851,18.577c-4.543,5.382-8.563,7.778-15.567,9.199
					c-8.268,1.677-16.677,2.135-24.508,5.542c-1.329,0.578-3.363,2.365-2.079,3.941c1.327,1.629,3.99,1.038,5.632,0.412
					c9.879-3.768,16.025-12.277,25.016-17.344c-1.741-1.066-3.482-2.132-5.225-3.198c-3.89,4.646-8.443,8.431-13.371,11.929
					c2.053,0.891,4.104,1.781,6.156,2.672c6.307-7.855,12.924-16.018,15.527-25.94c1.056-4.026-6.933-1.84-8.186,0.073
					c-3.599,5.495-6.477,11.254-8.596,17.474c-1.238,3.637,6.936,2.159,8.186-0.073c8.786-15.703,18.244-31.12,25.011-47.848
					c1.7-4.202-5.697-3.354-7.41-1.348c-11.532,13.499-21.543,30.563-22.579,48.668c-0.224,3.919,7.104,2.498,8.186-0.073
					c5.488-13.052,8.891-26.837,14.141-39.972c3.877-9.702,10.908-20.568,8.532-31.455c-0.516-2.365-4.494-1.762-5.964-1.055
					c-21.841,10.506-23.67,43.193-22.971,64.184c0.136,4.05,8.227,2.596,8.443-0.799c1.627-25.609,15.178-49.497,12.794-75.488
					c-0.294-3.213-6.463-1.225-7.635,0.101c-16.259,18.393-7.276,43.287-16.552,64.095c2.729-0.024,5.457-0.049,8.186-0.073
					c-0.441-26.703,7.44-52.924,4.455-79.67c-0.392-3.501-7.133-1.077-8.152,0.795c-12.444,22.877-6.128,49.545-7.311,74.292
					c2.804-0.507,5.606-1.015,8.41-1.521c-3.591-26.267,6.802-52.03,4.486-78.352c-0.314-3.569-7.115-0.962-8.152,0.795
					c-14.741,24.984-4.852,53.48-11.16,80.273c2.804-0.507,5.606-1.015,8.41-1.521c-4.313-26.771,1.697-53.867-1.283-80.743
					c-0.365-3.288-7.315-1.366-8.152,0.795c-5.503,14.224-4.764,29.561-4.053,44.53c0.633,13.317,6.329,27.303,2.512,40.529
					c2.803-0.507,5.606-1.015,8.41-1.521c-9.026-25.437,5.199-52.856-3.85-78.352C139.15,107.132,130.82,109.505,132.01,112.859
					L132.01,112.859z"/>
			</g>
		</g>
		<g>
			<g>
				<path fill="#7ED1E4" d="M68.685,136.136c-2.722,3.031-4.193,6.181-4.977,10.178c-0.661,3.371,6.193,1.314,7.307,0.234
					c3.647-3.541,4.295-8.335,4.977-13.168c-2.7,0.324-5.399,0.648-8.099,0.972c-0.057,5.411-0.504,10.81,0.607,16.146
					c0.643,3.087,7.438,0.602,8.093-1.57c1.237-4.102,1.792-8.326,2.389-12.557c-2.698,0.523-5.396,1.046-8.093,1.569
					c1.567,6.5,1.143,13.312,2.992,19.739c0.814,2.828,7.744,0.91,8.093-1.57c0.651-4.618,1.323-9.212,2.393-13.757
					c-2.698,0.523-5.396,1.047-8.093,1.57c3.344,8.131,1.384,17.461,6.274,25.043c1.389,2.152,7.391,0.189,7.799-2.09
					c0.963-5.366,0.173-10.902,1.795-16.152c-2.698,0.523-5.396,1.047-8.093,1.57c2.376,6.556,2.506,13.607,4.186,20.338
					c0.711,2.849,7.762,0.887,8.093-1.57c1.752-12.998-2.217-25.898-2.398-38.877c-2.696,0.722-5.392,1.445-8.088,2.167
					c1.873,13.8-2.158,30.86,6.274,42.986c1.338,1.925,7.73,0.345,7.799-2.09c0.495-17.366-2.284-34.673-1.195-52.033
					c-2.698,0.523-5.396,1.046-8.093,1.569c6.56,17.937-1.911,38.145,6.578,55.624c1.262,2.597,7.627,1.119,8.093-1.57
					c3.354-19.372-5.721-38.808-0.598-58.017c-2.698,0.523-5.396,1.046-8.093,1.569c3.467,9.28,2.573,19.8,2.783,29.527
					c0.191,8.899,0.665,19.153,7.082,26.021c1.838,1.967,8.008,0.279,7.794-2.688c-1.41-19.552-8.728-38.894-5.377-58.615
					c-2.6,0.696-5.199,1.393-7.799,2.089c10.452,18.236-1.477,42.564,11.363,59.81c1.377,1.85,7.769,0.393,7.799-2.09
					c0.258-21.018-11.496-41.161-5.98-62.201c-2.698,0.523-5.396,1.046-8.093,1.569c9.636,19.573,4.26,42.203,9.568,62.8
					c0.712,2.762,7.987,0.958,8.093-1.57c0.859-20.547-11.644-40.589-5.381-61.005c-2.698,0.523-5.396,1.046-8.093,1.569
					c8.128,20.358,1.457,44.957,15.247,63.321c1.658,2.207,7.984,0.121,7.794-2.688c-1.453-21.464-12.025-41.578-8.37-63.4
					c-2.698,0.523-5.396,1.046-8.093,1.569c11.785,23.334,1.793,51.921,15.247,74.685c1.238,2.095,7.617,0.229,7.8-2.09
					c2.09-26.584-18.535-54.258-6.254-80.131c-2.607,0.319-5.214,0.639-7.82,0.958c10.147,24.504-2.569,52.265,8.373,76.558
					c1.306,2.898,9.242,0.395,8.088-2.168c-10.935-24.274,1.78-52.039-8.373-76.557c-1.071-2.587-6.843-1.1-7.82,0.958
					c-12.847,27.067,7.872,53.827,5.708,81.355c2.6-0.697,5.199-1.394,7.799-2.09c-13.154-22.256-3.079-50.715-14.659-73.645
					c-1.292-2.558-7.637-1.152-8.093,1.569c-3.733,22.284,6.898,42.7,8.38,64.596c2.598-0.896,5.196-1.792,7.794-2.688
					c-13.395-17.837-6.734-42.434-14.659-62.281c-1.163-2.912-7.359-0.822-8.093,1.569c-6.329,20.633,6.244,40.374,5.381,61.006
					c2.698-0.523,5.396-1.047,8.093-1.57c-5.308-20.597,0.068-43.227-9.568-62.799c-1.332-2.705-7.414-1.023-8.093,1.569
					c-5.568,21.241,6.24,41.093,5.98,62.202c2.6-0.697,5.199-1.394,7.799-2.09c-6.093-8.184-5.713-19.476-5.845-29.194
					c-0.143-10.494-0.157-21.261-5.518-30.615c-1.272-2.22-7.422-0.131-7.799,2.089c-3.424,20.156,3.948,39.839,5.388,59.811
					c2.598-0.896,5.196-1.792,7.794-2.688c-6.38-6.828-6.334-17.54-6.522-26.316c-0.2-9.323,0.569-19.297-2.754-28.191
					c-1.08-2.892-7.449-0.847-8.093,1.569c-5.138,19.266,3.95,38.657,0.598,58.018c2.698-0.523,5.396-1.047,8.093-1.57
					c-8.483-17.465-0.015-37.676-6.578-55.623c-0.975-2.665-7.929-1.043-8.093,1.569c-1.089,17.37,1.69,34.667,1.195,52.034
					c2.6-0.697,5.199-1.394,7.799-2.09c-8-11.503-3.906-28.83-5.687-41.946c-0.402-2.961-8.13-0.836-8.088,2.167
					c0.175,12.568,4.083,25.11,2.387,37.683c2.698-0.523,5.396-1.047,8.093-1.57c-1.679-6.729-1.81-13.782-4.186-20.338
					c-1.075-2.965-7.372-0.766-8.093,1.57c-1.622,5.25-0.832,10.785-1.795,16.152c2.6-0.697,5.199-1.394,7.799-2.09
					c-4.558-7.065-2.543-16.36-5.687-24.004c-1.15-2.795-7.502-0.941-8.093,1.57c-1.069,4.545-1.741,9.138-2.393,13.757
					c2.698-0.523,5.396-1.047,8.093-1.57c-1.85-6.427-1.424-13.238-2.992-19.738c-0.69-2.86-7.749-0.875-8.093,1.569
					c-0.596,4.232-1.152,8.457-2.389,12.559c2.698-0.523,5.396-1.047,8.093-1.57c-1.03-4.949-0.649-9.932-0.596-14.95
					c0.037-3.469-7.708-1.793-8.099,0.972c-0.498,3.525-0.685,8.126-3.394,10.755c2.436,0.078,4.872,0.156,7.307,0.234
					c0.569-2.898,1.378-5.521,3.394-7.766C78.418,133.994,70.544,134.066,68.685,136.136L68.685,136.136z"/>
			</g>
		</g>
		<g>
			<g>
				<path fill="#7ED1E4" d="M106.671,119.657c11.724-5.325,16.763-17.819,24.907-26.951c-2.277-0.871-4.553-1.742-6.83-2.612
					c-7.878,9.125-15.472,18.481-22.725,28.111c2.435,0.617,4.869,1.233,7.303,1.85c3.893-10.997,11.161-20.326,15.549-31.102
					c1.847-4.536-6.124-4.346-7.776-1.087c-4.167,8.217-8.931,16.082-13.756,23.924c2.666,0.092,5.331,0.185,7.997,0.278
					c2.021-11.491,7.484-21.923,11.741-32.683c1.659-4.193-5.524-4.564-7.303-1.85c-5.946,9.071-10.73,18.884-17.344,27.511
					c2.508,0.347,5.016,0.693,7.523,1.041c1.99-11.426,6.929-21.961,11.143-32.683c1.771-4.504-5.328-3.978-7.303-1.85
					c-6.483,6.983-7.907,16.981-14.354,23.924c2.486,0.074,4.973,0.148,7.459,0.223c-0.866-7.13,4.135-14.656,7.62-20.503
					c2.398-4.024-5.394-3.997-7.303-1.85c-5.599,6.298-10.207,13.555-16.65,19.06c2.276,0.573,4.552,1.146,6.828,1.718
					c1.546-7.886,7.239-14.259,11.867-20.558c2.927-3.984-3.554-5.362-6.134-3.29c-5.558,4.462-10.36,9.685-15.049,15.032
					c-3.456,3.941,3.697,4.829,6.134,3.29c3.149-1.989,6.062-4.257,8.971-6.578c4.294-3.427-2.151-6.591-5.438-3.968
					c-2.909,2.321-5.821,4.589-8.971,6.578c2.045,1.097,4.089,2.193,6.134,3.29c4.269-4.868,8.596-9.612,13.658-13.677
					c-2.045-1.097-4.089-2.193-6.134-3.29c-5.385,7.33-11.459,14.547-13.254,23.702c-0.7,3.57,5.206,3.104,6.828,1.718
					c6.971-5.956,11.989-13.607,18.042-20.415c-2.435-0.617-4.869-1.233-7.303-1.85c-4.234,7.105-8.973,15.183-7.931,23.757
					c0.428,3.527,6.052,1.738,7.459,0.223c6.483-6.983,7.907-16.981,14.354-23.924c-2.435-0.617-4.869-1.233-7.303-1.85
					c-4.424,11.255-9.494,22.307-11.583,34.301c-0.694,3.985,6.014,3.01,7.523,1.041c6.62-8.635,11.395-18.436,17.344-27.511
					c-2.435-0.617-4.869-1.233-7.303-1.85c-4.473,11.305-10.057,22.226-12.181,34.301c-0.796,4.523,6.595,2.556,7.997,0.278
					c4.825-7.842,9.589-15.707,13.756-23.924c-2.592-0.362-5.184-0.725-7.776-1.087c-4.388,10.776-11.656,20.104-15.549,31.102
					c-1.535,4.335,5.386,4.395,7.303,1.85c7.252-9.63,14.846-18.987,22.725-28.111c3.406-3.945-4.287-5.464-6.83-2.612
					c-7.042,7.896-11.669,19.912-21.742,24.487C97.978,116.865,102.435,121.582,106.671,119.657L106.671,119.657z"/>
			</g>
		</g>
		<g>
			<g>
				<path fill="#7ED1E4" d="M74.699,79.325c2.23-3.173,5.594-5.723,9.161-7.223c1.382-0.582,3.178-2.42,1.963-3.972
					c-1.257-1.606-3.863-1.165-5.463-0.492c-4.645,1.953-9.457,5.378-12.37,9.523C65.061,81.331,72.689,82.186,74.699,79.325
					L74.699,79.325z"/>
			</g>
		</g>
		<g>
			<g>
				<path fill="#7ED1E4" d="M93.052,128.511c-2.567,5.502-5.682,10.395-6.013,16.606c-0.13,2.438,0.883,4.792,1.646,7.049
					c1.021,3.022-0.06,5.458-1.614,8.046c-0.9,1.498,6.717,0.922,8.023-1.254c3.059-5.093,1.666-7.981,0.32-13.276
					c-1.646-6.471,3.074-12.88,5.661-18.423C101.917,125.454,94.111,126.24,93.052,128.511L93.052,128.511z"/>
			</g>
		</g>
		<g>
			<g>
				<path fill="#7ED1E4" d="M104.952,158.406c-2.722-3.455-4.014-8.129-5.136-12.305c-0.945-3.518-2.88-10.398,0.032-13.442
					c3.52-3.68-4.273-4.976-6.765-2.371c-3.914,4.092-2.88,10.685-1.887,15.712c1.053,5.33,2.928,11.621,6.349,15.963
					C99.817,164.845,107.516,161.66,104.952,158.406L104.952,158.406z"/>
			</g>
		</g>
		<g>
			<g>
				<path fill="#7ED1E4" d="M122.907,104.185c-5.194-0.859-4.714,7.953-6.343,10.88c0.372-0.02,0.744-0.04,1.116-0.06
					c0.403-2.623,1.311-5.118,1.924-7.693c0.116-0.487-0.965-0.144-1.116,0.06c-1.865,2.53-3.583,5.163-5.449,7.693
					c0.372-0.02,0.744-0.04,1.116-0.06c1.093-2.955,2.9-5.431,4.771-7.93c-0.372,0.02-0.744,0.04-1.116,0.06
					c-1.393,3.237-3.466,6.096-5.089,9.212c-0.264,0.507,0.883,0.319,1.076,0.024c2.3-3.517,5.059-6.672,7.691-9.938
					c-0.372,0.02-0.744,0.04-1.116,0.06c-0.495,3.242-2.108,6.134-3.808,8.892c0.372-0.02,0.744-0.04,1.116-0.06
					c0.202-4.538,2.73-8.437,4.492-12.503c-0.385,0.048-0.77,0.096-1.155,0.145c-0.355,2.922-1.217,5.741-1.605,8.656
					c-0.061,0.459,1.103,0.248,1.155-0.145c0.388-2.916,1.25-5.734,1.605-8.656c0.062-0.51-1.021-0.165-1.155,0.145
					c-1.757,4.056-4.291,7.972-4.492,12.503c-0.022,0.492,0.959,0.194,1.116-0.06c1.727-2.803,3.384-5.765,3.887-9.061
					c0.078-0.513-0.958-0.135-1.116,0.06c-2.632,3.265-5.392,6.421-7.691,9.938c0.359,0.008,0.717,0.016,1.076,0.024
					c1.652-3.172,3.751-6.086,5.168-9.381c0.179-0.417-0.956-0.154-1.116,0.06c-1.909,2.55-3.738,5.092-4.85,8.099
					c-0.163,0.441,0.961,0.149,1.116-0.06c1.865-2.53,3.583-5.163,5.449-7.693c-0.372,0.02-0.744,0.04-1.116,0.06
					c-0.613,2.576-1.521,5.071-1.924,7.693c-0.073,0.475,0.974,0.195,1.116-0.06c0.992-1.784,1.703-10.749,4.56-10.276
					C122.566,104.874,123.563,104.293,122.907,104.185L122.907,104.185z"/>
			</g>
		</g>
		<g>
			<g>
				<path fill="#7ED1E4" d="M137.875,61.454c0.752-1.933,1.84-3.332,3.404-4.668c-0.342,0.012-0.684,0.024-1.025,0.037
					c-0.368,1.561-0.693,3.032-1.559,4.417c-0.269,0.431,0.885,0.144,1.061-0.037c1.549-1.596,2.912-3.292,4.166-5.129
					c-0.368,0.036-0.736,0.071-1.104,0.107c-0.658,1.968-1.355,3.895-2.244,5.771c-0.147,0.311,0.955,0.078,1.104-0.107
					c1.95-2.448,3.164-5.293,4.531-8.085c-0.383,0.059-0.764,0.118-1.146,0.177c-0.637,2.871-1.24,5.736-1.602,8.656
					c-0.051,0.411,1.023,0.076,1.146-0.177c1.272-2.607,1.365-5.529,1.924-8.335c-0.383,0.059-0.764,0.118-1.146,0.177
					c-0.274,3.332-0.325,6.662-0.326,10.003c0,0.278,1.109,0.055,1.15-0.243c0.313-2.234,0.369-4.492,0.641-6.731
					c-0.384,0.081-0.768,0.162-1.15,0.243c0.889,3.917,1.033,7.946,1.924,11.862c0.072,0.321,1.231,0.028,1.154-0.31
					c-0.89-3.917-1.035-7.946-1.924-11.862c-0.07-0.314-1.117-0.037-1.15,0.243c-0.271,2.24-0.328,4.497-0.641,6.731
					c0.384-0.081,0.768-0.162,1.15-0.243c0.002-3.298,0.047-6.582,0.318-9.87c0.031-0.383-1.084-0.136-1.146,0.177
					c-0.56,2.806-0.651,5.729-1.924,8.335c0.383-0.059,0.764-0.118,1.146-0.177c0.361-2.92,0.966-5.786,1.602-8.656
					c0.085-0.382-1.02-0.083-1.146,0.177c-1.342,2.739-2.529,5.542-4.445,7.946c0.368-0.036,0.736-0.071,1.104-0.107
					c0.89-1.877,1.586-3.804,2.244-5.771c0.117-0.349-0.969-0.089-1.104,0.107c-1.254,1.836-2.615,3.533-4.166,5.129
					c0.354-0.012,0.707-0.025,1.061-0.037c0.888-1.421,1.262-2.936,1.645-4.557c0.092-0.386-0.9-0.07-1.025,0.037
					c-1.639,1.4-2.862,2.933-3.646,4.949C136.616,61.92,137.746,61.785,137.875,61.454L137.875,61.454z"/>
			</g>
		</g>
		<g>
			<g>
				<path fill="#7ED1E4" d="M79.445,177.504c3.818,1.667,7.098,4.297,9.191,7.936c0.374-0.119,0.747-0.238,1.121-0.356
					c-2.034-1.707-4.006-3.443-5.415-5.725c-0.316,0.135-0.632,0.27-0.949,0.404c3.303,0.219,5.137,3.705,5.565,6.639
					c0.374-0.119,0.747-0.238,1.121-0.356c-1.386-1.729-2.764-3.445-3.813-5.405c-0.374,0.119-0.747,0.238-1.121,0.356
					c1.075,0.528,1.88,1.577,2.54,2.542c0.653,0.957,1.812,4.48-0.817,3.042c-2.246-1.229-4.599-4.958-4.771-7.541
					c-0.35,0.13-0.7,0.259-1.05,0.389c3.123,1.186,5.318,3.833,6.947,6.655c0.374-0.119,0.747-0.238,1.121-0.356
					c-2.653-2.274-5.626-4.183-7.338-7.331c-0.35,0.13-0.7,0.259-1.05,0.389c3.951,0.91,6.979,4.424,9.546,7.345
					c0.362-0.134,0.724-0.269,1.086-0.402c-1.202-0.979-2.115-2.113-2.848-3.482c-0.374,0.119-0.747,0.238-1.121,0.356
					c1.049,0.8,1.781,1.835,2.563,2.885c0.173,0.233,1.279-0.144,1.086-0.402c-0.781-1.051-1.513-2.086-2.563-2.885
					c-0.185-0.141-1.251,0.111-1.121,0.356c0.756,1.41,1.672,2.561,2.917,3.574c0.223,0.183,1.296-0.163,1.086-0.402
					c-2.613-2.975-5.665-6.482-9.688-7.409c-0.14-0.032-1.198,0.116-1.05,0.389c1.729,3.18,4.723,5.122,7.408,7.423
					c0.188,0.161,1.25-0.133,1.121-0.356c-1.684-2.916-3.936-5.587-7.158-6.812c-0.213-0.08-1.071,0.068-1.05,0.389
					c0.197,2.958,3.558,8.539,7.007,8.022c4.037-0.604,0.205-5.834-1.718-6.778c-0.171-0.085-1.27,0.077-1.121,0.356
					c1.068,1.995,2.471,3.738,3.882,5.497c0.162,0.202,1.163-0.068,1.121-0.356c-0.462-3.172-2.489-6.595-5.978-6.826
					c-0.109-0.007-1.096,0.166-0.949,0.404c1.427,2.31,3.419,4.085,5.484,5.816c0.188,0.158,1.25-0.131,1.121-0.356
					c-2.145-3.727-5.49-6.384-9.402-8.092C80.126,176.923,79.073,177.341,79.445,177.504L79.445,177.504z"/>
			</g>
		</g>
		<g>
			<g>
				<path fill="#7ED1E4" d="M193.238,150.829c3.849-3.866,7.549-7.872,10.902-12.18c0.451-0.58-0.645-0.751-0.967-0.338
					c-3.353,4.308-7.054,8.313-10.902,12.18C191.761,151.005,192.877,151.191,193.238,150.829L193.238,150.829z"/>
			</g>
		</g>
		<g>
			<g>
				<path fill="#7ED1E4" d="M173.587,115.232c-0.255,9.135-4.078,17.341,0.641,25.965c0.184,0.335,1.286-0.07,1.156-0.309
					c-4.667-8.529-0.894-16.938-0.641-25.966C174.75,114.666,173.599,114.844,173.587,115.232L173.587,115.232z"/>
			</g>
		</g>
		<g>
			<g>
				<path fill="#7ED1E4" d="M120.386,58.413c0.052-1.085-0.055-2.153-0.322-3.206c-0.455-2.584-5.216-2.312-6.922-2.083
					c-3.556,0.476-7.559,1.957-9.236,5.327c-2.652,5.329-4.024,11.072-4.486,16.99c-0.515,6.583,13.487,2.2,15.569-1.025
					c3.498-5.417,3.828-11.802,6.659-17.477c-5.386,1.081-10.772,2.163-16.158,3.244c1.144,9.917-0.822,19.868-0.639,29.813
					c0.047,2.572,5.551,2.267,6.922,2.083c3.284-0.439,7.907-1.914,9.236-5.327c4.169-10.711,3.877-23.106,9.687-33.171
					c-5.196,0.705-10.391,1.41-15.587,2.115c0.671,11.95-8.235,24.073-3.207,35.903c1.983,4.667,12.014,1.633,14.529-1.005
					c8.831-9.261,5.857-21.889,11.316-32.526c-5.196,0.705-10.391,1.41-15.587,2.115c1.549,12.078-4.798,23.456-5.109,35.455
					c-0.167,6.406,11.969,2.255,14.511,0.085c5.886-5.024,5.925-13.669,6.708-20.778c0.377-3.41,1.104-6.816,1.76-10.182
					c0.555-2.851,1.366-8.998,4.16-10.642c-4.351-0.01-8.701-0.02-13.052-0.029c2.504,6.563,0.126,13.924-0.958,20.567
					c-1.425,8.726-2.178,17.719-1.929,26.557c0.148,5.259,15.02,0.886,16.158-3.244c2.106-7.636,2.589-15.654,3.22-23.524
					c0.321-4.004,0.049-12.533,3.486-15.27c-4.842,0.335-9.686,0.67-14.528,1.005c3.544,7.684,1.312,16.979,0.716,25.068
					c-0.556,7.561-2.948,17.039-0.077,24.3c2.245,5.68,14.4,0.783,16.158-3.244c2.444-5.597,1.938-12.506,2.183-18.477
					c0.152-3.7,0.4-7.392,1.039-11.043c0.273-1.562,0.717-3.076,1.273-4.557c0.595-1.586,2.193-2.063-0.452-0.858
					c-3.741-0.31-7.481-0.621-11.223-0.931c7.057,14.778-5.375,30.843-0.961,46.163c1.547,5.369,13.622,0.939,15.587-2.115
					c4.176-6.491,3.651-14.293,4.737-21.645c0.775-5.245,0.12-15.077,4.781-18.599c-4.656,0.647-9.313,1.293-13.97,1.94
					c5.085,4.891,1.898,16.762,1.045,22.833c-1.221,8.68-5.093,18.811-2.884,27.522c1.316,5.193,13.909,1.148,15.587-2.115
					c4.573-8.896,3.982-18.873,5.502-28.535c0.772-4.91,1.534-16.307,6.385-19.009c-4.351-0.01-8.701-0.02-13.052-0.029
					c3.578,8.488,0.202,18.559-1.506,27.136c-2.007,10.075-6.703,20.12-5.225,30.568c0.725,5.121,12.61,0.897,14.529-1.005
					c5.963-5.911,6.968-14.564,8.626-22.432c2.037-9.663,4.965-20.049,10.383-28.368c-5.189,0.342-10.38,0.684-15.569,1.025
					c-0.863,10.41-4.771,20.182-7.59,30.155c-3.127,11.064-7.243,21.841-10.041,32.997c-1.472,5.865,14.452,2.65,16.141-2.152
					c3.591-10.217,5.79-20.823,8.495-31.291c2.96-11.453,8.2-22.091,11.38-33.464c-5.38,0.718-10.761,1.436-16.141,2.153
					c-1.884,12.911-4.651,25.689-6.026,38.67c-1.342,12.667-2.574,25.352-6.153,37.626c5.386-1.082,10.772-2.163,16.158-3.244
					c-1.038-13.159,3.05-26.231,6.604-38.747c2.665-9.383,4.663-21.366,11.94-28.45c-4.844,0.335-9.687,0.67-14.529,1.005
					c0.922,10.033-3.847,20.187-6.646,29.613c-3.536,11.912-5.254,24.51-8.081,36.619c5.38-0.718,10.761-1.437,16.141-2.153
					c0.179-9.307,2.83-18.034,5.149-26.966c1.97-7.587,3.88-16.93,9.569-22.729c-4.656,0.647-9.313,1.293-13.969,1.94
					c2.527,3.379-0.515,11.907-1.129,15.606c-1.178,7.094-2.717,14.127-4.223,21.157c-2.853,13.318-4.718,26.896-4.824,40.523
					c-0.036,4.649,16.128,1.725,16.176-4.334c0.116-14.885,2.943-29.602,6.02-44.113c1.488-7.019,2.85-14.059,3.898-21.157
					c0.718-4.854,2.353-9.588-0.863-13.887c-2.599-3.476-11.64-0.433-13.969,1.94c-6.298,6.421-9.322,14.524-11.722,23.054
					c-2.858,10.161-6.051,20.491-6.255,31.119c-0.125,6.486,14.994,2.757,16.141-2.153c2.94-12.594,4.813-25.609,8.492-38.001
					c2.941-9.906,7.239-19.863,6.27-30.411c-0.474-5.155-12.709-0.767-14.529,1.005c-8.637,8.409-11.584,20.171-14.77,31.413
					c-3.914,13.812-8.215,27.92-7.068,42.443c0.431,5.457,14.987,0.771,16.158-3.244c3.578-12.269,4.83-24.961,6.153-37.626
					c1.357-12.981,4.144-25.76,6.026-38.669c0.91-6.241-14.782-2.707-16.141,2.153c-3.017,10.787-7.951,20.897-10.913,31.707
					c-3.02,11.019-5.166,22.25-8.962,33.048c5.38-0.717,10.761-1.436,16.141-2.152c2.668-10.636,6.667-20.863,9.619-31.416
					c2.932-10.478,7.106-20.816,8.012-31.737c0.547-6.591-13.485-2.174-15.569,1.025c-5.446,8.362-8.046,17.838-10.748,27.334
					c-1.015,3.566-1.575,7.274-2.376,10.893c-0.688,3.107-1.39,7.994-3.77,10.352c4.844-0.335,9.687-0.67,14.529-1.005
					c-1.429-10.096,3.665-21.024,5.689-30.855c1.735-8.429,4.549-18.528,1.041-26.849c-1.876-4.45-10.208-1.613-13.052-0.029
					c-7.93,4.416-10.412,13.361-11.961,21.711c-1.779,9.582-0.48,21.338-4.996,30.122c5.195-0.705,10.392-1.41,15.587-2.115
					c-1.255-4.951,0.169-10.196,1.168-15.08c0.9-4.398,1.48-8.808,2.102-13.25c0.987-7.051,3.273-18.295-2.551-23.897
					c-3.474-3.342-10.838-0.425-13.968,1.94c-5.914,4.47-6.765,12.185-7.527,19.032c-0.387,3.47-0.891,6.912-1.195,10.391
					c-0.375,4.259-0.535,9.346-2.912,13.042c5.195-0.705,10.391-1.41,15.587-2.115c-4.397-15.265,8.141-31.129,0.961-46.163
					c-1.757-3.679-8.396-2.218-11.223-0.931c-17.726,8.072-7.705,29.062-13.914,43.285c5.386-1.081,10.772-2.163,16.158-3.244
					c-2.837-7.175-0.413-16.979,0.233-24.506c0.682-7.938,2.601-17.333-0.872-24.862c-2.263-4.905-11.639-1.295-14.528,1.005
					c-5.242,4.172-5.981,11.295-6.561,17.52c-0.802,8.613-1.095,17.376-3.405,25.752c5.386-1.081,10.772-2.163,16.158-3.244
					c-0.253-8.979,0.786-18.159,2.339-27c1.135-6.461,2.979-13.754,0.548-20.124c-1.701-4.458-10.354-1.616-13.052-0.029
					c-7.979,4.693-9.743,13.326-11.216,21.812c-0.647,3.729-1.095,7.433-1.53,11.193c-0.327,2.831-0.483,8.656-2.837,10.665
					c4.837,0.028,9.674,0.057,14.511,0.085c0.333-12.799,6.808-24.677,5.145-37.635c-0.677-5.281-14.04-0.899-15.587,2.115
					c-2.543,4.957-3.553,10.124-4.505,15.575c-0.795,4.551-1.324,11.197-4.694,14.731c4.843-0.335,9.686-0.67,14.529-1.005
					c-4.817-11.334,3.867-24.147,3.207-35.903c-0.301-5.363-14.003-0.628-15.587,2.115c-6.344,10.991-6.301,23.797-10.829,35.428
					c5.386-1.081,10.772-2.163,16.158-3.244c-0.183-9.961,1.787-19.855,0.639-29.813c-0.298-2.586-5.345-2.294-6.922-2.083
					c-3.559,0.476-7.555,1.958-9.236,5.327c-2.428,4.866-2.556,10.635-5.517,15.22c5.19-0.342,10.38-0.684,15.569-1.025
					c0.463-5.918,1.834-11.662,4.486-16.99c-5.386,1.081-10.772,2.163-16.158,3.244c0.267,1.053,0.375,2.122,0.322,3.206
					C104.33,67.526,120.537,64.431,120.386,58.413L120.386,58.413z"/>
			</g>
		</g>
		<g>
			<g>
				<path fill="#7ED1E4" d="M112.222,174.628c4.016,16.576,25.146,19.188,39.007,22.332c3.727,0.846,8-0.22,11.346-1.919
					c1.355-0.688,5.599-3.912,1.833-4.767c-12.649-2.87-32.334-4.811-36.01-19.98C127.394,166.149,111.178,170.321,112.222,174.628
					L112.222,174.628z"/>
			</g>
		</g>
		<g>
			<g>
				<path fill="#7ED1E4" d="M71.084,78.36c-8.789,6.991-12.124,19.89-16.073,29.894c-5.922,14.999,0.043,32.018,5.361,46.385
					c5.084,13.732,12.409,26.714,21.74,38.004c4.859,5.88,10.479,11.1,16.669,15.549c4.973,3.573,10.544,7.332,16.793,7.727
					c0.418,0.027,1.237-0.574,0.458-0.623c-7.297-0.462-14.22-5.911-19.773-10.24c-5.238-4.084-9.842-8.946-14.064-14.055
					c-8.973-10.857-15.655-23.56-20.668-36.671c-5.297-13.854-10.956-30.7-5.755-45.262c3.619-10.13,7.53-23.621,16.231-30.543
					C72.514,78.118,71.356,78.144,71.084,78.36L71.084,78.36z"/>
			</g>
		</g>
		<g>
			<g>
				<path fill="#7ED1E4" d="M64.212,78.077c-10.327,10.69-15.51,26.217-17.663,40.634c-1.006,6.735-1.275,13.898,0.347,20.546
					c2.222,9.109,7.77,17.244,11.693,25.663c13.594,29.173,37.623,58.821,71.56,63.174c2.754,0.354,5.992-0.421,8.169-2.189
					c1.79-1.452,1.405-3.343-0.977-3.648c-32.541-4.174-54.964-34.177-67.85-61.83c-3.542-7.601-7.952-14.724-10.596-22.728
					c-2.181-6.601-1.733-13.816-0.837-20.601c1.83-13.853,6.968-28.882,16.829-39.089c1.976-2.045-1.675-2.983-3.019-2.975
					C69.072,75.05,66.168,76.053,64.212,78.077L64.212,78.077z"/>
			</g>
		</g>
		<g>
			<g>
				<path fill="#7ED1E4" d="M130.711,222.967c-4.378-3.198-9.498-4.945-14.551-6.779c-5.758-2.09-11.162-4.961-16.326-8.24
					c-11.411-7.244-19.876-17.903-25.941-29.86c-5.795-11.426-9.051-24.396-11.179-36.973c-1.753-10.36,0.252-22.761-4.531-32.321
					c-2.061-4.12-9.158-1.793-11.213,1.213c-5.277,7.72-3.273,19.287-2.08,27.936c0.755,5.468,1.689,10.802,3.444,16.053
					c2.139,6.401,5.135,12.485,7.342,18.866c4.326,12.506,9.554,24.742,17.614,35.368c7.446,9.816,19.478,13.826,30.397,18.358
					c2.685,1.114,5.797,0.679,8.222-0.931c1.499-0.994,3.542-3.972,0.859-5.085c-10.011-4.155-20.379-7.604-27.819-15.892
					c-8.171-9.1-13.423-21.818-17.196-33.288c-3.682-11.191-8.994-21.414-10.808-33.17c-1.253-8.122-4.112-20.221,0.896-27.547
					c-3.738,0.404-7.476,0.809-11.213,1.213c2.279,4.555,2.645,9.645,2.932,14.655c0.342,5.961,0.674,11.759,1.6,17.667
					c2.155,13.761,6.198,27.61,12.718,39.943c5.906,11.173,13.832,20.449,24.043,27.883c5.332,3.882,11.292,7.069,17.403,9.53
					c5.583,2.249,11.384,3.818,16.307,7.415C125.086,231.507,135.609,226.545,130.711,222.967L130.711,222.967z"/>
			</g>
		</g>
		<g>
			<g>
				<path fill="#7ED1E4" d="M217.743,135.621c-4.476,11.521-5.228,24.004-8.375,35.885c-0.759,2.866,10.61,1.182,11.43-1.912
					c3.147-11.881,3.898-24.363,8.375-35.885C230.131,131.244,218.955,132.503,217.743,135.621L217.743,135.621z"/>
			</g>
		</g>
		<g>
			<g>
				<path fill="#7ED1E4" d="M169.004,195.083c-7.396,6.27-8.914,16.011-15.109,23.114c3.568,0.015,7.137,0.028,10.705,0.043
					c3.411-4.149,5.204-9.249,8.373-13.559c-3.568-0.015-7.137-0.028-10.705-0.043c-2.924,5.608-6.646,10.74-9.568,16.35
					c-2.48,4.761,8.966,3.021,10.705,0.043c4.765-8.159,8.178-17.057,14.354-24.325c-3.705,0.252-7.41,0.504-11.115,0.756
					c-2.507,6.326-6.123,12.161-7.975,18.742c-1.281,4.553,9.683,0.991,11.115-0.756c5.727-6.985,6.465-17.083,12.799-23.534
					c-3.457,0.246-6.914,0.493-10.372,0.739c0.331,7.589-5.529,13.751-4.785,21.528c0.318,3.324,7.998,0.769,9.315-0.006
					c1.962-1.152,3.303-2.438,4.607-4.309c2.907-4.169-8.673-2.957-10.705-0.043c-0.174,0.584-0.501,1.006-0.979,1.268
					c3.104-0.002,6.21-0.004,9.315-0.006c-0.721-7.53,5.119-13.879,4.785-21.528c-0.158-3.609-9.163-0.492-10.372,0.739
					c-7.069,7.2-8.062,17.48-14.314,25.108c3.705-0.252,7.41-0.504,11.115-0.756c1.852-6.581,5.468-12.416,7.975-18.742
					c0.741-1.87-2.408-2.323-3.47-2.328c-2.714-0.012-5.844,0.964-7.646,3.084c-6.18,7.273-9.586,16.162-14.354,24.325
					c3.568,0.015,7.137,0.028,10.705,0.043c2.923-5.608,6.645-10.741,9.568-16.35c2.575-4.94-8.828-2.595-10.705-0.043
					c-3.169,4.309-4.962,9.409-8.373,13.559c-1.774,2.159,1.5,3.119,3.06,3.127c2.742,0.012,5.808-0.978,7.646-3.084
					c5.631-6.457,6.975-15.93,13.594-21.54c1.819-1.542,1.346-3.39-1.02-3.806C174.477,192.42,171.097,193.31,169.004,195.083
					L169.004,195.083z"/>
			</g>
		</g>
		<g>
			<g>
				<path fill="#7ED1E4" d="M120.7,124.231c0.175,0.029,0.351,0.058,0.527,0.086c2.244,0.673,4.488,1.346,6.733,2.019
					c-2.648-7.413,5.955-16.048,10.147-21.348c4.518-5.71-6.473-6.337-9.521-2.855c-3.259,3.723-6.356,7.576-9.688,11.237
					c-2.117,2.326-4.326,4.566-6.668,6.666c-0.684,0.613-1.687,1.424-2.351,1.792c-2.09,1.159,3.737-1.326,3.822,0.66
					c-0.193-4.501,4.771-9.892,7.326-13.164c2.724-3.488,7.028-8.742,9.681-10.642c-3.189-0.585-6.377-1.169-9.566-1.754
					c-3.34,10.262-13.59,19.541-22.239,25.467c3.189,0.585,6.377,1.169,9.566,1.754c1.271-5.249,4.894-9.876,8.357-13.88
					c3.373-3.898,7.963-8.844,13.088-10.319c-2.26-1.007-4.52-2.015-6.78-3.022c-0.527,11.93-12.095,20.918-17.986,30.492
					c-3.198,5.198,7.055,4.229,9.212,2.763c5.395-3.667,9.426-8.66,13.374-13.776c3.741-4.848,8.043-11.595,14.144-13.665
					c-2.244-0.673-4.488-1.346-6.733-2.019c2.013,7.579-6.764,15.248-7.225,22.92c-0.332,5.517,8.386,2.912,10.585,0.883
					c6.517-6.009,10.148-14.238,15.551-21.133c-3.528-0.294-7.057-0.589-10.586-0.883c-0.31,5.571-3.27,10.786-3.631,16.427
					c-0.528,8.263,7.592,8.36,13.51,5.994c1.883-0.753,4.6-3.32,2.859-5.469c-1.814-2.238-5.521-1.488-7.775-0.587
					c0.829-0.332,3.06-0.027,3.255,0.466c-0.286-0.723-0.199-1.485-0.151-2.235c0.128-1.998,0.65-3.986,1.135-5.92
					c0.797-3.175,2.266-6.474,2.449-9.765c0.286-5.144-8.553-3.479-10.586-0.883c-5.38,6.866-9.089,15.174-15.551,21.133
					c3.528,0.294,7.057,0.589,10.586,0.883c0.524-8.72,9.563-15.764,7.13-24.927c-0.687-2.587-4.739-2.695-6.733-2.019
					c-7.258,2.462-12.714,6.901-17.62,12.708c-4.958,5.87-9.007,12.878-15.468,17.269c3.071,0.921,6.142,1.842,9.212,2.763
					c6.336-10.297,18.123-19.579,18.694-32.508c0.152-3.449-4.343-3.724-6.78-3.022c-13.538,3.897-27.855,18.679-31.184,32.422
					c-1.181,4.876,7.728,3.014,9.566,1.754c10.805-7.404,22.263-18.427,26.406-31.154c1.55-4.763-7.899-2.948-9.566-1.754
					c-5.67,4.063-10.291,10.3-14.354,15.865c-2.806,3.844-9.921,12.693-5.563,17.584c5.606,6.291,15.74-2.113,19.903-5.975
					c5.461-5.066,10.003-10.983,14.895-16.57c-3.174-0.952-6.348-1.904-9.521-2.855c-5.507,6.961-15.669,17.533-12.181,27.299
					c0.907,2.54,4.558,2.73,6.733,2.019c3.759-1.23,6.419-2.876,8.503-6.292c1.498-2.456-1.28-4.146-3.38-4.325
					C125.469,120.596,122.206,121.763,120.7,124.231L120.7,124.231z"/>
			</g>
		</g>
		<g>
			<g>
				<path fill="#FFFFFF" d="M93.663,84.769c-2.602,1.478-6.011,10.13-0.522,8.805c0.216-0.052,0.736-0.35,0.38-0.577
					c-2.274-1.448-3.089-3.974-1.202-6.116c-0.372,0.019-0.745,0.038-1.117,0.056c-0.757,2.919-2.67,8.458,2.422,7.628
					c0.554-0.09,0.953-0.78,0.155-0.649c-4.18,0.681-1.97-5.007-1.421-7.12c0.132-0.512-0.967-0.114-1.117,0.056
					c-2.075,2.354-1.125,5.127,1.361,6.71c0.126-0.192,0.253-0.384,0.38-0.577c-2.168,0.523-1.714-2.23-1.38-3.468
					c0.416-1.543,1.324-3.569,2.78-4.396C95.061,84.734,94.042,84.553,93.663,84.769L93.663,84.769z"/>
			</g>
		</g>
		<g>
			<g>
				<path fill="#FFFFFF" d="M106.713,93.9c5.087,3.276,11.2,10.574,5.114,15.923c0.351,0.021,0.701,0.042,1.052,0.064
					c1.157-4.449,0.92-8.625-1.332-12.678c-0.356,0.158-0.711,0.316-1.067,0.475c3.016,2.97,3.878,6.769,2.284,10.706
					c-0.575,1.418-1.59,2.632-2.833,3.506c-3.313,2.329-4.67-2.693-5.07-4.667c-0.075-0.372-0.759-0.181-0.946-0.053
					c-2.705,1.847-3.036,4.488-3.099,7.642c-0.011,0.533,1.138,0.315,1.161-0.122c0.064-1.195,1.246-8.746,4.658-5.071
					c0.61,0.656,0.946,1.31,1.721,1.792c0.751,0.468,2.314,0.179,3.009-0.211c3.903-2.188,3.041-8.14,1.831-11.671
					c-0.141-0.41-1.157-0.192-1.158,0.216c-0.007,2.149-0.087,4.284-0.359,6.418c-0.151,1.188-0.438,2.338-0.953,3.423
					c-1.119,2.358-3.734-1.399-4.307-2.124c-0.2-0.253-0.685-0.107-0.902,0.029c-3.03,1.901-6.365,5.064-4.333,8.78
					c0.207,0.377,1.325-0.003,1.067-0.475c-0.869-2.31-0.454-4.223,1.244-5.741c0.731-1.583,1.618-1.951,2.659-1.104
					c0.719,0.909,1.583,1.643,2.655,2.068c0.761,0.302,1.511,0.017,2.167-0.367c2.823-1.654,2.212-8.37,2.221-11.029
					c-0.386,0.072-0.772,0.144-1.158,0.216c0.918,2.678,1.212,5.45,0.61,8.233c-0.538,2.491-3.525,2.984-4.948,1.072
					c-0.452-0.607-0.977-0.845-1.689-1.012c-3.562-0.837-5.069,4.263-5.197,6.681c0.387-0.041,0.774-0.082,1.161-0.122
					c0.053-2.641,0.074-5.329,2.674-7.104c-0.315-0.018-0.63-0.036-0.946-0.053c0.764,3.773,3.682,7.685,7.567,4.336
					c4.573-3.941,4.464-10.539,0.274-14.666c-0.299-0.294-1.337-0.012-1.067,0.475c2.18,3.924,2.352,8.042,1.238,12.326
					c-0.136,0.523,0.89,0.207,1.052,0.064c6.328-5.563,0.372-13.22-5.148-16.774C107.261,93.067,106.209,93.576,106.713,93.9
					L106.713,93.9z"/>
			</g>
		</g>
		<g>
			<g>
				<path fill="#FFFFFF" d="M177.466,113.117c-4.176,7.357-3.29,16.732-2.918,24.875c0.021,0.455,1.089,0.154,1.159-0.215
					c1.29-6.761,1.282-13.656,1.285-20.515c0-0.527-0.967-0.316-1.126,0.022c-2.831,6.042-2.658,13.713-0.996,20.066
					c0.122,0.466,1.246,0.166,1.156-0.309c-1.127-5.956-2.946-12.937-0.355-18.724c-0.376,0.007-0.751,0.015-1.126,0.022
					c-2.213,11.551-0.096,25.802,8.386,34.481c0.321,0.328,1.419-0.117,1.066-0.479c-8.378-8.573-10.473-22.724-8.29-34.122
					c0.099-0.512-0.981-0.3-1.126,0.022c-2.652,5.926-0.862,13.02,0.289,19.106c0.386-0.103,0.771-0.206,1.156-0.309
					c-1.63-6.229-1.855-13.74,0.93-19.684c-0.376,0.007-0.751,0.015-1.126,0.022c-0.003,6.858,0.005,13.753-1.285,20.515
					c0.386-0.072,0.772-0.143,1.159-0.215c-0.363-7.947-1.234-17.292,2.852-24.49C178.852,112.669,177.682,112.738,177.466,113.117
					L177.466,113.117z"/>
			</g>
		</g>
		<g>
			<g>
				<path fill="#FFFFFF" d="M166.534,223.339c9.697-2.129,18.988-5.976,26.672-12.36c0.481-0.399-0.672-0.292-0.902-0.1
					c-7.476,6.211-16.455,9.937-25.891,12.009C165.719,223.04,165.852,223.489,166.534,223.339L166.534,223.339z"/>
			</g>
		</g>
		<g>
			<g>
				<path fill="#FFFFFF" d="M198.311,206.162c0.475,0,1.214-0.721,0.432-0.721C198.268,205.441,197.528,206.162,198.311,206.162
					L198.311,206.162z"/>
			</g>
		</g>
		<g>
			<g>
				<path fill="#FFFFFF" d="M165.133,221.089c0.226,0,1.311-0.445,0.756-0.445C165.663,220.644,164.578,221.089,165.133,221.089
					L165.133,221.089z"/>
			</g>
		</g>
		<g>
			<g>
				<path fill="#FFFFFF" d="M174.886,221.808c9.307-3.071,16.871-8.761,23.785-15.586c0.485-0.479-0.651-0.479-0.93-0.203
					c-6.683,6.596-14.001,12.216-23.016,15.191C174.051,221.433,174.196,222.035,174.886,221.808L174.886,221.808z"/>
			</g>
		</g>
		<g>
			<g>
				<path fill="#FFFFFF" d="M49.403,114.692c1.818-10.328,6.718-19.369,12.784-27.8c0.326-0.452-0.846-0.381-1.083-0.052
					c-6.114,8.497-11.029,17.583-12.86,27.981C48.158,115.307,49.328,115.117,49.403,114.692L49.403,114.692z"/>
			</g>
		</g>
		<g>
			<g>
				<path fill="#FFFFFF" d="M47.797,120.695c-0.671-15.838,8.765-32.105,19.512-43.125c0.323-0.331-0.829-0.246-1.069,0
					c-10.804,11.078-20.272,27.523-19.598,43.434C46.656,121.339,47.815,121.114,47.797,120.695L47.797,120.695z"/>
			</g>
		</g>
		<g>
			<g>
				<path fill="#FFFFFF" d="M57.539,90.008c4.145-2.807,6.754-7.228,9.507-11.3c3.636-5.381,8.388-10.751,13.575-14.665
					c0.627-0.473-0.313-0.854-0.763-0.515c-4.299,3.243-8.054,7.457-11.451,11.612c-3.898,4.77-6.392,10.804-11.631,14.353
					C56.126,89.934,57.078,90.32,57.539,90.008L57.539,90.008z"/>
			</g>
		</g>
		<g>
			<g>
				<path fill="#FFFFFF" d="M49.081,116.526c-0.33-8.319,2.722-16.012,6.514-23.261c1.977-3.778,4.303-7.372,6.681-10.906
					c1.11-1.65,2.269-3.267,3.429-4.882c2.127-2.962-1.551,1.466-2.036,2.293c-8.365,14.292-16.129,28.766-16.385,45.719
					c-0.003,0.196,1.142,0.029,1.155-0.31c0.456-11.593,3.533-22.426,9.61-32.321c0.092-0.149-0.963-0.089-1.141,0.2
					c-6.092,9.919-9.168,20.833-9.625,32.431c0.385-0.103,0.77-0.207,1.155-0.31c0.283-18.736,9.772-34.251,18.907-49.953
					c0.107-0.184-0.965-0.04-1.141,0.2c-8.703,11.882-18.892,25.962-18.279,41.409C47.934,117.047,49.094,116.857,49.081,116.526
					L49.081,116.526z"/>
			</g>
		</g>
		<g>
			<g>
				<path fill="#FFFFFF" d="M112.111,178.347c6.39,12.959,22.414,9.861,33.795,14.466c0.617,0.25,2.32-0.704,2.186-0.758
					c-11.315-4.578-27.336-1.483-33.67-14.327C114.17,177.216,111.963,178.047,112.111,178.347L112.111,178.347z"/>
			</g>
		</g>
		<g>
			<g>
				<path fill="#8AC08C" d="M154.432,62.519c0.586-1.827,1.008-3.473,1.197-5.385c-1.16,0.213-2.318,0.426-3.479,0.639
					c0.545,3.817,0.737,7.639,1.793,11.364c0.406,1.433,3.2,0.477,3.479-0.639c1.032-4.147,1.361-8.411,2.393-12.56
					c-1.16,0.213-2.318,0.426-3.479,0.639c1.117,4.762,1.746,9.623,2.99,14.354c0.347,1.317,3.445,0.591,3.479-0.639
					c0.095-3.661,0.752-6.825,2.881-9.875c-1.123,0.115-2.246,0.23-3.369,0.346c2.171,5.569,2.036,11.691,4.921,17.004
					c0.53,0.976,2.906,0.245,3.233-0.603c2.115-5.481,1.513-11.72,4.785-16.747c-1.123,0.115-2.246,0.23-3.369,0.346
					c2.947,8.646,1.381,17.968,2.389,26.913c0.156,1.38,3.324,0.52,3.478-0.639c1.034-7.771,0.149-15.733,2.396-23.324
					c-1.159,0.213-2.318,0.426-3.478,0.639c2.294,7.476,2.564,15.394,5.381,22.728c0.504,1.313,3.273,0.599,3.478-0.639
					c0.979-5.927,0.222-12.097,2.882-17.65c-1.123,0.115-2.246,0.23-3.369,0.346c1.215,4.593,1.897,9.26,4.321,13.417
					c0.657,1.127,3.509,0.112,3.331-1.186c-0.392-2.858-0.264-5.789,1.1-8.389c-1.078,0.201-2.156,0.402-3.233,0.603
					c1.495,2.065,3.16,3.88,4.05,6.321c0.535,1.468,3.083,0.431,3.478-0.639c0.471-1.339,1.032-2.637,1.687-3.894
					c-0.998,0.267-1.995,0.535-2.993,0.802c1.553,0.746,2.246,1.59,3.346,2.792c0.939,1.027,4.245-0.296,3.195-1.443
					c-1.215-1.327-2.203-2.41-3.826-3.19c-0.892-0.428-2.512-0.177-2.993,0.802c-0.728,1.478-1.334,2.937-1.903,4.479
					c1.159-0.213,2.318-0.426,3.478-0.639c-0.952-2.611-2.709-4.608-4.321-6.835c-0.685-0.946-2.778-0.265-3.233,0.603
					c-1.558,2.97-1.743,6.279-1.295,9.555c1.11-0.395,2.221-0.791,3.331-1.186c-2.311-3.963-2.895-8.532-4.05-12.902
					c-0.35-1.322-2.941-0.547-3.369,0.346c-2.77,5.784-2.079,12.06-3.099,18.236c1.159-0.213,2.318-0.426,3.478-0.639
					c-2.816-7.333-3.087-15.251-5.381-22.728c-0.446-1.453-3.155-0.452-3.478,0.639c-2.248,7.591-1.363,15.553-2.396,23.324
					c1.159-0.213,2.318-0.426,3.478-0.639c-1.007-8.934,0.559-18.263-2.389-26.913c-0.465-1.364-2.824-0.491-3.369,0.346
					c-3.321,5.101-2.652,11.218-4.785,16.747c1.078-0.201,2.156-0.402,3.233-0.603c-2.772-5.106-2.561-11.129-4.649-16.49
					c-0.528-1.354-2.78-0.498-3.369,0.346c-2.268,3.25-2.996,6.532-3.1,10.461c1.16-0.213,2.318-0.426,3.479-0.639
					c-1.244-4.732-1.874-9.593-2.99-14.354c-0.341-1.453-3.207-0.452-3.479,0.639c-1.031,4.148-1.359,8.412-2.393,12.56
					c1.16-0.213,2.318-0.426,3.479-0.639c-1.057-3.726-1.249-7.547-1.793-11.364c-0.195-1.367-3.361-0.542-3.479,0.639
					c-0.188,1.911-0.61,3.557-1.197,5.385C150.486,64.288,154.006,63.844,154.432,62.519L154.432,62.519z"/>
			</g>
		</g>
		<g>
			<g>
				<path fill="#8AC08C" d="M173.328,105.715c1.935-0.48,3.819-1.092,5.723-1.68c2.755-0.85,2.073,1.98,1.933,4.024
					c-0.52,7.535-6.254,13.843-7.924,21.161c-0.306,1.34,1.883,1.105,2.514,0.852c9.684-3.889,14.022-16.397,20.421-23.828
					c-1.032-0.224-2.064-0.448-3.098-0.672c-6.206,9.529-10.629,20.024-14.951,30.503c-0.744,1.805,2.335,1.58,3.098,0.672
					c11.763-14.004,19.348-30.902,28.918-46.361c-1.103-0.122-2.204-0.244-3.307-0.365c-7.298,15.95-19.399,29.032-26.912,44.857
					c-0.889,1.874,2.348,1.363,3.098,0.672c11.718-10.78,18.011-25.955,26.912-38.876c-1.032-0.224-2.064-0.448-3.098-0.672
					c-5.592,17.333-17.29,31.893-25.719,47.848c-0.883,1.671,2.054,1.447,2.796,0.946c16.449-11.1,17.476-35.08,34.689-45.455
					c-0.932-0.315-1.863-0.631-2.796-0.947c-6.372,17.062-19.945,30.187-26.316,47.25c-0.661,1.771,2.36,1.696,3.098,0.672
					c8.189-11.383,13.215-24.847,22.727-35.288c-1.032-0.224-2.064-0.448-3.098-0.672c-8.004,13.792-18.611,26.539-22.827,42.188
					c-0.446,1.658,2.628,0.976,3.198,0.349c9.575-10.513,14.59-24.362,25.121-34.09c-1.032-0.224-2.064-0.448-3.098-0.672
					c-4.459,9.434-9.515,18.571-13.756,28.109c-0.731,1.646,1.994,1.59,2.796,0.946c7.295-5.855,10.974-14.773,17.941-20.931
					c-0.932-0.315-1.863-0.631-2.796-0.947c-3.25,8.975-9.905,16.143-13.156,25.117c-0.698,1.929,2.288,1.422,3.098,0.672
					c4.365-4.042,7.614-9.13,12.255-12.88c-0.932-0.316-1.863-0.632-2.796-0.947c-2.706,8.378-9.363,14.573-12.557,22.73
					c-0.713,1.821,2.325,1.576,3.098,0.672c1.94-2.269,4.379-3.979,6.576-5.98c-1.065-0.116-2.132-0.232-3.198-0.349
					c-1.015,7.218-5.817,13.252-8.271,20.009c-0.645,1.775,2.356,1.7,3.098,0.672c1.506-2.089,3.116-4.044,4.395-6.286
					c-1.136-0.014-2.271-0.028-3.407-0.042c-1.134,3.998-5.664,11.129-2.226,14.966c1.027,1.147,4.322-0.232,3.178-1.51
					c-2.846-3.176,1.559-10.222,2.556-13.737c0.48-1.695-2.861-0.999-3.407-0.042c-1.161,2.037-2.613,3.782-3.977,5.673
					c1.032,0.224,2.064,0.448,3.098,0.672c2.539-6.995,7.419-13.167,8.472-20.655c0.247-1.761-2.553-0.937-3.198-0.349
					c-2.223,2.024-4.614,3.685-6.576,5.98c1.032,0.224,2.064,0.448,3.098,0.672c3.192-8.156,9.849-14.349,12.557-22.73
					c0.534-1.654-1.902-1.669-2.796-0.947c-4.863,3.93-8.289,9.199-12.858,13.43c1.032,0.224,2.064,0.448,3.098,0.672
					c3.25-8.975,9.905-16.142,13.156-25.117c0.588-1.625-1.946-1.697-2.796-0.947c-6.964,6.155-10.689,15.111-17.941,20.932
					c0.932,0.314,1.863,0.631,2.796,0.946c4.24-9.538,9.296-18.676,13.756-28.109c0.885-1.874-2.347-1.366-3.098-0.672
					c-10.543,9.737-15.545,23.575-25.121,34.09c1.065,0.116,2.132,0.232,3.198,0.349c4.141-15.373,14.763-27.991,22.626-41.541
					c0.981-1.691-2.348-1.495-3.098-0.672c-9.53,10.461-14.53,23.894-22.727,35.288c1.032,0.224,2.064,0.448,3.098,0.672
					c6.37-17.063,19.943-30.188,26.316-47.25c0.656-1.758-1.94-1.462-2.796-0.947c-17.347,10.454-18.334,34.418-34.689,45.456
					c0.932,0.314,1.863,0.631,2.796,0.946c8.428-15.955,20.126-30.515,25.719-47.848c0.571-1.772-2.357-1.747-3.098-0.672
					c-8.896,12.913-15.212,28.111-26.912,38.876c1.032,0.224,2.064,0.448,3.098,0.672c7.512-15.825,19.613-28.907,26.912-44.857
					c0.855-1.871-2.587-1.527-3.307-0.365c-9.438,15.247-16.901,31.938-28.5,45.748c1.032,0.224,2.064,0.448,3.098,0.672
					c4.321-10.478,8.744-20.974,14.951-30.503c1.027-1.578-2.333-1.561-3.098-0.672c-5.969,6.931-10.146,19.246-19.052,22.823
					c0.838,0.284,1.676,0.567,2.514,0.852c1.861-8.16,10.39-17.042,7.685-25.918c-1.262-4.144-9.289-0.18-11.543,0.379
					C170.558,103.936,171.19,106.246,173.328,105.715L173.328,105.715z"/>
			</g>
		</g>
		<g>
			<g>
				<path fill="#8AC08C" d="M107.767,74.429c1.629-3.741,3.411-7.285,6.231-10.278c-1.039,0.067-2.078,0.135-3.117,0.202
					c0.798,1.7,1.585,3.502,1.795,5.383c0.125,1.12,2.712,0.203,3.117-0.202c1.196-1.196,2.392-2.392,3.588-3.588
					c-1.038-0.012-2.076-0.024-3.115-0.037c-0.063,3.881-0.502,7.734-0.002,11.602c0.153,1.187,2.979,0.172,3.342-0.444
					c0.872-1.479,2-2.785,2.99-4.187c-1.113,0.068-2.227,0.137-3.34,0.205c-0.392,2.785-0.129,5.605-0.598,8.373
					c-0.236,1.398,2.912,0.49,3.34-0.205c1.66-2.692,3.488-5.245,5.383-7.775c-1.113,0.068-2.227,0.137-3.34,0.205
					c-0.681,2.941-1.122,5.951-1.197,8.972c-0.035,1.398,3.434,0.654,3.462-0.451c0.075-3.021,0.516-6.03,1.197-8.972
					c0.329-1.419-2.899-0.384-3.34,0.205c-1.895,2.53-3.723,5.083-5.383,7.775c1.113-0.068,2.227-0.137,3.34-0.205
					c0.469-2.776,0.205-5.585,0.598-8.373c0.204-1.45-2.889-0.434-3.34,0.205c-0.99,1.401-2.119,2.707-2.99,4.187
					c1.114-0.148,2.229-0.296,3.342-0.444c-0.479-3.708-0.063-7.406-0.002-11.125c0.021-1.354-2.572-0.58-3.115-0.037
					c-1.196,1.196-2.392,2.392-3.588,3.588c1.039-0.067,2.078-0.135,3.117-0.202c-0.209-1.88-0.997-3.683-1.795-5.383
					c-0.466-0.994-2.548-0.402-3.117,0.202c-3.117,3.308-5.123,7.115-6.925,11.253C103.852,75.922,107.287,75.531,107.767,74.429
					L107.767,74.429z"/>
			</g>
		</g>
		<g>
			<g>
				<path fill="#8AC08C" d="M84.987,70.407c3.44-1.997,6.102-5.137,9.728-6.863c2.024-0.964,0.615,6.43,0.427,7.013
					c-0.66,2.038-1.715,3.94-2.686,5.841c-0.834,1.634,2.432,0.819,3.012,0.354c3.152-2.529,6.287-5.019,9.854-6.943
					c-0.939-0.109-1.877-0.218-2.816-0.327c-0.842,4.332-2.878,8.034-5.265,11.701c1.117-0.053,2.235-0.106,3.352-0.16
					c0.871-4.994,3.172-9.503,1.791-14.607c-0.282-1.042-2.259-0.411-2.814-0.073c-4.199,2.557-6.525,6.885-9.506,10.654
					c1.117-0.053,2.235-0.106,3.352-0.16c0.881-3.671,2.965-6.416,5.265-9.31c-1.078-0.034-2.156-0.067-3.234-0.101
					c-3.087,5.227-7.188,9.532-11.741,13.503c1.043,0.031,2.086,0.063,3.13,0.093c0.475-6.531,5.238-12.074,7.775-17.942
					c0.5-1.155-2.873-0.723-3.352,0.16c-5.56,10.252-12.837,19.352-19.736,28.708c1.117-0.053,2.235-0.106,3.352-0.16
					c1.512-5.35,4.172-10.248,6.462-15.29c-1.117,0.053-2.235,0.106-3.352,0.16c-3.34,13.159-10.332,24.92-16.63,36.822
					c1.117-0.053,2.235-0.106,3.352-0.16c2.09-11.949,7.684-23.338,15.433-32.635c-1.117,0.053-2.235,0.106-3.352,0.16
					c-2.234,18.858-14.617,34.414-19.139,52.631c-0.376,1.515,2.893,0.426,3.352-0.16c8.895-11.346,13.355-26.125,17.463-39.732
					c-1.157,0.14-2.313,0.281-3.47,0.421c-3.581,15.546-16.414,29.063-14.951,45.706c0.119,1.356,2.939,0.086,3.35-0.414
					c10.892-13.25,12.096-31.366,21.531-45.452c-1.117,0.053-2.235,0.106-3.352,0.16c-1.009,17.329-10.939,32.612-15.551,49.043
					c-0.384,1.369,2.911,0.616,3.352-0.16c4.102-7.226,8.424-20.055,4.301-28.029c-0.588-1.138-2.776-0.408-3.35,0.414
					c-6.866,9.838-5.578,21.44-5.497,32.808c0.008,1.123,3.355,0.418,3.468-0.674c1.932-18.79,5.772-39.237,19.396-53.31
					c-1.043,0.054-2.085,0.107-3.128,0.161c1.722,12.588-7.004,25.283-10.766,36.827c-0.409,1.255,3.064,0.74,3.47-0.421
					c4.161-11.911,8.24-23.941,15.431-34.43c-1.117,0.053-2.235,0.106-3.352,0.16c-0.995,14.806-9.025,28.079-13.756,41.866
					c1.157-0.14,2.313-0.28,3.47-0.42c4.408-13.633,10.177-26.741,17.226-39.213c-1.117,0.053-2.235,0.106-3.352,0.16
					c-3.176,16.805-10.628,32.376-14.354,49.04c-0.327,1.463,2.67,0.486,3.13,0.094c10.409-8.912,9.445-26.728,13.498-38.789
					c-1.157,0.14-2.313,0.281-3.47,0.421c-2.085,7.136-5.292,13.904-7.705,20.932c-2.07,6.03-4.106,13.135-1.864,19.393
					c0.435,1.215,2.858,0.326,3.35-0.414c10.3-15.525,8.286-35.585,15.668-52.292c-1.157,0.14-2.313,0.281-3.47,0.421
					c-1.284,5.479-3.009,10.813-4.785,16.148c-0.435,1.307,3.015,0.627,3.47-0.421c2.313-5.324,4.319-10.759,7.06-15.888
					c-1.117,0.053-2.235,0.106-3.352,0.16c-0.15,3.882-1.085,7.562-1.795,11.363c-0.266,1.425,3.133,0.689,3.47-0.421
					c1.309-4.314,3.081-8.354,5.267-12.3c-1.117,0.053-2.235,0.106-3.352,0.16c-0.265,5.57-2.622,10.705-3.59,16.148
					c-0.255,1.436,3.134,0.684,3.47-0.421c1.305-4.288,3.105-8.151,5.863-11.701c-1.117,0.138-2.233,0.276-3.35,0.414
					c0.139,1.605,0.46,3.18,0.6,4.785c0.05,0.577,1.143,0.572,1.503,0.521c0.913-0.194,1.833-0.202,2.762-0.025
					c1.132,0.227,4.098-1.523,2.112-1.921c-1.616-0.323-2.759-0.262-4.414-0.025c0.501,0.174,1.002,0.347,1.503,0.521
					c-0.139-1.605-0.461-3.18-0.6-4.785c-0.116-1.34-2.944-0.108-3.35,0.414c-2.892,3.723-4.73,7.729-6.098,12.223
					c1.157-0.14,2.313-0.281,3.47-0.421c0.968-5.443,3.325-10.578,3.59-16.148c0.071-1.482-2.897-0.661-3.352,0.16
					c-2.278,4.112-4.136,8.318-5.502,12.821c1.157-0.14,2.313-0.281,3.47-0.421c0.71-3.801,1.645-7.481,1.795-11.363
					c0.057-1.473-2.903-0.679-3.352,0.16c-2.832,5.297-4.906,10.909-7.295,16.409c1.157-0.14,2.313-0.281,3.47-0.421
					c1.776-5.335,3.501-10.669,4.785-16.148c0.343-1.464-3.042-0.547-3.47,0.421c-7.298,16.514-5.264,36.443-15.433,51.77
					c1.117-0.137,2.233-0.275,3.35-0.414c-2.356-6.574,0.168-13.935,2.33-20.229c2.261-6.583,5.288-12.898,7.243-19.586
					c0.38-1.301-3.084-0.726-3.47,0.421c-2.022,6.018-2.963,12.37-4.336,18.554c-1.458,6.566-3.135,14.629-8.482,19.206
					c1.043,0.031,2.086,0.063,3.13,0.094c3.725-16.664,11.177-32.235,14.354-49.041c0.273-1.446-2.917-0.61-3.352,0.16
					c-7.141,12.636-12.996,25.923-17.461,39.734c-0.406,1.256,3.069,0.746,3.47-0.42c4.731-13.787,12.761-27.061,13.756-41.867
					c0.104-1.542-2.859-0.559-3.352,0.16c-7.297,10.643-11.444,22.864-15.667,34.951c1.157-0.14,2.313-0.281,3.47-0.421
					c3.841-11.788,12.522-24.47,10.762-37.335c-0.16-1.174-2.687-0.294-3.128,0.161c-13.976,14.436-18.091,35.024-20.076,54.337
					c1.156-0.225,2.312-0.449,3.468-0.674c-0.079-11.01-1.385-22.25,5.265-31.78c-1.117,0.138-2.233,0.276-3.35,0.414
					c3.926,7.593-0.136,20.069-4.07,26.999c1.117-0.053,2.235-0.105,3.352-0.16c4.612-16.43,14.542-31.713,15.551-49.042
					c0.089-1.535-2.86-0.575-3.352,0.16c-9.437,14.088-10.654,32.22-21.531,45.453c1.117-0.139,2.233-0.276,3.35-0.414
					c-1.439-16.374,11.42-29.85,14.955-45.199c0.315-1.37-3.126-0.718-3.47,0.421c-4.065,13.466-8.433,27.992-17.228,39.211
					c1.117-0.053,2.235-0.106,3.352-0.16c4.521-18.21,16.904-33.769,19.139-52.631c0.189-1.6-2.857-0.434-3.352,0.16
					c-7.842,9.409-13.554,21.062-15.668,33.156c-0.251,1.437,2.928,0.641,3.352-0.16c6.384-12.063,13.48-24.004,16.866-37.344
					c0.34-1.338-2.956-0.713-3.352,0.16c-2.367,5.21-5.135,10.281-6.698,15.812c-0.413,1.461,2.893,0.462,3.352-0.16
					c6.899-9.356,14.177-18.457,19.736-28.708c-1.117,0.053-2.235,0.106-3.352,0.16c-2.543,5.88-7.297,11.358-7.775,17.942
					c-0.107,1.472,2.577,0.576,3.13,0.093c4.722-4.12,8.984-8.591,12.185-14.01c0.904-1.53-2.609-0.887-3.234-0.101
					c-2.432,3.06-4.579,5.989-5.5,9.831c-0.366,1.524,2.892,0.422,3.352-0.16c2.627-3.321,4.732-7.426,8.435-9.68
					c-0.938-0.024-1.876-0.048-2.814-0.073c1.331,4.919-0.96,9.313-1.795,14.1c-0.261,1.497,2.895,0.543,3.352-0.16
					c2.498-3.838,4.62-7.688,5.5-12.223c0.263-1.354-2.336-0.586-2.816-0.327c-3.799,2.049-7.125,4.717-10.481,7.41
					c1.004,0.118,2.008,0.236,3.012,0.354c1.42-2.781,7.371-13.677,1.355-14.986c-5.276-1.148-10.237,5.507-14.222,7.821
					C80.796,70.51,83.839,71.074,84.987,70.407L84.987,70.407z"/>
			</g>
		</g>
		<g>
			<g>
				<path fill="#8AC08C" d="M62.436,146.889c4.077,7.794,9.842,14.621,16.86,19.927c0.772-0.513,1.544-1.026,2.316-1.539
					c-5.617,0.383-9.989-8.004-12.131-12.038c-2.376-4.476-4.997-10.234-4.784-15.433c0.053-1.282-3.409-0.526-3.45,0.492
					c-0.268,6.551,3.244,13.441,6.476,18.92c2.593,4.395,6.721,10.231,12.491,9.838c0.303-0.021,3.297-0.798,2.316-1.539
					c-6.893-5.212-12.62-11.895-16.628-19.558C65.335,144.877,61.995,146.045,62.436,146.889L62.436,146.889z"/>
			</g>
		</g>
		<g>
			<g>
				<path fill="#8AC08C" d="M90.95,179.753c2.307,2.062,2.243,5.727,2.739,8.565c0.499,2.849,1.735,5.053,3.841,6.986
					c0.978,0.897,2.821-0.021,3.088-1.146c1.009-4.261-0.059-8.181-1.225-12.31c-1.155,0.31-2.311,0.62-3.466,0.93
					c1.764,4.932,3.022,10.021,4.787,14.952c0.583,1.631,3.819,0.78,3.466-0.93c-1.302-6.303-3.905-12.297-4.162-18.79
					c-1.114,0.298-2.229,0.597-3.343,0.896c4.75,7.042,5.762,15.8,9.57,23.324c0.666,1.314,3.979,0.149,3.315-1.244
					c-2.901-6.094-4.627-12.546-5.98-19.138c-1.105,0.415-2.21,0.829-3.315,1.244c5.812,6.314,7.284,15.353,11.363,22.728
					c0.731,1.322,3.656,0.269,3.315-1.244c-1.847-8.218-4.659-16.186-5.98-24.522c-1.105,0.415-2.21,0.829-3.315,1.244
					c7.324,11.179,8.989,24.675,14.951,36.485c0.659,1.305,3.908,0.205,3.315-1.244c-4.268-10.444-8.128-21.14-8.346-32.547
					c-1.114,0.298-2.229,0.597-3.343,0.896c5.434,7.636,7.655,16.853,11.213,25.4c1.105-0.415,2.21-0.829,3.315-1.244
					c-4.896-7.998-9.294-16.14-11.213-25.4c-1.105,0.415-2.21,0.829-3.315,1.244c6.481,8.653,9.072,19.451,15.553,28.109
					c0.976,1.304,4.177,0.039,3.165-1.559c-5.416-8.548-9.784-17.585-10.617-27.795c-1.105,0.415-2.21,0.829-3.315,1.244
					c6.486,9.032,11.345,19.021,16.746,28.706c1.055-0.52,2.11-1.039,3.165-1.559c-5.096-7.519-11.408-14.84-12.408-24.206
					c-1.02,0.499-2.041,0.997-3.061,1.495c7.166,5.098,11.384,12.949,14.546,20.964c1.105-0.415,2.21-0.829,3.316-1.244
					c-3.586-5.479-6.742-11.201-8.221-17.628c-0.907,0.559-1.815,1.116-2.722,1.675c6.275,3.302,9.568,12.1,12.563,18.11
					c1.056-0.52,2.11-1.039,3.166-1.559c-3.553-4.993-5.726-10.472-7.027-16.432c-0.908,0.559-1.815,1.116-2.723,1.675
					c5.163,2.705,7.328,8.591,10.174,13.326c0.746,1.239,3.963,0.192,3.316-1.244c-1.703-3.781-3.869-7.383-4.16-11.613
					c-0.917,0.441-1.834,0.884-2.75,1.326c3.208,1.632,4.982,4.878,6.582,7.94c0.682,1.304,3.979,0.152,3.316-1.244
					c-1.6-3.367-2.787-6.65-2.961-10.414c-1.115,0.298-2.229,0.597-3.344,0.896c2.049,2.144,3.934,4.433,5.98,6.577
					c0.871,0.911,4.021,0.365,3.316-1.244c-0.922-2.101-0.756-4.359-1.197-6.577c-0.908,0.559-1.815,1.116-2.723,1.675
					c1.196,0.597,2.393,1.194,3.588,1.792c1.004,0.502,2.538-0.248,2.749-1.326c0.3-0.773,0.6-1.548,0.899-2.321
					c-0.817,0.219-1.635,0.438-2.451,0.657c1.15,0.401,1.818,1.386,2.99,1.795c1.553,0.542,4.072-1.688,1.979-2.42
					c-1.15-0.401-1.818-1.386-2.99-1.795c-0.758-0.264-1.982-0.081-2.451,0.657c-0.755,1.191-1.224,2.271-1.496,3.659
					c0.917-0.441,1.834-0.884,2.75-1.326c-1.195-0.598-2.392-1.194-3.588-1.792c-1.035-0.517-2.981,0.375-2.723,1.675
					c0.459,2.299,0.247,4.41,1.197,6.577c1.105-0.415,2.211-0.829,3.316-1.244c-2.049-2.144-3.934-4.434-5.98-6.577
					c-0.803-0.84-3.415-0.657-3.344,0.896c0.187,3.997,1.303,7.504,3.016,11.111c1.105-0.415,2.211-0.829,3.316-1.244
					c-1.912-3.656-4.024-6.896-7.77-8.802c-0.807-0.41-2.828,0.189-2.75,1.326c0.313,4.527,2.381,8.236,4.215,12.311
					c1.105-0.415,2.211-0.829,3.316-1.244c-3.224-5.361-5.568-11.152-11.361-14.188c-1.015-0.531-3.003,0.387-2.722,1.675
					c1.351,6.185,3.652,11.892,7.328,17.061c0.963,1.353,4.001,0.118,3.166-1.559c-3.348-6.718-6.755-15.291-13.75-18.972
					c-1.004-0.528-3.019,0.387-2.722,1.675c1.529,6.642,4.816,12.595,8.521,18.257c0.78,1.192,3.907,0.254,3.316-1.244
					c-3.337-8.458-7.797-16.717-15.356-22.095c-1.114-0.792-3.219,0.014-3.061,1.495c1.023,9.585,7.494,17.14,12.709,24.835
					c0.923,1.362,4.081,0.084,3.165-1.559c-5.401-9.686-10.26-19.673-16.746-28.706c-0.935-1.302-3.44-0.284-3.315,1.244
					c0.851,10.429,5.394,19.703,10.918,28.424c1.055-0.52,2.11-1.039,3.165-1.559c-6.479-8.655-9.07-19.453-15.553-28.109
					c-0.884-1.18-3.646-0.349-3.315,1.244c1.965,9.485,6.501,17.84,11.514,26.029c0.751,1.228,3.926,0.224,3.315-1.244
					c-3.647-8.764-5.942-18.199-11.514-26.029c-0.739-1.038-3.37-0.521-3.343,0.896c0.223,11.667,4.03,22.55,8.4,33.244
					c1.105-0.415,2.21-0.829,3.315-1.244c-5.968-11.82-7.609-25.278-14.951-36.485c-0.846-1.291-3.559-0.29-3.315,1.244
					c1.321,8.336,4.133,16.304,5.98,24.522c1.105-0.415,2.21-0.829,3.315-1.244c-4.083-7.38-5.528-16.387-11.363-22.728
					c-0.954-1.036-3.661-0.438-3.315,1.244c1.353,6.591,3.079,13.043,5.98,19.138c1.105-0.415,2.21-0.829,3.315-1.244
					c-3.821-7.548-4.791-16.237-9.57-23.324c-0.712-1.055-3.398-0.505-3.343,0.896c0.268,6.754,2.862,12.931,4.217,19.487
					c1.155-0.31,2.311-0.62,3.466-0.93c-1.765-4.931-3.023-10.02-4.787-14.952c-0.581-1.625-3.939-0.746-3.466,0.93
					c1.094,3.875,2.122,7.598,1.17,11.612c1.03-0.382,2.059-0.764,3.088-1.146c-4.621-4.242-1.967-11.428-6.58-15.552
					C92.398,176.612,89.42,178.385,90.95,179.753L90.95,179.753z"/>
			</g>
		</g>
		<g>
			<g>
				<path fill="#8AC08C" d="M190.187,109.488c-6.054,3.303-5.797,11.412-5.159,17.359c0.748,6.971,3.187,16.948,9.386,21.192
					c1.27,0.869,4.173-0.604,2.664-2.031c-11.817-11.182-12.309-26.917-6.245-41.235c-1.131,0.083-2.263,0.167-3.395,0.25
					c1.056,8.834-12.219,34.83,4.725,35.511c1.712,0.069,3.529-2.479,1.186-2.574c-13.304-0.535-1.56-26.466-2.443-33.866
					c-0.185-1.544-2.976-0.739-3.395,0.25c-6.495,15.336-5.663,31.805,6.903,43.695c0.888-0.677,1.776-1.354,2.664-2.031
					c-4.803-3.289-6.641-10.392-7.852-15.735c-1.07-4.719-2.938-15.708,2.512-18.68
					C193.807,110.463,191.938,108.532,190.187,109.488L190.187,109.488z"/>
			</g>
		</g>
		<g>
			<g>
				<path fill="#8AC08C" d="M202.021,108.662c2.287-7.618-6.353-6.366-11.012-4.175c-5.225,2.457-8.777,7.692-11.101,12.773
					c-4.4,9.62-5.983,26.153,4.96,32.15c2.379,1.303,7.989,0.259,7.147-3.471c-1.443-6.396-2.559-12.773-1.781-19.339
					c0.856-7.235,5.242-13.082,10.611-17.712c-2.037-1.067-4.073-2.135-6.11-3.202c-5.907,7.653-9.552,18.486-8.986,28.21
					c0.281,4.844,0.298,14.417,6.98,14.53c8.772,0.15,7.805-10.662,6.333-16.094c-1.076-3.973-2.865-7.983-2.764-12.152
					c0.152-6.241,3.021-11.395,8.133-14.882c-2.27-0.552-4.54-1.104-6.811-1.655c-0.293,7.434-2.886,15.088-3.933,22.463
					c-0.816,5.757-3.654,19.276,3.334,22.554c3.07,1.441,7.728,0.279,9.853-2.351c2.688-3.328,2.514-7.962,2.331-12.001
					c-0.255-5.654-1.084-11.267-1.494-16.91c-0.292-4.022-1.199-10.582,1.604-13.965c-2.482-0.061-4.966-0.122-7.448-0.183
					c4.49,13.627-0.977,27.939,1.201,41.867c0.571,3.654,8.027,1.947,8.148-1.365c0.459-12.592-1.604-25.346,1.789-37.68
					c-2.716,0.455-5.433,0.91-8.148,1.364c4.501,10.833,3.583,22.423,3.531,33.888c2.736-0.188,5.473-0.375,8.209-0.563
					c-0.109-10.418-3.355-23.884,2.89-33.143c-2.366,0.181-4.732,0.362-7.099,0.542c5.592,8.256,2.682,21.696,0.785,30.768
					c2.716-0.455,5.433-0.91,8.148-1.365c-1.592-9.618-1.722-19.474,1.032-28.903c-2.642,0.189-5.283,0.379-7.925,0.568
					c1.677,5.785,1.177,11.792,1.135,17.74c-0.03,4.355,8.182,3.22,8.209-0.562c0.046-6.46,0.565-13.064-1.256-19.346
					c-0.929-3.203-7.089-2.292-7.925,0.568c-3.09,10.579-3.149,21.279-1.358,32.101c0.654,3.952,7.528,1.603,8.148-1.365
					c2.155-10.311,4.728-24.475-1.605-33.824c-1.463-2.161-5.784-1.407-7.099,0.542c-7.276,10.788-4.418,24.042-4.29,36.238
					c0.046,4.353,8.191,3.221,8.209-0.563c0.054-11.942,1.036-24.208-3.652-35.493c-1.533-3.69-7.261-1.862-8.148,1.364
					c-3.394,12.334-1.33,25.088-1.789,37.681c2.716-0.455,5.433-0.91,8.148-1.365c-2.184-13.966,3.338-28.091-1.201-41.866
					c-1.025-3.111-5.813-2.156-7.448-0.183c-5.037,6.081-3.173,16.081-2.479,23.257c0.461,4.77,1.084,9.536,1.045,14.336
					c-0.013,1.574-0.098,3.253-0.666,4.733c-0.468,1.219,0.871-0.958,1.741,0.041c-1.712-1.965-1.227-6.179-1.146-8.533
					c0.148-4.362,0.79-8.713,1.472-13.018c0.967-6.097,3.114-12.462,3.357-18.636c0.144-3.642-4.865-2.982-6.811-1.655
					c-6.691,4.566-10.326,11.278-10.93,19.314c-0.494,6.58,3.186,12.887,4.091,19.316c0.178,1.259-0.134,2.091-0.845,3.091
					c3.787,1.02,5.197,0.758,4.231-0.783c-0.309-0.7-0.474-1.475-0.658-2.213c-0.607-2.429-0.846-4.992-0.99-7.487
					c-0.483-8.3,2.582-17.913,7.625-24.447c2.977-3.856-3.615-5.354-6.11-3.202c-6.277,5.415-10.922,11.56-12.959,19.678
					c-1.906,7.599-0.232,15.946,1.453,23.413c2.382-1.157,4.765-2.314,7.147-3.471c-6.847-3.752-6.785-12.727-5.569-19.468
					c1.072-5.949,4.948-16.351,12.302-16.353c-1.121-0.417-2.242-0.834-3.362-1.251c0.177,0.295,0.354,0.591,0.531,0.886
					c-0.063-0.775-0.124-1.55-0.187-2.325c-0.233,0.481-0.411,0.982-0.531,1.505C192.888,112.2,200.947,112.236,202.021,108.662
					L202.021,108.662z"/>
			</g>
		</g>
		<g>
			<g>
				<path fill="#8AC08C" d="M190.528,110.576c4.018-7.923,16.763-2.757,22.2-10.058c6.25-8.392-6.949-15.1-8.154-22.76
					c-2.425,0.997-4.851,1.994-7.275,2.991c6.226,3.559,10.36,16.146,4.192,21.42c-3.511,3.003,4.552,2.813,6.449,1.19
					c8.2-7.013,4.518-21.454-4.179-26.425c-1.746-0.998-7.701,0.284-7.275,2.991c0.618,3.928,3.396,7.009,5.817,10.002
					c1.964,2.427,7.136,9.547,1.488,11.159c-7.557,2.158-16.603,1.202-20.768,9.417
					C181.316,113.872,189.388,112.827,190.528,110.576L190.528,110.576z"/>
			</g>
		</g>
		<g>
			<g>
				<path fill="#8AC08C" d="M203.19,89.244c-3.659,4.41-8.953,7.546-13.259,11.291c-3.281,2.853-8.793,7.977-6.6,12.883
					c1.453,3.25,9.43,0.835,8.088-2.167c-1.752-3.919,4.28-8.109,6.814-10.206c3.855-3.191,8.383-6.001,11.601-9.88
					C213.032,87.311,205.259,86.75,203.19,89.244L203.19,89.244z"/>
			</g>
		</g>
		<g>
			<g>
				<path fill="#8AC08C" d="M182.135,79.327c0.152,1.61,0.445,3.175,0.598,4.785c0.344,3.64,7.724,1.607,8.139-1.398
					c0.939-6.787-1.771-14.294,0.964-20.767c-2.636,0.211-5.271,0.423-7.907,0.634c1.438,6.115,0.641,12.169,0.549,18.37
					c-0.059,3.901,7.03,3.139,7.958,0.135c1.124-3.641,2.585-6.985,4.896-10.041c-2.492-0.287-4.983-0.573-7.475-0.86
					c-0.186,4.568-1.541,8.531-3.952,12.394c2.653,0.045,5.306,0.09,7.958,0.135c-0.003-5.056-0.094-10.095-0.646-15.124
					c-0.438-3.985-7.37-1.17-8.139,1.398c-1.712,5.714-3.411,11.418-4.189,17.347c2.713-0.466,5.426-0.932,8.139-1.398
					c-1.026-8.084-0.646-16.234-1.145-24.353c-0.267-4.361-7.376-2.798-8.189,0.63c-2.287,9.63-2.975,19.455-3.586,29.306
					c2.729-0.21,5.46-0.42,8.189-0.63c-0.036-10.171-0.565-20.332-0.602-30.502c-0.015-4.333-7.504-2.818-8.189,0.63
					c-1.855,9.328-3.568,18.676-4.785,28.11c2.713-0.466,5.426-0.932,8.139-1.398c-2.622-9.458-0.646-18.96,0.051-28.538
					c-2.729,0.21-5.46,0.42-8.189,0.63c0.59,10.101,1.051,21.366-2.759,30.934c2.636-0.211,5.271-0.423,7.907-0.634
					c-4.085-11.06-4.701-22.836-4.732-34.519c-0.011-4.223-8.188-2.972-8.189,0.63c-0.002,5.994-0.059,11.97-0.6,17.943
					c2.713-0.466,5.426-0.932,8.139-1.398c-2.203-4.73-3.406-9.556-3.535-14.783c-0.104-4.208-8.1-2.991-8.189,0.63
					c-0.08,3.186-0.418,6.069-2.161,8.807c2.636-0.211,5.271-0.423,7.907-0.634c-1.166-3.744-1.96-7.583-2.99-11.365
					c-0.989-3.633-6.569-1.453-7.907,0.634c-0.554,0.828-1.189,1.583-1.909,2.266c2.475,0.03,4.949,0.061,7.424,0.091
					c-0.555-2.111,0.529-2.123-1.465-1.79c1.168-0.195,2.549,0.904,3.285,1.657c2.545,2.601,10.204-0.691,7.408-3.549
					c-5.82-5.949-20.192-5.087-17.316,5.849c0.853,3.243,5.867,1.693,7.424,0.091c1.132-1.165,2.002-2.354,2.876-3.716
					c-2.636,0.211-5.271,0.423-7.907,0.634c1.029,3.782,1.824,7.621,2.99,11.365c1.109,3.563,6.524,1.537,7.907-0.634
					c2.004-3.146,2.532-6.66,2.624-10.336c-2.729,0.21-5.46,0.42-8.189,0.63c0.142,5.756,1.197,11.082,3.637,16.32
					c1.443,3.101,7.82,2.119,8.139-1.398c0.541-5.973,0.598-11.95,0.6-17.943c-2.729,0.21-5.46,0.42-8.189,0.63
					c0.032,12.155,0.582,24.544,4.834,36.056c1.148,3.11,6.829,2.073,7.907-0.634c4.054-10.18,3.852-21.697,3.222-32.463
					c-0.244-4.185-7.925-3.018-8.189,0.63c-0.734,10.096-2.712,20.112,0.051,30.075c0.982,3.544,7.733,1.747,8.139-1.398
					c1.218-9.435,2.93-18.783,4.785-28.11c-2.729,0.21-5.46,0.42-8.189,0.63c0.036,10.171,0.565,20.332,0.602,30.502
					c0.015,4.215,7.965,2.985,8.189-0.63c0.612-9.851,1.299-19.676,3.586-29.306c-2.729,0.21-5.46,0.42-8.189,0.63
					c0.529,8.635,0.154,17.291,1.246,25.89c0.463,3.646,7.742,1.622,8.139-1.398c0.779-5.929,2.479-11.633,4.189-17.347
					c-2.713,0.466-5.426,0.932-8.139,1.398c0.496,4.521,0.542,9.045,0.545,13.587c0.002,4.333,6.469,2.52,7.958,0.135
					c2.663-4.266,4.211-8.887,4.415-13.923c0.153-3.771-5.905-2.936-7.475-0.86c-2.669,3.53-4.556,7.258-5.862,11.491
					c2.653,0.045,5.306,0.09,7.958,0.135c0.101-6.719,0.906-13.288-0.65-19.907c-0.794-3.379-6.887-1.781-7.907,0.634
					c-3.047,7.214-0.391,14.804-1.427,22.296c2.713-0.466,5.426-0.932,8.139-1.398c-0.152-1.61-0.445-3.175-0.598-4.785
					C189.876,73.488,181.769,75.45,182.135,79.327L182.135,79.327z"/>
			</g>
		</g>
		<g>
			<g>
				<path fill="#8AC08C" d="M75.344,77.221c-0.562,0.422-0.999,0.858-1.438,1.408c1.09-0.59,2.179-1.18,3.269-1.77
					c-0.149,0.038-0.299,0.075-0.448,0.112c1.499,0.2,2.997,0.4,4.495,0.6c-1.813-4.081,8.732-10.312,11.798-10.485
					c-0.79-0.468-1.579-0.936-2.368-1.403C86.63,75.55,78.016,82.465,71.814,90.889c2.48-0.057,4.959-0.115,7.439-0.172
					c6.299-8.771,13.189-17.95,22.633-23.529c-2.05-0.273-4.1-0.547-6.15-0.821c-5.11,7.546-10.812,14.655-15.251,22.64
					c-1.245,2.239,6.683,0.411,7.739-0.683c5.829-6.04,10.16-13.382,16.803-18.628c-2.3-0.113-4.599-0.226-6.898-0.338
					c-2.715,4.043-5.428,8.042-7.478,12.473c-1.144,2.474,6.375,0.526,7.198-0.173c3.127-2.659,5.753-5.689,8.318-8.883
					c2.037-2.537-4.357-1.653-5.229-1.249c-16.211,7.494-26.116,21.942-36.901,35.513c-1.175,1.479,1,1.938,2.068,1.915
					c1.948-0.044,3.962-0.724,5.371-2.086c6.421-6.211,9.161-15.017,13.456-22.641c1.095-1.943-6.578-0.906-7.739,0.683
					c-7.239,9.909-14.69,20.32-18.241,32.21c-0.813,2.725,6.332,0.618,7.198-0.173c8.971-8.188,10.241-21.038,13.403-32.123
					c0.739-2.59-7.125-0.857-8.039,1.194c-3.03,6.799-6.548,13.355-9.347,20.261c-2.385,5.885-5.546,14.066-2.641,20.297
					c1.058,2.27,6.741,0.404,7.764-1.169c5.725-8.814,7.086-19.524,12.263-28.621c-2.68,0.398-5.359,0.796-8.039,1.194
					c-1.019,14.026-12.229,25.593-10.792,39.959c0.252,2.522,7.414,0.015,8.063-1.68c4.885-12.747,5.193-27.759,14.653-38.364
					c-2.58,0.228-5.16,0.456-7.739,0.683c-0.911,10.609-6.271,20.195-6.005,30.988c0.066,2.67,7.295-0.324,8.063-1.681
					c5.344-9.434,5.844-21.241,13.456-29.394c-2.58,0.228-5.16,0.456-7.739,0.683c-1.439,11.144-7.488,21.045-8.373,32.298
					c-0.249,3.166,7.108,0.529,8.039-1.194c3.908-7.233,4.332-15.787,8.671-22.816c-2.58,0.228-5.16,0.456-7.739,0.683
					c-1.931,13.173-6.373,25.916-6.007,39.362c0.057,2.092,7.872,0.493,8.063-1.682c0.968-11-3.435-23.786,3.29-33.578
					c-2.588,0.39-5.176,0.78-7.764,1.169c1.498,5.667-2.906,7.73-6.757,10.681c-3.651,2.797-3.048,5.655,0.443,8.27
					c1.641,1.229,7.333,0.257,7.799-2.089c1.082-5.443,2.824-8.82,6.851-12.455c3.725-3.362,4.674-7.816,5.11-12.666
					c-2.688,0.56-5.375,1.121-8.063,1.681c-0.433,9.922-8.187,17.708-9.151,27.597c-0.271,2.787,7.633,1.11,8.039-1.194
					c2.254-12.799,10.547-23.322,15.156-35.261c-2.688,0.56-5.375,1.121-8.063,1.681c1.053,6.141,0.496,12.079-1.173,18.055
					c2.68-0.398,5.359-0.796,8.039-1.194c0.598-7.171,1.079-14.803,5.083-21.02c-2.588,0.39-5.176,0.78-7.764,1.169
					c1.218,4.906,1.194,9.927,1.199,14.952c0.002,2.215,7.538,0.276,8.063-1.681c1.036-3.857,1.735-7.794,3.588-11.364
					c-2.688,0.56-5.375,1.121-8.063,1.681c0.749,2.805,1.642,5.568,2.393,8.373c0.62,2.315,7.796,0.369,8.063-1.681
					c0.301-2.309,1.421-4.299,1.793-6.578c-2.6,0.696-5.2,1.393-7.799,2.089c0.816,1.152,1.057,2.489,1.531,3.778
					c0.901,2.45,8.894,0.023,8.088-2.167c-0.62-1.686-1.015-3.12-2.059-4.595c-1.201-1.696-7.479,0.125-7.799,2.089
					c-0.372,2.28-1.492,4.27-1.793,6.578c2.688-0.56,5.375-1.121,8.063-1.681c-0.751-2.805-1.644-5.568-2.393-8.373
					c-0.725-2.716-7.243,0.1-8.063,1.681c-1.852,3.571-2.552,7.508-3.588,11.364c2.688-0.56,5.375-1.121,8.063-1.681
					c-0.004-5.026,0.019-10.046-1.199-14.952c-0.604-2.434-6.905-0.164-7.764,1.169c-4.302,6.68-5.037,14.3-5.683,22.042
					c-0.239,2.866,7.428,0.993,8.039-1.194c1.752-6.276,2.326-12.584,1.222-19.027c-0.441-2.572-7.404-0.026-8.063,1.681
					c-4.609,11.938-12.902,22.462-15.156,35.261c2.68-0.398,5.359-0.796,8.039-1.194c0.999-10.241,8.749-18.219,9.2-28.569
					c0.084-1.932-7.858-0.601-8.063,1.681c-0.478,5.315-1.511,8.962-5.535,12.454c-3.868,3.357-5.446,7.732-6.426,12.666
					c2.6-0.696,5.2-1.393,7.799-2.089c-4.622-3.462-1.079-4.752,2.282-7.256c3.65-2.719,5.772-6.291,4.56-10.877
					c-0.649-2.458-6.864-0.14-7.764,1.169c-7.233,10.532-2.853,22.828-3.89,34.602c2.688-0.561,5.375-1.121,8.063-1.682
					c-0.356-13.089,4.078-25.561,5.958-38.388c0.421-2.871-6.83-0.79-7.739,0.683c-4.576,7.414-5.165,16.24-9.271,23.838
					c2.68-0.398,5.359-0.796,8.039-1.194c0.885-11.253,6.934-21.154,8.373-32.298c0.405-3.14-6.729-0.398-7.739,0.683
					c-7.931,8.496-8.501,20.613-14.056,30.417c2.688-0.56,5.375-1.121,8.063-1.681c-0.257-10.417,5.075-19.754,5.956-30.016
					c0.269-3.133-6.697-0.485-7.739,0.683c-9.795,10.981-10.201,26.205-15.253,39.386c2.688-0.56,5.375-1.12,8.063-1.68
					c-1.389-13.887,9.752-25.354,10.743-38.987c0.233-3.207-7.088-0.477-8.039,1.194c-4.97,8.735-6.182,19.159-11.663,27.598
					c2.588-0.39,5.176-0.78,7.764-1.169c-2.813-6.033,0.355-13.596,2.591-19.325c2.708-6.938,6.319-13.467,9.347-20.261
					c-2.68,0.398-5.359,0.796-8.039,1.194c-2.785,9.765-3.79,22.841-11.722,30.08c2.399-0.058,4.799-0.115,7.198-0.173
					c3.449-11.551,10.607-21.561,17.642-31.188c-2.58,0.228-5.16,0.456-7.739,0.683c-4.112,7.299-6.713,15.676-12.856,21.619
					c2.48-0.057,4.959-0.115,7.439-0.172c9.371-11.792,18.335-26.131,32.481-32.671c-1.743-0.416-3.486-0.833-5.229-1.249
					c-2.249,2.801-4.489,5.528-7.236,7.863c2.399-0.058,4.799-0.115,7.198-0.173c1.883-4.072,4.384-7.737,6.878-11.451
					c2.036-3.033-5.783-1.219-6.898-0.338c-7.06,5.577-11.696,13.237-17.885,19.649c2.58-0.228,5.16-0.456,7.739-0.683
					c4.241-7.628,9.769-14.408,14.651-21.618c1.979-2.922-5.156-1.408-6.15-0.821C86.537,71.571,78.831,81.12,71.814,90.889
					c-1.927,2.684,6.101,1.646,7.439-0.172c6.458-8.773,15.244-15.941,19.437-26.228c0.504-1.237-1.707-1.44-2.368-1.403
					c-5.301,0.299-10.431,2.112-14.771,5.199c-2.78,1.977-10.196,7.449-8.417,11.454c0.657,1.48,3.346,0.888,4.495,0.6
					c1.771-0.443,2.693-1.234,4.072-2.269c1.312-0.985,0.96-2.167-0.638-2.381C79.148,75.434,76.883,76.066,75.344,77.221
					L75.344,77.221z"/>
			</g>
		</g>
		<g>
			<g>
				<path fill="#8AC08C" d="M65.261,152.432c5.17,7.494,5.077,17.225,9.57,25.124c1.722,3.027,7.294,0.769,7.799-2.09
					c0.887-5.02-0.42-9.643-1.259-14.573c-2.578,0.97-5.157,1.938-7.735,2.907c3.269,4.626,5.436,9.913,8.971,14.355
					c2.129,2.675,8.52,0.886,7.735-2.907c-0.765-3.696-1.604-7.355-1.729-11.144c-2.401,0.893-4.803,1.786-7.204,2.68
					c4.926,4.254,6.167,11.176,10.169,16.156c2.115,2.632,7.178,1.088,7.799-2.09c0.581-2.969,0.592-5.954,0.598-8.97
					c-2.717,0.45-5.435,0.9-8.152,1.351c2.31,6.369,2.553,13.192,4.188,19.733c0.895,3.582,8.191,2.115,8.152-1.351
					c-0.053-4.74-0.483-9.554,0.975-14.144c-2.644,0.181-5.288,0.361-7.932,0.542c1.106,6.614,1.288,13.379,3.59,19.738
					c1.222,3.377,8.152,2.271,8.152-1.351c0-5.583,0-11.166,0-16.749c-2.717,0.45-5.435,0.9-8.152,1.351
					c2.717,8.171,2.992,16.755,4.785,25.123c0.867,4.048,8.517,1.778,8.088-2.168c-0.758-6.974-3.117-13.668-1.731-20.715
					c-2.717,0.45-5.435,0.9-8.152,1.351c4.623,9.699,6.137,20.39,9.57,30.504c1.321,3.892,8.745,1.835,8.088-2.168
					c-1.188-7.232-4.161-15.628-1.951-22.897c-2.644,0.181-5.288,0.361-7.932,0.542c3.452,8.068,3.923,16.976,7.178,25.119
					c1.551,3.88,8.466,1.85,8.088-2.168c-0.789-8.383-6.024-19.024-1.951-27.083c-2.526,0.427-5.053,0.854-7.579,1.281
					c4.897,9.915,4.189,21.461,8.62,31.561c1.626,3.707,9.6,1.55,8.088-2.168c-2.797-6.878-8.133-20.406-2.427-26.922
					c-2.368,0.173-4.737,0.346-7.105,0.52c4.036,8.086,3.931,17.564,6.227,26.175c0.946,3.549,8.225,2.137,8.152-1.351
					c-0.182-8.753-2.857-17.667-0.6-26.314c-2.6,0.696-5.2,1.393-7.799,2.09c2.686,4.174,3.568,9.137,5.629,13.613
					c1.44,3.127,8.148,2.457,8.152-1.351c0.004-3.813,0.055-7.583,0.598-11.362c-2.6,0.696-5.199,1.393-7.799,2.09
					c2.264,2.939,4.314,6.032,6.58,8.972c1.816,2.357,7.795,1.298,7.799-2.09c0.004-3.397-0.06-6.819,0.598-10.166
					c-2.718,0.45-5.436,0.9-8.152,1.351c1.595,4.084,2.455,8.333,3.588,12.557c1.064,3.972,8.73,1.81,8.088-2.168
					c-0.512-3.168-0.375-6.187,0.064-9.349c-2.718,0.45-5.436,0.9-8.152,1.351c1.004,2.889,2.735,5.427,3.59,8.375
					c1.148,3.964,8.699,1.809,8.088-2.168c-0.357-2.326-0.025-4.629,0.064-6.959c-2.6,0.696-5.199,1.393-7.799,2.09
					c1.438,1.683,2.448,3.495,3.588,5.382c1.993,3.302,9.657,0.124,7.381-3.646c-1.139-1.887-2.15-3.699-3.588-5.382
					c-1.939-2.271-7.666-1.373-7.799,2.09c-0.111,2.913-0.381,5.697,0.064,8.594c2.695-0.723,5.393-1.445,8.088-2.168
					c-0.859-2.965-2.583-5.479-3.59-8.375c-1.26-3.621-7.675-2.082-8.152,1.351c-0.516,3.714-0.533,7.283,0.064,10.983
					c2.695-0.723,5.393-1.445,8.088-2.168c-1.133-4.223-1.992-8.473-3.588-12.557c-1.421-3.639-7.484-2.052-8.152,1.351
					c-0.656,3.347-0.594,6.77-0.598,10.166c2.6-0.696,5.199-1.393,7.799-2.09c-2.265-2.939-4.314-6.031-6.58-8.972
					c-2.002-2.6-7.336-1.125-7.798,2.09c-0.543,3.78-0.594,7.55-0.598,11.362c2.717-0.45,5.435-0.9,8.152-1.351
					c-2.299-4.99-3.333-10.425-6.336-15.092c-1.958-3.043-7.064-0.725-7.798,2.09c-2.263,8.672,0.417,17.559,0.6,26.314
					c2.717-0.45,5.435-0.9,8.152-1.351c-2.47-9.263-2.584-18.94-6.933-27.653c-1.289-2.582-5.748-1.03-7.105,0.52
					c-7.262,8.293-2.452,22.798,1.167,31.697c2.696-0.723,5.392-1.445,8.088-2.168c-4.66-10.621-4.149-22.559-9.326-33.039
					c-1.438-2.91-6.519-0.815-7.579,1.281c-4.741,9.381,0.729,20.662,1.639,30.335c2.696-0.723,5.392-1.445,8.088-2.168
					c-3.255-8.143-3.726-17.05-7.178-25.119c-1.269-2.967-6.97-2.623-7.932,0.542c-2.617,8.61,0.229,17.561,1.639,26.149
					c2.696-0.723,5.392-1.445,8.088-2.168c-3.433-10.113-4.947-20.804-9.57-30.504c-1.635-3.43-7.448-2.231-8.152,1.351
					c-1.493,7.591,1.042,14.839,1.859,22.35c2.696-0.723,5.392-1.445,8.088-2.168c-1.793-8.368-2.068-16.952-4.785-25.123
					c-1.145-3.443-8.152-2.222-8.152,1.351c0,5.583,0,11.166,0,16.749c2.717-0.45,5.435-0.9,8.152-1.351
					c-2.301-6.358-2.484-13.123-3.59-19.738c-0.581-3.472-7.087-2.115-7.932,0.542c-1.661,5.229-1.476,10.338-1.416,15.761
					c2.717-0.45,5.435-0.9,8.152-1.351c-1.634-6.54-1.878-13.363-4.188-19.733c-1.225-3.377-8.146-2.271-8.152,1.351
					c-0.005,3.016-0.018,6.001-0.598,8.97c2.6-0.696,5.199-1.393,7.799-2.09c-4.432-5.517-5.85-12.579-11.358-17.336
					c-1.925-1.662-7.303-0.307-7.204,2.68c0.143,4.349,0.978,8.53,1.857,12.778c2.578-0.97,5.157-1.938,7.735-2.907
					c-3.535-4.442-5.702-9.729-8.971-14.355c-2.058-2.912-8.359-0.759-7.735,2.907c0.747,4.386,1.922,8.465,1.131,12.938
					c2.6-0.696,5.199-1.393,7.799-2.09c-4.501-7.914-4.314-17.505-9.57-25.122C70.443,145.598,62.777,148.832,65.261,152.432
					L65.261,152.432z"/>
			</g>
		</g>
		<g>
			<g>
				<path fill="#8AC08C" d="M150.031,79.17c4.404,0.665,6.491,6.584,6.984,10.324c0.448,3.4,8.563,1.439,8.088-2.167
					c-0.886-6.72-5.238-12.555-12.156-13.6c-1.837-0.277-4.383,0.696-5.291,2.386C146.68,77.931,148.506,78.939,150.031,79.17
					L150.031,79.17z"/>
			</g>
		</g>
		<g>
			<g>
				<path fill="#8AC08C" d="M148.334,96.584c2.303,1.726,4.56,3.472,6.611,5.495c1.422,1.402,3.75,1.181,5.44,0.406
					c1.113-0.51,3.436-2.408,2.003-3.82c-2.402-2.369-5.049-4.445-7.744-6.466C152.068,90.269,144.801,93.936,148.334,96.584
					L148.334,96.584z"/>
			</g>
		</g>
		<g>
			<g>
				<path fill="#8AC08C" d="M178.857,105.269c-0.586-1.933-0.396-3.842,0.057-5.79c0.472-2.029-2.319-2.815-3.754-2.711
					c-1.984,0.144-3.977,1.277-4.447,3.302c-0.558,2.399-0.665,4.988,0.057,7.366C171.917,111.219,179.994,109.017,178.857,105.269
					L178.857,105.269z"/>
			</g>
		</g>
		<g>
			<g>
				<path fill="#8AC08C" d="M142.975,74.168c0-0.639-0.008-1.245,0.115-1.867c0.054-0.27,0.152-0.525,0.261-0.776
					c0.123-0.222,0.128-0.247,0.016-0.073c0.132-0.197,0.298-0.369,0.461-0.54c1.318-1.387-1.133-1.767-2.019-1.731
					c-1.823,0.075-4.084,0.671-5.384,2.039c-1.417,1.49-1.537,3.156-1.538,5.115C134.886,78.128,142.973,76.818,142.975,74.168
					L142.975,74.168z"/>
			</g>
		</g>
		<g>
			<g>
				<path fill="#8AC08C" d="M123.236,63.403c-0.082-0.857-0.456-1.561-0.598-2.391c-1.832,1.278-3.663,2.555-5.495,3.833
					c2.921,0.14,5.06,5.199,3.594,7.663c2.64-0.005,5.279-0.01,7.918-0.015c-0.049-3.986-0.765-7.444-2.756-10.926
					c-1.656-2.896-9.43-0.041-7.436,3.446c1.438,2.515,1.994,5.338,2.029,8.213c0.05,4.054,6.542,2.3,7.918-0.015
					c3.488-5.865-2.094-13.565-8.367-13.866c-2.081-0.1-5.971,1.048-5.495,3.833c0.142,0.83,0.516,1.534,0.598,2.391
					C115.475,68.981,123.587,67.068,123.236,63.403L123.236,63.403z"/>
			</g>
		</g>
		<g>
			<g>
				<path fill="#8AC08C" d="M99.6,69.756c0.307,5.641-1.446,11.187,0,16.747c2.618-0.82,5.236-1.64,7.854-2.46
					c-8.037-3.509-21.33-3.86-25.075,5.981c-1.33,3.494-1.829,10.161,2.544,11.537c3.872,1.219,8.83-3.174,11.684,0.493
					c1.527,1.963,8.69-1.394,8.088-2.167c-3.357-4.314-8.942-2.616-13.514-1.448c0.124-0.031-0.969-1.475-1.24-2.517
					c-0.604-2.321-0.19-5.075,0.415-7.324c1.401-5.206,5.697-3.452,9.477-1.802c1.264,0.552,8.42-0.287,7.854-2.46
					c-1.446-5.56,0.307-11.106,0-16.747C107.609,66.148,99.478,67.519,99.6,69.756L99.6,69.756z"/>
			</g>
		</g>
		<g>
			<g>
				<path fill="#8AC08C" d="M189.85,142.531c-1.067,4.507,0.2,10.664,5.795,11.377c1.937,0.247,3.931-0.609,5.287-1.942
					c1.635-1.608,3.848-2.167,5.87-3.339c2.784-1.612,4.871-2.903,4.924,2.104c0.034,3.232-2.668,6.577-3.706,9.56
					c-2.453,7.048-2.14,15.054-3.813,22.317c-0.927,4.019,7.361,3.057,8.201-0.588c1.722-7.473,1.215-16.079,4.301-23.139
					c2.365-5.414,4.981-10.115,0.967-15.459c-3.021-4.021-8.569-2.873-12.36-0.92c-2.239,1.153-4.227,2.371-6.591,3.279
					c-0.936,0.359-1.651,0.791-2.437,1.412c-0.68,0.539-2.692,1.896-1.063,1.291c1.377-0.109,2.753-0.219,4.13-0.328
					c-2.534-0.736-1.712-4.491-1.305-6.211C199,137.939,190.711,138.895,189.85,142.531L189.85,142.531z"/>
			</g>
		</g>
		<g>
			<g>
				<path fill="#8AC08C" d="M99,189.378c-0.064,7.991,7.072,11.719,13.281,15.019c3.754,1.994,6.805,4.198,9.791,7.252
					c3.504,3.584,6.747,6.964,11.762,8.197c1.809,0.444,7.128-0.291,7.345-2.73c0.336-3.788,0.26-8.886,4.707-10.07
					c-1.475-0.108-2.948-0.217-4.422-0.324c0.604,1.026,1.211,1.87,2.039,2.73c1.436,1.491,5.596-0.41,6.926-1.189
					c6.123-3.587,6.454-9.241,5.104-15.67c-0.412-1.961-8.54,0.015-8.088,2.168c1.026,4.885,1.696,10.135-3.268,13.043
					c2.309-0.396,4.617-0.793,6.926-1.189c-0.64-0.589-1.156-1.275-1.551-2.061c-0.751-1.278-3.326-0.616-4.422-0.324
					c-3.612,0.963-7.402,2.281-9.746,5.363c-2.039,2.682-2.008,6.483-2.293,9.691c2.448-0.91,4.896-1.82,7.346-2.73
					c-4.6-1.131-7.6-4.445-10.767-7.742c-2.669-2.778-5.431-4.882-8.797-6.721c-6.222-3.399-13.852-6.675-13.786-14.88
					C107.101,185.657,99.02,186.872,99,189.378L99,189.378z"/>
			</g>
		</g>
		<g>
			<g>
				<path fill="#8AC08C" d="M93.397,100.11c0.028-0.434-0.157-0.129,0.263-0.47c0.38-0.273,0.417-0.299,0.109-0.078
					c0.244-0.129,0.494-0.247,0.75-0.351c-0.878,0.385,1.244-0.157,0.361-0.048c0.579-0.071,1.13-0.074,1.847,0.394
					c1.055,0.688,1.409,1.943,1.678,3.096c0.924,3.965,9.019,1.828,8.088-2.167c-1.23-5.282-5.724-7.952-10.983-7.577
					c-4.111,0.293-10.026,2.975-10.33,7.725C84.898,105.027,93.149,103.996,93.397,100.11L93.397,100.11z"/>
			</g>
		</g>
		<g>
			<g>
				<path fill="#5E6263" d="M100.691,53.497c9.658-3.943,20.907-4.221,31.197-4.369c9.778-0.141,19.395,0.956,29.043,2.343
					c24.575,3.535,42.579,23.542,53.678,44.356c11.825,22.173,13.253,48.734,5.703,72.581c-3.68,11.622-10.661,22.336-18.115,31.883
					c-7.268,9.309-16.371,16.824-27.309,21.394c-26.095,10.901-61.06,7.959-85.378-6.174c-19.406-11.276-27.738-32.309-36.8-51.679
					c-5.582-11.931-6.608-25.031-5.661-38.04c0.708-9.726,1.934-21.324,6.951-29.902c4.659-7.964,11.265-15.032,17.606-21.665
					c6.138-6.42,12.88-13.284,20.753-17.571C94.931,55.254,97.953,54.515,100.691,53.497c0.609-0.226,3.588-1.624,2.309-2.682
					c-1.294-1.07-3.929-0.257-5.268,0.24c-8.737,3.246-15.467,6.829-22.549,12.962c-7.494,6.489-14.358,13.737-20.682,21.362
					c-4.801,5.79-9.503,11.843-11.556,19.164c-3.369,12.011-4.752,24.722-4.16,37.174c0.611,12.857,5.432,23.454,10.787,34.911
					c4.331,9.267,8.887,18.468,15.13,26.618c14.978,19.555,40.852,26.887,64.447,28.255c24.427,1.417,51.046-3.955,69.91-20.339
					c17.318-15.043,29.629-37.531,32.941-60.123c3.619-24.688-2.272-47.902-15.942-68.553c-12.57-18.99-31.212-33.038-54.31-35.28
					c-20.934-2.032-43.955-4.343-64.016,3.848C92.441,53.216,97.395,54.843,100.691,53.497z"/>
			</g>
		</g>
		<g>
			<g>
				<path fill="#5E6263" d="M152.886,50.383c-3.458,3.421-6.108,7.292-4.561,12.269c1.754,5.643,9.113,8.045,13.438,11.137
					c7.201,5.146,0.644,20.314,12.53,19.753c4.132-0.195,9.634-0.087,13.424-1.985c3.364-1.685,4.161-3.709,4.819-7.235
					c0.787-4.215,4.675-3.201,6.318,0.377c1.098,2.391,0.702,5.35,0.225,7.837c-0.695,3.626-3.052,5.561-6.593,5.562
					c-2.03,0-3.836,0.526-5.576,1.554c-5.404,3.193-7.645,9.913-9.062,15.659c-1.953,7.921-2.078,16.535-0.45,24.521
					c1.174,5.76,4.022,12.19,10.067,14.077c3.06,0.956,6.313,0.205,9.254-0.781c2.676-0.898,9.525-5.377,11.277-1.691
					c4.048,8.518-5.755,19.633-7.169,27.96c-0.657,3.87,3.023,13.425,7.729,7.73c2.053-2.483,3.009-5.686,3.977-8.706
					c1.73-5.396,4.114-10.544,5.874-15.938c4.295-13.159,5.416-27.316,9.213-40.66c0.473-1.66-3.08-1.266-3.514,0.257
					c-4.363,15.333-5.613,31.572-11.327,46.482c-1.689,4.409-3.229,8.83-4.87,13.251c-0.415,1.119-1.411,4.959-2.652,3.191
					c-2.06-2.931-0.794-7.293,0.229-10.329c2.466-7.315,10.534-17.896,5.112-25.725c-3.372-4.869-13.529,1.656-17.297,2.588
					c-8.766,2.165-11.946-9.107-12.948-15.48c-1.344-8.542-0.428-17.968,2.552-26.081c1.124-3.06,2.756-6.152,5.403-8.144
					c3.229-2.429,7.609-0.403,10.952-3.142c6.18-5.063,5.117-17.566-2.812-19.846c-3.328-0.957-6.25,0.947-7.072,4.197
					c-0.881,3.482-0.65,5.877-5.035,6.96c-3.332,0.823-7.184,0.857-10.618,1.02c-3.95,0.187-4.23-6.012-4.509-8.743
					c-0.377-3.711-0.774-6.447-3.358-9.268c-2.458-2.682-6.251-4.162-9.272-6.091c-6.811-4.35-6.031-10.309-0.792-15.493
					C157.34,49.894,153.992,49.288,152.886,50.383L152.886,50.383z"/>
			</g>
		</g>
		<g>
			<g>
				<path fill="#5E6263" d="M182.195,103.95c0.44-3.282-1.168-6.597-4.431-7.663c-3.481-1.138-6.562,1.222-7.978,4.252
					c-1.271,2.724-0.204,6.421,1.471,8.721c2.036,2.797,5.485,2.535,7.737,0.186c0.58-0.605,0.262-1.473-0.467-1.744
					c-0.866-0.323-1.836,0.015-2.451,0.657c-0.437,0.455-0.309,0.486-0.815,0.169c-0.715-0.448-1.176-1.259-1.565-1.981
					c-0.805-1.489-1.192-3.623-0.696-5.264c0.485-1.604,1.67-3.08,3.396-2.369c1.984,0.818,2.533,3.402,2.282,5.275
					C178.434,106.009,181.979,105.571,182.195,103.95L182.195,103.95z"/>
			</g>
		</g>
		<g>
			<g>
				<path fill="#5E6263" d="M166.705,86.206c-0.866-5.385-7.17-16.832-13.911-12.821c-3.21,1.91-4.024,6.758-0.29,8.296
					c2.567,1.058,4.286,1.379,5.402,4.23c1.018,2.602,1.516,4.785,4.26,6.039c0.989,0.452,2.81,0.14,3.101-1.1
					c0.547-2.333,0.898-4.682,0.472-7.061c-0.258-1.433-3.734-0.564-3.467,0.929c0.392,2.179,0.002,4.341-0.497,6.469
					c1.034-0.367,2.067-0.733,3.101-1.1c-3.741-1.709-2.834-6.588-6.1-8.822c-1.096-0.75-2.525-1.081-3.756-1.537
					c-2.175-0.806-1.584-2.385-0.699-4.099c1.296-2.51,4.766,2.824,5.602,4.09c1.438,2.177,2.896,4.8,3.316,7.415
					C163.469,88.563,166.946,87.707,166.705,86.206L166.705,86.206z"/>
			</g>
		</g>
		<g>
			<g>
				<path fill="#5E6263" d="M155.689,91.041c-1.213-0.603-2.435-1.146-3.715-1.596c-0.937-0.329-2.129,0.153-2.663,0.948
					c-4.202,6.249,4.413,10.85,9.717,10.976c0.717,0.017,1.978-0.213,2.268-1.022c1.888-5.261-2.313-7.619-6.093-10.273
					c-1.141-0.801-4.25,0.803-2.701,1.891c2.818,1.979,6.994,3.96,5.509,8.096c0.756-0.341,1.512-0.682,2.268-1.022
					c-4.063-0.097-10.944-3.508-7.682-8.358c-0.888,0.316-1.776,0.632-2.663,0.948c1.053,0.37,2.056,0.808,3.055,1.305
					C154.216,93.542,157.319,91.851,155.689,91.041L155.689,91.041z"/>
			</g>
		</g>
		<g>
			<g>
				<path fill="#5E6263" d="M134.743,78.69c3.055-0.08,6.444-1.38,8.843-3.253c1.073-0.838,1.953-1.826,2.122-3.216
					c0.176-1.449-1.331-2.741-2.442-3.366c-2.444-1.374-5.621,0.223-7.138,2.228c-1.527,2.018-1.885,4.661-3.316,6.704
					c-0.375,0.536,1.289,0.386,1.396,0.368c0.688-0.12,1.602-0.357,2.027-0.964c0.846-1.207,1.272-2.742,1.868-4.08
					c0.369-0.829,0.787-1.633,1.285-2.392c0.207-0.315,0.456-0.593,0.721-0.86c0.1-0.104,0.21-0.194,0.332-0.268
					c-0.963,0.664-1.299,0.06-0.437,0.459c1.97,0.912,2.925,3.012,1.422,4.744c-1.201,1.384-3.357,2.409-5.193,2.457
					C135.284,77.274,132.441,78.75,134.743,78.69L134.743,78.69z"/>
			</g>
		</g>
		<g>
			<g>
				<path fill="#5E6263" d="M109.512,65.95c9.056,4.902,2.251,19.555,12.302,23.72c6.247,2.589,7.996-12.365,9.157-15.44
					c1.334-3.533,2.968-7.342,1.23-11.013c-1.455-3.074-5.459-4.852-8.706-4.924c-6.521-0.145-15.713,4.203-10.854,11.756
					c0.888,1.38,4.177,0.016,3.166-1.556c-4.842-7.526,10.076-10.372,13.321-3.517c1.962,4.145-2.545,11.418-3.604,15.622
					c-0.554,2.198-0.967,4.708-2.319,6.59c-0.133,0.185-3.341-4.819-3.375-4.893c-0.628-1.333-0.827-2.879-1.04-4.319
					c-0.868-5.87-0.827-10.946-6.62-14.082C110.781,63.143,107.777,65.01,109.512,65.95L109.512,65.95z"/>
			</g>
		</g>
		<g>
			<g>
				<path fill="#5E6263" d="M108.168,59.732c-5.667,0.433-10.691,4.831-16.324,4.284c-2.715-0.264-4.706-0.807-7.246,0.546
					c-3.87,2.062-6.376,7.72-8.874,11.128c-3.941,5.377-7.892,10.717-11.032,16.614c-3.199,6.006-4.992,13.076-6.977,19.561
					c-2.149,7.018-2.153,13.234-1.118,20.423c1.854,12.872,8.069,23.133,13.893,34.482c2.411,4.698,6.161,8.699,11.138,10.588
					c5.352,2.031,13.763,3.447,10.645,10.854c-1.637,3.891-0.135,6.277,3.054,8.643c4.257,3.156,8.86,5.097,12.649,8.92
					c6.244,6.303,10.866,16,20.328,17.99c8.107,1.706,14.182-0.17,18.314-7.258c1.127-1.931,1.77-4.298,3.041-6.092
					c1.268-1.788,4.293-1.674,6.107-2.652c1.223-0.659,2.674-1.922,3.104-3.28c0.643-2.035-0.312-4.005,0.516-5.963
					c1.273-3.014,3.279-5.688,1.434-8.679c-1.508-2.442-5.363-1.54-7.523-0.798c-5.979,2.054-10.512,1.482-16.564-0.015
					c-5.402-1.336-10.966-3.117-15.823-5.879c-3.258-1.853-5.485-5.596-8.903-7.025c-6.156-2.573-13.259-2.308-19.58-4.663
					c-2.734-1.019-5.658-2.771-7.186-5.298c-1.055-1.746-0.282-4.129-1.778-5.697c-3.844-4.031-10.01-5.779-13.025-10.563
					c-2.103-3.337-2.314-7.886-1.801-11.666c0.247-1.814,0.856-3.623,1.848-5.163c2.142-3.327,6.165,1.733,6.976,3.574
					c2.073,4.706-1.063,9.99,1.688,14.684c1.646,2.811,4.86,5.782,8.333,5.681c2.834-0.082,4.524-1.787,5.265-4.39
					c1.543-5.427-5.329-9.406-3.499-15.182c0.871-2.75,4.122-3.871,4.233-7.116c0.138-4.023-1.508-6.408,3.327-8.002
					c2.249-0.741,3.396-2.164,4.335-4.319c0.552-1.267,1.096-2.585,1.553-3.887c0.367-1.045,0.061-6.643,3.141-4.761
					c3.284,2.006,7.579,1.995,9.402-1.992c2.073-4.536-4.159-11.247-7.156-13.814c-3.83-3.281-8.852-1.692-13.018-0.008
					c-5.005,2.023-6.267-2.532-4.919-6.603c0.961-2.907,6.326-1.374,8.523-1.008c3.954,0.658,7.268,0.788,9.909-2.682
					c1.621-2.129-0.284-5.151-1.106-7.15c-1.387-3.373,0.728-7.965,2.191-10.955c0.387-0.792-2.96-0.463-3.442,0.522
					c-1.773,3.624-3.5,8.239-1.863,12.218c0.749,1.822,3.029,7.159-1.332,6.722c-1.792-0.18-3.565-0.571-5.348-0.815
					c-4.673-0.641-11.63,0.195-11.45,6.391c0.352,12.111,10.792,1.476,16.93,3.525c3.762,1.256,6.966,6.819,8.297,10.163
					c0.866,2.175,0.974,6.348-2.375,4.218c-1.268-0.806-2.607-1.481-4.163-1.244c-3.347,0.509-4.912,2.604-5.368,5.843
					c-0.298,2.121-1.115,3.841-1.847,5.841c-1.147,3.133-3.404,2.303-5.603,3.609c-3.485,2.07-2.386,4.516-2.05,8.125
					c0.269,2.884-2.324,4.507-3.622,6.667c-1.49,2.483-1.233,4.708-0.214,7.325c0.909,2.334,2.384,4.301,3.062,6.746
					c0.062,0.223,0.348,4.6-1.346,4.128c-1.239-0.345-2.329-1.41-3.255-2.247c-4.982-4.5-2.722-10.143-3.438-15.952
					c-0.711-5.766-8.83-9.076-13.032-4.789c-4.686,4.782-4.111,14.125-0.769,19.426c2.399,3.807,7.487,5.737,10.952,8.409
					c2.652,2.046,2.445,4.231,3.388,7.116c0.659,2.017,2.976,3.289,4.678,4.219c5.13,2.803,10.533,3.832,16.242,4.808
					c3.061,0.522,6.015,0.814,8.458,2.895c1.979,1.686,3.597,3.504,5.8,4.955c7.524,4.96,17.941,7.546,26.829,8.37
					c3.516,0.326,6.499-0.624,9.761-1.833c1.308-0.484,5.552,0.517,4.661,2.825c-0.291,0.751-0.584,1.501-0.877,2.252
					c-0.7,1.794-1.757,3.621-1.881,5.548c-0.215,3.336,0.014,5.55-4.063,6.529c-1.379,0.331-2.559,0.8-3.719,1.604
					c-1.209,0.836-1.968,2.262-2.404,3.616c-0.813,2.518-2.523,5.126-4.047,7.275c-4.184,5.904-14.054,1.247-18.176-2.22
					c-3.933-3.308-6.856-7.771-10.186-11.645c-3.192-3.714-6.8-6.194-10.997-8.635c-2.101-1.222-4.125-2.513-5.833-4.254
					c-2.081-2.122-0.557-5.025,0.338-7.285c1.781-4.495-3.284-7.274-6.743-8.661c-3.474-1.393-6.746-1.806-9.799-4.209
					c-3.325-2.616-5.389-6.4-7.224-10.115c-3.169-6.417-7.013-12.289-9.478-19.066c-2.405-6.613-3.664-14.01-3.97-21.022
					c-0.378-8.655,4.029-17.433,6.534-25.517c2.365-7.635,7.593-14.27,12.264-20.619c2.186-2.971,4.289-5.994,6.427-9
					c1.941-2.729,3.277-2.438,6.218-2.152c6.092,0.593,10.387-3.901,16.156-4.342C107.817,61.33,110.477,59.556,108.168,59.732
					L108.168,59.732z"/>
			</g>
		</g>
		
			<path fill="none" stroke="#7ED1E4" stroke-width="5.9809" stroke-linecap="round" stroke-linejoin="round" stroke-miterlimit="10" d="
			M147.485,222.07c0,0,17.941,0.999,33.559-11.297"/>
		<g>
			<g>
				<g>
					<g>
						<g>
							<path fill="#ED1C24" d="M226.367,181.64c-15.368,5.627-30.974,8.896-46.84,11.039c-7.931,1.066-15.934,1.824-23.977,2.354
								c-4.021,0.266-8.055,0.468-12.09,0.613l-6.057,0.175l-2.717,0.045c-0.735,0.012-1.09-0.034-2.208-0.08
								c-7.629-0.401-15.769-1.258-23.977-2.231c-8.221-0.975-16.555-2.084-24.886-3.183c-16.679-2.248-33.298-4.337-49.666-6.64
								c0.382,0.698,0.573,1.046,0.956,1.743c16.926,2.203,33.179,4.318,49.112,6.393c8.232,1.073,16.47,2.149,24.605,3.105
								c8.123,0.952,16.183,1.794,23.784,2.193c1.098,0.047,1.515,0.093,2.257,0.084l2.7-0.044l6.006-0.17
								c4.004-0.141,8.004-0.341,11.994-0.596c7.983-0.507,15.925-1.25,23.809-2.272c15.764-2.072,31.305-5.224,46.635-10.635
								C226.042,182.78,226.151,182.397,226.367,181.64z"/>
							<path fill="#ED1C24" d="M44.268,200.795c14.518,1.274,29.096,2.762,43.746,4.407c7.388,0.814,14.694,1.62,21.96,2.422
								c7.308,0.759,14.603,1.47,21.802,1.843l2.554,0.112l2.609-0.04l5.485-0.124c3.656-0.105,7.313-0.24,10.967-0.42
								c7.309-0.356,14.609-0.863,21.903-1.561c14.587-1.403,29.152-3.539,43.771-7.1c0.394-0.813,0.59-1.218,0.983-2.029
								c-14.76,3.788-29.482,6.042-44.237,7.526c-7.377,0.738-14.765,1.272-22.163,1.644c-3.697,0.191-7.4,0.33-11.102,0.44
								l-5.553,0.131l-2.612,0.039c-0.81-0.021-1.579-0.061-2.53-0.108c-7.258-0.377-14.646-1.104-22.055-1.885
								c-7.374-0.827-14.79-1.66-22.288-2.501c-14.879-1.709-29.694-3.26-44.453-4.64C43.541,199.689,43.783,200.058,44.268,200.795
								z"/>
							<path fill="#FFFFFF" d="M34.907,185.476c2.515,4.533,5.254,9.026,8.149,13.477c14.758,1.38,29.574,2.931,44.453,4.64
								c7.498,0.841,14.914,1.674,22.288,2.501c7.409,0.781,14.797,1.508,22.055,1.885c0.951,0.048,1.72,0.087,2.53,0.108
								l2.612-0.039l5.553-0.131c3.701-0.11,7.404-0.249,11.102-0.44c7.398-0.371,14.786-0.905,22.163-1.644
								c14.755-1.484,29.478-3.738,44.237-7.526c2.322-4.895,4.256-9.842,5.76-14.771c-15.33,5.411-30.871,8.563-46.635,10.635
								c-7.884,1.022-15.825,1.766-23.809,2.272c-3.99,0.255-7.99,0.455-11.994,0.596l-6.006,0.17l-2.7,0.044
								c-0.742,0.009-1.159-0.037-2.257-0.084c-7.601-0.399-15.661-1.241-23.784-2.193c-8.135-0.956-16.373-2.032-24.605-3.105
								C68.086,189.794,51.833,187.679,34.907,185.476z"/>
						</g>
						<path fill="#ED1C24" d="M190.799,210.683c15.755-1.664,30.009-4.14,44.703-7.996c-0.528-0.517-0.802-0.769-1.367-1.263
							c-12.056,3.237-23.828,5.462-36.573,7.072C194.837,209.399,193.485,209.833,190.799,210.683z"/>
						<path fill="#ED1C24" d="M245.398,181.77c-6.97,2.876-14.18,5.439-21.576,7.62c-0.234,0.618-0.352,0.926-0.587,1.545
							c6.481-1.851,12.827-3.972,18.993-6.342C243.5,183.481,244.13,182.917,245.398,181.77z"/>
						<path fill="#D1D3D4" d="M242.229,184.593c-6.166,2.37-12.512,4.491-18.993,6.342c-1.504,3.769-2.341,5.657-4.17,9.4
							c-7.14,3.188-14.105,5.788-21.504,8.161c12.745-1.61,24.518-3.835,36.573-7.072c-2.872-1.937-4.492-2.793-8.018-4.354
							C231.684,193.22,237.079,189.062,242.229,184.593z"/>
						<path fill="#ED1C24" d="M29.047,206.104c14.222,0.566,28,1.29,43.547,2.45c-2.66-0.745-4.001-1.121-6.713-1.882
							c-12.575-0.879-24.006-1.495-35.75-2.078C29.678,205.191,29.46,205.493,29.047,206.104z"/>
						<path fill="#D1D3D4" d="M38.838,192.245c-6.649-0.648-13.148-1.248-19.565-1.952c5.93,2.981,11.859,5.748,17.77,8.487
							c-3.128,2.181-4.519,3.342-6.912,5.814c11.744,0.583,23.176,1.199,35.75,2.078c-7.358-1.942-14.338-3.821-21.614-5.878
							C42.026,197.394,40.935,195.685,38.838,192.245z"/>
						<path fill="#ED1C24" d="M37.992,190.839c-7.631-0.784-15.059-1.503-22.413-2.438c1.487,0.762,2.226,1.14,3.694,1.892
							c6.417,0.704,12.916,1.304,19.565,1.952C38.5,191.683,38.331,191.401,37.992,190.839z"/>
						<path fill="none" d="M72.594,208.555c-9.674-2.597-18.789-5.064-28.327-7.76"/>
						<g>
							<path fill="#666666" d="M193.348,204.995c-0.711,1.673-1.079,2.506-1.841,4.176c7.117-2.158,13.851-4.518,20.748-7.386
								C206.051,203.028,199.742,204.095,193.348,204.995z"/>
							<path fill="#ED1C24" d="M191.507,209.171c-0.283,0.605-0.425,0.906-0.708,1.512c9.77-2.92,18.905-6.17,28.267-10.348
								c-2.717,0.599-4.078,0.89-6.811,1.45C205.357,204.653,198.624,207.013,191.507,209.171z"/>
							<path fill="#ED1C24" d="M44.267,200.795c9.538,2.695,18.652,5.163,28.327,7.76c-0.292-0.594-0.439-0.892-0.732-1.486
								c-7.078-1.909-13.826-3.763-20.832-5.771C48.336,201.097,46.986,200.996,44.267,200.795z"/>
							<path fill="#666666" d="M51.03,201.297c7.006,2.009,13.754,3.862,20.832,5.771c-0.785-1.64-1.177-2.459-1.962-4.099
								C63.494,202.343,57.197,201.777,51.03,201.297z"/>
						</g>
					</g>
				</g>
			</g>
		</g>
	</g>
</g>
</svg>
