<?xml version="1.0" encoding="utf-8"?>
<!-- Generator: Adobe Illustrator 16.0.0, SVG Export Plug-In . SVG Version: 6.00 Build 0)  -->
<!DOCTYPE svg PUBLIC "-//W3C//DTD SVG 1.1//EN" "http://www.w3.org/Graphics/SVG/1.1/DTD/svg11.dtd">
<svg version="1.1" id="Layer_1" xmlns="http://www.w3.org/2000/svg" xmlns:xlink="http://www.w3.org/1999/xlink" x="0px" y="0px"
	 width="273px" height="273px" viewBox="0 0 273 273" enable-background="new 0 0 273 273" xml:space="preserve">
<g>
	<circle fill="#7AC47A" cx="136.5" cy="136.928" r="136.642"/>
	<g>
		<g>
			<g>
				<path fill="#078D9B" d="M201.867,188.183c16.202,0,29.336-6.354,29.336-14.189h-58.671
					C172.532,181.829,185.665,188.183,201.867,188.183z"/>
				<ellipse fill="#15BCBC" cx="201.868" cy="173.919" rx="29.335" ry="2.863"/>
				<path fill="#FFFFFF" d="M202.132,176.015c-13.717,0-23.473-1.029-27.559-2.043c4.086-1.016,13.841-2.045,27.559-2.045
					s23.473,1.029,27.559,2.045C225.604,174.985,215.85,176.015,202.132,176.015z"/>
			</g>
			<g>
				<g>
					<g>
						<path fill="#F3715A" d="M200.323,113.798c0.098-0.229,0.258-0.516,0.464-0.645c-0.011-0.047-0.019-0.1-0.023-0.152
							c-0.104,0.02-0.3,0.09-0.478,0.352l-0.182,0.346"/>
						<path fill="#F3715A" d="M201.198,113.263c0.003-0.412,0.019-0.818,0.048-1.217c-0.004-0.002,0.237-0.717,0.564-0.955
							c-0.007-0.045-0.009-0.094-0.009-0.146c-0.09,0.027-0.264,0.107-0.438,0.371l-0.555,1.045c0,0-0.063,0.338-0.039,0.623
							C200.792,113.269,200.904,113.501,201.198,113.263z"/>
						<path fill="#F3715A" d="M201.295,114.259l0.329-0.791c0,0,0.03-0.354,0-0.643c-0.032-0.289-0.119-0.508-0.409-0.27
							c-0.019,0.404-0.022,0.814-0.016,1.232c0,0-0.04,0.168-0.118,0.369"/>
						<path fill="#F3715A" d="M202.22,110.481c-0.047,0.391-0.078,0.789-0.098,1.191c-0.002,0-0.184,0.742-0.516,0.979
							c0.011,0.047,0.019,0.098,0.024,0.152c0.099-0.021,0.277-0.1,0.423-0.375l0.449-1.096c0,0,0.046-0.346,0.041-0.623
							C202.536,110.433,202.483,110.228,202.22,110.481z"/>
					</g>
					<g>
						<path fill="#F3715A" d="M202.972,107.856c0.305-0.502,0.637-0.93,0.893-1.232c0.26-0.301,0.441-0.477,0.523-0.438
							c0.084,0.037,0.067,0.293,0.007,0.688c-0.063,0.393-0.173,0.926-0.356,1.484c-0.186,0.559-0.42,1.033-0.68,1.334
							c-0.257,0.303-0.535,0.434-0.74,0.336c-0.204-0.096-0.284-0.395-0.22-0.787C202.46,108.847,202.667,108.36,202.972,107.856z
							 M203.149,107.94c-0.19,0.342-0.318,0.67-0.36,0.934c-0.043,0.262,0.001,0.457,0.125,0.516s0.3-0.035,0.471-0.236
							s0.339-0.512,0.475-0.879s0.222-0.715,0.264-0.979c0.042-0.262,0.041-0.436-0.029-0.469s-0.202,0.078-0.375,0.279
							C203.548,107.308,203.339,107.601,203.149,107.94z"/>
						<path fill="#F3715A" d="M201.927,110.794c-0.18,0.354-0.189,0.703-0.022,0.781s0.427-0.154,0.579-0.52
							c0.077-0.182,0.235-0.646,0.365-1.068c0.129-0.424,0.232-0.805,0.174-0.832c-0.061-0.027-0.281,0.297-0.52,0.668
							C202.266,110.196,202.015,110.618,201.927,110.794z"/>
					</g>
				</g>
				<g>
					<path fill="#F3715A" d="M201.08,114.151c-0.085,0.234-0.225,0.531-0.437,0.656c0.016,0.049,0.028,0.104,0.038,0.16
						c0.112-0.016,0.313-0.084,0.466-0.357l0.152-0.361"/>
					<path fill="#F3715A" d="M200.188,114.679c0.01,0.418,0.029,0.84,0.061,1.268c-0.003-0.002-0.15,0.756-0.549,0.961
						c0.021,0.053,0.037,0.107,0.051,0.166c0.123-0.01,0.345-0.068,0.503-0.34l0.46-1.088c0,0,0.015-0.361-0.037-0.66
						C200.622,114.687,200.506,114.452,200.188,114.679z"/>
					<path fill="#F3715A" d="M199.19,116.753c0.032,0.428,0.074,0.859,0.125,1.297c-0.002,0-0.137,0.764-0.562,0.957
						c0.024,0.053,0.044,0.109,0.062,0.17c0.133-0.006,0.371-0.057,0.535-0.324l0.465-1.086c0,0,0.002-0.367-0.069-0.676
						C199.673,116.782,199.529,116.536,199.19,116.753z"/>
					<path fill="#F3715A" d="M198.198,118.821c0.051,0.436,0.113,0.877,0.182,1.322c-0.004-0.002-0.85,2.414-1.317,2.586
						c0.029,0.057,0.055,0.117,0.076,0.178c0.149,0.002,0.413-0.037,0.585-0.301l1.188-2.732c0,0.002-0.009-0.371-0.098-0.688
						C198.723,118.87,198.556,118.612,198.198,118.821z"/>
					<path fill="#F3715A" d="M196.577,123.312c-0.091-0.453-0.175-0.906-0.251-1.355c-0.006-0.002,0.946-2.367,1.394-2.549
						c-0.023-0.053-0.044-0.111-0.061-0.17c-0.137,0.004-0.387,0.049-0.572,0.307l-1.344,2.658c0,0,0.006,0.371,0.117,0.697
						S196.188,123.507,196.577,123.312z"/>
					<path fill="#F3715A" d="M200.108,113.69l-0.396,0.758c0,0-0.045,0.348,0.002,0.643c0.045,0.297,0.186,0.541,0.504,0.314
						c-0.021-0.422-0.032-0.84-0.031-1.252c0,0,0.047-0.166,0.137-0.363"/>
					<path fill="#F3715A" d="M196.94,124.392l0.338-0.77c0,0-0.025-0.379-0.14-0.707c-0.115-0.328-0.317-0.604-0.705-0.408
						c0.083,0.451,0.172,0.906,0.269,1.363c-0.001,0-0.025,0.168-0.098,0.363"/>
					<path fill="#F3715A" d="M195.421,123.677c0.088-0.229,0.25-0.51,0.521-0.604c-0.029-0.055-0.055-0.115-0.075-0.178
						c-0.152-0.002-0.425,0.033-0.615,0.287l-0.168,0.336"/>
					<path fill="#F3715A" d="M199.257,117.503c-0.044-0.434-0.077-0.863-0.1-1.285c-0.003-0.002,0.191-0.738,0.586-0.945
						c-0.017-0.049-0.029-0.104-0.038-0.16c-0.116,0.014-0.333,0.076-0.514,0.334l-0.543,1.051c0,0-0.029,0.354,0.038,0.658
						C198.751,117.462,198.915,117.718,199.257,117.503z"/>
					<path fill="#F3715A" d="M198.292,119.597c-0.063-0.441-0.115-0.881-0.159-1.314c-0.003,0,0.172-0.746,0.595-0.939
						c-0.02-0.051-0.037-0.107-0.05-0.166c-0.128,0.01-0.361,0.063-0.546,0.32l-0.538,1.051c0,0-0.016,0.361,0.069,0.676
						C197.747,119.536,197.933,119.804,198.292,119.597z"/>
				</g>
				<g>
					<path fill="#F3715A" d="M196.597,124.243c-0.08,0.234-0.23,0.527-0.51,0.621c0.032,0.057,0.06,0.117,0.084,0.182
						c0.156,0.004,0.432-0.029,0.607-0.291l0.159-0.357"/>
					<path fill="#F3715A" d="M195.419,124.634c0.097,0.459,0.199,0.92,0.308,1.383c-0.001,0-0.099,0.783-0.6,0.939
						c0.034,0.059,0.063,0.119,0.089,0.184c0.162,0.008,0.448-0.021,0.628-0.281l0.48-1.078c0,0-0.032-0.383-0.158-0.717
						C196.039,124.729,195.819,124.446,195.419,124.634z"/>
					<path fill="#F3715A" d="M194.43,126.714l0.341,1.396c-0.002,0-0.092,0.785-0.607,0.936c0.037,0.059,0.067,0.121,0.096,0.188
						c0.166,0.01,0.461-0.016,0.644-0.273l0.484-1.078c0,0-0.038-0.387-0.175-0.725S194.843,126.53,194.43,126.714z"/>
					<path fill="#F3715A" d="M193.446,128.784l0.367,1.41c-0.001,0-0.835,2.422-1.369,2.563c0.038,0.059,0.071,0.123,0.102,0.189
						c0.173,0.014,0.479-0.006,0.666-0.264l1.232-2.709C194.44,129.972,194.284,128.425,193.446,128.784z"/>
					<path fill="#F3715A" d="M191.921,133.321l-0.395-1.424c-0.004,0,0.873-2.4,1.398-2.547c-0.035-0.059-0.066-0.121-0.094-0.186
						c-0.168-0.012-0.468,0.012-0.66,0.266l-1.298,2.68C190.87,132.108,191.049,133.665,191.921,133.321z"/>
					<path fill="#F3715A" d="M195.081,123.524l-0.381,0.766c0,0,0.016,0.375,0.139,0.709c0.123,0.33,0.354,0.619,0.756,0.432
						c-0.103-0.461-0.2-0.92-0.291-1.375c0,0,0.028-0.176,0.111-0.375"/>
					<path fill="#F3715A" d="M192.398,134.454l0.351-0.764c-0.003,0-0.188-1.559-1.052-1.213l0.401,1.428
						c0,0-0.019,0.17-0.091,0.365"/>
					<path fill="#F3715A" d="M190.628,133.622c0.083-0.232,0.244-0.514,0.547-0.592c-0.038-0.061-0.072-0.123-0.102-0.189
						c-0.174-0.014-0.482,0.004-0.676,0.258l-0.162,0.338"/>
					<path fill="#F3715A" d="M194.624,127.522c-0.114-0.467-0.223-0.932-0.327-1.393c-0.001,0,0.118-0.771,0.618-0.93
						c-0.031-0.057-0.059-0.117-0.083-0.182c-0.158-0.006-0.442,0.025-0.634,0.279l-0.522,1.059
						C193.67,126.354,193.791,127.884,194.624,127.522z"/>
					<path fill="#F3715A" d="M193.651,129.612l-0.356-1.406c-0.001,0,0.108-0.775,0.622-0.928c-0.034-0.057-0.064-0.119-0.09-0.184
						c-0.163-0.008-0.455,0.018-0.648,0.271l-0.52,1.061C192.654,128.425,192.802,129.966,193.651,129.612z"/>
				</g>
				<g>
					<path fill="#F3715A" d="M191.999,134.278c-0.079,0.236-0.234,0.525-0.545,0.605c0.039,0.061,0.072,0.125,0.104,0.191
						c0.176,0.014,0.484-0.004,0.674-0.26l0.164-0.355"/>
					<path fill="#F3715A" d="M190.69,134.61l0.414,1.432c-0.001,0-0.081,0.789-0.625,0.928c0.039,0.059,0.074,0.123,0.104,0.191
						c0.177,0.014,0.489-0.002,0.68-0.258l0.497-1.07C191.759,135.831,191.565,134.269,190.69,134.61z"/>
					<path fill="#F3715A" d="M189.71,136.692l0.419,1.434c0,0-0.081,0.791-0.626,0.926c0.039,0.061,0.073,0.125,0.104,0.193
						c0.178,0.014,0.49-0.002,0.683-0.256l0.5-1.07C190.79,137.919,190.59,136.353,189.71,136.692z"/>
					<path fill="#F3715A" d="M188.733,138.767l0.42,1.436c0.002,0.002-0.85,2.414-1.395,2.551c0.039,0.059,0.073,0.123,0.104,0.189
						c0.177,0.016,0.488-0.002,0.682-0.256l1.272-2.691C189.817,139.995,189.616,138.429,188.733,138.767z"/>
					<path fill="#F3715A" d="M187.229,143.313l-0.414-1.432c0,0,0.84-2.418,1.386-2.553c-0.038-0.061-0.073-0.127-0.104-0.193
						c-0.178-0.014-0.49,0.002-0.682,0.256l-1.258,2.699C186.159,142.091,186.354,143.655,187.229,143.313z"/>
					<path fill="#F3715A" d="M190.232,133.442l-0.369,0.771c-0.002,0,0.189,1.563,1.068,1.223l-0.409-1.432
						c0,0,0.021-0.178,0.1-0.379"/>
					<path fill="#F3715A" d="M187.704,144.444l0.362-0.756c0.002,0-0.189-1.563-1.069-1.223l0.41,1.432c0,0-0.02,0.17-0.094,0.363"
						/>
					<path fill="#F3715A" d="M185.933,143.612c0.08-0.232,0.238-0.516,0.541-0.594c-0.038-0.061-0.072-0.125-0.103-0.191
						c-0.176-0.014-0.485,0.004-0.675,0.26l-0.158,0.34"/>
					<path fill="#F3715A" d="M189.952,137.524l-0.416-1.436c-0.001,0,0.084-0.787,0.627-0.924c-0.038-0.061-0.072-0.125-0.103-0.191
						c-0.177-0.014-0.487,0.004-0.681,0.256l-0.507,1.066C188.872,136.296,189.07,137.862,189.952,137.524z"/>
					<path fill="#F3715A" d="M188.973,139.61l-0.421-1.436c0,0,0.082-0.789,0.627-0.926c-0.038-0.059-0.073-0.123-0.104-0.189
						c-0.178-0.016-0.49,0-0.684,0.254l-0.503,1.068C187.888,138.382,188.091,139.948,188.973,139.61z"/>
				</g>
				<g>
					<path fill="#F3715A" d="M187.305,144.271c-0.081,0.234-0.24,0.521-0.55,0.602c0.039,0.061,0.072,0.125,0.102,0.189
						c0.174,0.014,0.482-0.004,0.677-0.258l0.169-0.354"/>
					<path fill="#F3715A" d="M185.998,144.601l0.396,1.426c0.001,0-0.095,0.783-0.627,0.926c0.037,0.059,0.069,0.121,0.098,0.188
						c0.172,0.012,0.476-0.008,0.669-0.262l0.514-1.064C187.051,145.815,186.87,144.259,185.998,144.601z"/>
					<path fill="#F3715A" d="M185.024,146.687l0.377,1.416c0.002,0-0.102,0.779-0.625,0.926c0.036,0.059,0.066,0.121,0.094,0.188
						c0.168,0.01,0.467-0.014,0.659-0.268l0.517-1.063C186.05,147.888,185.887,146.339,185.024,146.687z"/>
					<path fill="#F3715A" d="M184.056,148.765l0.353,1.404c0.005,0.002-0.898,2.391-1.4,2.547c0.032,0.059,0.06,0.119,0.084,0.182
						c0.159,0.006,0.443-0.023,0.634-0.277l1.314-2.672C185.046,149.95,184.904,148.411,184.056,148.765z"/>
					<path fill="#F3715A" d="M182.501,153.288c-0.098-0.457-0.201-0.92-0.31-1.383c0.003,0.002,0.837-2.418,1.351-2.57
						c-0.034-0.059-0.065-0.121-0.094-0.186c-0.166-0.01-0.458,0.016-0.641,0.273l-1.216,2.719c0,0,0.033,0.385,0.16,0.719
						C181.88,153.192,182.099,153.478,182.501,153.288z"/>
					<path fill="#F3715A" d="M185.536,143.433l-0.357,0.777c0.002,0,0.188,1.561,1.054,1.215l-0.403-1.428
						c0,0,0.02-0.18,0.098-0.381"/>
					<path fill="#F3715A" d="M182.858,154.364l0.374-0.75c0,0-0.017-0.377-0.141-0.709s-0.356-0.621-0.759-0.434
						c0.104,0.461,0.203,0.92,0.295,1.377c0,0-0.027,0.164-0.105,0.357"/>
					<path fill="#F3715A" d="M181.333,153.647c0.082-0.232,0.234-0.518,0.508-0.609c-0.032-0.057-0.061-0.119-0.084-0.182
						c-0.156-0.006-0.433,0.027-0.609,0.289l-0.152,0.344"/>
					<path fill="#F3715A" d="M185.246,147.509l-0.386-1.42c0,0,0.083-0.789,0.617-0.93c-0.038-0.059-0.072-0.123-0.102-0.189
						c-0.174-0.014-0.479,0.006-0.667,0.262l-0.49,1.074C184.222,146.308,184.395,147.862,185.246,147.509z"/>
					<path fill="#F3715A" d="M184.259,149.593l-0.363-1.41c0,0.002,0.086-0.787,0.611-0.932c-0.037-0.059-0.07-0.123-0.099-0.188
						c-0.17-0.012-0.47,0.01-0.655,0.268l-0.488,1.076C183.271,148.409,183.424,149.952,184.259,149.593z"/>
				</g>
				<g>
					<path fill="#F3715A" d="M182.514,154.216c-0.087,0.232-0.248,0.52-0.524,0.613c0.029,0.057,0.055,0.117,0.076,0.178
						c0.152,0.004,0.425-0.031,0.615-0.287l0.175-0.35"/>
					<path fill="#F3715A" d="M181.343,154.61c0.091,0.455,0.175,0.908,0.252,1.357c0.002,0-0.145,0.76-0.609,0.934
						c0.027,0.055,0.049,0.113,0.068,0.174c0.145,0,0.405-0.041,0.594-0.297l0.531-1.055c0,0-0.008-0.371-0.119-0.699
						C181.949,154.698,181.731,154.417,181.343,154.61z"/>
					<path fill="#F3715A" d="M180.376,156.7c0.076,0.447,0.145,0.893,0.205,1.334c0.002,0-0.159,0.752-0.602,0.938
						c0.023,0.053,0.042,0.109,0.058,0.17c0.136-0.006,0.384-0.053,0.568-0.311l0.536-1.053c0,0,0.005-0.365-0.094-0.686
						C180.952,156.772,180.751,156.499,180.376,156.7z"/>
					<path fill="#F3715A" d="M179.416,158.782c0.06,0.441,0.109,0.877,0.149,1.309c0.008,0.004-0.989,2.348-1.385,2.553
						c0.016,0.051,0.028,0.105,0.038,0.162c0.117-0.014,0.333-0.076,0.514-0.336l1.366-2.646c0,0,0.018-0.361-0.063-0.672
						C179.955,158.839,179.772,158.573,179.416,158.782z"/>
					<path fill="#F3715A" d="M177.73,163.245c-0.009-0.418-0.03-0.84-0.062-1.268c0.006,0.002,0.865-2.406,1.287-2.6
						c-0.023-0.053-0.043-0.111-0.06-0.17c-0.132,0.006-0.366,0.059-0.529,0.326l-1.165,2.742c0,0-0.014,0.361,0.039,0.66
						C177.296,163.237,177.413,163.472,177.73,163.245z"/>
					<path fill="#F3715A" d="M180.992,153.495l-0.345,0.783c0,0,0.025,0.379,0.141,0.707c0.116,0.33,0.32,0.605,0.708,0.41
						c-0.083-0.451-0.173-0.906-0.271-1.365c0,0,0.025-0.176,0.103-0.377"/>
					<path fill="#F3715A" d="M177.83,164.198l0.39-0.744c0,0,0.045-0.346-0.002-0.643c-0.047-0.295-0.188-0.541-0.508-0.316
						c0.023,0.424,0.035,0.842,0.034,1.256c0,0-0.044,0.156-0.13,0.346"/>
					<path fill="#F3715A" d="M176.851,163.739c0.086-0.232,0.226-0.523,0.434-0.645c-0.016-0.051-0.029-0.105-0.039-0.162
						c-0.112,0.016-0.313,0.086-0.467,0.357l-0.146,0.346"/>
					<path fill="#F3715A" d="M180.501,157.476c-0.066-0.443-0.142-0.891-0.225-1.344c0.003,0.002,0.114-0.773,0.582-0.945
						c-0.029-0.057-0.055-0.117-0.076-0.18c-0.149,0-0.414,0.039-0.587,0.301l-0.472,1.084c0,0,0.016,0.375,0.118,0.697
						S180.129,157.679,180.501,157.476z"/>
					<path fill="#F3715A" d="M179.505,159.556c-0.048-0.436-0.106-0.875-0.173-1.32c0.003,0.002,0.126-0.768,0.571-0.951
						c-0.026-0.053-0.049-0.113-0.068-0.174c-0.141,0.002-0.392,0.049-0.56,0.313l-0.469,1.086c0,0,0.008,0.371,0.094,0.686
						C178.987,159.509,179.15,159.765,179.505,159.556z"/>
				</g>
				<g>
					<path fill="#F3715A" d="M177.604,164.11c-0.098,0.229-0.258,0.516-0.465,0.645c0.012,0.047,0.02,0.098,0.024,0.152
						c0.104-0.02,0.301-0.09,0.479-0.352l0.183-0.346"/>
					<path fill="#F3715A" d="M176.728,164.646c-0.002,0.41-0.018,0.816-0.045,1.217c0.003,0.002-0.237,0.715-0.565,0.953
						c0.007,0.045,0.009,0.096,0.009,0.146c0.091-0.025,0.265-0.107,0.438-0.369l0.554-1.045c0,0,0.064-0.338,0.039-0.623
						C177.136,164.64,177.022,164.407,176.728,164.646z"/>
					<path fill="#F3715A" d="M176.629,163.647l-0.329,0.791c0,0-0.029,0.354,0.002,0.643c0.032,0.289,0.119,0.51,0.411,0.27
						c0.017-0.404,0.021-0.814,0.013-1.232c0,0,0.04-0.168,0.118-0.371"/>
					<path fill="#F3715A" d="M175.707,167.427c0.046-0.391,0.077-0.789,0.096-1.193c0.003,0.002,0.185-0.742,0.517-0.979
						c-0.011-0.047-0.02-0.098-0.025-0.152c-0.099,0.021-0.277,0.1-0.424,0.375l-0.449,1.096c0,0-0.045,0.346-0.039,0.623
						C175.39,167.474,175.443,167.679,175.707,167.427z"/>
					<g>
						<path fill="#F3715A" d="M175.226,168.796c-0.232,0.439-0.527,0.746-0.657,0.686s-0.088-0.486,0.097-0.949
							s0.479-0.771,0.657-0.688S175.458,168.354,175.226,168.796z M175.132,168.751c0.149-0.297,0.179-0.58,0.064-0.633
							c-0.113-0.053-0.31,0.152-0.438,0.457c-0.129,0.307-0.156,0.59-0.064,0.633C174.786,169.253,174.983,169.048,175.132,168.751z
							"/>
						<path fill="#F3715A" d="M173.505,171.493l0.002-0.104l-0.297,0.758c-0.025,0.076-0.032,0.115-0.023,0.111
							c0.006-0.002,0.013,0.012,0.077-0.143l0.087-0.213C173.38,171.786,173.435,171.616,173.505,171.493z"/>
						<path fill="#F3715A" d="M173.312,172.397l-0.245,0.48c-0.167,0.318-0.31,0.574-0.319,0.57c-0.01-0.006,0.09-0.281,0.223-0.615
							l0.164-0.402c0.053-0.139,0.046-0.141,0.038-0.137c-0.009,0.004-0.024,0.02-0.064,0.117l-0.199,0.518l-0.331,0.891
							l0.458-0.832l0.155-0.291C173.233,172.597,173.287,172.479,173.312,172.397z"/>
						<path fill="#F3715A" d="M174.567,169.485c-0.146-0.068-0.418,0.271-0.608,0.76l-0.425,1.074c0,0.336-0.075,0.754-0.272,1.244
							c0,0.002-0.034,0.104-0.004,0.059c0.06-0.088,0.223-0.373,0.263-0.547c0.01-0.076,0.069-0.129,0.069-0.129l0.793-1.502
							C174.63,169.983,174.712,169.554,174.567,169.485z"/>
						<path fill="#F3715A" d="M174.572,169.659c-0.025,0.053-0.058,0.09-0.073,0.082l-0.084-0.039
							c-0.015-0.006-0.008-0.055,0.016-0.109l0.251-0.564c0.024-0.053,0.058-0.09,0.075-0.082l0.096,0.045
							c0.018,0.008,0.012,0.059-0.014,0.111L174.572,169.659z"/>
						<path fill="#F3715A" d="M176.196,166.724c0.18-0.354,0.184-0.707,0.008-0.789c-0.175-0.082-0.439,0.148-0.593,0.514
							c-0.077,0.182-0.234,0.646-0.361,1.07c-0.127,0.426-0.227,0.807-0.163,0.838c0.063,0.029,0.289-0.295,0.529-0.664
							C175.856,167.319,176.108,166.899,176.196,166.724z"/>
					</g>
				</g>
			</g>
			<g>
				<g>
					<g>
						<path fill="#F3715A" d="M207.692,115.548c-0.113-0.258-0.228-0.615-0.175-0.887c-0.048-0.027-0.097-0.063-0.145-0.1
							c-0.063,0.1-0.154,0.318-0.075,0.668l0.146,0.422"/>
						<path fill="#F3715A" d="M207.921,114.409c-0.336-0.326-0.657-0.656-0.964-0.994c-0.004,0.002-0.409-0.756-0.353-1.213
							c-0.043-0.031-0.085-0.068-0.128-0.107c-0.048,0.094-0.114,0.301-0.031,0.65l0.436,1.275c-0.001,0,0.23,0.318,0.483,0.521
							C207.614,114.747,207.892,114.837,207.921,114.409z"/>
						<path fill="#F3715A" d="M208.813,115.112l-0.396-0.893c0,0-0.268-0.303-0.526-0.504c-0.262-0.201-0.511-0.303-0.537,0.125
							c0.319,0.332,0.653,0.658,1.001,0.979c0,0,0.108,0.168,0.213,0.391"/>
						<path fill="#F3715A" d="M206.417,111.384c0.286,0.346,0.59,0.684,0.908,1.016c-0.003,0.002,0.467,0.734,0.406,1.193
							c0.047,0.027,0.096,0.063,0.146,0.1c0.058-0.098,0.13-0.307,0.017-0.645l-0.555-1.229c0,0-0.25-0.311-0.482-0.521
							C206.622,111.085,206.411,110.97,206.417,111.384z"/>
					</g>
					<g>
						<path fill="#F3715A" d="M204.827,108.71c-0.181-0.645-0.276-1.256-0.326-1.705c-0.047-0.451-0.05-0.74,0.048-0.777
							c0.098-0.039,0.298,0.172,0.577,0.531c0.277,0.359,0.633,0.867,0.95,1.459c0.319,0.59,0.526,1.156,0.572,1.607
							c0.05,0.449-0.058,0.781-0.296,0.877c-0.238,0.092-0.548-0.076-0.824-0.436C205.249,109.907,205.006,109.354,204.827,108.71z
							 M205.035,108.628c0.134,0.424,0.309,0.787,0.493,1.027c0.184,0.24,0.38,0.357,0.524,0.301s0.206-0.275,0.172-0.574
							c-0.033-0.301-0.159-0.684-0.356-1.082c-0.197-0.4-0.42-0.744-0.604-0.984c-0.186-0.24-0.332-0.375-0.414-0.344
							c-0.083,0.033-0.096,0.23-0.063,0.531C204.822,107.802,204.899,108.204,205.035,108.628z"/>
						<path fill="#F3715A" d="M206.448,111.872c0.152,0.426,0.434,0.707,0.628,0.631s0.202-0.473,0.02-0.885
							c-0.091-0.207-0.351-0.701-0.6-1.141c-0.25-0.438-0.483-0.822-0.554-0.795c-0.069,0.027,0.027,0.465,0.15,0.953
							C206.217,111.124,206.37,111.661,206.448,111.872z"/>
					</g>
				</g>
				<g>
					<path fill="#F3715A" d="M208.561,115.206c0.126,0.252,0.263,0.602,0.204,0.873c0.053,0.027,0.107,0.059,0.161,0.096
						c0.072-0.105,0.169-0.324,0.063-0.664l-0.181-0.408"/>
					<path fill="#F3715A" d="M208.313,116.353c0.349,0.32,0.709,0.635,1.082,0.945c-0.002,0.002,0.504,0.721,0.37,1.207
						c0.058,0.025,0.116,0.055,0.174,0.09c0.085-0.109,0.202-0.336,0.103-0.68l-0.539-1.234c0,0-0.283-0.297-0.567-0.488
						C208.649,116.001,208.368,115.913,208.313,116.353z"/>
					<path fill="#F3715A" d="M209.255,118.802c0.373,0.311,0.757,0.617,1.15,0.918c-0.002,0.002,0.519,0.715,0.356,1.213
						c0.062,0.023,0.122,0.053,0.185,0.086c0.095-0.113,0.23-0.348,0.138-0.693l-0.534-1.236c0,0-0.295-0.293-0.6-0.477
						C209.644,118.431,209.333,118.353,209.255,118.802z"/>
					<path fill="#F3715A" d="M210.196,121.241c0.394,0.303,0.797,0.6,1.209,0.896c-0.004,0,1.318,2.6,1.114,3.115
						c0.066,0.02,0.133,0.047,0.199,0.078c0.11-0.119,0.271-0.363,0.187-0.711l-1.322-3.129c0,0-0.309-0.287-0.631-0.463
						S210.294,120.784,210.196,121.241z"/>
					<path fill="#F3715A" d="M212.632,126.106c-0.432-0.287-0.857-0.576-1.276-0.869c-0.006,0.002-1.224-2.637-1.039-3.145
						c-0.061-0.021-0.122-0.053-0.183-0.086c-0.099,0.115-0.248,0.355-0.176,0.709l1.169,3.188c0,0,0.306,0.287,0.649,0.455
						C212.12,126.528,212.504,126.575,212.632,126.106z"/>
					<path fill="#F3715A" d="M207.44,115.64l0.321,0.922c-0.001,0,0.251,0.311,0.528,0.504c0.277,0.195,0.584,0.273,0.641-0.166
						c-0.362-0.314-0.713-0.635-1.051-0.959c0,0-0.101-0.168-0.193-0.396"/>
					<path fill="#F3715A" d="M213.763,126.669l-0.369-0.883c0,0-0.322-0.281-0.669-0.449c-0.349-0.166-0.72-0.219-0.846,0.248
						c0.425,0.291,0.855,0.578,1.292,0.863c0,0,0.117,0.152,0.221,0.367"/>
					<path fill="#F3715A" d="M212.084,127.331c-0.121-0.254-0.229-0.607-0.108-0.898c-0.065-0.021-0.133-0.049-0.198-0.08
						c-0.112,0.121-0.283,0.369-0.215,0.723l0.149,0.402"/>
					<path fill="#F3715A" d="M209.915,119.337c-0.385-0.307-0.76-0.615-1.124-0.93c-0.003,0-0.46-0.736-0.33-1.223
						c-0.053-0.025-0.106-0.059-0.159-0.096c-0.077,0.107-0.19,0.332-0.115,0.684l0.45,1.27c0,0,0.268,0.305,0.567,0.49
						C209.503,119.718,209.835,119.786,209.915,119.337z"/>
					<path fill="#F3715A" d="M210.896,121.776c-0.405-0.299-0.801-0.6-1.187-0.906c-0.004,0.002-0.48-0.729-0.322-1.227
						c-0.057-0.023-0.115-0.055-0.172-0.09c-0.089,0.111-0.221,0.346-0.147,0.697l0.456,1.268c0,0,0.283,0.297,0.602,0.475
						C210.442,122.173,210.797,122.233,210.896,121.776z"/>
				</g>
				<g>
					<path fill="#F3715A" d="M213.394,126.827c0.13,0.252,0.254,0.605,0.127,0.906c0.068,0.02,0.138,0.045,0.206,0.076
						c0.116-0.123,0.29-0.371,0.209-0.721l-0.171-0.414"/>
					<path fill="#F3715A" d="M212.854,128.089c0.438,0.287,0.881,0.57,1.329,0.852c-0.002,0,0.552,0.699,0.316,1.227
						c0.07,0.02,0.141,0.045,0.211,0.076c0.122-0.125,0.304-0.377,0.227-0.729l-0.513-1.246
						C214.418,128.271,213.124,127.147,212.854,128.089z"/>
					<path fill="#F3715A" d="M213.808,130.534l1.355,0.84c-0.001,0,0.555,0.697,0.311,1.23c0.071,0.018,0.144,0.043,0.215,0.072
						c0.125-0.125,0.313-0.381,0.239-0.732l-0.508-1.248C215.416,130.698,214.099,129.585,213.808,130.534z"/>
					<path fill="#F3715A" d="M214.759,132.97l1.375,0.83c0,0,1.317,2.602,1.061,3.139c0.072,0.016,0.146,0.041,0.217,0.07
						c0.13-0.127,0.324-0.385,0.254-0.738l-1.262-3.15C216.399,133.12,215.067,132.013,214.759,132.97z"/>
					<path fill="#F3715A" d="M217.276,137.804l-1.389-0.824c-0.002,0-1.297-2.607-1.045-3.143c-0.07-0.02-0.143-0.045-0.213-0.074
						c-0.127,0.125-0.319,0.383-0.252,0.738l1.229,3.164C215.606,137.665,216.952,138.767,217.276,137.804z"/>
					<path fill="#F3715A" d="M211.714,127.483l0.342,0.914c-0.006,0.002,1.275,1.131,1.563,0.182
						c-0.443-0.283-0.882-0.568-1.314-0.855c0,0-0.12-0.16-0.221-0.385"/>
					<path fill="#F3715A" d="M218.483,138.335l-0.352-0.889c-0.001,0-1.347-1.102-1.67-0.141l1.391,0.826
						c0,0,0.119,0.15,0.223,0.365"/>
					<path fill="#F3715A" d="M216.632,139.065c-0.126-0.252-0.238-0.604-0.094-0.904c-0.072-0.018-0.146-0.043-0.217-0.072
						c-0.13,0.127-0.325,0.385-0.257,0.74l0.157,0.398"/>
					<path fill="#F3715A" d="M214.591,131.022l-1.346-0.844c-0.002,0-0.535-0.707-0.301-1.234c-0.068-0.02-0.138-0.045-0.205-0.076
						c-0.119,0.123-0.3,0.375-0.232,0.73l0.477,1.258C212.979,130.858,214.287,131.978,214.591,131.022z"/>
					<path fill="#F3715A" d="M215.561,133.466l-1.368-0.836c-0.001,0.002-0.543-0.703-0.299-1.234
						c-0.07-0.018-0.141-0.045-0.211-0.074c-0.123,0.125-0.31,0.379-0.243,0.734l0.481,1.258
						C213.918,133.315,215.244,134.425,215.561,133.466z"/>
				</g>
				<g>
					<path fill="#F3715A" d="M218.075,138.511c0.131,0.252,0.248,0.607,0.101,0.916c0.073,0.016,0.146,0.041,0.218,0.07
						c0.129-0.127,0.325-0.385,0.256-0.74l-0.164-0.414"/>
					<path fill="#F3715A" d="M217.447,139.806l1.39,0.826c0,0,0.554,0.701,0.299,1.236c0.072,0.018,0.145,0.043,0.216,0.072
						c0.128-0.127,0.323-0.385,0.255-0.74l-0.49-1.254C219.117,139.946,217.772,138.843,217.447,139.806z"/>
					<path fill="#F3715A" d="M218.411,142.247l1.381,0.828c0.001,0,0.549,0.703,0.299,1.236c0.071,0.018,0.143,0.045,0.213,0.074
						c0.127-0.127,0.318-0.383,0.251-0.738l-0.485-1.256C220.071,142.392,218.733,141.286,218.411,142.247z"/>
					<path fill="#F3715A" d="M219.374,144.679l1.365,0.834c0.004,0,1.273,2.617,1.038,3.146c0.069,0.018,0.138,0.045,0.206,0.076
						c0.119-0.123,0.3-0.375,0.232-0.73l-1.207-3.174C221.013,144.831,219.688,143.72,219.374,144.679z"/>
					<path fill="#F3715A" d="M221.871,149.521l-1.33-0.848c0.001-0.002-1.323-2.598-1.077-3.131
						c-0.071-0.018-0.144-0.043-0.215-0.072c-0.125,0.125-0.313,0.379-0.238,0.732l1.286,3.143
						C220.304,149.341,221.599,150.464,221.871,149.521z"/>
					<path fill="#F3715A" d="M216.224,139.233l0.358,0.908c0,0,1.347,1.102,1.671,0.139l-1.391-0.824c0,0-0.127-0.16-0.231-0.383"/>
					<path fill="#F3715A" d="M222.996,150.085l-0.336-0.896c0.006-0.002-1.276-1.131-1.565-0.182
						c0.445,0.283,0.885,0.568,1.318,0.855c0,0,0.112,0.152,0.212,0.369"/>
					<path fill="#F3715A" d="M221.313,150.749c-0.126-0.252-0.245-0.602-0.12-0.895c-0.068-0.02-0.138-0.047-0.207-0.076
						c-0.116,0.121-0.289,0.371-0.21,0.721l0.164,0.396"/>
					<path fill="#F3715A" d="M219.214,142.728l-1.385-0.828c0,0-0.56-0.697-0.303-1.234c-0.072-0.018-0.146-0.041-0.218-0.07
						c-0.129,0.127-0.324,0.385-0.254,0.738l0.499,1.25C217.556,142.583,218.897,143.687,219.214,142.728z"/>
					<path fill="#F3715A" d="M220.174,145.175l-1.372-0.832c0-0.002-0.559-0.699-0.307-1.232c-0.072-0.02-0.145-0.043-0.217-0.072
						c-0.127,0.125-0.32,0.383-0.248,0.736l0.504,1.248C218.536,145.022,219.868,146.13,220.174,145.175z"/>
				</g>
				<g>
					<path fill="#F3715A" d="M222.626,150.245c0.124,0.254,0.238,0.609,0.113,0.908c0.066,0.021,0.134,0.049,0.199,0.08
						c0.113-0.121,0.284-0.369,0.216-0.725l-0.155-0.418"/>
					<path fill="#F3715A" d="M222.091,151.503c0.434,0.289,0.859,0.578,1.279,0.871c0.002-0.002,0.51,0.717,0.309,1.23
						c0.063,0.021,0.128,0.049,0.191,0.082c0.105-0.117,0.265-0.361,0.195-0.715l-0.466-1.264c0,0-0.306-0.289-0.651-0.457
						C222.604,151.083,222.22,151.036,222.091,151.503z"/>
					<path fill="#F3715A" d="M223.066,153.94c0.419,0.293,0.829,0.588,1.231,0.887c0.002,0,0.494,0.723,0.314,1.229
						c0.061,0.023,0.121,0.053,0.182,0.088c0.098-0.115,0.242-0.354,0.172-0.707l-0.461-1.266c0,0-0.294-0.293-0.625-0.467
						C223.55,153.532,223.181,153.478,223.066,153.94z"/>
					<path fill="#F3715A" d="M224.04,156.366c0.401,0.299,0.795,0.604,1.176,0.91c0,0,0.301,0.662,0.576,1.387
						c0.276,0.725,0.531,1.514,0.469,1.756c0.053,0.025,0.106,0.059,0.16,0.096c0.077-0.107,0.191-0.334,0.115-0.686l-1.14-3.199
						c0,0-0.28-0.297-0.596-0.477C224.487,155.972,224.137,155.911,224.04,156.366z"/>
					<path fill="#F3715A" d="M226.411,161.259c-0.35-0.32-0.711-0.635-1.084-0.945c0.006-0.002-1.307-2.605-1.148-3.102
						c-0.06-0.023-0.121-0.053-0.182-0.086c-0.094,0.111-0.227,0.346-0.132,0.689l1.354,3.115c0,0,0.284,0.297,0.567,0.488
						C226.073,161.61,226.356,161.698,226.411,161.259z"/>
					<path fill="#F3715A" d="M220.942,150.901l0.375,0.9c0,0,0.323,0.281,0.671,0.447c0.349,0.168,0.721,0.221,0.848-0.248
						c-0.425-0.289-0.856-0.578-1.295-0.863c0,0-0.123-0.158-0.229-0.383"/>
					<path fill="#F3715A" d="M227.271,161.927l-0.314-0.904c0,0-0.252-0.309-0.531-0.502c-0.276-0.195-0.585-0.273-0.643,0.168
						c0.363,0.313,0.715,0.633,1.053,0.957c0,0,0.097,0.16,0.188,0.379"/>
					<path fill="#F3715A" d="M226.146,162.37c-0.123-0.252-0.256-0.596-0.197-0.863c-0.053-0.025-0.107-0.057-0.162-0.094
						c-0.072,0.105-0.17,0.324-0.063,0.664l0.173,0.393"/>
					<path fill="#F3715A" d="M223.787,154.452c-0.409-0.297-0.827-0.59-1.252-0.881c0.002,0-0.539-0.705-0.335-1.221
						c-0.066-0.02-0.133-0.047-0.199-0.078c-0.11,0.119-0.273,0.365-0.189,0.713l0.523,1.242c-0.001,0,0.314,0.283,0.65,0.455
						C223.321,154.853,223.675,154.913,223.787,154.452z"/>
					<path fill="#F3715A" d="M224.735,156.903c-0.391-0.303-0.791-0.604-1.201-0.9c0.002,0-0.527-0.709-0.345-1.217
						c-0.063-0.021-0.128-0.049-0.191-0.082c-0.103,0.117-0.251,0.357-0.163,0.703l0.528,1.238c0,0,0.306,0.289,0.625,0.467
						C224.31,157.29,224.641,157.358,224.735,156.903z"/>
				</g>
				<g>
					<path fill="#F3715A" d="M227.026,162.044c0.113,0.258,0.227,0.615,0.174,0.887c0.048,0.027,0.096,0.063,0.145,0.1
						c0.064-0.1,0.156-0.316,0.076-0.668l-0.146-0.424"/>
					<path fill="#F3715A" d="M226.794,163.185c0.337,0.324,0.66,0.656,0.967,0.992c0.004-0.002,0.409,0.756,0.352,1.213
						c0.043,0.031,0.086,0.068,0.129,0.109c0.049-0.096,0.115-0.303,0.032-0.652l-0.436-1.275c0.001,0-0.23-0.318-0.484-0.521
						C227.103,162.845,226.824,162.755,226.794,163.185z"/>
					<path fill="#F3715A" d="M225.901,162.481l0.396,0.891c0,0,0.269,0.303,0.528,0.506c0.263,0.199,0.512,0.301,0.539-0.127
						c-0.32-0.332-0.654-0.658-1.003-0.979c0,0-0.108-0.166-0.213-0.389"/>
					<path fill="#F3715A" d="M228.3,166.208c-0.287-0.346-0.591-0.684-0.91-1.016c0.003,0-0.467-0.734-0.406-1.193
						c-0.047-0.027-0.096-0.061-0.146-0.1c-0.058,0.1-0.131,0.309-0.017,0.646l0.554,1.229c0,0,0.251,0.309,0.484,0.521
						C228.094,166.507,228.306,166.624,228.3,166.208z"/>
					<g>
						<path fill="#F3715A" d="M229.06,167.677c0.184,0.537,0.209,1.021,0.056,1.082s-0.472-0.309-0.711-0.824
							c-0.239-0.514-0.264-1-0.056-1.08C228.556,166.772,228.874,167.142,229.06,167.677z M228.95,167.72
							c-0.129-0.355-0.342-0.602-0.475-0.549c-0.132,0.053-0.115,0.375,0.037,0.721c0.154,0.348,0.367,0.592,0.475,0.549
							C229.095,168.399,229.079,168.075,228.95,167.72z"/>
						<path fill="#F3715A" d="M229.95,171.214c-0.028-0.027-0.057-0.057-0.085-0.082l0.397,0.838
							c0.042,0.082,0.07,0.117,0.074,0.109s0.021-0.002-0.059-0.178l-0.107-0.238C230.095,171.548,229.997,171.368,229.95,171.214z"
							/>
						<path fill="#F3715A" d="M230.552,172.081l0.207,0.58c0.134,0.387,0.233,0.705,0.222,0.711
							c-0.012,0.004-0.163-0.295-0.337-0.666l-0.205-0.449c-0.074-0.152-0.081-0.148-0.084-0.141
							c-0.004,0.012-0.002,0.037,0.047,0.146l0.272,0.57l0.481,0.969l-0.33-1.029l-0.119-0.357
							C230.656,172.302,230.601,172.165,230.552,172.081z"/>
						<path fill="#F3715A" d="M229.116,168.763c-0.17,0.066-0.102,0.559,0.155,1.1l0.558,1.193c0.279,0.262,0.569,0.65,0.822,1.199
							c0-0.002,0.059,0.107,0.045,0.047c-0.025-0.117-0.134-0.477-0.246-0.646c-0.059-0.066-0.055-0.158-0.054-0.158l-0.627-1.832
							C229.579,169.101,229.287,168.696,229.116,168.763z"/>
						<path fill="#F3715A" d="M229.266,168.896c0.024,0.061,0.029,0.117,0.012,0.125l-0.099,0.039
							c-0.018,0.006-0.053-0.037-0.078-0.1l-0.272-0.65c-0.025-0.061-0.03-0.117-0.01-0.125l0.113-0.045
							c0.02-0.008,0.056,0.035,0.08,0.098L229.266,168.896z"/>
						<path fill="#F3715A" d="M228.098,165.253c-0.152-0.426-0.441-0.705-0.644-0.625c-0.201,0.08-0.219,0.479-0.035,0.891
							c0.091,0.207,0.352,0.701,0.604,1.139s0.49,0.82,0.564,0.791s-0.018-0.469-0.138-0.959
							C228.328,166.001,228.176,165.464,228.098,165.253z"/>
					</g>
				</g>
			</g>
		</g>
		<g>
			<g>
				<path fill="#078D9B" d="M67.483,143.367c16.201,0,29.335-6.353,29.335-14.188H38.147
					C38.147,137.015,51.281,143.367,67.483,143.367z"/>
				<ellipse fill="#15BCBC" cx="67.483" cy="129.104" rx="29.335" ry="2.864"/>
				<path fill="#FFFFFF" d="M67.747,131.199c-13.717,0-23.473-1.028-27.559-2.043c4.086-1.015,13.841-2.044,27.559-2.044
					s23.473,1.029,27.559,2.044C91.22,130.171,81.465,131.199,67.747,131.199z"/>
			</g>
			<g>
				<g>
					<g>
						<path fill="#F3715A" d="M65.939,68.982c0.097-0.228,0.257-0.516,0.463-0.644c-0.011-0.047-0.019-0.1-0.022-0.153
							c-0.104,0.02-0.301,0.091-0.479,0.352l-0.182,0.347"/>
						<path fill="#F3715A" d="M66.813,68.447c0.004-0.411,0.02-0.817,0.048-1.216c-0.004-0.002,0.237-0.717,0.564-0.955
							c-0.007-0.045-0.009-0.095-0.009-0.146c-0.09,0.026-0.264,0.107-0.438,0.371l-0.554,1.044c0,0-0.064,0.338-0.04,0.623
							C66.407,68.453,66.521,68.686,66.813,68.447z"/>
						<path fill="#F3715A" d="M66.911,69.444l0.328-0.791c0,0,0.03-0.354,0-0.643c-0.031-0.289-0.119-0.509-0.409-0.27
							c-0.019,0.404-0.022,0.814-0.015,1.231c0,0-0.041,0.169-0.119,0.37"/>
						<path fill="#F3715A" d="M67.835,65.666c-0.047,0.391-0.078,0.789-0.097,1.192c-0.003-0.001-0.185,0.741-0.517,0.978
							c0.011,0.047,0.019,0.099,0.024,0.153c0.099-0.021,0.278-0.101,0.424-0.376l0.449-1.095c0,0,0.046-0.347,0.04-0.623
							C68.151,65.618,68.099,65.413,67.835,65.666z"/>
					</g>
					<g>
						<path fill="#F3715A" d="M68.587,63.042c0.305-0.502,0.637-0.93,0.893-1.232c0.26-0.302,0.441-0.478,0.523-0.438
							c0.084,0.038,0.068,0.293,0.007,0.688c-0.063,0.393-0.173,0.926-0.356,1.484c-0.185,0.56-0.42,1.033-0.68,1.334
							c-0.257,0.303-0.535,0.434-0.74,0.337c-0.203-0.096-0.283-0.395-0.22-0.788C68.075,64.031,68.282,63.545,68.587,63.042z
							 M68.765,63.126c-0.189,0.341-0.317,0.67-0.359,0.933c-0.044,0.263,0,0.457,0.124,0.516s0.3-0.034,0.471-0.235
							c0.171-0.202,0.339-0.513,0.476-0.879c0.135-0.367,0.221-0.716,0.264-0.979c0.041-0.262,0.04-0.437-0.03-0.47
							s-0.202,0.079-0.375,0.28C69.163,62.493,68.954,62.785,68.765,63.126z"/>
						<path fill="#F3715A" d="M67.542,65.979c-0.18,0.353-0.189,0.703-0.021,0.781c0.167,0.078,0.426-0.154,0.578-0.52
							c0.078-0.182,0.236-0.646,0.365-1.069c0.129-0.424,0.232-0.804,0.174-0.832c-0.061-0.027-0.281,0.298-0.52,0.669
							C67.881,65.382,67.63,65.803,67.542,65.979z"/>
					</g>
				</g>
				<g>
					<path fill="#F3715A" d="M66.695,69.337c-0.085,0.233-0.225,0.53-0.437,0.656c0.016,0.049,0.028,0.104,0.039,0.16
						c0.111-0.016,0.313-0.084,0.466-0.357l0.151-0.361"/>
					<path fill="#F3715A" d="M65.805,69.864c0.009,0.417,0.028,0.839,0.06,1.267c-0.002-0.001-0.15,0.757-0.549,0.962
						c0.021,0.052,0.037,0.107,0.051,0.166c0.123-0.011,0.345-0.069,0.504-0.34l0.459-1.088c0,0,0.015-0.361-0.037-0.66
						C66.238,69.872,66.121,69.637,65.805,69.864z"/>
					<path fill="#F3715A" d="M64.806,71.938c0.032,0.428,0.074,0.859,0.125,1.297c-0.002-0.001-0.137,0.764-0.561,0.956
						c0.023,0.053,0.043,0.11,0.061,0.171c0.133-0.006,0.371-0.058,0.535-0.324l0.465-1.087c0,0,0.002-0.367-0.069-0.675
						C65.288,71.968,65.145,71.721,64.806,71.938z"/>
					<path fill="#F3715A" d="M63.813,74.006c0.052,0.437,0.113,0.878,0.182,1.323c-0.004-0.002-0.85,2.413-1.317,2.586
						c0.03,0.056,0.055,0.116,0.077,0.178c0.148,0.002,0.412-0.037,0.584-0.301l1.188-2.732c0,0.001-0.009-0.371-0.098-0.688
						C64.339,74.056,64.172,73.798,63.813,74.006z"/>
					<path fill="#F3715A" d="M62.192,78.497c-0.091-0.454-0.175-0.906-0.251-1.355c-0.006-0.002,0.946-2.367,1.394-2.55
						c-0.023-0.053-0.043-0.11-0.061-0.17c-0.137,0.004-0.387,0.05-0.572,0.307l-1.344,2.658c0,0,0.007,0.371,0.117,0.697
						C61.587,78.41,61.804,78.691,62.192,78.497z"/>
					<path fill="#F3715A" d="M65.725,68.875l-0.397,0.759c0,0-0.045,0.347,0.002,0.643c0.045,0.296,0.186,0.541,0.504,0.314
						c-0.021-0.423-0.032-0.84-0.031-1.253c0,0,0.047-0.166,0.137-0.362"/>
					<path fill="#F3715A" d="M62.556,79.576l0.338-0.769c0,0-0.025-0.379-0.139-0.707c-0.115-0.328-0.318-0.604-0.706-0.408
						c0.083,0.451,0.172,0.905,0.269,1.363c0,0-0.024,0.168-0.098,0.363"/>
					<path fill="#F3715A" d="M61.036,78.862c0.088-0.229,0.25-0.511,0.521-0.604c-0.029-0.055-0.054-0.115-0.075-0.177
						c-0.152-0.003-0.425,0.032-0.614,0.287l-0.169,0.336"/>
					<path fill="#F3715A" d="M64.872,72.688c-0.044-0.434-0.077-0.862-0.1-1.285c-0.003-0.002,0.191-0.738,0.586-0.945
						c-0.016-0.049-0.029-0.104-0.037-0.159c-0.117,0.014-0.334,0.075-0.514,0.334l-0.544,1.05c0,0-0.029,0.354,0.038,0.659
						C64.366,72.646,64.531,72.903,64.872,72.688z"/>
					<path fill="#F3715A" d="M63.908,74.782c-0.063-0.442-0.116-0.881-0.16-1.314c-0.003-0.001,0.172-0.746,0.595-0.94
						c-0.02-0.051-0.036-0.106-0.049-0.165c-0.128,0.009-0.362,0.063-0.547,0.32l-0.538,1.051c0,0-0.016,0.361,0.069,0.675
						C63.362,74.722,63.548,74.989,63.908,74.782z"/>
				</g>
				<g>
					<path fill="#F3715A" d="M62.212,79.428c-0.08,0.235-0.229,0.527-0.51,0.621c0.032,0.058,0.06,0.118,0.084,0.182
						c0.156,0.005,0.432-0.028,0.607-0.29l0.159-0.358"/>
					<path fill="#F3715A" d="M61.034,79.819c0.097,0.459,0.199,0.92,0.309,1.383c-0.002,0-0.1,0.782-0.601,0.938
						c0.034,0.059,0.063,0.12,0.09,0.185c0.162,0.008,0.447-0.021,0.627-0.281l0.481-1.079c0,0-0.033-0.383-0.159-0.717
						C61.654,79.915,61.436,79.632,61.034,79.819z"/>
					<path fill="#F3715A" d="M60.046,81.898l0.34,1.397c-0.001-0.001-0.092,0.785-0.606,0.936c0.036,0.059,0.067,0.121,0.095,0.187
						c0.166,0.01,0.461-0.016,0.644-0.273l0.484-1.077c0,0-0.038-0.387-0.175-0.725S60.458,81.716,60.046,81.898z"/>
					<path fill="#F3715A" d="M59.062,83.97l0.367,1.41c-0.001,0-0.835,2.421-1.369,2.563c0.039,0.059,0.072,0.123,0.102,0.189
						c0.173,0.013,0.479-0.007,0.666-0.264l1.232-2.71C60.056,85.156,59.899,83.61,59.062,83.97z"/>
					<path fill="#F3715A" d="M57.536,88.507l-0.395-1.424c-0.004-0.001,0.873-2.401,1.398-2.547
						c-0.034-0.059-0.066-0.122-0.094-0.187c-0.168-0.011-0.467,0.012-0.66,0.266l-1.298,2.68
						C56.485,87.294,56.665,88.85,57.536,88.507z"/>
					<path fill="#F3715A" d="M60.696,78.709l-0.381,0.767c0,0,0.016,0.375,0.139,0.708c0.123,0.331,0.354,0.62,0.757,0.433
						c-0.104-0.462-0.201-0.92-0.292-1.376c0,0,0.028-0.175,0.111-0.374"/>
					<path fill="#F3715A" d="M58.014,89.639l0.351-0.763c-0.003,0-0.188-1.56-1.052-1.213l0.401,1.427c0,0-0.019,0.17-0.091,0.365"
						/>
					<path fill="#F3715A" d="M56.243,88.807c0.083-0.231,0.244-0.514,0.547-0.592c-0.038-0.06-0.071-0.123-0.101-0.189
						c-0.175-0.013-0.483,0.005-0.677,0.259l-0.162,0.338"/>
					<path fill="#F3715A" d="M60.239,82.707c-0.114-0.466-0.223-0.931-0.327-1.392c-0.001-0.001,0.118-0.772,0.618-0.93
						c-0.031-0.057-0.059-0.118-0.082-0.182c-0.158-0.006-0.443,0.024-0.634,0.279l-0.522,1.059
						C59.285,81.539,59.406,83.068,60.239,82.707z"/>
					<path fill="#F3715A" d="M59.267,84.798l-0.356-1.406c-0.001,0,0.108-0.776,0.622-0.928c-0.034-0.058-0.063-0.119-0.09-0.184
						c-0.163-0.009-0.455,0.018-0.647,0.271l-0.521,1.061C58.271,83.609,58.417,85.151,59.267,84.798z"/>
				</g>
				<g>
					<path fill="#F3715A" d="M57.614,89.464c-0.079,0.236-0.234,0.525-0.545,0.604c0.039,0.061,0.073,0.125,0.104,0.191
						c0.176,0.014,0.484-0.004,0.674-0.26l0.164-0.355"/>
					<path fill="#F3715A" d="M56.306,89.795l0.414,1.433c-0.001,0-0.081,0.789-0.625,0.927c0.039,0.06,0.074,0.124,0.104,0.191
						c0.177,0.015,0.489-0.002,0.68-0.257l0.497-1.071C57.375,91.017,57.181,89.453,56.306,89.795z"/>
					<path fill="#F3715A" d="M55.325,91.877l0.419,1.435c0,0-0.081,0.79-0.626,0.926c0.039,0.061,0.074,0.125,0.104,0.192
						c0.178,0.015,0.491-0.002,0.683-0.256l0.5-1.07C56.405,93.104,56.205,91.538,55.325,91.877z"/>
					<path fill="#F3715A" d="M54.349,93.952l0.421,1.436c0.001,0.001-0.851,2.413-1.396,2.55c0.039,0.06,0.073,0.124,0.104,0.19
						c0.177,0.015,0.488-0.002,0.682-0.256l1.272-2.691C55.433,95.181,55.231,93.614,54.349,93.952z"/>
					<path fill="#F3715A" d="M52.845,98.499l-0.414-1.433c0,0,0.84-2.418,1.387-2.553c-0.039-0.061-0.074-0.126-0.104-0.192
						c-0.178-0.014-0.491,0.002-0.683,0.256l-1.258,2.698C51.774,97.276,51.97,98.841,52.845,98.499z"/>
					<path fill="#F3715A" d="M55.848,88.628l-0.368,0.771c-0.003-0.001,0.188,1.562,1.067,1.222l-0.409-1.431
						c0,0,0.021-0.178,0.1-0.38"/>
					<path fill="#F3715A" d="M53.32,99.63l0.362-0.757c0.001,0.001-0.19-1.562-1.07-1.222l0.41,1.431c0,0-0.02,0.17-0.094,0.364"/>
					<path fill="#F3715A" d="M51.548,98.798c0.08-0.233,0.238-0.517,0.541-0.595c-0.038-0.06-0.072-0.124-0.103-0.19
						c-0.176-0.014-0.485,0.004-0.675,0.259l-0.157,0.341"/>
					<path fill="#F3715A" d="M55.568,92.709l-0.417-1.435c-0.001,0,0.084-0.788,0.627-0.925c-0.038-0.06-0.072-0.124-0.103-0.19
						c-0.176-0.015-0.487,0.003-0.681,0.256l-0.507,1.066C54.487,91.481,54.686,93.047,55.568,92.709z"/>
					<path fill="#F3715A" d="M54.588,94.796l-0.421-1.436c0-0.001,0.082-0.789,0.627-0.926c-0.038-0.06-0.072-0.124-0.104-0.19
						c-0.178-0.016-0.49,0.001-0.684,0.255l-0.503,1.068C53.504,93.567,53.706,95.134,54.588,94.796z"/>
				</g>
				<g>
					<path fill="#F3715A" d="M52.921,99.455c-0.082,0.235-0.241,0.522-0.551,0.603c0.039,0.061,0.072,0.124,0.102,0.189
						c0.174,0.014,0.483-0.004,0.677-0.258l0.169-0.354"/>
					<path fill="#F3715A" d="M51.613,99.786l0.396,1.425c0.001,0.001-0.095,0.784-0.627,0.926c0.037,0.06,0.069,0.122,0.098,0.188
						c0.172,0.013,0.476-0.008,0.669-0.261l0.514-1.064C52.666,101.001,52.486,99.444,51.613,99.786z"/>
					<path fill="#F3715A" d="M50.64,101.872l0.378,1.415c0.001,0.001-0.103,0.78-0.626,0.927c0.036,0.059,0.066,0.121,0.094,0.187
						c0.168,0.01,0.467-0.013,0.659-0.267l0.517-1.063C51.665,103.073,51.502,101.524,50.64,101.872z"/>
					<path fill="#F3715A" d="M49.671,103.95l0.353,1.404c0.005,0.002-0.898,2.391-1.399,2.547c0.032,0.058,0.06,0.118,0.083,0.182
						c0.159,0.006,0.443-0.023,0.634-0.278l1.314-2.671C50.661,105.136,50.52,103.597,49.671,103.95z"/>
					<path fill="#F3715A" d="M48.116,108.474c-0.098-0.458-0.201-0.92-0.31-1.383c0.003,0.001,0.837-2.419,1.351-2.57
						c-0.034-0.059-0.065-0.121-0.093-0.187c-0.166-0.009-0.459,0.017-0.642,0.274l-1.216,2.719c0,0,0.033,0.384,0.16,0.718
						C47.495,108.378,47.715,108.662,48.116,108.474z"/>
					<path fill="#F3715A" d="M51.151,98.618l-0.357,0.776c0.002,0.001,0.188,1.562,1.054,1.216l-0.402-1.428
						c0,0,0.019-0.18,0.097-0.382"/>
					<path fill="#F3715A" d="M48.474,109.55l0.374-0.751c0,0-0.017-0.376-0.141-0.709c-0.123-0.331-0.355-0.62-0.759-0.434
						c0.104,0.462,0.203,0.921,0.295,1.377c0,0-0.027,0.165-0.105,0.358"/>
					<path fill="#F3715A" d="M46.948,108.833c0.082-0.232,0.234-0.519,0.508-0.61c-0.031-0.057-0.06-0.118-0.084-0.182
						c-0.156-0.005-0.433,0.028-0.609,0.29l-0.152,0.344"/>
					<path fill="#F3715A" d="M50.861,102.694l-0.386-1.42c0.001,0,0.083-0.789,0.617-0.931c-0.038-0.059-0.072-0.123-0.102-0.188
						c-0.174-0.014-0.479,0.006-0.667,0.262l-0.49,1.074C49.837,101.493,50.01,103.047,50.861,102.694z"/>
					<path fill="#F3715A" d="M49.874,104.777l-0.363-1.409c0,0.001,0.086-0.787,0.611-0.933c-0.037-0.059-0.07-0.122-0.099-0.188
						c-0.17-0.012-0.47,0.011-0.655,0.268l-0.487,1.076C48.886,103.594,49.039,105.138,49.874,104.777z"/>
				</g>
				<g>
					<path fill="#F3715A" d="M48.129,109.4c-0.087,0.232-0.247,0.52-0.524,0.614c0.029,0.056,0.055,0.116,0.076,0.178
						c0.152,0.003,0.425-0.031,0.615-0.287l0.175-0.35"/>
					<path fill="#F3715A" d="M46.958,109.796c0.091,0.455,0.175,0.907,0.252,1.356c0.002,0.001-0.145,0.761-0.609,0.935
						c0.027,0.054,0.05,0.112,0.068,0.174c0.145-0.001,0.405-0.041,0.594-0.298l0.531-1.055c0,0-0.007-0.371-0.119-0.698
						C47.564,109.884,47.347,109.603,46.958,109.796z"/>
					<path fill="#F3715A" d="M45.991,111.885c0.076,0.448,0.146,0.894,0.205,1.334c0.002,0.001-0.159,0.753-0.602,0.938
						c0.023,0.053,0.042,0.11,0.058,0.17c0.136-0.005,0.384-0.052,0.568-0.31l0.536-1.053c0,0,0.005-0.366-0.094-0.686
						C46.567,111.958,46.366,111.685,45.991,111.885z"/>
					<path fill="#F3715A" d="M45.032,113.968c0.059,0.44,0.108,0.877,0.148,1.309c0.008,0.003-0.988,2.348-1.385,2.553
						c0.016,0.051,0.029,0.104,0.038,0.161c0.117-0.014,0.334-0.075,0.515-0.335l1.365-2.647c0,0,0.018-0.36-0.063-0.672
						C45.57,114.024,45.389,113.759,45.032,113.968z"/>
					<path fill="#F3715A" d="M43.346,118.43c-0.009-0.418-0.03-0.84-0.062-1.268c0.006,0.003,0.865-2.405,1.287-2.6
						c-0.023-0.053-0.043-0.11-0.059-0.17c-0.133,0.007-0.367,0.06-0.53,0.326l-1.164,2.743c-0.001,0-0.015,0.361,0.038,0.66
						C42.911,118.422,43.029,118.657,43.346,118.43z"/>
					<path fill="#F3715A" d="M46.608,108.68l-0.345,0.783c0,0,0.025,0.38,0.14,0.708c0.116,0.329,0.32,0.604,0.708,0.41
						c-0.083-0.452-0.173-0.907-0.271-1.365c0,0,0.025-0.176,0.103-0.378"/>
					<path fill="#F3715A" d="M43.446,119.384l0.389-0.744c0,0,0.045-0.347-0.002-0.643s-0.188-0.542-0.508-0.316
						c0.023,0.424,0.035,0.842,0.034,1.255c0,0-0.044,0.157-0.13,0.347"/>
					<path fill="#F3715A" d="M42.466,118.924c0.086-0.231,0.227-0.522,0.434-0.645c-0.016-0.05-0.028-0.104-0.039-0.161
						c-0.112,0.016-0.313,0.085-0.467,0.356l-0.146,0.347"/>
					<path fill="#F3715A" d="M46.117,112.661c-0.067-0.444-0.143-0.892-0.225-1.344c0.002,0.001,0.113-0.774,0.581-0.946
						c-0.029-0.056-0.055-0.116-0.076-0.179c-0.149-0.001-0.414,0.038-0.586,0.301l-0.473,1.083c0,0,0.017,0.376,0.118,0.697
						C45.56,112.596,45.744,112.863,46.117,112.661z"/>
					<path fill="#F3715A" d="M45.12,114.741c-0.048-0.436-0.105-0.876-0.172-1.32c0.002,0.002,0.125-0.768,0.57-0.951
						c-0.025-0.054-0.049-0.113-0.068-0.174c-0.141,0.002-0.391,0.048-0.56,0.313l-0.468,1.085c0,0,0.007,0.371,0.093,0.686
						C44.603,114.694,44.766,114.95,45.12,114.741z"/>
				</g>
				<g>
					<path fill="#F3715A" d="M43.22,119.296c-0.098,0.229-0.258,0.515-0.465,0.644c0.012,0.047,0.02,0.099,0.024,0.153
						c0.104-0.02,0.301-0.09,0.479-0.352l0.183-0.347"/>
					<path fill="#F3715A" d="M42.343,119.83c-0.002,0.411-0.018,0.817-0.045,1.217c0.003,0.002-0.237,0.716-0.565,0.954
						c0.007,0.045,0.009,0.096,0.009,0.146c0.091-0.025,0.265-0.107,0.438-0.37l0.555-1.044c0,0,0.063-0.338,0.038-0.624
						C42.751,119.825,42.638,119.592,42.343,119.83z"/>
					<path fill="#F3715A" d="M42.244,118.832l-0.329,0.791c0,0-0.029,0.354,0.002,0.643c0.032,0.289,0.12,0.511,0.411,0.271
						c0.018-0.404,0.021-0.815,0.013-1.232c0,0,0.04-0.169,0.119-0.371"/>
					<path fill="#F3715A" d="M41.322,122.611c0.047-0.391,0.078-0.789,0.096-1.193c0.003,0.002,0.185-0.741,0.517-0.978
						c-0.011-0.047-0.02-0.099-0.025-0.153c-0.099,0.022-0.277,0.101-0.424,0.376l-0.449,1.095c0,0-0.045,0.347-0.039,0.624
						C41.005,122.659,41.06,122.864,41.322,122.611z"/>
					<g>
						<path fill="#F3715A" d="M40.841,123.98c-0.231,0.44-0.526,0.747-0.657,0.687c-0.13-0.062-0.087-0.487,0.097-0.95
							c0.185-0.463,0.479-0.771,0.657-0.687C41.116,123.114,41.073,123.54,40.841,123.98z M40.747,123.937
							c0.15-0.297,0.179-0.58,0.064-0.634c-0.113-0.053-0.31,0.152-0.438,0.458c-0.129,0.306-0.156,0.59-0.064,0.633
							C40.401,124.438,40.599,124.232,40.747,123.937z"/>
						<path fill="#F3715A" d="M39.12,126.678l0.002-0.104l-0.296,0.758c-0.026,0.076-0.033,0.115-0.024,0.112
							c0.007-0.002,0.013,0.012,0.077-0.143l0.087-0.213C38.995,126.971,39.05,126.801,39.12,126.678z"/>
						<path fill="#F3715A" d="M38.927,127.582l-0.245,0.481c-0.166,0.318-0.31,0.573-0.319,0.569c-0.01-0.005,0.09-0.28,0.224-0.615
							l0.163-0.401c0.053-0.14,0.046-0.142,0.038-0.138c-0.009,0.004-0.024,0.021-0.064,0.117l-0.199,0.518l-0.331,0.891
							l0.458-0.831l0.155-0.291C38.849,127.782,38.902,127.664,38.927,127.582z"/>
						<path fill="#F3715A" d="M40.183,124.67c-0.146-0.068-0.418,0.272-0.607,0.761l-0.426,1.074c0,0.335-0.075,0.754-0.272,1.244
							c0,0.001-0.034,0.103-0.004,0.059c0.06-0.088,0.223-0.373,0.264-0.547c0.009-0.077,0.068-0.13,0.068-0.13l0.793-1.501
							C40.245,125.168,40.327,124.738,40.183,124.67z"/>
						<path fill="#F3715A" d="M40.188,124.845c-0.024,0.053-0.058,0.089-0.072,0.082l-0.084-0.039
							c-0.015-0.007-0.009-0.056,0.016-0.109l0.251-0.564c0.023-0.054,0.057-0.091,0.074-0.083l0.096,0.046
							c0.018,0.008,0.012,0.058-0.014,0.11L40.188,124.845z"/>
						<path fill="#F3715A" d="M41.813,121.908c0.18-0.353,0.183-0.706,0.008-0.788s-0.44,0.147-0.593,0.514
							c-0.078,0.182-0.234,0.646-0.362,1.07c-0.126,0.425-0.227,0.807-0.163,0.837c0.064,0.03,0.289-0.294,0.53-0.664
							C41.472,122.505,41.724,122.085,41.813,121.908z"/>
					</g>
				</g>
			</g>
			<g>
				<g>
					<g>
						<path fill="#F3715A" d="M73.308,70.733c-0.113-0.259-0.227-0.616-0.175-0.887c-0.048-0.027-0.097-0.063-0.145-0.101
							c-0.063,0.101-0.154,0.318-0.075,0.669l0.146,0.422"/>
						<path fill="#F3715A" d="M73.536,69.594c-0.336-0.325-0.657-0.656-0.964-0.993c-0.004,0.001-0.409-0.757-0.353-1.214
							c-0.043-0.03-0.085-0.067-0.128-0.107c-0.048,0.095-0.114,0.302-0.031,0.651l0.436,1.275c0,0,0.23,0.317,0.483,0.521
							C73.23,69.933,73.507,70.022,73.536,69.594z"/>
						<path fill="#F3715A" d="M74.428,70.298l-0.396-0.893c0,0-0.269-0.303-0.527-0.504c-0.262-0.201-0.511-0.303-0.537,0.125
							c0.32,0.332,0.653,0.658,1.001,0.979c0,0,0.108,0.167,0.213,0.39"/>
						<path fill="#F3715A" d="M72.032,66.569c0.287,0.346,0.59,0.684,0.908,1.016c-0.003,0.002,0.467,0.734,0.406,1.193
							c0.047,0.027,0.097,0.062,0.146,0.1c0.058-0.099,0.129-0.308,0.016-0.645l-0.554-1.229c0,0-0.25-0.31-0.483-0.521
							C72.237,66.271,72.026,66.154,72.032,66.569z"/>
					</g>
					<g>
						<path fill="#F3715A" d="M70.442,63.895c-0.18-0.645-0.276-1.255-0.326-1.704c-0.047-0.451-0.05-0.74,0.048-0.778
							s0.298,0.173,0.577,0.532c0.277,0.359,0.633,0.867,0.951,1.458c0.318,0.59,0.525,1.157,0.571,1.607
							c0.05,0.449-0.058,0.782-0.296,0.877c-0.238,0.093-0.548-0.075-0.824-0.436C70.864,65.092,70.621,64.54,70.442,63.895z
							 M70.65,63.813c0.135,0.425,0.309,0.788,0.493,1.028c0.184,0.24,0.38,0.357,0.524,0.3c0.145-0.057,0.206-0.274,0.172-0.574
							c-0.033-0.3-0.159-0.683-0.356-1.082c-0.196-0.399-0.42-0.744-0.604-0.984c-0.186-0.239-0.332-0.375-0.414-0.343
							c-0.083,0.033-0.095,0.23-0.063,0.531C70.438,62.987,70.515,63.389,70.65,63.813z"/>
						<path fill="#F3715A" d="M72.063,67.058c0.152,0.425,0.435,0.707,0.629,0.631c0.193-0.076,0.201-0.474,0.019-0.886
							c-0.09-0.207-0.351-0.701-0.6-1.14c-0.25-0.438-0.483-0.822-0.554-0.795c-0.068,0.027,0.027,0.465,0.15,0.953
							C71.832,66.31,71.986,66.847,72.063,67.058z"/>
					</g>
				</g>
				<g>
					<path fill="#F3715A" d="M74.176,70.391c0.126,0.253,0.263,0.602,0.204,0.874c0.053,0.026,0.107,0.059,0.161,0.095
						c0.072-0.104,0.169-0.323,0.063-0.664l-0.181-0.408"/>
					<path fill="#F3715A" d="M73.929,71.537c0.35,0.32,0.709,0.636,1.082,0.946c-0.002,0.001,0.504,0.72,0.371,1.207
						c0.057,0.024,0.115,0.055,0.173,0.09c0.085-0.109,0.202-0.336,0.103-0.68l-0.539-1.234c0,0-0.283-0.297-0.566-0.488
						C74.265,71.187,73.983,71.098,73.929,71.537z"/>
					<path fill="#F3715A" d="M74.87,73.986c0.373,0.311,0.758,0.617,1.15,0.919c-0.002,0.001,0.52,0.714,0.356,1.213
						c0.062,0.023,0.122,0.053,0.185,0.086c0.095-0.113,0.23-0.349,0.138-0.693l-0.533-1.237c0,0-0.296-0.292-0.601-0.476
						C75.259,73.615,74.948,73.538,74.87,73.986z"/>
					<path fill="#F3715A" d="M75.812,76.426c0.394,0.303,0.798,0.601,1.209,0.896c-0.003,0.001,1.318,2.6,1.114,3.115
						c0.066,0.021,0.134,0.048,0.199,0.079c0.11-0.119,0.272-0.364,0.188-0.712l-1.323-3.128c0,0-0.309-0.287-0.63-0.464
						C76.245,76.037,75.909,75.97,75.812,76.426z"/>
					<path fill="#F3715A" d="M78.247,81.292c-0.432-0.287-0.857-0.576-1.275-0.869c-0.007,0.002-1.225-2.637-1.04-3.146
						c-0.061-0.021-0.122-0.052-0.183-0.085c-0.099,0.115-0.248,0.354-0.176,0.708l1.169,3.188c0,0,0.306,0.288,0.649,0.456
						C77.735,81.713,78.12,81.761,78.247,81.292z"/>
					<path fill="#F3715A" d="M73.056,70.825l0.321,0.922c0,0,0.251,0.31,0.529,0.504c0.276,0.195,0.583,0.273,0.64-0.166
						c-0.362-0.315-0.713-0.635-1.051-0.96c0,0-0.101-0.168-0.193-0.396"/>
					<path fill="#F3715A" d="M79.378,81.854l-0.369-0.884c0,0-0.322-0.281-0.669-0.448c-0.348-0.166-0.719-0.22-0.846,0.248
						c0.425,0.29,0.855,0.578,1.293,0.863c0,0,0.116,0.152,0.221,0.366"/>
					<path fill="#F3715A" d="M77.699,82.516c-0.12-0.253-0.229-0.606-0.108-0.898c-0.065-0.021-0.133-0.048-0.198-0.08
						c-0.112,0.121-0.283,0.369-0.215,0.724l0.149,0.401"/>
					<path fill="#F3715A" d="M75.53,74.522c-0.385-0.307-0.76-0.616-1.123-0.931c-0.004,0.001-0.461-0.736-0.331-1.223
						c-0.052-0.025-0.106-0.059-0.159-0.095c-0.077,0.106-0.19,0.332-0.115,0.684l0.45,1.27c0,0,0.268,0.304,0.568,0.489
						C75.118,74.902,75.45,74.972,75.53,74.522z"/>
					<path fill="#F3715A" d="M76.513,76.961c-0.405-0.298-0.801-0.6-1.188-0.905c-0.004,0.001-0.48-0.729-0.322-1.227
						c-0.057-0.023-0.114-0.055-0.172-0.09c-0.089,0.111-0.221,0.345-0.147,0.697l0.456,1.268c0,0,0.283,0.297,0.602,0.475
						C76.058,77.358,76.412,77.418,76.513,76.961z"/>
				</g>
				<g>
					<path fill="#F3715A" d="M79.009,82.013c0.13,0.252,0.254,0.604,0.127,0.905c0.068,0.02,0.138,0.046,0.206,0.077
						c0.117-0.123,0.29-0.372,0.209-0.722L79.38,81.86"/>
					<path fill="#F3715A" d="M78.469,83.274c0.438,0.286,0.881,0.569,1.329,0.851c-0.002,0,0.552,0.7,0.316,1.228
						c0.07,0.02,0.141,0.045,0.211,0.075c0.122-0.124,0.304-0.377,0.227-0.729l-0.512-1.245
						C80.034,83.456,78.74,82.333,78.469,83.274z"/>
					<path fill="#F3715A" d="M79.423,85.72l1.355,0.839c-0.001,0,0.556,0.698,0.311,1.23c0.071,0.019,0.144,0.044,0.215,0.073
						c0.125-0.126,0.313-0.381,0.239-0.733l-0.507-1.247C81.031,85.883,79.715,84.77,79.423,85.72z"/>
					<path fill="#F3715A" d="M80.375,88.154l1.375,0.831c0,0,1.316,2.601,1.06,3.138c0.072,0.017,0.146,0.042,0.218,0.071
						c0.129-0.127,0.323-0.385,0.253-0.738l-1.262-3.151C82.016,88.306,80.683,87.198,80.375,88.154z"/>
					<path fill="#F3715A" d="M82.892,92.989l-1.389-0.825c-0.002,0.001-1.297-2.607-1.044-3.143
						c-0.071-0.019-0.144-0.044-0.214-0.073c-0.127,0.125-0.319,0.383-0.252,0.737l1.229,3.164
						C81.222,92.85,82.567,93.952,82.892,92.989z"/>
					<path fill="#F3715A" d="M77.329,82.669l0.343,0.913c-0.007,0.003,1.274,1.131,1.563,0.183
						c-0.444-0.283-0.883-0.568-1.315-0.855c0,0-0.119-0.16-0.221-0.386"/>
					<path fill="#F3715A" d="M84.099,93.521l-0.352-0.89c0,0-1.346-1.102-1.67-0.14l1.391,0.825c0,0,0.119,0.151,0.223,0.365"/>
					<path fill="#F3715A" d="M82.247,94.251c-0.126-0.252-0.238-0.604-0.094-0.904c-0.072-0.019-0.146-0.043-0.217-0.072
						c-0.13,0.127-0.325,0.385-0.257,0.739l0.157,0.398"/>
					<path fill="#F3715A" d="M80.206,86.207l-1.346-0.843c-0.001,0-0.535-0.708-0.301-1.234c-0.068-0.02-0.138-0.046-0.205-0.077
						c-0.119,0.123-0.3,0.375-0.232,0.73l0.477,1.259C78.595,86.044,79.902,87.162,80.206,86.207z"/>
					<path fill="#F3715A" d="M81.176,88.65l-1.368-0.835c0,0.001-0.543-0.703-0.299-1.234c-0.07-0.019-0.141-0.045-0.211-0.074
						c-0.123,0.124-0.31,0.379-0.242,0.734l0.48,1.258C79.533,88.5,80.86,89.609,81.176,88.65z"/>
				</g>
				<g>
					<path fill="#F3715A" d="M83.69,93.695c0.131,0.252,0.248,0.607,0.101,0.916c0.073,0.017,0.146,0.042,0.218,0.071
						c0.13-0.127,0.325-0.385,0.256-0.74l-0.164-0.415"/>
					<path fill="#F3715A" d="M83.063,94.991l1.389,0.826c0.001,0,0.555,0.7,0.299,1.235c0.072,0.019,0.145,0.043,0.216,0.073
						c0.129-0.127,0.323-0.385,0.255-0.74l-0.49-1.254C84.732,95.132,83.388,94.028,83.063,94.991z"/>
					<path fill="#F3715A" d="M84.026,97.433l1.381,0.828c0.001,0,0.55,0.702,0.299,1.236c0.071,0.018,0.143,0.044,0.213,0.073
						c0.127-0.126,0.318-0.382,0.251-0.737l-0.485-1.257C85.687,97.576,84.35,96.471,84.026,97.433z"/>
					<path fill="#F3715A" d="M84.989,99.863l1.365,0.835c0.004-0.001,1.273,2.617,1.039,3.146c0.068,0.019,0.138,0.045,0.205,0.076
						c0.119-0.123,0.3-0.375,0.232-0.73l-1.207-3.173C86.628,100.016,85.304,98.904,84.989,99.863z"/>
					<path fill="#F3715A" d="M87.487,104.706l-1.331-0.849c0.001-0.001-1.323-2.598-1.077-3.13
						c-0.071-0.019-0.144-0.044-0.214-0.073c-0.125,0.126-0.313,0.38-0.239,0.732l1.287,3.143
						C85.919,104.526,87.215,105.648,87.487,104.706z"/>
					<path fill="#F3715A" d="M81.839,94.419l0.358,0.907c0,0,1.348,1.103,1.671,0.14l-1.391-0.825c0,0-0.127-0.159-0.23-0.383"/>
					<path fill="#F3715A" d="M88.611,105.27l-0.336-0.896c0.006-0.003-1.275-1.131-1.564-0.182c0.444,0.283,0.884,0.567,1.317,0.854
						c0,0,0.113,0.153,0.212,0.369"/>
					<path fill="#F3715A" d="M86.928,105.934c-0.126-0.251-0.245-0.601-0.12-0.895c-0.068-0.02-0.138-0.046-0.206-0.076
						c-0.117,0.122-0.29,0.372-0.211,0.722l0.164,0.396"/>
					<path fill="#F3715A" d="M84.829,97.912l-1.385-0.827c0,0-0.56-0.698-0.303-1.234c-0.072-0.018-0.146-0.042-0.217-0.071
						c-0.13,0.127-0.324,0.385-0.255,0.738l0.499,1.251C83.171,97.768,84.513,98.872,84.829,97.912z"/>
					<path fill="#F3715A" d="M85.789,100.359l-1.372-0.832c0-0.001-0.559-0.698-0.307-1.232c-0.072-0.019-0.145-0.043-0.217-0.072
						c-0.127,0.126-0.32,0.384-0.248,0.736l0.504,1.249C84.152,100.207,85.483,101.315,85.789,100.359z"/>
				</g>
				<g>
					<path fill="#F3715A" d="M88.241,105.43c0.124,0.254,0.238,0.61,0.113,0.909c0.066,0.021,0.134,0.048,0.199,0.08
						c0.113-0.121,0.284-0.369,0.216-0.725l-0.155-0.418"/>
					<path fill="#F3715A" d="M87.706,106.688c0.434,0.288,0.86,0.577,1.279,0.87c0.002-0.001,0.51,0.717,0.309,1.231
						c0.064,0.021,0.128,0.049,0.191,0.082c0.105-0.117,0.266-0.361,0.195-0.716l-0.466-1.264c0,0-0.306-0.288-0.65-0.456
						S87.836,106.221,87.706,106.688z"/>
					<path fill="#F3715A" d="M88.682,109.125c0.419,0.293,0.829,0.589,1.231,0.888c0.002-0.001,0.494,0.723,0.315,1.229
						c0.061,0.023,0.121,0.053,0.181,0.087c0.098-0.114,0.242-0.353,0.172-0.706l-0.461-1.266c0,0-0.293-0.293-0.625-0.467
						C89.165,108.717,88.796,108.663,88.682,109.125z"/>
					<path fill="#F3715A" d="M89.655,111.552c0.402,0.299,0.795,0.603,1.177,0.909c0,0,0.3,0.662,0.575,1.388
						c0.276,0.725,0.532,1.513,0.469,1.756c0.053,0.025,0.106,0.058,0.16,0.095c0.077-0.106,0.191-0.333,0.115-0.685l-1.14-3.199
						c0,0-0.28-0.298-0.596-0.478C90.103,111.157,89.752,111.096,89.655,111.552z"/>
					<path fill="#F3715A" d="M92.026,116.444c-0.35-0.32-0.711-0.636-1.084-0.946c0.006-0.002-1.306-2.604-1.148-3.102
						c-0.06-0.022-0.121-0.053-0.182-0.086c-0.094,0.112-0.227,0.347-0.132,0.69l1.354,3.115c0,0,0.284,0.297,0.568,0.488
						C91.688,116.796,91.972,116.883,92.026,116.444z"/>
					<path fill="#F3715A" d="M86.558,106.087l0.375,0.9c0,0,0.323,0.28,0.671,0.447c0.349,0.167,0.722,0.22,0.849-0.248
						c-0.426-0.29-0.857-0.578-1.296-0.863c0,0-0.123-0.159-0.229-0.383"/>
					<path fill="#F3715A" d="M92.886,117.112l-0.314-0.904c0,0-0.252-0.31-0.53-0.503c-0.277-0.194-0.585-0.272-0.643,0.168
						c0.362,0.313,0.715,0.633,1.053,0.958c0,0,0.096,0.16,0.187,0.379"/>
					<path fill="#F3715A" d="M91.761,117.556c-0.123-0.252-0.256-0.596-0.197-0.863c-0.053-0.025-0.107-0.058-0.162-0.094
						c-0.072,0.104-0.17,0.324-0.063,0.664l0.173,0.392"/>
					<path fill="#F3715A" d="M89.402,109.638c-0.409-0.297-0.827-0.59-1.252-0.881c0.002,0-0.539-0.705-0.335-1.221
						c-0.065-0.021-0.133-0.048-0.199-0.079c-0.11,0.12-0.273,0.365-0.188,0.714l0.522,1.241c0,0,0.315,0.283,0.65,0.455
						C88.937,110.038,89.29,110.099,89.402,109.638z"/>
					<path fill="#F3715A" d="M90.351,112.089c-0.391-0.304-0.791-0.604-1.2-0.9c0.002-0.001-0.528-0.709-0.346-1.217
						c-0.063-0.021-0.128-0.049-0.191-0.082c-0.103,0.117-0.251,0.356-0.163,0.703l0.529,1.238c0,0,0.305,0.289,0.625,0.467
						S90.256,112.544,90.351,112.089z"/>
				</g>
				<g>
					<path fill="#F3715A" d="M92.642,117.229c0.113,0.258,0.227,0.615,0.174,0.886c0.048,0.027,0.097,0.063,0.145,0.101
						c0.064-0.101,0.156-0.317,0.076-0.669l-0.146-0.423"/>
					<path fill="#F3715A" d="M92.41,118.369c0.336,0.325,0.659,0.656,0.966,0.993c0.004-0.002,0.409,0.756,0.353,1.213
						c0.042,0.03,0.085,0.067,0.128,0.108c0.049-0.095,0.115-0.303,0.032-0.652l-0.436-1.275c0.001,0-0.23-0.317-0.483-0.521
						C92.718,118.03,92.439,117.94,92.41,118.369z"/>
					<path fill="#F3715A" d="M91.517,117.666l0.396,0.892c0,0,0.269,0.303,0.528,0.505c0.263,0.2,0.512,0.301,0.539-0.127
						c-0.32-0.331-0.654-0.657-1.003-0.978c0,0-0.108-0.166-0.213-0.39"/>
					<path fill="#F3715A" d="M93.916,121.393c-0.288-0.345-0.592-0.683-0.911-1.015c0.003-0.001-0.467-0.734-0.406-1.193
						c-0.047-0.027-0.096-0.062-0.146-0.1c-0.059,0.099-0.131,0.309-0.017,0.646l0.553,1.229c0,0,0.251,0.309,0.484,0.521
						C93.709,121.692,93.921,121.809,93.916,121.393z"/>
					<g>
						<path fill="#F3715A" d="M94.675,122.862c0.185,0.537,0.209,1.021,0.056,1.082c-0.152,0.06-0.472-0.309-0.711-0.824
							c-0.239-0.515-0.264-1-0.056-1.081C94.171,121.957,94.49,122.326,94.675,122.862z M94.565,122.905
							c-0.129-0.355-0.342-0.602-0.475-0.549c-0.132,0.052-0.115,0.375,0.038,0.721c0.153,0.347,0.366,0.592,0.474,0.549
							C94.711,123.584,94.694,123.261,94.565,122.905z"/>
						<path fill="#F3715A" d="M95.566,126.399c-0.028-0.027-0.058-0.058-0.086-0.082l0.397,0.838
							c0.043,0.082,0.07,0.117,0.075,0.108c0.003-0.008,0.02-0.002-0.06-0.177l-0.107-0.238
							C95.71,126.732,95.613,126.554,95.566,126.399z"/>
						<path fill="#F3715A" d="M96.167,127.267l0.207,0.579c0.134,0.388,0.233,0.706,0.222,0.711s-0.162-0.294-0.337-0.665
							l-0.204-0.45c-0.075-0.152-0.082-0.148-0.085-0.14c-0.004,0.011-0.002,0.037,0.047,0.146l0.273,0.569l0.481,0.97l-0.331-1.029
							l-0.119-0.357C96.271,127.487,96.216,127.351,96.167,127.267z"/>
						<path fill="#F3715A" d="M94.732,123.948c-0.171,0.066-0.102,0.559,0.154,1.1l0.558,1.193c0.279,0.261,0.569,0.65,0.822,1.198
							c0-0.001,0.059,0.107,0.046,0.048c-0.026-0.118-0.135-0.477-0.247-0.646c-0.059-0.067-0.055-0.158-0.054-0.158l-0.627-1.832
							C95.195,124.285,94.902,123.881,94.732,123.948z"/>
						<path fill="#F3715A" d="M94.881,124.08c0.024,0.062,0.029,0.118,0.012,0.125l-0.099,0.039
							c-0.018,0.007-0.052-0.037-0.078-0.099l-0.272-0.65c-0.025-0.062-0.03-0.118-0.01-0.126l0.113-0.044
							c0.021-0.009,0.056,0.035,0.08,0.098L94.881,124.08z"/>
						<path fill="#F3715A" d="M93.714,120.438c-0.153-0.425-0.441-0.704-0.645-0.624c-0.201,0.079-0.219,0.479-0.035,0.891
							c0.091,0.207,0.353,0.701,0.604,1.139c0.252,0.438,0.491,0.819,0.565,0.79c0.074-0.028-0.019-0.469-0.139-0.958
							S93.791,120.649,93.714,120.438z"/>
					</g>
				</g>
			</g>
		</g>
		<g>
			<g>
				<path fill="#078D9B" d="M171.755,209.313c-0.003-0.126-0.018-0.246-0.041-0.359c0-0.008-0.002-0.016-0.002-0.023l-0.005-0.018
					c-0.002-0.009-0.003-0.019-0.005-0.027l-0.001-0.007c0,0.001,0,0.001,0,0.002c-0.001-0.006-0.002-0.012-0.003-0.018
					c-0.002-0.01-0.007-0.032-0.014-0.062c-0.16-0.783-0.727-1.443-1.443-1.99c0,0,0-0.001-0.001-0.001
					c-0.05-0.038-0.1-0.074-0.15-0.111c-0.045-0.034-0.089-0.066-0.128-0.098c-0.112-0.088-0.248-0.179-0.389-0.267
					c-0.009-0.111-0.016-0.22-0.018-0.317c0-0.017,0-0.035-0.001-0.052c-0.001-0.069-0.002-0.127-0.003-0.175
					c0-0.004,0-0.007,0-0.011v0.001c-0.001-0.012-0.001-0.023-0.001-0.034l-0.001-0.039l-0.002-0.033
					c0-0.023-0.001-0.048-0.002-0.069l-0.002-0.037c0-0.001,0-0.001,0-0.002c-0.002-0.024-0.003-0.05-0.004-0.076
					c-0.002-0.036-0.004-0.073-0.006-0.107c-0.002-0.021-0.004-0.042-0.006-0.062v-0.016c0,0.001,0,0.002,0,0.003
					c-0.006-0.066-0.012-0.129-0.02-0.188c-0.001-0.008-0.002-0.018-0.003-0.026c-0.003-0.018-0.006-0.035-0.009-0.052
					c0-0.002,0-0.004,0-0.005c-0.002-0.014-0.004-0.026-0.006-0.039c-0.001-0.006-0.002-0.012-0.002-0.018
					c-0.009-0.056-0.018-0.104-0.029-0.155c-0.014-0.061-0.029-0.118-0.046-0.173c-0.002-0.008-0.006-0.017-0.008-0.025
					c-0.002-0.007-0.004-0.013-0.006-0.019c-0.001-0.006-0.003-0.013-0.005-0.019c-0.003-0.009-0.006-0.019-0.008-0.027l0,0v-0.001
					c-0.005-0.015-0.01-0.029-0.014-0.043c-0.085-0.299-0.219-0.587-0.438-0.856c-0.002-0.003-0.004-0.005-0.006-0.008l-0.004-0.006
					c-0.009-0.011-0.021-0.023-0.029-0.034c-0.006-0.008-0.012-0.015-0.018-0.021c-0.021-0.03-0.042-0.062-0.063-0.088l0.029,0.043
					c-0.008-0.01-0.017-0.021-0.025-0.029c-0.004-0.006-0.008-0.011-0.012-0.016c-0.003-0.005-0.007-0.01-0.01-0.014
					c0.005,0.004,0.012,0.01,0.016,0.014l-0.023-0.024c-0.008-0.011-0.017-0.023-0.023-0.034l-0.014-0.014l-0.011-0.015
					c-0.005-0.005-0.011-0.011-0.016-0.017c-0.008-0.009-0.014-0.017-0.021-0.026c-0.032-0.04-0.067-0.08-0.105-0.12
					c-0.36-0.401-0.848-0.752-1.385-1.061c-0.102-0.061-0.204-0.119-0.31-0.177c-0.047-0.026-0.094-0.052-0.14-0.075
					c-0.177-0.098-0.37-0.191-0.574-0.283c-0.018-0.009-0.036-0.018-0.054-0.025c-0.002-0.001-0.003-0.002-0.004-0.002l-0.005-0.002
					c-0.009-0.005-0.019-0.009-0.028-0.014c-0.117-0.056-0.237-0.108-0.369-0.164c-0.317-0.144-0.542-0.227-1.017-0.4
					c-0.201-0.077-0.437-0.156-0.675-0.233c-0.066-0.021-0.133-0.043-0.197-0.064l0.03,0.009l-0.112-0.035
					c-0.142-0.047-0.279-0.091-0.404-0.128c-0.064-0.02-0.131-0.04-0.201-0.061l-0.017-0.005l-0.013-0.004
					c-0.01-0.003-0.021-0.006-0.031-0.009l-0.005-0.002l-0.005-0.001c-0.286-0.086-0.546-0.159-0.77-0.221
					c-0.155-0.042-0.309-0.083-0.455-0.12c-0.007-0.002-0.015-0.004-0.021-0.006s-0.014-0.003-0.02-0.005
					c-0.169-0.043-0.281-0.07-0.319-0.079c-0.012-0.003-0.025-0.006-0.037-0.009c-0.359-0.087-0.776-0.182-1.161-0.269
					c-0.109-0.025-0.217-0.05-0.318-0.074c-0.021-0.004-0.045-0.009-0.068-0.014c-0.021-0.005-0.043-0.01-0.063-0.015l-0.38-0.074
					c-0.04-0.008-0.079-0.017-0.12-0.024c-0.18-0.038-0.363-0.075-0.551-0.112c0.053,0.01,0.105,0.02,0.156,0.028
					c-0.124-0.023-0.267-0.051-0.41-0.078c-0.1-0.02-0.2-0.038-0.302-0.058c-0.006-0.001-0.012-0.002-0.017-0.004
					c-0.182-0.035-0.383-0.072-0.591-0.108c-0.017-0.003-0.032-0.006-0.049-0.009c-0.051-0.009-0.103-0.018-0.153-0.026
					c-0.033-0.005-0.064-0.011-0.098-0.017c-0.681-0.117-1.404-0.232-2.182-0.344c-1.947-0.287-4.222-0.553-6.859-0.765
					c0.01-0.173,0.028-0.347,0.018-0.488c-0.016-0.206,0.027-0.413-0.013-0.619c-0.011-0.058-0.022-0.112-0.034-0.169
					c0.027-0.204-0.009-0.432-0.113-0.685c-0.014-0.139-0.057-0.286-0.136-0.443c-0.005-0.011-0.014-0.022-0.021-0.033
					c-0.012-0.054-0.031-0.108-0.053-0.163c-0.012-0.085-0.037-0.17-0.08-0.255c-0.014-0.06-0.034-0.119-0.068-0.176
					c-0.006-0.009-0.014-0.019-0.02-0.027c-0.015-0.038-0.031-0.076-0.055-0.112c-0.014-0.021-0.031-0.045-0.05-0.067
					c-0.011-0.021-0.019-0.041-0.031-0.061c-0.021-0.033-0.051-0.067-0.081-0.102c-0.002-0.003-0.002-0.006-0.004-0.009
					c-0.043-0.061-0.115-0.131-0.164-0.188l-0.004-0.004l0.008,0.01c-0.008-0.008-0.015-0.017-0.023-0.025l-0.008-0.008
					c-0.004-0.003-0.006-0.006-0.008-0.008c-0.007-0.006-0.013-0.011-0.02-0.017l-0.046-0.044l0.001-0.001l-0.034-0.03l-0.06-0.057
					l-0.014-0.011c-0.004-0.005-0.011-0.011-0.016-0.016c0.002,0.001,0.003,0.003,0.004,0.005c-0.009-0.009-0.018-0.016-0.026-0.024
					c-0.011-0.01-0.023-0.021-0.034-0.03c-0.002-0.002-0.006-0.006-0.008-0.007c-0.002-0.003-0.006-0.006-0.008-0.008l-0.004-0.003
					h0.001c-0.006-0.004-0.012-0.01-0.017-0.014c-0.094-0.084-0.162-0.142-0.244-0.204c-0.285-0.227-0.514-0.375-0.63-0.446
					c-0.02-0.013-0.04-0.024-0.057-0.035c0.009,0.005,0.015,0.01,0.023,0.016c-0.009-0.006-0.017-0.01-0.025-0.016
					c-0.007-0.004-0.013-0.008-0.02-0.012c-0.015-0.009-0.027-0.017-0.042-0.025c-0.012-0.008-0.023-0.015-0.035-0.021
					c-0.038-0.023-0.078-0.048-0.11-0.067c-0.085-0.052-0.318-0.188-0.685-0.355l-0.005-0.002c-0.009-0.004-0.016-0.007-0.024-0.011
					c-0.01-0.005-0.022-0.01-0.033-0.015l-0.027-0.014c-0.005-0.001-0.01-0.004-0.014-0.005c-0.086-0.04-0.164-0.073-0.254-0.109
					c-0.146-0.063-0.22-0.09-0.401-0.156c-0.134-0.05-0.226-0.082-0.38-0.13c-0.007-0.003-0.016-0.005-0.021-0.008
					c-0.01-0.003-0.018-0.005-0.027-0.008c-0.016-0.005-0.034-0.011-0.051-0.017l-0.014-0.004c-0.012-0.004-0.023-0.008-0.036-0.012
					l-0.003-0.002c-0.014-0.004-0.029-0.008-0.044-0.012c-0.007-0.002-0.013-0.004-0.019-0.006c0.008,0.002,0.013,0.003,0.021,0.006
					l0.004,0.001l-0.049-0.015c-0.008-0.002-0.017-0.005-0.025-0.008l-0.177-0.052l-0.021-0.006c-0.152-0.045-0.223-0.063-0.4-0.107
					c-0.012-0.003-0.025-0.006-0.036-0.009c0.001-0.279,0.001-0.559,0.002-0.838c0-0.001-0.001-0.003-0.001-0.005
					c0-0.012-0.003-0.024-0.005-0.036c-0.001-0.009-0.001-0.018-0.004-0.025c0-0.002-0.001-0.003-0.001-0.004s0-0.002-0.001-0.002
					c0-0.001,0-0.001,0-0.002c-0.007-0.022-0.019-0.046-0.032-0.069c-0.003-0.004-0.006-0.008-0.008-0.012
					c-0.003-0.003-0.006-0.007-0.009-0.011c-0.012-0.016-0.023-0.032-0.038-0.048c-0.004-0.004-0.006-0.007-0.01-0.011
					c-0.006-0.007-0.015-0.014-0.021-0.02c-0.014-0.014-0.029-0.027-0.045-0.04c-0.008-0.006-0.015-0.012-0.022-0.019
					c-0.008-0.006-0.017-0.011-0.024-0.017c-0.016-0.012-0.033-0.023-0.051-0.035c-0.014-0.008-0.026-0.017-0.04-0.024
					c-0.005-0.004-0.009-0.007-0.015-0.01c-0.002-0.001-0.005-0.002-0.007-0.004c-0.019-0.011-0.04-0.021-0.061-0.032
					c-0.017-0.009-0.034-0.019-0.052-0.027c-0.025-0.013-0.053-0.024-0.079-0.036c-0.006-0.003-0.01-0.006-0.017-0.008
					c-0.008-0.004-0.018-0.008-0.026-0.012c-0.01-0.004-0.019-0.009-0.028-0.013c-0.009-0.003-0.017-0.007-0.025-0.01
					c-0.012-0.005-0.022-0.011-0.035-0.016c-0.036-0.014-0.073-0.028-0.112-0.042c-0.003-0.002-0.007-0.003-0.009-0.004
					c-0.03-0.011-0.061-0.021-0.091-0.031c-0.03-0.011-0.062-0.021-0.095-0.031c-0.013-0.004-0.027-0.009-0.041-0.013
					c-0.006-0.002-0.012-0.004-0.019-0.006c-0.013-0.004-0.024-0.008-0.038-0.012c-0.03-0.01-0.062-0.019-0.094-0.027
					c-0.031-0.01-0.064-0.019-0.098-0.027c-0.006-0.002-0.014-0.003-0.02-0.005c-0.01-0.003-0.021-0.006-0.031-0.008
					c-0.012-0.004-0.023-0.007-0.035-0.01c-0.008-0.002-0.016-0.004-0.023-0.006c-0.035-0.01-0.07-0.019-0.106-0.027
					c-0.041-0.01-0.084-0.021-0.128-0.03c-0.043-0.01-0.086-0.02-0.131-0.029c-0.018-0.003-0.035-0.007-0.052-0.011
					c-0.021-0.004-0.042-0.009-0.063-0.013c-0.012-0.003-0.023-0.005-0.035-0.008c-0.01-0.002-0.02-0.004-0.029-0.006
					c-0.002,0-0.004-0.001-0.006-0.001c-0.036-0.008-0.073-0.015-0.11-0.021c-0.017-0.003-0.033-0.007-0.05-0.01
					s-0.033-0.006-0.049-0.01c-0.021-0.004-0.043-0.007-0.064-0.011c-0.031-0.006-0.063-0.012-0.094-0.017
					c-0.041-0.008-0.083-0.015-0.125-0.021c-0.023-0.004-0.047-0.009-0.07-0.013c-0.012-0.002-0.025-0.003-0.037-0.005
					c-0.025-0.004-0.052-0.009-0.078-0.013c-0.026-0.005-0.054-0.009-0.08-0.013c-0.085-0.013-0.171-0.025-0.258-0.037
					c-0.046-0.006-0.092-0.013-0.139-0.019c-0.023-0.003-0.047-0.007-0.071-0.01c-0.048-0.007-0.097-0.013-0.146-0.018
					c-0.034-0.005-0.066-0.009-0.1-0.013c-0.018-0.002-0.035-0.004-0.052-0.006c-0.093-0.012-0.188-0.021-0.283-0.031
					c-0.022-0.003-0.044-0.006-0.065-0.008c-0.008-0.001-0.014-0.002-0.021-0.002c-0.039-0.004-0.08-0.008-0.121-0.012
					c-0.071-0.007-0.143-0.014-0.216-0.021c-0.062-0.005-0.123-0.011-0.185-0.016c-0.049-0.004-0.096-0.009-0.145-0.013
					c-0.032-0.002-0.064-0.005-0.098-0.007c-0.051-0.004-0.101-0.008-0.151-0.012c-0.086-0.007-0.174-0.013-0.261-0.019
					c-0.079-0.005-0.158-0.01-0.238-0.015c-0.038-0.002-0.076-0.005-0.115-0.007c-0.049-0.003-0.098-0.006-0.146-0.008
					c-0.066-0.004-0.135-0.007-0.202-0.01c-0.071-0.004-0.144-0.007-0.216-0.01c-0.051-0.002-0.1-0.005-0.15-0.007
					c-0.012,0-0.022,0-0.033-0.001c-0.006,0-0.012,0-0.017-0.001c-0.094-0.003-0.188-0.006-0.283-0.009
					c-0.089-0.003-0.177-0.005-0.267-0.007c-0.066-0.002-0.133-0.003-0.2-0.005c-0.012,0-0.023,0-0.035,0
					c-0.006,0-0.013,0-0.019-0.001c-0.066,0-0.133-0.002-0.2-0.002c-0.078-0.001-0.157-0.002-0.236-0.003
					c-0.064,0-0.129-0.001-0.194-0.001c-0.038,0-0.076,0-0.115,0c-0.021,0-0.041,0-0.061,0c-0.049,0-0.098,0-0.147,0.001
					c-0.069,0-0.14,0.001-0.21,0.002c-0.1,0.001-0.199,0.002-0.299,0.004c-0.042,0.001-0.084,0.001-0.127,0.002l0,0l0,0
					c-0.018,0.001-0.036,0.001-0.054,0.002c-0.089,0.002-0.177,0.004-0.265,0.006c-0.058,0.002-0.115,0.004-0.173,0.006
					c-0.125,0.004-0.249,0.009-0.374,0.014c-0.037,0.002-0.074,0.003-0.112,0.005c-0.015,0.001-0.029,0.002-0.044,0.002
					c-0.023,0.002-0.046,0.003-0.068,0.004c-0.082,0.004-0.164,0.008-0.245,0.013c-0.05,0.002-0.099,0.005-0.148,0.008
					c-0.1,0.007-0.198,0.013-0.296,0.02c-0.047,0.003-0.093,0.006-0.139,0.009c-0.045,0.004-0.09,0.007-0.135,0.01
					c-0.012,0.001-0.024,0.002-0.037,0.003c-0.082,0.007-0.164,0.013-0.246,0.02c-0.148,0.013-0.291,0.026-0.432,0.04
					c-0.04,0.004-0.08,0.008-0.12,0.013c-0.111,0.011-0.22,0.023-0.327,0.036c-0.029,0.003-0.06,0.006-0.088,0.01
					c-0.127,0.015-0.249,0.031-0.369,0.047c-0.011,0.002-0.023,0.003-0.035,0.005c-0.026,0.004-0.051,0.008-0.078,0.012
					c-0.084,0.012-0.167,0.024-0.248,0.036c-0.023,0.004-0.049,0.008-0.073,0.012c-0.003,0-0.005,0-0.007,0.001
					c-0.008,0.001-0.014,0.003-0.021,0.004c-0.009,0.001-0.018,0.003-0.027,0.004c-0.036,0.006-0.072,0.013-0.107,0.019
					c-0.053,0.009-0.104,0.018-0.154,0.026c-0.016,0.003-0.031,0.006-0.046,0.009c-0.026,0.005-0.053,0.01-0.079,0.015
					c-0.043,0.008-0.085,0.017-0.126,0.024c-0.036,0.008-0.07,0.015-0.104,0.021c-0.027,0.006-0.056,0.012-0.082,0.018
					c-0.018,0.004-0.033,0.007-0.05,0.011c-0.038,0.008-0.075,0.017-0.111,0.025s-0.073,0.017-0.108,0.025
					c-0.019,0.005-0.037,0.009-0.056,0.015c-0.019,0.004-0.034,0.009-0.052,0.013c-0.035,0.009-0.07,0.019-0.104,0.027
					c-0.02,0.005-0.038,0.011-0.057,0.016c-0.027,0.008-0.053,0.015-0.078,0.022c-0.019,0.006-0.038,0.012-0.057,0.017
					c-0.032,0.01-0.062,0.02-0.092,0.03c-0.01,0.002-0.02,0.006-0.028,0.009c-0.016,0.005-0.032,0.01-0.047,0.015
					c-0.004,0.001-0.007,0.002-0.01,0.004c-0.028,0.01-0.056,0.02-0.083,0.029c-0.025,0.01-0.053,0.02-0.077,0.028
					c-0.008,0.003-0.015,0.007-0.023,0.01c-0.021,0.008-0.038,0.016-0.058,0.023c-0.021,0.009-0.043,0.018-0.063,0.026
					s-0.038,0.019-0.058,0.027c-0.017,0.008-0.033,0.016-0.05,0.023c-0.015,0.008-0.029,0.016-0.044,0.023
					c-0.029,0.016-0.059,0.031-0.085,0.048c-0.002,0.001-0.004,0.002-0.006,0.004c-0.01,0.006-0.017,0.012-0.025,0.018
					c-0.002,0.001-0.003,0.002-0.005,0.003c-0.019,0.013-0.039,0.025-0.057,0.038c-0.009,0.007-0.017,0.014-0.025,0.021
					c-0.01,0.008-0.02,0.016-0.028,0.024c-0.008,0.006-0.016,0.013-0.022,0.019c-0.009,0.009-0.017,0.018-0.024,0.026
					c-0.009,0.01-0.02,0.021-0.027,0.03c-0.001,0.001-0.003,0.003-0.004,0.004c-0.001,0.002-0.002,0.003-0.003,0.004
					c-0.007,0.009-0.011,0.018-0.017,0.027c-0.009,0.013-0.018,0.025-0.023,0.038c-0.003,0.005-0.004,0.01-0.006,0.015
					c-0.003,0.006-0.005,0.013-0.007,0.019c-0.004,0.011-0.008,0.021-0.011,0.032c0,0.002-0.001,0.004-0.002,0.006
					c-0.002,0.014-0.004,0.027-0.004,0.042c0,0.278-0.001,0.556-0.002,0.834c-1.298,0.317-2.203,0.717-2.895,1.142
					c-0.023,0.016-0.049,0.03-0.072,0.046c-0.014,0.009-0.027,0.017-0.041,0.025c-0.005,0.003-0.012,0.007-0.018,0.011
					c-0.011,0.007-0.024,0.017-0.036,0.024c-0.067,0.043-0.131,0.085-0.2,0.134l-0.049,0.033c-0.004,0.002-0.01,0.006-0.014,0.01
					c-0.017,0.012-0.033,0.023-0.05,0.036c-0.005,0.004-0.011,0.007-0.015,0.011c-0.078,0.058-0.162,0.119-0.23,0.172
					c-0.085,0.063-0.154,0.121-0.252,0.208c-0.004,0.002-0.007,0.005-0.01,0.008l-0.006,0.005l0,0
					c-0.006,0.005-0.013,0.01-0.018,0.015c-0.018,0.017-0.039,0.036-0.059,0.054c-0.006,0.006-0.011,0.01-0.017,0.015l-0.067,0.06
					l-0.048,0.045c-0.001,0.002-0.003,0.004-0.005,0.006c-0.006,0.005-0.011,0.01-0.016,0.015c-0.011,0.01-0.021,0.02-0.032,0.028
					c0.003-0.002,0.006-0.004,0.009-0.006c-0.008,0.007-0.019,0.016-0.025,0.023c-0.031,0.029-0.059,0.06-0.082,0.09
					c-0.005,0.006-0.011,0.012-0.016,0.018c0.002-0.002,0.003-0.005,0.005-0.008c-0.003,0.004-0.005,0.008-0.008,0.012
					c-0.003,0.002-0.005,0.004-0.007,0.008c0.003-0.005,0.006-0.01,0.01-0.015c-0.051,0.063-0.119,0.147-0.17,0.21
					c-0.007,0.013-0.014,0.027-0.02,0.042c-0.025,0.032-0.049,0.063-0.07,0.091c-0.012,0.027-0.025,0.057-0.038,0.088
					c-0.014,0.02-0.028,0.04-0.041,0.057c-0.021,0.047-0.038,0.091-0.056,0.135c-0.005,0.007-0.012,0.016-0.016,0.023
					c-0.033,0.083-0.061,0.161-0.084,0.238c-0.078,0.182-0.125,0.325-0.147,0.484c-0.017,0.063-0.032,0.134-0.048,0.214
					c-0.054,0.195-0.107,0.445-0.144,0.791c-0.054,0.295-0.093,0.608-0.154,1.147c-0.236,0.019-0.485,0.041-0.758,0.064
					c-0.025,0.002-0.052,0.004-0.077,0.007c-0.166,0.014-0.35,0.029-0.539,0.046c-0.082,0.008-0.164,0.015-0.246,0.021
					c-0.054,0.006-0.11,0.011-0.166,0.016c-0.494,0.045-0.982,0.094-1.465,0.144c-1.864,0.181-3.748,0.434-5.53,0.734
					c-0.171,0.027-0.339,0.056-0.505,0.084l-0.106,0.017c-0.033,0.006-0.064,0.013-0.098,0.018
					c-0.525,0.092-1.019,0.184-1.456,0.274c-0.077,0.016-0.154,0.03-0.23,0.046c-0.709,0.143-1.483,0.31-2.148,0.48
					c-0.721,0.178-1.389,0.362-1.999,0.553c-0.048,0.015-0.094,0.029-0.14,0.044c-0.026,0.009-0.053,0.017-0.077,0.024
					c-0.762,0.24-1.413,0.484-1.921,0.726c-0.027,0.013-0.057,0.027-0.084,0.04c-0.271,0.121-0.59,0.271-0.922,0.449
					c-0.271,0.141-0.532,0.29-0.748,0.445c-0.183,0.119-0.354,0.244-0.518,0.38c-0.197,0.161-0.382,0.335-0.547,0.521l-0.002,0.002
					c-0.075,0.073-0.149,0.172-0.22,0.271c-0.008,0.01-0.017,0.02-0.023,0.03c-0.036,0.052-0.084,0.12-0.135,0.202
					c-0.002,0.002-0.004,0.005-0.006,0.008s-0.003,0.007-0.005,0.009c-0.012,0.019-0.022,0.036-0.034,0.057
					c-0.028,0.045-0.056,0.092-0.083,0.144c-0.021,0.041-0.041,0.082-0.061,0.125c-0.018,0.039-0.034,0.078-0.05,0.118
					c-0.015,0.034-0.029,0.069-0.042,0.104c-0.021,0.062-0.039,0.12-0.053,0.178c-0.01,0.034-0.021,0.068-0.029,0.104
					c-0.001,0.004-0.002,0.007-0.003,0.011c-0.038,0.141-0.066,0.28-0.088,0.473c-0.002,0.018-0.003,0.035-0.005,0.053
					c-0.012,0.098-0.02,0.208-0.024,0.348l-0.001,0.009c0,0,0,0.001,0,0.002s0,0.002,0,0.003c0,0.004,0,0.008,0,0.013l-0.002,0.013
					c0,0.006,0,0.014,0,0.021c-0.001,0.021-0.002,0.046-0.002,0.069c0,0.002-0.001,0.003-0.001,0.005
					c-0.001,0.031-0.001,0.064-0.002,0.099c-0.001,0.045-0.003,0.093-0.003,0.143c-0.001,0.015-0.001,0.027-0.002,0.042
					c-0.004,0.125-0.008,0.229-0.012,0.317c-0.086,0.054-0.169,0.106-0.245,0.159c-0.075,0.053-0.157,0.113-0.24,0.176
					c-0.079,0.06-0.147,0.111-0.211,0.162c-0.032,0.025-0.064,0.051-0.096,0.076c-0.015,0.012-0.03,0.024-0.044,0.036
					c0.002-0.005,0.004-0.009,0.008-0.013c-0.01,0.01-0.02,0.02-0.029,0.03c-0.077,0.065-0.15,0.13-0.22,0.194
					c-0.021,0.018-0.044,0.036-0.063,0.054c-0.053,0.046-0.107,0.104-0.162,0.165c-0.126,0.132-0.235,0.262-0.331,0.39
					c-0.029,0.04-0.059,0.081-0.088,0.123c-0.008,0.012-0.016,0.024-0.023,0.036c-0.027,0.041-0.054,0.081-0.079,0.124
					c-0.274,0.456-0.377,0.884-0.384,1.259c-0.004,0.101,0.005,0.213,0.016,0.302c0.014,0.114,0.036,0.224,0.064,0.332l0.012,0.054
					c0.02,0.062,0.036,0.112,0.052,0.16c0.001,0.003,0.003,0.007,0.004,0.011c0.001,0.001,0.002,0.004,0.003,0.005
					c0.026,0.076,0.054,0.142,0.086,0.205c0,0.002,0.002,0.004,0.003,0.006c0.008,0.017,0.015,0.032,0.024,0.049
					c0.027,0.055,0.059,0.107,0.094,0.162c0.002,0.003,0.003,0.006,0.004,0.008c0.004,0.007,0.008,0.015,0.011,0.021l0.014,0.019
					c0.007,0.011,0.013,0.021,0.02,0.032l0.006,0.011c0.001,0.001,0.002,0.002,0.003,0.003c0.003,0.005,0.006,0.011,0.01,0.016
					c0.018,0.029,0.042,0.061,0.063,0.09c0.002,0.003,0.004,0.007,0.006,0.01l0.008,0.009c0.096,0.137,0.214,0.274,0.342,0.404
					l0.003,0.003c0.001,0.001,0.002,0.002,0.003,0.003c0.059,0.059,0.115,0.115,0.174,0.168l0.002,0.003
					c0.005,0.004,0.01,0.008,0.014,0.011c0.049,0.043,0.097,0.087,0.142,0.124c0.009,0.007,0.019,0.015,0.027,0.021
					s0.018,0.016,0.025,0.022c0.005,0.004,0.023,0.018,0.047,0.034c0.044,0.035,0.088,0.069,0.134,0.104
					c0.004,0.003,0.008,0.006,0.013,0.01c0.028,0.021,0.056,0.042,0.084,0.063c0.005,0.004,0.01,0.008,0.015,0.012
					c0.004,0.002,0.007,0.004,0.01,0.006c0.042,0.029,0.084,0.06,0.126,0.089c0.155,0.108,0.313,0.207,0.462,0.291
					c0.307,0.181,0.623,0.341,0.93,0.483c-0.003-0.002-0.008-0.004-0.009-0.004l0.076,0.036l0.18,0.081
					c0.131,0.059,0.28,0.12,0.434,0.182c-0.026-0.01-0.055-0.021-0.079-0.029c0.038,0.015,0.081,0.031,0.123,0.048
					c0.164,0.065,0.327,0.129,0.483,0.189c0.072,0.027,0.142,0.054,0.208,0.079c0.068,0.026,0.153,0.058,0.252,0.093
					c0.002,0.001,0.006,0.002,0.008,0.003c0.369,0.131,0.938,0.319,1.731,0.541c0.114,0.032,0.229,0.063,0.345,0.096
					c-0.005-0.002-0.011-0.003-0.016-0.004c0.012,0.003,0.026,0.007,0.039,0.01c0.914,0.249,1.834,0.468,2.499,0.602
					c2.077,0.417,2.294,0.46,3.897,0.712c0.389,0.061,0.77,0.117,1.137,0.17c0.016,0.003,0.03,0.005,0.045,0.007
					c0.057,0.008,0.112,0.016,0.168,0.023c2.629,0.376,5.818,0.723,9.643,0.974c0.252,0.017,0.505,0.033,0.758,0.049
					c0.256,0.017,0.533,0.033,0.82,0.049c0.527,0.03,1.062,0.059,1.613,0.085c0.536,0.025,1.439,0.069,2.696,0.111
					c0.532,0.026,1.167,0.039,1.762,0.051c0.259,0.006,0.524,0.012,0.804,0.018c2.201,0.044,2.875,0.042,5.379,0.034
					c0.117,0,0.302-0.001,0.541-0.003c4.368-0.029,9.164-0.245,13.725-0.665c0.154-0.014,0.311-0.028,0.47-0.043
					c0.112-0.011,0.224-0.021,0.336-0.032c1.018-0.099,2.123-0.217,3.226-0.355c0.031-0.004,0.066-0.008,0.098-0.012
					c0.063-0.008,0.127-0.017,0.192-0.025c0.421-0.054,0.874-0.114,1.34-0.18c0.083-0.012,0.165-0.023,0.247-0.035
					c0.113-0.016,0.225-0.03,0.33-0.045l0.311-0.049c0.068-0.011,0.136-0.021,0.203-0.031c0.035-0.005,0.069-0.01,0.104-0.016
					c0.504-0.076,0.994-0.154,1.431-0.229c0.809-0.14,1.284-0.227,1.866-0.349c0.025-0.004,0.051-0.009,0.076-0.014l0.137-0.03
					c0.496-0.101,0.976-0.207,1.441-0.315c0.046-0.01,0.088-0.02,0.136-0.03c0.009-0.002,0.404-0.091,0.995-0.248
					c0.004-0.001,0.008-0.002,0.012-0.003c0.174-0.046,0.364-0.098,0.566-0.155c0.498-0.14,0.971-0.284,1.417-0.434l0.019-0.006
					c0.004-0.001,0.009-0.003,0.013-0.005c0.104-0.034,0.204-0.07,0.305-0.105c0.128-0.045,0.255-0.09,0.382-0.138
					c0.043-0.017,0.088-0.032,0.131-0.049c0.188-0.071,0.373-0.146,0.553-0.221c0.296-0.126,0.691-0.298,0.973-0.452
					c0.046-0.025,0.088-0.049,0.131-0.072c0.194-0.104,0.375-0.209,0.541-0.313c0.128-0.078,0.235-0.15,0.34-0.227
					c0.023-0.017,0.049-0.033,0.072-0.051c0.023-0.015,0.049-0.032,0.071-0.047c0.158-0.104,0.325-0.254,0.481-0.411l0.059-0.05
					c0.133-0.122,0.215-0.214,0.311-0.348c0.002-0.002,0.004-0.004,0.006-0.006c0.176-0.202,0.359-0.516,0.437-0.781l0,0
					l0.001-0.001c0.003-0.013,0.01-0.027,0.014-0.04c0.003-0.015,0.006-0.027,0.01-0.041l0.012-0.029
					c-0.003,0.008-0.007,0.015-0.01,0.022c0.002-0.007,0.003-0.015,0.005-0.021c0.024-0.084,0.046-0.174,0.063-0.27l0.012-0.047
					c-0.002,0.007-0.005,0.013-0.007,0.02c0.004-0.021,0.009-0.04,0.013-0.062C171.757,209.526,171.762,209.425,171.755,209.313z"/>
				<path fill="#078D9B" d="M101.556,207.387c0-0.002,0-0.004,0-0.006c0.001-0.008,0.002-0.015,0.003-0.021
					C101.558,207.368,101.556,207.378,101.556,207.387z"/>
				<path fill="#078D9B" d="M101.578,207.205c0,0,0-0.001,0-0.002c0.001-0.005,0.002-0.011,0.003-0.017
					c0.005-0.02,0.014-0.039,0.02-0.059C101.593,207.154,101.584,207.18,101.578,207.205z"/>
				<path fill="#078D9B" d="M101.636,207.852c-0.003-0.009-0.006-0.017-0.009-0.025c0.007,0.017,0.015,0.034,0.021,0.051
					C101.645,207.868,101.64,207.86,101.636,207.852z"/>
				<path fill="#078D9B" d="M101.749,208.077c-0.007-0.012-0.015-0.023-0.021-0.035c-0.002-0.005-0.004-0.011-0.008-0.016
					c0.003,0.004,0.006,0.009,0.009,0.014c0.008,0.014,0.016,0.028,0.024,0.042C101.752,208.081,101.751,208.079,101.749,208.077z"
					/>
				<path fill="#078D9B" d="M102.034,208.444c-0.005-0.006-0.01-0.011-0.014-0.017c0.002,0.003,0.005,0.006,0.008,0.009
					c0.005,0.005,0.009,0.01,0.014,0.015C102.039,208.449,102.036,208.446,102.034,208.444z"/>
				<path fill="#078D9B" d="M102.146,208.553c0.002,0.001,0.004,0.003,0.006,0.005c0.004,0.005,0.008,0.009,0.012,0.013
					C102.157,208.564,102.151,208.559,102.146,208.553z"/>
				<path fill="#078D9B" d="M102.17,208.576c0.007,0.007,0.016,0.013,0.022,0.02c0.001,0.001,0.002,0.002,0.003,0.002
					c0.003,0.003,0.006,0.006,0.009,0.009C102.192,208.597,102.181,208.587,102.17,208.576z"/>
				<path fill="#078D9B" d="M102.47,208.822c0.001,0.001,0.002,0.002,0.004,0.003c0.022,0.018,0.045,0.034,0.068,0.051
					C102.517,208.858,102.493,208.841,102.47,208.822z"/>
				<path fill="#078D9B" d="M102.688,208.978c0.002,0.002,0.006,0.004,0.008,0.006c0.013,0.008,0.024,0.017,0.037,0.025
					C102.718,208.998,102.704,208.987,102.688,208.978z"/>
				<path fill="#078D9B" d="M102.935,209.136c0.006,0.003,0.013,0.007,0.019,0.01c0.002,0.002,0.003,0.002,0.005,0.004
					C102.95,209.145,102.942,209.14,102.935,209.136z"/>
				<path fill="#078D9B" d="M103.165,209.269c0.003,0.002,0.006,0.003,0.009,0.005c0.006,0.003,0.011,0.006,0.017,0.009
					C103.182,209.278,103.174,209.273,103.165,209.269z"/>
				<path fill="#078D9B" d="M103.423,209.406c0.007,0.004,0.014,0.007,0.02,0.01c0.007,0.003,0.013,0.007,0.019,0.01
					C103.448,209.42,103.437,209.413,103.423,209.406z"/>
				<path fill="#078D9B" d="M103.696,209.542c0.007,0.003,0.014,0.006,0.021,0.009c0.009,0.005,0.017,0.009,0.026,0.014
					C103.728,209.557,103.712,209.55,103.696,209.542z"/>
				<path fill="#078D9B" d="M104.022,209.691c-0.026-0.011-0.051-0.022-0.076-0.034c0.01,0.004,0.021,0.009,0.03,0.014
					c0.026,0.012,0.052,0.023,0.077,0.035C104.044,209.701,104.032,209.696,104.022,209.691z"/>
				<path fill="#078D9B" d="M104.277,209.801c0.005,0.002,0.01,0.004,0.015,0.006c0.025,0.011,0.049,0.021,0.074,0.031
					C104.336,209.825,104.307,209.813,104.277,209.801z"/>
				<path fill="#078D9B" d="M104.648,209.951c0.003,0.001,0.007,0.003,0.011,0.004c0.013,0.005,0.023,0.01,0.036,0.015
					C104.68,209.964,104.664,209.957,104.648,209.951z"/>
				<path fill="#078D9B" d="M123.843,194.649c-0.007,0.011-0.014,0.021-0.021,0.031c-0.001,0.002-0.003,0.004-0.004,0.006
					c0.004-0.006,0.007-0.013,0.011-0.019c0.007-0.011,0.015-0.021,0.022-0.031C123.849,194.642,123.846,194.646,123.843,194.649z"
					/>
				<path fill="#078D9B" d="M150.675,212.98c0.24-0.021,0.479-0.042,0.715-0.063c0.005,0,0.01-0.001,0.014-0.001
					C151.163,212.938,150.92,212.96,150.675,212.98z"/>
				<path fill="#078D9B" d="M151.981,212.863c0.01-0.001,0.019-0.001,0.028-0.003c-0.005,0.001-0.009,0.001-0.013,0.002
					C151.992,212.862,151.987,212.863,151.981,212.863z"/>
				<path fill="#078D9B" d="M152.981,212.767c-0.059,0.006-0.118,0.011-0.178,0.017c0.065-0.006,0.13-0.013,0.193-0.019
					C152.992,212.765,152.986,212.766,152.981,212.767z"/>
				<path fill="#078D9B" d="M153.976,212.66c-0.288,0.032-0.579,0.063-0.874,0.094c-0.02,0.002-0.039,0.004-0.06,0.006
					c0.322-0.033,0.639-0.067,0.953-0.102C153.988,212.659,153.981,212.659,153.976,212.66z"/>
				<path fill="#078D9B" d="M155.181,212.521c-0.279,0.034-0.564,0.066-0.851,0.099c0.289-0.032,0.576-0.065,0.858-0.1
					C155.186,212.521,155.183,212.521,155.181,212.521z"/>
				<path fill="#078D9B" d="M169.54,208.293c0.01-0.015,0.016-0.028,0.024-0.042c0.001-0.002,0.004-0.005,0.006-0.007
					C169.561,208.261,169.551,208.276,169.54,208.293z"/>
				<path fill="#078D9B" d="M169.752,207.397c-0.001-0.009-0.003-0.018-0.005-0.026c0.003,0.014,0.007,0.027,0.009,0.041
					C169.755,207.407,169.753,207.402,169.752,207.397z"/>
				<polygon fill="#078D9B" points="170.237,206.808 170.24,206.811 170.241,206.811 				"/>
			</g>
		</g>
		<path fill="#C68A36" d="M141.224,191.255c0,0-0.362,0.774-5.513,0.774c-4.643,0-5.39-0.774-5.39-0.774V87.38h10.902V191.255z"/>
		<path fill="#078D9B" d="M195.519,96.646c-5.454-1.08-24.333,4.015-35.881,1.024c-11.547-2.991-22.092-14.372-22.092-14.372
			s-15.289,2.635-26.278-2.005c-10.988-4.64-22.89-20.156-27.879-22.612c-3.127-1.539-11.451-3.724-14.147,3.787
			c6.16-2.815,10.693-0.82,15.025,3.119c4.397,3.999,10.823,21.415,24.703,26.109c8.66,2.928,23.923,5.344,23.923,5.344
			s13.592,7.354,22.249,10.289c13.878,4.703,29.563-5.227,35.483-5.73c5.837-0.498,10.648,0.672,13.831,6.65
			C206.878,100.646,198.937,97.323,195.519,96.646z"/>
		<path fill="#F3715A" d="M151.822,87.024c0.419-1.412-0.851-2.889-2.854-3.189c-8.721-1.315-17.668-1.315-26.39,0
			c-2.015,0.303-3.288,1.793-2.85,3.212c0.001,0.001,0.001,0.002,0.001,0.003c0.015,8.461,7.211,15.316,16.087,15.316
			c8.885,0,16.087-6.869,16.087-15.342H151.822z"/>
		
			<radialGradient id="SVGID_1_" cx="135.7578" cy="85.8916" r="21.1356" gradientTransform="matrix(1 5.944242e-004 -1.313089e-004 0.2209 0.0113 66.8374)" gradientUnits="userSpaceOnUse">
			<stop  offset="0" style="stop-color:#FFFFFF"/>
			<stop  offset="0.3726" style="stop-color:#FDFDFD"/>
			<stop  offset="0.5069" style="stop-color:#F6F6F6"/>
			<stop  offset="0.6026" style="stop-color:#EBEBEB"/>
			<stop  offset="0.68" style="stop-color:#DADADA"/>
			<stop  offset="0.7463" style="stop-color:#C4C4C4"/>
			<stop  offset="0.805" style="stop-color:#A8A8A8"/>
			<stop  offset="0.8581" style="stop-color:#888888"/>
			<stop  offset="0.9069" style="stop-color:#626262"/>
			<stop  offset="0.9523" style="stop-color:#373737"/>
			<stop  offset="0.9926" style="stop-color:#090909"/>
			<stop  offset="1" style="stop-color:#000000"/>
		</radialGradient>
		<path fill="url(#SVGID_1_)" d="M150.937,88.185l-0.077,0.005h-0.006l0.002-0.006c0.157-0.708-0.11-1.43-0.575-1.926
			c-0.466-0.506-1.102-0.83-1.764-0.97c-0.324-0.073-0.686-0.1-1.041-0.147l-1.064-0.118c-0.709-0.075-1.418-0.147-2.129-0.209
			c-1.422-0.113-2.843-0.225-4.267-0.276c-1.423-0.065-2.847-0.1-4.271-0.093c-1.424-0.006-2.848,0.028-4.271,0.094
			c-1.424,0.053-2.846,0.164-4.268,0.278c-0.71,0.061-1.42,0.135-2.129,0.209l-1.064,0.118c-0.35,0.047-0.724,0.075-1.039,0.148
			c-0.662,0.145-1.295,0.474-1.758,0.983c-0.463,0.501-0.721,1.228-0.555,1.935c-0.122-0.337-0.154-0.713-0.086-1.077
			c0.068-0.363,0.232-0.709,0.453-1.009c0.447-0.605,1.118-1.021,1.835-1.244c0.376-0.115,0.719-0.156,1.074-0.229l1.062-0.189
			c0.709-0.123,1.421-0.221,2.134-0.319c1.425-0.195,2.859-0.324,4.295-0.426c1.437-0.093,2.876-0.132,4.316-0.143
			c1.439,0.011,2.88,0.049,4.316,0.142c1.437,0.101,2.87,0.229,4.296,0.423c0.713,0.1,1.425,0.196,2.133,0.318l1.063,0.188
			c0.35,0.072,0.704,0.117,1.073,0.227c0.719,0.218,1.393,0.629,1.847,1.229c0.224,0.299,0.391,0.644,0.465,1.007
			c0.072,0.362,0.046,0.74-0.072,1.08l-0.005-0.006L150.937,88.185z"/>
	</g>
</g>
</svg>
