<?xml version="1.0" encoding="utf-8"?>
<!-- Generator: Adobe Illustrator 16.0.0, SVG Export Plug-In . SVG Version: 6.00 Build 0)  -->
<!DOCTYPE svg PUBLIC "-//W3C//DTD SVG 1.1//EN" "http://www.w3.org/Graphics/SVG/1.1/DTD/svg11.dtd">
<svg version="1.1" id="Layer_1" xmlns="http://www.w3.org/2000/svg" xmlns:xlink="http://www.w3.org/1999/xlink" x="0px" y="0px"
	 width="273px" height="273px" viewBox="0 0 273 273" enable-background="new 0 0 273 273" xml:space="preserve">
<g>
	<circle fill="#DCDBDB" cx="136.5" cy="136.5" r="136.642"/>
	<g>
		<defs>
			<circle id="SVGID_1_" cx="136.5" cy="136.5" r="119.135"/>
		</defs>
		<clipPath id="SVGID_2_">
			<use xlink:href="#SVGID_1_"  overflow="visible"/>
		</clipPath>
		<g clip-path="url(#SVGID_2_)">
			<path fill="#D1AE89" d="M110.055,210.81c0,0,2.813,2.3,5.283,0.767c2.473-1.534,0.938-5.199,0.938-5.199s3.664,2.131,5.881-0.682
				c2.216-2.813-0.341-5.797-3.325-10.143c-2.982-4.348-13.637-19.774-18.664-21.138c-5.029-1.365-9.205,1.96-13.893,5.199
				c-4.688,3.238,1.447,23.95,8.011,24.802C100.85,205.269,110.055,210.81,110.055,210.81z"/>
			<g>
				<path fill="#D2D3D4" d="M151.535,107.644h-43.568c-2.191,0-3.965,2.207-3.965,4.933v80.749v6.835
					c0,2.727,1.773,4.936,3.965,4.936h43.568c2.189,0,3.959-2.209,3.959-4.936v-6.835v-80.749
					C155.494,109.851,153.725,107.644,151.535,107.644z M152.906,190.371h-46.684v-71.339h46.684V190.371z"/>
				<g>
					<path opacity="0.8" fill="#595A5C" d="M151.535,107.644h-43.568c-2.191,0-3.965,2.207-3.965,4.933v80.749v6.835
						c0,2.727,1.773,4.936,3.965,4.936h43.568c2.189,0,3.959-2.209,3.959-4.936v-6.835v-80.749
						C155.494,109.851,153.725,107.644,151.535,107.644z M152.906,190.371h-46.684v-71.339h46.684V190.371z"/>
					<path fill="#FFFFFF" d="M134.125,197.427c0-2.413-1.964-4.373-4.378-4.373c-2.417,0-4.376,1.96-4.376,4.373
						c0,2.423,1.959,4.383,4.376,4.383C132.161,201.81,134.125,199.85,134.125,197.427z"/>
				</g>
			</g>
			<rect x="106.223" y="119.032" fill="#FFFFFF" width="46.684" height="71.339"/>
			<path fill="#F1CBA5" d="M154.803,214.998c0,0,3.567,0.845-0.936-21.877c-1.287-6.497-9.648-30.266-7.947-34.799
				c1.697-4.535,5.885-4.646,9.06,4.08c3.173,8.728,8.952,25.617,8.952,25.617s3.738-3.739,8.047-0.452
				c4.305,3.288,3.022,4.83,7.896,6.076c4.875,1.249,5.16-2.085,10.124,4.126c3.054,3.82,6.803-0.342,8.616,7.593
				c1.812,7.934-0.455,12.357,0.11,23.581c0.568,11.221,2.608,15.045,2.608,15.045l12.696,14.465h-41.208
				c0,0-3.681-5.053-12.975-15.934c-9.295-10.887-12.242-9.682-16.096-21.695c-3.855-12.018-4.536-9.033-5.442-16.745
				c-0.907-7.708-5.667-6.781-1.362-9.502c4.31-2.72,11.337,1.823,12.924,7.943C151.458,208.643,152.479,211.596,154.803,214.998z"
				/>
			<path fill="#F1CBA5" d="M97.627,233.993c0,0,8.056-6.903,11.508-16.11c3.451-9.205,5.496-13.551,13.168-20.712
				c7.67-7.158,14.447-14.147,14.189-18.665c-0.254-4.518-7.584-6.392-12.953-1.875c-5.371,4.519-24.378,22.331-24.378,22.331
				s-0.17-1.449-1.576-1.407c-1.407,0.043-4.858,0.682-4.858-0.254c0-0.938,4.049-1.79,6.265-1.322
				c2.216,0.469-7.245-8.459-12.167-9.291c0,0,1.534-0.575,3.964,0.512c2.429,1.087,4.091,2.43,5.369,1.087s2.429-3.836,0.256-5.88
				c-2.175-2.047-2.94-3.07-2.94-3.07s0.703-0.254,1.471,0.513c0.766,0.767,6.328,1.919,9.076-0.513v-13.614
				c0,0-11.506,5.454-17.983,8.182c-6.479,2.728-10.399,5.454-11.251,16.876c-0.852,11.421-3.75,28.808-12.103,44.662
				l-17.559,23.012h42.958c0,0,3.066-15.852,9.374-23.863"/>
			<path fill="#FBE1CD" d="M124.289,179.951c0,0,4.869,2.528,6.273,5.524c0,0,5.15-5.056,4.588-7.304
				C134.59,175.924,130.095,171.336,124.289,179.951z"/>
			<path fill="#FBE1CD" d="M138.288,203.568c0,0,4.565,0,4.269-2.184c-0.298-2.184-5.658-7.146-6.451-6.748
				c-0.794,0.396-1.787,0.693-1.092,1.984C135.707,197.911,137.494,201.385,138.288,203.568z"/>
			<path fill="#FBE1CD" d="M147.982,162.579c0,0,2.447-1.324,5.227-1.125c0,0-1.522-5.559-3.705-5.559
				C147.32,155.896,146.592,157.153,147.982,162.579z"/>
			<path opacity="0.6" fill="#D1AE89" d="M113.836,187.451c0,0,5.528,1.981,7.615,7.614
				C121.451,195.065,120.929,187.763,113.836,187.451z"/>
			<path opacity="0.6" fill="#D1AE89" d="M119.938,196.903c0,0-5.862-2.024-8.132-7.944
				C111.807,188.959,112.445,196.66,119.938,196.903z"/>
			<path opacity="0.6" fill="#D1AE89" d="M150.588,177.227c0,0,3.246-2.895,7.647-2.26
				C158.235,174.967,153.301,172.723,150.588,177.227z"/>
			<path opacity="0.6" fill="#D1AE89" d="M158.896,176.602c0,0-3.39,3.096-8.045,2.48
				C150.851,179.082,156.088,181.39,158.896,176.602z"/>
			<g>
				<path fill="#4B4B4D" d="M130.561,56.512v43.548c0,7.612,6.443,13.839,12.873,14.457v18.212l28.734-14.35h28.279
					c9.613,0,20.248-10.299,20.248-18.319V56.512c0-8.018-10.635-15.383-20.248-15.383h-52.162
					C138.684,41.129,130.561,48.494,130.561,56.512z M155.025,97.608c0-2.751,2.223-4.981,4.973-4.981h37.686
					c2.752,0,4.985,2.23,4.985,4.981v0.348c0,2.742-2.233,4.97-4.985,4.97h-37.686c-2.75,0-4.973-2.228-4.973-4.97V97.608z
					 M142.155,82.155c0-2.747,2.215-4.979,4.962-4.979h50.566c2.752,0,4.985,2.231,4.985,4.979V82.5
					c0,2.751-2.233,4.979-4.985,4.979h-50.566c-2.747,0-4.962-2.229-4.962-4.979V82.155z M142.155,61.548
					c0-2.745,2.215-4.973,4.962-4.973h50.566c2.752,0,4.985,2.228,4.985,4.973v0.354c0,2.752-2.233,4.973-4.985,4.973h-50.566
					c-2.747,0-4.962-2.221-4.962-4.973V61.548z"/>
			</g>
		</g>
	</g>
</g>
</svg>
