<?xml version="1.0" encoding="utf-8"?>
<!-- Generator: Adobe Illustrator 16.0.0, SVG Export Plug-In . SVG Version: 6.00 Build 0)  -->
<!DOCTYPE svg PUBLIC "-//W3C//DTD SVG 1.1//EN" "http://www.w3.org/Graphics/SVG/1.1/DTD/svg11.dtd">
<svg version="1.1" id="Layer_1" xmlns="http://www.w3.org/2000/svg" xmlns:xlink="http://www.w3.org/1999/xlink" x="0px" y="0px"
	 width="273px" height="273px" viewBox="0 0 273 273" enable-background="new 0 0 273 273" xml:space="preserve">
<g>
	<circle fill="#E64C3C" cx="136.5" cy="136.5" r="136.642"/>
	<g>
		<g>
			<path fill="#FCF4E8" d="M207.833,223.979c0,7.418-7.666,13.434-17.121,13.434H89.055c-9.455,0-17.122-6.016-17.122-13.434V56.913
				c0-7.418,7.667-13.432,17.122-13.432h101.657c9.455,0,17.121,6.014,17.121,13.432V223.979z"/>
			<g>
				<path fill="#6BAEB4" d="M185.172,53.083c6.797,0,12.327,4.269,12.327,9.517v155.692c0,5.249-5.53,9.52-12.327,9.52H94.161
					c-6.798,0-12.328-4.271-12.328-9.52V62.6c0-5.248,5.53-9.517,12.328-9.517H185.172 M185.172,50.083H94.161
					c-8.465,0-15.328,5.604-15.328,12.517v155.692c0,6.913,6.863,12.52,15.328,12.52h91.011c8.465,0,15.327-5.606,15.327-12.52V62.6
					C200.499,55.687,193.637,50.083,185.172,50.083L185.172,50.083z"/>
			</g>
			<g>
				<line fill="none" stroke="#F7A9AE" stroke-miterlimit="10" x1="85.909" y1="104.759" x2="191.424" y2="104.759"/>
				<line fill="none" stroke="#F7A9AE" stroke-miterlimit="10" x1="85.909" y1="117.238" x2="191.424" y2="117.238"/>
				<line fill="none" stroke="#F7A9AE" stroke-miterlimit="10" x1="85.909" y1="129.718" x2="191.424" y2="129.718"/>
				<line fill="none" stroke="#F7A9AE" stroke-miterlimit="10" x1="85.909" y1="142.197" x2="191.424" y2="142.197"/>
				<line fill="none" stroke="#F7A9AE" stroke-miterlimit="10" x1="85.909" y1="154.677" x2="191.424" y2="154.677"/>
			</g>
			<g>
				<line fill="none" stroke="#F7A9AE" stroke-miterlimit="10" x1="86.075" y1="165.733" x2="191.591" y2="165.733"/>
				<line fill="none" stroke="#F7A9AE" stroke-miterlimit="10" x1="86.075" y1="178.213" x2="191.591" y2="178.213"/>
				<line fill="none" stroke="#F7A9AE" stroke-miterlimit="10" x1="86.076" y1="190.692" x2="191.591" y2="190.692"/>
				<line fill="none" stroke="#F7A9AE" stroke-miterlimit="10" x1="86.075" y1="203.172" x2="191.591" y2="203.172"/>
				<line fill="none" stroke="#F7A9AE" stroke-miterlimit="10" x1="86.076" y1="215.651" x2="191.591" y2="215.651"/>
			</g>
		</g>
		<g>
			<path opacity="0.66" fill="#7CCFDB" d="M154.423,158.655c20.126-25.128,0.112-46.689-16.121-46.689
				c-18.12,0-36.689,21.673-16.899,47.47c2.559,4.444,2.781,9.114,2.781,9.559c0.776,6.891,4.225,6.891,12.451,7.671
				c11.34,0.003,13.454-2.557,14.789-10.561C152.088,161.214,154.023,159.161,154.423,158.655"/>
			<path fill="#B2B2B2" d="M129.072,190.339c0.777,0.668,6.559,4.671,6.559,4.671c1.002,0.864,2.56,0.669,4.672-0.448
				c0.668-0.219,5.451-2.349,6.338-3.997c0.076-0.15-0.055-0.511,0-0.668c0.121-0.377,0.867-0.852,0.998-1.223c0.168-0.476,0-2,0-2
				s0.577-1.4,0.557-1.892c-0.016-0.388-0.557-1.444-0.557-1.444s0.565-0.889,0.557-1.225c-0.008-0.302-0.519-0.767-0.557-1.066
				c-0.055-0.447,0.487-1.27,0.557-1.716c0.107-0.655,0.412-4.984,0.412-4.984c-8.305,4.209-21.42,0-21.42,0l1.105,4.32
				c0,0-1.666,1.11-0.332,2.893c0.332,0.661-2.002,1.441,0.113,3.389c-0.974,1.057-0.895,0.834,0.109,2.055
				C127.737,187.895,126.928,188.762,129.072,190.339"/>
			<path fill="#ECECEC" d="M145.786,190.132c-2.427,1.226-5.081,2.146-7.864,2.306c-1.385,0.068-2.789-0.021-4.134-0.364
				c-1.347-0.326-2.639-0.856-3.792-1.593c2.569,0.927,5.227,1.357,7.883,1.189c1.327-0.066,2.645-0.286,3.961-0.561
				C143.154,190.836,144.453,190.443,145.786,190.132"/>
			<path fill="#ECECEC" d="M146.957,186.995c-1.311,0.905-2.803,1.54-4.337,1.998c-1.538,0.463-3.137,0.714-4.743,0.799
				c-1.605,0.063-3.229-0.034-4.799-0.431c-1.559-0.392-3.098-1.055-4.252-2.167c1.344,0.852,2.848,1.324,4.373,1.583
				c1.53,0.249,3.091,0.324,4.643,0.243C140.951,188.87,144.037,188.242,146.957,186.995"/>
			<path fill="#ECECEC" d="M146.957,183.955c-1.129,1.152-2.712,1.728-4.236,2.163c-1.544,0.435-3.142,0.636-4.738,0.723
				c-1.598,0.063-3.207-0.005-4.786-0.313c-1.556-0.31-3.172-0.798-4.37-1.876c1.37,0.805,2.924,1.103,4.461,1.289
				c1.545,0.162,3.107,0.208,4.66,0.133c1.557-0.067,3.107-0.243,4.639-0.53C144.105,185.231,145.641,184.843,146.957,183.955"/>
			<path fill="#ECECEC" d="M146.857,181.367c-1.308,0.86-2.773,1.468-4.277,1.927c-1.507,0.459-3.072,0.724-4.65,0.83
				c-1.574,0.084-3.172,0.011-4.717-0.343c-1.543-0.347-3.059-0.94-4.287-1.922c2.804,1.401,5.918,1.661,8.961,1.493
				C140.938,183.166,143.96,182.514,146.857,181.367"/>
			<path fill="#ECECEC" d="M127.924,178.667c0.768,0.399,1.644,0.521,2.488,0.68c0.849,0.156,1.706,0.28,2.563,0.371
				c1.718,0.18,3.437,0.312,5.154,0.31c1.718,0.016,3.437-0.099,5.111-0.413c1.663-0.331,3.332-0.893,4.617-2.089
				c-1.059,1.431-2.794,2.21-4.484,2.667c-1.715,0.467-3.49,0.603-5.247,0.604c-1.76-0.017-3.514-0.17-5.238-0.496
				C131.192,179.939,129.398,179.648,127.924,178.667"/>
			<path fill="#EDF3CB" d="M134.256,174.347c0.498-2.987,0.754-6.005,0.817-9.024c0.048-3.017-0.089-6.042-0.586-9.006
				c-0.228-1.494-0.636-2.926-1.065-4.381l-1.26-4.356l-1.277-4.354l-0.661-2.167l-0.642-1.948l0.002,0.011l-0.049-0.052
				c-0.068-0.063-0.137-0.12-0.188-0.147c-0.065-0.015,0.024,0.007,0.063-0.033c0.007-0.036-0.069,0.214-0.054,0.397
				c0.01,0.403,0.116,0.84,0.287,1.21c0.174,0.37,0.456,0.663,0.674,0.603c0.256-0.031,0.586-0.358,0.827-0.702l-0.035,0.061
				c0.139-0.286,0.296-0.572,0.545-0.828c0.235-0.249,0.634-0.472,1.062-0.431c0.432,0.04,0.75,0.303,0.971,0.563
				c0.225,0.269,0.371,0.572,0.477,0.876l-0.041-0.084c0.26,0.416,0.631,0.713,0.918,0.623c0.305-0.059,0.621-0.512,0.613-0.863
				l-0.002-0.078l0.029-0.072c0.12-0.266,0.251-0.546,0.551-0.789c0.295-0.273,0.862-0.269,1.146-0.066
				c0.31,0.181,0.508,0.419,0.676,0.668c0.154,0.274,0.312,0.494,0.324,0.952l-0.013-0.118c0.049,0.277,0.464,0.497,0.904,0.526
				c0.218,0.021,0.444,0.007,0.643-0.048c0.198-0.048,0.349-0.165,0.37-0.225l-0.021,0.104c0.035-0.363,0.195-0.777,0.529-1.035
				c0.328-0.258,0.729-0.332,1.08-0.319c0.361,0.013,0.703,0.105,1.021,0.271c0.302,0.172,0.65,0.413,0.765,0.91l-0.015-0.058
				c0.134,0.473,0.748,0.632,1.35,0.508c0.594-0.108,1.196-0.448,1.48-0.924l-0.047,0.151c0.027-0.281-0.093-0.545-0.26-0.608
				c-0.152-0.078-0.387,0.019-0.578,0.263c-0.382,0.49-0.541,1.236-0.621,1.947l-0.002,0.021l-0.001,0.009
				c-0.636,2.706-1.479,5.277-2.284,7.892l-1.233,3.901l-0.61,1.947c-0.146,0.618-0.223,1.316-0.3,1.984
				c-0.274,2.702-0.45,5.427-0.594,8.146c-0.106,2.724-0.267,5.453-0.056,8.175c-0.292-2.715-0.215-5.456-0.189-8.181
				c0.053-2.73,0.147-5.462,0.396-8.185c0.068-0.688,0.125-1.355,0.277-2.066l0.586-1.971l1.165-3.919
				c0.743-2.616,1.574-5.246,2.182-7.85l-0.004,0.027c0.092-0.774,0.213-1.583,0.752-2.309c0.246-0.344,0.811-0.721,1.393-0.467
				c0.552,0.249,0.718,0.84,0.683,1.294l-0.009,0.085l-0.039,0.065c-0.451,0.733-1.191,1.11-1.953,1.272
				c-0.385,0.073-0.801,0.085-1.217-0.05c-0.415-0.124-0.817-0.489-0.951-0.928l-0.009-0.029l-0.005-0.027
				c-0.02-0.1-0.18-0.276-0.392-0.383c-0.213-0.111-0.464-0.179-0.7-0.183c-0.501-0.013-0.809,0.225-0.852,0.688l-0.004,0.064
				l-0.021,0.042c-0.199,0.43-0.563,0.577-0.857,0.668c-0.307,0.085-0.613,0.105-0.915,0.078c-0.306-0.026-0.608-0.096-0.901-0.262
				c-0.289-0.153-0.58-0.446-0.67-0.828l-0.019-0.066l0.007-0.048c0.007-0.065-0.092-0.325-0.206-0.484
				c-0.114-0.181-0.269-0.341-0.411-0.415c-0.15-0.078-0.195-0.075-0.302,0c-0.109,0.081-0.227,0.273-0.313,0.476l0.027-0.145
				c-0.004,0.376-0.133,0.702-0.329,0.98c-0.199,0.274-0.487,0.527-0.876,0.617c-0.387,0.097-0.802-0.038-1.073-0.243
				c-0.282-0.206-0.474-0.457-0.638-0.711l-0.025-0.038l-0.016-0.046c-0.148-0.466-0.488-0.921-0.809-0.939
				c-0.307-0.059-0.67,0.355-0.879,0.825l-0.016,0.036l-0.018,0.024c-0.308,0.385-0.635,0.86-1.332,0.99
				c-0.352,0.055-0.715-0.115-0.922-0.325c-0.221-0.207-0.365-0.446-0.479-0.684c-0.217-0.481-0.336-0.975-0.348-1.509
				c0.027-0.27-0.043-0.543,0.295-0.927c0.215-0.21,0.578-0.153,0.717-0.063c0.154,0.088,0.262,0.187,0.361,0.283l-0.045-0.04
				c0.255,0.271,0.176,0.278,0.252,0.4l0.105,0.276l0.188,0.545l0.347,1.09l0.653,2.179l1.236,4.371l1.19,4.38
				c0.399,1.453,0.8,2.944,1.002,4.454c0.457,3.015,0.542,6.063,0.39,9.091C135.189,168.359,134.844,171.375,134.256,174.347"/>
			<g opacity="0.5">
				<g>
					<defs>
						<rect id="SVGID_1_" x="123.283" y="118.066" width="30.046" height="13.366"/>
					</defs>
					<clipPath id="SVGID_2_">
						<use xlink:href="#SVGID_1_"  overflow="visible"/>
					</clipPath>
					<path clip-path="url(#SVGID_2_)" fill="#FBFCFC" d="M138.654,127.89c-9.449,1.087-22.589-1.703-10.537-7.9
						c9.142-2.48,17.201-4.188,23.865,5.577c2.634,4.027,1.824,8.678-6.217,3.717C142.531,127.734,140.688,128.118,138.654,127.89"
						/>
				</g>
			</g>
			<g>
				
					<line opacity="0.6" fill="none" stroke="#DD6237" stroke-width="1.3441" stroke-linecap="round" stroke-linejoin="round" stroke-miterlimit="10" x1="89.726" y1="118.088" x2="104.564" y2="124.683"/>
				
					<line opacity="0.6" fill="none" stroke="#DD6237" stroke-width="1.3441" stroke-linecap="round" stroke-linejoin="round" stroke-miterlimit="10" x1="105.479" y1="100.221" x2="115.984" y2="112.604"/>
				
					<line opacity="0.6" fill="none" stroke="#DD6237" stroke-width="1.3441" stroke-linecap="round" stroke-linejoin="round" stroke-miterlimit="10" x1="127.428" y1="90.964" x2="131.516" y2="106.681"/>
				
					<line opacity="0.6" fill="none" stroke="#DD6237" stroke-width="1.3441" stroke-linecap="round" stroke-linejoin="round" stroke-miterlimit="10" x1="151.219" y1="92.155" x2="148.078" y2="108.087"/>
				
					<line opacity="0.6" fill="none" stroke="#DD6237" stroke-width="1.3441" stroke-linecap="round" stroke-linejoin="round" stroke-miterlimit="10" x1="172.135" y1="103.556" x2="162.388" y2="116.544"/>
				
					<line opacity="0.6" fill="none" stroke="#DD6237" stroke-width="1.3441" stroke-linecap="round" stroke-linejoin="round" stroke-miterlimit="10" x1="186.026" y1="122.905" x2="171.606" y2="130.375"/>
			</g>
		</g>
		<g>
			<polygon fill="#31AC66" points="145.688,17.176 236.141,74.31 224.223,80.414 223.83,93.799 133.377,36.666 145.872,30.926 			
				"/>
			<g>
				<path fill="#FEDE5E" d="M157.738,54.145c0.035-15.346,12.548-27.801,27.894-27.767l0.006-2.854
					c-2.85-0.007-5.9-1.873-8.529-1.176c-2.721,0.72-4.441,3.875-6.824,5.248c-2.418,1.391-6.002,1.301-7.968,3.257
					c-1.962,1.953-1.89,5.541-3.294,7.951c-1.381,2.378-4.543,4.083-5.277,6.801c-0.706,2.627,1.146,5.686,1.139,8.534
					c-0.007,2.85-1.872,5.899-1.178,8.528c0.723,2.721,3.876,4.441,5.247,6.825c1.394,2.419,1.304,6.005,3.259,7.967
					c1.955,1.966,5.542,1.893,7.953,3.295c2.377,1.382,4.082,4.543,6.799,5.276c2.626,0.71,5.686-1.143,8.535-1.137l0.006-2.854
					C170.159,82.005,157.704,69.491,157.738,54.145z"/>
				<path fill="#FEDE5E" d="M158.874,54.147c-0.033,14.72,11.914,26.723,26.635,26.755l0.002-1.515
					c-13.883-0.031-25.152-11.352-25.121-25.236c0.031-13.884,11.352-25.153,25.236-25.122l0.004-1.516
					C170.908,27.48,158.907,39.429,158.874,54.147z"/>
				<path fill="#FEDE5E" d="M161.525,54.153c-0.03,13.258,10.73,24.067,23.988,24.099l0.108-48.087
					C172.365,30.135,161.556,40.896,161.525,54.153z"/>
				<path fill="#FFFFFF" d="M157.738,54.145c-0.034,15.347,12.421,27.86,27.767,27.895l0.001-0.567
					c-15.056-0.035-27.235-12.269-27.202-27.326c0.035-15.056,12.27-27.234,27.326-27.2l0.002-0.567
					C170.286,26.344,157.773,38.799,157.738,54.145z"/>
				<path fill="#FFFFFF" d="M158.874,54.147c0.033-14.719,12.034-26.667,26.756-26.634v-0.568
					c-15.057-0.034-27.291,12.145-27.326,27.2c-0.033,15.058,12.146,27.291,27.202,27.326l0.003-0.569
					C170.788,80.87,158.841,68.867,158.874,54.147z"/>
				<path fill="#FFFFFF" d="M161.525,54.153c0.03-13.257,10.84-24.019,24.097-23.988l0.004-1.136
					c-13.885-0.031-25.205,11.238-25.236,25.122c-0.031,13.885,11.238,25.205,25.121,25.236l0.003-1.136
					C172.256,78.221,161.495,67.411,161.525,54.153z"/>
				<path fill="#E4B92C" d="M194.027,86.069c2.722-0.721,4.441-3.874,6.825-5.247c2.416-1.391,6.002-1.301,7.967-3.258
					c1.963-1.953,1.892-5.54,3.295-7.951c1.381-2.378,4.543-4.083,5.277-6.801c0.707-2.626-1.144-5.686-1.139-8.534
					c0.007-2.85,1.873-5.898,1.174-8.529c-0.719-2.72-3.872-4.44-5.243-6.824c-1.392-2.417-1.303-6.004-3.259-7.968
					c-1.955-1.964-5.541-1.891-7.951-3.293c-2.379-1.383-4.085-4.546-6.802-5.279c-2.625-0.707-5.685,1.146-8.534,1.139l0,0
					l-0.006,2.854c15.345,0.035,27.803,12.548,27.768,27.894s-12.549,27.802-27.895,27.768l-0.006,2.854l0,0
					C188.348,84.899,191.399,86.767,194.027,86.069z"/>
				<path fill="#E4B92C" d="M209.611,54.262c0.03-13.255-10.73-24.068-23.989-24.097l-0.108,48.087
					C198.772,78.281,209.581,67.52,209.611,54.262z"/>
				<path fill="#E4B92C" d="M210.748,54.265c-0.031,13.886-11.354,25.155-25.237,25.123l-0.002,1.515
					c14.718,0.034,26.721-11.914,26.754-26.635c0.033-14.717-11.914-26.72-26.633-26.754l-0.004,1.516
					C199.509,29.061,210.779,40.383,210.748,54.265z"/>
				<path fill="#C7C6C6" d="M212.831,54.27c-0.034,15.058-12.268,27.236-27.325,27.202l-0.001,0.567
					c15.346,0.034,27.859-12.422,27.895-27.768s-12.423-27.858-27.768-27.894l-0.002,0.567
					C200.688,26.979,212.864,39.214,212.831,54.27z"/>
				<path fill="#C7C6C6" d="M212.831,54.27c0.033-15.056-12.144-27.291-27.201-27.324v0.568
					c14.719,0.034,26.666,12.037,26.633,26.754c-0.033,14.721-12.036,26.669-26.754,26.635l-0.003,0.569
					C200.563,81.506,212.797,69.327,212.831,54.27z"/>
				<path fill="#C7C6C6" d="M210.748,54.265c0.031-13.882-11.239-25.204-25.122-25.235l-0.004,1.136
					c13.259,0.028,24.02,10.842,23.989,24.097c-0.03,13.258-10.839,24.02-24.098,23.99l-0.003,1.136
					C199.394,79.42,210.717,68.15,210.748,54.265z"/>
			</g>
		</g>
	</g>
</g>
</svg>
