<?xml version="1.0" encoding="utf-8"?>
<!-- Generator: Adobe Illustrator 16.0.0, SVG Export Plug-In . SVG Version: 6.00 Build 0)  -->
<!DOCTYPE svg PUBLIC "-//W3C//DTD SVG 1.1//EN" "http://www.w3.org/Graphics/SVG/1.1/DTD/svg11.dtd">
<svg version="1.1" id="Layer_1" xmlns="http://www.w3.org/2000/svg" xmlns:xlink="http://www.w3.org/1999/xlink" x="0px" y="0px"
	 width="273px" height="273px" viewBox="0 0 273 273" enable-background="new 0 0 273 273" xml:space="preserve">
<g>
	<circle fill="#78C1AD" cx="136.5" cy="136.501" r="136.642"/>
	<g>
		<circle fill="#ECEAD1" cx="135.786" cy="58.296" r="22.438"/>
		<path fill="#ECEAD1" d="M144.553,103.997h5.598c1.801,0,3.377,1.034,4.115,2.604c11.109,4.272,13.738,17.874,14.265,26.405h12.142
			c-5.289-24.553-19.141-44.545-38.987-51.089l-5.591,5.626l-5.419-5.687c-0.021,0.005-0.035,0.005-0.058,0.009
			c-2.771,0.666-31.938,13.591-38.285,51.139h17.893c0.912-3.802,1.879-7.139,2.904-10.039v10.039h48.216
			c0.128-5.59-1.891-10.908-2.233-11.766c0.07,0.186-2.811-6.594-7.496-8.378c-0.477,0.167-0.966,0.247-1.465,0.247h-5.598
			c-2.512,0-4.558-2.044-4.558-4.557C139.994,106.039,142.039,103.997,144.553,103.997z M141.559,124.547l-5.412,7.405h-0.105
			l-5.408-7.405l5.408-36.17h0.105L141.559,124.547z"/>
		<rect x="83.18" y="135.382" fill="#ECEAD1" width="106.641" height="11.615"/>
		<polygon fill="#ECEAD1" points="99.333,237.142 173.667,237.142 181.044,149.638 91.957,149.638 		"/>
	</g>
</g>
</svg>
