<?xml version="1.0" encoding="utf-8"?>
<!-- Generator: Adobe Illustrator 16.0.0, SVG Export Plug-In . SVG Version: 6.00 Build 0)  -->
<!DOCTYPE svg PUBLIC "-//W3C//DTD SVG 1.1//EN" "http://www.w3.org/Graphics/SVG/1.1/DTD/svg11.dtd">
<svg version="1.1" id="Layer_1" xmlns="http://www.w3.org/2000/svg" xmlns:xlink="http://www.w3.org/1999/xlink" x="0px" y="0px"
	 width="273px" height="273px" viewBox="0 0 273 273" enable-background="new 0 0 273 273" xml:space="preserve">
<g>
	<circle fill="#7DC9F0" cx="136.501" cy="136.501" r="136.642"/>
	<g>
		<g>
			<polygon fill="#EEF2F0" points="90.675,47.825 90.675,47.843 90.675,225.173 141.264,225.173 180.066,225.173 180.066,197.849 
				207.391,197.849 207.391,47.825 			"/>
			<polygon fill="#E0E0E0" points="180.066,225.173 193.729,211.511 207.391,197.849 180.066,197.849 			"/>
			<path fill="#74B043" d="M81.919,47.843c-9.137,0-16.537,7.402-16.537,16.539v144.252c0,9.135,7.4,16.539,16.537,16.539h8.756
				V47.843H81.919z M78.029,211.642c-3.459,0-6.264-2.801-6.264-6.262c0-3.459,2.805-6.262,6.264-6.262
				c3.455,0,6.26,2.803,6.26,6.262C84.289,208.841,81.484,211.642,78.029,211.642z M78.029,165.728
				c-3.459,0-6.264-2.805-6.264-6.262c0-3.459,2.805-6.262,6.264-6.262c3.455,0,6.26,2.803,6.26,6.262
				C84.289,162.923,81.484,165.728,78.029,165.728z M78.029,119.813c-3.459,0-6.264-2.805-6.264-6.264
				c0-3.457,2.805-6.26,6.264-6.26c3.455,0,6.26,2.803,6.26,6.26C84.289,117.009,81.484,119.813,78.029,119.813z M78.029,73.896
				c-3.459,0-6.264-2.801-6.264-6.26s2.805-6.26,6.264-6.26c3.455,0,6.26,2.801,6.26,6.26S81.484,73.896,78.029,73.896z"/>
			<g>
				<path fill="#C6C9C8" d="M80.787,67.884c0,2.322-1.883,4.207-4.209,4.207H63.433c-2.324,0-4.209-1.885-4.209-4.207l0,0
					c0-2.324,1.885-4.207,4.209-4.207h13.145C78.904,63.677,80.787,65.56,80.787,67.884L80.787,67.884z"/>
				<path opacity="0.28" fill="#C6C9C8" d="M80.787,67.884L80.787,67.884c0,2.322-1.883,4.207-4.209,4.207H63.433
					c-2.324,0-4.209-1.885-4.209-4.207l0,0H80.787z"/>
			</g>
			<g>
				<path fill="#C6C9C8" d="M80.787,113.698c0,2.322-1.883,4.205-4.209,4.205H63.433c-2.324,0-4.209-1.883-4.209-4.205l0,0
					c0-2.326,1.885-4.209,4.209-4.209h13.145C78.904,109.489,80.787,111.372,80.787,113.698L80.787,113.698z"/>
				<path opacity="0.28" fill="#C6C9C8" d="M80.787,113.698L80.787,113.698c0,2.322-1.883,4.205-4.209,4.205H63.433
					c-2.324,0-4.209-1.883-4.209-4.205l0,0H80.787z"/>
			</g>
			<g>
				<path fill="#C6C9C8" d="M80.787,160.034c0,2.326-1.883,4.209-4.209,4.209H63.433c-2.324,0-4.209-1.883-4.209-4.209l0,0
					c0-2.322,1.885-4.205,4.209-4.205h13.145C78.904,155.829,80.787,157.712,80.787,160.034L80.787,160.034z"/>
				<path opacity="0.28" fill="#C6C9C8" d="M80.787,160.034L80.787,160.034c0,2.326-1.883,4.209-4.209,4.209H63.433
					c-2.324,0-4.209-1.883-4.209-4.209l0,0H80.787z"/>
			</g>
			<g>
				<path fill="#C6C9C8" d="M80.787,205.474c0,2.324-1.883,4.207-4.209,4.207H63.433c-2.324,0-4.209-1.883-4.209-4.207l0,0
					c0-2.322,1.885-4.207,4.209-4.207h13.145C78.904,201.267,80.787,203.151,80.787,205.474L80.787,205.474z"/>
				<path opacity="0.28" fill="#C6C9C8" d="M80.787,205.474L80.787,205.474c0,2.324-1.883,4.207-4.209,4.207H63.433
					c-2.324,0-4.209-1.883-4.209-4.207l0,0H80.787z"/>
			</g>
			<rect x="100.615" y="72.091" fill="#8C8C8C" width="96.836" height="4.207"/>
			<rect x="100.615" y="86.935" fill="#8C8C8C" width="96.836" height="4.207"/>
			<rect x="100.615" y="101.772" fill="#8C8C8C" width="96.836" height="4.209"/>
			<rect x="100.615" y="116.616" fill="#8C8C8C" width="96.836" height="4.205"/>
			<rect x="100.615" y="131.456" fill="#8C8C8C" width="96.836" height="4.207"/>
			<rect x="100.615" y="146.298" fill="#8C8C8C" width="96.836" height="4.207"/>
			<rect x="100.615" y="161.14" fill="#8C8C8C" width="96.836" height="4.207"/>
			<rect x="100.615" y="175.981" fill="#8C8C8C" width="96.836" height="4.205"/>
		</g>
		<polygon opacity="0.11" fill="#1D1D1B" points="207.391,138.177 186.703,117.782 173.09,114.999 166.361,113.626 166.338,113.601 
			166.344,113.622 166.322,113.616 167.707,120.384 170.486,133.997 207.391,171.849 		"/>
		<g>
			<g>
				
					<rect x="198.004" y="108.511" transform="matrix(0.7071 -0.7071 0.7071 0.7071 -43.5728 191.5813)" fill="#F04B45" width="22.937" height="79.754"/>
				
					<rect x="215.424" y="163.733" transform="matrix(0.7072 -0.707 0.707 0.7072 -50.7942 208.9664)" fill="#FFF19F" width="22.934" height="4.149"/>
				<polygon fill="#FFF19F" points="173.166,128.3 189.383,112.081 175.77,109.302 170.387,114.685 				"/>
				<polygon fill="#1D1D1B" points="170.387,114.685 175.77,109.302 169.002,107.917 				"/>
			</g>
			<g opacity="0.28">
				
					<rect x="223.243" y="169.387" transform="matrix(0.7072 -0.707 0.707 0.7072 -57.3675 213.4164)" fill="#F04B45" width="11.467" height="13.164"/>
				<polygon fill="#F04B45" points="181.289,120.175 225.439,164.325 217.33,172.431 173.18,128.28 				"/>
				
					<rect x="217.119" y="167.768" transform="matrix(0.7071 -0.7071 0.7071 0.7071 -54.826 207.3276)" fill="#FFF19F" width="11.468" height="4.154"/>
				<polygon fill="#FFF19F" points="181.289,120.175 173.18,128.28 170.4,114.671 173.094,111.976 				"/>
				<polygon fill="#1D1D1B" points="170.4,114.671 169.018,107.903 173.094,111.976 				"/>
			</g>
		</g>
	</g>
</g>
</svg>
