<?xml version="1.0" encoding="utf-8"?>
<!-- Generator: Adobe Illustrator 16.0.0, SVG Export Plug-In . SVG Version: 6.00 Build 0)  -->
<!DOCTYPE svg PUBLIC "-//W3C//DTD SVG 1.1//EN" "http://www.w3.org/Graphics/SVG/1.1/DTD/svg11.dtd">
<svg version="1.1" id="Layer_1" xmlns="http://www.w3.org/2000/svg" xmlns:xlink="http://www.w3.org/1999/xlink" x="0px" y="0px"
	 width="273px" height="273px" viewBox="0 0 273 273" enable-background="new 0 0 273 273" xml:space="preserve">
<g>
	<circle fill="#E64C3C" cx="136.5" cy="136.5" r="136.642"/>
	<g>
		<linearGradient id="SVGID_1_" gradientUnits="userSpaceOnUse" x1="132.043" y1="186.6377" x2="132.043" y2="247.1935">
			<stop  offset="0" style="stop-color:#FBBE22"/>
			<stop  offset="1" style="stop-color:#DD9927"/>
		</linearGradient>
		<rect x="129.937" y="168.242" fill="url(#SVGID_1_)" width="4.213" height="83.65"/>
		
			<linearGradient id="SVGID_2_" gradientUnits="userSpaceOnUse" x1="3.2544" y1="219.8545" x2="3.2544" y2="337.1188" gradientTransform="matrix(0.9756 0.2195 -0.3209 1.4259 191.4824 -241.8359)">
			<stop  offset="0" style="stop-color:#FBBE22"/>
			<stop  offset="1" style="stop-color:#DD9927"/>
		</linearGradient>
		<polygon fill="url(#SVGID_2_)" points="86.79,251.893 80.62,251.893 133.441,21.106 136.009,31.974 		"/>
		
			<linearGradient id="SVGID_3_" gradientUnits="userSpaceOnUse" x1="-682.2632" y1="329.3877" x2="-682.2632" y2="442.9017" gradientTransform="matrix(-0.9756 0.2195 0.3209 1.4259 -627.4971 -241.8359)">
			<stop  offset="0" style="stop-color:#FBBE22"/>
			<stop  offset="1" style="stop-color:#DD9927"/>
		</linearGradient>
		<polygon fill="url(#SVGID_3_)" points="180.085,251.893 185.786,251.893 135.237,28.355 130.952,32.352 		"/>
		<linearGradient id="SVGID_4_" gradientUnits="userSpaceOnUse" x1="90.7695" y1="180.792" x2="172.958" y2="180.792">
			<stop  offset="0" style="stop-color:#FBBE22"/>
			<stop  offset="1" style="stop-color:#DD9927"/>
		</linearGradient>
		<rect x="90.77" y="178.145" fill="url(#SVGID_4_)" width="82.188" height="5.295"/>
		<linearGradient id="SVGID_5_" gradientUnits="userSpaceOnUse" x1="76.2041" y1="223.9814" x2="192.041" y2="223.9814">
			<stop  offset="0" style="stop-color:#FBBE22"/>
			<stop  offset="1" style="stop-color:#DD9927"/>
		</linearGradient>
		<path fill="url(#SVGID_5_)" d="M192.041,223.98c0,1.459-2.259,2.65-5.023,2.65H81.228c-2.764,0-5.023-1.191-5.023-2.65
			c0-1.455,2.26-2.648,5.023-2.648h105.79C189.782,221.332,192.041,222.525,192.041,223.98z"/>
		<rect x="66.896" y="74.341" fill="#FFFFFF" stroke="#B3B3B3" stroke-width="4.5342" width="139.209" height="103.436"/>
		<linearGradient id="SVGID_6_" gradientUnits="userSpaceOnUse" x1="123.7861" y1="55.2378" x2="143.1357" y2="55.2378">
			<stop  offset="0" style="stop-color:#FBBE22"/>
			<stop  offset="1" style="stop-color:#DD9927"/>
		</linearGradient>
		<rect x="123.786" y="51.708" fill="url(#SVGID_6_)" width="19.35" height="7.061"/>
		<g>
			<linearGradient id="SVGID_7_" gradientUnits="userSpaceOnUse" x1="126.3311" y1="55.1616" x2="129.3193" y2="55.1616">
				<stop  offset="0" style="stop-color:#231F20"/>
				<stop  offset="1" style="stop-color:#2C2E72"/>
			</linearGradient>
			<path fill="url(#SVGID_7_)" d="M129.319,55.16c0,0.827-0.668,1.496-1.492,1.496c-0.828,0-1.496-0.669-1.496-1.496
				c0-0.824,0.668-1.492,1.496-1.492C128.651,53.667,129.319,54.335,129.319,55.16z"/>
			<linearGradient id="SVGID_8_" gradientUnits="userSpaceOnUse" x1="128.3271" y1="55.3623" x2="128.1056" y2="52.6368">
				<stop  offset="0" style="stop-color:#231F20"/>
				<stop  offset="1" style="stop-color:#2C2E72"/>
			</linearGradient>
			<path fill="url(#SVGID_8_)" d="M127.827,53.667c-0.17,0-0.328,0.033-0.48,0.086c0.625,0.178,1.082,0.749,1.082,1.429
				c0,0.658-0.428,1.21-1.016,1.41c0.133,0.039,0.27,0.063,0.414,0.063c0.824,0,1.492-0.669,1.492-1.496
				C129.319,54.335,128.651,53.667,127.827,53.667z"/>
			<linearGradient id="SVGID_9_" gradientUnits="userSpaceOnUse" x1="126.9463" y1="55.1597" x2="128.7041" y2="55.1597">
				<stop  offset="0" style="stop-color:#231F20"/>
				<stop  offset="1" style="stop-color:#D6D6D6"/>
			</linearGradient>
			<path fill="url(#SVGID_9_)" stroke="#010101" stroke-width="0.2834" d="M128.704,55.16c0,0.486-0.395,0.877-0.877,0.877
				c-0.486,0-0.881-0.391-0.881-0.877c0-0.482,0.395-0.877,0.881-0.877C128.31,54.283,128.704,54.677,128.704,55.16z"/>
			<linearGradient id="SVGID_10_" gradientUnits="userSpaceOnUse" x1="127.3574" y1="55.1631" x2="128.2959" y2="55.1631">
				<stop  offset="0" style="stop-color:#231F20"/>
				<stop  offset="1" style="stop-color:#D6D6D6"/>
			</linearGradient>
			<path fill="url(#SVGID_10_)" d="M128.296,55.16c0,0.259-0.211,0.473-0.469,0.473c-0.259,0-0.47-0.214-0.47-0.473
				c0-0.258,0.211-0.466,0.47-0.466C128.085,54.694,128.296,54.902,128.296,55.16z"/>
		</g>
		<g>
			<linearGradient id="SVGID_11_" gradientUnits="userSpaceOnUse" x1="137.7314" y1="55.1616" x2="140.7217" y2="55.1616">
				<stop  offset="0" style="stop-color:#231F20"/>
				<stop  offset="1" style="stop-color:#2C2E72"/>
			</linearGradient>
			<circle fill="url(#SVGID_11_)" cx="139.227" cy="55.16" r="1.495"/>
			<linearGradient id="SVGID_12_" gradientUnits="userSpaceOnUse" x1="139.7285" y1="55.3613" x2="139.5069" y2="52.6358">
				<stop  offset="0" style="stop-color:#231F20"/>
				<stop  offset="1" style="stop-color:#2C2E72"/>
			</linearGradient>
			<path fill="url(#SVGID_12_)" d="M139.226,53.667c-0.167,0-0.328,0.033-0.478,0.086c0.622,0.178,1.082,0.749,1.082,1.429
				c0,0.658-0.427,1.21-1.016,1.41c0.13,0.039,0.269,0.063,0.411,0.063c0.826,0,1.496-0.669,1.496-1.496
				C140.722,54.335,140.052,53.667,139.226,53.667z"/>
			<linearGradient id="SVGID_13_" gradientUnits="userSpaceOnUse" x1="138.3486" y1="55.1597" x2="140.1045" y2="55.1597">
				<stop  offset="0" style="stop-color:#231F20"/>
				<stop  offset="1" style="stop-color:#D6D6D6"/>
			</linearGradient>
			<circle fill="url(#SVGID_13_)" stroke="#010101" stroke-width="0.2834" cx="139.227" cy="55.16" r="0.878"/>
			<linearGradient id="SVGID_14_" gradientUnits="userSpaceOnUse" x1="138.7568" y1="55.1631" x2="139.6943" y2="55.1631">
				<stop  offset="0" style="stop-color:#231F20"/>
				<stop  offset="1" style="stop-color:#D6D6D6"/>
			</linearGradient>
			<path fill="url(#SVGID_14_)" d="M139.694,55.16c0,0.259-0.208,0.473-0.469,0.473c-0.258,0-0.469-0.214-0.469-0.473
				c0-0.258,0.211-0.466,0.469-0.466C139.486,54.694,139.694,54.902,139.694,55.16z"/>
		</g>
		<g>
			<linearGradient id="SVGID_15_" gradientUnits="userSpaceOnUse" x1="130.8184" y1="224.3223" x2="133.8047" y2="224.3223">
				<stop  offset="0" style="stop-color:#231F20"/>
				<stop  offset="1" style="stop-color:#2C2E72"/>
			</linearGradient>
			<path fill="url(#SVGID_15_)" d="M133.805,224.324c0,0.824-0.669,1.492-1.493,1.492s-1.493-0.668-1.493-1.492
				c0-0.828,0.669-1.496,1.493-1.496S133.805,223.496,133.805,224.324z"/>
			<linearGradient id="SVGID_16_" gradientUnits="userSpaceOnUse" x1="132.813" y1="224.5215" x2="132.5915" y2="221.7968">
				<stop  offset="0" style="stop-color:#231F20"/>
				<stop  offset="1" style="stop-color:#2C2E72"/>
			</linearGradient>
			<path fill="url(#SVGID_16_)" d="M132.312,222.828c-0.169,0-0.327,0.033-0.477,0.084c0.624,0.182,1.082,0.748,1.082,1.432
				c0,0.658-0.428,1.209-1.016,1.41c0.13,0.035,0.266,0.063,0.41,0.063c0.824,0,1.493-0.668,1.493-1.492
				C133.805,223.496,133.136,222.828,132.312,222.828z"/>
			<linearGradient id="SVGID_17_" gradientUnits="userSpaceOnUse" x1="131.4346" y1="224.3242" x2="133.1914" y2="224.3242">
				<stop  offset="0" style="stop-color:#231F20"/>
				<stop  offset="1" style="stop-color:#D6D6D6"/>
			</linearGradient>
			<circle fill="url(#SVGID_17_)" stroke="#010101" stroke-width="0.2834" cx="132.313" cy="224.324" r="0.878"/>
			<linearGradient id="SVGID_18_" gradientUnits="userSpaceOnUse" x1="131.8428" y1="224.3223" x2="132.7803" y2="224.3223">
				<stop  offset="0" style="stop-color:#231F20"/>
				<stop  offset="1" style="stop-color:#D6D6D6"/>
			</linearGradient>
			<path fill="url(#SVGID_18_)" d="M132.78,224.324c0,0.258-0.211,0.469-0.469,0.469s-0.469-0.211-0.469-0.469
				c0-0.262,0.211-0.473,0.469-0.473S132.78,224.063,132.78,224.324z"/>
		</g>
		<g>
			<linearGradient id="SVGID_19_" gradientUnits="userSpaceOnUse" x1="176.5186" y1="224.3223" x2="179.5068" y2="224.3223">
				<stop  offset="0" style="stop-color:#231F20"/>
				<stop  offset="1" style="stop-color:#2C2E72"/>
			</linearGradient>
			<path fill="url(#SVGID_19_)" d="M179.507,224.324c0,0.824-0.668,1.492-1.495,1.492c-0.825,0-1.493-0.668-1.493-1.492
				c0-0.828,0.668-1.496,1.493-1.496C178.839,222.828,179.507,223.496,179.507,224.324z"/>
			<linearGradient id="SVGID_20_" gradientUnits="userSpaceOnUse" x1="178.5137" y1="224.5215" x2="178.2922" y2="221.7968">
				<stop  offset="0" style="stop-color:#231F20"/>
				<stop  offset="1" style="stop-color:#2C2E72"/>
			</linearGradient>
			<path fill="url(#SVGID_20_)" d="M178.012,222.828c-0.167,0-0.325,0.033-0.478,0.084c0.625,0.182,1.085,0.748,1.085,1.432
				c0,0.658-0.427,1.209-1.019,1.41c0.133,0.035,0.27,0.063,0.411,0.063c0.827,0,1.495-0.668,1.495-1.492
				C179.507,223.496,178.839,222.828,178.012,222.828z"/>
			<linearGradient id="SVGID_21_" gradientUnits="userSpaceOnUse" x1="177.1338" y1="224.3242" x2="178.8916" y2="224.3242">
				<stop  offset="0" style="stop-color:#231F20"/>
				<stop  offset="1" style="stop-color:#D6D6D6"/>
			</linearGradient>
			<circle fill="url(#SVGID_21_)" stroke="#010101" stroke-width="0.2834" cx="178.013" cy="224.324" r="0.879"/>
			<linearGradient id="SVGID_22_" gradientUnits="userSpaceOnUse" x1="177.5459" y1="224.3223" x2="178.4805" y2="224.3223">
				<stop  offset="0" style="stop-color:#231F20"/>
				<stop  offset="1" style="stop-color:#D6D6D6"/>
			</linearGradient>
			<path fill="url(#SVGID_22_)" d="M178.48,224.324c0,0.258-0.208,0.469-0.469,0.469c-0.259,0-0.466-0.211-0.466-0.469
				c0-0.262,0.207-0.473,0.466-0.473C178.272,223.852,178.48,224.063,178.48,224.324z"/>
		</g>
		<g>
			<linearGradient id="SVGID_23_" gradientUnits="userSpaceOnUse" x1="88.5986" y1="224.3223" x2="91.585" y2="224.3223">
				<stop  offset="0" style="stop-color:#231F20"/>
				<stop  offset="1" style="stop-color:#2C2E72"/>
			</linearGradient>
			<path fill="url(#SVGID_23_)" d="M91.585,224.324c0,0.824-0.668,1.492-1.492,1.492s-1.494-0.668-1.494-1.492
				c0-0.828,0.67-1.496,1.494-1.496S91.585,223.496,91.585,224.324z"/>
			<linearGradient id="SVGID_24_" gradientUnits="userSpaceOnUse" x1="90.5938" y1="224.5225" x2="90.3722" y2="221.7969">
				<stop  offset="0" style="stop-color:#231F20"/>
				<stop  offset="1" style="stop-color:#2C2E72"/>
			</linearGradient>
			<path fill="url(#SVGID_24_)" d="M90.093,222.828c-0.167,0-0.328,0.033-0.479,0.084c0.625,0.182,1.083,0.748,1.083,1.432
				c0,0.658-0.427,1.209-1.016,1.41c0.13,0.035,0.267,0.063,0.411,0.063c0.824,0,1.492-0.668,1.492-1.492
				C91.585,223.496,90.917,222.828,90.093,222.828z"/>
			<linearGradient id="SVGID_25_" gradientUnits="userSpaceOnUse" x1="89.2158" y1="224.3242" x2="90.9697" y2="224.3242">
				<stop  offset="0" style="stop-color:#231F20"/>
				<stop  offset="1" style="stop-color:#D6D6D6"/>
			</linearGradient>
			<circle fill="url(#SVGID_25_)" stroke="#010101" stroke-width="0.2834" cx="90.093" cy="224.324" r="0.877"/>
			<linearGradient id="SVGID_26_" gradientUnits="userSpaceOnUse" x1="89.623" y1="224.3223" x2="90.5615" y2="224.3223">
				<stop  offset="0" style="stop-color:#231F20"/>
				<stop  offset="1" style="stop-color:#D6D6D6"/>
			</linearGradient>
			<path fill="url(#SVGID_26_)" d="M90.562,224.324c0,0.258-0.211,0.469-0.469,0.469c-0.259,0-0.47-0.211-0.47-0.469
				c0-0.262,0.211-0.473,0.47-0.473C90.351,223.852,90.562,224.063,90.562,224.324z"/>
		</g>
	</g>
</g>
</svg>
