<?xml version="1.0" encoding="utf-8"?>
<!-- Generator: Adobe Illustrator 16.0.0, SVG Export Plug-In . SVG Version: 6.00 Build 0)  -->
<!DOCTYPE svg PUBLIC "-//W3C//DTD SVG 1.1//EN" "http://www.w3.org/Graphics/SVG/1.1/DTD/svg11.dtd">
<svg version="1.1" id="Layer_1" xmlns="http://www.w3.org/2000/svg" xmlns:xlink="http://www.w3.org/1999/xlink" x="0px" y="0px"
	 width="273px" height="273px" viewBox="0 0 273 273" enable-background="new 0 0 273 273" xml:space="preserve">
<g>
	<circle fill="#F0C419" cx="136.5" cy="136.5" r="136.642"/>
	<g>
		<path fill-rule="evenodd" clip-rule="evenodd" fill="#FFFFFF" d="M96.402,131.808h78.978c2.936,0,5.337,2.401,5.337,5.336l0,0
			c0,2.936-2.401,5.337-5.337,5.337H96.402c-2.936,0-5.337-2.401-5.337-5.337l0,0C91.065,134.209,93.467,131.808,96.402,131.808z"/>
		<rect x="124.298" y="131.808" fill-rule="evenodd" clip-rule="evenodd" fill="#FFFFFF" width="23.186" height="73.274"/>
		<g>
			<path fill-rule="evenodd" clip-rule="evenodd" fill="#FFFFFF" d="M44.856,163.734h38.848c2.936,0,5.336,2.401,5.336,5.337l0,0
				c0,2.935-2.4,5.336-5.336,5.336H44.856c-2.936,0-5.337-2.401-5.337-5.336l0,0C39.52,166.136,41.921,163.734,44.856,163.734z"/>
			<path fill-rule="evenodd" clip-rule="evenodd" fill="#FFFFFF" d="M39.52,169.071v-43.784c0-2.936,2.401-5.337,5.337-5.337l0,0
				c2.935,0,5.336,2.401,5.336,5.337v43.784c0,2.935-2.401,5.336-5.336,5.336l0,0C41.921,174.407,39.52,172.006,39.52,169.071z"/>
			<rect x="62.419" y="168.488" fill-rule="evenodd" clip-rule="evenodd" fill="#FFFFFF" width="3.724" height="30.271"/>
			<path fill="#FFFFFF" d="M47.767,205.082c1.407-2.545,3.384-4.729,5.758-6.378c3.053-2.123,6.762-3.367,10.757-3.367
				c3.994,0,7.702,1.244,10.757,3.367c2.372,1.647,4.349,3.833,5.758,6.378h-4.041c-1.014-1.382-2.256-2.591-3.668-3.572
				c-2.494-1.734-5.531-2.751-8.806-2.751c-3.276,0-6.313,1.017-8.808,2.751c-1.412,0.981-2.654,2.19-3.668,3.572H47.767z"/>
		</g>
		<g>
			<path fill-rule="evenodd" clip-rule="evenodd" fill="#4E6273" d="M222.06,149.258h-46.807c-10.477,0-9.133,14.477,0,14.477
				h35.273C222.425,163.734,224.522,156.072,222.06,149.258z"/>
			<polygon fill-rule="evenodd" clip-rule="evenodd" fill="#D2A987" points="206.258,91.878 197.652,94.288 199.913,109.509 
				209.853,106.809 			"/>
			<path fill-rule="evenodd" clip-rule="evenodd" fill="#698196" d="M198.845,109.962l2.866,39.296
				c8.049-0.002,15.091,0.756,22.704,3.403c-2.802-18.807-6.466-37.184-14.406-53.422
				C206.674,103.361,200.929,110.221,198.845,109.962z"/>
			<g>
				<path fill-rule="evenodd" clip-rule="evenodd" fill="#D4B195" d="M156.304,121.021l5.286,1.041
					c0.681,0.134,3.13,1.315,3.051,2.006c-0.079,0.689-2.194,0.709-2.872,0.557l-3.691-0.957
					C155.96,123.118,156.135,121.756,156.304,121.021z"/>
				<path fill-rule="evenodd" clip-rule="evenodd" fill="#FED6B7" d="M155.155,125.425l-0.222-0.006
					c-0.863,0.604-0.366,2.109,0.758,2.233c-0.97,0.497-0.619,1.95,0.378,2.262c-0.818,0.604-0.262,2.089,0.894,2.085l5.295-0.016
					c1.485-0.005,3.396-0.814,4.151-1.451c2.242-1.886,0.809-5.322-0.516-6.167c-1.033-0.657-1.695-1.241-2.491-1.251l-8.214-0.033
					C153.323,123.061,153.625,125.45,155.155,125.425z"/>
				<path fill-rule="evenodd" clip-rule="evenodd" fill="#D4B195" d="M157.923,129.987c0,0-1.05,0.023-1.982,0.041
					c0.039-0.039,0.081-0.079,0.129-0.114c-0.087-0.027-0.17-0.063-0.247-0.107C156.771,129.88,157.923,129.987,157.923,129.987
					L157.923,129.987z M154.909,125.438c-0.076,0.056-0.14,0.119-0.193,0.187c1.045-0.022,2.829-0.101,2.829-0.101
					s-1.834-0.097-2.611-0.104C154.944,125.421,154.935,125.427,154.909,125.438L154.909,125.438z M155.245,127.519
					c0.134,0.068,0.283,0.115,0.446,0.134c-0.065,0.032-0.124,0.069-0.178,0.109c1.033-0.009,2.312-0.025,2.312-0.025
					S156.234,127.586,155.245,127.519z"/>
			</g>
			<rect x="163.888" y="123.377" fill-rule="evenodd" clip-rule="evenodd" fill="#FFFFFF" width="5.217" height="8.431"/>
			<path fill-rule="evenodd" clip-rule="evenodd" fill="#4E6273" d="M200.286,107.281l-11.978,15.187h-20.995v10.252l22.539,0.199
				c3.961,0.034,5.969-2.982,6.995-4.196l12.008-14.177C213.698,108.828,204.954,101.364,200.286,107.281z"/>
			<path fill-rule="evenodd" clip-rule="evenodd" fill="#2D3A46" d="M175.756,189.628c1.211,1.357,2.956,5.75,3.131,7.56
				c0.177,1.812,0.344,3.233-0.45,3.38l-2.904,0.538c-0.529,0.099-0.945-0.522-1.087-1.284c-1.386-0.035-3.997,2.229-7.382,2.855
				l-8.195,1.521c-1.686,0.313-4.653,0.154-4.9-1.82c-0.246-1.977,4.626-3.719,7.973-5.439c3.347-1.722,7.494-8.672,7.352-10.48
				c-0.199-2.567,2.315,6.233,4.311,6.161C175.561,192.549,175.105,189.081,175.756,189.628z"/>
			<path fill-rule="evenodd" clip-rule="evenodd" fill="#4E6273" d="M179.628,154.535h-9.652c-1.328,0-1.887-0.672-2.01,0.649
				l-3.549,35.464c-0.131,1.319,1.087,2.412,2.413,2.412h9.651c1.326,0,2.291-1.091,2.414-2.412l3.146-33.701
				C182.165,155.626,180.954,154.535,179.628,154.535z"/>
			<path fill-rule="evenodd" clip-rule="evenodd" fill="#FFFFFF" d="M228.146,163.734h-38.849c-2.935,0-5.337,2.401-5.337,5.337l0,0
				c0,2.935,2.402,5.336,5.337,5.336h38.849c2.935,0,5.336-2.401,5.336-5.336l0,0C233.481,166.136,231.08,163.734,228.146,163.734z"
				/>
			<path fill-rule="evenodd" clip-rule="evenodd" fill="#FFFFFF" d="M233.481,169.071v-43.784c0-2.936-2.401-5.337-5.336-5.337l0,0
				c-2.936,0-5.337,2.401-5.337,5.337v43.784c0,2.935,2.401,5.336,5.337,5.336l0,0C231.08,174.407,233.481,172.006,233.481,169.071z
				"/>
			<rect x="206.86" y="168.488" fill-rule="evenodd" clip-rule="evenodd" fill="#FFFFFF" width="3.722" height="30.271"/>
			<path fill="#FFFFFF" d="M225.234,205.082c-1.406-2.545-3.385-4.729-5.757-6.378c-3.054-2.123-6.762-3.367-10.757-3.367
				s-7.704,1.244-10.758,3.367c-2.37,1.647-4.349,3.833-5.756,6.378h4.038c1.016-1.382,2.258-2.591,3.668-3.572
				c2.496-1.734,5.532-2.751,8.808-2.751s6.312,1.017,8.807,2.751c1.412,0.981,2.653,2.19,3.669,3.572H225.234z"/>
			<polygon fill-rule="evenodd" clip-rule="evenodd" fill="#FFFFFF" points="210.049,99.549 208.81,94.961 198.177,107.167 
				198.454,109.668 			"/>
			<polygon fill-rule="evenodd" clip-rule="evenodd" fill="#4E6273" points="210.676,101.714 209.437,97.123 198.584,109.638 
				198.681,111.376 			"/>
			<path fill-rule="evenodd" clip-rule="evenodd" fill="#F2CBAA" d="M192.377,97.016c-9.017-2.803-8.171-35.25,10.769-29.452
				c11.152,3.413,9.78,16.615,3.686,24.273C203.238,96.351,196.657,98.345,192.377,97.016z"/>
			<path fill-rule="evenodd" clip-rule="evenodd" fill="#6E4E28" d="M205.019,68.352c8.695,3.259,8.793,16.652,1.206,24.064
				c0.36-1.699,0.485-3.341-0.092-8.096c-0.617,0.416-3.765,1.858-4.139-3.199c-0.525-7.055-8.617-7.683-13.161-6.972
				C192.337,66.54,197.446,65.511,205.019,68.352z"/>
			
				<ellipse transform="matrix(0.1099 -0.9939 0.9939 0.1099 98.0156 278.785)" fill-rule="evenodd" clip-rule="evenodd" fill="#F2CBAA" cx="204.663" cy="84.667" rx="4.07" ry="2.27"/>
		</g>
		<g>
			<path fill="#4173A1" d="M80.255,122.624l-1.169-5.545l-2.771-4.962l0.291-5.545l0.008-0.029l-1.468-0.698l-0.292,0.728
				l-2.334-1.022l-4.674,4.673c0.294-3.214-5.688-11.239-5.688-11.239l-2.076-1.857c-1.85,2.48-8.558,11.834-8.431,16.742
				l0.291,11.387l-0.73,7.001l-0.874,8.318l0.581,1.896l2.335,9.341c0,0-0.438,2.188,0.146,2.917
				c0.582,0.731,2.188,1.461,2.188,1.461l19.41-9.925l5.547-1.75l-0.291-9.338V122.624z"/>
			<polygon fill="#FFFFFF" points="77.773,127.878 81.13,133.57 74.854,138.24 70.77,130.067 			"/>
			<polygon fill="#FED09E" points="90.907,122.624 87.843,123.645 84.779,124.378 81.565,125.836 78.058,128.36 80.599,132.665 
				87.696,132.112 88.572,131.817 90.031,127.295 91.783,124.523 92.221,123.209 			"/>
			<path fill="#29567E" d="M80.524,143.8l0.021,0.715l-5.547,1.75l-19.41,9.925c0,0-1.605-0.729-2.188-1.461
				c-3.646,13.429,31.086,7.882,31.086,7.882l1.458-1.022l9.485-13.134l2.043-0.875v-3.502L80.524,143.8z"/>
			<path fill="#D19C66" d="M106.961,196.175c0,0,5.69,3.062,6.564,5.839l3.505,0.729l2.041-1.313l-0.192-0.659l-0.243-0.072
				c-2.188-1.022-5.402-11.088-5.402-11.088l1.607-32.985l-1.023-8.462c-0.73-2.92-16.344-4.086-16.344-4.086v3.502l-2.043,0.875
				l-4.023,5.574l13.365,4.494c-4.087,5.401-0.438,16.639-0.438,16.639c2.333,10.361,0.875,14.009,0.875,14.009
				c-0.091,0.028-0.175,0.061-0.265,0.092l1.287,3.265L106.961,196.175z"/>
			<path fill="#4A4345" d="M103.167,196.902c1.75,1.46,1.897,6.861,1.897,6.861h1.168l-0.292-6.13
				c3.939,0.291,6.854,6.567,6.854,6.567c2.337,3.501,10.219,1.167,10.219,1.167c2.771-1.312,0.583-3.209,0.583-3.209l-4.718-1.389
				l0.192,0.659l-2.041,1.313l-3.505-0.729c-0.874-2.777-6.564-5.839-6.564-5.839l-0.729-3.648l-1.287-3.265
				C100.071,190.991,103.167,196.902,103.167,196.902z"/>
			<path fill="#D19C66" d="M126.224,200.845c0,0,5.651,0.721,4.618-4.278c-6.827-5.994-10.749-17.467-10.749-17.467l-5.838-23.932
				c0-2.774-3.208-5.692-3.208-5.692l-11.09-1.604l-2.913-0.106l-1.613,0.689l-9.382,12.991c3.293,0.323,10.112-0.293,10.112-0.293
				c4.963-1.462,7.59,0,7.59,0c-2.189,4.231,2.332,12.402,2.332,12.402c0.585,2.627,10.507,14.741,10.507,14.741l-0.575,0.465
				l1.744,6.83C117.759,195.591,124.765,198.803,126.224,200.845z"/>
			<path fill="#4A4345" d="M117.669,199.791l-0.348-3.034c1.897-0.582,5.837,3.941,5.837,3.941
				c2.191,5.545,11.091,1.461,11.091,1.461c1.461-0.729,0.146-3.503,0.146-3.503l-3.505-2.046c-0.014-0.012-0.032-0.029-0.049-0.044
				c1.033,4.999-4.618,4.278-4.618,4.278c-1.459-2.042-8.465-5.254-8.465-5.254l-1.744-6.83l-2.41,1.948
				C114.349,192.884,116.101,197.709,117.669,199.791z"/>
			<path fill="#D19C66" d="M80.839,81.929l-5.255,2.168h-1.46l-1.749,3.064l-0.732,0.877l-0.583-1.46l-2.188-1.605
				c-4.817-1.75-3.356,3.503-3.356,3.503l2.188,1.898v3.793l-0.875,0.73l-1.893-1.158l0.579,2.033l6.86,7.733
				c0,0,0.146-5.545,4.67-9.048l2.626,0.149l1.895-0.876l0.148-1.461l0.437-1.459l0.292-1.461v-1.458l0.875-0.731v-0.873
				l-2.336-2.627L80.839,81.929z"/>
			<path fill="#2D211E" d="M67.703,94.167v-3.793l-2.188-1.898c0,0-1.461-5.253,3.356-3.503l2.188,1.605l0.583,1.46l0.732-0.877
				l1.749-3.064h1.46l5.255-2.168l-0.003-0.019l1.314-1.459c0,0-0.729-6.567-5.835-7.151l-2.92-0.732c0,0-8.464-4.229-14.01,4.383
				l-2.481-0.293c0,0-5.252,0.436-5.399,4.084L50.92,93.147l1.313,4.961l2.335,3.062l0.876-1.02l2.046-1.603l0.73-3.36l-0.295-3.355
				c0,0-3.357-11.816,0.295-12.257l-0.585,3.212c0,0-1.751,6.563,5.398,8.462l1.314,0.438l0.588,2.053l1.893,1.158L67.703,94.167z"
				/>
			<path fill="#FFFFFF" d="M72.375,103.506l-6.86-7.733l-0.565-1.976c-0.672-0.199-1.282-0.247-1.771-0.065l-2.627,2.771
				c0,0-0.175,0.227-0.469,0.624l2.076,1.857c0,0,5.981,8.025,5.688,11.239l4.674-4.673l2.334,1.022l0.292-0.728l1.468,0.698
				l0.575-2.598l-3.938-4.318C72.419,101.77,72.375,103.506,72.375,103.506z"/>
			<polygon fill="#FED09E" points="91.929,118.392 91.346,117.079 89.739,117.226 88.716,117.954 87.696,118.1 87.112,119.412 
				84.338,120.146 82.298,124.229 80.255,124.739 80.255,126.777 81.565,125.836 84.779,124.378 87.843,123.645 90.508,122.759 
				90.76,121.896 92.221,120.727 93.241,119.269 			"/>
			<polygon fill="#652F8F" points="90.907,122.624 92.221,123.209 91.783,124.523 90.031,127.295 89.684,128.371 107.981,110.073 
				106.083,110.073 98.202,113.43 90.003,122.927 			"/>
			<polygon fill="#231F20" points="87.112,119.412 83.321,117.584 82.409,118.649 85.448,120.018 			"/>
		</g>
	</g>
</g>
</svg>
