<?xml version="1.0" encoding="utf-8"?>
<!-- Generator: Adobe Illustrator 16.0.0, SVG Export Plug-In . SVG Version: 6.00 Build 0)  -->
<!DOCTYPE svg PUBLIC "-//W3C//DTD SVG 1.1//EN" "http://www.w3.org/Graphics/SVG/1.1/DTD/svg11.dtd">
<svg version="1.1" id="Layer_1" xmlns="http://www.w3.org/2000/svg" xmlns:xlink="http://www.w3.org/1999/xlink" x="0px" y="0px"
	 width="273px" height="273px" viewBox="0 0 273 273" enable-background="new 0 0 273 273" xml:space="preserve">
<g>
	<circle fill="#78C1AD" cx="136.5" cy="136.501" r="136.642"/>
	<g>
		<path fill="#ECEAD1" d="M199.586,157.818l-13.443-18.588c-2.837-3.922-8.134-7.106-11.836-7.106h-6.699
			c1.473,1.014,2.795,2.143,3.859,3.357l9.369,10.696c3.912,4.463,6.859,12.313,6.859,18.258v19.682l11.207-12.637
			C202.116,167.857,202.426,161.742,199.586,157.818z"/>
		<path fill="#ECEAD1" d="M169.431,138.861c-3.189-3.641-9.696-6.592-14.531-6.592h-21.407c-3.324,0-6.178,1.877-7.664,4.607
			c-0.36,0.338-0.719,0.696-1.031,1.1l-18.198,23.818l-29.483-5.996c-0.742-0.15-1.477-0.17-2.199-0.133
			c1.424-4.234,3.884-14.699,14.519-17.652c0.009-0.018,0.045-0.025,0.063-0.033c2.876-0.686,5.512-2.411,7.279-5.034
			c0.123-0.182,0.391-0.676,0.391-0.676l11.21-23.77l-2.405-1.402l-14.591,25.268l-2.405-1.402l14.586-25.262l-2.604-1.502
			l-14.68,25.422l-2.396-1.393l14.68-25.418l-2.77-1.605l-14.679,25.422l-2.412-1.398l14.681-25.42l-2.197-1.273L76.92,118.968
			c0,0-0.545,0.773-0.719,1.072c-1.915,3.316-2.094,7.178-0.81,10.496c2.749,13.532-7.921,19.524-9.171,21.688
			c-1.377,2.408-22.703,39.34-22.703,39.34c-0.016,0.027-0.039,0.043-0.061,0.078c-1.309,2.268-0.528,5.156,1.736,6.469
			c2.256,1.309,5.146,0.527,6.449-1.727c0.021-0.033,0.021-0.063,0.035-0.086l0.01,0.008c0,0,9.309-16.123,16.021-27.75
			c1.193,2.203,3.282,3.898,5.926,4.439l31.635,6.434c4.737,0.957,10.961-1.375,13.9-5.225l5.561-7.281v44.744h59.839v-46.744
			c0-4.846-2.587-11.727-5.777-15.365L169.431,138.861z M140.506,175.643c-2.024,0-3.67-1.645-3.67-3.67
			c0-2.031,1.65-3.676,3.67-3.676c2.025,0,3.664,1.648,3.664,3.676C144.17,173.998,142.535,175.643,140.506,175.643z
			 M140.506,160.762c-2.024,0-3.67-1.646-3.67-3.676c0-2.023,1.65-3.672,3.67-3.672c2.025,0,3.664,1.648,3.664,3.672
			C144.17,159.115,142.535,160.762,140.506,160.762z M163.942,175.643c-2.026,0-3.665-1.645-3.665-3.67
			c0-2.031,1.643-3.676,3.665-3.676c2.021,0,3.665,1.648,3.665,3.676C167.607,173.998,165.969,175.643,163.942,175.643z
			 M163.942,160.762c-2.026,0-3.665-1.646-3.665-3.676c0-2.023,1.643-3.672,3.665-3.672c2.021,0,3.665,1.648,3.665,3.672
			C167.607,159.115,165.969,160.762,163.942,160.762z"/>
		<path fill="#ECEAD1" d="M130.294,57.066v27.85c-3.649,4.615-5.843,10.432-5.843,16.771c0,14.936,12.09,27.049,27,27.049
			c14.913,0,27-12.113,27-27.049c0-6.34-2.191-12.156-5.836-16.768V56.023c4.748-1.484,8.221-5.871,8.221-11.115
			c0-6.463-5.231-11.697-11.676-11.697c-3.626,0-6.822,1.689-8.965,4.287c-2.128-2.252-5.125-3.68-8.459-3.68
			c-3.633,0-6.829,1.688-8.967,4.285c-2.129-2.252-5.121-3.68-8.464-3.68c-6.447,0-11.678,5.238-11.678,11.697
			C122.628,51.16,125.828,55.419,130.294,57.066z"/>
	</g>
</g>
</svg>
