<?xml version="1.0" encoding="utf-8"?>
<!-- Generator: Adobe Illustrator 16.0.0, SVG Export Plug-In . SVG Version: 6.00 Build 0)  -->
<!DOCTYPE svg PUBLIC "-//W3C//DTD SVG 1.1//EN" "http://www.w3.org/Graphics/SVG/1.1/DTD/svg11.dtd">
<svg version="1.1" id="Layer_1" xmlns="http://www.w3.org/2000/svg" xmlns:xlink="http://www.w3.org/1999/xlink" x="0px" y="0px"
	 width="273px" height="273px" viewBox="0 0 273 273" enable-background="new 0 0 273 273" xml:space="preserve">
<g>
	<circle fill="#DCDBDB" cx="136.5" cy="136.5" r="136.642"/>
	<g>
		<defs>
			<circle id="SVGID_1_" cx="136.5" cy="136.5" r="99.312"/>
		</defs>
		<clipPath id="SVGID_2_">
			<use xlink:href="#SVGID_1_"  overflow="visible"/>
		</clipPath>
		<g clip-path="url(#SVGID_2_)">
			<g>
				<g>
					<path fill="#F04E24" d="M60.876,225.167v-5.427l-1.255,1.102v-1.02l1.255-1.084h0.923v6.429H60.876z"/>
				</g>
				<g>
					<path fill="#F04E24" d="M76.316,225.167v-0.821l2.475-3.006c0.244-0.299,0.344-0.535,0.344-0.859
						c0-0.578-0.344-0.976-0.938-0.976c-0.487,0-0.949,0.271-0.949,0.994h-0.921c0-1.093,0.777-1.814,1.87-1.814
						c1.101,0,1.858,0.694,1.858,1.807c0,0.567-0.207,0.901-0.604,1.389l-2.013,2.466h2.617v0.821H76.316z"/>
				</g>
				<g>
					<path fill="#F04E24" d="M95.492,225.23c-1.028,0-1.932-0.551-1.968-1.807h0.921c0.036,0.687,0.515,0.975,1.047,0.975
						c0.596,0,1.047-0.387,1.047-1.063c0-0.651-0.352-1.058-1.074-1.058h-0.154v-0.803h0.154c0.67,0,0.977-0.389,0.977-0.976
						c0-0.649-0.427-0.994-0.949-0.994c-0.561,0-0.921,0.354-0.967,0.923h-0.92c0.053-1.093,0.858-1.752,1.887-1.752
						c1.092,0,1.869,0.73,1.869,1.795c0,0.688-0.308,1.131-0.803,1.373c0.55,0.244,0.902,0.723,0.902,1.518
						C97.461,224.599,96.567,225.23,95.492,225.23z"/>
				</g>
				<g>
					<path fill="#F04E24" d="M113.871,224.201v0.966h-0.895v-0.966h-2.6v-0.859l2.266-4.604h0.994l-2.258,4.604h1.598v-1.498h0.895
						v1.498h0.686v0.859H113.871z"/>
				</g>
				<g>
					<path fill="#F04E24" d="M131.001,224.725c-0.289,0.289-0.731,0.506-1.354,0.506c-0.613,0-1.094-0.217-1.371-0.497
						c-0.346-0.343-0.453-0.769-0.488-1.229h0.92c0.072,0.568,0.361,0.894,0.939,0.894c0.271,0,0.505-0.089,0.668-0.251
						c0.271-0.271,0.308-0.696,0.308-1.13c0-0.767-0.198-1.346-0.94-1.346c-0.523,0-0.813,0.262-0.911,0.579h-0.841v-3.513h3.469
						v0.822h-2.637v1.696c0.217-0.226,0.595-0.371,1.064-0.371c0.506,0,0.895,0.155,1.156,0.418c0.486,0.486,0.56,1.11,0.56,1.714
						C131.542,223.704,131.469,224.255,131.001,224.725z"/>
				</g>
				<g>
					<path fill="#F04E24" d="M147.143,225.221c-1.109,0-1.902-0.73-1.902-1.923c0-0.524,0.198-1.021,0.477-1.579l1.463-2.98h0.985
						l-1.382,2.763c0.172-0.071,0.371-0.1,0.569-0.1c0.929,0,1.687,0.73,1.687,1.859
						C149.039,224.444,148.254,225.221,147.143,225.221z M147.135,222.169c-0.578,0-0.975,0.416-0.975,1.11
						c0,0.686,0.396,1.119,0.975,1.119s0.984-0.434,0.984-1.119C148.119,222.648,147.75,222.169,147.135,222.169z"/>
				</g>
				<g>
					<path fill="#F04E24" d="M163.657,225.167h-0.993l2.158-5.606h-1.957v1.012h-0.886v-1.834h3.827v0.822L163.657,225.167z"/>
				</g>
				<g>
					<path fill="#F04E24" d="M181.328,225.221c-1.102,0-1.977-0.703-1.977-1.869c0-0.767,0.434-1.235,0.884-1.508
						c-0.415-0.253-0.775-0.703-0.775-1.382c0-1.073,0.82-1.777,1.868-1.777s1.877,0.704,1.877,1.777
						c0,0.679-0.36,1.129-0.775,1.382c0.451,0.272,0.885,0.741,0.885,1.508C183.314,224.518,182.43,225.221,181.328,225.221z
						 M181.328,222.259c-0.596,0-1.056,0.479-1.056,1.076c0,0.594,0.46,1.063,1.056,1.063s1.057-0.47,1.057-1.063
						C182.385,222.738,181.924,222.259,181.328,222.259z M181.328,219.505c-0.561,0-0.947,0.427-0.947,0.986
						c0,0.567,0.387,0.974,0.947,0.974s0.956-0.406,0.956-0.974C182.284,219.932,181.889,219.505,181.328,219.505z"/>
				</g>
				<g>
					<path fill="#F04E24" d="M199.551,222.188l-1.463,2.979h-0.982l1.381-2.764c-0.173,0.073-0.379,0.1-0.578,0.1
						c-0.931,0-1.68-0.731-1.68-1.859c0-1.183,0.786-1.959,1.896-1.959c1.11,0,1.905,0.731,1.905,1.923
						C200.029,221.131,199.831,221.628,199.551,222.188z M198.124,219.505c-0.577,0-0.974,0.434-0.974,1.12
						c0,0.632,0.359,1.111,0.974,1.111c0.578,0,0.985-0.416,0.985-1.111C199.109,219.938,198.702,219.505,198.124,219.505z"/>
				</g>
				<g>
					<path fill="#F04E24" d="M212.764,225.167v-5.427l-1.254,1.102v-1.02l1.254-1.084h0.922v6.429H212.764z"/>
					<path fill="#F04E24" d="M217.691,225.221c-1.021,0-1.852-0.695-1.852-1.842v-2.854c0-1.146,0.83-1.841,1.852-1.841
						c1.02,0,1.86,0.694,1.86,1.841v2.854C219.552,224.525,218.711,225.221,217.691,225.221z M218.629,220.552
						c0-0.62-0.352-1.047-0.938-1.047c-0.588,0-0.93,0.427-0.93,1.047v2.8c0,0.624,0.342,1.047,0.93,1.047
						c0.586,0,0.938-0.423,0.938-1.047V220.552z"/>
				</g>
			</g>
			<g>
				<g>
					<path fill="#43B0B4" d="M21.908,185.998c-0.398,0.401-0.955,0.643-1.722,0.643c-0.75,0-1.356-0.241-1.733-0.617
						c-0.375-0.389-0.559-0.886-0.605-1.505h0.873c0.109,0.86,0.557,1.347,1.466,1.347c0.425,0,0.813-0.147,1.068-0.4
						c0.448-0.447,0.474-1.14,0.474-1.759c0-1.055-0.207-2.098-1.455-2.098c-0.754,0-1.262,0.339-1.432,0.85h-0.789v-4.537h4.365
						v0.778h-3.576v2.739c0.339-0.376,0.873-0.594,1.552-0.594c0.643,0,1.153,0.205,1.492,0.545c0.63,0.631,0.714,1.503,0.714,2.316
						C22.6,184.567,22.527,185.379,21.908,185.998z"/>
					<path fill="#43B0B4" d="M26.492,186.629c-1.346,0-2.363-0.946-2.363-2.378v-4.025c0-1.43,1.018-2.378,2.363-2.378
						s2.365,0.948,2.365,2.378v4.025C28.857,185.683,27.838,186.629,26.492,186.629z M27.984,180.273
						c0-0.945-0.533-1.648-1.492-1.648c-0.956,0-1.492,0.703-1.492,1.648v3.932c0,0.943,0.536,1.646,1.492,1.646
						c0.959,0,1.492-0.703,1.492-1.646V180.273z"/>
				</g>
				<g>
					<path fill="#43B0B4" d="M26.492,212.644c-1.345,0-2.363-0.945-2.363-2.377v-4.026c0-1.43,1.019-2.376,2.363-2.376
						c1.348,0,2.367,0.946,2.367,2.376v4.026C28.859,211.698,27.84,212.644,26.492,212.644z M27.985,206.289
						c0-0.944-0.534-1.649-1.493-1.649c-0.956,0-1.49,0.705-1.49,1.649v3.929c0,0.946,0.534,1.65,1.49,1.65
						c0.959,0,1.493-0.704,1.493-1.65V206.289z"/>
				</g>
				<g>
					<path fill="#43B0B4" d="M13.797,160.553v-7.663l-1.613,1.418v-0.994l1.613-1.396h0.873v8.635H13.797z"/>
					<path fill="#43B0B4" d="M20.162,160.626c-1.345,0-2.363-0.946-2.363-2.378v-4.025c0-1.43,1.019-2.376,2.363-2.376
						c1.348,0,2.365,0.946,2.365,2.376v4.025C22.527,159.68,21.51,160.626,20.162,160.626z M21.655,154.271
						c0-0.945-0.534-1.649-1.493-1.649c-0.956,0-1.492,0.704-1.492,1.649v3.929c0,0.946,0.536,1.649,1.492,1.649
						c0.959,0,1.493-0.703,1.493-1.649V154.271z"/>
					<path fill="#43B0B4" d="M26.492,160.626c-1.346,0-2.363-0.946-2.363-2.378v-4.025c0-1.43,1.018-2.376,2.363-2.376
						c1.348,0,2.367,0.946,2.367,2.376v4.025C28.859,159.68,27.84,160.626,26.492,160.626z M27.985,154.271
						c0-0.945-0.534-1.649-1.493-1.649c-0.956,0-1.49,0.704-1.49,1.649v3.929c0,0.946,0.534,1.649,1.49,1.649
						c0.959,0,1.493-0.703,1.493-1.649V154.271z"/>
				</g>
				<g>
					<path fill="#43B0B4" d="M13.797,134.538v-7.663l-1.613,1.419v-0.995l1.613-1.396h0.873v8.635H13.797z"/>
					<path fill="#43B0B4" d="M21.908,133.98c-0.398,0.401-0.955,0.643-1.722,0.643c-0.75,0-1.356-0.241-1.733-0.619
						c-0.375-0.389-0.559-0.884-0.605-1.503h0.873c0.109,0.861,0.557,1.347,1.466,1.347c0.425,0,0.813-0.146,1.068-0.4
						c0.448-0.449,0.474-1.14,0.474-1.759c0-1.055-0.207-2.098-1.455-2.098c-0.754,0-1.262,0.341-1.432,0.85h-0.789v-4.537h4.365
						v0.778h-3.576v2.739c0.339-0.375,0.873-0.595,1.552-0.595c0.643,0,1.153,0.206,1.492,0.547c0.63,0.631,0.714,1.503,0.714,2.315
						C22.6,132.55,22.527,133.362,21.908,133.98z"/>
					<path fill="#43B0B4" d="M26.492,134.612c-1.346,0-2.363-0.946-2.363-2.379v-4.025c0-1.43,1.018-2.376,2.363-2.376
						c1.348,0,2.367,0.946,2.367,2.376v4.025C28.859,133.666,27.84,134.612,26.492,134.612z M27.985,128.257
						c0-0.946-0.534-1.649-1.493-1.649c-0.956,0-1.49,0.703-1.49,1.649v3.931c0,0.944,0.534,1.646,1.49,1.646
						c0.959,0,1.493-0.702,1.493-1.646V128.257z"/>
				</g>
				<g>
					<path fill="#43B0B4" d="M11.493,108.534v-0.775l3.406-4.329c0.329-0.424,0.487-0.801,0.487-1.273
						c0-0.935-0.559-1.552-1.505-1.552c-0.8,0-1.505,0.449-1.505,1.563h-0.871c0-1.357,0.933-2.34,2.376-2.34
						c1.419,0,2.378,0.908,2.378,2.328c0,0.691-0.219,1.14-0.691,1.746l-3.02,3.856h3.711v0.775H11.493z"/>
					<path fill="#43B0B4" d="M20.162,108.608c-1.345,0-2.363-0.946-2.363-2.378v-4.025c0-1.432,1.019-2.377,2.363-2.377
						c1.348,0,2.365,0.945,2.365,2.377v4.025C22.527,107.662,21.51,108.608,20.162,108.608z M21.655,102.253
						c0-0.943-0.534-1.648-1.493-1.648c-0.956,0-1.492,0.705-1.492,1.648v3.93c0,0.946,0.536,1.649,1.492,1.649
						c0.959,0,1.493-0.703,1.493-1.649V102.253z"/>
					<path fill="#43B0B4" d="M26.492,108.608c-1.346,0-2.363-0.946-2.363-2.378v-4.025c0-1.432,1.018-2.377,2.363-2.377
						c1.348,0,2.367,0.945,2.367,2.377v4.025C28.859,107.662,27.84,108.608,26.492,108.608z M27.985,102.253
						c0-0.943-0.534-1.648-1.493-1.648c-0.956,0-1.49,0.705-1.49,1.648v3.93c0,0.946,0.534,1.649,1.49,1.649
						c0.959,0,1.493-0.703,1.493-1.649V102.253z"/>
				</g>
				<g>
					<path fill="#43B0B4" d="M11.493,82.52v-0.775l3.406-4.329c0.329-0.424,0.487-0.8,0.487-1.273c0-0.935-0.559-1.552-1.505-1.552
						c-0.8,0-1.505,0.449-1.505,1.564h-0.871c0-1.358,0.933-2.342,2.376-2.342c1.419,0,2.378,0.909,2.378,2.329
						c0,0.691-0.219,1.14-0.691,1.747l-3.02,3.855h3.711v0.775H11.493z"/>
					<path fill="#43B0B4" d="M21.908,81.961c-0.398,0.402-0.955,0.645-1.722,0.645c-0.75,0-1.356-0.242-1.733-0.619
						c-0.375-0.388-0.559-0.884-0.605-1.504h0.873c0.109,0.861,0.557,1.347,1.466,1.347c0.425,0,0.813-0.145,1.068-0.399
						c0.448-0.45,0.474-1.141,0.474-1.76c0-1.054-0.207-2.097-1.455-2.097c-0.754,0-1.262,0.339-1.432,0.85h-0.789v-4.536h4.365
						v0.775h-3.576v2.74c0.339-0.375,0.873-0.594,1.552-0.594c0.643,0,1.153,0.206,1.492,0.546c0.63,0.631,0.714,1.503,0.714,2.315
						C22.6,80.531,22.527,81.344,21.908,81.961z"/>
					<path fill="#43B0B4" d="M26.492,82.594c-1.346,0-2.363-0.946-2.363-2.378V76.19c0-1.432,1.018-2.378,2.363-2.378
						c1.348,0,2.367,0.946,2.367,2.378v4.025C28.859,81.647,27.84,82.594,26.492,82.594z M27.985,76.238
						c0-0.945-0.534-1.648-1.493-1.648c-0.956,0-1.49,0.703-1.49,1.648v3.93c0,0.945,0.534,1.65,1.49,1.65
						c0.959,0,1.493-0.705,1.493-1.65V76.238z"/>
				</g>
			</g>
			<g>
				<rect x="43.973" y="64.371" fill="#7D7D69" width="0.721" height="156.564"/>
			</g>
			<g>
				<g>
					<g>
						<rect x="32.125" y="181.559" fill="#7D7D69" width="1.08" height="0.721"/>
					</g>
					<g>
						<path fill="#7D7D69" d="M258.15,182.279h-2.162v-0.721h2.162V182.279z M253.824,182.279h-2.164v-0.721h2.164V182.279z
							 M249.498,182.279h-2.164v-0.721h2.164V182.279z M245.173,182.279h-2.163v-0.721h2.163V182.279z M240.848,182.279h-2.164
							v-0.721h2.164V182.279z M236.521,182.279h-2.163v-0.721h2.163V182.279z M232.195,182.279h-2.162v-0.721h2.162V182.279z
							 M227.869,182.279h-2.162v-0.721h2.162V182.279z M223.543,182.279h-2.162v-0.721h2.162V182.279z M219.218,182.279h-2.163
							v-0.721h2.163V182.279z M214.892,182.279h-2.163v-0.721h2.163V182.279z M210.565,182.279h-2.163v-0.721h2.163V182.279z
							 M206.239,182.279h-2.163v-0.721h2.163V182.279z M201.914,182.279h-2.164v-0.721h2.164V182.279z M197.588,182.279h-2.164
							v-0.721h2.164V182.279z M193.263,182.279h-2.165v-0.721h2.165V182.279z M188.937,182.279h-2.165v-0.721h2.165V182.279z
							 M184.61,182.279h-2.163v-0.721h2.163V182.279z M180.285,182.279h-2.164v-0.721h2.164V182.279z M175.958,182.279h-2.163
							v-0.721h2.163V182.279z M171.633,182.279h-2.164v-0.721h2.164V182.279z M167.307,182.279h-2.162v-0.721h2.162V182.279z
							 M162.981,182.279h-2.163v-0.721h2.163V182.279z M158.655,182.279h-2.163v-0.721h2.163V182.279z M154.329,182.279h-2.163
							v-0.721h2.163V182.279z M150.003,182.279h-2.163v-0.721h2.163V182.279z M145.678,182.279h-2.164v-0.721h2.164V182.279z
							 M141.352,182.279h-2.162v-0.721h2.162V182.279z M137.025,182.279h-2.164v-0.721h2.164V182.279z M132.699,182.279h-2.164
							v-0.721h2.164V182.279z M128.374,182.279h-2.164v-0.721h2.164V182.279z M124.048,182.279h-2.163v-0.721h2.163V182.279z
							 M119.723,182.279h-2.164v-0.721h2.164V182.279z M115.396,182.279h-2.164v-0.721h2.164V182.279z M111.07,182.279h-2.162
							v-0.721h2.162V182.279z M106.745,182.279h-2.163v-0.721h2.163V182.279z M102.418,182.279h-2.162v-0.721h2.162V182.279z
							 M98.092,182.279H95.93v-0.721h2.162V182.279z M93.768,182.279h-2.164v-0.721h2.164V182.279z M89.441,182.279h-2.164v-0.721
							h2.164V182.279z M85.115,182.279h-2.164v-0.721h2.164V182.279z M80.789,182.279h-2.164v-0.721h2.164V182.279z M76.463,182.279
							h-2.162v-0.721h2.162V182.279z M72.138,182.279h-2.163v-0.721h2.163V182.279z M67.813,182.279h-2.164v-0.721h2.164V182.279z
							 M63.486,182.279h-2.164v-0.721h2.164V182.279z M59.161,182.279h-2.165v-0.721h2.165V182.279z M54.835,182.279H52.67v-0.721
							h2.165V182.279z M50.509,182.279h-2.164v-0.721h2.164V182.279z M46.183,182.279H44.02v-0.721h2.163V182.279z M41.857,182.279
							h-2.164v-0.721h2.164V182.279z M37.531,182.279h-2.164v-0.721h2.164V182.279z"/>
					</g>
					<g>
						<rect x="260.313" y="181.559" fill="#7D7D69" width="1.08" height="0.721"/>
					</g>
				</g>
				<g>
					<circle fill="#7D7D69" cx="44.332" cy="181.92" r="2.041"/>
				</g>
			</g>
			<g>
				<g>
					<g>
						<rect x="32.125" y="155.621" fill="#7D7D69" width="1.08" height="0.72"/>
					</g>
					<g>
						<path fill="#7D7D69" d="M258.15,156.341h-2.162v-0.72h2.162V156.341z M253.824,156.341h-2.164v-0.72h2.164V156.341z
							 M249.498,156.341h-2.164v-0.72h2.164V156.341z M245.173,156.341h-2.163v-0.72h2.163V156.341z M240.848,156.341h-2.164v-0.72
							h2.164V156.341z M236.521,156.341h-2.163v-0.72h2.163V156.341z M232.195,156.341h-2.162v-0.72h2.162V156.341z
							 M227.869,156.341h-2.162v-0.72h2.162V156.341z M223.543,156.341h-2.162v-0.72h2.162V156.341z M219.218,156.341h-2.163v-0.72
							h2.163V156.341z M214.892,156.341h-2.163v-0.72h2.163V156.341z M210.565,156.341h-2.163v-0.72h2.163V156.341z
							 M206.239,156.341h-2.163v-0.72h2.163V156.341z M201.914,156.341h-2.164v-0.72h2.164V156.341z M197.588,156.341h-2.164v-0.72
							h2.164V156.341z M193.263,156.341h-2.165v-0.72h2.165V156.341z M188.937,156.341h-2.165v-0.72h2.165V156.341z M184.61,156.341
							h-2.163v-0.72h2.163V156.341z M180.285,156.341h-2.164v-0.72h2.164V156.341z M175.958,156.341h-2.163v-0.72h2.163V156.341z
							 M171.633,156.341h-2.164v-0.72h2.164V156.341z M167.307,156.341h-2.162v-0.72h2.162V156.341z M162.981,156.341h-2.163v-0.72
							h2.163V156.341z M158.655,156.341h-2.163v-0.72h2.163V156.341z M154.329,156.341h-2.163v-0.72h2.163V156.341z
							 M150.003,156.341h-2.163v-0.72h2.163V156.341z M145.678,156.341h-2.164v-0.72h2.164V156.341z M141.352,156.341h-2.162v-0.72
							h2.162V156.341z M137.025,156.341h-2.164v-0.72h2.164V156.341z M132.699,156.341h-2.164v-0.72h2.164V156.341z
							 M128.374,156.341h-2.164v-0.72h2.164V156.341z M124.048,156.341h-2.163v-0.72h2.163V156.341z M119.723,156.341h-2.164v-0.72
							h2.164V156.341z M115.396,156.341h-2.164v-0.72h2.164V156.341z M111.07,156.341h-2.162v-0.72h2.162V156.341z M106.745,156.341
							h-2.163v-0.72h2.163V156.341z M102.418,156.341h-2.162v-0.72h2.162V156.341z M98.092,156.341H95.93v-0.72h2.162V156.341z
							 M93.768,156.341h-2.164v-0.72h2.164V156.341z M89.441,156.341h-2.164v-0.72h2.164V156.341z M85.115,156.341h-2.164v-0.72
							h2.164V156.341z M80.789,156.341h-2.164v-0.72h2.164V156.341z M76.463,156.341h-2.162v-0.72h2.162V156.341z M72.138,156.341
							h-2.163v-0.72h2.163V156.341z M67.813,156.341h-2.164v-0.72h2.164V156.341z M63.486,156.341h-2.164v-0.72h2.164V156.341z
							 M59.161,156.341h-2.165v-0.72h2.165V156.341z M54.835,156.341H52.67v-0.72h2.165V156.341z M50.509,156.341h-2.164v-0.72
							h2.164V156.341z M46.183,156.341H44.02v-0.72h2.163V156.341z M41.857,156.341h-2.164v-0.72h2.164V156.341z M37.531,156.341
							h-2.164v-0.72h2.164V156.341z"/>
					</g>
					<g>
						<rect x="260.313" y="155.621" fill="#7D7D69" width="1.08" height="0.72"/>
					</g>
				</g>
				<g>
					<circle fill="#7D7D69" cx="44.332" cy="155.981" r="2.041"/>
				</g>
			</g>
			<g>
				<g>
					<g>
						<rect x="32.125" y="129.682" fill="#7D7D69" width="1.08" height="0.72"/>
					</g>
					<g>
						<path fill="#7D7D69" d="M258.15,130.401h-2.162v-0.72h2.162V130.401z M253.824,130.401h-2.164v-0.72h2.164V130.401z
							 M249.498,130.401h-2.164v-0.72h2.164V130.401z M245.173,130.401h-2.163v-0.72h2.163V130.401z M240.848,130.401h-2.164v-0.72
							h2.164V130.401z M236.521,130.401h-2.163v-0.72h2.163V130.401z M232.195,130.401h-2.162v-0.72h2.162V130.401z
							 M227.869,130.401h-2.162v-0.72h2.162V130.401z M223.543,130.401h-2.162v-0.72h2.162V130.401z M219.218,130.401h-2.163v-0.72
							h2.163V130.401z M214.892,130.401h-2.163v-0.72h2.163V130.401z M210.565,130.401h-2.163v-0.72h2.163V130.401z
							 M206.239,130.401h-2.163v-0.72h2.163V130.401z M201.914,130.401h-2.164v-0.72h2.164V130.401z M197.588,130.401h-2.164v-0.72
							h2.164V130.401z M193.263,130.401h-2.165v-0.72h2.165V130.401z M188.937,130.401h-2.165v-0.72h2.165V130.401z M184.61,130.401
							h-2.163v-0.72h2.163V130.401z M180.285,130.401h-2.164v-0.72h2.164V130.401z M175.958,130.401h-2.163v-0.72h2.163V130.401z
							 M171.633,130.401h-2.164v-0.72h2.164V130.401z M167.307,130.401h-2.162v-0.72h2.162V130.401z M162.981,130.401h-2.163v-0.72
							h2.163V130.401z M158.655,130.401h-2.163v-0.72h2.163V130.401z M154.329,130.401h-2.163v-0.72h2.163V130.401z
							 M150.003,130.401h-2.163v-0.72h2.163V130.401z M145.678,130.401h-2.164v-0.72h2.164V130.401z M141.352,130.401h-2.162v-0.72
							h2.162V130.401z M137.025,130.401h-2.164v-0.72h2.164V130.401z M132.699,130.401h-2.164v-0.72h2.164V130.401z
							 M128.374,130.401h-2.164v-0.72h2.164V130.401z M124.048,130.401h-2.163v-0.72h2.163V130.401z M119.723,130.401h-2.164v-0.72
							h2.164V130.401z M115.396,130.401h-2.164v-0.72h2.164V130.401z M111.07,130.401h-2.162v-0.72h2.162V130.401z M106.745,130.401
							h-2.163v-0.72h2.163V130.401z M102.418,130.401h-2.162v-0.72h2.162V130.401z M98.092,130.401H95.93v-0.72h2.162V130.401z
							 M93.768,130.401h-2.164v-0.72h2.164V130.401z M89.441,130.401h-2.164v-0.72h2.164V130.401z M85.115,130.401h-2.164v-0.72
							h2.164V130.401z M80.789,130.401h-2.164v-0.72h2.164V130.401z M76.463,130.401h-2.162v-0.72h2.162V130.401z M72.138,130.401
							h-2.163v-0.72h2.163V130.401z M67.813,130.401h-2.164v-0.72h2.164V130.401z M63.486,130.401h-2.164v-0.72h2.164V130.401z
							 M59.161,130.401h-2.165v-0.72h2.165V130.401z M54.835,130.401H52.67v-0.72h2.165V130.401z M50.509,130.401h-2.164v-0.72
							h2.164V130.401z M46.183,130.401H44.02v-0.72h2.163V130.401z M41.857,130.401h-2.164v-0.72h2.164V130.401z M37.531,130.401
							h-2.164v-0.72h2.164V130.401z"/>
					</g>
					<g>
						<rect x="260.313" y="129.682" fill="#7D7D69" width="1.08" height="0.72"/>
					</g>
				</g>
				<g>
					<circle fill="#7D7D69" cx="44.332" cy="130.043" r="2.041"/>
				</g>
			</g>
			<g>
				<g>
					<g>
						<rect x="32.125" y="103.744" fill="#7D7D69" width="1.08" height="0.72"/>
					</g>
					<g>
						<path fill="#7D7D69" d="M258.15,104.464h-2.162v-0.72h2.162V104.464z M253.824,104.464h-2.164v-0.72h2.164V104.464z
							 M249.498,104.464h-2.164v-0.72h2.164V104.464z M245.173,104.464h-2.163v-0.72h2.163V104.464z M240.848,104.464h-2.164v-0.72
							h2.164V104.464z M236.521,104.464h-2.163v-0.72h2.163V104.464z M232.195,104.464h-2.162v-0.72h2.162V104.464z
							 M227.869,104.464h-2.162v-0.72h2.162V104.464z M223.543,104.464h-2.162v-0.72h2.162V104.464z M219.218,104.464h-2.163v-0.72
							h2.163V104.464z M214.892,104.464h-2.163v-0.72h2.163V104.464z M210.565,104.464h-2.163v-0.72h2.163V104.464z
							 M206.239,104.464h-2.163v-0.72h2.163V104.464z M201.914,104.464h-2.164v-0.72h2.164V104.464z M197.588,104.464h-2.164v-0.72
							h2.164V104.464z M193.263,104.464h-2.165v-0.72h2.165V104.464z M188.937,104.464h-2.165v-0.72h2.165V104.464z M184.61,104.464
							h-2.163v-0.72h2.163V104.464z M180.285,104.464h-2.164v-0.72h2.164V104.464z M175.958,104.464h-2.163v-0.72h2.163V104.464z
							 M171.633,104.464h-2.164v-0.72h2.164V104.464z M167.307,104.464h-2.162v-0.72h2.162V104.464z M162.981,104.464h-2.163v-0.72
							h2.163V104.464z M158.655,104.464h-2.163v-0.72h2.163V104.464z M154.329,104.464h-2.163v-0.72h2.163V104.464z
							 M150.003,104.464h-2.163v-0.72h2.163V104.464z M145.678,104.464h-2.164v-0.72h2.164V104.464z M141.352,104.464h-2.162v-0.72
							h2.162V104.464z M137.025,104.464h-2.164v-0.72h2.164V104.464z M132.699,104.464h-2.164v-0.72h2.164V104.464z
							 M128.374,104.464h-2.164v-0.72h2.164V104.464z M124.048,104.464h-2.163v-0.72h2.163V104.464z M119.723,104.464h-2.164v-0.72
							h2.164V104.464z M115.396,104.464h-2.164v-0.72h2.164V104.464z M111.07,104.464h-2.162v-0.72h2.162V104.464z M106.745,104.464
							h-2.163v-0.72h2.163V104.464z M102.418,104.464h-2.162v-0.72h2.162V104.464z M98.092,104.464H95.93v-0.72h2.162V104.464z
							 M93.768,104.464h-2.164v-0.72h2.164V104.464z M89.441,104.464h-2.164v-0.72h2.164V104.464z M85.115,104.464h-2.164v-0.72
							h2.164V104.464z M80.789,104.464h-2.164v-0.72h2.164V104.464z M76.463,104.464h-2.162v-0.72h2.162V104.464z M72.138,104.464
							h-2.163v-0.72h2.163V104.464z M67.813,104.464h-2.164v-0.72h2.164V104.464z M63.486,104.464h-2.164v-0.72h2.164V104.464z
							 M59.161,104.464h-2.165v-0.72h2.165V104.464z M54.835,104.464H52.67v-0.72h2.165V104.464z M50.509,104.464h-2.164v-0.72
							h2.164V104.464z M46.183,104.464H44.02v-0.72h2.163V104.464z M41.857,104.464h-2.164v-0.72h2.164V104.464z M37.531,104.464
							h-2.164v-0.72h2.164V104.464z"/>
					</g>
					<g>
						<rect x="260.313" y="103.744" fill="#7D7D69" width="1.08" height="0.72"/>
					</g>
				</g>
				<g>
					<circle fill="#7D7D69" cx="44.332" cy="104.104" r="2.041"/>
				</g>
			</g>
			<g>
				<g>
					<g>
						<rect x="32.125" y="77.807" fill="#7D7D69" width="1.08" height="0.72"/>
					</g>
					<g>
						<path fill="#7D7D69" d="M258.15,78.526h-2.162v-0.72h2.162V78.526z M253.824,78.526h-2.164v-0.72h2.164V78.526z
							 M249.498,78.526h-2.164v-0.72h2.164V78.526z M245.173,78.526h-2.163v-0.72h2.163V78.526z M240.848,78.526h-2.164v-0.72h2.164
							V78.526z M236.521,78.526h-2.163v-0.72h2.163V78.526z M232.195,78.526h-2.162v-0.72h2.162V78.526z M227.869,78.526h-2.162
							v-0.72h2.162V78.526z M223.543,78.526h-2.162v-0.72h2.162V78.526z M219.218,78.526h-2.163v-0.72h2.163V78.526z
							 M214.892,78.526h-2.163v-0.72h2.163V78.526z M210.565,78.526h-2.163v-0.72h2.163V78.526z M206.239,78.526h-2.163v-0.72h2.163
							V78.526z M201.914,78.526h-2.164v-0.72h2.164V78.526z M197.588,78.526h-2.164v-0.72h2.164V78.526z M193.263,78.526h-2.165
							v-0.72h2.165V78.526z M188.937,78.526h-2.165v-0.72h2.165V78.526z M184.61,78.526h-2.163v-0.72h2.163V78.526z M180.285,78.526
							h-2.164v-0.72h2.164V78.526z M175.958,78.526h-2.163v-0.72h2.163V78.526z M171.633,78.526h-2.164v-0.72h2.164V78.526z
							 M167.307,78.526h-2.162v-0.72h2.162V78.526z M162.981,78.526h-2.163v-0.72h2.163V78.526z M158.655,78.526h-2.163v-0.72h2.163
							V78.526z M154.329,78.526h-2.163v-0.72h2.163V78.526z M150.003,78.526h-2.163v-0.72h2.163V78.526z M145.678,78.526h-2.164
							v-0.72h2.164V78.526z M141.352,78.526h-2.162v-0.72h2.162V78.526z M137.025,78.526h-2.164v-0.72h2.164V78.526z
							 M132.699,78.526h-2.164v-0.72h2.164V78.526z M128.374,78.526h-2.164v-0.72h2.164V78.526z M124.048,78.526h-2.163v-0.72h2.163
							V78.526z M119.723,78.526h-2.164v-0.72h2.164V78.526z M115.396,78.526h-2.164v-0.72h2.164V78.526z M111.07,78.526h-2.162
							v-0.72h2.162V78.526z M106.745,78.526h-2.163v-0.72h2.163V78.526z M102.418,78.526h-2.162v-0.72h2.162V78.526z M98.092,78.526
							H95.93v-0.72h2.162V78.526z M93.768,78.526h-2.164v-0.72h2.164V78.526z M89.441,78.526h-2.164v-0.72h2.164V78.526z
							 M85.115,78.526h-2.164v-0.72h2.164V78.526z M80.789,78.526h-2.164v-0.72h2.164V78.526z M76.463,78.526h-2.162v-0.72h2.162
							V78.526z M72.138,78.526h-2.163v-0.72h2.163V78.526z M67.813,78.526h-2.164v-0.72h2.164V78.526z M63.486,78.526h-2.164v-0.72
							h2.164V78.526z M59.161,78.526h-2.165v-0.72h2.165V78.526z M54.835,78.526H52.67v-0.72h2.165V78.526z M50.509,78.526h-2.164
							v-0.72h2.164V78.526z M46.183,78.526H44.02v-0.72h2.163V78.526z M41.857,78.526h-2.164v-0.72h2.164V78.526z M37.531,78.526
							h-2.164v-0.72h2.164V78.526z"/>
					</g>
					<g>
						<rect x="260.313" y="77.807" fill="#7D7D69" width="1.08" height="0.72"/>
					</g>
				</g>
				<g>
					<circle fill="#7D7D69" cx="44.332" cy="78.167" r="2.041"/>
				</g>
			</g>
			<polygon fill="#E777AE" points="51.082,207.798 85.153,97.182 108.428,190.341 151.617,150.75 180.891,190.76 194.298,134.973 
				218.592,193.484 228.857,168.849 240.517,207.798 			"/>
			<polygon fill="#47BBD3" points="85.632,207.798 113.467,83.805 136.5,207.798 			"/>
			<polygon fill="#5DBE78" points="163.135,207.798 178.215,119.916 194.64,200.671 214.242,83.805 230.801,207.798 			"/>
			<g>
				<g>
					<g>
						<rect x="61.061" y="207.616" fill="#7D7D69" width="0.719" height="7.56"/>
					</g>
					<g>
						<circle fill="#7D7D69" cx="61.42" cy="207.857" r="2.041"/>
					</g>
				</g>
				<g>
					<g>
						<rect x="78.146" y="207.616" fill="#7D7D69" width="0.721" height="7.56"/>
					</g>
					<g>
						<circle fill="#7D7D69" cx="78.506" cy="207.857" r="2.041"/>
					</g>
				</g>
				<g>
					<g>
						<rect x="95.234" y="207.616" fill="#7D7D69" width="0.719" height="7.56"/>
					</g>
					<g>
						<circle fill="#7D7D69" cx="95.594" cy="207.857" r="2.041"/>
					</g>
				</g>
				<g>
					<g>
						<rect x="112.32" y="207.616" fill="#7D7D69" width="0.721" height="7.56"/>
					</g>
					<g>
						<circle fill="#7D7D69" cx="112.681" cy="207.857" r="2.04"/>
					</g>
				</g>
				<g>
					<g>
						<rect x="129.408" y="207.616" fill="#7D7D69" width="0.719" height="7.56"/>
					</g>
					<g>
						<circle fill="#7D7D69" cx="129.768" cy="207.857" r="2.041"/>
					</g>
				</g>
				<g>
					<g>
						<rect x="146.494" y="207.616" fill="#7D7D69" width="0.722" height="7.56"/>
					</g>
					<g>
						<circle fill="#7D7D69" cx="146.854" cy="207.857" r="2.041"/>
					</g>
				</g>
				<g>
					<g>
						<rect x="163.583" y="207.616" fill="#7D7D69" width="0.718" height="7.56"/>
					</g>
					<g>
						<circle fill="#7D7D69" cx="163.942" cy="207.857" r="2.04"/>
					</g>
				</g>
				<g>
					<g>
						<rect x="180.67" y="207.616" fill="#7D7D69" width="0.72" height="7.56"/>
					</g>
					<g>
						<circle fill="#7D7D69" cx="181.029" cy="207.857" r="2.04"/>
					</g>
				</g>
				<g>
					<g>
						<rect x="197.757" y="207.616" fill="#7D7D69" width="0.72" height="7.56"/>
					</g>
					<g>
						<circle fill="#7D7D69" cx="198.116" cy="207.857" r="2.041"/>
					</g>
				</g>
				<g>
					<g>
						<rect x="214.844" y="207.616" fill="#7D7D69" width="0.72" height="7.56"/>
					</g>
					<g>
						<circle fill="#7D7D69" cx="215.204" cy="207.857" r="2.041"/>
					</g>
				</g>
			</g>
			<g>
				<g>
					<rect x="32.125" y="207.498" fill="#7D7D69" width="229.268" height="0.72"/>
				</g>
				<g>
					<circle fill="#7D7D69" cx="44.332" cy="207.857" r="2.041"/>
				</g>
			</g>
		</g>
	</g>
</g>
</svg>
