<?xml version="1.0" encoding="utf-8"?>
<!-- Generator: Adobe Illustrator 16.0.0, SVG Export Plug-In . SVG Version: 6.00 Build 0)  -->
<!DOCTYPE svg PUBLIC "-//W3C//DTD SVG 1.1//EN" "http://www.w3.org/Graphics/SVG/1.1/DTD/svg11.dtd">
<svg version="1.1" id="Layer_1" xmlns="http://www.w3.org/2000/svg" xmlns:xlink="http://www.w3.org/1999/xlink" x="0px" y="0px"
	 width="273px" height="273px" viewBox="0 0 273 273" enable-background="new 0 0 273 273" xml:space="preserve">
<g>
	<circle fill="#F0C419" cx="136.641" cy="136.5" r="136.641"/>
	<g>
		<path fill="#04A2AE" d="M150.085,139.111c-10.73,7.207-21.627,10.191-32.568,8.883c-31.065-3.713-50.289-40.653-51.09-42.23
			c-0.178-0.341-0.223-0.711-0.302-1.068c-1.692-0.114-2.881-0.912-3.007-2.268c-0.202-2.136-1.998-6.21-4.014-9.091l-3.549-5.071
			c-2.022-2.888-0.946-6.131,2.391-7.249l9.421-3.15c3.339-1.118,6.042,0.83,6.038,4.353l-0.009,5.633
			c-0.004,3.522,1.025,7.923,2.307,9.827c0.959,1.432,0.258,3.2-1.564,4.491c1.701,3.174,19.077,34.385,44.413,37.396
			c8.686,1.029,17.5-1.416,26.354-7.235l5.189,6.78C150.093,139.111,150.087,139.111,150.085,139.111z"/>
		<path fill="#04A2AE" d="M156.722,66.271c-17.811-19.951-56.022-14.967-56.407-14.914c-0.063,0.006-0.114-0.018-0.18-0.012
			c0,0,0.191,0.684,0.421,1.532c0.234,0.847-1.434,1.568-3.724,1.615c-2.297,0.039-6.491,1.717-9.372,3.74l-4.608,3.235
			c-2.885,2.028-6.031,0.927-7.028-2.448l-2.82-9.525c-0.999-3.377,1.046-6.116,4.569-6.113h6.178c3.524,0,7.891-0.862,9.756-1.922
			c1.866-1.068,3.618-1.07,3.908-0.012l0.527,1.912c0.381-0.179,0.764-0.36,1.205-0.422c1.748-0.24,43.036-5.674,63.888,17.65
			c6.945,7.771,10.697,17.724,11.297,29.713l-8.488,0.144C165.292,80.568,162.259,72.475,156.722,66.271z"/>
		<path fill="#04A2AE" d="M93.979,199.965c0.056-0.695,0.162-1.334,0.24-2.018c-0.045,0.023-0.082,0.049-0.129,0.07l0.837-4.906
			c0.025-0.004,0.052-0.01,0.078-0.021c1.906-8.998,6.078-15.701,12.512-19.887c12.352-8.041,29.336-4.668,41.404-0.416
			c1.861,0.648,3.736,1.332,5.639,2.023c20.725,7.551,40.334,14.688,52.324-8.336c0.191-0.369,0.389-0.754,0.57-1.141
			c3.24-6.619,3.656-12.383,1.277-17.617c-4.383-9.629-17.018-14.937-22.445-16.826c-0.082,0.064-0.172,0.114-0.256,0.174
			l2.682-8.786c0.063,0.167,0.125,0.335,0.174,0.507c6.469,2.221,21.754,8.648,27.566,21.376c3.463,7.596,3.008,15.973-1.363,24.898
			c-0.23,0.484-0.459,0.951-0.697,1.41c-15.396,29.563-41.617,20.023-62.736,12.33c-1.869-0.686-3.711-1.357-5.549-1.996
			c-14.516-5.102-26.566-5.279-33.952-0.479c-3.712,2.42-6.378,6.219-8.004,11.299c0.031,0,0.063-0.002,0.095-0.006l-1.106,4.58
			c-0.035-0.004-0.063-0.01-0.098-0.012c-0.253,1.42-0.462,2.883-0.588,4.455c-0.194,2.338-2.234,4.086-4.572,3.896
			C95.532,204.354,93.797,202.309,93.979,199.965z"/>
		<path fill="#FFFFFF" d="M73.976,222.18c-0.045-2.076,1.764-1.514,4.715,0.414c4.404,2.877,11.913,5.85,22.773,3.836
			c13.693-2.533,20.687-7.395,24.184-11.193c2.388-2.59,3.462-3.08,3.587-0.273c0.124,2.811-1.714,7.238-4.752,9.023
			c-3.871,2.289-10.479,5.119-21.346,7.273c-11.843,2.338-19.471,0.48-23.926-1.658C76.043,228.082,74.016,224.252,73.976,222.18z"
			/>
		<path fill="#FFFFFF" d="M73.334,213.533c-1.56-8.127,7.924-16.875,21.593-20.422l-0.837,4.906
			c-3.197,1.627-5.159,4.051-4.715,6.357c0.627,3.281,5.794,5.041,11.533,3.945c5.74-1.1,9.888-4.645,9.263-7.916
			c-0.458-2.379-3.311-3.934-7.032-4.205l1.106-4.58c12.693-0.779,23.153,3.736,24.598,11.283
			c1.682,8.734-9.391,18.201-24.723,21.137C88.793,226.977,75.008,222.273,73.334,213.533z"/>
		<path fill="#FFFFFF" d="M68.789,76.435c-0.654-1.019-1.573-1.883-2.721-2.479c-3.504-1.826-7.838-0.465-9.668,3.046
			c-0.651,1.259-0.894,2.62-0.777,3.937L68.789,76.435z"/>
		<path fill="#FFFFFF" d="M75.466,61.008l-3.858-13.371c-1.147,0.657-2.125,1.637-2.779,2.893c-1.83,3.512-0.462,7.838,3.048,9.668
			C73.024,60.794,74.255,61.052,75.466,61.008z"/>
		<path fill="#FFFFFF" d="M178.263,131.792l-10.119-4.841l-9.977,10.3c-2.152,2.232-5.334,2.846-8.072,1.859l-5.189-6.78
			c0.051-0.032,0.1-0.062,0.15-0.097c-0.084-2.018,0.615-4.066,2.129-5.626l12.168-12.562l3.244-18.51
			c0.375-2.124,1.598-3.881,3.254-5.002c-0.002-0.028-0.004-0.059-0.008-0.091l8.488-0.144c0.002,0.059,0.008,0.12,0.01,0.182
			c2.459,1.628,3.859,4.605,3.318,7.691l-2.648,15.11l9.852,4.706c1.883,0.899,4.381,3.231,5.039,5.045l-3.615,7.855
			C184.095,132.473,180.882,133.044,178.263,131.792z"/>
	</g>
</g>
</svg>
