<?xml version="1.0" encoding="utf-8"?>
<!-- Generator: Adobe Illustrator 16.0.0, SVG Export Plug-In . SVG Version: 6.00 Build 0)  -->
<!DOCTYPE svg PUBLIC "-//W3C//DTD SVG 1.1//EN" "http://www.w3.org/Graphics/SVG/1.1/DTD/svg11.dtd">
<svg version="1.1" id="Layer_1" xmlns="http://www.w3.org/2000/svg" xmlns:xlink="http://www.w3.org/1999/xlink" x="0px" y="0px"
	 width="273px" height="273px" viewBox="0 0 273 273" enable-background="new 0 0 273 273" xml:space="preserve">
<g>
	<circle fill="#7DC9F0" cx="136.5" cy="136.5" r="136.642"/>
	<g>
		<polygon fill="#F2B020" points="82.731,133.892 128.735,143.559 161.788,146.301 196.171,137.332 196.171,212.076 
			165.039,217.021 122.015,221.045 86.046,216.063 		"/>
		<ellipse fill="#FBF5DD" cx="135.131" cy="117.275" rx="78.731" ry="26.284"/>
		<g>
			<g>
				<path fill="#4F99B7" d="M106.087,93.383c9.375-1.318,19.299-1.983,29.473-1.983c10.69,0,21.002,0.718,30.647,2.131l0.47,0.064
					l4.891-4.9l-1.801-0.289c-10.798-1.75-22.309-2.641-34.207-2.641c-11.44,0-22.563,0.836-33.035,2.461l-1.824,0.287l4.932,4.923
					L106.087,93.383z"/>
			</g>
		</g>
		<g>
			<g>
				<g>
					<path fill="#4F99B7" d="M183.07,91.133l-0.52-0.131l-4.669,4.648l1.646,0.389c19.977,4.73,32.893,12.637,32.893,20.156
						c0,4.648-5.166,9.679-14.22,13.912v-1.012h-5.634v3.345c-7.661,2.846-17.141,5.104-27.532,6.567v-0.943h-5.634v1.67
						c-7.637,0.824-15.658,1.248-23.845,1.248c-2.71,0-5.563-0.059-8.696-0.176v-2.746h-5.631v2.445
						c-12.104-0.75-23.145-2.436-32.862-5v-3.271h-5.636v1.657c-14.862-4.754-24.033-11.484-24.033-17.696
						c0-7.679,13.332-15.679,33.977-20.389l1.66-0.375l-4.681-4.684l-0.517,0.126c-19.899,4.882-32.745,12.742-35.472,21.646h-0.593
						v81.682c0,9.336,10.797,17.926,29.665,23.605v2.902h5.634v-1.383c9.815,2.469,20.867,4.096,32.863,4.832v3.121h5.636v-2.828
						c3.148,0.117,6.004,0.176,8.69,0.176c8.167,0,16.179-0.422,23.846-1.236v1.363h5.636v-2.074
						c11.25-1.521,21.13-3.85,29.394-6.904h3.771v-1.514c10.26-4.367,16.789-9.748,18.986-15.613h0.854v-81.685l-0.039-0.342
						c0.029-0.146,0.039-0.287,0.039-0.428C218.046,105.915,205.296,96.777,183.07,91.133z M121.235,146.148v72.381
						c-12.103-0.75-23.146-2.438-32.863-4.998v-72.213C98.185,143.785,109.235,145.412,121.235,146.148z M192.571,138.457v71.996
						c-7.661,2.844-17.142,5.107-27.532,6.568v-72.35C175.496,143.254,184.741,141.164,192.571,138.457z"/>
				</g>
			</g>
		</g>
		<g>
			<g>
				<path fill="#3D3340" d="M150.247,107.445c-1.251,1.244-1.927,2.895-1.927,4.649c0,1.751,0.683,3.399,1.927,4.646
					c1.239,1.236,2.892,1.921,4.648,1.921c1.756,0,3.4-0.685,4.641-1.921c1.795-1.794,2.368-4.469,1.529-6.843l60.195-60.193
					l-3.975-3.986l-60.2,60.201C154.7,105.083,151.996,105.692,150.247,107.445z"/>
			</g>
		</g>
		<g>
			<g>
				<path fill="#3D3340" d="M113.467,116.978c1.238,1.241,2.887,1.922,4.648,1.922c1.758,0,3.401-0.681,4.638-1.922
					c1.248-1.248,1.932-2.898,1.932-4.649c0-1.755-0.684-3.397-1.932-4.645c-1.755-1.759-4.465-2.358-6.832-1.53L55.717,45.953
					l-3.978,3.984l60.195,60.195C111.1,112.513,111.677,115.184,113.467,116.978z"/>
			</g>
		</g>
	</g>
</g>
</svg>
