<?xml version="1.0" encoding="utf-8"?>
<!-- Generator: Adobe Illustrator 16.0.0, SVG Export Plug-In . SVG Version: 6.00 Build 0)  -->
<!DOCTYPE svg PUBLIC "-//W3C//DTD SVG 1.1//EN" "http://www.w3.org/Graphics/SVG/1.1/DTD/svg11.dtd">
<svg version="1.1" id="Layer_1" xmlns="http://www.w3.org/2000/svg" xmlns:xlink="http://www.w3.org/1999/xlink" x="0px" y="0px"
	 width="273px" height="273px" viewBox="0 0 273 273" enable-background="new 0 0 273 273" xml:space="preserve">
<g>
	<circle fill="#DCDBDB" cx="136.5" cy="136.501" r="136.642"/>
	<g>
		<path fill-rule="evenodd" clip-rule="evenodd" fill="#FAAE80" d="M118.229,213.487c0,0-1.192-10.929-1.476-13.295
			c-0.096-0.784-0.299-2.63-0.518-4.913c-1.617-6.935-3.266-13.846-6.006-20.007c-2.488-5.595-6.846-9.049-11.681-12.087
			c-4.22-2.654-8.522-5.246-11.534-9.351c-0.559-0.611-0.984-1.303-1.387-2.014c-2.238-1.418-4.082-4.015-6.723-4.976
			c-0.481-0.017-0.964,0.095-1.433,0.384c-4.614,2.844-1.477,7.885,0.97,11.048c3.582,4.634,6.973,9.415,10.049,14.401
			c2.834,4.596,5.146,10.637,10.391,12.99c0.943,0.425,0.274,1.881-0.667,1.459c-5.963-2.679-8.511-9.559-11.792-14.734
			c-1.846-2.912-3.776-5.77-5.805-8.555c-1.755-2.409-3.869-4.686-5.383-7.254c-1.092-1.848-2.063-4.094-1.729-6.297
			c0.285-1.886,1.598-3.831,3.417-4.61c-0.061-0.044-0.124-0.085-0.192-0.122c-0.103-0.42-0.326-0.806-0.675-1.073
			c-1.369-2.118-3.342-4.261-3.291-7.269c-0.073-0.166-0.143-0.33-0.212-0.498c-0.02-0.051-0.039-0.094-0.055-0.134
			c-0.014-0.048-0.031-0.109-0.054-0.187c-0.913-3.111-1.218-6.623-3.593-8.543c-0.092-0.073-0.189-0.137-0.287-0.195
			c-0.104-0.192-0.326-0.394-0.709-0.648c-0.988-0.661-2.188-0.709-3.55-0.289c0.278-3.29-0.755-5.718-3.457-7.05
			c-0.819-3.259-6.322-4.851-9.489-0.501c0.057,1.007,0.939,4.36,0.57,5.091c-1.119,1.006-1.08,1.984-0.451,4.691
			c0.788,3.673,1.574,7.343,2.361,11.016c0.432,2.103,0.862,4.207,1.294,6.311c1.671,7.212,3.438,11.187,6.363,17.506
			c0.849,1.926,1.652,3.884,1.849,6.329c0.74,2.293,1.533,4.55,3.586,5.938c2.424,2.399,4.215,5.46,6.404,8.108
			c2.497,3.019,5.146,5.867,7.797,8.726c2.545,2.742,4.676,5.85,6.988,8.827c0.191,0.243,0.385,0.48,0.582,0.714
			c1.465,2.986,2.4,6.311,2.67,10.102c0.306,4.307-0.385,9.08-1.209,13.758c-0.217,1.229,0.486,1.627,1.355,1.443
			c1.509,1.652,4.677,3.924,7.217,3.725c3.553-0.279,6.592-2.402,10.393-5.472c3.801-3.072,8.002-7.819,8.793-9.748
			C118.714,214.302,118.113,213.396,118.229,213.487z"/>
		<path fill-rule="evenodd" clip-rule="evenodd" fill="#FAAE80" d="M154.771,213.487c0,0,1.191-10.929,1.477-13.295
			c0.094-0.784,0.298-2.63,0.518-4.913c1.615-6.935,3.266-13.846,6.006-20.007c2.486-5.595,6.844-9.049,11.681-12.087
			c4.221-2.654,8.522-5.246,11.532-9.351c0.561-0.611,0.986-1.303,1.389-2.014c2.236-1.418,4.082-4.015,6.722-4.976
			c0.48-0.017,0.963,0.095,1.433,0.384c4.615,2.844,1.478,7.885-0.971,11.048c-3.58,4.634-6.971,9.415-10.047,14.401
			c-2.835,4.596-5.146,10.637-10.391,12.99c-0.945,0.425-0.274,1.881,0.667,1.459c5.961-2.679,8.509-9.559,11.79-14.734
			c1.846-2.912,3.776-5.77,5.807-8.555c1.755-2.409,3.869-4.686,5.383-7.254c1.092-1.848,2.063-4.094,1.729-6.297
			c-0.285-1.886-1.598-3.831-3.417-4.61c0.059-0.044,0.124-0.085,0.192-0.122c0.103-0.42,0.326-0.806,0.675-1.073
			c1.369-2.118,3.34-4.261,3.291-7.269c0.071-0.166,0.143-0.33,0.21-0.498c0.023-0.051,0.039-0.094,0.058-0.134
			c0.011-0.048,0.028-0.109,0.051-0.187c0.913-3.111,1.22-6.623,3.597-8.543c0.088-0.073,0.188-0.137,0.285-0.195
			c0.102-0.192,0.324-0.394,0.707-0.648c0.988-0.661,2.189-0.709,3.551-0.289c-0.277-3.29,0.756-5.718,3.458-7.05
			c0.819-3.259,6.322-4.851,9.487-0.501c-0.056,1.007-0.939,4.36-0.569,5.091c1.118,1.006,1.08,1.984,0.452,4.691
			c-0.788,3.673-1.573,7.343-2.363,11.016c-0.43,2.103-0.862,4.207-1.294,6.311c-1.67,7.212-3.438,11.187-6.362,17.506
			c-0.848,1.926-1.652,3.884-1.85,6.329c-0.74,2.293-1.531,4.55-3.586,5.938c-2.424,2.399-4.215,5.46-6.404,8.108
			c-2.495,3.019-5.146,5.867-7.795,8.726c-2.547,2.742-4.676,5.85-6.99,8.827c-0.189,0.243-0.385,0.48-0.58,0.714
			c-1.467,2.986-2.402,6.311-2.672,10.102c-0.306,4.307,0.385,9.08,1.213,13.758c0.215,1.229-0.489,1.627-1.358,1.443
			c-1.508,1.652-4.678,3.924-7.217,3.725c-3.552-0.279-6.589-2.402-10.392-5.472c-3.803-3.072-8.002-7.819-8.793-9.748
			C154.286,214.302,154.887,213.396,154.771,213.487z"/>
		<g>
			<path fill-rule="evenodd" clip-rule="evenodd" fill="#EF444E" d="M136.187,157.857c-7.318-3.292-69.988-42.487-69.988-81.496
				c0-19.431,16.656-34.826,36.086-34.826s34.242,18.929,34.242,26.749c0-7.82,14.131-26.749,33.563-26.749
				c19.429,0,36.085,15.396,36.085,34.826C206.175,115.37,143.505,154.565,136.187,157.857z"/>
			<path opacity="0.1" fill-rule="evenodd" clip-rule="evenodd" fill="#FFFFFF" d="M109.351,135.916
				c-47.188-38.357-45.424-65.864-31.29-81.761c14.13-15.899,38.606-8.581,42.646-3.283c-6.056-0.504-25.739,4.796-30.787,22.459
				C84.872,90.997,90.425,107.4,109.351,135.916z"/>
		</g>
	</g>
</g>
</svg>
