<?xml version="1.0" encoding="utf-8"?>
<!-- Generator: Adobe Illustrator 16.0.0, SVG Export Plug-In . SVG Version: 6.00 Build 0)  -->
<!DOCTYPE svg PUBLIC "-//W3C//DTD SVG 1.1//EN" "http://www.w3.org/Graphics/SVG/1.1/DTD/svg11.dtd">
<svg version="1.1" id="Layer_1" xmlns="http://www.w3.org/2000/svg" xmlns:xlink="http://www.w3.org/1999/xlink" x="0px" y="0px"
	 width="273px" height="273px" viewBox="0 0 273 273" enable-background="new 0 0 273 273" xml:space="preserve">
<g>
	<circle fill="#7AC47A" cx="136.515" cy="136.641" r="136.642"/>
	<g>
		<g>
			
				<rect x="156.637" y="116.424" transform="matrix(-0.8137 0.5814 -0.5814 -0.8137 379.1726 127.9071)" fill="#FFFFFF" width="24.9" height="16.601"/>
			<polygon fill="#058D9C" points="96.545,54.127 125.811,33.215 112.948,15.2 83.675,36.112 			"/>
			
				<rect x="106.152" y="23.906" transform="matrix(-0.8137 0.5813 -0.5813 -0.8137 275.6234 50.7823)" fill="#C78C3A" width="47.042" height="91.313"/>
			
				<rect x="136.719" y="99.891" transform="matrix(-0.8137 0.5813 -0.5813 -0.8137 355.927 110.5939)" fill="#058D9C" width="47.039" height="24.9"/>
		</g>
		<g>
			<rect x="121" y="172" fill="#F37159" width="59" height="53"/>
			<path fill="#048D9B" d="M66.063,130.219C66.063,99.957,90,75.334,121,75.334v19.369c-23,0-35.568,16.064-35.568,35.648
				c0,19.568,13.298,35.648,35.401,35.648H207v20h-86.138c-0.02,0,0,0-0.02,0l-5.46-0.616l0,0
				C87.572,182.609,66.063,158.624,66.063,130.219z"/>
			<rect x="66" y="220" fill="#048D9B" width="141" height="10"/>
			<circle fill="#F37159" cx="114.507" cy="83.499" r="21.355"/>
			<path fill="#FFFFFF" d="M99.587,83.499c0,8.239,6.679,14.92,14.918,14.92c8.24,0,14.922-6.681,14.922-14.92
				c0-8.243-6.682-14.919-14.922-14.919C106.266,68.58,99.587,75.256,99.587,83.499z"/>
		</g>
	</g>
</g>
</svg>
