<?xml version="1.0" encoding="utf-8"?>
<!-- Generator: Adobe Illustrator 16.0.0, SVG Export Plug-In . SVG Version: 6.00 Build 0)  -->
<!DOCTYPE svg PUBLIC "-//W3C//DTD SVG 1.1//EN" "http://www.w3.org/Graphics/SVG/1.1/DTD/svg11.dtd">
<svg version="1.1" id="Layer_1" xmlns="http://www.w3.org/2000/svg" xmlns:xlink="http://www.w3.org/1999/xlink" x="0px" y="0px"
	 width="273px" height="273px" viewBox="0 0 273 273" enable-background="new 0 0 273 273" xml:space="preserve">
<g>
	<circle fill="#DCDBDB" cx="136.5" cy="136.5" r="136.642"/>
	<g>
		<path fill="#F15D4A" d="M222.373,81.024c-1.679-1.682-4.402-1.679-6.08,0c-0.498,0.504-1.294,0.114-2.123-0.711
			c-4.934-4.898-21.271-21.141-21.863-21.872c-0.699-0.862-0.568-1.5-0.333-1.735c1.679-1.678,1.682-4.401,0.005-6.078
			c-1.68-1.68-4.403-1.678-6.081,0c-12.757,12.84-16.088,29.546-17.932,45.84c-0.067,0.584-0.292,0.84-0.809,0.889
			c-18.762,1.863-38.569,3.142-52.694,17.106c-13.964,14.126-15.236,33.93-17.103,52.689c-0.039,0.418-0.501,0.77-1.052,0.832
			c-16.243,1.846-32.876,5.194-45.681,17.913c-1.677,1.677-1.679,4.401,0,6.08c1.676,1.677,4.402,1.677,6.08,0
			c0.398-0.402,0.806-0.79,1.218-1.168c0.623-0.571,1.028-0.666,1.914,0.218c4.454,4.446,22.022,21.99,22.43,22.431
			c0.466,0.501,0.246,1.262,0.006,1.527c-0.403,0.443-0.82,0.88-1.252,1.306c-1.675,1.682-1.679,4.401,0,6.082
			c1.677,1.677,4.402,1.677,6.08,0c12.734-12.822,16.075-29.483,17.921-45.752c0.077-0.663,0.196-0.925,0.822-0.983
			c18.76-1.862,38.562-3.138,52.688-17.102c13.966-14.127,15.247-33.932,17.107-52.694c0.047-0.515,0.296-0.74,0.896-0.809
			c16.292-1.845,32.995-5.175,45.836-17.931C224.051,85.426,224.051,82.702,222.373,81.024z M91.553,199.259
			c-0.854,2.342-1.841,4.603-2.995,6.77c-0.151,0.287-0.763,0.562-1.293,0.034c-3.802-3.806-19.487-19.499-20.196-20.195
			c-0.805-0.79-0.24-1.351,0.119-1.54c2.167-1.14,4.429-2.118,6.772-2.959c0.364-0.131,1.305-0.209,1.808,0.322
			c0.427,0.453,11.937,11.943,15.319,15.322C92.001,197.927,91.907,198.287,91.553,199.259z M96.275,177.475
			c-0.393,3.209-0.854,6.36-1.435,9.428c-0.078,0.413-0.359,1.171-0.957,0.515c-0.478-0.526-6.037-6.059-8.183-8.189
			c-0.516-0.513,0.042-1.004,0.481-1.087c3.021-0.567,6.123-1.021,9.274-1.409C95.952,176.671,96.346,176.892,96.275,177.475z
			 M109.998,166.614c-0.992,0.097-1.985,0.191-2.988,0.283c-0.786,0.075-0.949-0.429-0.896-1.013
			c0.09-0.974,0.184-1.947,0.277-2.913c0.034-0.362,0.258-0.957,0.954-0.239c0.441,0.458,1.856,1.867,2.822,2.829
			C110.712,166.104,110.372,166.576,109.998,166.614z M131.83,163.25c-2.794,0.712-5.701,1.289-8.713,1.767
			c-0.315,0.05-1.016,0.043-1.67-0.572c-0.547-0.52-9.839-9.834-12.747-12.75c-0.875-0.875-0.782-1.429-0.649-2.244
			c0.449-2.748,0.979-5.411,1.625-7.979c0.24-0.967,0.809-0.786,1.371-0.305c0,0,20.33,20.388,20.903,20.904
			C132.523,162.589,132.176,163.163,131.83,163.25z M149.06,155.435c-1.859,1.432-3.862,2.666-5.986,3.738
			c-0.798,0.402-1.291,0.338-1.991-0.365c-4.744-4.743-26.637-26.632-27.078-27.077c-0.495-0.5-0.421-1.312-0.274-1.608
			c1.091-2.19,2.35-4.253,3.817-6.166c0.247-0.322,1.124-0.424,1.359-0.189c0,0,29.452,29.412,30.011,30.008
			C149.475,154.372,149.344,155.215,149.06,155.435z M160.006,141.363c-0.955,2.11-2.056,4.11-3.328,5.984
			c-0.243,0.354-1.062,0.739-1.839-0.044c-0.779-0.783-29.735-29.734-29.735-29.734c-0.269-0.27-0.184-0.74,0.251-1.041
			c1.961-1.36,4.057-2.529,6.279-3.533c0.409-0.185,1.238-0.482,2.296,0.521c0.927,0.88,20.674,20.66,25.539,25.533
			C160.15,139.736,160.189,140.955,160.006,141.363z M165.358,120.813c-0.432,3.045-0.947,6-1.589,8.844
			c-0.075,0.354-0.407,0.876-1.026,0.279c-0.613-0.596-18.988-18.976-19.652-19.654s-0.097-0.977,0.263-1.059
			c2.688-0.602,5.478-1.095,8.35-1.512c0.488-0.071,1.259-0.433,2.195,0.506c0.784,0.783,8.327,8.327,10.812,10.812
			C165.204,119.522,165.406,120.481,165.358,120.813z M166.746,108.666l-2.411-2.409c0.88-0.083,1.768-0.166,2.655-0.246
			C166.908,106.899,166.826,107.788,166.746,108.666z M189.415,94.325c-3.016,0.645-6.136,1.139-9.303,1.57
			c-3.207,0.439-3.431,0.047-3.009-3.008c0.426-3.137,0.915-6.223,1.551-9.212c0.065-0.314,0.521-0.706,1.02-0.209
			c2.45,2.434,9.674,9.618,9.946,9.95C189.947,93.819,189.721,94.261,189.415,94.325z M206.984,88.052
			c-1.76,0.985-3.587,1.858-5.471,2.633c-0.53,0.217-1.683,0.383-2.677-0.452c-0.811-0.682-11.689-11.642-15.687-15.677
			c-0.91-0.915-1.021-2.619-0.786-3.186c0.786-1.903,1.674-3.746,2.678-5.523c0.275-0.481,1.32-0.96,2.123-0.159
			c4.445,4.424,19.006,18.932,19.982,19.987C208.295,86.921,207.521,87.75,206.984,88.052z"/>
		<g>
			<path fill="#1F4D5C" d="M96.763,173.241c0.072-0.684,0.144-1.369,0.21-2.057c0.081-0.813-0.562-0.798-0.896-0.759
				c-15.895,1.83-31.6,5.094-43.747,17.167c-0.744,0.744-0.744,1.944,0,2.688c0.737,0.738,1.936,0.738,2.674,0.003
				c10.393-10.483,24.563-14.008,40.784-15.991C96.484,174.207,96.707,173.742,96.763,173.241z"/>
			<path fill="#1F4D5C" d="M190.282,52.326c-0.744-0.742-1.943-0.742-2.678-0.005c-14.372,14.459-16.278,33.943-18.13,52.925
				c-1.682,18.279-3.42,37.18-15.306,48.894c-11.098,11.264-28.614,13.431-46.063,15.067c-0.126,1.272-0.256,2.553-0.387,3.838
				l0.675-0.067c17.521-1.709,35.631-3.471,48.431-16.131c12.685-12.828,14.446-30.947,16.157-48.469l0.271-2.756
				c1.896-20.33,4.478-38.172,17.022-50.617C191.016,54.264,191.016,53.063,190.282,52.326z"/>
		</g>
		<path fill="#1F4D5C" d="M98.34,180.046c-2.058,15.04-5.758,28.166-15.614,37.944c-0.743,0.744-0.743,1.942-0.003,2.684
			c0.743,0.74,1.941,0.74,2.678,0.007c11.385-11.462,14.935-26.074,16.849-41.09l1.328-12.366
			c1.671-18.114,3.489-36.766,15.255-48.366c11.476-11.641,29.779-13.565,47.779-15.228c0.206-0.021,0.663-0.531,0.685-0.768
			c0.08-0.812,0.162-1.626,0.249-2.444c0.053-0.539-0.224-0.753-0.568-0.638l-2.386,0.239c-17.509,1.709-35.622,3.475-48.416,16.131
			c-12.676,12.814-14.438,30.918-16.149,48.427L98.34,180.046z"/>
		<g>
			<path fill="#F15D4A" d="M162.061,136.323c0.162-0.537,0.326-1.08,0.484-1.63c0.229-0.803,0.169-1.395-0.772-2.341
				c-3.941-3.953-17.022-17.063-17.842-17.836c-0.968-0.913-1.899-0.847-2.308-0.727c-0.567,0.166-1.128,0.337-1.68,0.519
				c-0.46,0.149-1.145,0.74-0.23,1.599c0.771,0.728,15.888,15.872,20.532,20.527C161.093,137.284,161.904,136.816,162.061,136.323z"
				/>
			<path fill="#F15D4A" d="M166.359,116.27c0.149-0.992,0.296-1.986,0.438-2.983c0.046-0.342-0.036-1.201-0.443-1.616
				c-0.408-0.415-1.406-1.407-1.406-1.407c-0.413-0.386-0.602-0.416-1.246-0.35c-1.135,0.117-2.257,0.242-3.371,0.372
				c-0.57,0.065-0.471,0.453-0.237,0.739c0,0,5.129,5.146,5.474,5.473C165.911,116.823,166.315,116.564,166.359,116.27z"/>
			<path fill="#F15D4A" d="M153.554,152.573c0.202-0.211,0.397-0.428,0.593-0.648c0.937-1.078,0.326-1.507-0.274-2.19
				c0,0-26.095-26.178-26.936-26.937c-0.843-0.758-1.389-0.625-1.594-0.443c-0.521,0.469-1.032,0.952-1.531,1.457
				c-0.25,0.242-0.565,0.824,0.262,1.727c0.828,0.902,27.107,27.106,27.107,27.106C151.677,153.123,152.709,153.463,153.554,152.573
				z"/>
			<path fill="#F15D4A" d="M116.04,166.523c0.731-0.079,1.484-0.168,2.258-0.268c0.454-0.057,0.781-0.794-0.096-1.675
				c-1.954-1.965-5.256-5.276-6.16-6.153c-1.308-1.271-1.481-0.386-1.542,0.103c-0.085,0.698-0.168,1.401-0.249,2.109
				c-0.056,0.479-0.095,1.313,0.701,2.309c0.523,0.657,1.984,2.073,2.909,2.957C114.351,166.371,115.309,166.603,116.04,166.523z"/>
			<path fill="#F15D4A" d="M136.899,162.199c0.602-0.2,1.197-0.409,1.787-0.626c0.431-0.157,1.114-0.656,0.036-1.733
				c-1.076-1.079-21.93-21.931-21.93-21.931c-0.557-0.604-1.467-0.769-1.746-0.033c-0.223,0.602-0.438,1.21-0.645,1.824
				c-0.12,0.356-0.124,1.185,0.556,1.985c0.576,0.677,15.117,15.148,19.578,19.585C135.349,162.075,136.542,162.319,136.899,162.199
				z"/>
		</g>
		<g>
			<path fill="#F15D4A" d="M213.632,83.157l-20.308-20.305c-0.873,1.025-1.668,2.091-2.428,3.179l19.547,19.546
				C211.497,84.839,212.559,84.034,213.632,83.157z"/>
			<path fill="#F15D4A" d="M197.255,92.045l-12.803-12.804c-0.467,1.424-0.876,2.884-1.26,4.359l9.709,9.708
				C194.39,92.919,195.839,92.503,197.255,92.045z"/>
		</g>
		<g>
			<path fill="#F15D4A" d="M93.099,193.884c0.184-0.63,0.364-1.262,0.541-1.9c0.1-0.373,0.327-1.018-0.579-2.002
				c-0.676-0.734-4.425-4.454-6.284-6.296c-0.774-0.768-1.334-0.97-2.03-0.799c-0.824,0.204-1.642,0.423-2.453,0.651
				c-0.742,0.209-0.62,0.66-0.096,1.18c2.394,2.364,8.776,8.686,9.474,9.483C92.534,195.188,92.965,194.333,93.099,193.884z"/>
			<path fill="#F15D4A" d="M85.216,211.419c0.312-0.452,0.621-0.916,0.919-1.39c0.22-0.347,0.322-1.385-0.244-1.954
				c-3.547-3.556-16.475-16.524-17.219-17.213c-0.859-0.801-1.591-0.692-1.859-0.511c-0.517,0.349-1.025,0.708-1.526,1.08
				c-0.315,0.232-0.775,0.8-0.053,1.591c0.625,0.684,14.7,14.716,18.432,18.432C84.233,212.023,85,211.733,85.216,211.419z"/>
		</g>
		<g>
			<path fill="#1F4D5C" d="M220.675,82.721c-0.737-0.739-1.939-0.739-2.676-0.004c-9.406,9.481-21.897,13.269-36.197,15.369
				c-1.466,0.215-1.78,0.461-1.905,1.505c-0.045,0.369-0.087,0.738-0.127,1.107c-0.122,1.037,0.352,1.485,1.585,1.316
				c14.355-1.959,28.298-5.66,39.32-16.607C221.418,84.663,221.418,83.465,220.675,82.721z"/>
		</g>
	</g>
</g>
</svg>
