<?xml version="1.0" encoding="utf-8"?>
<!-- Generator: Adobe Illustrator 16.0.0, SVG Export Plug-In . SVG Version: 6.00 Build 0)  -->
<!DOCTYPE svg PUBLIC "-//W3C//DTD SVG 1.1//EN" "http://www.w3.org/Graphics/SVG/1.1/DTD/svg11.dtd">
<svg version="1.1" id="Layer_1" xmlns="http://www.w3.org/2000/svg" xmlns:xlink="http://www.w3.org/1999/xlink" x="0px" y="0px"
	 width="273px" height="273px" viewBox="0 0 273 273" enable-background="new 0 0 273 273" xml:space="preserve">
<g>
	<circle fill="#2C3E50" cx="136.5" cy="136.501" r="136.642"/>
	<g>
		<g>
			<ellipse fill="#EDEBD2" cx="137.663" cy="125.22" rx="55.222" ry="55.324"/>
			<path fill="#FFF7C5" d="M137.664,183.058c-31.833,0-57.727-25.946-57.727-57.838c0-31.893,25.894-57.837,57.727-57.837
				c31.832,0,57.729,25.944,57.729,57.837C195.393,157.111,169.496,183.058,137.664,183.058z M137.664,72.407
				c-29.064,0-52.714,23.689-52.714,52.813c0,29.122,23.649,52.813,52.714,52.813c29.063,0,52.715-23.69,52.715-52.813
				C190.379,96.097,166.728,72.407,137.664,72.407z"/>
		</g>
		<g>
			<defs>
				<ellipse id="SVGID_1_" cx="136.5" cy="139.778" rx="93.002" ry="93.174"/>
			</defs>
			<clipPath id="SVGID_2_">
				<use xlink:href="#SVGID_1_"  overflow="visible"/>
			</clipPath>
			<g clip-path="url(#SVGID_2_)">
				<g>
					<polyline fill="#8CBF3F" points="46.619,148.533 40.502,164.407 48.219,189.789 79.05,220.686 124.207,240.55 158.355,242.755 
						201.314,217.378 223.342,189.789 239.858,163.304 182.069,139.154 149.608,132.275 					"/>
				</g>
				<g>
					<path fill="#7AC47A" d="M38.304,150.062c0,0,14.312-15.446,64.979-20.964c50.668-5.521,118.964,4.407,137.68,22.067
						l-1.104,12.139c0,0-45.157-22.066-72.688-25.379c0,0,27.536,7.725,56.171,51.864c0,0-6.606,20.967-22.027,27.589
						c0,0-29.745-56.283-45.164-73.936c0,0,5.506,83.863,2.205,99.313c0,0-22.039-1.102-34.148-2.205c0,0,2.202-70.626,8.814-87.176
						c6.613-16.554,2.205-9.932,2.205-9.932S87.859,161.1,79.05,220.686c0,0-26.427-18.76-30.831-30.896
						c0,0,23.127-40.832,44.054-46.347c0,0-38.548,8.827-51.771,20.965C40.502,164.407,39.408,155.577,38.304,150.062z"/>
				</g>
			</g>
		</g>
		<g>
			<path fill="#FFF7C5" d="M71.4,128.313H56.869c-1.386,0-2.508-1.125-2.508-2.513s1.122-2.513,2.508-2.513H71.4
				c1.386,0,2.508,1.125,2.508,2.513S72.786,128.313,71.4,128.313z"/>
		</g>
		<g>
			<path fill="#FFF7C5" d="M73.334,111.03c-0.211,0-0.426-0.027-0.643-0.084l-14.049-3.719c-1.336-0.354-2.135-1.73-1.783-3.071
				c0.358-1.337,1.719-2.134,3.065-1.786l14.051,3.719c1.337,0.354,2.136,1.73,1.783,3.071
				C75.459,110.287,74.443,111.03,73.334,111.03z"/>
		</g>
		<g>
			<path fill="#FFF7C5" d="M79.613,94.813c-0.423,0-0.848-0.105-1.239-0.327l-12.642-7.186c-1.201-0.687-1.623-2.221-0.938-3.425
				c0.679-1.215,2.212-1.63,3.417-0.947l12.641,7.188c1.205,0.688,1.627,2.222,0.941,3.424
				C81.332,94.358,80.484,94.813,79.613,94.813z"/>
		</g>
		<g>
			<path fill="#FFF7C5" d="M89.811,80.741c-0.634,0-1.267-0.236-1.753-0.716L77.67,69.845c-0.99-0.971-1.009-2.562-0.042-3.553
				c0.966-0.986,2.551-1.009,3.548-0.037l10.387,10.179c0.988,0.971,1.01,2.563,0.037,3.552
				C91.113,80.489,90.459,80.741,89.811,80.741z"/>
		</g>
		<g>
			<path fill="#FFF7C5" d="M103.252,69.743c-0.853,0-1.685-0.438-2.156-1.226l-7.45-12.496c-0.706-1.192-0.315-2.732,0.868-3.443
				c1.188-0.71,2.729-0.327,3.444,0.867l7.448,12.497c0.713,1.191,0.318,2.732-0.866,3.443
				C104.133,69.626,103.693,69.743,103.252,69.743z"/>
		</g>
		<g>
			<path fill="#FFF7C5" d="M119.053,62.544c-1.088,0-2.092-0.717-2.41-1.818l-4.012-13.986c-0.383-1.332,0.388-2.727,1.715-3.109
				c1.346-0.384,2.717,0.387,3.102,1.721l4.02,13.986c0.379,1.332-0.389,2.727-1.717,3.109
				C119.516,62.514,119.285,62.544,119.053,62.544z"/>
		</g>
		<g>
			<path fill="#FFF7C5" d="M136.166,59.626c-1.361,0-2.478-1.09-2.508-2.459l-0.318-14.548c-0.027-1.386,1.067-2.534,2.453-2.566
				c1.621-0.033,2.532,1.072,2.563,2.458l0.318,14.548c0.027,1.388-1.067,2.534-2.453,2.567
				C136.203,59.626,136.185,59.626,136.166,59.626z"/>
		</g>
		<g>
			<path fill="#FFF7C5" d="M153.459,61.182c-0.192,0-0.391-0.024-0.587-0.07c-1.346-0.325-2.178-1.683-1.851-3.031l3.398-14.146
				c0.32-1.345,1.66-2.184,3.025-1.854c1.346,0.324,2.174,1.682,1.85,3.031l-3.4,14.145
				C155.619,60.408,154.594,61.182,153.459,61.182z"/>
		</g>
		<g>
			<path fill="#FFF7C5" d="M169.779,67.107c-0.4,0-0.813-0.097-1.189-0.301c-1.217-0.657-1.676-2.183-1.018-3.403l6.891-12.806
				c0.66-1.226,2.184-1.686,3.398-1.017c1.217,0.655,1.676,2.179,1.018,3.4l-6.891,12.807
				C171.532,66.629,170.673,67.107,169.779,67.107z"/>
		</g>
		<g>
			<path fill="#FFF7C5" d="M184.051,77.015c-0.617,0-1.229-0.227-1.713-0.681c-1.009-0.946-1.064-2.537-0.119-3.55l9.926-10.617
				c0.947-1.013,2.535-1.062,3.548-0.115c1.009,0.947,1.062,2.537,0.116,3.55l-9.926,10.616
				C185.388,76.747,184.725,77.015,184.051,77.015z"/>
		</g>
		<g>
			<path fill="#FFF7C5" d="M195.325,90.241c-0.832,0-1.651-0.416-2.126-1.176c-0.736-1.178-0.382-2.727,0.793-3.467l12.301-7.727
				c1.188-0.733,2.729-0.382,3.457,0.796c0.736,1.174,0.385,2.725-0.793,3.464l-12.301,7.727
				C196.24,90.119,195.777,90.241,195.325,90.241z"/>
		</g>
		<g>
			<path fill="#FFF7C5" d="M206.137,122.993c-1.336,0-2.443-1.053-2.504-2.403c-0.062-1.387,1.012-2.558,2.397-2.619l14.504-0.64
				c1.395-0.144,2.554,1.016,2.618,2.401c0.059,1.386-1.016,2.557-2.401,2.619l-14.507,0.638
				C206.211,122.993,206.171,122.993,206.137,122.993z"/>
		</g>
		<g>
			<path fill="#FFF7C5" d="M202.853,105.913c-1.071,0-2.062-0.691-2.397-1.768c-0.407-1.322,0.33-2.731,1.65-3.145l13.865-4.323
				c1.352-0.406,2.731,0.329,3.141,1.653c0.41,1.326-0.33,2.734-1.651,3.147l-13.864,4.321
				C203.345,105.875,203.098,105.913,202.853,105.913z"/>
		</g>
	</g>
</g>
</svg>
