<?xml version="1.0" encoding="utf-8"?>
<!-- Generator: Adobe Illustrator 16.0.0, SVG Export Plug-In . SVG Version: 6.00 Build 0)  -->
<!DOCTYPE svg PUBLIC "-//W3C//DTD SVG 1.1//EN" "http://www.w3.org/Graphics/SVG/1.1/DTD/svg11.dtd">
<svg version="1.1" id="Layer_1" xmlns="http://www.w3.org/2000/svg" xmlns:xlink="http://www.w3.org/1999/xlink" x="0px" y="0px"
	 width="273px" height="273px" viewBox="0 0 273 273" enable-background="new 0 0 273 273" xml:space="preserve">
<g>
	<circle fill="#2C3E50" cx="136.501" cy="136.5" r="136.642"/>
	<g>
		<g>
			<polygon fill="#FEDE5E" points="113.228,168.579 119.169,138.542 96.55,117.904 126.952,114.274 139.588,86.384 152.436,114.178 
				182.867,117.577 160.404,138.385 166.578,168.374 139.846,153.442 			"/>
			<polygon fill="#E4B92C" points="139.707,127.481 96.55,117.904 119.169,138.542 			"/>
			<polygon fill="#E4B92C" points="139.707,127.481 113.228,168.579 139.846,153.442 166.578,168.374 			"/>
			<polygon fill="#E4B92C" points="139.707,127.481 182.867,117.577 160.404,138.385 			"/>
			<polygon fill="#E4B92C" points="139.588,86.384 139.707,127.481 152.436,114.178 			"/>
		</g>
		<g>
			<g>
				<path fill="#E4B92C" d="M98.719,83.633c0,0-5.914-14.701-17.252-9.993C81.467,73.64,81.244,84.909,98.719,83.633z"/>
				<path fill="#FEDE5E" d="M89.965,55.386c0,0,3.457,15.465-8.552,18.009C81.414,73.395,74.843,64.234,89.965,55.386z"/>
			</g>
			<g>
				<path fill="#E4B92C" d="M87.559,94.479c0,0-9.514-12.674-19.249-5.19C68.31,89.289,71.014,100.23,87.559,94.479z"/>
				<path fill="#FEDE5E" d="M71.794,69.457c0,0,7.342,14.044-3.601,19.606C68.194,89.063,59.481,81.92,71.794,69.457z"/>
			</g>
			<g>
				<path fill="#E4B92C" d="M79.586,107.843c0,0-12.469-9.777-19.936-0.034C59.651,107.809,65.094,117.683,79.586,107.843z"/>
				<path fill="#FEDE5E" d="M57.885,87.752c0,0,10.725,11.666,1.596,19.87C59.481,107.622,49.213,102.977,57.885,87.752z"/>
			</g>
			<g>
				<path fill="#E4B92C" d="M75.348,122.813c0,0-14.577-6.215-19.27,5.128C56.079,127.941,63.89,136.068,75.348,122.813z"/>
				<path fill="#FEDE5E" d="M49.184,109.024c0,0,13.381,8.492,6.686,18.78C55.87,127.805,44.747,125.978,49.184,109.024z"/>
			</g>
			<g>
				<path fill="#E4B92C" d="M75.126,138.371c0,0-15.688-2.232-17.281,9.939C57.845,148.311,67.493,154.142,75.126,138.371z"/>
				<path fill="#FEDE5E" d="M46.283,131.825c0,0,15.124,4.737,11.32,16.406C57.603,148.231,46.39,149.345,46.283,131.825z"/>
			</g>
			<g>
				<path fill="#E4B92C" d="M78.937,153.453c0,0-15.729,1.909-14.116,14.075C64.821,167.528,75.645,170.663,78.937,153.453z"/>
				<path fill="#FEDE5E" d="M49.385,154.598c0,0,15.833,0.663,15.187,12.917C64.572,167.515,54.024,171.492,49.385,154.598z"/>
			</g>
			<g>
				<path fill="#E4B92C" d="M86.528,167.041c0,0-14.705,5.912-10.001,17.247C76.527,184.288,87.796,184.515,86.528,167.041z"/>
				<path fill="#FEDE5E" d="M58.272,175.793c0,0,15.47-3.459,18.013,8.547C76.285,184.34,67.128,190.913,58.272,175.793z"/>
			</g>
			<g>
				<path fill="#E4B92C" d="M97.37,178.195c0,0-12.67,9.52-5.192,19.251C92.177,197.446,103.116,194.75,97.37,178.195z"/>
				<path fill="#FEDE5E" d="M72.347,193.964c0,0,14.048-7.346,19.606,3.593C91.954,197.557,84.811,206.275,72.347,193.964z"/>
			</g>
			<g>
				<path fill="#E4B92C" d="M110.731,186.167c0,0-9.774,12.474-0.031,19.938C110.7,206.105,120.568,200.67,110.731,186.167z"/>
				<path fill="#FEDE5E" d="M90.643,207.873c0,0,11.665-10.729,19.871-1.602C110.514,206.271,105.873,216.541,90.643,207.873z"/>
			</g>
			<g>
				<path fill="#E4B92C" d="M125.702,190.404c0,0-6.213,14.579,5.127,19.271C130.829,209.675,138.955,201.872,125.702,190.404z"/>
				<path fill="#FEDE5E" d="M111.918,216.571c0,0,8.486-13.38,18.777-6.688C130.696,209.884,128.866,221.006,111.918,216.571z"/>
			</g>
			<path fill="#FEDE5E" d="M113.072,62.235c0,0-15.136-4.7-18.646,7.062C94.426,69.297,103.021,76.587,113.072,62.235z"/>
			<g>
				<path fill="#FEDE5E" d="M174.283,83.633c0,0,5.914-14.701,17.252-9.993C191.535,73.64,191.76,84.909,174.283,83.633z"/>
				<path fill="#E4B92C" d="M183.035,55.386c0,0-3.457,15.465,8.555,18.009C191.59,73.395,198.158,64.234,183.035,55.386z"/>
			</g>
			<g>
				<path fill="#FEDE5E" d="M185.443,94.479c0,0,9.514-12.674,19.25-5.19C204.693,89.289,201.988,100.23,185.443,94.479z"/>
				<path fill="#E4B92C" d="M201.207,69.457c0,0-7.342,14.044,3.602,19.606C204.809,89.063,213.52,81.92,201.207,69.457z"/>
			</g>
			<g>
				<path fill="#FEDE5E" d="M193.416,107.843c0,0,12.469-9.777,19.934-0.034C213.35,107.809,207.908,117.683,193.416,107.843z"/>
				<path fill="#E4B92C" d="M215.119,87.752c0,0-10.729,11.666-1.6,19.87C213.52,107.622,223.787,102.977,215.119,87.752z"/>
			</g>
			<g>
				<path fill="#FEDE5E" d="M197.654,122.813c0,0,14.576-6.215,19.268,5.128C216.922,127.941,209.111,136.068,197.654,122.813z"/>
				<path fill="#E4B92C" d="M223.818,109.024c0,0-13.381,8.492-6.686,18.78C217.133,127.805,228.256,125.978,223.818,109.024z"/>
			</g>
			<g>
				<path fill="#FEDE5E" d="M197.877,138.371c0,0,15.686-2.232,17.281,9.939C215.158,148.311,205.51,154.142,197.877,138.371z"/>
				<path fill="#E4B92C" d="M226.719,131.825c0,0-15.121,4.737-11.32,16.406C215.398,148.231,226.613,149.345,226.719,131.825z"/>
			</g>
			<g>
				<path fill="#FEDE5E" d="M194.064,153.453c0,0,15.729,1.909,14.117,14.075C208.182,167.528,197.355,170.663,194.064,153.453z"/>
				<path fill="#E4B92C" d="M223.615,154.598c0,0-15.832,0.663-15.184,12.917C208.432,167.515,218.979,171.492,223.615,154.598z"/>
			</g>
			<g>
				<path fill="#FEDE5E" d="M186.475,167.041c0,0,14.705,5.912,10.002,17.247C196.477,184.288,185.205,184.515,186.475,167.041z"/>
				<path fill="#E4B92C" d="M214.729,175.793c0,0-15.467-3.459-18.012,8.547C196.717,184.34,205.873,190.913,214.729,175.793z"/>
			</g>
			<g>
				<path fill="#FEDE5E" d="M175.631,178.195c0,0,12.672,9.52,5.195,19.251C180.826,197.446,169.887,194.75,175.631,178.195z"/>
				<path fill="#E4B92C" d="M200.654,193.964c0,0-14.047-7.346-19.605,3.593C181.049,197.557,188.191,206.275,200.654,193.964z"/>
			</g>
			<g>
				<path fill="#FEDE5E" d="M162.271,186.167c0,0,9.773,12.474,0.031,19.938C162.303,206.105,152.434,200.67,162.271,186.167z"/>
				<path fill="#E4B92C" d="M182.357,207.873c0,0-11.662-10.729-19.871-1.602C162.486,206.271,167.131,216.541,182.357,207.873z"/>
			</g>
			<g>
				<path fill="#FEDE5E" d="M147.301,190.404c0,0,6.213,14.579-5.129,19.271C142.172,209.675,134.047,201.872,147.301,190.404z"/>
				<path fill="#E4B92C" d="M161.084,216.571c0,0-8.488-13.38-18.775-6.688C142.309,209.884,144.137,221.006,161.084,216.571z"/>
			</g>
			<path fill="#FEDE5E" d="M159.932,62.235c0,0,15.135-4.7,18.645,7.062C178.576,69.297,169.98,76.587,159.932,62.235z"/>
		</g>
	</g>
</g>
</svg>
