<?xml version="1.0" encoding="utf-8"?>
<!-- Generator: Adobe Illustrator 16.0.0, SVG Export Plug-In . SVG Version: 6.00 Build 0)  -->
<!DOCTYPE svg PUBLIC "-//W3C//DTD SVG 1.1//EN" "http://www.w3.org/Graphics/SVG/1.1/DTD/svg11.dtd">
<svg version="1.1" id="Layer_1" xmlns="http://www.w3.org/2000/svg" xmlns:xlink="http://www.w3.org/1999/xlink" x="0px" y="0px"
	 width="273px" height="273px" viewBox="0 0 273 273" enable-background="new 0 0 273 273" xml:space="preserve">
<g>
	<circle fill="#EF5AA1" cx="136.5" cy="136.5" r="136.642"/>
	<g>
		<path fill-rule="evenodd" clip-rule="evenodd" fill="#45BEA5" d="M165.797,138.023c6.116-6.346,8.286-14.325,9.735-21.004
			c15.154,15.135,20.487,33.665,22.607,47.799c-2.489,20.75-7.254,28.447-10.139,36.697c4.2-5.713,9.006-12.473,12.28-23.652
			c0.252,1.822,0.307,3.873,0.146,6.064c2.437-13.203-0.677-56.98-27.736-80.204c11.27-1.571,17.57-8.369,21.421-16.191
			c-6.067,5.48-16.362,8.236-28.314,10.662V34.109c24.305,8.473,37.437,28.417,35.168,45.442
			c10.49,6.055,31.374,74.949-1.621,111.033c-2.376,9.504-7.684,16.303-12.043,15.301c-0.367-0.086-0.717-0.225-1.047-0.41
			c-5.556,11.771-13.112,20.414-20.457,26.43v-60.014c2.543,0,4.604-3.436,4.604-7.674s-2.061-7.674-4.604-7.674v-8.771
			c6.363-1.699,13.692-1.68,18.475,3.146c-4.345-7.25-11.949-7.711-18.475-5.441V138.023z M143.023,109.503
			c4.669-0.652,9.182-1.044,13.712-1.652c2.771,8.081,7.954,26.346-13.71,40.608c10.947-1.598,18.04-5.527,22.771-10.436v7.453
			c-4.384,1.525-8.28,4.283-10.374,7.045c2.344-1.736,6.146-3.623,10.374-4.75v8.771c-2.543,0-4.604,3.436-4.604,7.674
			s2.062,7.674,4.604,7.674v60.014c-9.596,7.859-18.831,11.234-22.771,11.234h-0.002v-20.664c9.16,0.105,17.517-8.887,17.884-12.32
			c-2.563,2.188-10.339,1.957-14.254,3.494c-1.006,0.395-2.334,0.529-3.63,0.508v-2.063c0.607,0.004,1.226-0.023,1.564-0.082
			c3.401-0.58,13.236-0.514,16.315-2.131c-0.025-0.346-0.106-0.424-0.306-0.498c-2.361-0.865-12.183-4.074-14.728-3.463
			c-1.03,0.246-1.918,0.404-2.847,0.416v-8.475h0.002c3.328,0,7.777-1.996,8.391-5.211c-0.613,1.977-5.115,3.293-8.391,3.293h-0.002
			V109.503L143.023,109.503z M165.797,98.195c-7.179,1.457-14.955,2.794-22.773,4.532V80.878c5.826-0.514,11.989-0.737,18.517-0.613
			c-6.532-0.932-12.695-1.457-18.517-1.637V29.993c0.924,0.042,1.852,0.092,2.782,0.153c7.304,0.476,13.988,1.871,19.991,3.963
			V98.195z M118.215,116.822c9.192-4.502,17.21-6.256,24.809-7.318v86.44c-3.275,0-7.775-1.316-8.39-3.293
			c0.614,3.215,5.062,5.211,8.39,5.211v8.475c-0.891,0.012-1.818-0.111-2.945-0.416c-2.645-0.719-13.771,3.547-15.07,3.668
			c-0.265,0.031-0.381,0.174-0.375,0.355l0.006,0.049c4.389,2.539,12.146,1.223,16.954,2.02c0.316,0.053,0.868,0.08,1.431,0.082
			v2.063c-1.573-0.025-3.097-0.281-3.932-0.582c-4.241-1.525-11.516-0.369-14.396-3.16c0.857,4.527,9.396,11.936,18.29,12.061h0.037
			v20.664c-4.219,0-14.506-3.867-24.809-12.965v-58.283c2.543,0,4.604-3.436,4.604-7.674s-2.062-7.674-4.604-7.674v-8.471
			c3.798,1.145,7.166,2.857,9.313,4.449c-1.923-2.537-5.368-5.068-9.313-6.646V116.822L118.215,116.822z M143.023,102.727V80.878
			c-9.086,0.801-17.336,2.317-24.809,4.355v25.19C126.065,106.955,134.568,104.606,143.023,102.727L143.023,102.727z
			 M143.023,29.993v48.636c-9.099-0.282-17.349,0.296-24.809,1.546V31.346C126.021,30.071,134.333,29.603,143.023,29.993z
			 M86.212,188.35c-0.675-3.516-0.833-6.854-0.539-9.695c3.269,10.709,7.943,17.285,12.045,22.861
			c-2.887-8.25-8.207-18.447-10.694-39.203c-0.029-0.449-0.088-0.75-0.166-0.93c1.812-14.813,7.658-30.301,23.449-40.155
			c2.737-1.709,5.367-3.161,7.908-4.406v29.053c-6.745-2.699-14.955-2.604-19.538,5.043c5.051-5.098,12.943-4.832,19.538-2.846
			v8.471c-2.542,0-4.604,3.436-4.604,7.674s2.062,7.674,4.604,7.674v58.283c-6.686-5.906-13.378-14.012-18.422-24.699
			c-0.33,0.186-0.68,0.324-1.047,0.41c-3.517,0.807-7.652-3.463-10.365-10.139c-13.73-10.795-22.779-28.15-27.729-54.461
			c-1.248-6.636-0.168-16.452,3.26-21.076c9.056-12.208,26.152-27.296,54.303-34.976v25.19c-3.729,1.649-7.313,3.549-10.67,5.774
			C87.741,129.328,76.785,156.451,86.212,188.35L86.212,188.35z M118.215,31.346c-43.886,7.167-71.687,40.06-59.55,92.307
			c6.134-16.022,23.74-37.479,59.55-43.479V31.346z"/>
		<path fill-rule="evenodd" clip-rule="evenodd" fill="#F9F3CF" d="M169.847,228.324v-60.455c0.354-1.084,0.554-2.33,0.554-3.652
			s-0.2-2.566-0.554-3.652v-13.602c5.242-0.676,10.634,0.129,14.425,3.955c-3.467-5.785-9.011-7.246-14.425-6.447v-11.717
			c3.152-5.166,4.615-10.804,5.686-15.734c15.154,15.135,20.487,33.665,22.607,47.799c-1.994,16.615-5.869,26.334-8.815,33.785
			c-1.377,3.482-2.325,5.443-3.967,8.709C180.959,216.053,175.459,222.982,169.847,228.324z M142.8,222.473l0.187,0.002
			c9.174,0.131,17.554-8.881,17.921-12.32c-2.563,2.188-10.339,1.957-14.254,3.494c-1.063,0.416-2.489,0.543-3.854,0.502v-2.059
			c0.675,0.012,1.407-0.014,1.788-0.08c3.401-0.58,13.236-0.514,16.315-2.131c-0.025-0.346-0.106-0.424-0.306-0.498
			c-2.361-0.865-12.183-4.074-14.728-3.463c-1.112,0.266-2.061,0.428-3.07,0.416v-8.479l0.226,0.004
			c3.328,0,7.777-1.996,8.391-5.211c-0.613,1.977-5.115,3.293-8.391,3.293l-0.226-0.004v-86.404
			c4.748-0.672,9.332-1.066,13.936-1.685c2.771,8.081,7.954,26.346-13.71,40.608c14.655-2.137,22.4-8.457,26.821-15.706v11.717
			c-5.928,0.873-11.701,4.457-14.424,8.051c3.074-2.281,8.659-4.814,14.424-5.559v13.602c-0.779-2.395-2.301-4.021-4.05-4.021
			c-2.543,0-4.604,3.436-4.604,7.674s2.062,7.674,4.604,7.674c1.749,0,3.271-1.625,4.05-4.021v60.455
			c-10.948,10.426-22.327,14.814-26.821,14.814c-0.073,0-0.149-0.002-0.226-0.006V222.473z M124.696,210.414
			c0.852,4.494,9.276,11.832,18.104,12.059v20.66c-4.35-0.131-14.46-4.018-24.585-12.959v-58.283c2.543,0,4.604-3.436,4.604-7.674
			s-2.062-7.674-4.604-7.674v-8.471c3.798,1.145,7.166,2.857,9.313,4.449c-1.923-2.537-5.368-5.068-9.313-6.646v-29.053
			c9.103-4.457,17.051-6.222,24.585-7.286v86.404c-3.254-0.057-7.566-1.357-8.166-3.289c0.6,3.143,4.865,5.121,8.166,5.207v8.479
			c-0.824-0.012-1.689-0.137-2.722-0.416c-2.645-0.719-13.771,3.547-15.07,3.668c-0.265,0.031-0.381,0.174-0.375,0.355l0.006,0.049
			c4.389,2.539,12.146,1.223,16.954,2.02c0.273,0.045,0.725,0.072,1.207,0.08v2.059c-1.493-0.045-2.913-0.289-3.708-0.576
			C134.851,212.049,127.576,213.205,124.696,210.414z M118.215,116.822v29.053c-1.642-0.658-3.37-1.148-5.113-1.404v-24.92
			C114.849,118.542,116.552,117.638,118.215,116.822L118.215,116.822z M118.215,148.072v8.471c-2.542,0-4.604,3.436-4.604,7.674
			s2.062,7.674,4.604,7.674v58.283c-1.714-1.516-3.426-3.172-5.113-4.982v-78.229C114.845,147.189,116.569,147.576,118.215,148.072z
			 M113.102,119.55v24.92c-5.414-0.799-10.958,0.662-14.425,6.447c3.792-3.826,9.183-4.631,14.425-3.955v78.229
			c-4.894-5.248-9.557-11.77-13.309-19.717c-2.885-8.252-10.282-22.406-12.77-43.162c-0.029-0.449-0.088-0.75-0.166-0.93
			c1.812-14.813,7.658-30.301,23.449-40.155C111.25,120.638,112.182,120.081,113.102,119.55z"/>
		<g>
			<path fill-rule="evenodd" clip-rule="evenodd" fill="#83A162" d="M170.172,180.775c10.813,0,19.634-8.82,19.634-19.633
				c0-10.814-8.82-19.633-19.634-19.633c-10.813,0-19.633,8.818-19.633,19.633C150.539,171.955,159.359,180.775,170.172,180.775z"/>
			<path fill-rule="evenodd" clip-rule="evenodd" fill="#CCD0A9" d="M170.172,177.094c8.787,0,15.953-7.166,15.953-15.951
				c0-8.787-7.166-15.953-15.953-15.953c-8.786,0-15.951,7.166-15.951,15.953C154.221,169.928,161.386,177.094,170.172,177.094z"/>
			<path fill-rule="evenodd" clip-rule="evenodd" fill="#F9F3CF" d="M171.454,159.131c1.697,0,3.084-1.387,3.084-3.086
				c0-1.697-1.387-3.084-3.084-3.084c-1.7,0-3.086,1.387-3.086,3.084C168.368,157.744,169.754,159.131,171.454,159.131z"/>
			<path fill-rule="evenodd" clip-rule="evenodd" fill="#F9F3CF" d="M164.975,160.363c1.701,0,3.086-1.385,3.086-3.084
				s-1.385-3.084-3.086-3.084c-1.697,0-3.084,1.385-3.084,3.084S163.277,160.363,164.975,160.363z"/>
			<path fill-rule="evenodd" clip-rule="evenodd" fill="#F9F3CF" d="M170.527,165.607c1.699,0,3.086-1.385,3.086-3.084
				s-1.387-3.084-3.086-3.084s-3.084,1.385-3.084,3.084S168.828,165.607,170.527,165.607z"/>
			<path fill-rule="evenodd" clip-rule="evenodd" fill="#F9F3CF" d="M164.667,168.383c1.699,0,3.085-1.383,3.085-3.084
				c0-1.699-1.386-3.084-3.085-3.084c-1.698,0-3.084,1.385-3.084,3.084C161.583,167,162.969,168.383,164.667,168.383z"/>
			<path fill-rule="evenodd" clip-rule="evenodd" fill="#F9F3CF" d="M177.313,163.758c1.699,0,3.085-1.387,3.085-3.084
				c0-1.699-1.386-3.086-3.085-3.086c-1.698,0-3.084,1.387-3.084,3.086C174.229,162.371,175.615,163.758,177.313,163.758z"/>
			<path fill-rule="evenodd" clip-rule="evenodd" fill="#F9F3CF" d="M171.454,172.701c1.697,0,3.084-1.385,3.084-3.084
				s-1.387-3.084-3.084-3.084c-1.7,0-3.086,1.385-3.086,3.084S169.754,172.701,171.454,172.701z"/>
		</g>
		<g>
			<path fill-rule="evenodd" clip-rule="evenodd" fill="#83A162" d="M114.35,180.775c10.813,0,19.634-8.82,19.634-19.633
				c0-10.814-8.82-19.633-19.634-19.633c-10.813,0-19.633,8.818-19.633,19.633C94.717,171.955,103.537,180.775,114.35,180.775z"/>
			<path fill-rule="evenodd" clip-rule="evenodd" fill="#CCD0A9" d="M114.35,177.094c8.787,0,15.953-7.166,15.953-15.951
				c0-8.787-7.166-15.953-15.953-15.953c-8.785,0-15.951,7.166-15.951,15.953C98.398,169.928,105.564,177.094,114.35,177.094z"/>
			<path fill-rule="evenodd" clip-rule="evenodd" fill="#F9F3CF" d="M115.632,159.131c1.698,0,3.084-1.387,3.084-3.086
				c0-1.697-1.386-3.084-3.084-3.084c-1.699,0-3.085,1.387-3.085,3.084C112.547,157.744,113.933,159.131,115.632,159.131z"/>
			<path fill-rule="evenodd" clip-rule="evenodd" fill="#F9F3CF" d="M109.153,160.363c1.699,0,3.085-1.385,3.085-3.084
				s-1.386-3.084-3.085-3.084c-1.698,0-3.084,1.385-3.084,3.084S107.455,160.363,109.153,160.363z"/>
			<path fill-rule="evenodd" clip-rule="evenodd" fill="#F9F3CF" d="M114.706,165.607c1.699,0,3.085-1.385,3.085-3.084
				s-1.386-3.084-3.085-3.084c-1.7,0-3.084,1.385-3.084,3.084S113.006,165.607,114.706,165.607z"/>
			<path fill-rule="evenodd" clip-rule="evenodd" fill="#F9F3CF" d="M108.845,168.383c1.699,0,3.085-1.383,3.085-3.084
				c0-1.699-1.386-3.084-3.085-3.084c-1.698,0-3.084,1.385-3.084,3.084C105.761,167,107.146,168.383,108.845,168.383z"/>
			<path fill-rule="evenodd" clip-rule="evenodd" fill="#F9F3CF" d="M121.491,163.758c1.699,0,3.085-1.387,3.085-3.084
				c0-1.699-1.386-3.086-3.085-3.086c-1.698,0-3.084,1.387-3.084,3.086C118.407,162.371,119.793,163.758,121.491,163.758z"/>
			<path fill-rule="evenodd" clip-rule="evenodd" fill="#F9F3CF" d="M115.632,172.701c1.698,0,3.084-1.385,3.084-3.084
				s-1.386-3.084-3.084-3.084c-1.699,0-3.085,1.385-3.085,3.084S113.933,172.701,115.632,172.701z"/>
		</g>
	</g>
</g>
</svg>
