<?xml version="1.0" encoding="utf-8"?>
<!-- Generator: Adobe Illustrator 16.0.0, SVG Export Plug-In . SVG Version: 6.00 Build 0)  -->
<!DOCTYPE svg PUBLIC "-//W3C//DTD SVG 1.1//EN" "http://www.w3.org/Graphics/SVG/1.1/DTD/svg11.dtd">
<svg version="1.1" id="Layer_1" xmlns="http://www.w3.org/2000/svg" xmlns:xlink="http://www.w3.org/1999/xlink" x="0px" y="0px"
	 width="273px" height="273px" viewBox="0 0 273 273" enable-background="new 0 0 273 273" xml:space="preserve">
<g>
	<circle fill="#7DC9F0" cx="136.642" cy="136.642" r="136.642"/>
	<g>
		<g>
			<g>
				<path fill-rule="evenodd" clip-rule="evenodd" fill="#4E6273" d="M93.841,113.875c7.213-1.724,17.262-5.807,18.573,0.028
					c1.557,6.938,3.479,23.384,5.496,39.359c0.436,3.445-3.98,5.229-5.079,5.563c-4.914,1.486-9.134,1.95-14.572,2.684
					l-4.438-47.605C93.819,113.891,93.832,113.875,93.841,113.875z"/>
				<path fill-rule="evenodd" clip-rule="evenodd" fill="#4E6273" d="M71.932,113.875c-9.11-2.173-16.352-7.244-17.942-0.089
					c-1.664,7.491-3.489,23.903-5.412,39.232c-0.495,3.928,3.595,5.616,4.92,5.958c4.718,1.226,8.782,1.827,14.017,2.532
					l4.438-47.605C71.953,113.891,71.939,113.875,71.932,113.875z"/>
				<path fill-rule="evenodd" clip-rule="evenodd" fill="#29567E" d="M64.832,160.578l-0.237,0.558
					c11.224,1.422,25.029,1.446,36.287,0.077c-0.104-0.229-0.204-0.44-0.303-0.635H64.832z"/>
				<path fill-rule="evenodd" clip-rule="evenodd" fill="#698196" d="M60.32,160.463c2.491-7.178-3.19-40.786-6.331-46.969
					c1.785-6.343,18.407-7.746,22.833-11.353c2.098,1.848,3.594,2.268,5.974,2.268c2.379,0,3.951-0.48,6.049-2.329
					c3.275,2.668,20.431,4.748,23.366,11.095c-3.341,7.082-9.467,40.8-6.815,47.257C94.221,162.628,71.82,162.784,60.32,160.463z"/>
				<polygon fill-rule="evenodd" clip-rule="evenodd" fill="#FFFFFF" points="71.585,105.191 71.055,119.315 82.879,149.334 
					94.535,119.315 93.81,104.803 88.846,102.079 76.822,102.142 				"/>
				<rect x="76.823" y="97.207" fill-rule="evenodd" clip-rule="evenodd" fill="#D2A987" width="11.813" height="12.235"/>
				<path fill-rule="evenodd" clip-rule="evenodd" fill="#FCB023" d="M84.754,117.006l0.823-1.74l-2.781-6.743l-2.737,6.635
					l0.874,1.849C82.205,117.006,83.48,117.006,84.754,117.006z"/>
				<polygon fill-rule="evenodd" clip-rule="evenodd" fill="#CDCCCC" points="76.82,102.142 82.796,108.522 78.543,119.896 
					73.285,104.487 				"/>
				<polygon fill-rule="evenodd" clip-rule="evenodd" fill="#29567E" points="73.325,104.179 82.796,149.494 67.203,124.634 
					69.251,120.294 64.804,116.748 70.844,105.546 				"/>
				<polygon fill-rule="evenodd" clip-rule="evenodd" fill="#CDCCCC" points="88.846,102.08 82.796,108.522 87.046,119.896 
					92.379,104.425 				"/>
				<polygon fill-rule="evenodd" clip-rule="evenodd" fill="#FCB023" points="80.933,121.233 84.754,121.233 86.739,140.39 
					82.796,149.494 78.999,140.39 				"/>
				<polygon fill-rule="evenodd" clip-rule="evenodd" fill="#FFFFFF" points="76.822,102.141 82.796,108.522 78.451,117.086 
					73.288,104.484 				"/>
				<polygon fill-rule="evenodd" clip-rule="evenodd" fill="#4173A1" points="73.325,104.179 82.796,149.494 68.72,122.651 
					71.055,119.315 66.553,115.814 70.843,105.546 				"/>
				<polygon fill-rule="evenodd" clip-rule="evenodd" fill="#29567E" points="92.495,104.083 82.796,149.494 98.387,124.634 
					96.339,120.294 100.787,116.748 96.011,105.707 				"/>
				<polygon fill-rule="evenodd" clip-rule="evenodd" fill="#4173A1" points="92.495,104.083 82.796,149.494 96.87,122.651 
					94.535,119.315 99.036,115.814 96.011,105.707 				"/>
				<polygon fill-rule="evenodd" clip-rule="evenodd" fill="#FFFFFF" points="88.846,102.078 82.796,108.522 87.139,117.086 
					92.379,104.422 				"/>
				<path fill-rule="evenodd" clip-rule="evenodd" fill="#FCB023" d="M80.933,116.688h3.821c0.854,1.772,0.787,3.321,0,4.833h-3.821
					C80.146,120.009,80.078,118.46,80.933,116.688z"/>
				<path fill-rule="evenodd" clip-rule="evenodd" fill="#29567E" d="M82.257,162.217c0.103-3.324,0.352-7.277,0.757-13.207
					c0.407,5.93,0.677,9.883,0.8,13.209C83.295,162.221,82.775,162.221,82.257,162.217z"/>
				<polygon fill-rule="evenodd" clip-rule="evenodd" fill="#FFFFFF" points="69.798,105.553 71.263,119.095 83.028,148.961 
					94.628,119.095 96.093,105.553 90.481,101.943 75.409,101.943 				"/>
				<rect x="75.409" y="97.097" fill-rule="evenodd" clip-rule="evenodd" fill="#D2A987" width="14.94" height="12.172"/>
				<path fill-rule="evenodd" clip-rule="evenodd" fill="#F2CBAA" d="M82.946,104.264c5.888,0,11.337-6.733,14.213-14.983
					c0.17,0.174,0.358,0.284,0.567,0.317c1.173,0.194,2.516-2.005,2.999-4.915c0.482-2.91-0.076-5.427-1.247-5.621
					c-0.083-0.015-0.166-0.015-0.251-0.005c0.575-10.223-3.661-19.665-16.281-19.665c-12.63,0-16.864,9.458-16.282,19.69
					c-0.128-0.035-0.256-0.041-0.383-0.021c-1.172,0.194-1.729,2.711-1.246,5.621c0.483,2.91,1.825,5.109,2.997,4.915
					c0.249-0.04,0.471-0.188,0.66-0.423C71.558,97.473,77.031,104.264,82.946,104.264z"/>
				<path fill-rule="evenodd" clip-rule="evenodd" fill="#B65D47" d="M99.229,79.057c0.575-10.223-3.663-19.665-16.283-19.665
					c-12.63,0-16.867,9.458-16.283,19.688c1.021,0.255,2.085,2.125,2.555,4.561c0.822,0.555,1.42,0.231,1.42-1.83
					c0-6.085,0.752-11.473,4.748-12.761c3.801-1.223,4.637,1.461,7.536,1.461c2.901,0,3.817-2.526,7.539-1.461
					c3.866,1.109,4.746,6.676,4.746,12.761c0,1.977,0.552,2.354,1.321,1.893C97.011,81.131,98.16,79.176,99.229,79.057z"/>
				<path fill-rule="evenodd" clip-rule="evenodd" fill="#94B9DB" d="M84.895,116.796l0.819-1.729l-2.768-6.712l-2.723,6.604
					l0.868,1.838C82.359,116.796,83.628,116.796,84.895,116.796z"/>
				<polygon fill-rule="evenodd" clip-rule="evenodd" fill="#CDCCCC" points="75.409,101.943 82.946,108.354 78.716,119.671 
					71.894,104.276 				"/>
				<polygon fill-rule="evenodd" clip-rule="evenodd" fill="#4E6273" points="71.894,104.276 82.946,149.119 67.433,124.384 
					69.47,120.069 65.045,116.539 69.798,105.553 				"/>
				<polygon fill-rule="evenodd" clip-rule="evenodd" fill="#CDCCCC" points="90.481,101.943 82.946,108.354 87.176,119.671 
					93.997,104.276 				"/>
				<polygon fill-rule="evenodd" clip-rule="evenodd" fill="#94B9DB" points="81.092,121.003 84.895,121.003 86.87,140.06 
					82.946,149.119 79.167,140.06 				"/>
				<path fill-rule="evenodd" clip-rule="evenodd" fill="#B65D47" d="M96.512,68.986c-1.629,3.258-15.1,11.122-20.537,11.549
					c2.438-2.268,8.17-8.989,7.441-9.34c-0.813-0.39-9.489,6.383-14.12,7.941C68.352,59.518,82.559,60.146,96.512,68.986z"/>
				<path fill-rule="evenodd" clip-rule="evenodd" fill="#B65D47" d="M88.85,65.73c0.702,3.259,5.419,12.907,7.764,13.334
					C98.957,79.491,99.094,57.291,88.85,65.73z"/>
				<polygon fill-rule="evenodd" clip-rule="evenodd" fill="#FFFFFF" points="75.409,101.943 82.946,108.354 78.623,116.876 
					71.894,104.276 				"/>
				<polygon fill-rule="evenodd" clip-rule="evenodd" fill="#698196" points="71.894,104.276 82.946,149.119 68.94,122.412 
					71.263,119.095 66.784,115.611 69.798,105.553 				"/>
				<polygon fill-rule="evenodd" clip-rule="evenodd" fill="#4E6273" points="93.997,104.276 82.946,149.119 98.457,124.384 
					96.42,120.069 100.846,116.539 96.093,105.553 				"/>
				<polygon fill-rule="evenodd" clip-rule="evenodd" fill="#698196" points="93.997,104.276 82.946,149.119 96.948,122.412 
					94.628,119.095 99.104,115.611 96.093,105.553 				"/>
				<polygon fill-rule="evenodd" clip-rule="evenodd" fill="#FFFFFF" points="90.481,101.943 82.946,108.354 87.268,116.876 
					93.997,104.276 				"/>
				<path fill-rule="evenodd" clip-rule="evenodd" fill="#94B9DB" d="M81.092,116.48h3.803c0.851,1.762,0.783,3.303,0,4.807h-3.803
					C80.309,119.783,80.241,118.242,81.092,116.48z"/>
				<path fill-rule="evenodd" clip-rule="evenodd" fill="#29567E" d="M81.99,162.217c0.623,0.004,1.245,0.007,1.868,0.003
					c0.229-3.216-0.46-11.79-0.934-13.206C82.451,150.147,81.763,158.832,81.99,162.217z"/>
			</g>
			<g>
				<path fill-rule="evenodd" clip-rule="evenodd" fill="#29567E" d="M204.383,113.875c7.213-1.724,17.26-5.807,18.57,0.028
					c1.561,6.938,3.482,23.384,5.5,39.359c0.434,3.445-3.98,5.229-5.08,5.563c-4.914,1.486-9.133,1.95-14.572,2.684l-4.438-47.605
					C204.359,113.891,204.373,113.875,204.383,113.875z"/>
				<path fill-rule="evenodd" clip-rule="evenodd" fill="#29567E" d="M182.473,113.875c-9.111-2.173-16.352-7.244-17.941-0.089
					c-1.664,7.491-3.488,23.903-5.414,39.232c-0.49,3.928,3.598,5.616,4.922,5.958c4.719,1.226,8.783,1.827,14.016,2.532
					l4.439-47.605C182.494,113.891,182.48,113.875,182.473,113.875z"/>
				<path fill-rule="evenodd" clip-rule="evenodd" fill="#29567E" d="M175.373,160.578l-0.238,0.558
					c11.227,1.422,25.031,1.446,36.289,0.077c-0.104-0.229-0.205-0.44-0.303-0.635H175.373z"/>
				<path fill-rule="evenodd" clip-rule="evenodd" fill="#4173A1" d="M170.863,160.463c2.49-7.178-3.191-40.786-6.332-46.969
					c1.785-6.343,18.406-7.746,22.832-11.353c2.1,1.848,3.594,2.268,5.975,2.268c2.379,0,3.951-0.48,6.049-2.329
					c3.273,2.668,20.432,4.748,23.367,11.095c-3.342,7.082-9.469,40.8-6.816,47.257
					C204.764,162.628,182.361,162.784,170.863,160.463z"/>
				<polygon fill-rule="evenodd" clip-rule="evenodd" fill="#FFFFFF" points="182.127,105.191 181.596,119.315 193.42,149.334 
					205.078,119.315 204.354,104.803 199.389,102.079 187.363,102.142 				"/>
				<rect x="187.365" y="97.207" fill-rule="evenodd" clip-rule="evenodd" fill="#D2A987" width="11.811" height="12.235"/>
				<path fill-rule="evenodd" clip-rule="evenodd" fill="#FCB023" d="M195.297,117.006l0.822-1.74l-2.781-6.743l-2.736,6.635
					l0.873,1.849C192.748,117.006,194.023,117.006,195.297,117.006z"/>
				<polygon fill-rule="evenodd" clip-rule="evenodd" fill="#CDCCCC" points="187.363,102.142 193.338,108.522 189.084,119.896 
					183.83,104.487 				"/>
				<polygon fill-rule="evenodd" clip-rule="evenodd" fill="#29567E" points="183.867,104.179 193.338,149.494 177.746,124.634 
					179.793,120.294 175.346,116.748 181.385,105.546 				"/>
				<polygon fill-rule="evenodd" clip-rule="evenodd" fill="#CDCCCC" points="199.389,102.08 193.338,108.522 197.588,119.896 
					202.922,104.425 				"/>
				<polygon fill-rule="evenodd" clip-rule="evenodd" fill="#FCB023" points="191.475,121.233 195.297,121.233 197.281,140.39 
					193.338,149.494 189.543,140.39 				"/>
				<polygon fill-rule="evenodd" clip-rule="evenodd" fill="#FFFFFF" points="187.363,102.141 193.338,108.522 188.994,117.086 
					183.83,104.484 				"/>
				<polygon fill-rule="evenodd" clip-rule="evenodd" fill="#4173A1" points="183.867,104.179 193.338,149.494 179.262,122.651 
					181.596,119.315 177.094,115.814 181.385,105.546 				"/>
				<polygon fill-rule="evenodd" clip-rule="evenodd" fill="#29567E" points="203.037,104.083 193.338,149.494 208.928,124.634 
					206.879,120.294 211.33,116.748 206.553,105.707 				"/>
				<polygon fill-rule="evenodd" clip-rule="evenodd" fill="#4173A1" points="203.037,104.083 193.338,149.494 207.412,122.651 
					205.078,119.315 209.58,115.814 206.553,105.707 				"/>
				<polygon fill-rule="evenodd" clip-rule="evenodd" fill="#FFFFFF" points="199.389,102.078 193.338,108.522 197.682,117.086 
					202.922,104.422 				"/>
				<path fill-rule="evenodd" clip-rule="evenodd" fill="#FCB023" d="M191.475,116.688h3.822c0.854,1.772,0.787,3.321,0,4.833
					h-3.822C190.688,120.009,190.621,118.46,191.475,116.688z"/>
				<path fill-rule="evenodd" clip-rule="evenodd" fill="#29567E" d="M192.799,162.217c0.1-3.324,0.352-7.277,0.758-13.207
					c0.406,5.93,0.676,9.883,0.799,13.209C193.838,162.221,193.318,162.221,192.799,162.217z"/>
				<polygon fill-rule="evenodd" clip-rule="evenodd" fill="#FFFFFF" points="180.338,105.553 181.805,119.095 193.572,148.961 
					205.168,119.095 206.637,105.553 201.021,101.943 185.951,101.943 				"/>
				<rect x="185.951" y="97.097" fill-rule="evenodd" clip-rule="evenodd" fill="#D2A987" width="14.941" height="12.172"/>
				<path fill-rule="evenodd" clip-rule="evenodd" fill="#C58B63" d="M193.488,104.264c5.889,0,11.338-6.733,14.213-14.983
					c0.168,0.174,0.359,0.284,0.568,0.317c1.17,0.194,2.514-2.005,2.998-4.915c0.482-2.91-0.076-5.427-1.246-5.621
					c-0.084-0.015-0.168-0.015-0.252-0.005c0.574-10.223-3.662-19.665-16.281-19.665c-12.631,0-16.867,9.458-16.281,19.69
					c-0.131-0.035-0.258-0.041-0.383-0.021c-1.172,0.194-1.73,2.711-1.246,5.621c0.482,2.91,1.824,5.109,2.996,4.915
					c0.25-0.04,0.471-0.188,0.66-0.423C182.1,97.473,187.574,104.264,193.488,104.264z"/>
				<path fill-rule="evenodd" clip-rule="evenodd" fill="#3B1A12" d="M209.771,79.057c0.574-10.223-3.664-19.665-16.283-19.665
					c-12.631,0-16.867,9.458-16.285,19.688c1.021,0.255,2.088,2.125,2.557,4.561c0.822,0.555,1.42,0.231,1.42-1.83
					c0-6.085,0.752-11.473,4.746-12.761c3.803-1.223,4.639,1.461,7.541,1.461c2.898,0,3.814-2.526,7.537-1.461
					c3.865,1.109,4.746,6.676,4.746,12.761c0,1.977,0.549,2.354,1.32,1.893C207.553,81.131,208.703,79.176,209.771,79.057z"/>
				<path fill-rule="evenodd" clip-rule="evenodd" fill="#F78D2A" d="M195.438,116.796l0.818-1.729l-2.768-6.712l-2.725,6.604
					l0.869,1.838C192.902,116.796,194.17,116.796,195.438,116.796z"/>
				<polygon fill-rule="evenodd" clip-rule="evenodd" fill="#CDCCCC" points="185.951,101.943 193.488,108.354 189.258,119.671 
					182.436,104.276 				"/>
				<polygon fill-rule="evenodd" clip-rule="evenodd" fill="#29567E" points="182.436,104.276 193.488,149.119 177.975,124.384 
					180.012,120.069 175.586,116.539 180.338,105.553 				"/>
				<polygon fill-rule="evenodd" clip-rule="evenodd" fill="#CDCCCC" points="201.021,101.943 193.488,108.354 197.717,119.671 
					204.539,104.276 				"/>
				<polygon fill-rule="evenodd" clip-rule="evenodd" fill="#F78D2A" points="191.633,121.003 195.438,121.003 197.412,140.06 
					193.488,149.119 189.711,140.06 				"/>
				<path fill-rule="evenodd" clip-rule="evenodd" fill="#3B1A12" d="M204.848,66.043c-1.629,3.259-16.938,5.976-22.375,6.404
					C177.037,72.873,181.08,57.605,204.848,66.043z"/>
				<path fill-rule="evenodd" clip-rule="evenodd" fill="#3B1A12" d="M197.035,66.043c0.703,3.259,8.879,10.39,11.223,10.815
					C210.602,77.285,207.279,57.605,197.035,66.043z"/>
				<polygon fill-rule="evenodd" clip-rule="evenodd" fill="#FFFFFF" points="185.951,101.943 193.488,108.354 189.166,116.876 
					182.436,104.276 				"/>
				<polygon fill-rule="evenodd" clip-rule="evenodd" fill="#4173A1" points="182.436,104.276 193.488,149.119 179.482,122.412 
					181.805,119.095 177.326,115.611 180.338,105.553 				"/>
				<polygon fill-rule="evenodd" clip-rule="evenodd" fill="#29567E" points="204.539,104.276 193.488,149.119 209,124.384 
					206.961,120.069 211.389,116.539 206.637,105.553 				"/>
				<polygon fill-rule="evenodd" clip-rule="evenodd" fill="#4173A1" points="204.539,104.276 193.488,149.119 207.49,122.412 
					205.168,119.095 209.646,115.611 206.637,105.553 				"/>
				<polygon fill-rule="evenodd" clip-rule="evenodd" fill="#FFFFFF" points="201.021,101.943 193.488,108.354 197.809,116.876 
					204.539,104.276 				"/>
				<path fill-rule="evenodd" clip-rule="evenodd" fill="#F78D2A" d="M191.633,116.48h3.805c0.85,1.762,0.781,3.303,0,4.807h-3.805
					C190.852,119.783,190.783,118.242,191.633,116.48z"/>
				<path fill-rule="evenodd" clip-rule="evenodd" fill="#29567E" d="M192.531,162.217c0.625,0.004,1.246,0.007,1.869,0.003
					c0.229-3.216-0.459-11.79-0.934-13.206C192.992,150.147,192.305,158.832,192.531,162.217z"/>
			</g>
			<g>
				<path fill-rule="evenodd" clip-rule="evenodd" fill="#4173A1" d="M154.988,139.438c10.512-2.507,17.787-9.444,19.697-0.938
					c2.275,10.112,7.367,36.125,10.309,59.406c0.635,5.023-0.729,6.556-2.33,7.039c-7.162,2.169-13.311,2.843-21.236,3.911
					l-6.467-69.372C154.959,139.463,154.977,139.441,154.988,139.438z"/>
				<path fill-rule="evenodd" clip-rule="evenodd" fill="#BA9C3D" d="M168.035,103.113c-6.482,30.692-19.398,85.384-29.168,85.384
					c-9.768,0-28.923-58.79-32.684-81.443c-3.244-19.525,2.921-57.67,43.908-45.211C163.834,61.084,173.662,76.474,168.035,103.113z
					"/>
				<path fill-rule="evenodd" clip-rule="evenodd" fill="#4173A1" d="M123.063,139.438c-13.28-3.168-17.697-10.1-20.016,0.329
					c-2.427,10.917-7.209,35.978-10.016,58.317c-0.722,5.725,1.235,6.581,3.168,7.082c6.873,1.783,12.799,2.659,20.424,3.689
					l6.467-69.372C123.092,139.463,123.072,139.441,123.063,139.438z"/>
				<path fill-rule="evenodd" clip-rule="evenodd" fill="#29567E" d="M112.715,207.5l-0.346,0.814
					c16.355,2.07,36.475,2.105,52.883,0.111c-0.154-0.334-0.301-0.643-0.443-0.926H112.715z"/>
				<path fill-rule="evenodd" clip-rule="evenodd" fill="#5B90BE" d="M111.831,208.244c4.643-13.389,1.961-17.33-4.124-31.921
					c-6.202-14.88,6.384-22.84-2.971-41.257c8.291-5.316,19.002-7.469,25.45-12.724c3.058,2.69,5.237,3.307,8.706,3.307
					s5.76-0.704,8.816-3.396c4.771,3.887,16.99,7.159,25.664,12.813c-8.918,18.902,3.164,22.015-2.973,41.257
					c-4.686,14.691-11.986,15.505-5.174,32.103C148.646,210.441,128.275,210.38,111.831,208.244z"/>
				<polygon fill-rule="evenodd" clip-rule="evenodd" fill="#FFFFFF" points="122.559,126.785 121.782,147.372 139.014,191.114 
					156.002,147.372 154.947,126.22 147.711,122.254 130.188,122.343 				"/>
				<rect x="130.19" y="115.152" fill-rule="evenodd" clip-rule="evenodd" fill="#D2A987" width="17.212" height="17.827"/>
				<path fill-rule="evenodd" clip-rule="evenodd" fill="#F2CBAA" d="M138.893,125.649c8.625,0,16.609-9.864,20.818-21.944
					c0.246,0.253,0.523,0.414,0.83,0.465c1.719,0.285,3.684-2.938,4.393-7.201c0.707-4.262-0.109-7.948-1.826-8.232
					c-0.121-0.019-0.242-0.021-0.367-0.008c0.84-14.97-5.365-28.8-23.848-28.8c-18.499,0-24.699,13.85-23.846,28.836
					c-0.188-0.05-0.377-0.058-0.562-0.028c-1.717,0.284-2.531,3.971-1.827,8.232c0.71,4.263,2.675,7.486,4.391,7.201
					c0.365-0.061,0.689-0.277,0.969-0.619C122.212,115.701,130.229,125.649,138.893,125.649z"/>
				<path fill-rule="evenodd" clip-rule="evenodd" fill="#29567E" d="M141.746,144.002l1.201-2.533l-4.055-9.826l-3.987,9.667
					l1.271,2.692C138.033,144.002,139.891,144.002,141.746,144.002z"/>
				<polygon fill-rule="evenodd" clip-rule="evenodd" fill="#CDCCCC" points="130.186,122.343 138.893,131.643 132.695,148.217 
					125.036,125.761 				"/>
				<polygon fill-rule="evenodd" clip-rule="evenodd" fill="#4173A1" points="125.091,125.311 138.893,191.347 116.172,155.118 
					119.157,148.797 112.675,143.627 121.475,127.301 				"/>
				<polygon fill-rule="evenodd" clip-rule="evenodd" fill="#CDCCCC" points="147.711,122.254 138.893,131.643 145.088,148.217 
					152.859,125.672 				"/>
				<polygon fill-rule="evenodd" clip-rule="evenodd" fill="#29567E" points="136.177,150.164 141.746,150.164 144.643,178.08 
					138.893,191.347 133.358,178.08 				"/>
				<polygon fill-rule="evenodd" clip-rule="evenodd" fill="#FFFFFF" points="130.188,122.342 138.893,131.643 132.563,144.119 
					125.038,125.758 				"/>
				<polygon fill-rule="evenodd" clip-rule="evenodd" fill="#5B90BE" points="125.091,125.311 138.893,191.347 118.381,152.229 
					121.782,147.372 115.223,142.269 121.475,127.301 				"/>
				<polygon fill-rule="evenodd" clip-rule="evenodd" fill="#4173A1" points="153.029,125.171 138.893,191.347 161.611,155.118 
					158.629,148.797 165.111,143.627 158.15,127.539 				"/>
				<polygon fill-rule="evenodd" clip-rule="evenodd" fill="#5B90BE" points="153.029,125.171 138.893,191.347 159.404,152.229 
					156.002,147.372 162.563,142.269 158.15,127.539 				"/>
				<polygon fill-rule="evenodd" clip-rule="evenodd" fill="#FFFFFF" points="147.711,122.252 138.893,131.643 145.223,144.119 
					152.859,125.669 				"/>
				<path fill-rule="evenodd" clip-rule="evenodd" fill="#29567E" d="M136.177,143.542h5.569c1.244,2.581,1.148,4.837,0,7.04h-5.569
					C135.028,148.379,134.934,146.123,136.177,143.542z"/>
				<path fill-rule="evenodd" clip-rule="evenodd" fill="#4173A1" d="M138.107,209.889c0.148-4.847,0.514-10.607,1.107-19.246
					c0.592,8.641,0.984,14.404,1.162,19.246C139.621,209.895,138.865,209.893,138.107,209.889z"/>
				
					<ellipse transform="matrix(0.217 -0.9762 0.9762 0.217 31.2334 234.4637)" fill-rule="evenodd" clip-rule="evenodd" fill="#F2CBAA" cx="161.765" cy="97.763" rx="6.513" ry="3.088"/>
				<path fill-rule="evenodd" clip-rule="evenodd" fill="#BA9C3D" d="M163.08,88.729c0.859-14.97-5.463-28.8-24.283-28.8
					c-18.834,0-25.151,13.85-24.284,28.832c1.524,0.375,3.111,3.116,3.812,6.682c1.229,0.811,2.116,0.336,2.116-2.683
					c0-8.908,1.123-16.804,7.081-18.688c5.669-1.791,6.916,2.14,11.244,2.14c4.324,0,5.689-3.702,11.238-2.14
					c5.766,1.624,7.08,9.779,7.08,18.688c0,2.898,0.818,3.451,1.971,2.775C159.771,91.769,161.484,88.905,163.08,88.729z"/>
				<path fill-rule="evenodd" clip-rule="evenodd" fill="#BA9C3D" d="M155.963,64.995c1.197,8.39-11.988,26.671-21.578,30.869
					c6.123-3.398,10.145-16.031,8.666-25.174C142.703,68.549,156.963,66.592,155.963,64.995z"/>
				<path fill-rule="evenodd" clip-rule="evenodd" fill="#BA9C3D" d="M149.572,66.111c-1.133,8.398-29.526,34.516-39.898,35.94
					c-3.219-43.181,23.327-25.251,25.922-33.978C136.214,65.994,150.1,67.918,149.572,66.111z"/>
				<path fill-rule="evenodd" clip-rule="evenodd" fill="#BA9C3D" d="M142.752,60.746c-0.674,8.45,13.207,38.727,23.039,42.316
					c3.709-30.904-4.316-34.926-9.797-37.433C154.021,64.728,141.855,62.402,142.752,60.746z"/>
			</g>
		</g>
		<g>
			<path fill="#31AC66" d="M96.465,206.772c-0.95,1.394-2.614,2.216-4.404,2.026c-1.789-0.189-3.246-1.346-3.896-2.897
				c-1.219,1.156-3.026,1.632-4.735,1.077c-1.728-0.57-2.896-2.012-3.199-3.66c-1.442,0.872-3.31,0.951-4.862,0.049
				c-0.617-0.355-1.085-0.846-1.47-1.389v37.493l22.613-14.707v-17.938C96.499,206.806,96.479,206.793,96.465,206.772z"/>
			<path fill="#FEDE5E" d="M59.558,166.803c0-20.378,16.578-36.956,36.954-36.956v-3.187c-0.966-1.277-2.56-2.05-4.276-1.882
				c-1.789,0.19-3.262,1.346-3.91,2.897c-1.222-1.172-3.011-1.646-4.736-1.093c-1.711,0.555-2.899,1.981-3.216,3.644
				c-1.441-0.888-3.295-0.966-4.861-0.079c-1.569,0.902-2.425,2.55-2.394,4.229c-1.583-0.554-3.422-0.253-4.767,0.934h0.017
				c-1.347,1.205-1.854,2.995-1.459,4.642c-1.677-0.223-3.42,0.443-4.48,1.898c-1.063,1.459-1.172,3.312-0.461,4.833
				c-1.677,0.127-3.246,1.141-3.975,2.786c-0.743,1.648-0.475,3.484,0.538,4.832c-1.613,0.475-2.93,1.789-3.31,3.563
				c-0.381,1.758,0.27,3.5,1.553,4.608c-1.489,0.791-2.486,2.359-2.503,4.15c0,0.048,0,0.079,0.017,0.11
				c0,0.017-0.017,0.048-0.017,0.063c0,1.806,0.998,3.374,2.486,4.183c-1.282,1.092-1.948,2.834-1.567,4.592
				c0.38,1.774,1.68,3.09,3.294,3.58c-1.03,1.33-1.298,3.184-0.57,4.83c0.729,1.647,2.297,2.662,3.976,2.804
				c-0.729,1.521-0.617,3.374,0.444,4.832c1.06,1.456,2.788,2.137,4.466,1.915c-0.396,1.647,0.094,3.438,1.44,4.641
				c1.332,1.204,3.167,1.521,4.752,0.95c-0.028,1.03,0.313,2.019,0.906,2.856v-5.98C65.183,189.232,59.558,178.664,59.558,166.803z"
				/>
			<path fill="#E4B92C" d="M138.754,166.893c0-0.89-0.246-1.719-0.666-2.432v4.82C138.504,168.579,138.744,167.764,138.754,166.893z
				"/>
			<path fill="#FEDE5E" d="M75.368,203.367c1.553,0.902,3.42,0.823,4.862-0.049c0.303,1.648,1.472,3.09,3.199,3.66
				c1.709,0.555,3.517,0.079,4.735-1.077c0.649,1.552,2.106,2.708,3.896,2.897c1.79,0.189,3.454-0.633,4.404-2.026
				c0.014,0.021,0.034,0.033,0.047,0.054v-3.066c-8.514,0-16.359-2.904-22.613-7.762v5.98
				C74.283,202.521,74.751,203.012,75.368,203.367z"/>
			<path fill="#FFFFFF" d="M61.143,166.803c0-19.504,15.866-35.371,35.369-35.373v-1.583c-20.376,0-36.954,16.578-36.954,36.956
				c0,11.861,5.625,22.43,14.341,29.195v-2.022C66.109,187.482,61.143,177.712,61.143,166.803z"/>
			<path fill="#FFFFFF" d="M73.898,193.976v2.022c6.254,4.857,14.1,7.762,22.613,7.762v-1.585
				C87.918,202.175,80.034,199.091,73.898,193.976z"/>
			<path fill="#FEDE5E" d="M96.512,188.646v-13.255l-13.214,9.603l5.049-15.537l-13.218-9.603h16.337l5.046-15.533v-9.723
				c-17.784,0.001-32.201,14.418-32.201,32.204c0,8.968,3.671,17.074,9.588,22.912v-1.068H96.512z"/>
			<path fill="#FEDE5E" d="M96.512,188.646H73.898v1.068c5.816,5.742,13.799,9.292,22.613,9.292V188.646z"/>
			<path fill="#E4B92C" d="M62.728,166.803c0-18.631,15.157-33.788,33.784-33.789v-1.584c-19.503,0.002-35.369,15.869-35.369,35.373
				c0,10.909,4.967,20.68,12.756,27.173v-2.143C67.058,185.646,62.728,176.732,62.728,166.803z"/>
			<path fill="#E4B92C" d="M73.898,191.833v2.143c6.136,5.115,14.02,8.199,22.613,8.199v-1.583
				C87.81,200.59,79.893,197.255,73.898,191.833z"/>
			<path fill="#E4B92C" d="M62.728,166.803c0,9.93,4.33,18.843,11.171,25.03v-2.118c-5.917-5.838-9.588-13.944-9.588-22.912
				c0-17.786,14.417-32.203,32.201-32.204v-1.585C77.885,133.015,62.728,148.172,62.728,166.803z"/>
			<path fill="#E4B92C" d="M73.898,189.715v2.118c5.994,5.422,13.911,8.757,22.613,8.759v-1.585
				C87.697,199.007,79.715,195.457,73.898,189.715z"/>
			<polygon fill="#E4B92C" points="91.466,159.854 75.129,159.854 88.347,169.457 83.298,184.994 96.512,175.392 96.512,144.321 			
				"/>
			<path fill="#227D44" d="M119.128,239.472v-37.546c-0.393,0.585-0.89,1.113-1.535,1.489c-1.569,0.902-3.421,0.808-4.861-0.064
				c-0.317,1.648-1.507,3.09-3.216,3.644c-1.71,0.555-3.517,0.079-4.736-1.077c-0.648,1.552-2.106,2.708-3.912,2.898
				c-0.158,0.016-0.317,0.031-0.49,0.031c-1.56,0-2.989-0.787-3.865-2.021v17.938l0.003-0.001L119.128,239.472z"/>
			<path fill="#E4B92C" d="M138.088,169.281v-4.82c-0.434-0.732-1.059-1.34-1.807-1.75c1.283-1.093,1.934-2.836,1.568-4.594
				c-0.363-1.772-1.679-3.104-3.295-3.58c1.031-1.346,1.315-3.184,0.586-4.83c-0.728-1.646-2.279-2.677-3.959-2.803
				c0.729-1.521,0.619-3.389-0.443-4.848c-1.062-1.455-2.788-2.137-4.451-1.932c0.397-1.631-0.094-3.421-1.426-4.64
				c-1.345-1.205-3.183-1.521-4.766-0.968c0.048-1.679-0.808-3.326-2.361-4.242c-1.552-0.905-3.419-0.824-4.861,0.045
				c-0.302-1.662-1.475-3.104-3.2-3.657c-1.711-0.57-3.516-0.096-4.736,1.062c-0.647-1.553-2.089-2.725-3.896-2.915
				c-1.789-0.189-3.452,0.633-4.401,2.012c-0.039-0.058-0.087-0.105-0.128-0.161v3.187h0.003c20.376,0,36.953,16.578,36.953,36.956
				c0,11.863-5.624,22.432-14.34,29.198c-6.255,4.856-14.1,7.759-22.613,7.759h-0.003v3.066c0.876,1.233,2.306,2.021,3.865,2.021
				c0.173,0,0.332-0.016,0.49-0.031c1.806-0.19,3.264-1.347,3.912-2.898c1.22,1.156,3.026,1.632,4.736,1.077
				c1.709-0.554,2.898-1.995,3.216-3.644c1.44,0.872,3.292,0.967,4.861,0.064c0.646-0.376,1.143-0.904,1.535-1.489
				c0.551-0.82,0.867-1.776,0.84-2.756c1.583,0.57,3.422,0.27,4.768-0.95v0.016c1.33-1.203,1.837-3.009,1.441-4.641
				c1.664,0.221,3.405-0.459,4.466-1.916c1.062-1.458,1.172-3.312,0.46-4.831c1.679-0.126,3.23-1.156,3.976-2.788
				c0.728-1.646,0.46-3.499-0.57-4.829c1.614-0.476,2.93-1.805,3.311-3.564c0.379-1.773-0.285-3.516-1.553-4.608
				C137.022,170.642,137.65,170.025,138.088,169.281z"/>
			<path fill="#C7C6C6" d="M96.515,129.847h-0.003v1.583h0.003c19.504,0,35.371,15.869,35.371,35.373
				c0,10.91-4.968,20.68-12.758,27.174c-6.136,5.114-14.021,8.198-22.613,8.198h-0.003v1.585h0.003
				c8.514,0,16.358-2.902,22.613-7.759c8.716-6.767,14.34-17.335,14.34-29.198C133.468,146.425,116.891,129.847,96.515,129.847z"/>
			<path fill="#E4B92C" d="M96.515,144.316l5.047,15.538h16.337l-13.217,9.603l5.049,15.537l-13.216-9.603h-0.003v13.255h22.616
				v1.071c5.916-5.84,9.59-13.946,9.59-22.915c0-17.786-14.419-32.204-32.203-32.204h-0.003v9.723L96.515,144.316z"/>
			<path fill="#E4B92C" d="M96.512,188.646v10.36h0.003c8.815,0,16.798-3.55,22.613-9.289v-1.071H96.512z"/>
			<path fill="#C0972D" d="M96.515,131.43h-0.003v1.584v1.585h0.003c17.784,0,32.203,14.418,32.203,32.204
				c0,8.969-3.674,17.075-9.59,22.915c-5.815,5.739-13.798,9.289-22.613,9.289h-0.003v1.585v1.583h0.003
				c8.593,0,16.478-3.084,22.613-8.198c7.79-6.494,12.758-16.264,12.758-27.174C131.886,147.299,116.019,131.43,96.515,131.43z"/>
			<polygon fill="#C0972D" points="109.73,184.994 104.682,169.457 117.898,159.854 101.562,159.854 96.515,144.316 96.512,144.321 
				96.512,175.392 96.515,175.392 			"/>
		</g>
	</g>
</g>
</svg>
