<?xml version="1.0" encoding="utf-8"?>
<!-- Generator: Adobe Illustrator 16.0.0, SVG Export Plug-In . SVG Version: 6.00 Build 0)  -->
<!DOCTYPE svg PUBLIC "-//W3C//DTD SVG 1.1//EN" "http://www.w3.org/Graphics/SVG/1.1/DTD/svg11.dtd">
<svg version="1.1" id="Layer_1" xmlns="http://www.w3.org/2000/svg" xmlns:xlink="http://www.w3.org/1999/xlink" x="0px" y="0px"
	 width="273px" height="273px" viewBox="0 0 273 273" enable-background="new 0 0 273 273" xml:space="preserve">
<g>
	<circle fill="#7AC47A" cx="136.5" cy="136.5" r="136.642"/>
	<g>
		<path fill-rule="evenodd" clip-rule="evenodd" fill="#FFFFFF" d="M130.121,42.573l0.043-0.022c0.107-0.139,0.263-0.239,0.44-0.277
			c0.006-0.027,0.014-0.066,0.029-0.118c0.021-0.083,0.05-0.179,0.075-0.265c0.074-0.249,0.156-0.477,0.268-0.717
			c0.109-0.238,0.247-0.48,0.435-0.761c0.452-0.681,1.034-1.279,1.734-1.679c0.632-0.359,1.354-0.557,2.157-0.505
			c0.725,0.046,1.391,0.236,1.969,0.538c0.729,0.38,1.315,0.937,1.709,1.608c0.396,0.675,0.594,1.463,0.541,2.298
			c-0.04,0.613-0.214,1.25-0.547,1.887c-0.26,0.502-0.573,0.977-0.878,1.438c-0.542,0.821-1.048,1.59-1.052,2.217l-0.02,4.042
			c1.373,0.029,2.258,0.26,3.31,0.732c2.896,1.302,5.028,4.813,6.54,7.585c1.039,1.902,1.389,2.239,2.656,3.823
			c3.33,4.102,14.984,9.825,20.24,12.957c0.014,0.401,0.027,0.806,0.041,1.207c0.482-0.033,0.966-0.067,1.447-0.101
			c1.488,0.854,2.685,1.828,3.474,3.225c0.456,0.806,1.851,3.822,0.054,3.729c-0.506-0.026-0.606-0.141-1.419-0.64
			c-1.229-0.756-3.192-2.041-4.927-3.186h-63.884c-1.735,1.145-3.697,2.43-4.928,3.186c-0.81,0.499-0.912,0.613-1.417,0.64
			c-1.798,0.093-0.402-2.924,0.053-3.729c0.789-1.396,1.986-2.37,3.473-3.225c0.482,0.033,0.967,0.067,1.448,0.101
			c0.015-0.401,0.026-0.806,0.041-1.207c5.255-3.132,16.91-8.855,20.24-12.957c1.268-1.584,1.618-1.921,2.656-3.823
			c1.512-2.771,3.643-6.283,6.54-7.585c1.074-0.483,1.975-0.714,3.4-0.733l-0.142-0.001l0.005-0.836l0.016-3.208
			c0.005-0.955,0.599-1.856,1.233-2.818c0.286-0.436,0.584-0.887,0.821-1.343c0.257-0.49,0.393-0.979,0.422-1.444
			c0.038-0.611-0.104-1.185-0.391-1.673c-0.288-0.493-0.725-0.904-1.268-1.188c-0.443-0.231-0.959-0.377-1.528-0.414
			c-0.572-0.036-1.09,0.104-1.544,0.363c-0.538,0.308-0.994,0.781-1.358,1.327c-0.155,0.232-0.268,0.43-0.353,0.615
			c-0.086,0.183-0.149,0.365-0.211,0.57c-0.033,0.113-0.054,0.185-0.071,0.245c-0.063,0.222-0.101,0.358-0.177,0.482
			c0.004,0.027,0.005,0.055,0.005,0.083c0,0.419-0.34,0.76-0.76,0.76c-0.421,0-0.761-0.341-0.761-0.76
			c0-0.156,0.047-0.302,0.128-0.422L130.121,42.573L130.121,42.573z M165.944,79.939c-0.407-0.27-0.729-0.479-0.925-0.604
			c-6.329-4.032-27.453-17.833-28.521-18.53c-1.066,0.697-22.19,14.498-28.521,18.53c-0.193,0.124-0.515,0.334-0.924,0.604H165.944z
			"/>
		<path fill-rule="evenodd" clip-rule="evenodd" fill="#E9215A" d="M136.5,78.595c8.133,0,12.51-4.955,16.786-11.282
			c9.702,1.905,15.792,3.801,21.875,11.833c-0.733,1.237-1.468,2.477-2.201,3.715c-8.766,15.445-10.303,19.413-12.934,36.873
			c-0.772,5.154-1.438,10.233-2.063,15.409c9.674,23.212,10.316,36.912,11.971,61.087c0.453,7.141,0.848,12.668,1.729,18.637
			c0.699,4.738,1.789,8.891,2.056,13.697c-9.638,5.27-9.989,5.301-19.198,4.563c-3.52-0.281-3.533,2.201-7.22,0.941
			c-5.534-3.072-6.117-0.309-10.237,0.273c-4.27,0.602-5.087-3.254-10.294,0.004c-1.819,1.139-5.129-0.191-7.186-1.32
			c-9.437,1.086-11.813,0.18-20.301-4.461c0.268-4.807,1.356-8.959,2.055-13.697c0.881-5.969,1.276-11.496,1.729-18.637
			c1.654-24.176,2.297-37.875,11.969-61.087c-0.625-5.176-1.29-10.255-2.063-15.409c-2.631-17.46-4.168-21.428-12.934-36.873
			c-0.734-1.238-1.468-2.478-2.202-3.715c6.084-8.032,12.174-9.928,21.876-11.833C123.989,73.64,128.366,78.595,136.5,78.595z"/>
	</g>
</g>
</svg>
