<?xml version="1.0" encoding="utf-8"?>
<!-- Generator: Adobe Illustrator 16.0.0, SVG Export Plug-In . SVG Version: 6.00 Build 0)  -->
<!DOCTYPE svg PUBLIC "-//W3C//DTD SVG 1.1//EN" "http://www.w3.org/Graphics/SVG/1.1/DTD/svg11.dtd">
<svg version="1.1" id="Layer_1" xmlns="http://www.w3.org/2000/svg" xmlns:xlink="http://www.w3.org/1999/xlink" x="0px" y="0px"
	 width="273px" height="273px" viewBox="0 0 273 273" enable-background="new 0 0 273 273" xml:space="preserve">
<g>
	<circle fill="#E64C3C" cx="136.5" cy="136.499" r="136.642"/>
	<g>
		<polygon fill="#40C1C4" points="110.864,70.591 162.136,70.591 171.359,45.151 101.641,45.151 		"/>
		<path fill="#049EB4" d="M72.789,70.591l32.695,75.594c7.033-5.996,15.796-10,25.437-11.154l-23.366-64.443l-9.224-25.439
			L72.789,70.591z"/>
		<path fill="#049EB4" d="M174.672,45.151l-9.224,25.439l-23.352,64.393c9.654,1.09,18.445,5.037,25.515,10.982l32.6-75.375
			L174.672,45.151z"/>
		<path fill="#FFCA06" d="M136.668,227.851c24.876,0,45.039-20.166,45.039-45.039c0-12.32-4.956-23.475-12.972-31.605
			c-0.387-0.393-0.8-0.758-1.202-1.137c-0.398-0.377-0.806-0.748-1.217-1.109c-6.905-6.051-15.646-10.049-25.309-10.969
			c-0.536-0.051-1.087-0.051-1.625-0.082c-0.542-0.031-1.081-0.068-1.625-0.08c-0.364-0.01-0.72-0.057-1.087-0.057
			c-0.479,0-0.943,0.057-1.419,0.072c-0.545,0.016-1.087,0.047-1.629,0.08c-0.538,0.037-1.089,0.035-1.621,0.088
			c-9.647,0.992-18.358,5.064-25.223,11.17c-0.41,0.363-0.821,0.727-1.217,1.107c-0.401,0.387-0.803,0.77-1.189,1.168
			c-7.876,8.109-12.744,19.156-12.744,31.354C91.629,207.685,111.795,227.851,136.668,227.851z"/>
		<path fill="#FEE15D" d="M136.668,220.896c21.034,0,38.083-17.053,38.083-38.084c0-10.418-4.19-19.85-10.969-26.725
			c-0.326-0.332-0.676-0.641-1.016-0.961c-0.337-0.318-0.682-0.633-1.029-0.938c-5.838-5.117-13.229-8.496-21.4-9.275
			c-0.452-0.043-0.918-0.043-1.374-0.068c-0.458-0.027-0.913-0.059-1.374-0.068c-0.308-0.008-0.607-0.049-0.918-0.049
			c-0.406,0-0.798,0.049-1.201,0.061c-0.46,0.014-0.918,0.041-1.376,0.068c-0.455,0.033-0.922,0.029-1.372,0.074
			c-8.157,0.84-15.521,4.283-21.326,9.445c-0.348,0.307-0.694,0.615-1.029,0.938c-0.339,0.326-0.679,0.648-1.005,0.986
			c-6.66,6.857-10.776,16.199-10.776,26.512C98.585,203.843,115.637,220.896,136.668,220.896z"/>
		<path fill="#FFCA06" d="M136.668,215.679c18.152,0,32.866-14.717,32.866-32.867c0-8.99-3.616-17.131-9.466-23.064
			c-0.282-0.285-0.584-0.551-0.877-0.828c-0.291-0.275-0.589-0.545-0.888-0.809c-5.039-4.416-11.418-7.334-18.469-8.006
			c-0.391-0.037-0.793-0.037-1.187-0.059c-0.395-0.023-0.788-0.051-1.186-0.061c-0.266-0.006-0.524-0.041-0.793-0.041
			c-0.35,0-0.688,0.041-1.035,0.053c-0.398,0.012-0.793,0.035-1.188,0.059c-0.393,0.027-0.795,0.025-1.184,0.064
			c-7.04,0.725-13.396,3.695-18.405,8.15c-0.3,0.266-0.6,0.531-0.888,0.809c-0.293,0.281-0.586,0.563-0.868,0.852
			c-5.747,5.918-9.3,13.98-9.3,22.881C103.802,200.962,118.518,215.679,136.668,215.679z"/>
		<path fill="#FEE15D" d="M111.798,204.257c6.026,6.982,14.923,11.422,24.87,11.422c18.152,0,32.866-14.717,32.866-32.867
			c0-5.971-1.621-11.547-4.406-16.371L111.798,204.257z"/>
	</g>
</g>
</svg>
