<?xml version="1.0" encoding="utf-8"?>
<!-- Generator: Adobe Illustrator 16.0.0, SVG Export Plug-In . SVG Version: 6.00 Build 0)  -->
<!DOCTYPE svg PUBLIC "-//W3C//DTD SVG 1.1//EN" "http://www.w3.org/Graphics/SVG/1.1/DTD/svg11.dtd">
<svg version="1.1" id="Layer_1" xmlns="http://www.w3.org/2000/svg" xmlns:xlink="http://www.w3.org/1999/xlink" x="0px" y="0px"
	 width="64px" height="64px" viewBox="0 0 64 64" enable-background="new 0 0 64 64" xml:space="preserve">
<g>
	<circle fill="#F04B5D" cx="32" cy="31.999" r="32"/>
	<g>
		<g>
			<g>
				<path fill="#FFFFFF" d="M19.233,21.884c7.627,7.628,15.254,15.256,22.881,22.885c1.712,1.711,4.363-0.94,2.652-2.652
					c-7.628-7.628-15.254-15.256-22.882-22.884C20.174,17.521,17.522,20.172,19.233,21.884L19.233,21.884z"/>
			</g>
		</g>
		<g>
			<g>
				<path fill="#FFFFFF" d="M21.885,44.769c7.627-7.628,15.254-15.255,22.882-22.883c1.711-1.711-0.94-4.363-2.652-2.651
					c-7.627,7.627-15.254,15.255-22.881,22.882C17.522,43.828,20.173,46.479,21.885,44.769L21.885,44.769z"/>
			</g>
		</g>
	</g>
</g>
</svg>
