<?xml version="1.0" encoding="utf-8"?>
<!-- Generator: Adobe Illustrator 16.0.0, SVG Export Plug-In . SVG Version: 6.00 Build 0)  -->
<!DOCTYPE svg PUBLIC "-//W3C//DTD SVG 1.1//EN" "http://www.w3.org/Graphics/SVG/1.1/DTD/svg11.dtd">
<svg version="1.1" id="Layer_1" xmlns="http://www.w3.org/2000/svg" xmlns:xlink="http://www.w3.org/1999/xlink" x="0px" y="0px"
	 width="617px" height="611px" viewBox="0 0 617 611" enable-background="new 0 0 617 611" xml:space="preserve">
<g>
	<path fill="#DB6565" d="M131.645,429.404c0,3.547-2.875,6.422-6.422,6.422H47.3c-3.547,0-6.421-2.875-6.421-6.422v-77.922
		c0-3.547,2.874-6.422,6.421-6.422h77.923c3.547,0,6.422,2.875,6.422,6.422V429.404z"/>
	<path fill="#DB6565" d="M228.604,429.404c0,3.547-2.875,6.422-6.422,6.422h-77.923c-3.547,0-6.421-2.875-6.421-6.422v-77.922
		c0-3.547,2.874-6.422,6.421-6.422h77.923c3.547,0,6.422,2.875,6.422,6.422V429.404z"/>
	<path fill="#DB6565" d="M228.604,236.237c0,3.546-2.875,6.421-6.422,6.421h-77.923c-3.547,0-6.421-2.875-6.421-6.421v-77.924
		c0-3.546,2.874-6.421,6.421-6.421h77.923c3.547,0,6.422,2.875,6.422,6.421V236.237z"/>
	<path fill="#DB6565" d="M325.563,236.237c0,3.546-2.875,6.421-6.422,6.421h-77.923c-3.547,0-6.421-2.875-6.421-6.421v-77.924
		c0-3.546,2.874-6.421,6.421-6.421h77.923c3.547,0,6.422,2.875,6.422,6.421V236.237z"/>
	<path fill="#DB6565" d="M422.521,236.237c0,3.546-2.875,6.421-6.422,6.421h-77.923c-3.547,0-6.421-2.875-6.421-6.421v-77.924
		c0-3.546,2.874-6.421,6.421-6.421H416.1c3.547,0,6.422,2.875,6.422,6.421V236.237z"/>
	<path fill="#DB6565" d="M519.48,236.237c0,3.546-2.875,6.421-6.422,6.421h-77.923c-3.547,0-6.421-2.875-6.421-6.421v-77.924
		c0-3.546,2.874-6.421,6.421-6.421h77.923c3.547,0,6.422,2.875,6.422,6.421V236.237z"/>
	<path fill="#DB6565" d="M131.645,332.82c0,3.547-2.875,6.422-6.422,6.422H47.3c-3.547,0-6.421-2.875-6.421-6.422v-77.923
		c0-3.546,2.874-6.421,6.421-6.421h77.923c3.547,0,6.422,2.875,6.422,6.421V332.82z"/>
	<path fill="#DB6565" d="M228.604,332.82c0,3.547-2.875,6.422-6.422,6.422h-77.923c-3.547,0-6.421-2.875-6.421-6.422v-77.923
		c0-3.546,2.874-6.421,6.421-6.421h77.923c3.547,0,6.422,2.875,6.422,6.421V332.82z"/>
	<path fill="#DB6565" d="M152.117,77.622c0,11.305-9.166,20.472-20.473,20.472l0,0c-11.306,0-20.472-9.167-20.472-20.472V20.828
		c0-11.305,9.166-20.471,20.472-20.471l0,0c11.307,0,20.473,9.167,20.473,20.471V77.622z"/>
	<path fill="#DB6565" d="M449.188,77.622c0,11.305-9.166,20.472-20.473,20.472l0,0c-11.307,0-20.473-9.167-20.473-20.472V20.828
		c0-11.305,9.166-20.471,20.473-20.471l0,0c11.307,0,20.473,9.167,20.473,20.471V77.622z"/>
	<path fill="#DB6565" d="M540.79,403.834c-17.379,0-34.758,0-52.136,0c0-17.377,0-34.756,0-52.135
		c0-21.514-17.953-39.467-39.469-39.467c-21.513,0-39.467,17.953-39.467,39.467c0,17.379,0,34.758,0,52.135
		c-17.379,0-34.757,0-52.136,0c-21.515,0-39.468,17.955-39.468,39.469c0,21.516,17.953,39.469,39.468,39.469
		c17.379,0,34.757,0,52.136,0c0,17.377,0,34.756,0,52.137c0,21.514,17.954,39.467,39.467,39.467
		c21.516,0,39.469-17.953,39.469-39.467c0-17.381,0-34.76,0-52.137c17.378,0,34.757,0,52.136,0
		c21.514,0,39.467-17.953,39.467-39.469C580.257,421.789,562.304,403.834,540.79,403.834z"/>
	<path fill="#DB6565" d="M274.847,443.303c0-0.107,0.004-0.215,0.004-0.324H45.828c-6.513,0-11.793-5.258-11.793-11.742V156.483
		c0-6.485,5.28-11.744,11.793-11.744H514.53c6.514,0,11.793,5.258,11.793,11.744v130.506c12.449,6.168,24.061,13.777,34.615,22.613
		V63.241c0-6.084-5.373-11.016-12-11.016H454.15v24.015c0,14.047-11.388,25.436-25.436,25.436s-25.436-11.389-25.436-25.436V52.226
		H157.081v25.875c0,14.047-11.388,25.436-25.437,25.436c-14.047,0-25.436-11.389-25.436-25.436V52.226H12.473
		c-6.627,0-12,4.932-12,11.016v398.515c0,6.084,5.373,11.016,12,11.016h264.878C275.712,463.189,274.847,453.346,274.847,443.303z"
		/>
	<path fill="#DB6565" d="M305.242,345.061h-64.024c-3.547,0-6.421,2.875-6.421,6.422v77.922c0,3.547,2.874,6.422,6.421,6.422h33.8
		C276.441,402.264,287.395,371.129,305.242,345.061z"/>
	<path fill="#DB6565" d="M325.563,320.5v-65.603c0-3.546-2.875-6.421-6.422-6.421h-77.923c-3.547,0-6.421,2.875-6.421,6.421v77.923
		c0,3.547,2.874,6.422,6.421,6.422h68.177C314.34,332.615,319.746,326.354,325.563,320.5z"/>
	<path fill="#DB6565" d="M422.521,271.002v-16.105c0-3.546-2.875-6.421-6.422-6.421h-77.923c-3.547,0-6.421,2.875-6.421,6.421
		v59.664C356.544,291.93,387.864,276.344,422.521,271.002z"/>
	<path fill="#DB6565" d="M449.188,268.964c24.998,0,48.779,5.3,70.293,14.816v-28.884c0-3.546-2.875-6.421-6.422-6.421h-77.923
		c-3.547,0-6.421,2.875-6.421,6.421v15.275C435.432,269.383,442.262,268.964,449.188,268.964z"/>
	<path fill="#DB6565" d="M449.188,275.964c-92.42,0-167.34,74.92-167.34,167.338s74.92,167.34,167.34,167.34
		c92.417,0,167.339-74.922,167.339-167.34S541.604,275.964,449.188,275.964z M449.188,586.084
		c-78.855,0-142.78-63.926-142.78-142.781s63.925-142.78,142.78-142.78s142.781,63.924,142.781,142.78
		S528.043,586.084,449.188,586.084z"/>
</g>
</svg>
