<?xml version="1.0" encoding="utf-8"?>
<!-- Generator: Adobe Illustrator 16.0.0, SVG Export Plug-In . SVG Version: 6.00 Build 0)  -->
<!DOCTYPE svg PUBLIC "-//W3C//DTD SVG 1.1//EN" "http://www.w3.org/Graphics/SVG/1.1/DTD/svg11.dtd">
<svg version="1.1" xmlns="http://www.w3.org/2000/svg" xmlns:xlink="http://www.w3.org/1999/xlink" x="0px" y="0px" width="100px"
	 height="100px" viewBox="0 0 100 100" enable-background="new 0 0 100 100" xml:space="preserve">
<g id="Layer_1" display="none">
	<g display="inline">
		<path fill="none" d="M47.094,63.856c3.302,0,6.602,0,9.903,0c0-3.302,0-6.604,0-9.905c0-2.25,1.172-3.743,2.728-4.484V20.604
			H29.666V66.58H42.61C43.353,65.026,44.845,63.856,47.094,63.856z"/>
		<path fill="#939996" d="M77.314,63.856c-3.3,0-6.602,0-9.901,0c0-3.302,0-6.604,0-9.905c0-2.249-1.171-3.741-2.726-4.483V20.446
			c0-2.648-2.154-4.803-4.805-4.803H29.508c-2.648,0-4.804,2.155-4.804,4.803v46.295c0,2.648,2.156,4.801,4.804,4.801h13.1
			c0.742,1.557,2.234,2.729,4.486,2.729c3.302,0,6.602,0,9.903,0c0,3.3,0,6.6,0,9.899c0,6.72,10.416,6.72,10.416,0
			c0-3.3,0-6.6,0-9.899c3.3,0,6.602,0,9.901,0C84.03,74.271,84.03,63.856,77.314,63.856z M29.666,20.604h30.059v28.862
			c-1.556,0.742-2.728,2.234-2.728,4.484c0,3.302,0,6.604,0,9.905c-3.302,0-6.602,0-9.903,0c-2.249,0-3.741,1.17-4.483,2.724H29.666
			V20.604z"/>
	</g>
	<path display="inline" fill="#939996" d="M50,0C22.386,0,0,22.386,0,50s22.386,50,50,50s50-22.386,50-50S77.614,0,50,0z M50,97.5
		C23.767,97.5,2.5,76.234,2.5,50C2.5,23.767,23.767,2.5,50,2.5c26.234,0,47.5,21.267,47.5,47.5C97.5,76.234,76.234,97.5,50,97.5z"/>
</g>
<g id="Layer_4" display="none">
	<g display="inline">
		<g>
			<g>
				<path fill="#939996" d="M26.192,54.256c0,2.6,0.988,3.588,3.744,3.588c1.249,0,2.184-0.26,2.965-0.623v3.535
					c-0.988,0.363-2.133,0.623-3.433,0.623c-2.132,0-7.021-0.674-7.021-7.33V38.446h-4.523v-3.432h4.523v-7.332h3.745v7.332h6.708
					v3.432h-6.708V54.256z"/>
				<path fill="#939996" d="M60.096,48.38c0,0.988-0.104,1.819-0.104,1.819H41.063c0.468,5.201,3.068,7.437,8.425,7.437
					c3.795,0,6.708-0.625,8.891-1.926v3.85c-2.494,1.195-5.563,1.818-9.256,1.818c-5.408,0-11.856-2.234-11.856-13.052
					c0-2.755-0.416-13.78,11.388-13.78C60.461,34.547,60.096,47.392,60.096,48.38z M56.248,46.872c0-1.248-0.416-8.79-7.593-8.79
					c-5.096,0-7.229,2.393-7.592,8.79H56.248z"/>
			</g>
		</g>
		<rect x="63.686" y="61.379" fill="#939996" width="18.391" height="8.795"/>
	</g>
	<path display="inline" fill="#939996" d="M50,0C22.386,0,0,22.386,0,50s22.386,50,50,50s50-22.386,50-50S77.614,0,50,0z M50,97.5
		C23.767,97.5,2.5,76.234,2.5,50C2.5,23.767,23.767,2.5,50,2.5c26.234,0,47.5,21.267,47.5,47.5C97.5,76.234,76.234,97.5,50,97.5z"/>
</g>
<g id="Layer_2">
	<g>
		<path fill="none" d="M29.666,50.434c9.78-6.083,19.56-12.166,29.34-18.246c0.243-0.151,0.483-0.238,0.719-0.296V22.32
			c-10.019,6.231-20.038,12.462-30.059,18.693V50.434z"/>
		<path fill="none" d="M53.729,20.604H29.666v14.965C37.688,30.581,45.708,25.593,53.729,20.604z"/>
		<path fill="none" d="M59.725,37.282c-9.966,6.199-19.933,12.397-29.899,18.595c-0.054,0.033-0.106,0.05-0.16,0.078v8.788
			c10.021-6.23,20.04-12.46,30.059-18.692V37.282z"/>
		<path fill="none" d="M35.49,66.58h7.12c0.743-1.554,2.234-2.724,4.483-2.724c3.302,0,6.602,0,9.903,0c0-3.302,0-6.604,0-9.905
			c0-0.271,0.019-0.529,0.052-0.777C49.863,57.643,42.676,62.111,35.49,66.58z"/>
		<path fill="#939996" d="M77.314,63.856c-3.3,0-6.602,0-9.901,0c0-3.302,0-6.604,0-9.905c0-2.249-1.171-3.741-2.726-4.483V20.446
			c0-2.648-2.154-4.803-4.805-4.803H29.508c-2.648,0-4.804,2.155-4.804,4.803v46.295c0,2.648,2.156,4.801,4.804,4.801h13.1
			c0.742,1.557,2.234,2.729,4.486,2.729c3.302,0,6.602,0,9.903,0c0,3.3,0,6.6,0,9.899c0,6.72,10.416,6.72,10.416,0
			c0-3.3,0-6.6,0-9.899c3.3,0,6.602,0,9.901,0C84.03,74.271,84.03,63.856,77.314,63.856z M59.725,31.893
			c-0.235,0.058-0.476,0.145-0.719,0.296c-9.78,6.08-19.56,12.162-29.34,18.246v-9.421c10.021-6.231,20.04-12.462,30.059-18.693
			V31.893z M29.666,55.955c0.053-0.028,0.106-0.045,0.16-0.078c9.966-6.198,19.933-12.396,29.899-18.595v8.769
			c-10.019,6.232-20.038,12.462-30.059,18.692V55.955z M53.729,20.604c-8.021,4.988-16.042,9.977-24.063,14.965V20.604H53.729z
			 M56.997,63.856c-3.302,0-6.602,0-9.903,0c-2.249,0-3.741,1.17-4.483,2.724h-7.12c7.186-4.469,14.373-8.938,21.559-13.406
			c-0.033,0.248-0.052,0.507-0.052,0.777C56.997,57.253,56.997,60.555,56.997,63.856z"/>
	</g>
	<path fill="#939996" d="M50,0C22.386,0,0,22.386,0,50s22.386,50,50,50s50-22.386,50-50S77.614,0,50,0z M50,97.5
		C23.767,97.5,2.5,76.234,2.5,50C2.5,23.767,23.767,2.5,50,2.5c26.234,0,47.5,21.267,47.5,47.5C97.5,76.234,76.234,97.5,50,97.5z"/>
	<path fill="#939996" d="M50,0C22.386,0,0,22.386,0,50s22.386,50,50,50s50-22.386,50-50S77.614,0,50,0z M50,97.5
		C23.767,97.5,2.5,76.234,2.5,50C2.5,23.767,23.767,2.5,50,2.5c26.234,0,47.5,21.267,47.5,47.5C97.5,76.234,76.234,97.5,50,97.5z"/>
</g>
<g id="Layer_3" display="none">
	<g display="inline">
		<path fill="none" d="M40.415,27.01c2.136,1.525,6.535,6.673,7.147,9.857c0.377-3.486,4.487-9.431,6.452-11.157
			c0.67-0.588,1.442-0.986,2.253-1.231h-4.623v3.426h-8.846v-3.426H32.624v1.857C35.078,25.257,38.228,25.446,40.415,27.01z"/>
		<path fill="none" d="M47.699,38.361c-0.047-0.116-0.066-0.252-0.094-0.382c-0.024,0.137-0.065,0.262-0.115,0.382H47.699z"/>
		<path fill="none" d="M61.818,25.492v-1.013h-1.981C60.547,24.689,61.217,25.025,61.818,25.492z"/>
		<path fill="none" d="M60.305,28c-0.582-0.609-1.379-0.946-2.24-0.946c-0.756,0-1.483,0.273-2.044,0.765
			c-1.849,1.629-4.871,6.459-5.436,8.788c2.729-0.401,7.815-2.993,9.531-4.496C61.347,31.03,61.431,29.183,60.305,28z"/>
		<path fill="none" d="M62.122,34.221c-1.267,1.113-4.398,2.95-7.436,4.141h8.45c0.771,0,1.484,0.123,2.101,0.324V27.905h-1.576
			C64.519,30.053,63.994,32.573,62.122,34.221z"/>
		<path fill="none" d="M33.616,32.808c1.906,1.361,7.583,3.709,10.62,4.073c-0.626-2.11-3.998-6.484-6.06-7.96
			c-0.624-0.445-1.432-0.693-2.281-0.693c-0.958,0-1.846,0.306-2.492,0.857C32.146,30.156,32.246,31.83,33.616,32.808z"/>
		<path fill="none" d="M32.624,49.457c4.751-2.955,9.502-5.91,14.253-8.863H29.203v1.314h3.42V49.457z"/>
		<path fill="none" d="M38.721,68.193h4.076v-2.534C41.439,66.504,40.081,67.349,38.721,68.193z"/>
		<path fill="none" d="M31.304,38.361h8.013c-3.274-1.08-6.577-2.668-7.94-3.642c-2.499-1.786-2.837-4.699-0.96-6.814h-1.214v10.781
			C29.819,38.484,30.533,38.361,31.304,38.361z"/>
		<path fill="none" d="M65.237,61.733V51.704c-7.002,4.354-14.004,8.708-21.005,13.063h7.412v3.427h7.805l-0.742-11.162
			L65.237,61.733z"/>
		<path fill="none" d="M32.624,65.764c9.733-6.051,19.463-12.105,29.195-18.157v-5.698h3.419v-1.314h-8.203
			c-8.678,5.396-17.356,10.795-26.033,16.191c-0.631,0.392-1.246,0.478-1.798,0.366v7.615h3.42V65.764z"/>
		<path fill="none" d="M30.524,50.763h-1.321v0.821C29.643,51.31,30.084,51.036,30.524,50.763z"/>
		<path fill="#939996" d="M67.239,63.176V50.763h3.425v-8.854h-3.425V27.905h3.425V19.05h-8.846v3.426H51.644V19.05h-8.846v3.426
			H32.624V19.05h-8.848v8.854H27.2v14.003h-3.424v8.854H27.2v14.004h-3.424v8.853h8.848v-3.424h10.174v3.424h8.846v-3.424h7.938
			l0.988,14.875l8.354-9.092l13.698-1.727L67.239,63.176z M65.237,38.686c-0.616-0.201-1.33-0.324-2.101-0.324h-8.45
			c3.037-1.191,6.169-3.027,7.436-4.141c1.872-1.648,2.396-4.167,1.539-6.316h1.576V38.686z M33.403,29.085
			c0.646-0.552,1.534-0.857,2.492-0.857c0.849,0,1.657,0.248,2.281,0.693c2.063,1.476,5.434,5.851,6.06,7.96
			c-3.038-0.364-8.714-2.712-10.62-4.073C32.246,31.83,32.146,30.156,33.403,29.085z M47.605,37.979
			c0.028,0.13,0.047,0.267,0.094,0.382H47.49C47.54,38.241,47.581,38.116,47.605,37.979z M50.585,36.606
			c0.564-2.328,3.587-7.158,5.436-8.788c0.561-0.492,1.288-0.765,2.044-0.765c0.861,0,1.658,0.337,2.24,0.946
			c1.126,1.183,1.042,3.03-0.188,4.111C58.4,33.613,53.314,36.206,50.585,36.606z M61.818,25.492
			c-0.602-0.466-1.271-0.802-1.981-1.013h1.981V25.492z M42.797,24.479v3.426h8.846v-3.426h4.623
			c-0.811,0.245-1.583,0.644-2.253,1.231c-1.965,1.727-6.075,7.671-6.452,11.157c-0.612-3.185-5.011-8.332-7.147-9.857
			c-2.187-1.564-5.337-1.753-7.791-0.674v-1.857H42.797z M30.417,27.905c-1.877,2.115-1.539,5.028,0.96,6.814
			c1.363,0.974,4.666,2.563,7.94,3.642h-8.013c-0.771,0-1.484,0.123-2.101,0.324V27.905H30.417z M29.203,40.594h17.673
			c-4.75,2.954-9.502,5.908-14.253,8.863v-7.549h-3.42V40.594z M30.524,50.763c-0.44,0.273-0.881,0.547-1.321,0.821v-0.821H30.524z
			 M29.203,57.151c0.552,0.111,1.167,0.025,1.798-0.366c8.677-5.396,17.355-10.795,26.033-16.191h8.203v1.314h-3.419v5.698
			c-9.731,6.052-19.462,12.106-29.195,18.157v-0.997h-3.42V57.151z M38.721,68.193c1.359-0.845,2.718-1.689,4.076-2.534v2.534
			H38.721z M51.644,68.193v-3.427h-7.412c7.001-4.354,14.003-8.708,21.005-13.063v10.029l-6.531-4.702l0.742,11.162H51.644z"/>
	</g>
	<path display="inline" fill="#939996" d="M50,0C22.386,0,0,22.386,0,50s22.386,50,50,50s50-22.386,50-50S77.614,0,50,0z M50,97.5
		C23.767,97.5,2.5,76.234,2.5,50C2.5,23.767,23.767,2.5,50,2.5c26.234,0,47.5,21.267,47.5,47.5C97.5,76.234,76.234,97.5,50,97.5z"/>
</g>
</svg>
