<?xml version="1.0" encoding="utf-8"?>
<!-- Generator: Adobe Illustrator 16.0.0, SVG Export Plug-In . SVG Version: 6.00 Build 0)  -->
<!DOCTYPE svg PUBLIC "-//W3C//DTD SVG 1.1//EN" "http://www.w3.org/Graphics/SVG/1.1/DTD/svg11.dtd">
<svg version="1.1" id="Layer_1" xmlns="http://www.w3.org/2000/svg" xmlns:xlink="http://www.w3.org/1999/xlink" x="0px" y="0px"
	 width="595px" height="666px" viewBox="0 0 595 666" enable-background="new 0 0 595 666" xml:space="preserve">
<g>
	<path fill="#DB6565" d="M398.436,331.565c-92.42,0-167.34,74.92-167.34,167.34c0,92.418,74.92,167.34,167.34,167.34
		c92.418,0,167.34-74.922,167.34-167.34C565.775,406.485,490.854,331.565,398.436,331.565z M398.436,641.687
		c-78.855,0-142.779-63.926-142.779-142.781s63.924-142.781,142.779-142.781s142.781,63.926,142.781,142.781
		S477.291,641.687,398.436,641.687z"/>
	<g>
		<path fill="#DB6565" d="M378.184,616.758v-28.996c-16.65-0.288-33.875-5.455-43.924-12.631l6.891-19.238
			c10.336,6.892,25.264,12.347,41.34,12.347c20.383,0,34.166-11.771,34.166-28.136c0-15.788-11.197-25.55-32.443-34.162
			c-29.283-11.486-47.369-24.69-47.369-49.667c0-23.83,16.938-41.92,43.35-46.226v-28.996h17.803V408.9
			c17.225,0.576,28.994,5.171,37.32,10.049l-7.176,18.95c-6.029-3.445-17.801-9.761-36.174-9.761
			c-22.107,0-30.434,13.203-30.434,24.689c0,14.929,10.621,22.392,35.6,32.729c29.57,12.055,44.5,26.987,44.5,52.537
			c0,22.681-15.791,43.924-45.361,48.807v29.856H378.184z"/>
	</g>
	<g>
		<g>
			<path fill="#DB6565" d="M217.351,498.905c0-100.01,81.075-181.084,181.084-181.084c23.064,0,45.117,4.321,65.406,12.184
				l25.154-22.314c-5.174-5.836-10.35-11.689-15.541-17.521c-7.854-8.849,5.121-21.916,13.021-13.017
				c5.422,6.111,10.844,12.23,16.268,18.338l90.586-80.361l-48.391-54.569c-29.359,26.033-74.258,23.343-100.283-5.992
				c-26.025-29.334-23.348-74.229,5.996-100.25L402.262-0.245l-90.588,80.349c5.174,5.836,10.367,11.677,15.541,17.513
				c7.848,8.848-5.127,21.915-13.021,13.017c-5.412-6.116-10.836-12.223-16.258-18.334L0,356.593l48.405,54.585
				c29.344-26.048,74.233-23.37,100.252,5.972c26.033,29.352,23.346,74.242-6.006,100.275l48.408,54.547l31.879-28.278
				C219.294,529.369,217.351,514.364,217.351,498.905z M441.906,226.903c6.34,7.153,12.693,14.308,19.041,21.461
				c7.846,8.841-5.129,21.91-13.029,13.012c-6.338-7.153-12.693-14.308-19.041-21.461
				C421.031,231.074,434.004,218.001,441.906,226.903z M397.334,176.67c6.338,7.149,12.686,14.296,19.031,21.449
				c7.855,8.847-5.117,21.911-13.02,13.012c-6.34-7.144-12.686-14.295-19.041-21.449
				C376.467,180.837,389.432,167.772,397.334,176.67z M352.752,126.41c6.34,7.152,12.695,14.3,19.043,21.453
				c7.852,8.838-5.119,21.907-13.021,13.013c-6.346-7.149-12.701-14.297-19.047-21.449
				C331.879,130.584,344.852,117.516,352.752,126.41z"/>
		</g>
	</g>
</g>
</svg>
