<?xml version="1.0" encoding="utf-8"?>
<!-- Generator: Adobe Illustrator 16.0.0, SVG Export Plug-In . SVG Version: 6.00 Build 0)  -->
<!DOCTYPE svg PUBLIC "-//W3C//DTD SVG 1.1//EN" "http://www.w3.org/Graphics/SVG/1.1/DTD/svg11.dtd">
<svg version="1.1" id="Layer_1" xmlns="http://www.w3.org/2000/svg" xmlns:xlink="http://www.w3.org/1999/xlink" x="0px" y="0px"
	 width="506px" height="628px" viewBox="0 0 506 628" enable-background="new 0 0 506 628" xml:space="preserve">
<g>
	<path fill="#DB6565" stroke="#DB6565" stroke-width="0.9607" stroke-miterlimit="10" d="M317.938,295.516
		c69.256-46.61,91.756-139.52,49.637-213.127C323.475,5.324,225.253-21.396,148.192,22.7
		C71.127,66.799,44.405,165.017,88.503,242.081c42.12,73.609,133.615,101.282,208.891,65.188c0.844,1.438,1.691,2.883,2.559,4.342
		c8.447,14.25,17.188,30.029,23.967,45.786c0.973,2.251,1.916,4.492,2.83,6.719c2.75,6.67,5.51,13.515,8.271,20.472
		c1.896,4.779,3.9,9.572,6.064,14.336c2.398,5.291,4.973,10.553,7.783,15.745c1.02,1.878,2.049,3.753,3.09,5.626
		c8.063,14.486,16.674,28.921,25.418,43.041c11.467,18.528,23.146,36.529,34.047,53.66c3.953,6.213,7.68,12.365,11.191,18.411
		c17.168,29.526,27.205,58.083,36.188,77.433c7.199,15.505,22.217,13.649,22.217,13.649s5.766-0.697,10.436-3.37
		c4.879-2.791,8.668-7.561,8.668-7.561s9.205-12.009-0.512-26.068c-12.133-17.551-31.666-40.672-48.426-70.43
		c-3.432-6.092-6.846-12.422-10.201-18.977c-9.248-18.079-18.852-37.27-29.014-56.543c-7.744-14.691-15.824-29.428-24.23-43.719
		c-1.09-1.85-2.186-3.686-3.285-5.514c-3.055-5.057-6.289-9.941-9.631-14.689c-3.016-4.279-6.129-8.436-9.287-12.492
		c-4.602-5.904-9.104-11.754-13.463-17.502c-1.455-1.916-2.908-3.868-4.359-5.844c-10.146-13.831-19.322-29.36-27.33-43.859
		C319.566,298.433,318.75,296.968,317.938,295.516z M108.984,230.362C71.357,164.61,94.158,80.805,159.911,43.178
		c65.753-37.625,149.558-14.823,187.181,50.93c37.629,65.753,14.828,149.558-50.926,187.184
		C230.413,318.919,146.608,296.114,108.984,230.362z"/>
	<path fill="#DB6565" d="M56.775,162.075c0-19.15,3.181-37.558,9.033-54.729c-37.911,19.4-63.876,58.82-63.876,104.329
		c0,130.497,117.156,304.934,117.156,304.934s61.586-83.846,95.451-185.397C126.399,325.159,56.775,251.753,56.775,162.075z"/>
	<g>
		<path fill="#DB6565" d="M141.413,127.069c3.543,4.894,7.055,10.853,6.99,16.923c0.693,0.862,1.215,1.84,1.587,2.896
			c1.408,1.615,2.396,3.517,2.563,5.719c0.075,1.004-0.028,1.915-0.28,2.738c0.433,0.575,0.733,1.236,0.854,1.952
			c5.981,4.142,11.844,8.462,18.102,12.182c5.632,3.348,13.188,7.882,20.35,8.232c-2.15-10.977-6.212-21.474-8.189-32.495
			c-0.209-1.168,2.699-1.885,2.898-0.776c2.016,11.241,6.209,21.933,8.323,33.149c0.373-0.051,0.747-0.099,1.115-0.179
			c8.123-1.764,15.308-7.526,21.494-12.805c4.348-3.71,8.509-7.617,12.597-11.603c-3.866-0.38-7.777-0.26-11.619-0.912
			c-13.185-2.236-16.819-12.502-19.761-23.361c-6.013,2.56-11.972,4.769-18.461,5.771c-1.978,0.306-1.219-1.718,0.303-1.953
			c6.019-0.93,11.555-3.066,17.129-5.446c0.184-0.079,0.371-0.123,0.555-0.142c-1.404-5.293-2.759-10.63-5.075-15.163
			c-0.807,0.17-1.618,0.318-2.436,0.431c-10.238,1.403-20.229-0.472-30.373-1.677c-0.077,0.245-0.149,0.491-0.236,0.735
			c-0.771,2.158-1.854,4.017-3.162,5.651c0.614-0.373,1.529-0.54,1.975-0.191c9.107,7.116,19.144,14.939,23.864,25.811
			c0.147,0.34-0.267,0.78-0.521,0.924c-8.351,4.726-16.145,10.347-24.494,15.073c-1.061,0.6-3.561-0.107-1.855-1.072
			c4.696-2.658,9.213-5.588,13.749-8.507c2.515-1.618,5.025-3.248,7.606-4.759c2.965-1.735,1.873-3.009,0.134-5.571
			c-5.488-8.088-13.115-14.403-20.756-20.372c-0.262-0.204-0.338-0.422-0.301-0.631
			C152.286,121.965,146.844,124.641,141.413,127.069z"/>
		<path fill="#DB6565" d="M121.305,230.294c-0.002-0.054-0.007-0.105-0.009-0.158c-0.025,0.004-0.057,0.014-0.083,0.018
			C121.244,230.2,121.275,230.247,121.305,230.294z"/>
		<path fill="#DB6565" d="M231.778,103.127c-2.835-1.077-5.288-2.831-7.497-4.899c-6.039,0.945-11.599,4.712-16.786,7.668
			c-1.656,0.944-3.369,1.83-5.119,2.641c3.043,6.78,4.159,14.218,6.443,21.271c1.186,3.657,2.67,8.553,6.223,10.664
			c0.295,0.175,0.594,0.317,0.892,0.464c0.3-0.235,0.736-0.447,1.175-0.511c6.988-1.021,14.013-3.967,20.714-6.661
			c-7.74-9.125-12.774-20.129-17.694-30.941c-0.539-1.186,2.327-2.032,2.898-0.776c4.877,10.717,9.88,21.586,17.582,30.611
			c0.425-0.166,0.849-0.331,1.27-0.491c5.446-2.077,10.878-4.197,16.285-6.381c-5.234-7.946-11.27-15.314-17.993-21.995
			C237.525,104.379,234.722,104.245,231.778,103.127z"/>
		<path fill="#DB6565" d="M241.745,133.829c2.954,4.927,5.769,9.875,7.659,15.321c0.101,0.291,0.025,0.554-0.147,0.776
			c0.959,0.613,1.911,1.265,2.857,1.964c7.968,5.887,15.117,12.96,23.8,17.824c0.611,0.342,1.09,0.752,1.461,1.202
			c-3.594-15.932-9.959-30.813-18.555-44.117c-5.752,2.321-11.533,4.577-17.338,6.765
			C241.585,133.633,241.678,133.717,241.745,133.829z"/>
		<path fill="#DB6565" d="M240.799,208.329c0.141-0.365,0.262-0.742,0.357-1.135c1.403-5.783-2.737-9.59-8.275-10.264
			c-2.187-0.266-3.624-1.639-4.306-3.289c-0.708,0.698-1.665,1.184-2.847,1.346c-0.532,0.601-2.021,0.976-2.632,0.404
			c-10.699,2.641-6.491,18.161,3.904,19.757c4.802,0.737,10.612-1.192,13.141-5.489c-0.073-0.131-0.161-0.25-0.231-0.383
			C239.733,208.938,240.192,208.562,240.799,208.329z"/>
		<path fill="#DB6565" d="M165.637,101.363c8.724,1.315,17.783,2.719,26.152,0.394c4.868-1.353,9.314-3.755,13.737-6.178
			c-9.629-5.118-18.992-10.819-29.402-14.192c-1.01-0.327,1.606-1.48,2.35-1.239c10.396,3.369,19.75,9.06,29.362,14.171
			c3.023-1.638,6.067-3.204,9.26-4.368c-1.293-1.657-1.389-3.542-0.8-5.144c-10.196-6.406-21.293-11.51-33.059-15.08
			c-3.226,5.612-7.147,10.794-10.589,16.272C169.754,90.607,166.225,95.796,165.637,101.363z"/>
		<path fill="#DB6565" d="M270.867,178.349c-3.008-1.685-5.805-3.648-8.512-5.727c1.299,10.203,3.582,20.24,6.523,30.109
			c2.213-0.092,4.406-0.014,6.424,0.101c1.813,0.103,3.623,0.262,5.43,0.442c0.004-0.658,0.016-1.318,0.016-1.977
			c0-9.022-0.877-17.84-2.537-26.377C277.482,177.832,274.285,180.264,270.867,178.349z"/>
		<path fill="#DB6565" d="M244.978,255.752c-4.487-6.568-13.724-9.762-21.898-11.392c-0.684-0.137-1.372-0.264-2.063-0.388
			c-2.865,6.693-5.214,13.581-7.559,20.469c0.271,0.102,0.534,0.216,0.806,0.315c0.279,0.104,0.31,0.258,0.198,0.424
			C224.745,262.397,234.702,258.554,244.978,255.752z"/>
		<path fill="#DB6565" d="M151.452,225.784c6.688,4.395,13.644,8.349,21.055,11.43c2.941-3.848,5.948-7.648,8.52-11.747
			c-8.87-6.933-14.97-17.86-18.485-28.556c-0.02,0.019-0.039,0.037-0.059,0.055c-4.419,4.021-9.592,8.623-15.89,8.807
			c-1.725,0.051-3.429-0.053-5.152-0.094c-0.938-0.023-3.501,0.48-2.874-0.122c-2.178,2.095-3.679,4.737-4.664,7.586
			c5.39,4.119,10.858,8.19,16.515,11.96c-0.001-0.01-0.005-0.019-0.005-0.029v-17.898c0-1.002,2.904-1.607,2.904-0.342v17.899
			C153.316,225.329,152.286,225.782,151.452,225.784z"/>
		<path fill="#DB6565" d="M175.955,249.818c-2.825,4.593-4.924,9.399-5.33,14.778c2.678,2.625,4.333,6.014,4.901,9.849
			c0.135,0.911,0.092,1.814-0.115,2.648c8.591,3.94,17.691,6.958,27.18,8.923c2.942-6.72,5.344-13.647,7.709-20.591
			C198.545,260.902,187.596,254.599,175.955,249.818z"/>
		<path fill="#DB6565" d="M117.752,170.672c-3.808,1.482-7.71,2.7-11.663,3.471c-2.006,0.391-3.643-0.322-4.741-1.512
			c1.599,17.473,6.709,33.929,14.626,48.654c0.204-0.096,0.417-0.186,0.646-0.261c1.768-0.582,3.53-0.867,5.22-0.854
			c0.467-3.178,1.204-6.302,2.257-9.225c1.864-5.176,4.727-11.666,9.973-14.168C128.224,188.335,122.942,179.532,117.752,170.672z"
			/>
		<path fill="#DB6565" d="M255.715,207.091c2.709-2.498,6.338-3.639,10.111-4.109c-3.186-10.786-5.586-21.774-6.762-32.961
			c-0.977-0.792-1.949-1.591-2.92-2.391c-6.361,6.261-10.83,13.692-15.746,21.391c7.626,3.45,12.883,10.604,10.599,20.016
			c-0.513,2.111-1.334,4.043-2.399,5.783c0.47,0.348,0.949,0.683,1.434,1.009C251.481,212.522,253.257,209.358,255.715,207.091z"/>
		<path fill="#DB6565" d="M262.307,214.681c-3.449,4.235-5.268,10.31-7.016,15.388c-0.314,0.913-0.619,1.831-0.922,2.748
			c0.07-0.013,0.133-0.021,0.18-0.02c8.125,0.165,16.365,2.224,24.252,4.655c0.846-8.094,1.426-16.182,1.721-24.245
			c-0.807-0.073-1.613-0.142-2.42-0.198C274.209,212.737,265.066,211.292,262.307,214.681z"/>
		<path fill="#DB6565" d="M103.431,164.5c6.523-1.271,12.952-3.771,18.867-6.764c0.378-0.191,0.771-0.389,1.171-0.59
			c-0.143-2.408,0.374-4.895,1.457-7.111c-7.56-2.281-13.143-8.257-20.403-11.201c-0.976-0.396,1.665-1.483,2.359-1.202
			c6.796,2.755,12.159,8.188,19.006,10.731c0.038-0.056,0.069-0.116,0.108-0.171c2.877-4.146,7.343-7.315,12.185-7.344
			c-1.433-4.637-6.18-9.922-8.298-12.431c-4.917-5.825-10.376-11.133-15.469-16.795c-4.3-4.78,2.75-11.875,7.07-7.071
			c4.426,4.92,9.115,9.583,13.487,14.537c5.863-2.396,15.207-5.678,15.727-12.506c0.968-12.731-6.272-24.436-6.661-37.12
			c-0.197-6.452,9.803-6.433,10,0c0.307,10.034,6.068,20.776,6.981,31.228c0.603,0.082,1.208,0.168,1.815,0.256
			c0.822-5.406,4.263-10.61,7.104-15.049c3.531-5.514,7.47-10.795,10.717-16.486c0.072-0.126,0.2-0.238,0.356-0.335
			c-11.335-3.23-23.264-5.052-35.59-5.243c-27.312,23.437-44.621,58.189-44.621,97.002c0,1.672,0.042,3.335,0.105,4.992
			C101.492,165.196,102.32,164.717,103.431,164.5z"/>
		<path fill="#DB6565" d="M154.993,262.979c1.753-0.929,3.736-1.61,5.75-1.868c0.671-5.096,2.429-10.053,5.29-14.718
			c1.592-2.596,3.367-5.063,5.195-7.492c-0.274,0.037-0.528,0.028-0.719-0.051c-13.63-5.618-25.723-14.185-37.409-23.069
			c-0.836,3.01-1.407,6.063-1.662,9.15c0.736,1.018,1.354,2.196,1.815,3.544c1.761,5.134,1.506,11.452-0.12,16.599
			c-0.057,0.18-0.121,0.35-0.19,0.515c6.136,6.923,13.01,13.175,20.501,18.632C153.83,263.751,154.337,263.326,154.993,262.979z"/>
		<path fill="#DB6565" d="M269.553,262.924c0.689-1.432,1.73-2.759,3.129-3.874c1.045-0.833,2.264-1.349,3.482-1.414
			c0.955-6.125,1.771-12.256,2.441-18.387c-7.957-2.538-16.365-4.855-24.631-5.232c-1.089,3.352-2.111,6.725-3.083,10.115
			c-0.171,0.595-0.415,1.107-0.715,1.543c4.353,4.236,7.142,9.676,7.525,16.594C261.389,262.892,265.656,263.278,269.553,262.924z"
			/>
		<path fill="#DB6565" d="M254.775,166.503c-2.916-2.395-5.857-4.759-8.985-6.886c-1.685-1.146-3.401-2.245-5.177-3.212
			c-6.629,6.596-13.381,13.063-20.733,18.857c-2.087,1.645-4.29,3.334-6.596,4.912c1.974,1.966,3.798,4.078,5.605,6.209
			c2.006-0.715,4.17-1.18,6.454-1.338c2.296-0.158,3.764,1.014,4.417,2.604c0.77-0.578,1.806-0.879,3.12-0.719
			c1.87,0.228,3.7,0.656,5.441,1.262c2.736-4.52,5.375-9.122,8.543-13.325C249.222,171.741,251.875,168.997,254.775,166.503z"/>
		<path fill="#DB6565" d="M272.682,275.542c-1.031-0.822-1.869-1.76-2.516-2.769c-6.416,0.552-13.223-0.31-18.831-1.599
			c-2.037-0.468-3.829-2.695-3.671-4.821c0.27-3.61-0.445-6.657-1.849-9.236c-10.954,2.951-21.53,7.14-32.519,9.979
			c-0.303,0.078-0.548,0.082-0.766,0.06c-2.233,6.537-4.532,13.047-7.318,19.37c7.595,1.406,15.424,2.149,23.426,2.149
			c15.167,0,29.707-2.652,43.203-7.499c0.381-1.81,0.75-3.621,1.111-5.434C272.861,275.677,272.77,275.612,272.682,275.542z"/>
		<path fill="#DB6565" d="M238.97,134.524c-6.938,2.637-14.231,5.814-21.58,7.03c2.736,0.965,5.62,1.042,8.616,1.194
			c7.247,0.368,13.672,1.972,19.739,5.144c-1.783-4.483-4.168-8.643-6.655-12.791C238.97,134.901,238.943,134.707,238.97,134.524z"
			/>
		<path fill="#DB6565" d="M249.095,218.08c-0.646-0.406-1.282-0.827-1.911-1.259c-5.008,6.303-13.548,9.396-21.838,8.124
			c-7.866-1.208-14.532-6.813-17.3-14.1h-27.423c2.683,3.56,5.852,6.634,9.563,8.798c2.442,1.424,3.045,4.424,1.794,6.841
			c-1.23,2.378-2.676,4.661-4.221,6.894c15.342-2.026,38.558-1.559,53.99,6.379c1.547-5.328,3.19-10.64,5.151-15.83
			C247.591,222.099,248.299,220.095,249.095,218.08z"/>
		<path fill="#DB6565" d="M216.195,187.539c-1.691-2.004-3.402-3.987-5.247-5.837c-4.595,2.879-9.565,5.151-14.848,5.683
			c-6.961,0.7-13.627-0.874-20.018-3.65c-1.899,1.675-3.708,3.45-5.495,5.247c0.086,0.215,0.165,0.438,0.229,0.678
			c1.671,6.34,4.412,13.271,8.368,19.166c0.047-0.004,0.092-0.011,0.141-0.011h28.066c-0.404-1.503-0.663-3.057-0.717-4.652
			C206.415,196.426,210.272,190.64,216.195,187.539z"/>
		<path fill="#DB6565" d="M137.554,168.416c-3.185,0.347-6.414-0.624-9.254-2.542c-2.537,1.301-5.146,2.546-7.808,3.681
			c5.236,8.938,10.571,17.815,16.486,26.323c3.426-0.51,7.454,0.877,10.634-0.291c2.92-1.072,5.58-3.609,7.798-5.691
			c3.838-3.601,7.421-7.504,11.26-11.116c-6.549-3.978-12.787-8.712-18.74-12.908c-1.974,1.637-4.302,2.763-7.029,2.911
			C139.763,168.844,138.64,168.7,137.554,168.416z"/>
		<path fill="#DB6565" d="M218.32,243.628c0.015-0.033,0.038-0.063,0.058-0.096c-10.881-1.67-22.459-1.746-33.154,0.322
			c-1.785,0.346-3.28-0.182-4.362-1.142c-1.309,1.757-2.58,3.518-3.76,5.304c11.536,4.608,22.342,10.822,33.867,15.448
			C213.242,256.787,215.537,250.115,218.32,243.628z"/>
	</g>
	<path fill="#FFFFFF" d="M271.738,139.446c-7.939,0.914-15.871,0.8-23.813-0.02c-0.76-0.078-3.38,1.222-1.826,1.383
		c8.395,0.866,16.782,0.945,25.172-0.02C272.57,140.639,273.766,139.212,271.738,139.446z"/>
</g>
</svg>
